<svg width="512" height="512" viewBox="0 0 512 512" fill="none" xmlns="http://www.w3.org/2000/svg">
<rect width="512" height="512" rx="110" fill="#121315"/>
<path d="M328.584 170.739C328.804 171.119 329.43 170.788 329.504 170.997C329.675 171.45 329.111 171.45 328.743 171.634C328.522 171.732 328.105 171.769 327.786 172.015C327.565 172.174 327.234 172.419 326.989 172.701C326.805 172.922 326.608 173.253 326.412 173.56C326.216 173.867 326.584 174.517 326.363 174.823C326.155 175.105 325.787 175.289 325.553 175.584C325.345 175.866 325.136 176.16 324.915 176.467C324.695 176.773 324.781 177.239 324.572 177.546C324.363 177.853 324.229 178.147 324.045 178.466C323.885 178.736 322.965 178.773 322.916 179.128C322.879 179.435 323.198 179.827 323.21 180.183C323.21 180.502 323.124 180.858 323.137 181.189C323.149 181.52 323.259 181.851 323.247 182.17C323.235 182.489 322.916 182.771 322.855 183.09C322.793 183.421 322.989 183.728 322.83 184.022C322.646 184.341 322.805 184.942 322.536 185.212C322.29 185.482 322.143 185.935 321.861 186.181C321.579 186.426 320.879 186.181 320.597 186.438C320.315 186.696 319.91 186.843 319.665 187.113C319.42 187.383 319.469 187.91 319.285 188.229C319.101 188.548 318.549 188.805 318.475 189.186C318.401 189.541 319.383 190.056 319.346 190.437C319.309 190.817 318.426 191.123 318.401 191.504C318.377 191.884 317.984 192.166 317.911 192.534C317.837 192.902 318.266 193.393 318.107 193.724C317.947 194.055 317.739 194.349 317.53 194.644C317.322 194.938 317.175 195.281 316.941 195.576C316.708 195.87 316.242 195.956 316.009 196.238C315.776 196.52 315.58 196.839 315.371 197.146C315.163 197.452 315.224 197.906 315.065 198.237C314.905 198.568 314.083 198.519 313.899 198.838C313.715 199.157 314.059 199.758 313.875 200.065C313.691 200.371 313.531 200.702 313.347 201.009C313.163 201.316 313.249 201.77 313.077 202.088C312.905 202.407 312.218 202.469 312.059 202.8C311.899 203.131 312.218 203.695 312.034 204.014C311.85 204.333 311.556 204.578 311.347 204.885C311.139 205.191 310.746 205.363 310.55 205.67C310.354 205.976 310.808 206.676 310.636 206.982C310.464 207.289 309.397 207.166 309.262 207.51C309.127 207.853 308.968 208.221 308.869 208.577C308.771 208.932 308.624 209.288 308.538 209.644C308.452 209.999 308.943 210.49 308.857 210.846C308.771 211.201 308.244 211.447 308.158 211.79C308.072 212.133 307.667 212.354 307.544 212.685C307.422 213.017 307.937 213.593 307.839 213.936C307.741 214.28 307.925 214.709 307.839 215.053C307.753 215.396 307.176 215.641 307.091 215.985C307.005 216.328 307.017 216.708 306.931 217.052C306.845 217.395 306.784 217.751 306.686 218.094C306.6 218.401 306.134 218.487 305.974 218.769C305.815 219.051 305.729 219.309 305.533 219.578C305.336 219.848 305.569 220.425 305.373 220.67C305.177 220.915 304.465 220.805 304.269 221.062C304.06 221.332 304.281 221.909 304.134 222.179C303.975 222.485 303.791 222.78 303.754 223.086C303.705 223.43 304.453 223.601 304.539 223.92C304.625 224.239 303.84 224.865 303.999 225.171C304.159 225.478 304.895 225.392 305.091 225.662C305.287 225.932 304.796 226.717 305.005 226.974C305.214 227.256 305.962 227.121 306.134 227.379C306.33 227.686 306.784 227.955 306.845 228.25C306.919 228.593 306.281 229.071 306.33 229.403C306.379 229.758 306.759 230.053 306.808 230.384C306.87 230.74 307.262 230.96 307.373 231.267C307.483 231.61 307.262 232.04 307.495 232.285C307.704 232.518 308.182 232.187 308.55 232.322C308.918 232.457 308.918 232.309 309.286 232.224C309.618 232.15 310.059 232.579 310.415 232.408C310.734 232.26 311.274 232.53 311.605 232.359C311.924 232.199 311.973 231.365 312.329 231.242C312.685 231.12 313.102 231.083 313.47 231.022C313.789 230.973 314.034 231.721 314.414 231.856C314.721 231.966 315.2 231.721 315.543 231.905C315.85 232.064 315.923 232.714 316.242 232.886C316.561 233.058 317.322 232.309 317.641 232.444C317.984 232.592 318.107 233.413 318.438 233.462C318.806 233.524 319.187 233.18 319.518 233.058C319.849 232.935 320.18 232.763 320.536 232.616C320.867 232.481 321.051 231.966 321.395 231.807C321.738 231.647 322.033 231.463 322.376 231.304C322.72 231.144 323.002 230.911 323.345 230.74C323.689 230.568 324.229 230.825 324.56 230.666C324.891 230.507 325.173 230.237 325.517 230.077C325.86 229.918 326.179 229.758 326.523 229.611C326.866 229.464 327.271 229.489 327.602 229.329C327.933 229.17 328.203 228.888 328.534 228.728C328.866 228.569 329.123 228.287 329.442 228.103C329.712 227.943 330.154 228.041 330.375 227.784C330.583 227.551 330.657 227.207 330.841 226.925C331.013 226.655 331.172 226.373 331.344 226.091C331.516 225.809 331.773 225.588 331.957 225.318C332.141 225.049 332.669 225.073 332.877 224.828C333.086 224.583 333.221 224.411 333.491 224.239C333.797 224.043 333.564 223.16 333.834 222.902C334.104 222.645 334.08 222.203 334.325 221.921C334.57 221.639 334.914 221.443 335.147 221.161C335.38 220.878 336.263 221.161 336.521 220.903C336.778 220.645 336.95 220.339 337.245 220.13C337.539 219.922 337.919 219.86 338.214 219.664C338.508 219.468 338.435 218.72 338.729 218.511C339.023 218.303 339.085 217.775 339.379 217.567C339.674 217.358 340.017 217.236 340.311 217.015C340.606 216.794 341.452 217.371 341.747 217.15C342.041 216.929 342.52 217.003 342.814 216.782C343.109 216.561 343.329 216.267 343.611 216.046C343.894 215.825 343.403 214.587 343.697 214.366C343.992 214.145 344.9 214.758 345.182 214.537C345.464 214.317 345.55 213.826 345.844 213.593C346.139 213.36 346.237 212.869 346.543 212.661C346.85 212.452 347.525 212.869 347.844 212.685C348.163 212.501 348.224 211.913 348.531 211.729C348.838 211.545 349.279 211.557 349.586 211.361C349.893 211.165 350.101 210.833 350.383 210.6C350.665 210.367 350.8 210.012 351.046 209.73C351.291 209.447 351.451 209.129 351.671 208.834C351.892 208.54 352.407 208.466 352.628 208.172C352.849 207.878 353.033 207.559 353.266 207.289C353.499 207.019 353.499 206.455 353.769 206.222C354.027 206.001 354.419 205.523 354.8 205.437C355.119 205.363 355.609 206.16 355.99 206.148C356.333 206.136 356.689 205.449 357.045 205.449C357.4 205.449 357.781 206.295 358.136 206.283C358.517 206.271 358.774 205.498 359.093 205.425C359.461 205.339 359.744 205.375 360.001 205.155C360.259 204.934 360.038 204.566 360.185 204.223C360.308 203.916 361.412 203.891 361.486 203.536C361.559 203.205 361.142 202.751 361.203 202.407C361.265 202.064 361.498 201.745 361.571 201.414C361.645 201.058 361.584 200.69 361.719 200.384C361.866 200.04 362.307 200.065 362.553 199.844C362.823 199.599 362.725 198.949 363.007 198.716C363.289 198.482 363.645 198.36 363.939 198.139C364.233 197.918 364.871 198.176 365.166 197.955C365.46 197.734 365.608 197.33 365.89 197.097C366.172 196.864 366.061 196.189 366.331 195.944C366.601 195.698 366.663 195.134 366.957 194.913C367.251 194.693 367.693 194.644 368 194.447C368.306 194.251 368.846 194.411 369.153 194.214C369.46 194.018 369.398 193.319 369.693 193.11C369.987 192.902 370.65 193.159 370.907 192.914C371.165 192.669 371.803 192.902 372.097 192.681C372.392 192.46 371.999 191.295 372.306 191.087C372.612 190.878 373.091 190.952 373.398 190.743C373.704 190.535 374.342 190.805 374.637 190.572C374.931 190.339 374.808 189.652 375.078 189.406C375.348 189.161 375.777 189.051 375.974 188.72C376.17 188.388 375.704 187.763 375.863 187.419C376.023 187.076 377.335 187.285 377.495 186.941C377.654 186.598 377.36 186.058 377.556 185.739C377.753 185.42 377.998 185.163 378.268 184.905C378.538 184.648 378.575 184.157 378.869 183.924C379.163 183.691 379.249 183.176 379.544 182.967C379.838 182.759 380.537 183.114 380.832 182.906C381.126 182.697 381.641 182.734 381.924 182.513C382.206 182.293 382.279 181.778 382.537 181.508C382.795 181.238 383.285 181.201 383.518 180.919C383.751 180.637 383.543 179.975 383.776 179.692C384.009 179.41 384.905 179.692 385.138 179.41C385.371 179.128 385.027 178.368 385.26 178.098C385.493 177.828 386.217 178.012 386.475 177.755C386.732 177.497 386.475 176.638 386.818 176.442C387.162 176.246 387.665 176.418 388.008 176.258C388.352 176.099 388.622 175.768 388.965 175.608C389.309 175.449 389.873 175.657 390.192 175.461C390.511 175.265 390.646 174.737 390.904 174.468C391.161 174.198 391.48 174.001 391.713 173.719C391.946 173.437 392.069 173.069 392.29 172.775C392.511 172.481 392.731 172.199 392.952 171.904C393.173 171.61 393.283 171.242 393.517 170.96C393.75 170.678 394.24 170.629 394.486 170.359C394.706 170.126 394.67 169.684 394.805 169.378C394.94 169.095 394.706 168.691 394.792 168.372C394.878 168.053 394.706 167.709 394.792 167.378C394.878 167.047 395.492 166.863 395.578 166.544C395.663 166.225 395.234 165.649 395.357 165.367C395.492 165.06 395.97 164.778 396.179 164.545C396.424 164.275 397.43 164.852 397.724 164.619C398.019 164.386 397.602 163.208 397.908 163C398.215 162.791 398.608 162.73 398.914 162.521C399.221 162.313 399.454 162.068 399.748 161.847C400.043 161.626 400.252 161.418 400.497 161.148C400.742 160.878 401.454 161.062 401.76 160.841C402.067 160.62 402.362 160.449 402.693 160.252C403.024 160.056 403.049 159.382 403.367 159.198C403.686 159.014 403.92 158.756 404.214 158.548C404.508 158.339 405.195 158.572 405.441 158.29C405.686 158.008 405.931 157.763 406.177 157.493C406.422 157.223 406.336 156.646 406.582 156.389C406.827 156.131 407.195 155.972 407.44 155.714C407.686 155.457 407.649 154.929 407.894 154.66C408.14 154.39 408.827 154.525 409.06 154.255C409.268 154.009 410.004 153.911 410.127 153.592C410.237 153.298 409.722 152.746 409.783 152.415C409.845 152.084 409.967 151.777 410.017 151.446C410.066 151.115 409.415 150.649 409.477 150.33C409.538 150.011 409.796 149.619 409.906 149.324C410.029 149.005 410.409 148.686 410.618 148.441C410.863 148.159 411.759 148.637 412.065 148.417C412.372 148.196 412.556 147.926 412.887 147.73C413.218 147.534 413.402 147.117 413.721 146.92C414.04 146.724 414.273 146.356 414.568 146.135C414.862 145.915 414.887 145.424 415.132 145.142C415.378 144.86 416.31 144.995 416.482 144.651C416.653 144.308 416.114 143.658 416.249 143.302C416.384 142.946 416.739 142.677 416.874 142.333C417.009 141.99 417.439 141.793 417.61 141.462C417.782 141.131 417.917 140.886 418.15 140.591C418.359 140.346 418.199 139.721 418.481 139.537C418.751 139.377 419.34 139.856 419.647 139.721C419.953 139.586 419.868 138.445 420.174 138.335C420.481 138.224 421.021 138.727 421.327 138.605C421.634 138.482 422.027 138.47 422.297 138.298C422.591 138.114 422.91 137.881 423.118 137.636C423.352 137.341 423.707 137.035 423.867 136.679C424.026 136.323 423.965 135.882 424.088 135.514C424.21 135.146 423.879 134.643 424.002 134.287C424.124 133.932 424.407 133.6 424.566 133.269C424.726 132.938 425.339 132.901 425.572 132.607C425.781 132.337 425.597 131.54 425.94 131.368C426.247 131.209 426.639 131.086 426.995 130.963C427.351 130.841 427.731 130.853 428.062 130.73C428.418 130.595 429.056 131.025 429.35 130.841C429.682 130.645 430.001 130.178 430.16 129.872C430.32 129.565 430.356 129.099 430.381 128.719C430.393 128.388 430.123 128.02 430.087 127.652C430.05 127.284 430.59 126.867 430.54 126.511C430.491 126.156 429.4 125.898 429.387 125.555C429.387 125.187 429.375 124.647 429.473 124.34C429.571 124.034 429.927 123.629 430.16 123.335C430.369 123.065 430.786 122.905 431.031 122.648C431.277 122.39 431.497 122.12 431.73 121.863C431.976 121.593 432.724 121.703 432.908 121.434C433.104 121.127 433.08 120.612 433.117 120.281C433.153 119.949 433.62 119.643 433.669 119.263C433.718 118.919 432.724 118.441 432.761 118.073C432.798 117.705 432.847 117.386 432.871 117.018C432.896 116.65 434 116.319 434 115.963C434 115.608 433.068 115.276 433.019 114.921C432.969 114.565 432.749 114.418 432.516 114.087C432.307 113.792 432.454 113.216 432.172 112.934C431.914 112.676 431.387 112.652 431.117 112.394C430.847 112.137 431.117 111.352 430.872 111.07C430.614 110.763 429.645 110.935 429.51 110.603C429.375 110.297 430.001 109.487 429.792 109.254C429.584 109.021 429.081 108.972 428.823 108.764C428.565 108.555 428.197 108.518 427.94 108.322C427.682 108.126 427.204 108.212 426.958 108.003C426.713 107.795 426.603 107.427 426.382 107.182C426.161 106.936 426.468 106.409 426.333 106.065C426.21 105.747 425.854 105.526 425.756 105.17C425.658 104.814 424.75 104.765 424.64 104.434C424.529 104.103 425.045 103.514 424.861 103.22C424.677 102.926 424.75 102.153 424.443 101.944C424.161 101.76 423.585 101.834 423.253 101.736C422.935 101.638 422.407 102.435 422.063 102.374C421.72 102.312 421.524 101.478 421.18 101.429C420.837 101.38 420.493 101.466 420.162 101.392C419.831 101.319 419.45 101.392 419.131 101.258C418.813 101.123 418.506 100.939 418.187 100.779C417.868 100.62 417.561 100.448 417.255 100.289C416.948 100.129 416.776 99.6753 416.457 99.5281C416.138 99.381 415.598 99.7612 415.267 99.6385C414.936 99.5159 414.838 98.596 414.494 98.5224C414.151 98.4488 413.856 98.4488 413.501 98.2894C413.145 98.1299 412.691 98.3016 412.372 98.1299C412.053 97.9582 411.697 97.8233 411.366 97.6516C411.035 97.4799 410.753 97.1365 410.409 97.0138C410.066 96.8911 409.575 97.627 409.219 97.6025C408.9 97.578 408.79 97.5289 408.471 97.6393C408.176 97.7497 407.956 97.811 407.661 97.9827C407.391 98.1422 407.269 98.4979 406.999 98.6941C406.729 98.8903 405.784 98.0563 405.514 98.228C405.232 98.412 405.134 98.7922 404.84 98.9149C404.533 99.0621 404.324 99.3564 404.018 99.3932C403.674 99.43 403.404 99.8225 403.073 99.8961C402.742 99.9697 402.19 99.1479 401.871 99.2338C401.552 99.3196 401.392 100.056 401.073 100.154C400.754 100.252 400.35 100.068 400.018 100.154C399.687 100.24 399.282 99.9697 398.951 100.056C398.62 100.141 398.387 100.534 398.043 100.583C397.7 100.632 397.344 100.374 397.001 100.399C396.657 100.423 396.399 101.65 396.056 101.687C395.712 101.724 395.344 101.294 395.013 101.368C394.682 101.441 394.4 101.552 394.081 101.699C393.762 101.846 393.406 101.908 393.063 102.079C392.744 102.239 392.216 102.03 391.897 102.214C391.578 102.398 391.64 103.257 391.308 103.428C390.977 103.6 390.364 103.183 390.02 103.343C389.677 103.502 389.628 104.299 389.284 104.434C388.99 104.557 388.462 104.091 388.119 104.103C387.812 104.115 387.456 104.397 387.113 104.373C386.794 104.348 386.463 104.299 386.131 104.25C385.8 104.201 385.53 103.612 385.211 103.588C384.892 103.563 384.537 103.821 384.218 103.845C383.899 103.87 383.347 103.367 383.052 103.49C382.721 103.625 382.512 104.017 382.157 104.103C381.801 104.189 381.58 104.79 381.224 104.863C380.869 104.937 380.378 104.361 380.022 104.446C379.666 104.532 379.372 104.912 379.016 104.998C378.66 105.084 378.157 104.778 377.814 104.912C377.47 105.047 377.323 105.673 376.967 105.771C376.612 105.869 376.207 105.661 375.851 105.747C375.495 105.832 375.323 106.642 374.968 106.728C374.612 106.814 374.244 106.752 373.888 106.85C373.532 106.948 373.226 107.108 372.882 107.218C372.539 107.329 371.852 106.899 371.533 107.145C371.238 107.365 371.238 108.003 370.956 108.273C370.674 108.543 369.889 108.261 369.607 108.518C369.325 108.776 369.435 109.438 369.128 109.659C368.822 109.88 368.429 109.831 368.073 109.953C367.718 110.076 367.411 109.978 367.031 110.015C366.65 110.052 366.344 110.211 365.963 110.223C365.583 110.236 365.215 109.978 364.835 109.978C364.454 109.978 364.135 110.849 363.767 110.886C363.399 110.922 363.142 111.204 362.786 111.315C362.479 111.413 362.43 111.609 362.148 111.83C361.903 112.026 361.559 112.038 361.314 112.296C361.093 112.541 360.602 112.541 360.381 112.799C360.161 113.056 360.112 113.473 359.891 113.707C359.658 113.952 358.995 113.707 358.738 113.89C358.455 114.099 358.48 114.786 358.161 114.884C357.805 114.994 357.376 115.436 356.983 115.448C356.591 115.46 356.26 114.504 355.867 114.467C355.474 114.43 355.021 115.326 354.64 115.289C354.26 115.252 353.941 114.553 353.561 114.565C353.18 114.577 352.714 114.357 352.358 114.467C352.003 114.577 351.671 114.295 351.291 114.332C350.911 114.369 350.629 115.46 350.248 115.473C349.868 115.485 349.5 114.541 349.132 114.541C348.764 114.541 348.47 115.743 348.101 115.779C347.733 115.816 347.181 114.712 346.826 114.81C346.47 114.908 346.151 114.921 345.795 114.982C345.439 115.043 345.084 114.982 344.728 115.019C344.372 115.056 344.102 115.914 343.746 115.963C343.391 116.012 342.9 115.24 342.544 115.301C342.188 115.362 341.882 115.865 341.526 115.951C341.207 116.025 341.121 116.613 340.827 116.846C340.569 117.055 339.772 116.761 339.526 117.03C339.306 117.288 339.845 118.196 339.624 118.478C339.404 118.76 338.582 118.527 338.349 118.784C338.103 119.054 338.385 119.888 338.116 120.084C337.821 120.317 337.195 119.937 336.864 120.011C336.508 120.084 336.141 120.035 335.785 120.097C335.429 120.158 335.135 120.734 334.767 120.771C334.398 120.808 334.03 120.722 333.662 120.771C333.294 120.82 332.89 120.489 332.521 120.538C332.153 120.587 331.896 121.176 331.528 121.25C331.16 121.323 330.73 120.833 330.362 120.833C329.994 120.833 329.639 120.869 329.271 120.845C328.902 120.82 328.498 121.483 328.13 121.47C327.762 121.458 327.406 120.882 327.05 120.882C326.694 120.882 326.314 120.992 325.946 121.053C325.578 121.115 325.198 121.115 324.854 121.225C324.511 121.335 324.094 121.274 323.738 121.397C323.382 121.519 323.1 121.801 322.756 121.924C322.413 122.047 322.069 122.169 321.726 122.268C321.382 122.366 321.149 123.151 320.781 123.2C320.413 123.249 319.959 122.268 319.591 122.255C319.223 122.243 318.868 122.402 318.5 122.366C318.131 122.329 317.776 122.108 317.408 122.059C317.04 122.01 316.635 121.765 316.279 121.752C315.923 121.74 315.42 121.752 315.065 121.814C314.709 121.875 314.537 123.224 314.181 123.286C313.825 123.347 313.372 122.746 313.016 122.807C312.66 122.869 312.231 122.476 311.875 122.525C311.519 122.574 311.2 122.869 310.832 122.918C310.464 122.967 310.096 122.881 309.74 122.918C309.421 122.954 309.115 123.249 308.82 123.371C308.526 123.494 308.575 124.242 308.293 124.402C308.011 124.561 307.324 124.021 307.054 124.205C306.784 124.389 306.551 124.598 306.269 124.757C305.986 124.917 305.962 125.689 305.667 125.8C305.373 125.91 304.821 125.076 304.502 125.113C304.134 125.15 303.766 125.984 303.386 125.947C303.005 125.91 302.65 125.653 302.282 125.591C301.914 125.53 301.693 124.696 301.325 124.622C300.957 124.549 300.503 124.819 300.147 124.782C299.791 124.745 299.362 124.77 298.994 124.782C298.626 124.794 298.27 125.493 297.902 125.481C297.534 125.469 297.166 125.26 296.798 125.236C296.43 125.211 296.062 125.371 295.694 125.346C295.326 125.322 295.007 124.549 294.639 124.537C294.271 124.524 293.878 124.365 293.51 124.377C293.142 124.389 292.651 124.487 292.271 124.61C291.891 124.733 291.412 124.659 291.057 124.819C290.701 124.978 290.603 125.677 290.259 125.837C289.916 125.996 289.634 126.376 289.278 126.487C288.922 126.597 288.517 127.223 288.137 127.235C287.757 127.247 287.413 126.315 287.033 126.217C286.653 126.119 286.358 125.923 286.002 125.788C285.647 125.653 284.96 126.352 284.616 126.217C284.273 126.082 284.285 124.733 283.929 124.635C283.573 124.537 283.009 125.138 282.641 125.138C282.273 125.138 281.745 125.665 281.377 125.579C281.009 125.493 280.776 124.855 280.421 124.721C280.065 124.586 279.783 124.267 279.427 124.144C279.071 124.021 278.789 123.568 278.433 123.47C278.077 123.371 277.574 124.377 277.206 124.377C276.838 124.377 276.507 124.304 276.139 124.304C275.771 124.304 275.415 123.641 275.047 123.641C274.679 123.641 274.324 123.359 273.968 123.371C273.612 123.384 273.256 123.604 272.888 123.592C272.52 123.58 272.177 123.494 271.821 123.47C271.465 123.445 271.073 123.641 270.704 123.666C270.336 123.69 269.968 123.703 269.6 123.752C269.232 123.801 268.889 123.923 268.521 123.972C268.153 124.021 267.773 123.555 267.404 123.58C267.036 123.604 266.73 123.678 266.374 123.641C266.055 123.617 265.54 123.384 265.209 123.47C264.902 123.543 264.767 124.389 264.448 124.512C264.129 124.635 263.565 124.107 263.258 124.23C262.951 124.353 262.915 125.101 262.608 125.223C262.301 125.346 261.872 124.966 261.565 125.027C261.234 125.101 260.952 125.91 260.633 125.873C260.314 125.837 259.909 125.555 259.602 125.371C259.32 125.211 259.308 124.647 259.038 124.414C258.78 124.193 258.694 123.801 258.449 123.555C258.204 123.31 257.578 123.469 257.32 123.249C257.051 123.016 256.781 122.832 256.511 122.66C256.204 122.476 256.045 121.716 255.713 121.667C255.358 121.605 254.941 121.384 254.585 121.36C254.229 121.335 253.824 122.108 253.456 122.108C253.088 122.108 252.72 122.341 252.364 122.341C252.009 122.341 251.677 121.409 251.322 121.384C250.966 121.36 250.487 122.304 250.132 122.243C249.776 122.182 249.42 121.949 249.077 121.838C248.733 121.728 248.279 121.887 247.936 121.765C247.592 121.642 247.359 121.213 247.016 121.09C246.672 120.967 246.304 120.955 245.961 120.845C245.617 120.734 245.31 120.575 244.955 120.489C244.599 120.403 244.403 119.508 244.034 119.434C243.666 119.361 243.311 119.25 242.955 119.177C242.599 119.103 242.108 119.631 241.753 119.545C241.397 119.459 241.127 119.091 240.771 118.98C240.514 118.895 240.33 118.551 239.962 118.392C239.679 118.269 239.177 118.539 238.845 118.392C238.551 118.269 238.379 117.729 238.048 117.607C237.741 117.496 237.25 117.815 236.919 117.717C236.588 117.619 236.232 117.656 235.901 117.607C235.57 117.558 235.214 117.889 234.871 117.877C234.527 117.864 234.061 117.325 233.705 117.533C233.411 117.705 232.859 117.705 232.552 117.962C232.282 118.196 232.319 118.821 232.037 119.079C231.755 119.336 231.914 120.109 231.632 120.342C231.35 120.575 230.933 120.82 230.626 121.004C230.295 121.2 229.779 121.483 229.436 121.544C229.092 121.605 228.589 120.906 228.234 120.98C227.878 121.053 227.473 120.931 227.117 121.016C226.762 121.102 226.651 122.022 226.295 122.12C225.94 122.218 225.437 121.74 225.081 121.863C224.75 121.973 224.418 122.133 224.063 122.268C223.707 122.402 223.179 121.998 222.836 122.12C222.492 122.243 222.407 123.114 222.063 123.236C221.72 123.359 221.486 123.727 221.143 123.874C220.799 124.021 220.137 123.433 219.806 123.604C219.487 123.764 219.07 123.85 218.738 124.058C218.469 124.23 218.616 125.432 218.272 125.53C217.966 125.628 217.45 125.138 217.107 125.199C216.763 125.26 216.322 124.659 215.991 124.721C215.659 124.782 215.463 125.53 215.132 125.616C214.801 125.702 214.175 125.113 213.868 125.248C213.562 125.383 213.733 126.376 213.488 126.609C213.255 126.818 212.96 126.977 212.715 127.198C212.47 127.419 211.635 126.953 211.39 127.161C211.145 127.37 211.329 128.069 211.083 128.29C210.838 128.51 210.445 128.559 210.2 128.78C209.955 129.001 209.746 129.259 209.525 129.504C209.305 129.749 209.464 130.338 209.243 130.583C209.022 130.829 208.25 130.718 208.09 131.025C207.943 131.307 208.09 131.773 207.967 132.104C207.845 132.435 207.538 132.668 207.44 132.987C207.342 133.306 208.029 133.895 207.918 134.201C207.808 134.508 207.808 134.937 207.661 135.232C207.514 135.526 206.765 135.538 206.569 135.808C206.348 136.115 205.919 136.262 205.673 136.556C205.428 136.851 205.514 137.415 205.256 137.709C204.999 138.004 205.134 138.58 204.888 138.874C204.643 139.169 203.968 139.107 203.747 139.426C203.527 139.745 203.514 140.162 203.318 140.493C203.158 140.775 202.447 140.665 202.226 140.935C202.005 141.205 202.422 142.002 202.189 142.247C201.956 142.493 200.889 141.904 200.656 142.137C200.423 142.37 200.656 143.069 200.435 143.314C200.214 143.56 200.055 143.866 199.871 144.124C199.687 144.381 199.429 144.627 199.27 144.921C199.086 145.338 199.392 145.915 199.245 146.172C199.024 146.601 198.902 146.982 198.73 147.239C198.546 147.509 197.712 147.337 197.466 147.73C197.307 147.975 197.209 148.343 196.988 148.748C196.841 149.03 196.669 149.361 196.473 149.741C196.325 150.023 196.706 150.416 196.693 150.796C196.693 151.115 196.129 151.483 196.166 151.839C196.203 152.17 197.049 152.452 197.086 152.795C197.123 153.139 196.105 153.556 196.117 153.899C196.129 154.242 196.387 154.574 196.325 154.905C196.264 155.236 196.141 155.518 195.97 155.812C195.81 156.082 195.393 156.082 195.172 156.34C194.964 156.573 194.902 156.904 194.657 157.137C194.412 157.37 194.853 158.327 194.608 158.548C194.363 158.768 194.093 158.903 193.86 159.124C193.627 159.345 192.67 158.866 192.461 159.112C192.253 159.357 191.909 159.59 191.737 159.872C191.541 160.191 191.86 160.878 191.602 161.16C191.345 161.442 190.94 161.577 190.658 161.847C190.376 162.117 190.339 162.607 190.057 162.877C189.774 163.147 189.603 163.454 189.345 163.736C189.087 164.018 188.4 163.92 188.18 164.226C187.959 164.533 187.382 164.656 187.198 164.987C187.014 165.318 187.898 166.213 187.726 166.544C187.554 166.875 186.352 166.667 186.18 167.01C186.008 167.354 186.511 168.053 186.315 168.372C186.119 168.691 186.155 169.218 185.935 169.512C185.714 169.807 184.561 169.414 184.34 169.709C184.119 170.003 184.732 170.947 184.499 171.242C184.266 171.536 183.42 171.352 183.187 171.647C182.954 171.941 182.475 172.027 182.242 172.321C182.009 172.616 182.144 173.192 181.899 173.486C181.69 173.744 181.445 174.038 181.31 174.345C181.175 174.639 181.837 175.216 181.739 175.547C181.641 175.878 181.604 176.172 181.518 176.504C181.432 176.835 180.647 176.957 180.549 177.264C180.451 177.571 180.414 177.926 180.279 178.221C180.144 178.515 180.132 178.969 179.911 179.214C179.69 179.459 179.371 179.778 179.065 179.95C178.783 180.109 178.402 180.244 178.071 180.367C177.752 180.477 177.188 179.815 176.857 179.913C176.525 180.011 176.452 180.907 176.133 181.017C175.814 181.127 175.151 180.514 174.869 180.674C174.562 180.833 174.329 181.275 174.109 181.52C173.888 181.765 173.63 182.096 173.483 182.415C173.348 182.71 173.225 183.065 173.115 183.409C173.004 183.752 173.103 184.12 173.017 184.451C172.931 184.782 172.624 185.04 172.514 185.371C172.403 185.702 172.232 185.948 172.084 186.242C171.925 186.549 172.232 187.186 171.986 187.419C171.716 187.677 170.833 187.211 170.539 187.444C170.244 187.677 170.306 188.388 169.999 188.609C169.692 188.83 169.361 189.026 169.054 189.247C168.748 189.468 168.551 189.86 168.245 190.081C167.938 190.302 167.46 190.314 167.177 190.572C166.932 190.78 167.275 191.516 167.067 191.761C166.858 192.007 165.791 191.577 165.595 191.847C165.398 192.117 165.264 192.424 165.08 192.693C164.896 192.963 165.533 193.81 165.337 194.067C165.141 194.325 164.466 194.227 164.245 194.46C164.025 194.693 164.012 195.208 163.767 195.404C163.497 195.612 163.006 195.809 162.614 195.882C162.282 195.944 161.853 195.98 161.461 195.98C161.105 195.98 160.725 195.907 160.357 195.895C159.988 195.882 159.633 196.103 159.277 196.091C158.897 196.091 158.443 195.134 158.111 195.195C157.731 195.257 157.24 195.514 156.958 195.711C156.652 195.931 156.394 196.189 156.087 196.397C155.781 196.606 155.523 196.888 155.216 197.084C154.91 197.281 155.032 198.176 154.713 198.372C154.394 198.568 153.499 197.808 153.18 198.004C152.861 198.2 152.665 198.593 152.346 198.789C152.027 198.985 151.941 199.537 151.659 199.783C151.377 200.028 150.579 199.783 150.321 200.052C150.064 200.322 150.53 201.328 150.26 201.598C149.99 201.868 149.082 201.426 148.788 201.659C148.494 201.892 148.248 202.039 147.917 202.223C147.586 202.407 147.819 203.572 147.5 203.756C147.181 203.94 146.371 203.303 146.052 203.487C145.733 203.671 145.279 203.622 144.948 203.806C144.617 203.99 144.47 204.468 144.139 204.64C143.807 204.811 143.488 204.983 143.145 205.155C142.801 205.326 142.752 206.271 142.384 206.369C142.016 206.467 141.624 206.676 141.256 206.749C140.888 206.823 140.299 205.854 139.931 205.927C139.563 206.001 139.146 206.05 138.79 206.148C138.434 206.246 138.103 206.614 137.747 206.761C137.391 206.909 137.22 207.399 136.876 207.559C136.533 207.718 135.858 207.203 135.527 207.375C135.195 207.546 135.416 208.822 135.085 208.981C134.754 209.141 133.932 208.282 133.588 208.429C133.245 208.577 132.889 208.577 132.533 208.712C132.214 208.834 131.724 209.129 131.454 209.374C131.208 209.595 130.889 209.914 130.656 210.183C130.423 210.453 130.62 211.066 130.399 211.336C130.178 211.606 129.883 211.802 129.663 212.06C129.43 212.33 129.773 213.25 129.515 213.458C129.233 213.679 128.522 213.286 128.203 213.397C127.884 213.507 127.467 213.924 127.099 213.851C126.767 213.789 126.571 213.102 126.215 212.968C125.884 212.845 125.185 213.568 124.854 213.421C124.522 213.274 124.277 212.98 123.946 212.857C123.59 212.722 123.406 212.317 123.063 212.244C122.682 212.17 122.204 211.299 121.873 211.385C121.431 211.483 121.1 211.888 120.818 211.986C120.388 212.146 120.057 212.403 119.787 212.575C119.493 212.759 119.419 213.299 119.027 213.483C118.757 213.618 118.327 213.483 117.886 213.618C117.579 213.703 117.272 213.973 116.855 214.071C116.548 214.133 116.205 214.206 115.911 214.403C115.653 214.574 115.714 215.163 115.457 215.396C115.211 215.604 114.733 215.568 114.488 215.801C114.242 216.034 114.095 216.377 113.837 216.586C113.58 216.794 112.831 216.218 112.549 216.377C112.267 216.537 112.341 217.493 112.022 217.567C111.703 217.64 111.396 216.831 111.053 216.782C110.734 216.745 110.427 216.954 110.096 216.856C109.777 216.77 109.335 217.101 109.016 217.003C108.697 216.905 108.489 216.402 108.17 216.316C107.851 216.23 107.483 215.825 107.164 215.801C106.82 215.776 106.317 215.899 105.998 215.985C105.642 216.083 105.324 216.524 104.98 216.696C104.637 216.868 104.489 217.358 104.158 217.555C103.827 217.751 103.618 218.107 103.287 218.303C102.956 218.499 102.404 218.266 102.073 218.438C101.741 218.609 101.496 219.002 101.14 219.1C100.784 219.198 100.38 219.149 100.036 219.296C99.6926 219.443 99.4718 219.824 99.1406 219.995C98.8094 220.167 98.699 220.744 98.3677 220.915C98.0365 221.087 97.2636 220.327 96.9324 220.486C96.6012 220.645 96.2822 220.707 95.9265 220.829C95.5707 220.952 95.5216 222.093 95.1781 222.179C94.8346 222.264 94.4175 222.203 94.0618 222.289C93.706 222.375 93.1294 221.492 92.7737 221.565C92.4179 221.639 92.3566 222.865 92.0131 222.964C91.6696 223.062 91.2893 222.927 90.958 223.062C90.6268 223.197 90.3201 223.479 89.9889 223.614C89.6577 223.749 89.0075 223.111 88.6763 223.246C88.345 223.381 87.9034 223.307 87.5722 223.442C87.2409 223.577 86.8852 223.748 86.5662 223.896C86.2472 224.043 86.4312 225.245 86.1245 225.417C85.7811 225.6 84.7751 224.742 84.4807 224.975C84.1863 225.208 84.2353 225.919 83.9777 226.189C83.7201 226.459 83.5238 226.802 83.3153 227.121C83.1067 227.44 83.2171 227.906 83.0454 228.262C82.8736 228.618 82.1744 228.716 82.0394 229.084C81.929 229.39 81.561 229.562 81.4138 229.893C81.2665 230.188 81.8799 230.874 81.7204 231.193C81.561 231.512 80.8372 231.525 80.69 231.843C80.5428 232.162 80.8617 232.665 80.7513 232.984C80.6409 233.303 80.0643 233.511 80.003 233.855C79.9416 234.198 80.8494 234.578 80.8494 234.922C80.8494 235.265 80.2974 235.609 80.4446 235.952C80.5796 236.259 80.8617 236.504 81.0703 236.811C81.2665 237.093 81.2911 237.522 81.4996 237.816C81.7082 238.111 82.0762 238.283 82.2725 238.577C82.4688 238.871 83.0822 238.994 83.2294 239.301C83.3889 239.632 82.4933 240.306 82.5546 240.65C82.6282 241.03 83.8796 241.165 83.9655 241.545C84.0513 241.925 83.5606 242.416 83.6465 242.796C83.7324 243.176 83.3275 243.679 83.4257 244.047C83.5238 244.415 84.493 244.538 84.6034 244.906C84.7138 245.274 84.2231 245.813 84.3212 246.193C84.4071 246.512 84.7629 246.77 84.8119 247.089C84.861 247.408 85.1063 247.727 85.1431 248.058C85.18 248.389 85.1186 248.732 85.1431 249.051C85.1677 249.37 84.9714 249.726 85.0082 250.045C85.045 250.364 84.5052 250.805 84.5543 251.124C84.6034 251.443 84.9223 251.786 85.0327 252.093C85.1432 252.4 85.9283 252.547 85.9896 252.878C86.051 253.209 85.4498 253.638 85.4744 253.97C85.4989 254.301 85.8669 254.62 85.8792 254.951C85.8915 255.282 85.6461 255.65 85.6706 255.981C85.6952 256.324 85.5603 256.717 85.6093 257.036C85.6707 257.379 85.7933 257.784 85.916 258.078C86.0632 258.434 86.1982 258.802 86.3454 259.072C86.5417 259.427 87.474 259.182 87.6703 259.403C87.9279 259.697 87.7071 260.36 87.9647 260.544C88.2469 260.74 88.3695 261.096 88.6517 261.316C88.8848 261.5 89.7926 261.096 90.038 261.402C90.222 261.635 89.7067 262.383 89.903 262.739C90.0993 263.095 90.3324 263.291 90.4305 263.561C90.5655 263.941 90.1606 264.211 90.1729 264.493C90.1729 264.824 90.8354 265.131 90.8108 265.486C90.7863 265.769 90.5041 266.1 90.5532 266.492C90.59 266.774 91.1666 266.97 91.277 267.338C91.3629 267.621 90.4919 268.283 90.6268 268.639C90.7618 268.994 91.7432 268.982 91.9149 269.338C92.0744 269.669 91.4855 270.368 91.6573 270.724C91.8168 271.055 92.7369 271.03 92.8963 271.386C93.0558 271.742 93.3134 272.048 93.4484 272.404C93.5833 272.76 93.4852 273.201 93.5956 273.569C93.6815 273.863 94.1354 274.011 94.258 274.317C94.3807 274.624 93.7919 275.237 93.9391 275.531C94.0863 275.826 94.258 276.083 94.4053 276.378C94.5525 276.672 95.1168 276.746 95.2517 277.04C95.3867 277.334 95.8161 277.531 95.9142 277.837C96.0123 278.144 95.8406 278.561 95.9142 278.88C96.0001 279.248 95.6198 279.726 95.6934 280.106C95.767 280.487 96.638 280.683 96.7116 281.063C96.7852 281.443 96.7607 281.836 96.8343 282.216C96.9079 282.596 97.2514 282.927 97.3127 283.308C97.3741 283.688 97.2759 284.105 97.3373 284.485C97.3863 284.804 96.9937 285.184 97.0919 285.503C97.19 285.822 97.5826 286.006 97.693 286.312C97.8034 286.619 97.5213 287.073 97.6439 287.38C97.7666 287.686 98.0733 287.919 98.1837 288.226C98.2941 288.532 97.9874 288.962 98.061 289.281C98.1346 289.599 97.877 289.906 97.9016 290.225C97.9261 290.544 98.0365 290.728 97.9752 291.071C97.9138 291.39 98.9075 292.04 98.7971 292.359C98.6867 292.678 97.8279 292.727 97.7053 293.046C97.5826 293.365 97.7666 293.794 97.6562 294.113C97.5458 294.432 96.7484 294.579 96.6748 294.91C96.6012 295.241 97.7544 295.658 97.7666 295.99C97.7789 296.37 97.2514 296.762 97.2759 297.142C97.3004 297.523 97.4722 297.878 97.509 298.259C97.5458 298.639 97.3986 299.031 97.4231 299.412C97.4477 299.792 97.828 300.16 97.8402 300.54C97.8525 300.92 96.7975 301.3 96.7852 301.693C96.7729 302.085 97.8279 302.478 97.8157 302.87C97.8034 303.263 97.3372 303.606 97.325 303.986C97.3127 304.367 96.822 304.71 96.7975 305.09C96.7729 305.47 97.509 305.9 97.4845 306.28C97.4599 306.66 96.4908 306.979 96.454 307.359C96.4294 307.678 97.0183 308.058 97.0306 308.39C97.0428 308.721 96.5889 309.101 96.6257 309.432C96.6625 309.763 97.4109 309.984 97.4599 310.303C97.509 310.622 97.9506 310.904 97.9874 311.235C98.0242 311.566 97.5949 311.934 97.5949 312.253C97.5949 312.572 96.8833 312.817 96.8343 313.148C96.7852 313.48 97.5826 313.909 97.509 314.228C97.4354 314.547 96.5398 314.62 96.4417 314.927C96.3436 315.233 96.4662 315.589 96.3681 315.908C96.27 316.227 97.19 316.84 97.0919 317.147C96.9937 317.453 96.0001 317.502 95.9265 317.809C95.8529 318.116 96.5153 318.594 96.454 318.901C96.3926 319.269 96.1473 319.612 96.086 319.992C96.0246 320.372 96.0737 320.753 96.0123 321.133C95.951 321.513 94.8469 321.709 94.7855 322.09C94.7242 322.47 95.2395 322.948 95.1659 323.316C95.0923 323.684 94.8837 324.04 94.7978 324.408C94.7242 324.714 94.9941 325.107 94.9328 325.426C94.8715 325.745 94.5034 326.014 94.4666 326.333C94.4298 326.652 94.2458 326.959 94.1967 327.278C94.1477 327.597 94.5402 327.989 94.4911 328.308C94.4421 328.627 93.706 328.811 93.6324 329.13C93.5588 329.449 93.8409 329.804 93.7551 330.123C93.6079 330.54 93.5588 330.859 93.3993 331.117C93.1785 331.485 93.154 331.902 92.9209 332.122C92.6632 332.355 92.2462 332.404 91.9763 332.711C91.78 332.944 92.1358 333.533 91.9395 333.925C91.8045 334.207 91.0684 334.257 90.9212 334.649C90.8108 334.968 90.3937 335.275 90.3446 335.63C90.2956 335.961 90.4305 336.366 90.3937 336.722C90.3569 337.065 90.5655 337.433 90.5287 337.789C90.4918 338.145 90.9335 338.562 90.8844 338.905C90.8354 339.248 89.6454 339.346 89.5595 339.69C89.4737 340.033 89.4859 340.291 89.3264 340.622C89.167 340.953 90.0993 341.824 89.9275 342.143C89.7558 342.462 89.4 342.658 89.2283 342.977C89.0565 343.296 88.0628 343.222 87.9279 343.553C87.793 343.885 87.5721 344.314 87.5108 344.67C87.4495 345.025 87.9279 345.454 87.8911 345.81C87.8543 346.166 87.658 346.497 87.6212 346.853C87.5844 347.208 87.5476 347.564 87.5231 347.92C87.4986 348.275 88.0874 348.656 88.0751 349.011C88.0628 349.367 88.2837 349.723 88.2714 350.066C88.2591 350.41 87.8175 350.728 87.8911 351.084C87.9647 351.44 87.5476 351.93 87.658 352.274C87.7684 352.617 88.5781 352.691 88.7131 353.022C88.848 353.353 88.3696 353.917 88.4922 354.249C88.6149 354.58 88.3818 354.96 88.4554 355.303C88.529 355.647 89.351 355.782 89.4614 356.064C89.584 356.37 89.6699 356.689 89.8294 356.959C89.9889 357.229 90.4551 357.303 90.6513 357.56C90.8476 357.818 90.6146 358.406 90.8231 358.664C91.0317 358.922 91.4733 358.971 91.6696 359.24C91.8659 359.51 91.461 360.258 91.6696 360.54C91.8781 360.81 92.7001 360.626 92.9331 360.896C93.154 361.154 93.154 361.657 93.4361 361.902C93.6938 362.123 93.9391 362.466 94.258 362.65C94.5402 362.822 95.1659 362.343 95.5216 362.478C95.8774 362.613 96.0123 363.263 96.3681 363.386C96.7239 363.509 97.2023 363.214 97.5703 363.337C97.9384 363.46 98.2451 363.644 98.6008 363.742C98.9566 363.84 99.4105 363.533 99.7785 363.619C100.147 363.705 100.49 363.717 100.858 363.803C101.226 363.889 101.287 365.14 101.655 365.25C102.024 365.361 102.465 365.128 102.833 365.25C103.201 365.373 103.704 364.98 104.072 365.091C104.44 365.201 104.624 365.9 104.992 365.986C105.36 366.072 105.728 366.366 106.096 366.415C106.464 366.465 106.918 365.937 107.311 365.9C107.703 365.864 108.084 365.9 108.464 365.827C108.844 365.753 109.102 365.054 109.47 364.98C109.838 364.907 110.402 366.097 110.783 366.06C111.163 366.023 111.445 365.79 111.825 365.827C112.206 365.864 112.598 365.103 112.979 365.091C113.359 365.079 113.715 365.091 114.095 365.054C114.475 365.017 114.868 365.189 115.236 365.14C115.604 365.091 115.984 365.066 116.352 365.042C116.72 365.017 117.137 364.306 117.518 364.33C117.849 364.343 118.045 365.361 118.364 365.471C118.671 365.581 119.162 365.275 119.468 365.434C119.775 365.594 119.628 366.514 119.91 366.673C120.192 366.832 120.634 366.783 120.928 366.931C121.222 367.078 121.762 366.747 122.069 366.845C122.388 366.955 122.67 367.078 122.989 367.078C123.369 367.078 123.725 367.458 124.105 367.47C124.486 367.482 124.854 367.728 125.222 367.74C125.59 367.752 126.007 367.078 126.375 367.102C126.743 367.127 127.099 367.814 127.467 367.826C127.835 367.838 128.227 367.335 128.608 367.335C128.988 367.335 129.381 367.286 129.749 367.311C130.117 367.335 130.497 367.446 130.865 367.495C131.233 367.544 131.625 367.532 131.993 367.568C132.362 367.605 132.766 367.311 133.134 367.335C133.502 367.36 133.858 368.145 134.214 368.145C134.57 368.145 134.962 367.544 135.33 367.544C135.698 367.544 136.091 367.544 136.459 367.544C136.827 367.544 137.22 367.544 137.588 367.544C137.968 367.544 138.348 367.581 138.704 367.568C139.097 367.568 139.477 368.243 139.845 368.231C140.299 368.231 140.63 367.421 140.949 367.384C141.415 367.335 141.624 366.906 141.918 366.82C142.347 366.698 142.654 366.783 142.985 366.624C143.28 366.489 143.955 367.348 144.408 367.225C144.715 367.151 144.973 366.918 145.439 366.857C145.905 366.796 146.212 366.808 146.518 366.808C146.997 366.808 147.23 366.759 147.537 366.857C147.843 366.955 148.31 366.575 148.751 366.698C149.046 366.771 149.303 367.274 149.757 367.348C150.076 367.397 150.456 367.519 150.886 367.556C151.242 367.581 151.72 367.016 152.088 367.115C152.432 367.213 152.444 368.28 152.8 368.415C153.131 368.537 153.523 368.55 153.879 368.684C154.21 368.807 154.91 367.875 155.278 367.985C155.621 368.083 155.805 368.783 156.173 368.844C156.541 368.905 156.836 369.543 157.204 369.58C157.572 369.617 158.026 368.329 158.406 368.353C158.786 368.378 159.056 369.347 159.424 369.384C159.792 369.42 160.172 369.187 160.54 369.249C160.909 369.31 161.24 369.433 161.595 369.543C161.902 369.629 162.233 369.457 162.565 369.469C162.871 369.482 163.19 369.666 163.522 369.653C163.853 369.641 164.196 370.046 164.515 370.021C164.834 369.997 165.129 369.163 165.46 369.151C165.791 369.138 166.171 369.138 166.49 369.187C166.809 369.236 166.981 369.936 167.288 370.058C167.594 370.181 167.987 370.083 168.245 370.279C168.502 370.463 169.091 370.316 169.336 370.536C169.582 370.757 169.287 371.518 169.52 371.738C169.754 371.959 169.606 372.597 169.839 372.818C170.073 373.039 170.894 372.597 171.152 372.793C171.41 372.989 171.373 373.738 171.655 373.873C171.986 374.032 172.735 373.468 173.041 373.689C173.348 373.909 173.078 374.854 173.373 375.087C173.667 375.32 174.268 375.16 174.55 375.393C174.832 375.627 175.2 375.749 175.507 375.97C175.814 376.191 176.39 375.872 176.722 376.056C177.053 376.24 177.139 376.743 177.494 376.865C177.85 376.988 177.997 377.822 178.365 377.92C178.734 378.018 179.077 378.141 179.433 378.251C179.789 378.362 180.218 378.153 180.574 378.288C180.929 378.423 181.445 378.251 181.764 378.447C182.083 378.644 182.622 378.693 182.892 378.963C183.162 379.232 183.371 379.6 183.616 379.895C183.861 380.189 183.334 381.097 183.579 381.391C183.825 381.685 183.996 382.09 184.266 382.36C184.536 382.63 184.916 382.912 185.223 383.133C185.53 383.353 186.033 383.464 186.389 383.611C186.744 383.758 187.063 384.102 187.431 384.224C187.799 384.347 188.253 384.151 188.621 384.273C188.989 384.396 189.566 383.991 189.897 384.163C190.228 384.335 190.376 384.85 190.67 385.095C190.964 385.34 191.075 385.77 191.369 386.003C191.664 386.236 192.424 385.843 192.719 386.076C193.013 386.309 193.295 386.542 193.59 386.775C193.884 387.008 193.725 387.793 194.007 388.026C194.289 388.259 194.534 388.542 194.816 388.787C195.099 389.032 195.896 388.554 196.24 388.75C196.583 388.946 196.595 389.682 196.951 389.854C197.307 390.026 197.54 390.381 197.896 390.553C198.251 390.725 198.987 390.148 199.319 390.357C199.65 390.565 199.294 391.608 199.564 391.865C199.834 392.123 200.607 391.853 200.914 392.086C201.22 392.319 201.797 392.16 202.103 392.393C202.41 392.626 202.778 392.749 203.085 392.982C203.392 393.215 203.588 393.607 203.87 393.852C204.152 394.098 204.054 394.785 204.324 395.054C204.594 395.324 205.011 395.459 205.244 395.766C205.477 396.072 205.465 396.538 205.673 396.857C205.882 397.176 206.52 397.201 206.728 397.507C206.937 397.814 206.495 398.599 206.728 398.906C206.962 399.212 207.391 399.372 207.649 399.654C207.906 399.936 207.943 400.353 208.176 400.659C208.409 400.966 209.427 400.659 209.66 400.966C209.893 401.273 210.065 401.604 210.286 401.91C210.507 402.217 210.384 402.757 210.617 403.063C210.85 403.37 210.715 403.946 210.961 404.229C211.218 404.572 211.28 405.05 211.476 405.259C211.783 405.578 212.102 405.884 212.359 406.056C212.629 406.252 212.948 406.289 213.279 406.547C213.5 406.731 214.175 406.449 214.482 406.767C214.69 406.988 214.531 407.589 214.801 407.908C215.021 408.178 214.862 408.534 215.021 408.889C215.169 409.208 215.794 409.319 215.917 409.674C216.04 410.03 216.125 410.373 216.26 410.717C216.395 411.06 217.095 411.109 217.279 411.428C217.463 411.747 217.512 412.041 217.769 412.311C218.027 412.581 217.769 413.256 217.978 413.55C218.186 413.844 218.297 414.188 218.505 414.482C218.714 414.777 218.984 415.034 219.192 415.328C219.401 415.623 219.462 416.089 219.695 416.359C219.928 416.629 220.885 416.211 221.155 416.445C221.425 416.678 221.462 417.193 221.769 417.389C222.075 417.585 222.321 417.892 222.652 418.051C222.983 418.211 223.413 418.149 223.744 418.297C224.075 418.444 224.075 419.216 224.394 419.388C224.713 419.56 225.253 419.278 225.547 419.474C225.841 419.67 226.05 419.989 226.332 420.21C226.614 420.431 226.897 420.664 227.179 420.885C227.461 421.105 228.209 420.737 228.504 420.946C228.798 421.154 228.675 421.964 228.982 422.16C229.289 422.356 229.632 422.602 229.963 422.724C230.258 422.835 230.601 422.81 230.908 422.957C231.19 423.092 231.644 422.908 231.939 423.055C232.233 423.203 232.662 423.031 232.957 423.166C233.251 423.301 233.411 423.693 233.717 423.804C234.024 423.926 234.38 423.681 234.687 423.755C235.018 423.828 235.19 424.086 235.496 424.086C235.827 424.086 236.355 425.091 236.674 424.993C236.993 424.895 237.14 424.196 237.434 424.037C237.729 423.877 237.925 423.571 238.207 423.387C238.489 423.203 239.115 423.521 239.373 423.338C239.667 423.141 239.324 421.927 239.606 421.78C239.925 421.608 240.526 422.05 240.833 422.001C241.201 421.952 241.556 422.001 241.9 421.976C242.243 421.952 242.538 421.277 242.894 421.24C243.249 421.203 243.679 421.755 244.022 421.682C244.366 421.608 244.488 420.934 244.82 420.799C245.151 420.664 245.543 420.86 245.85 420.664C246.157 420.467 246.93 420.774 247.175 420.492C247.396 420.234 247.273 419.633 247.482 419.327C247.678 419.045 247.408 418.444 247.617 418.125C247.813 417.831 248.242 417.671 248.463 417.377C248.672 417.095 249.273 417.131 249.53 416.849C249.788 416.567 249.629 415.733 249.984 415.525C250.303 415.353 251.039 415.942 251.395 415.77C251.739 415.611 251.751 414.764 252.094 414.593C252.438 414.421 253.125 414.826 253.432 414.593C253.738 414.36 253.812 413.857 254.045 413.55C254.254 413.268 253.959 412.606 254.18 412.311C254.401 412.017 255.272 412.213 255.48 411.919C255.689 411.624 255.738 411.22 255.946 410.925C256.155 410.631 256.302 410.3 256.523 409.993C256.744 409.687 256.597 409.159 256.817 408.865C257.038 408.57 257.186 408.252 257.406 407.957C257.627 407.663 258.51 407.871 258.719 407.577C258.928 407.283 258.449 406.498 258.658 406.203C258.866 405.909 259.099 405.639 259.308 405.332C259.516 405.026 259.737 404.756 259.946 404.462C260.154 404.167 260.866 404.167 260.976 403.775C261.074 403.419 260.584 402.941 260.645 402.548C260.706 402.156 261.418 401.898 261.479 401.518C261.541 401.138 260.89 400.549 261.013 400.193C261.136 399.838 262.068 399.813 262.289 399.507C262.497 399.212 262.129 398.525 262.338 398.219C262.546 397.912 262.829 397.691 263.037 397.385C263.246 397.078 263.54 396.87 263.749 396.563C263.957 396.256 263.822 395.729 264.031 395.435C264.239 395.14 264.62 394.968 264.828 394.662C265.037 394.355 266.018 394.723 266.288 394.441C266.558 394.159 266.57 393.705 266.852 393.46C267.135 393.215 267.539 393.116 267.809 392.859C268.079 392.601 268.374 392.319 268.631 392.049C268.889 391.78 269.159 391.448 269.38 391.142C269.6 390.835 269.146 390.001 269.392 389.731C269.637 389.461 270.606 389.891 270.876 389.633C271.146 389.376 271.146 388.86 271.416 388.603C271.686 388.345 271.392 387.56 271.649 387.291C271.907 387.021 272.213 386.861 272.434 386.567C272.655 386.273 273.293 386.297 273.502 385.99C273.71 385.684 274.09 385.512 274.299 385.206C274.507 384.899 274.299 384.335 274.52 384.028C274.741 383.721 274.876 383.378 275.084 383.084C275.293 382.789 275.771 382.679 275.992 382.385C276.213 382.09 275.881 381.44 276.09 381.121C276.299 380.802 276.335 380.434 276.519 380.115C276.703 379.797 277.992 380.14 278.188 379.821C278.384 379.502 277.771 378.693 277.967 378.386C278.163 378.079 279.059 378.276 279.292 377.981C279.525 377.687 279.096 376.89 279.341 376.608C279.586 376.326 280.347 376.51 280.592 376.24C280.838 375.97 281.316 375.909 281.561 375.639C281.807 375.369 282.064 375.087 282.297 374.805C282.531 374.523 281.88 373.505 282.114 373.21C282.31 372.965 282.862 372.953 283.132 372.769C283.389 372.585 283.451 371.972 283.745 371.812C284.039 371.653 284.8 372.511 285.095 372.376C285.389 372.241 285.364 371.432 285.647 371.285C285.929 371.137 286.1 370.868 286.358 370.684C286.616 370.5 286.616 370.218 286.824 369.972C287.057 369.69 287.867 369.837 288.051 369.506C288.235 369.175 288.775 369.003 288.922 368.66C289.069 368.317 288.689 367.74 288.836 367.397C288.983 367.053 288.885 366.563 289.069 366.244C289.253 365.925 289.339 365.422 289.585 365.14C289.793 364.895 290.971 365.201 291.106 364.882C291.228 364.588 290.296 363.926 290.37 363.594C290.443 363.263 290.345 362.932 290.406 362.613C290.468 362.294 291.523 362.172 291.596 361.853C291.67 361.534 291.903 361.325 292.026 361.031C292.161 360.724 292.308 360.663 292.517 360.418C292.762 360.136 292.848 359.915 293.179 359.694C293.498 359.486 293.314 358.382 293.67 358.21C294.025 358.038 294.798 358.75 295.142 358.59C295.485 358.431 295.498 357.609 295.804 357.401C296.111 357.192 296.234 356.861 296.479 356.579C296.724 356.297 296.884 356.027 297.105 355.72C297.325 355.414 297.546 355.156 297.743 354.85C297.939 354.543 298.712 354.604 298.908 354.285C299.104 353.966 299.362 353.721 299.57 353.415C299.779 353.108 299.448 352.347 299.693 352.078C299.938 351.808 300.331 351.697 300.54 351.378C300.748 351.06 301.57 351.109 301.754 350.778C301.938 350.446 301.509 349.796 301.68 349.465C301.852 349.134 301.852 348.668 302.061 348.361C302.269 348.055 302.674 347.834 302.932 347.564C303.153 347.319 303.754 347.625 304.06 347.466C304.343 347.319 304.551 347.086 304.882 346.975C305.214 346.865 305.398 346.399 305.717 346.301C306.036 346.203 306.354 346.092 306.661 345.982C306.968 345.872 307.078 345.369 307.36 345.221C307.667 345.062 308.649 345.81 308.869 345.565C309.127 345.295 308.918 344.608 309.139 344.302C309.36 343.995 309.385 343.578 309.593 343.271C309.802 342.965 310.292 342.842 310.489 342.523C310.685 342.204 311.016 342.008 311.237 341.714C311.458 341.419 311.347 340.855 311.605 340.585C311.863 340.315 312.096 340.046 312.28 339.702C312.464 339.359 312.488 338.979 312.636 338.611C312.783 338.243 313.654 338.181 313.789 337.826C313.924 337.47 313.433 336.832 313.605 336.501C313.776 336.17 314.071 335.839 314.328 335.569C314.549 335.336 315.089 335.593 315.384 335.434C315.666 335.287 315.911 335.201 316.23 335.091C316.549 334.98 316.88 335.066 317.199 334.956C317.518 334.845 317.874 334.784 318.168 334.674C318.463 334.563 318.365 333.472 318.647 333.324C318.941 333.165 319.334 333.239 319.555 333.018C319.824 332.748 320.671 332.821 320.867 332.478C321.063 332.135 320.818 331.546 320.965 331.19C321.113 330.835 321.309 330.503 321.468 330.16C321.628 329.817 321.689 329.436 321.885 329.105C322.082 328.774 322.057 328.259 322.327 328.001C322.56 327.781 323.051 327.915 323.358 327.768C323.652 327.633 323.946 327.584 324.278 327.498C324.609 327.413 324.756 326.701 325.075 326.628C325.394 326.554 325.909 327.167 326.228 327.069C326.547 326.971 326.878 326.763 327.173 326.628C327.479 326.48 327.565 325.978 327.798 325.757C328.068 325.499 328.154 325.131 328.375 324.825C328.596 324.518 328.485 324.04 328.694 323.721C328.903 323.402 329.16 323.132 329.356 322.813C329.553 322.494 330.178 322.445 330.411 322.163C330.645 321.881 330.595 321.243 330.865 320.998C331.135 320.753 332.215 321.452 332.509 321.231C332.804 321.01 333.049 320.777 333.356 320.569C333.662 320.36 333.92 320.09 334.214 319.882C334.509 319.673 334.742 319.318 335.036 319.097C335.331 318.876 335.208 318.152 335.49 317.907C335.723 317.686 336.533 317.895 336.717 317.613C336.877 317.343 335.969 316.509 336.091 316.202C336.214 315.896 337.024 315.896 337.146 315.589C337.269 315.282 337.171 314.89 337.306 314.596C337.441 314.301 337.441 313.884 337.613 313.614C337.784 313.332 338.557 313.565 338.79 313.357C339.023 313.148 339.085 312.744 339.428 312.621C339.735 312.523 339.968 311.824 340.311 311.762C340.643 311.713 341.048 311.995 341.391 311.959C341.735 311.922 342.053 311.775 342.385 311.726C342.74 311.677 342.937 311.382 343.256 311.272C343.599 311.161 343.808 311.247 344.065 311.027C344.335 310.781 345.022 311.014 345.292 310.769C345.562 310.524 345.415 309.812 345.685 309.567C345.955 309.322 346.519 309.408 346.801 309.162C347.083 308.917 347.218 308.537 347.488 308.291C347.758 308.046 347.807 307.531 348.077 307.286C348.335 307.065 349.169 307.322 349.328 306.991C349.463 306.697 349.144 306.182 349.242 305.838C349.328 305.507 349.574 305.213 349.647 304.869C349.721 304.526 350.15 304.281 350.248 303.95C350.346 303.594 349.88 303.054 350.028 302.76C350.187 302.429 350.604 302.245 350.862 302.036C351.144 301.803 351.316 301.435 351.61 301.202C351.904 300.969 352.432 301.055 352.714 300.822C352.996 300.589 353.573 300.724 353.867 300.491C354.162 300.258 354.015 299.485 354.309 299.252C354.603 299.019 354.579 298.418 354.861 298.185C355.143 297.952 355.781 298.148 356.112 297.964C356.443 297.78 357.045 298.197 357.388 298.026C357.732 297.854 358.063 297.707 358.406 297.547C358.75 297.388 358.517 296.124 358.836 295.94C359.155 295.757 359.842 296.161 360.136 295.94C360.431 295.72 361.032 295.855 361.314 295.609C361.596 295.364 361.584 294.788 361.854 294.542C362.124 294.297 362.541 294.211 362.823 293.978C363.105 293.745 362.823 292.837 363.105 292.604C363.387 292.371 364.381 293.021 364.663 292.801C364.945 292.58 364.687 291.562 365.006 291.366C365.325 291.169 365.546 290.765 365.877 290.593C366.209 290.421 367.141 291.402 367.472 291.231C367.803 291.059 367.975 290.556 368.282 290.36C368.589 290.164 368.441 289.281 368.736 289.06C369.03 288.839 369.545 288.925 369.803 288.643C370.061 288.361 370.466 288.214 370.699 287.907C370.932 287.6 370.76 287.012 370.993 286.717C371.226 286.423 372.158 286.717 372.416 286.435C372.674 286.153 372.649 285.699 372.956 285.478C373.263 285.258 373.336 284.755 373.618 284.522C373.9 284.289 374.575 284.497 374.845 284.252C375.115 284.007 374.796 283.074 375.078 282.829C375.36 282.584 375.974 282.743 376.256 282.51C376.538 282.277 376.771 281.983 377.078 281.762C377.385 281.541 377.654 281.296 377.961 281.088C378.268 280.879 378.979 281.308 379.286 281.1C379.593 280.891 379.74 280.437 380.047 280.241C380.353 280.045 380.182 279.101 380.488 278.892C380.795 278.684 381.666 279.334 381.973 279.125C382.255 278.929 382.279 278.291 382.66 278.242C382.991 278.193 383.383 277.886 383.751 277.911C384.095 277.923 384.488 277.825 384.843 277.862C385.199 277.899 385.518 278.242 385.874 278.254C386.254 278.279 386.647 278.929 386.978 278.88C387.358 278.831 387.665 278.352 387.947 278.156C388.229 277.96 388.646 277.813 388.843 277.494C389.014 277.212 388.511 276.586 388.659 276.255C388.793 275.936 388.953 275.654 389.076 275.323C389.198 274.992 389.861 274.869 389.996 274.55C390.131 274.219 389.615 273.508 389.799 273.226C389.996 272.919 390.401 272.465 390.683 272.281C390.965 272.097 391.775 273.177 392.106 273.091C392.412 273.005 392.621 272.87 392.952 272.833C393.283 272.796 393.566 272.6 393.897 272.588C394.228 272.576 394.522 272.048 394.841 272.011C395.16 271.975 395.406 271.619 395.725 271.533C396.056 271.447 396.424 271.668 396.706 271.496C397.074 271.263 397.185 270.785 397.442 270.625C397.822 270.38 398.583 270.895 398.828 270.711C399.111 270.515 398.963 269.791 399.295 269.522C399.528 269.338 399.847 269.19 400.202 268.921C400.448 268.724 400.411 268.087 400.742 267.829C400.988 267.645 401.38 267.78 401.552 267.486C401.699 267.228 402.067 267.056 402.19 266.737C402.3 266.443 401.834 265.94 401.944 265.621C402.055 265.302 403.343 265.474 403.466 265.18C403.588 264.885 403.147 264.358 403.318 264.088C403.49 263.818 403.478 263.365 403.711 263.144C403.944 262.923 404.214 262.359 404.557 262.236C404.864 262.138 405.33 262.285 405.686 262.224C406.017 262.163 406.422 262.494 406.766 262.445C407.109 262.396 407.514 262.641 407.845 262.58C408.201 262.506 408.446 262.052 408.753 261.93C409.084 261.795 408.876 261.206 409.084 260.948C409.33 260.666 409.796 260.666 409.955 260.323C410.115 259.979 410.802 259.844 410.924 259.477C411.047 259.109 410.188 258.471 410.299 258.103C410.409 257.735 411.673 257.735 411.795 257.379C411.93 257.011 411.072 256.19 411.256 255.871C411.44 255.552 412.581 255.662 412.679 255.319C412.777 254.975 411.857 254.423 411.894 254.068C411.93 253.712 412.078 253.381 412.09 253.025C412.102 252.669 412.912 252.363 412.949 252.019C412.985 251.676 413.145 251.406 413.231 251.063C413.304 250.768 412.691 250.229 412.838 249.922C412.985 249.64 413.169 249.358 413.353 249.076C413.537 248.794 413.918 248.671 414.089 248.389C414.261 248.107 414.249 247.739 414.396 247.457C414.543 247.162 414.286 246.807 414.359 246.5C414.433 246.181 414.776 246.034 414.715 245.703C414.654 245.372 414.801 244.992 414.605 244.722C414.421 244.476 413.856 244.611 413.599 244.391C413.366 244.194 413.145 243.974 412.875 243.777C412.605 243.581 412.163 243.642 411.906 243.446C411.648 243.25 411.992 242.306 411.759 242.085C411.526 241.864 411.231 241.754 411.047 241.496C410.851 241.214 410.287 241.104 410.139 240.772C409.992 240.453 410.152 239.987 410.017 239.644C409.882 239.301 409.256 239.215 409.096 238.884C408.937 238.552 408.765 238.344 408.557 238.05C408.348 237.755 408.728 236.909 408.434 236.676C408.189 236.48 407.612 236.651 407.354 236.406C407.121 236.185 407.183 235.633 406.95 235.388C406.717 235.143 406.447 234.934 406.201 234.701C405.956 234.468 405.355 234.652 405.085 234.444C404.815 234.235 404.876 233.56 404.594 233.389C404.312 233.217 403.625 233.916 403.318 233.794C403.012 233.671 402.901 233.462 402.533 233.511C402.202 233.548 401.76 233.107 401.405 233.229C401.073 233.34 400.681 233.315 400.337 233.438C399.994 233.561 399.785 234.002 399.454 234.112C399.123 234.223 398.718 234.063 398.375 234.112C398.006 234.174 397.749 234.137 397.405 234.076C397.037 234.014 396.583 234.787 396.215 234.763C395.847 234.738 395.528 233.879 395.16 233.867C394.792 233.855 394.424 234.824 394.056 234.812C393.688 234.799 393.333 233.965 392.952 233.965C392.572 233.965 392.253 233.487 391.873 233.462C391.529 233.438 391.112 234.063 390.769 233.879C390.474 233.72 389.91 233.843 389.603 233.61C389.321 233.401 389.198 232.947 388.916 232.714C388.634 232.481 388.18 232.518 387.898 232.309C387.591 232.089 387.383 231.917 387.076 231.77C386.733 231.623 386.598 231.794 386.242 231.794C385.923 231.794 385.592 231.046 385.26 231.034C384.929 231.022 384.598 231.291 384.279 231.267C383.96 231.242 383.702 230.335 383.383 230.31C383.064 230.286 382.684 231.193 382.365 231.181C382.046 231.169 381.74 230.752 381.408 230.752C381.077 230.752 380.746 230.592 380.427 230.617C380.108 230.641 379.752 230.617 379.433 230.666C379.114 230.715 378.722 230.556 378.415 230.629C378.108 230.703 377.789 230.801 377.47 230.887C377.151 230.973 376.906 231.255 376.599 231.328C376.293 231.402 376.047 231.733 375.728 231.794C375.409 231.856 375.189 232.641 374.87 232.69C374.489 232.739 374.084 232.543 373.704 232.592C373.324 232.641 372.833 231.672 372.453 231.708C372.073 231.745 371.741 232.248 371.361 232.297C370.981 232.346 370.588 232.322 370.208 232.383C369.828 232.444 369.411 232.236 369.03 232.297C368.711 232.346 368.527 233.058 368.208 233.156C367.889 233.254 367.583 233.303 367.288 233.426C366.994 233.548 366.896 234.125 366.589 234.247C366.282 234.37 365.706 233.806 365.399 233.916C365.092 234.027 364.933 234.542 364.626 234.64C364.319 234.738 364.025 235.094 363.706 235.155C363.387 235.216 362.958 234.836 362.614 234.824C362.271 234.812 361.989 234.468 361.657 234.419C361.326 234.37 361.007 234.321 360.688 234.272C360.369 234.223 360.099 233.671 359.768 233.634C359.437 233.597 359.007 234.211 358.689 234.198C358.37 234.186 358.124 234.677 357.805 234.738C357.486 234.799 356.885 233.978 356.578 234.112C356.272 234.247 355.855 234.26 355.56 234.419C355.266 234.579 355.683 235.903 355.401 236.075C355.119 236.247 354.775 236.345 354.493 236.516C354.211 236.688 353.683 236.455 353.389 236.578C353.094 236.7 352.8 237.032 352.493 237.105C352.125 237.191 351.61 236.627 351.242 236.7C350.874 236.774 350.616 237.449 350.236 237.522C349.856 237.596 349.512 237.804 349.144 237.878C348.776 237.951 348.298 237.498 347.93 237.583C347.562 237.669 347.316 238.283 346.948 238.368C346.58 238.454 346.2 238.577 345.832 238.663C345.464 238.749 345.084 238.798 344.703 238.884C344.323 238.969 343.832 238.528 343.464 238.614C343.096 238.7 342.912 239.546 342.556 239.632C342.201 239.718 341.563 238.822 341.195 238.92C340.876 239.006 340.594 239.399 340.299 239.558C340.005 239.718 339.526 239.681 339.256 239.889C338.987 240.098 339.085 240.748 338.827 240.969C338.569 241.189 337.883 240.883 337.625 241.079C337.367 241.275 337.245 241.606 336.975 241.766C336.68 241.95 336.668 242.673 336.361 242.759C336.055 242.845 335.76 243.323 335.441 243.36C335.122 243.397 334.717 243.005 334.398 243.017C334.08 243.029 333.736 242.563 333.417 242.563C333.098 242.563 332.779 243.238 332.46 243.25C332.141 243.262 331.884 243.569 331.565 243.606C331.246 243.642 330.718 242.624 330.424 242.71C330.105 242.808 330.203 243.875 329.908 244.023C329.614 244.17 329.258 244.096 328.988 244.268C328.718 244.44 327.921 243.912 327.663 244.108C327.406 244.305 327.295 244.709 327.038 244.906C326.768 245.114 326.989 246.046 326.731 246.206C326.437 246.39 325.909 246.243 325.615 246.341C325.198 246.476 324.682 246.083 324.376 246.181C323.922 246.316 323.676 246.745 323.382 246.831C322.928 246.954 322.548 246.782 322.229 246.868C321.922 246.954 321.738 247.506 321.284 247.653C320.99 247.739 320.475 247.359 320.045 247.506C319.616 247.653 319.42 248.634 319.113 248.683C318.647 248.757 318.131 248.732 317.8 248.696C317.469 248.659 317.15 247.579 316.696 247.604C316.389 247.616 316.058 248.131 315.604 248.254C315.285 248.328 314.746 247.911 314.328 248.058C313.985 248.168 313.813 248.916 313.421 248.99C313.065 249.051 312.636 248.745 312.243 248.794C311.875 248.843 311.544 249.174 311.163 249.235C310.783 249.297 310.341 248.941 309.961 249.027C309.581 249.113 309.102 248.953 308.747 249.076C308.452 249.174 308.403 249.959 308.121 250.155C307.863 250.327 307.176 250.032 306.919 250.253C306.661 250.474 306.673 250.965 306.428 251.185C306.183 251.406 305.962 251.627 305.704 251.835C305.447 252.044 305.68 252.964 305.398 253.136C305.115 253.307 304.686 253.479 304.379 253.589C304.073 253.7 303.545 253.111 303.214 253.16C302.883 253.209 302.588 253.479 302.269 253.479C301.95 253.479 301.619 253.884 301.3 253.884C300.981 253.884 300.638 252.804 300.306 252.817C299.975 252.829 299.754 253.737 299.436 253.786C299.117 253.835 298.601 253.136 298.307 253.246C297.951 253.369 297.62 253.418 297.252 253.503C296.884 253.589 296.675 254.411 296.307 254.472C295.939 254.534 295.583 254.681 295.215 254.742C294.847 254.804 294.381 254.411 294.013 254.497C293.645 254.583 293.387 254.988 293.032 255.122C292.725 255.233 292.504 255.38 292.222 255.576C291.964 255.76 291.4 255.576 291.155 255.809C290.909 256.042 290.382 255.944 290.137 256.177C289.891 256.41 289.695 256.631 289.462 256.84C289.229 257.048 289.585 258.042 289.315 258.225C289.045 258.409 288.628 258.446 288.321 258.569C287.965 258.704 287.585 258.79 287.229 258.888C286.873 258.986 286.542 259.231 286.174 259.317C285.806 259.403 285.512 259.746 285.144 259.832C284.776 259.918 284.199 259.194 283.831 259.305C283.463 259.415 283.218 259.857 282.862 259.992C282.567 260.102 282.077 259.943 281.807 260.127C281.537 260.311 281.721 261.071 281.476 261.28C281.23 261.488 280.555 261.206 280.31 261.427C280.065 261.647 280.335 262.445 280.089 262.653C279.844 262.862 278.948 262.199 278.678 262.371C278.409 262.543 278.531 263.401 278.237 263.512C277.942 263.622 277.574 263.708 277.243 263.745C276.912 263.782 276.581 263.978 276.25 263.978C275.918 263.978 275.599 263.512 275.268 263.499C274.937 263.487 274.593 262.948 274.274 262.96C273.955 262.972 273.575 263.23 273.256 263.279C272.937 263.328 272.643 263.708 272.336 263.831C271.993 263.966 271.661 264.162 271.293 264.26C270.925 264.358 270.484 264.125 270.116 264.223C269.748 264.321 269.49 264.787 269.122 264.885C268.754 264.984 268.226 264.53 267.871 264.64C267.515 264.751 267.343 265.462 267 265.597C266.705 265.719 266.791 266.37 266.521 266.566C266.251 266.762 266.104 266.934 265.859 267.167C265.613 267.4 265.098 267.302 264.877 267.535C264.657 267.768 264.706 268.332 264.473 268.553C264.239 268.773 263.712 268.773 263.454 268.957C263.197 269.141 262.718 269.092 262.424 269.215C262.105 269.35 261.725 269.767 261.356 269.767C261.025 269.767 260.706 269.154 260.338 269.08C259.995 269.019 259.516 269.546 259.161 269.46C258.805 269.374 258.461 269.436 258.118 269.374C257.75 269.301 257.517 268.381 257.186 268.369C256.817 268.369 256.216 268.099 255.91 268.234C255.603 268.369 255.468 269.006 255.21 269.252C254.965 269.473 255.1 270.049 254.879 270.319C254.658 270.589 254.082 270.552 253.873 270.834C253.665 271.116 253.603 271.484 253.395 271.742C253.174 272.011 253.26 272.6 253.014 272.821C252.757 273.054 252.082 272.698 251.775 272.833C251.432 272.98 250.831 272.796 250.512 272.993C250.193 273.189 250.046 273.716 249.739 273.937C249.432 274.158 249.653 275.127 249.346 275.348C249.04 275.568 248.721 275.85 248.414 276.047C248.107 276.243 247.31 275.617 246.967 275.777C246.623 275.936 246.427 276.39 246.095 276.562C245.764 276.733 245.642 277.31 245.31 277.482C244.979 277.653 244.169 276.905 243.838 277.077C243.507 277.249 243.188 277.433 242.857 277.592C242.526 277.751 242.55 278.635 242.207 278.794C241.912 278.941 241.434 278.463 241.09 278.512C240.771 278.561 240.477 278.352 240.133 278.352C239.79 278.352 239.434 279.125 239.103 279.101C238.772 279.076 238.44 278.99 238.109 278.978C237.766 278.978 237.52 279.469 237.201 279.518C236.858 279.567 236.465 279.015 236.171 279.162C235.877 279.309 235.558 279.383 235.239 279.469C234.92 279.554 234.711 280.18 234.38 280.229C234.049 280.278 233.607 279.505 233.288 279.542C232.969 279.579 232.785 280.56 232.478 280.609C232.172 280.658 231.644 279.8 231.35 279.886C231.055 279.971 230.614 279.984 230.331 280.131C230.025 280.29 230.025 280.965 229.804 281.272C229.595 281.541 228.896 281.59 228.724 281.934C228.577 282.253 228.859 282.792 228.724 283.136C228.589 283.479 228.663 283.909 228.516 284.227C228.356 284.571 228.209 284.951 228.013 285.233C227.792 285.552 227.326 285.65 227.019 285.81C226.688 285.994 226.357 286.153 226.013 286.3C225.67 286.447 225.216 286.3 224.86 286.435C224.504 286.57 224.357 287.22 224.001 287.355C223.646 287.49 223.192 287.367 222.86 287.527C222.529 287.686 222.443 288.299 222.137 288.496C221.83 288.692 221.572 289.011 221.253 289.207C220.934 289.403 220.419 289.281 220.112 289.465C219.806 289.649 219.524 289.943 219.217 290.139C218.91 290.335 218.15 289.845 217.843 290.053C217.536 290.262 217.463 290.826 217.156 291.034C216.849 291.243 216.604 291.562 216.346 291.819C216.089 292.077 215.598 292.175 215.365 292.47C215.132 292.764 215.647 293.647 215.426 293.941C215.205 294.236 214.923 294.555 214.69 294.837C214.457 295.119 213.598 294.873 213.316 295.106C213.022 295.352 212.973 296.014 212.641 296.186C212.31 296.358 211.685 295.99 211.341 296.137C210.998 296.284 210.948 297.204 210.605 297.351C210.237 297.51 209.599 296.995 209.28 297.192C208.937 297.388 209.145 298.075 208.912 298.357C208.703 298.614 208.029 298.479 207.832 298.725C207.636 298.97 207.71 299.448 207.514 299.706C207.317 299.963 206.422 299.73 206.25 299.988C206.066 300.258 206.655 301.018 206.508 301.288C206.348 301.582 205.686 301.619 205.588 301.914C205.477 302.232 205.526 302.6 205.502 302.907C205.477 303.238 205.305 303.618 205.367 303.95C205.428 304.281 205.526 304.636 205.649 304.955C205.772 305.25 205.87 305.63 206.054 305.924C206.225 306.194 207.231 305.863 207.44 306.121C207.648 306.378 207.256 307.138 207.501 307.372C207.747 307.605 208.421 307.298 208.679 307.506C208.986 307.752 208.765 308.573 208.998 308.708C209.354 308.917 209.734 309.027 209.992 309.064C210.298 309.101 210.617 308.586 210.985 308.574C211.255 308.574 211.586 308.708 211.967 308.757C212.237 308.794 212.421 309.383 212.789 309.481C213.071 309.555 213.696 308.659 214.04 308.782C214.383 308.905 214.604 309.481 214.96 309.665C215.279 309.837 215.733 309.8 216.076 309.996C216.395 310.168 216.714 310.327 217.058 310.499C217.389 310.659 217.34 311.775 217.708 311.897C218.052 312.02 218.677 311.247 219.057 311.333C219.413 311.407 219.879 311.394 220.26 311.529C220.615 311.652 220.566 312.854 220.934 313.001C221.302 313.148 222.075 312.155 222.443 312.29C222.811 312.425 223.081 312.67 223.449 312.768C223.817 312.866 224.014 313.982 224.406 314.031C224.713 314.068 225.081 313.062 225.412 313.038C225.743 313.013 226.05 313.21 226.369 313.161C226.688 313.112 227.019 313.185 227.338 313.124C227.657 313.063 227.964 313.001 228.283 312.952C228.602 312.903 228.872 312.228 229.191 312.204C229.51 312.179 229.914 312.167 230.233 312.179C230.552 312.192 230.724 312.155 231.043 312.094C231.362 312.032 231.816 312.67 232.123 312.572C232.429 312.474 232.908 312.879 233.227 312.768C233.546 312.658 233.497 311.566 233.803 311.468C234.11 311.37 234.674 312.351 234.993 312.29C235.312 312.228 235.496 311.64 235.827 311.64C236.195 311.64 236.564 311.468 236.944 311.468C237.324 311.468 237.68 311.272 238.06 311.272C238.44 311.272 238.796 311.91 239.177 311.91C239.557 311.91 239.9 311.198 240.281 311.186C240.661 311.174 241.004 311.125 241.385 311.1C241.704 311.076 241.974 311.861 242.305 311.934C242.611 311.995 243.213 311.149 243.532 311.26C243.851 311.37 244.034 311.836 244.341 311.946C244.648 312.057 245.09 311.726 245.408 311.824C245.727 311.922 245.838 312.719 246.157 312.768C246.476 312.817 246.795 312.474 247.126 312.449C247.494 312.412 247.899 312.67 248.279 312.621C248.659 312.572 249.101 313.087 249.469 313.038C249.837 312.989 250.046 311.75 250.426 311.701C250.806 311.652 251.199 311.836 251.579 311.787C251.959 311.738 252.34 311.738 252.732 311.689C253.051 311.64 253.579 312.278 253.898 312.143C254.192 312.02 254.462 311.726 254.756 311.554C255.051 311.382 255.026 310.744 255.309 310.56C255.591 310.376 255.701 309.886 255.983 309.726C256.265 309.567 256.646 309.42 256.952 309.297C257.259 309.174 257.811 309.739 258.13 309.677C258.449 309.616 258.793 308.856 259.185 308.843C259.541 308.843 259.933 309.26 260.314 309.273C260.67 309.273 261.013 310.094 261.381 310.107C261.749 310.119 262.142 309.923 262.51 309.935C262.878 309.947 263.258 309.346 263.614 309.334C264.006 309.322 264.693 308.929 265.025 308.868C265.233 309.236 265.442 310.107 265.442 310.364C265.442 310.708 264.914 311.063 264.632 311.296C264.411 311.48 263.847 311.198 263.516 311.37C263.246 311.517 263.099 311.934 262.804 312.118C262.534 312.278 261.958 312.045 261.675 312.253C261.418 312.437 261.614 313.234 261.356 313.48C261.123 313.7 261.222 314.142 261.013 314.424C260.804 314.706 259.786 314.62 259.676 315.013C259.578 315.356 260.412 315.945 260.338 316.337C260.277 316.705 260.424 317.135 260.338 317.515C260.252 317.895 259.884 318.251 259.749 318.606C259.614 318.962 258.891 319.023 258.67 319.342C258.474 319.612 258.425 320.103 258.044 320.25C257.738 320.372 257.369 320.507 256.989 320.593C256.646 320.667 256.29 320.789 255.934 320.863C255.578 320.937 255.125 320.605 254.781 320.704C254.413 320.802 254.401 321.648 254.094 321.808C253.751 321.979 252.732 321.329 252.536 321.611C252.34 321.893 252.352 322.433 252.205 322.776C252.058 323.12 252.524 323.672 252.401 324.027C252.278 324.383 252.438 324.812 252.315 325.168C252.193 325.524 252.058 325.916 251.91 326.247C251.763 326.579 250.684 326.444 250.475 326.75C250.266 327.057 250.831 327.756 250.671 328.099C250.512 328.443 250.647 328.835 250.524 329.179C250.401 329.522 250.033 329.767 249.911 330.111C249.788 330.454 249.874 330.92 249.727 331.252C249.58 331.583 248.819 331.644 248.635 331.951C248.451 332.257 248.439 332.809 248.156 333.079C247.887 333.324 247.224 333.14 246.917 333.361C246.611 333.582 246.034 333.447 245.727 333.668C245.421 333.889 245.691 334.821 245.421 335.078C245.151 335.336 244.488 335.311 244.304 335.642C244.12 335.974 244.648 336.575 244.538 336.943C244.427 337.311 244.427 337.629 244.353 337.997C244.28 338.365 243.176 338.512 243.102 338.88C243.029 339.248 243.274 339.653 243.164 340.009C243.053 340.365 243.397 340.916 243.213 341.235C243.029 341.554 242.035 341.616 241.949 341.983C241.863 342.351 242.857 342.916 242.808 343.284C242.759 343.652 242.918 344.044 242.869 344.412C242.82 344.78 242.059 345.062 241.986 345.418C241.912 345.773 241.704 346.068 241.532 346.399C241.36 346.73 241.188 347 240.98 347.306C240.771 347.613 240.685 347.981 240.465 348.263C240.244 348.545 240.489 349.208 240.268 349.49C240.047 349.772 239.262 349.637 239.066 349.931C238.87 350.226 238.858 350.643 238.71 350.974C238.563 351.305 238.649 351.746 238.489 352.065C238.33 352.384 237.827 352.544 237.668 352.863C237.508 353.181 237.582 353.623 237.434 353.942C237.287 354.261 237.214 354.616 237.066 354.948C236.919 355.279 236.809 355.598 236.686 355.929C236.551 356.285 236.686 356.775 236.551 357.02C236.367 357.352 235.84 357.437 235.668 357.683C235.496 357.928 234.993 357.989 234.834 358.308C234.711 358.554 234.699 358.922 234.588 359.289C234.171 359.265 233.828 359.78 233.533 359.78C233.079 359.78 232.761 359.155 232.491 359.13C232.159 359.093 232.135 358.872 231.816 358.554C231.632 358.37 230.908 358.554 230.638 358.198C230.466 357.965 230.724 357.352 230.491 357.02C230.319 356.775 230.663 356.444 230.577 356.101C230.516 355.806 230.037 355.598 230.013 355.254C229.976 354.935 229.779 354.629 229.743 354.298C229.706 353.966 230.184 353.549 230.123 353.231C230.062 352.912 229.35 352.728 229.24 352.433C229.129 352.139 229.338 351.575 229.141 351.317C228.921 351.035 228.246 351.084 228.05 350.753C227.866 350.446 228.283 349.772 228.099 349.453C227.915 349.134 227.215 349.122 227.019 348.803C226.823 348.484 226.553 348.251 226.344 347.944C226.136 347.638 225.805 347.491 225.559 347.221C225.314 346.951 225.792 345.945 225.51 345.688C225.228 345.43 224.786 345.381 224.492 345.148C224.198 344.915 223.842 344.792 223.56 344.559C223.278 344.326 222.676 344.486 222.394 344.253C222.112 344.019 221.658 343.946 221.388 343.688C221.118 343.431 220.861 343.21 220.591 342.965C220.321 342.719 220.407 342.106 220.137 341.861C219.867 341.616 220.002 340.929 219.732 340.683C219.462 340.438 218.812 340.622 218.53 340.389C218.248 340.156 217.818 340.095 217.536 339.862C217.254 339.629 217.193 339.052 216.862 338.88C216.53 338.709 215.954 339.101 215.61 338.966C215.267 338.831 215.009 338.488 214.653 338.353C214.298 338.218 214.064 337.85 213.733 337.691C213.402 337.531 213.427 336.918 213.12 336.697C212.813 336.476 212.359 336.587 212.089 336.317C211.82 336.047 211.476 335.9 211.243 335.618C211.01 335.336 210.58 335.213 210.335 334.943C210.09 334.674 209.538 334.735 209.268 334.49C208.998 334.244 209.121 333.582 208.814 333.373C208.544 333.202 208.311 332.809 207.98 332.736C207.673 332.674 207.28 333.018 206.949 332.993C206.63 332.981 206.311 332.441 205.98 332.441C205.649 332.441 205.318 333.018 204.999 333.005C204.68 332.993 204.263 333.202 203.956 333.14C203.625 333.079 203.49 332.429 203.208 332.27C202.925 332.11 202.705 331.926 202.496 331.607C202.312 331.337 202.656 330.822 202.496 330.479C202.361 330.16 202.005 329.951 201.87 329.62C201.735 329.289 201.527 328.958 201.38 328.651C201.22 328.32 201.171 327.83 200.975 327.56C200.754 327.253 200.202 327.032 199.895 326.885C199.589 326.738 199.122 327.486 198.73 327.523C198.399 327.548 197.957 327.008 197.601 327.106C197.27 327.204 197.012 327.609 196.669 327.731C196.325 327.854 196.129 328.504 195.798 328.602C195.442 328.7 194.841 327.498 194.497 327.535C194.117 327.572 193.614 328.676 193.295 328.541C192.964 328.406 193.111 327.192 192.792 327.032C192.473 326.873 191.688 327.67 191.369 327.511C191.05 327.351 191.099 326.48 190.78 326.321C190.461 326.162 189.922 326.493 189.59 326.346C189.259 326.198 189.161 325.438 188.818 325.328C188.474 325.217 187.775 326.1 187.444 325.965C187.112 325.83 187.223 324.678 186.891 324.53C186.56 324.383 185.935 324.935 185.603 324.8C185.272 324.665 185.186 323.917 184.843 323.794C184.499 323.672 184.045 323.88 183.702 323.794C183.358 323.709 182.929 324.211 182.573 324.187C182.218 324.162 181.911 323.451 181.543 323.451C181.175 323.451 180.819 323.512 180.463 323.512C180.107 323.512 179.764 323.341 179.408 323.316C179.052 323.292 178.684 323.512 178.329 323.451C177.973 323.39 177.593 323.402 177.249 323.279C176.906 323.157 176.464 323.255 176.133 323.108C175.802 322.96 175.789 322.09 175.446 321.942C175.102 321.795 174.489 322.458 174.133 322.347C173.777 322.237 173.483 322.347 173.127 322.286C172.771 322.224 172.575 321.145 172.219 321.072C171.864 320.998 171.483 321.17 171.128 321.096C170.772 321.023 170.428 320.924 170.073 320.863C169.717 320.802 169.238 321.525 168.883 321.476C168.527 321.427 168.208 321.501 167.84 321.476C167.472 321.452 167.165 320.937 166.797 320.986C166.429 321.035 166.085 321.108 165.73 321.194C165.374 321.28 165.006 321.28 164.65 321.354C164.294 321.427 163.975 321.734 163.607 321.783C163.239 321.832 162.847 321.194 162.491 321.194C162.172 321.194 161.853 321.562 161.534 321.464C161.24 321.366 160.921 321.268 160.626 321.108C160.332 320.949 160.037 320.826 159.755 320.667C159.473 320.507 159.436 319.821 159.142 319.686C158.848 319.551 158.283 319.98 157.977 319.894C157.658 319.796 157.363 319.563 157.044 319.575C156.725 319.588 156.492 319.943 156.173 320.078C155.891 320.201 155.854 320.704 155.572 320.888C155.302 321.072 154.394 320.336 154.124 320.532C153.855 320.728 154.149 321.722 153.879 321.893C153.609 322.065 153.339 322.47 153.045 322.605C152.738 322.752 152.125 321.93 151.806 321.955C151.45 321.991 151.07 321.955 150.714 322.016C150.358 322.077 149.966 321.967 149.622 322.041C149.279 322.114 149.058 322.85 148.702 322.924C148.346 322.997 147.905 322.519 147.549 322.58C147.193 322.641 146.899 322.924 146.543 322.985C146.187 323.046 145.782 322.629 145.427 322.678C145.071 322.727 144.727 322.764 144.372 322.801C144.016 322.838 143.66 322.924 143.317 322.973C142.973 323.022 142.752 324.027 142.397 324.089C142.041 324.15 141.587 323.598 141.243 323.672C140.826 323.758 140.36 324.604 140.029 324.506C139.661 324.408 139.698 323.206 139.354 323.046C139.011 322.887 138.594 322.568 138.226 322.482C137.894 322.408 137.489 322.776 137.072 322.875C136.864 322.507 136.68 322.372 136.52 322.114C136.275 321.734 136.287 321.378 136.165 321.133C136.005 320.826 135.392 320.655 135.478 320.225C135.527 319.955 135.527 319.551 135.686 319.134C135.784 318.852 135.846 318.484 136.005 318.103C136.128 317.809 136.655 317.527 136.999 317.282C137.269 317.085 137.968 317.564 138.311 317.38C138.63 317.22 138.569 316.288 138.9 316.117C139.231 315.945 139.612 315.92 139.918 315.736C140.25 315.54 140.667 315.503 140.912 315.258C141.182 314.988 140.839 314.498 140.937 314.154C141.035 313.835 141.513 313.651 141.415 313.271C141.329 312.952 141.575 312.449 141.415 312.106C141.268 311.799 140.949 311.542 140.777 311.21C140.605 310.879 140.569 310.536 140.434 310.205C140.286 309.861 140.225 309.579 140.152 309.248C140.066 308.88 139.403 308.549 139.477 308.218C139.55 307.887 140.041 307.629 140.164 307.286C140.287 306.942 140.655 306.721 140.789 306.39C140.924 306.059 140.471 305.495 140.605 305.152C140.74 304.808 141.575 304.722 141.673 304.367C141.771 304.011 140.704 303.459 140.753 303.091C140.802 302.723 141.599 302.478 141.697 302.122C141.795 301.766 141.292 301.214 141.415 300.871C141.538 300.528 142.409 300.442 142.519 300.098C142.63 299.755 142.936 299.424 143.01 299.068C143.084 298.712 142.249 298.259 142.262 297.891C142.274 297.523 143.194 297.179 143.169 296.811C143.145 296.443 143.317 296.051 143.28 295.695C143.243 295.34 142.029 295.107 141.992 294.751C141.955 294.395 142.887 293.929 142.85 293.561C142.814 293.193 142.384 292.887 142.372 292.519C142.36 292.151 142.875 291.685 142.801 291.329C142.728 290.973 142.666 290.568 142.568 290.225C142.47 289.882 142.176 289.587 142.065 289.244C141.955 288.9 141.035 288.79 140.949 288.447C140.863 288.103 141.587 287.576 141.526 287.22C141.464 286.864 140.777 286.644 140.667 286.312C140.556 285.981 141.108 285.393 140.973 285.061C140.839 284.73 140.139 284.632 140.004 284.301C139.869 283.97 139.931 283.565 139.808 283.234C139.685 282.903 139.379 282.633 139.281 282.29C139.182 281.946 139.489 281.529 139.44 281.186C139.391 280.842 138.655 280.572 138.618 280.217C138.581 279.861 139.379 279.407 139.33 279.064C139.281 278.72 138.863 278.402 138.79 278.058C138.716 277.715 138.716 277.322 138.594 276.991C138.483 276.697 138.483 276.427 138.459 276.083C138.434 275.777 138.557 275.482 138.569 275.151C138.581 274.82 137.821 274.44 137.845 274.121C137.87 273.802 138.594 273.52 138.606 273.201C138.618 272.882 138.189 272.563 138.152 272.257C138.103 271.926 137.796 271.803 137.661 271.509C137.502 271.19 137.943 270.54 137.772 270.208C137.6 269.877 137.048 269.779 136.864 269.46C136.68 269.141 136.79 268.651 136.606 268.332C136.422 268.013 135.895 267.915 135.698 267.596C135.502 267.277 135.882 266.615 135.686 266.296C135.49 265.977 135.306 265.695 135.122 265.376C134.938 265.057 133.858 265.253 133.674 264.934C133.49 264.616 133.343 264.284 133.159 263.966C132.975 263.647 132.865 263.316 132.656 263.009C132.447 262.702 132.374 262.334 132.153 262.052C131.908 261.746 132.079 261.145 131.859 260.961C131.589 260.728 131.527 260.163 131.245 259.992C130.963 259.82 130.742 259.746 130.448 259.513C130.227 259.329 129.147 259.636 128.878 259.354C129.074 258.925 129.319 258.324 129.454 258.176C129.724 257.845 130.644 257.796 131.012 258.078C131.221 258.238 130.914 259.415 131.282 259.55C131.54 259.636 132.03 258.728 132.411 258.741C132.693 258.741 133.085 259.832 133.453 259.783C133.797 259.734 134.104 259.158 134.472 259.035C134.803 258.925 135.146 258.765 135.502 258.618C135.833 258.483 136.103 258.164 136.459 258.029C136.815 257.894 137.072 257.526 137.428 257.416C137.784 257.306 138.164 257.158 138.532 257.085C138.876 257.024 139.342 257.6 139.71 257.539C140.078 257.477 140.397 257.257 140.753 257.195C141.108 257.134 141.427 256.913 141.795 256.852C142.163 256.79 142.433 256.324 142.801 256.263C143.169 256.202 143.537 256.361 143.905 256.288C144.273 256.214 144.642 256.324 144.985 256.165C145.329 256.006 145.402 255.429 145.733 255.245C146.065 255.061 146.899 255.822 147.218 255.638C147.537 255.454 147.561 254.693 147.892 254.546C148.224 254.399 148.567 254.129 148.935 254.043C149.303 253.957 149.733 254.301 150.088 254.227C150.444 254.154 150.886 254.62 151.254 254.558C151.622 254.497 151.843 253.822 152.198 253.749C152.554 253.675 152.996 253.982 153.352 253.908C153.707 253.835 154.124 253.896 154.468 253.798C154.811 253.7 155.045 253.111 155.425 253.111C155.793 253.111 156.21 252.645 156.59 252.669C156.971 252.694 157.314 253.025 157.694 253.05C158.075 253.074 158.418 252.829 158.786 252.804C159.154 252.78 159.485 252.927 159.853 252.817C160.16 252.719 160.406 252.633 160.675 252.412C160.921 252.216 160.774 251.676 161.007 251.418C161.227 251.173 161.804 251.247 162.013 250.989C162.221 250.732 162.957 250.916 163.178 250.67C163.411 250.413 162.847 249.333 163.104 249.137C163.374 248.916 163.926 248.88 164.233 248.781C164.577 248.671 165.104 249.1 165.448 248.978C165.791 248.855 166.036 248.512 166.38 248.389C166.723 248.266 167.141 248.364 167.472 248.242C167.803 248.119 168.269 248.315 168.6 248.193C168.932 248.07 169.128 247.543 169.459 247.408C169.79 247.273 170.293 247.53 170.625 247.383C170.956 247.236 170.87 246.144 171.201 245.997C171.532 245.85 171.949 245.911 172.268 245.764C172.587 245.617 173.041 245.74 173.373 245.593C173.704 245.445 174.17 245.654 174.501 245.507C174.796 245.384 174.93 244.832 175.262 244.795C175.568 244.771 175.912 244.734 176.231 244.746C176.55 244.758 176.918 244.219 177.237 244.243C177.556 244.268 177.838 244.893 178.157 244.906C178.476 244.918 178.893 245.666 179.212 245.629C179.543 245.593 179.592 244.452 179.887 244.329C180.23 244.182 181.028 244.722 181.322 244.476C181.616 244.231 181.948 243.961 182.205 243.679C182.463 243.397 182.77 243.176 183.039 242.906C183.309 242.637 183.432 242.305 183.714 242.06C183.996 241.815 183.69 240.613 184.021 240.441C184.352 240.269 184.941 240.208 185.334 240.147C185.702 240.086 186.168 240.453 186.56 240.429C186.953 240.404 187.358 241.153 187.738 241.128C188.118 241.104 188.4 240.049 188.768 239.987C189.161 239.914 189.394 239.914 189.725 239.73C190.057 239.546 190.682 239.987 191.013 239.84C191.345 239.693 191.541 239.202 191.884 239.068C192.228 238.933 192.67 239.068 193.013 238.933C193.357 238.798 193.614 238.467 193.933 238.307C194.252 238.148 194.559 237.964 194.878 237.767C195.16 237.608 195.479 237.498 195.7 237.228C195.896 236.982 196.056 236.676 196.215 236.381C196.374 236.099 197.123 236.087 197.27 235.78C197.417 235.474 196.509 234.652 196.669 234.358C196.828 234.063 196.976 233.646 197.172 233.401C197.38 233.131 198.3 233.585 198.57 233.401C198.877 233.205 199.294 233.045 199.564 232.812C199.834 232.579 199.674 231.856 199.932 231.598C200.19 231.341 200.73 231.365 200.975 231.095C201.22 230.825 201.343 230.445 201.601 230.2C201.858 229.955 202.3 229.979 202.594 229.771C202.864 229.574 203.036 229.685 203.416 229.636C203.747 229.587 204.03 228.667 204.398 228.679C204.741 228.679 205.134 228.483 205.489 228.507C205.845 228.532 206.164 229.231 206.508 229.243C206.888 229.243 207.256 229.206 207.587 229.145C207.967 229.084 208.667 229.403 208.937 229.194C209.194 228.998 208.777 228.103 208.961 227.82C209.133 227.551 208.961 227.17 209.096 226.864C209.231 226.557 210.347 226.668 210.458 226.361C210.568 226.054 209.624 225.306 209.759 225.012C209.893 224.717 210.715 224.705 210.875 224.435C211.047 224.141 211.464 224.166 211.709 223.957C211.991 223.712 211.795 222.78 212.138 222.596C212.482 222.412 212.948 222.51 213.304 222.35C213.66 222.191 214.04 222.179 214.383 222.031C214.727 221.884 214.923 221.479 215.242 221.295C215.561 221.112 216.383 221.541 216.653 221.295C216.923 221.05 216.825 220.4 217.033 220.093C217.242 219.787 217.966 219.762 218.15 219.431C218.334 219.1 218.395 218.72 218.567 218.389C218.738 218.058 218.53 217.53 218.726 217.223C218.922 216.917 218.775 216.267 219.021 215.997C219.266 215.727 219.769 215.592 220.1 215.384C220.431 215.175 220.799 215.028 221.143 214.856C221.486 214.685 221.72 214.329 222.063 214.157C222.407 213.986 222.738 213.9 223.044 213.703C223.351 213.507 224.075 213.752 224.32 213.47C224.566 213.188 224.32 212.452 224.578 212.183C224.836 211.913 224.97 211.496 225.24 211.25C225.51 211.005 225.989 210.981 226.259 210.723C226.528 210.465 227.534 210.956 227.792 210.686C228.05 210.416 227.939 209.779 228.16 209.497C228.356 209.239 228.504 208.871 228.602 208.54C228.688 208.233 229.178 207.927 229.227 207.583C229.264 207.264 229.007 206.872 229.019 206.541C229.031 206.209 229.35 205.915 229.387 205.584C229.424 205.253 228.577 204.774 228.663 204.456C228.749 204.124 228.7 203.572 228.884 203.303C229.068 203.033 229.976 203.389 230.233 203.18C230.479 202.984 230.246 202.076 230.528 201.904C230.81 201.733 231.534 202.346 231.828 202.187C232.123 202.027 232.466 201.941 232.736 201.77C233.006 201.598 232.773 200.727 233.006 200.518C233.251 200.298 234.085 200.58 234.257 200.298C234.441 199.991 234 199.317 234.171 198.985C234.343 198.654 234.503 198.348 234.65 198.016C234.797 197.685 234.674 197.231 234.821 196.888C234.969 196.545 236.195 196.704 236.355 196.373C236.514 196.042 236.49 195.649 236.649 195.318C236.797 195.036 235.962 194.46 235.999 194.128C236.036 193.822 236.085 193.576 236.073 193.245C236.061 192.914 236.441 192.583 236.416 192.252C236.392 191.921 236.22 191.59 236.208 191.271C236.195 190.952 236.085 190.547 236.11 190.24C236.146 189.909 237.066 189.836 237.189 189.554C237.312 189.271 236.87 188.695 237.042 188.401C237.201 188.119 237.569 187.959 237.753 187.677C237.937 187.395 238.539 187.407 238.71 187.137C238.882 186.867 238.821 186.414 238.992 186.132C239.164 185.85 239.716 185.751 239.864 185.457C240.023 185.163 239.79 184.77 239.9 184.476C240.293 184.255 240.366 183.556 240.649 183.544C241.029 183.531 241.642 183.605 241.949 183.826C242.207 184.01 242.256 184.586 242.55 184.832C242.808 185.04 243.213 185.003 243.544 185.199C243.826 185.359 243.875 186.181 244.255 186.279C244.574 186.365 244.991 186.524 245.384 186.549C245.727 186.561 246.095 185.899 246.488 185.862C246.844 185.825 247.261 186.279 247.641 186.23C247.997 186.181 248.255 185.334 248.623 185.285C248.991 185.236 249.457 186.352 249.825 186.328C250.193 186.303 250.512 185.163 250.892 185.175C251.248 185.175 251.579 186.181 251.947 186.193C252.315 186.205 252.659 186.414 253.027 186.426C253.395 186.438 253.787 185.236 254.155 185.249C254.523 185.261 254.867 185.494 255.235 185.494C255.603 185.494 255.959 186.021 256.327 186.021C256.695 186.021 256.977 185.077 257.357 185.04C257.738 185.003 258.216 186.291 258.584 186.242C258.952 186.193 259.148 184.966 259.504 184.917C259.86 184.868 260.363 186.058 260.731 186.021C261.099 185.984 261.369 184.758 261.737 184.746C262.105 184.733 262.436 184.893 262.804 184.844C263.172 184.795 263.565 185.015 263.92 184.954C264.276 184.893 264.73 185.334 265.086 185.261C265.442 185.187 265.736 184.819 266.092 184.758C266.448 184.697 266.828 185.175 267.196 185.15C267.564 185.126 267.871 184.672 268.239 184.684C268.607 184.697 268.926 185.101 269.294 185.126C269.662 185.15 270.079 184.083 270.447 184.096C270.815 184.108 271.146 184.93 271.514 184.93C271.882 184.93 272.25 184.697 272.618 184.66C272.986 184.623 273.354 184.635 273.71 184.586C274.066 184.537 274.52 185.028 274.876 184.966C275.231 184.905 275.477 184.145 275.832 184.083C276.188 184.022 276.642 184.598 277.01 184.537C277.378 184.476 277.574 183.298 277.93 183.249C278.286 183.2 278.715 183.556 279.083 183.556C279.451 183.556 279.807 184.01 280.175 184.01C280.543 184.01 280.911 184.034 281.267 184.034C281.623 184.034 282.003 183.691 282.359 183.679C282.715 183.666 283.058 183.458 283.414 183.409C283.77 183.36 284.187 183.814 284.555 183.789C284.923 183.764 285.291 184.096 285.659 184.071C286.027 184.047 286.309 182.845 286.677 182.82C287.045 182.796 287.462 183.544 287.83 183.507C288.198 183.47 288.628 183.715 288.983 183.654C289.339 183.593 289.646 183.016 289.989 182.881C290.333 182.746 290.554 182.329 290.885 182.158C291.216 181.986 291.695 182.109 292.026 181.937C292.357 181.765 292.848 182.023 293.191 181.888C293.535 181.753 293.621 180.87 293.976 180.796C294.295 180.735 294.627 181.201 294.97 181.25C295.289 181.287 295.461 181.741 295.792 181.827C296.123 181.912 296.393 181.998 296.712 182.096C297.031 182.195 297.546 181.655 297.853 181.728C298.16 181.802 298.515 181.79 298.834 181.814C299.166 181.839 299.35 181.311 299.656 181.238C299.963 181.164 300.356 181.483 300.638 181.238C300.883 181.017 300.871 180.576 301.092 180.281C301.3 180.011 301.975 180.06 302.183 179.766C302.392 179.472 302.208 178.883 302.429 178.613C302.662 178.319 302.785 177.828 303.03 177.607C303.312 177.35 303.901 177.252 304.22 177.166C304.527 177.08 304.931 177.877 305.263 177.889C305.582 177.889 305.901 177.497 306.22 177.546C306.538 177.595 306.894 177.448 307.213 177.522C307.532 177.595 307.814 177.828 308.133 177.877C308.452 177.926 308.784 177.877 309.102 177.877C309.434 177.877 309.937 178.466 310.243 178.368C310.587 178.257 310.722 177.325 311.09 177.264C311.458 177.203 311.801 176.847 312.169 176.798C312.537 176.749 312.991 177.387 313.359 177.338C313.727 177.289 314.206 177.767 314.562 177.693C314.917 177.62 315.285 177.276 315.629 177.154C315.972 177.031 316.524 176.994 316.843 176.773C317.162 176.553 316.892 175.547 317.187 175.302C317.481 175.056 317.911 174.983 318.193 174.737C318.475 174.492 318.966 174.517 319.272 174.308C319.579 174.1 319.604 173.204 319.947 173.069C320.291 172.934 321.063 173.707 321.382 173.523C321.701 173.339 321.481 172.321 321.787 172.1C322.094 171.88 322.989 172.542 323.296 172.333C323.603 172.125 323.811 171.831 324.118 171.647C324.425 171.463 324.756 171.438 325.087 171.291C325.455 171.131 325.517 170.297 325.811 170.248C326.179 170.199 326.547 170.199 326.866 170.212C327.185 170.224 327.394 169.856 327.762 169.795C328.056 169.745 328.289 170.8 328.657 170.629L328.584 170.739Z" fill="#FCFCFC"/>
</svg>
