<svg width="128" height="128" viewBox="0 0 128 128" fill="none" xmlns="http://www.w3.org/2000/svg">
<path d="M87.744 34.2752C87.8176 34.4016 88.0261 34.2915 88.0507 34.3608C88.1079 34.5116 87.9198 34.5116 87.7971 34.5728C87.7235 34.6054 87.5845 34.6176 87.4782 34.6991C87.4046 34.7521 87.2942 34.8336 87.2124 34.9274C87.151 35.0007 87.0856 35.1108 87.0202 35.2127C86.9548 35.3146 87.0774 35.5306 87.0038 35.6325C86.9343 35.7262 86.8116 35.7874 86.7339 35.8852C86.6644 35.9789 86.5949 36.0768 86.5213 36.1787C86.4477 36.2806 86.4763 36.4354 86.4068 36.5373C86.3373 36.6392 86.2923 36.7371 86.231 36.843C86.1778 36.9327 85.8711 36.9449 85.8548 37.0631C85.8425 37.165 85.9488 37.2955 85.9529 37.4137C85.9529 37.5196 85.9243 37.6378 85.9284 37.7479C85.9324 37.8579 85.9693 37.968 85.9652 38.074C85.9611 38.1799 85.8548 38.2737 85.8343 38.3796C85.8139 38.4897 85.8793 38.5916 85.8261 38.6894C85.7648 38.7954 85.8179 38.9951 85.728 39.0848C85.6462 39.1744 85.5971 39.3252 85.5031 39.4068C85.409 39.4883 85.176 39.4068 85.0819 39.4924C84.9879 39.578 84.8529 39.6269 84.7711 39.7165C84.6893 39.8062 84.7057 39.9815 84.6444 40.0874C84.583 40.1934 84.399 40.279 84.3745 40.4054C84.3499 40.5236 84.6771 40.6947 84.6648 40.8211C84.6525 40.9474 84.3581 41.0493 84.3499 41.1757C84.3417 41.3021 84.2109 41.3958 84.1864 41.5181C84.1618 41.6403 84.3049 41.8034 84.2518 41.9134C84.1986 42.0235 84.1291 42.1213 84.0596 42.2191C83.9901 42.3169 83.941 42.4311 83.8633 42.5289C83.7856 42.6267 83.6302 42.6552 83.5525 42.749C83.4748 42.8427 83.4094 42.9487 83.3399 43.0506C83.2704 43.1525 83.2908 43.3033 83.2377 43.4134C83.1845 43.5234 82.9105 43.5071 82.8492 43.6131C82.7878 43.719 82.9023 43.9188 82.841 44.0207C82.7796 44.1226 82.7265 44.2326 82.6652 44.3345C82.6038 44.4364 82.6325 44.5872 82.5752 44.6932C82.518 44.7992 82.2889 44.8195 82.2358 44.9296C82.1826 45.0396 82.2889 45.2271 82.2276 45.3331C82.1663 45.4391 82.0681 45.5206 81.9986 45.6225C81.9291 45.7244 81.7982 45.7814 81.7328 45.8833C81.6674 45.9852 81.8187 46.2176 81.7614 46.3195C81.7042 46.4214 81.3484 46.3806 81.3034 46.4947C81.2584 46.6089 81.2053 46.7311 81.1726 46.8493C81.1399 46.9675 81.0908 47.0857 81.0622 47.2039C81.0336 47.3221 81.1971 47.4852 81.1685 47.6034C81.1399 47.7216 80.964 47.8031 80.9354 47.9172C80.9068 48.0313 80.7718 48.1047 80.7309 48.2147C80.6901 48.3248 80.8618 48.5164 80.8291 48.6305C80.7964 48.7446 80.8577 48.8873 80.8291 49.0014C80.8005 49.1155 80.6083 49.197 80.5797 49.3112C80.551 49.4253 80.5551 49.5516 80.5265 49.6658C80.4979 49.7799 80.4774 49.8981 80.4447 50.0122C80.4161 50.1141 80.2607 50.1426 80.2075 50.2364C80.1544 50.3301 80.1257 50.4157 80.0603 50.5054C79.9949 50.5951 80.0726 50.7866 80.0071 50.8681C79.9417 50.9497 79.7046 50.913 79.6391 50.9986C79.5696 51.0882 79.6432 51.2798 79.5941 51.3695C79.541 51.4714 79.4796 51.5692 79.4674 51.6711C79.451 51.7852 79.7005 51.8423 79.7291 51.9483C79.7577 52.0542 79.496 52.2621 79.5492 52.364C79.6023 52.4659 79.8477 52.4374 79.9131 52.527C79.9785 52.6167 79.815 52.8776 79.8845 52.9632C79.954 53.0569 80.2034 53.0121 80.2607 53.0976C80.3261 53.1995 80.4774 53.2892 80.4979 53.387C80.5224 53.5012 80.3098 53.6601 80.3261 53.7702C80.3425 53.8884 80.4692 53.9862 80.4856 54.0962C80.506 54.2144 80.6369 54.2878 80.6737 54.3897C80.7105 54.5038 80.6369 54.6465 80.7146 54.728C80.7841 54.8054 80.9436 54.6954 81.0663 54.7402C81.1889 54.7851 81.1889 54.7362 81.3116 54.7076C81.422 54.6832 81.5692 54.8258 81.6878 54.7688C81.7941 54.7199 81.9741 54.8095 82.0845 54.7525C82.1908 54.6995 82.2072 54.4223 82.3257 54.3815C82.4443 54.3408 82.5834 54.3286 82.7061 54.3082C82.8124 54.2919 82.8941 54.5405 83.0209 54.5853C83.1231 54.622 83.2826 54.5405 83.3971 54.6017C83.4994 54.6546 83.5239 54.8707 83.6302 54.9277C83.7365 54.9848 83.9901 54.7362 84.0964 54.781C84.2109 54.8299 84.2518 55.103 84.3622 55.1193C84.4849 55.1397 84.6116 55.0255 84.7221 54.9848C84.8325 54.944 84.9428 54.887 85.0614 54.8381C85.1718 54.7932 85.2332 54.622 85.3477 54.569C85.4622 54.5161 85.5603 54.4549 85.6748 54.4019C85.7893 54.3489 85.8834 54.2715 85.9979 54.2145C86.1124 54.1574 86.2923 54.243 86.4027 54.19C86.5131 54.137 86.6072 54.0473 86.7217 53.9944C86.8362 53.9414 86.9425 53.8884 87.057 53.8395C87.1715 53.7906 87.3064 53.7987 87.4168 53.7457C87.5273 53.6927 87.6172 53.599 87.7276 53.546C87.838 53.493 87.9239 53.3993 88.0302 53.3381C88.1202 53.2851 88.2674 53.3178 88.341 53.2322C88.4105 53.1547 88.4351 53.0406 88.4964 52.9468C88.5537 52.8572 88.6068 52.7634 88.6641 52.6697C88.7213 52.5759 88.8072 52.5026 88.8685 52.4129C88.9299 52.3232 89.1057 52.3314 89.1752 52.2499C89.2447 52.1684 89.2897 52.1113 89.3797 52.0542C89.4819 51.989 89.4042 51.6955 89.4942 51.61C89.5841 51.5244 89.576 51.3776 89.6578 51.2839C89.7395 51.1901 89.854 51.1249 89.9317 51.0312C90.0094 50.9374 90.3038 51.0312 90.3897 50.9456C90.4756 50.86 90.5328 50.7581 90.631 50.6888C90.7291 50.6195 90.8559 50.5991 90.954 50.5339C91.0522 50.4687 91.0276 50.2201 91.1258 50.1508C91.2239 50.0815 91.2444 49.9062 91.3425 49.8369C91.4407 49.7677 91.5551 49.7269 91.6533 49.6535C91.7514 49.5802 92.0336 49.7717 92.1317 49.6984C92.2299 49.625 92.3894 49.6495 92.4875 49.5761C92.5856 49.5027 92.6592 49.4049 92.7533 49.3315C92.8473 49.2582 92.6838 48.8465 92.7819 48.7731C92.8801 48.6998 93.1827 48.9036 93.2767 48.8302C93.3708 48.7568 93.3994 48.5938 93.4975 48.5164C93.5957 48.4389 93.6284 48.2759 93.7306 48.2066C93.8329 48.1373 94.0578 48.2759 94.1641 48.2147C94.2704 48.1536 94.2908 47.958 94.3931 47.8968C94.4953 47.8357 94.6425 47.8398 94.7448 47.7745C94.847 47.7093 94.9165 47.5993 95.0106 47.5218C95.1046 47.4444 95.1496 47.3262 95.2314 47.2325C95.3131 47.1387 95.3663 47.0327 95.4399 46.9349C95.5135 46.8371 95.6853 46.8126 95.7589 46.7148C95.8325 46.617 95.8938 46.511 95.9715 46.4214C96.0492 46.3317 96.0492 46.1442 96.1392 46.0668C96.2251 45.9934 96.3559 45.8344 96.4827 45.8059C96.589 45.7814 96.7526 46.0464 96.8793 46.0423C96.9938 46.0382 97.1124 45.81 97.231 45.81C97.3496 45.81 97.4764 46.0912 97.595 46.0871C97.7217 46.0831 97.8076 45.8263 97.9139 45.8018C98.0366 45.7733 98.1307 45.7855 98.2165 45.7122C98.3024 45.6388 98.2288 45.5165 98.2779 45.4024C98.3187 45.3005 98.6868 45.2923 98.7113 45.1741C98.7358 45.0641 98.5968 44.9133 98.6173 44.7992C98.6377 44.685 98.7154 44.5791 98.7399 44.469C98.7645 44.3508 98.744 44.2285 98.789 44.1266C98.8381 44.0125 98.9853 44.0207 99.0671 43.9473C99.157 43.8658 99.1243 43.6498 99.2184 43.5723C99.3124 43.4949 99.431 43.4541 99.5292 43.3807C99.6273 43.3074 99.8399 43.393 99.9381 43.3196C100.036 43.2462 100.085 43.1117 100.179 43.0343C100.273 42.9569 100.237 42.7327 100.327 42.6512C100.417 42.5696 100.437 42.3822 100.535 42.3088C100.633 42.2354 100.78 42.2191 100.883 42.1539C100.985 42.0887 101.165 42.1417 101.267 42.0765C101.369 42.0112 101.349 41.7789 101.447 41.7096C101.545 41.6403 101.766 41.7259 101.852 41.6444C101.938 41.5629 102.15 41.6403 102.249 41.567C102.347 41.4936 102.216 41.1064 102.318 41.0371C102.42 40.9678 102.58 40.9923 102.682 40.923C102.784 40.8537 102.997 40.9434 103.095 40.8659C103.193 40.7885 103.152 40.5602 103.242 40.4787C103.332 40.3972 103.475 40.3605 103.541 40.2505C103.606 40.1404 103.451 39.9326 103.504 39.8184C103.557 39.7043 103.995 39.7736 104.048 39.6595C104.101 39.5453 104.003 39.366 104.068 39.26C104.134 39.1541 104.215 39.0685 104.305 38.9829C104.395 38.8973 104.408 38.7342 104.506 38.6568C104.604 38.5794 104.633 38.4082 104.731 38.3389C104.829 38.2696 105.062 38.3878 105.16 38.3185C105.258 38.2492 105.43 38.2614 105.524 38.1881C105.618 38.1147 105.643 37.9435 105.728 37.8539C105.814 37.7642 105.978 37.752 106.056 37.6582C106.133 37.5645 106.064 37.3444 106.141 37.2506C106.219 37.1569 106.518 37.2506 106.595 37.1569C106.673 37.0631 106.559 36.8104 106.636 36.7208C106.714 36.6311 106.955 36.6922 107.041 36.6066C107.127 36.521 107.041 36.2357 107.156 36.1705C107.27 36.1053 107.438 36.1624 107.552 36.1094C107.667 36.0564 107.757 35.9463 107.871 35.8934C107.986 35.8404 108.174 35.9097 108.28 35.8444C108.386 35.7792 108.431 35.604 108.517 35.5143C108.603 35.4246 108.709 35.3594 108.787 35.2657C108.865 35.1719 108.906 35.0496 108.979 34.9518C109.053 34.854 109.127 34.7603 109.2 34.6624C109.274 34.5646 109.311 34.4423 109.388 34.3486C109.466 34.2549 109.63 34.2385 109.711 34.1489C109.785 34.0714 109.773 33.9247 109.818 33.8228C109.863 33.7291 109.785 33.5946 109.814 33.4886C109.842 33.3826 109.785 33.2685 109.814 33.1584C109.842 33.0484 110.047 32.9872 110.075 32.8813C110.104 32.7753 109.961 32.5837 110.002 32.49C110.047 32.3881 110.206 32.2943 110.276 32.2169C110.357 32.1272 110.693 32.3188 110.791 32.2414C110.889 32.1639 110.75 31.7726 110.852 31.7033C110.954 31.6341 111.085 31.6137 111.188 31.5444C111.29 31.4751 111.367 31.3936 111.466 31.3202C111.564 31.2468 111.633 31.1776 111.715 31.0879C111.797 30.9982 112.034 31.0594 112.136 30.986C112.239 30.9126 112.337 30.8556 112.447 30.7903C112.557 30.7251 112.566 30.501 112.672 30.4398C112.778 30.3787 112.856 30.2931 112.954 30.2238C113.052 30.1545 113.281 30.232 113.363 30.1382C113.445 30.0445 113.527 29.9629 113.608 29.8733C113.69 29.7836 113.662 29.592 113.743 29.5064C113.825 29.4209 113.948 29.3679 114.03 29.2823C114.111 29.1967 114.099 29.0214 114.181 28.9317C114.263 28.8421 114.492 28.8869 114.569 28.7972C114.639 28.7157 114.884 28.6831 114.925 28.5771C114.962 28.4793 114.79 28.2959 114.811 28.1859C114.831 28.0758 114.872 27.9739 114.888 27.8639C114.905 27.7538 114.688 27.5989 114.708 27.493C114.729 27.387 114.815 27.2566 114.852 27.1587C114.892 27.0528 115.019 26.9468 115.089 26.8653C115.17 26.7715 115.469 26.9305 115.571 26.8571C115.673 26.7838 115.735 26.6941 115.845 26.6289C115.956 26.5637 116.017 26.4251 116.123 26.3599C116.23 26.2946 116.307 26.1724 116.405 26.099C116.504 26.0256 116.512 25.8626 116.594 25.7689C116.675 25.6751 116.986 25.7199 117.043 25.6058C117.101 25.4917 116.921 25.2757 116.966 25.1575C117.011 25.0393 117.129 24.9496 117.174 24.8355C117.219 24.7214 117.362 24.6561 117.42 24.5461C117.477 24.436 117.522 24.3545 117.599 24.2567C117.669 24.1752 117.616 23.9673 117.71 23.9062C117.8 23.8532 117.996 24.0122 118.098 23.9673C118.201 23.9225 118.172 23.5434 118.274 23.5067C118.376 23.4701 118.556 23.6372 118.659 23.5964C118.761 23.5557 118.892 23.5516 118.982 23.4945C119.08 23.4334 119.186 23.3559 119.256 23.2744C119.333 23.1766 119.452 23.0747 119.505 22.9565C119.558 22.8383 119.538 22.6916 119.579 22.5693C119.62 22.447 119.509 22.2799 119.55 22.1617C119.591 22.0435 119.685 21.9335 119.738 21.8234C119.791 21.7134 119.996 21.7011 120.073 21.6033C120.143 21.5136 120.082 21.2487 120.196 21.1916C120.298 21.1387 120.429 21.0979 120.548 21.0571C120.666 21.0164 120.793 21.0205 120.904 20.9797C121.022 20.9349 121.235 21.0775 121.333 21.0164C121.443 20.9512 121.55 20.7963 121.603 20.6944C121.656 20.5925 121.668 20.4376 121.676 20.3113C121.681 20.2012 121.591 20.0789 121.578 19.9566C121.566 19.8344 121.746 19.6958 121.73 19.5776C121.713 19.4594 121.349 19.3738 121.345 19.2597C121.345 19.1374 121.341 18.9581 121.374 18.8562C121.407 18.7543 121.525 18.6198 121.603 18.5219C121.672 18.4323 121.811 18.3793 121.893 18.2937C121.975 18.2081 122.049 18.1184 122.126 18.0328C122.208 17.9432 122.458 17.9798 122.519 17.8902C122.584 17.7883 122.576 17.6171 122.588 17.507C122.601 17.397 122.756 17.2951 122.772 17.1687C122.789 17.0546 122.458 16.8957 122.47 16.7734C122.482 16.6511 122.498 16.5451 122.507 16.4229C122.515 16.3006 122.883 16.1905 122.883 16.0723C122.883 15.9541 122.572 15.8441 122.556 15.7259C122.539 15.6077 122.466 15.5588 122.388 15.4487C122.318 15.3509 122.368 15.1593 122.273 15.0656C122.188 14.98 122.012 14.9718 121.922 14.8863C121.832 14.8007 121.922 14.5398 121.84 14.4461C121.754 14.3442 121.431 14.4012 121.386 14.2912C121.341 14.1893 121.55 13.9203 121.48 13.8428C121.411 13.7654 121.243 13.7491 121.157 13.6798C121.071 13.6105 120.949 13.5983 120.863 13.5331C120.777 13.4678 120.617 13.4964 120.536 13.4271C120.454 13.3578 120.417 13.2355 120.343 13.154C120.27 13.0725 120.372 12.8972 120.327 12.7831C120.286 12.6771 120.168 12.6038 120.135 12.4856C120.102 12.3674 119.8 12.3511 119.763 12.241C119.726 12.131 119.898 11.9353 119.836 11.8375C119.775 11.7397 119.799 11.4829 119.697 11.4136C119.603 11.3525 119.411 11.3769 119.301 11.3443C119.194 11.3117 119.018 11.5766 118.904 11.5563C118.789 11.5359 118.724 11.2587 118.61 11.2424C118.495 11.2261 118.381 11.2546 118.27 11.2302C118.16 11.2057 118.033 11.2302 117.927 11.1854C117.82 11.1405 117.718 11.0794 117.612 11.0264C117.505 10.9734 117.403 10.9163 117.301 10.8634C117.199 10.8104 117.141 10.6596 117.035 10.6107C116.929 10.5617 116.749 10.6881 116.639 10.6473C116.528 10.6066 116.495 10.3009 116.381 10.2764C116.266 10.252 116.168 10.252 116.05 10.199C115.931 10.146 115.78 10.2031 115.673 10.146C115.567 10.0889 115.449 10.0441 115.338 9.98704C115.228 9.92998 115.134 9.81585 115.019 9.77509C114.905 9.73434 114.741 9.97889 114.623 9.97073C114.516 9.96258 114.479 9.94628 114.373 9.98296C114.275 10.0196 114.201 10.04 114.103 10.0971C114.013 10.1501 113.972 10.2683 113.882 10.3335C113.792 10.3987 113.478 10.1215 113.388 10.1786C113.294 10.2397 113.261 10.3661 113.163 10.4069C113.06 10.4558 112.991 10.5536 112.889 10.5658C112.774 10.578 112.684 10.7085 112.574 10.7329C112.463 10.7574 112.279 10.4843 112.173 10.5128C112.067 10.5414 112.014 10.7859 111.907 10.8185C111.801 10.8511 111.666 10.79 111.556 10.8185C111.445 10.8471 111.31 10.7574 111.2 10.7859C111.089 10.8144 111.012 10.9449 110.897 10.9612C110.783 10.9775 110.664 10.8919 110.55 10.9C110.435 10.9082 110.349 11.3158 110.235 11.328C110.12 11.3402 109.998 11.1976 109.887 11.222C109.777 11.2465 109.683 11.2832 109.576 11.3321C109.47 11.381 109.351 11.4014 109.237 11.4584C109.131 11.5114 108.955 11.4421 108.849 11.5033C108.742 11.5644 108.763 11.8497 108.652 11.9068C108.542 11.9638 108.337 11.8253 108.223 11.8783C108.108 11.9312 108.092 12.1962 107.978 12.241C107.879 12.2818 107.704 12.1269 107.589 12.131C107.487 12.135 107.368 12.2288 107.254 12.2206C107.147 12.2125 107.037 12.1962 106.927 12.1799C106.816 12.1636 106.726 11.9679 106.62 11.9598C106.514 11.9516 106.395 12.0372 106.289 12.0454C106.182 12.0535 105.998 11.8864 105.9 11.9272C105.79 11.972 105.72 12.1024 105.602 12.131C105.483 12.1595 105.409 12.3592 105.291 12.3837C105.172 12.4081 105.009 12.2165 104.89 12.2451C104.772 12.2736 104.673 12.4 104.555 12.4285C104.436 12.457 104.269 12.3551 104.154 12.4C104.04 12.4448 103.991 12.6527 103.872 12.6853C103.753 12.7179 103.618 12.6486 103.5 12.6771C103.381 12.7057 103.324 12.9747 103.205 13.0032C103.087 13.0317 102.964 13.0113 102.846 13.044C102.727 13.0766 102.625 13.1295 102.51 13.1662C102.396 13.2029 102.167 13.0603 102.06 13.1418C101.962 13.2151 101.962 13.4271 101.868 13.5168C101.774 13.6064 101.512 13.5127 101.418 13.5983C101.324 13.6839 101.361 13.904 101.259 13.9773C101.157 14.0507 101.026 14.0344 100.907 14.0752C100.789 14.1159 100.686 14.0833 100.56 14.0955C100.433 14.1078 100.331 14.1607 100.204 14.1648C100.077 14.1689 99.9545 14.0833 99.8277 14.0833C99.7009 14.0833 99.5946 14.3727 99.4719 14.3849C99.3493 14.3971 99.2634 14.4909 99.1448 14.5276C99.0425 14.5602 99.0262 14.6254 98.9321 14.6988C98.8504 14.764 98.7359 14.7681 98.6541 14.8536C98.5805 14.9352 98.4169 14.9352 98.3433 15.0208C98.2697 15.1063 98.2533 15.2449 98.1797 15.3224C98.102 15.4039 97.8812 15.3224 97.7953 15.3835C97.7013 15.4528 97.7095 15.6811 97.6031 15.7137C97.4846 15.7503 97.3414 15.8971 97.2106 15.9011C97.0797 15.9052 96.9693 15.5873 96.8385 15.5751C96.7076 15.5628 96.5563 15.8604 96.4295 15.8482C96.3028 15.8359 96.1964 15.6036 96.0697 15.6077C95.9429 15.6118 95.7875 15.5384 95.6689 15.5751C95.5503 15.6118 95.4399 15.518 95.3132 15.5302C95.1864 15.5425 95.0923 15.9052 94.9656 15.9093C94.8388 15.9134 94.7161 15.5995 94.5934 15.5995C94.4708 15.5995 94.3726 15.999 94.25 16.0112C94.1273 16.0234 93.9433 15.6566 93.8247 15.6892C93.7061 15.7218 93.5998 15.7259 93.4812 15.7463C93.3626 15.7666 93.244 15.7463 93.1254 15.7585C93.0068 15.7707 92.9169 16.056 92.7983 16.0723C92.6797 16.0886 92.5161 15.8319 92.3975 15.8522C92.2789 15.8726 92.1767 16.0397 92.0581 16.0683C91.9518 16.0927 91.9232 16.2884 91.8251 16.3658C91.7392 16.4351 91.4734 16.3373 91.3916 16.4269C91.318 16.5125 91.4979 16.8141 91.4243 16.9079C91.3507 17.0016 91.0767 16.9242 90.999 17.0098C90.9172 17.0995 91.0113 17.3766 90.9213 17.4418C90.8232 17.5193 90.6146 17.3929 90.5042 17.4174C90.3856 17.4418 90.263 17.4255 90.1444 17.4459C90.0258 17.4663 89.9276 17.6578 89.805 17.6701C89.6823 17.6823 89.5596 17.6538 89.4369 17.6701C89.3142 17.6864 89.1793 17.5763 89.0566 17.5926C88.934 17.6089 88.8481 17.8046 88.7254 17.829C88.6027 17.8535 88.4596 17.6905 88.3369 17.6905C88.2142 17.6905 88.0956 17.7027 87.973 17.6945C87.8503 17.6864 87.7154 17.9065 87.5927 17.9024C87.47 17.8983 87.3514 17.7068 87.2328 17.7068C87.1142 17.7068 86.9875 17.7434 86.8648 17.7638C86.7421 17.7842 86.6154 17.7842 86.5009 17.8209C86.3864 17.8576 86.2473 17.8372 86.1287 17.878C86.0102 17.9187 85.9161 18.0125 85.8016 18.0532C85.6871 18.094 85.5726 18.1347 85.4581 18.1673C85.3436 18.1999 85.2659 18.4608 85.1432 18.4771C85.0206 18.4934 84.8693 18.1673 84.7466 18.1633C84.6239 18.1592 84.5053 18.2122 84.3826 18.1999C84.26 18.1877 84.1414 18.1143 84.0187 18.098C83.896 18.0817 83.7611 18.0002 83.6425 17.9961C83.5239 17.9921 83.3562 17.9962 83.2377 18.0165C83.1191 18.0369 83.0618 18.4853 82.9432 18.5056C82.8246 18.526 82.6733 18.3263 82.5547 18.3467C82.4361 18.3671 82.293 18.2366 82.1744 18.2529C82.0559 18.2692 81.9495 18.3671 81.8269 18.3834C81.7042 18.3997 81.5815 18.3711 81.4629 18.3834C81.3566 18.3956 81.2544 18.4934 81.1562 18.5342C81.0581 18.5749 81.0744 18.8236 80.9804 18.8765C80.8863 18.9295 80.6573 18.7502 80.5674 18.8113C80.4774 18.8725 80.3997 18.9418 80.3057 18.9947C80.2116 19.0477 80.2034 19.3045 80.1053 19.3412C80.0071 19.3779 79.8232 19.1007 79.7168 19.1129C79.5942 19.1252 79.4715 19.4023 79.3447 19.3901C79.2179 19.3779 79.0993 19.2923 78.9767 19.2719C78.854 19.2515 78.7804 18.9744 78.6577 18.9499C78.535 18.9254 78.3837 19.0151 78.2651 19.0029C78.1465 18.9907 78.0034 18.9988 77.8807 19.0029C77.7581 19.007 77.6395 19.2393 77.5168 19.2352C77.3941 19.2311 77.2715 19.1618 77.1488 19.1537C77.0261 19.1455 76.9034 19.1985 76.7807 19.1904C76.6581 19.1822 76.5517 18.9255 76.4291 18.9214C76.3064 18.9173 76.1755 18.8643 76.0529 18.8684C75.9302 18.8725 75.7666 18.9051 75.6398 18.9458C75.5131 18.9866 75.3536 18.9621 75.235 19.0151C75.1164 19.0681 75.0837 19.3004 74.9692 19.3534C74.8547 19.4064 74.7607 19.5328 74.6421 19.5694C74.5235 19.6061 74.3885 19.814 74.2618 19.8181C74.135 19.8221 74.0205 19.5124 73.8937 19.4798C73.767 19.4472 73.6688 19.382 73.5503 19.3371C73.4317 19.2923 73.2027 19.5246 73.0882 19.4798C72.9737 19.4349 72.9778 18.9866 72.8592 18.954C72.7406 18.9214 72.5525 19.1211 72.4298 19.1211C72.3071 19.1211 72.1313 19.2964 72.0086 19.2678C71.8859 19.2393 71.8082 19.0273 71.6897 18.9825C71.5711 18.9377 71.477 18.8317 71.3584 18.7909C71.2398 18.7502 71.1458 18.5994 71.0272 18.5668C70.9086 18.5342 70.741 18.8684 70.6183 18.8684C70.4956 18.8684 70.3852 18.8439 70.2625 18.8439C70.1398 18.8439 70.0212 18.6238 69.8986 18.6238C69.7759 18.6238 69.6573 18.5301 69.5387 18.5342C69.4201 18.5382 69.3015 18.6116 69.1789 18.6075C69.0562 18.6035 68.9417 18.5749 68.8231 18.5668C68.7045 18.5586 68.5736 18.6238 68.451 18.632C68.3283 18.6401 68.2056 18.6442 68.083 18.6605C67.9603 18.6768 67.8458 18.7176 67.7231 18.7339C67.6004 18.7502 67.4736 18.5953 67.351 18.6035C67.2283 18.6116 67.1261 18.6361 67.0075 18.6238C66.9012 18.6157 66.7294 18.5382 66.619 18.5668C66.5168 18.5912 66.4718 18.8725 66.3655 18.9132C66.2591 18.954 66.071 18.7787 65.9688 18.8195C65.8666 18.8602 65.8543 19.1089 65.7521 19.1496C65.6498 19.1904 65.5067 19.064 65.4045 19.0844C65.2941 19.1089 65.2 19.3779 65.0937 19.3656C64.9874 19.3534 64.8524 19.2597 64.7502 19.1985C64.6562 19.1455 64.6521 18.9581 64.5621 18.8806C64.4762 18.8072 64.4476 18.6768 64.3658 18.5953C64.284 18.5138 64.0755 18.5668 63.9896 18.4934C63.8997 18.416 63.8097 18.3548 63.7197 18.2978C63.6175 18.2366 63.5643 17.9839 63.4539 17.9676C63.3353 17.9472 63.1963 17.8739 63.0777 17.8657C62.9591 17.8576 62.8242 18.1144 62.7015 18.1144C62.5788 18.1144 62.4562 18.1918 62.3376 18.1918C62.219 18.1918 62.1086 17.882 61.99 17.8739C61.8714 17.8657 61.7119 18.1796 61.5933 18.1592C61.4747 18.1388 61.3561 18.0614 61.2416 18.0247C61.1271 17.988 60.9758 18.041 60.8613 18.0002C60.7468 17.9595 60.6692 17.8168 60.5547 17.7761C60.4402 17.7353 60.3175 17.7312 60.203 17.6945C60.0885 17.6579 59.9863 17.6049 59.8677 17.5763C59.7491 17.5478 59.6836 17.2503 59.561 17.2258C59.4383 17.2014 59.3197 17.1647 59.2011 17.1402C59.0825 17.1158 58.919 17.291 58.8004 17.2625C58.6818 17.234 58.5918 17.1117 58.4732 17.075C58.3874 17.0465 58.326 16.9323 58.2033 16.8794C58.1093 16.8386 57.9416 16.9283 57.8312 16.8794C57.7331 16.8386 57.6758 16.6593 57.5654 16.6185C57.4632 16.5818 57.2996 16.6878 57.1892 16.6552C57.0788 16.6226 56.9602 16.6348 56.8498 16.6185C56.7394 16.6022 56.6208 16.7122 56.5063 16.7082C56.3918 16.7041 56.2364 16.5248 56.1178 16.594C56.0197 16.6511 55.8357 16.6511 55.7335 16.7367C55.6435 16.8141 55.6558 17.022 55.5617 17.1076C55.4677 17.1932 55.5208 17.45 55.4268 17.5274C55.3327 17.6049 55.1937 17.6864 55.0914 17.7475C54.981 17.8127 54.8093 17.9065 54.6948 17.9269C54.5803 17.9472 54.4126 17.7149 54.294 17.7394C54.1754 17.7638 54.0405 17.7231 53.9219 17.7516C53.8033 17.7801 53.7665 18.0858 53.648 18.1184C53.5294 18.151 53.3617 17.9921 53.2431 18.0328C53.1327 18.0695 53.0223 18.1225 52.9037 18.1673C52.7851 18.2122 52.6093 18.0777 52.4948 18.1184C52.3803 18.1592 52.3517 18.4486 52.2372 18.4893C52.1227 18.5301 52.045 18.6524 51.9305 18.7013C51.816 18.7502 51.5951 18.5545 51.4847 18.6116C51.3784 18.6646 51.2394 18.6931 51.129 18.7624C51.039 18.8195 51.0881 19.2189 50.9736 19.2515C50.8713 19.2841 50.6996 19.1211 50.5851 19.1415C50.4706 19.1618 50.3234 18.9621 50.213 18.9825C50.1026 19.0029 50.0371 19.2515 49.9267 19.2801C49.8163 19.3086 49.6078 19.1129 49.5056 19.1578C49.4033 19.2026 49.4606 19.5328 49.3788 19.6102C49.3011 19.6795 49.2029 19.7325 49.1212 19.8058C49.0394 19.8792 48.7613 19.7243 48.6795 19.7936C48.5977 19.8629 48.6591 20.0952 48.5773 20.1686C48.4955 20.242 48.3646 20.2583 48.2829 20.3316C48.2011 20.405 48.1316 20.4906 48.0579 20.5721C47.9843 20.6536 48.0375 20.8493 47.9639 20.9308C47.8903 21.0123 47.6327 20.9756 47.5795 21.0775C47.5304 21.1713 47.5795 21.3261 47.5386 21.4362C47.4977 21.5462 47.3955 21.6237 47.3628 21.7297C47.3301 21.8356 47.5591 22.0313 47.5223 22.1332C47.4855 22.2351 47.4855 22.3777 47.4364 22.4755C47.3873 22.5734 47.1379 22.5774 47.0725 22.6671C46.9988 22.769 46.8557 22.8179 46.7739 22.9157C46.6921 23.0136 46.7208 23.2011 46.6349 23.2989C46.549 23.3967 46.594 23.5883 46.5122 23.6861C46.4304 23.7839 46.2055 23.7635 46.1319 23.8695C46.0583 23.9755 46.0542 24.114 45.9888 24.2241C45.9356 24.3178 45.6985 24.2812 45.6248 24.3708C45.5512 24.4605 45.6903 24.7254 45.6126 24.807C45.5349 24.8885 45.1791 24.6928 45.1014 24.7703C45.0237 24.8477 45.1014 25.08 45.0278 25.1616C44.9542 25.2431 44.9011 25.345 44.8397 25.4306C44.7784 25.5162 44.6925 25.5977 44.6394 25.6955C44.578 25.8341 44.6802 26.0256 44.6312 26.1112C44.5576 26.2539 44.5167 26.3802 44.4594 26.4658C44.3981 26.5555 44.12 26.4984 44.0382 26.6289C43.9851 26.7104 43.9524 26.8327 43.8788 26.9672C43.8297 27.0609 43.7724 27.171 43.707 27.2973C43.6579 27.3911 43.7847 27.5215 43.7806 27.6478C43.7806 27.7538 43.5925 27.8761 43.6048 27.9943C43.617 28.1043 43.8992 28.1981 43.9115 28.3122C43.9237 28.4263 43.5843 28.5649 43.5884 28.679C43.5925 28.7932 43.6784 28.9032 43.6579 29.0133C43.6375 29.1233 43.5966 29.2171 43.5393 29.3149C43.4862 29.4045 43.3471 29.4045 43.2735 29.4901C43.204 29.5676 43.1836 29.6776 43.1018 29.7551C43.02 29.8325 43.1672 30.1504 43.0854 30.2238C43.0037 30.2972 42.9137 30.342 42.836 30.4154C42.7583 30.4887 42.4394 30.3298 42.3698 30.4113C42.3003 30.4928 42.1858 30.5702 42.1286 30.664C42.0631 30.77 42.1695 30.9982 42.0836 31.092C41.9977 31.1857 41.8628 31.2305 41.7687 31.3202C41.6747 31.4099 41.6624 31.5729 41.5683 31.6626C41.4743 31.7523 41.417 31.8542 41.3312 31.9479C41.2453 32.0416 41.0163 32.009 40.9427 32.1109C40.8691 32.2128 40.6769 32.2536 40.6155 32.3636C40.5542 32.4737 40.8486 32.7712 40.7914 32.8813C40.7341 32.9913 40.3334 32.922 40.2761 33.0362C40.2189 33.1503 40.3866 33.3826 40.3211 33.4886C40.2557 33.5946 40.268 33.7698 40.1944 33.8676C40.1208 33.9655 39.7364 33.835 39.6628 33.9329C39.5892 34.0307 39.7936 34.3445 39.7159 34.4423C39.6382 34.5402 39.3561 34.479 39.2784 34.5768C39.2007 34.6747 39.0412 34.7032 38.9635 34.801C38.8858 34.8988 38.9308 35.0904 38.849 35.1882C38.7795 35.2738 38.6977 35.3716 38.6527 35.4735C38.6077 35.5714 38.8286 35.7629 38.7958 35.873C38.7631 35.983 38.7509 36.0808 38.7222 36.1909C38.6936 36.3009 38.4319 36.3417 38.3992 36.4436C38.3665 36.5455 38.3542 36.6637 38.3092 36.7615C38.2642 36.8593 38.2601 37.0101 38.1865 37.0917C38.1129 37.1732 38.0066 37.2792 37.9044 37.3362C37.8103 37.3892 37.6836 37.434 37.5731 37.4748C37.4668 37.5115 37.2787 37.2914 37.1683 37.324C37.0579 37.3566 37.0334 37.6541 36.9271 37.6908C36.8207 37.7275 36.5999 37.5237 36.5059 37.5767C36.4036 37.6297 36.3259 37.7764 36.2523 37.8579C36.1787 37.9394 36.0928 38.0495 36.0438 38.1555C35.9988 38.2533 35.9579 38.3715 35.9211 38.4856C35.8843 38.5997 35.917 38.722 35.8884 38.8321C35.8598 38.9421 35.7575 39.0277 35.7207 39.1378C35.6839 39.2478 35.6267 39.3293 35.5776 39.4271C35.5245 39.529 35.6267 39.741 35.5449 39.8184C35.4549 39.904 35.1605 39.7491 35.0624 39.8266C34.9642 39.904 34.9847 40.1404 34.8824 40.2138C34.7802 40.2872 34.6698 40.3524 34.5676 40.4257C34.4653 40.4991 34.3999 40.6295 34.2977 40.7029C34.1955 40.7763 34.036 40.7803 33.9419 40.8659C33.8601 40.9352 33.9746 41.1798 33.9051 41.2613C33.8356 41.3428 33.4798 41.2002 33.4144 41.2898C33.349 41.3795 33.304 41.4814 33.2427 41.5711C33.1813 41.6607 33.394 41.942 33.3285 42.0276C33.2631 42.1132 33.0382 42.0805 32.9646 42.158C32.891 42.2354 32.8869 42.4066 32.8051 42.4718C32.7151 42.5411 32.5516 42.6063 32.4207 42.6308C32.3103 42.6512 32.1672 42.6634 32.0363 42.6634C31.9177 42.6634 31.791 42.6389 31.6683 42.6349C31.5456 42.6308 31.427 42.7042 31.3085 42.7001C31.1817 42.7001 31.0304 42.3822 30.92 42.4025C30.7932 42.4229 30.6296 42.5085 30.5356 42.5737C30.4334 42.6471 30.3475 42.7327 30.2452 42.802C30.143 42.8713 30.0571 42.965 29.9549 43.0302C29.8527 43.0954 29.8936 43.393 29.7872 43.4582C29.6809 43.5234 29.3824 43.2707 29.2761 43.3359C29.1698 43.4011 29.1043 43.5316 28.998 43.5968C28.8917 43.662 28.8631 43.8454 28.769 43.9269C28.675 44.0084 28.4092 43.9269 28.3233 44.0166C28.2374 44.1063 28.3928 44.4405 28.3029 44.5301C28.2129 44.6198 27.9103 44.4731 27.8121 44.5505C27.714 44.628 27.6322 44.6769 27.5218 44.738C27.4114 44.7992 27.4891 45.1864 27.3828 45.2475C27.2765 45.3086 27.0066 45.0967 26.9002 45.1578C26.7939 45.219 26.6426 45.2027 26.5322 45.2638C26.4218 45.3249 26.3727 45.4839 26.2623 45.541C26.1519 45.598 26.0456 45.6551 25.9311 45.7122C25.8166 45.7692 25.8002 46.0831 25.6776 46.1157C25.5549 46.1483 25.424 46.2176 25.3014 46.242C25.1787 46.2665 24.9824 45.9445 24.8597 45.9689C24.737 45.9934 24.598 46.0097 24.4794 46.0423C24.3608 46.0749 24.2504 46.1972 24.1318 46.2461C24.0132 46.295 23.956 46.458 23.8415 46.511C23.727 46.564 23.5021 46.3928 23.3917 46.4499C23.2813 46.5069 23.3549 46.9308 23.2445 46.9838C23.1341 47.0368 22.8601 46.7515 22.7456 46.8004C22.6311 46.8493 22.5125 46.8493 22.3939 46.8942C22.2876 46.9349 22.124 47.0327 22.034 47.1143C21.9523 47.1876 21.846 47.2936 21.7683 47.3833C21.6906 47.4729 21.756 47.6767 21.6824 47.7664C21.6088 47.8561 21.5106 47.9213 21.437 48.0069C21.3593 48.0965 21.4738 48.4022 21.388 48.4715C21.2939 48.5449 21.0567 48.4145 20.9504 48.4511C20.8441 48.4878 20.7051 48.6264 20.5824 48.602C20.472 48.5816 20.4065 48.3533 20.288 48.3085C20.1776 48.2677 19.9445 48.5082 19.834 48.4593C19.7236 48.4104 19.6419 48.3126 19.5314 48.2718C19.4129 48.227 19.3515 48.0925 19.237 48.068C19.1103 48.0436 18.9508 47.7542 18.8404 47.7827C18.6932 47.8153 18.5827 47.9498 18.4887 47.9824C18.3456 48.0354 18.2352 48.121 18.1452 48.1781C18.0471 48.2392 18.0225 48.4185 17.8917 48.4797C17.8017 48.5245 17.6586 48.4797 17.5114 48.5245C17.4091 48.553 17.3069 48.6427 17.1679 48.6753C17.0656 48.6957 16.9511 48.7202 16.853 48.7854C16.7671 48.8424 16.7876 49.0381 16.7017 49.1155C16.6199 49.1848 16.4604 49.1726 16.3787 49.25C16.2969 49.3275 16.2478 49.4416 16.1619 49.5109C16.076 49.5802 15.8266 49.3886 15.7325 49.4416C15.6385 49.4946 15.663 49.8125 15.5567 49.8369C15.4504 49.8614 15.3482 49.5924 15.2337 49.5761C15.1273 49.5639 15.0251 49.6332 14.9147 49.6005C14.8084 49.572 14.6612 49.6821 14.5548 49.6495C14.4485 49.6168 14.379 49.4497 14.2727 49.4212C14.1664 49.3927 14.0437 49.2582 13.9374 49.25C13.8229 49.2419 13.6552 49.2826 13.5489 49.3112C13.4303 49.3438 13.324 49.4905 13.2095 49.5476C13.095 49.6046 13.0459 49.7677 12.9355 49.8329C12.8251 49.8981 12.7556 50.0163 12.6452 50.0815C12.5348 50.1467 12.3507 50.0693 12.2403 50.1263C12.1299 50.1834 12.0481 50.3138 11.9296 50.3464C11.811 50.379 11.676 50.3627 11.5615 50.4116C11.447 50.4606 11.3734 50.5869 11.263 50.644C11.1526 50.701 11.1158 50.8926 11.0054 50.9497C10.895 51.0067 10.6374 50.754 10.5269 50.807C10.4165 50.86 10.3102 50.8804 10.1916 50.9211C10.073 50.9619 10.0567 51.3409 9.94219 51.3695C9.82769 51.398 9.68865 51.3776 9.57006 51.4062C9.45148 51.4347 9.25929 51.1412 9.1407 51.1657C9.02211 51.1901 9.00167 51.5977 8.88717 51.6303C8.77267 51.6629 8.6459 51.6181 8.53549 51.6629C8.42508 51.7078 8.32286 51.8015 8.21245 51.8464C8.10204 51.8912 7.88531 51.6792 7.7749 51.7241C7.66449 51.7689 7.51728 51.7445 7.40687 51.7893C7.29646 51.8341 7.17787 51.8912 7.07155 51.9401C6.96523 51.989 7.02656 52.3884 6.92433 52.4455C6.80983 52.5066 6.47451 52.2213 6.37637 52.2988C6.27823 52.3762 6.29459 52.6126 6.20871 52.7023C6.12284 52.792 6.05742 52.9061 5.9879 53.0121C5.91839 53.118 5.95519 53.2729 5.89794 53.3911C5.84069 53.5093 5.6076 53.5419 5.56262 53.6642C5.52582 53.7661 5.40313 53.8232 5.35406 53.9332C5.30499 54.031 5.50945 54.2593 5.45629 54.3653C5.40313 54.4712 5.16187 54.4753 5.1128 54.5813C5.06373 54.6872 5.17006 54.8544 5.13325 54.9603C5.09645 55.0663 4.90425 55.1356 4.8838 55.2497C4.86336 55.3638 5.16596 55.4902 5.16596 55.6043C5.16596 55.7184 4.98195 55.8326 5.03102 55.9467C5.076 56.0486 5.17005 56.1301 5.23957 56.232C5.30499 56.3257 5.31317 56.4684 5.38269 56.5662C5.45221 56.6641 5.57489 56.7211 5.64031 56.8189C5.70574 56.9168 5.9102 56.9575 5.95927 57.0594C6.01243 57.1695 5.71391 57.3936 5.73436 57.5078C5.75889 57.6341 6.17601 57.6789 6.20463 57.8053C6.23326 57.9317 6.06968 58.0947 6.09831 58.221C6.12693 58.3474 5.99199 58.5145 6.0247 58.6368C6.05742 58.759 6.38046 58.7998 6.41727 58.9221C6.45407 59.0444 6.2905 59.2237 6.32321 59.3501C6.35183 59.456 6.47043 59.5416 6.48679 59.6476C6.50315 59.7536 6.58493 59.8595 6.59719 59.9696C6.60946 60.0796 6.58902 60.1938 6.59719 60.2997C6.60537 60.4057 6.53994 60.5239 6.55221 60.6299C6.56447 60.7359 6.38455 60.8826 6.40091 60.9886C6.41726 61.0945 6.52359 61.2087 6.56039 61.3106C6.5972 61.4124 6.85891 61.4614 6.87935 61.5714C6.8998 61.6815 6.69942 61.8241 6.7076 61.9342C6.71578 62.0442 6.83846 62.1502 6.84255 62.2602C6.84664 62.3703 6.76485 62.4926 6.77303 62.6026C6.78121 62.7167 6.73623 62.8472 6.75259 62.9531C6.77303 63.0673 6.81393 63.2018 6.85482 63.2996C6.90389 63.4178 6.94887 63.5401 6.99794 63.6297C7.06337 63.7479 7.37415 63.6664 7.43958 63.7398C7.52545 63.8376 7.45184 64.0577 7.53771 64.1188C7.63177 64.1841 7.67266 64.3023 7.76671 64.3756C7.84441 64.4368 8.14701 64.3023 8.2288 64.4042C8.29013 64.4816 8.11839 64.7302 8.18382 64.8484C8.24925 64.9666 8.32694 65.0318 8.35965 65.1215C8.40464 65.2479 8.26969 65.3375 8.27378 65.4313C8.27378 65.5413 8.4946 65.6432 8.48642 65.7614C8.47824 65.8552 8.38419 65.9652 8.40055 66.0956C8.41282 66.1894 8.60501 66.2546 8.64181 66.3769C8.67044 66.4706 8.3801 66.6907 8.42508 66.8089C8.47007 66.9271 8.7972 66.923 8.85445 67.0412C8.90761 67.1513 8.71133 67.3836 8.76858 67.5018C8.82174 67.6119 9.12843 67.6037 9.18159 67.7219C9.23475 67.8401 9.32062 67.942 9.3656 68.0602C9.41058 68.1784 9.37787 68.3251 9.41467 68.4474C9.4433 68.5452 9.5946 68.5942 9.63549 68.6961C9.67639 68.798 9.48011 69.0017 9.52918 69.0996C9.57825 69.1974 9.63549 69.283 9.68456 69.3808C9.73363 69.4786 9.92174 69.5031 9.96672 69.6009C10.0117 69.6987 10.1548 69.7639 10.1875 69.8658C10.2203 69.9677 10.163 70.1063 10.1875 70.2123C10.2162 70.3346 10.0894 70.4935 10.1139 70.6199C10.1385 70.7462 10.4288 70.8114 10.4533 70.9378C10.4779 71.0641 10.4697 71.1946 10.4942 71.3209C10.5188 71.4473 10.6333 71.5573 10.6537 71.6837C10.6742 71.81 10.6414 71.9486 10.6619 72.075C10.6783 72.1809 10.5474 72.3073 10.5801 72.4133C10.6128 72.5192 10.7437 72.5804 10.7805 72.6823C10.8173 72.7842 10.7232 72.935 10.7641 73.0369C10.805 73.1388 10.9073 73.2162 10.9441 73.3181C10.9809 73.42 10.8786 73.5627 10.9032 73.6686C10.9277 73.7746 10.8418 73.8765 10.85 73.9825C10.8582 74.0884 10.895 74.1496 10.8745 74.2637C10.8541 74.3697 11.1853 74.5857 11.1485 74.6917C11.1117 74.7977 10.8255 74.8139 10.7846 74.9199C10.7437 75.0259 10.805 75.1686 10.7682 75.2745C10.7314 75.3805 10.4656 75.4294 10.4411 75.5395C10.4165 75.6495 10.8009 75.7881 10.805 75.8981C10.8091 76.0245 10.6333 76.1549 10.6414 76.2813C10.6496 76.4076 10.7069 76.5258 10.7191 76.6522C10.7314 76.7785 10.6823 76.909 10.6905 77.0353C10.6987 77.1617 10.8255 77.2839 10.8296 77.4103C10.8336 77.5366 10.482 77.663 10.4779 77.7934C10.4738 77.9238 10.8255 78.0543 10.8214 78.1847C10.8173 78.3151 10.6619 78.4293 10.6578 78.5556C10.6537 78.682 10.4901 78.7961 10.482 78.9224C10.4738 79.0488 10.7191 79.1915 10.711 79.3178C10.7028 79.4442 10.3797 79.5501 10.3675 79.6765C10.3593 79.7825 10.5556 79.9088 10.5597 80.0189C10.5638 80.1289 10.4124 80.2552 10.4247 80.3653C10.437 80.4753 10.6864 80.5487 10.7028 80.6547C10.7191 80.7607 10.8664 80.8544 10.8786 80.9645C10.8909 81.0745 10.7478 81.1968 10.7478 81.3028C10.7478 81.4087 10.5106 81.4903 10.4942 81.6003C10.4779 81.7104 10.7437 81.853 10.7191 81.959C10.6946 82.0649 10.3961 82.0894 10.3634 82.1913C10.3307 82.2932 10.3716 82.4114 10.3388 82.5174C10.3061 82.6234 10.6128 82.8271 10.5801 82.929C10.5474 83.0309 10.2162 83.0472 10.1916 83.1491C10.1671 83.251 10.3879 83.41 10.3675 83.5119C10.347 83.6342 10.2652 83.7483 10.2448 83.8746C10.2244 84.001 10.2407 84.1273 10.2203 84.2537C10.1998 84.3801 9.83177 84.4453 9.81133 84.5716C9.79088 84.698 9.96264 84.8569 9.93811 84.9792C9.91357 85.1015 9.84405 85.2197 9.81542 85.342C9.79089 85.4439 9.88086 85.5743 9.86041 85.6803C9.83996 85.7862 9.71728 85.8759 9.70502 85.9819C9.69275 86.0879 9.63141 86.1897 9.61505 86.2957C9.5987 86.4017 9.72955 86.5321 9.71319 86.6381C9.69683 86.7441 9.45149 86.8052 9.42695 86.9112C9.40242 87.0172 9.49646 87.1354 9.46783 87.2413C9.41876 87.3799 9.40241 87.4859 9.34925 87.5715C9.27565 87.6937 9.26746 87.8323 9.18977 87.9057C9.10389 87.9831 8.96487 87.9994 8.8749 88.1013C8.80947 88.1788 8.92806 88.3744 8.86263 88.5048C8.81765 88.5986 8.57229 88.6149 8.52322 88.7453C8.48642 88.8513 8.34738 88.9532 8.33103 89.0714C8.31467 89.1814 8.35965 89.3159 8.34739 89.4341C8.33512 89.5483 8.40463 89.6705 8.39236 89.7887C8.38009 89.907 8.52731 90.0455 8.51095 90.1597C8.4946 90.2738 8.09795 90.3064 8.06932 90.4205C8.0407 90.5346 8.04479 90.6202 7.99163 90.7303C7.93847 90.8403 8.24924 91.1297 8.19199 91.2357C8.13474 91.3417 8.01615 91.4069 7.9589 91.5128C7.90166 91.6188 7.57043 91.5944 7.52545 91.7044C7.48046 91.8145 7.40686 91.9571 7.38641 92.0753C7.36597 92.1935 7.52545 92.3362 7.51318 92.4544C7.50091 92.5726 7.43548 92.6826 7.42322 92.8008C7.41095 92.919 7.39869 93.0372 7.39051 93.1554C7.38233 93.2736 7.5786 93.4 7.57452 93.5182C7.57043 93.6364 7.64403 93.7546 7.63994 93.8687C7.63586 93.9828 7.48864 94.0888 7.51318 94.207C7.53771 94.3252 7.39868 94.4882 7.43548 94.6024C7.47229 94.7165 7.74218 94.7409 7.78716 94.851C7.83215 94.961 7.67267 95.1485 7.71356 95.2586C7.75445 95.3686 7.67676 95.495 7.70129 95.6091C7.72583 95.7232 7.9998 95.7681 8.0366 95.8618C8.07749 95.9637 8.10613 96.0697 8.15929 96.1593C8.21245 96.249 8.36783 96.2735 8.43326 96.3591C8.49869 96.4447 8.421 96.6403 8.49051 96.7259C8.56003 96.8115 8.70724 96.8278 8.77267 96.9175C8.8381 97.0071 8.70315 97.2558 8.77267 97.3495C8.84219 97.4392 9.11617 97.378 9.19386 97.4677C9.26747 97.5533 9.26747 97.7204 9.36152 97.8019C9.4474 97.8753 9.52917 97.9894 9.63549 98.0506C9.72955 98.1076 9.9381 97.9487 10.0567 97.9935C10.1753 98.0383 10.2203 98.2544 10.3388 98.2951C10.4574 98.3359 10.6169 98.2381 10.7396 98.2788C10.8623 98.3196 10.9645 98.3807 11.0831 98.4133C11.2017 98.4459 11.353 98.344 11.4756 98.3726C11.5983 98.4011 11.7128 98.4052 11.8355 98.4337C11.9582 98.4622 11.9786 98.878 12.1013 98.9146C12.224 98.9513 12.3712 98.8739 12.4939 98.9146C12.6166 98.9554 12.7842 98.825 12.9069 98.8617C13.0296 98.8983 13.0909 99.1307 13.2136 99.1592C13.3363 99.1877 13.4589 99.2856 13.5816 99.3019C13.7043 99.3182 13.8556 99.1429 13.9864 99.1307C14.1173 99.1184 14.2441 99.1307 14.3708 99.1062C14.4976 99.0818 14.5835 98.8494 14.7061 98.825C14.8288 98.8005 15.0169 99.1959 15.1437 99.1837C15.2705 99.1714 15.3645 99.094 15.4913 99.1062C15.618 99.1184 15.7489 98.8657 15.8757 98.8617C16.0024 98.8576 16.121 98.8617 16.2478 98.8494C16.3746 98.8372 16.5054 98.8943 16.6281 98.878C16.7508 98.8617 16.8775 98.8535 17.0002 98.8454C17.1229 98.8372 17.2619 98.6008 17.3887 98.609C17.4991 98.613 17.5645 98.9513 17.6708 98.988C17.7731 99.0247 17.9367 98.9228 18.0389 98.9758C18.1411 99.0288 18.092 99.3345 18.1861 99.3875C18.2801 99.4404 18.4274 99.4241 18.5255 99.473C18.6236 99.5219 18.8036 99.4119 18.9058 99.4445C19.0121 99.4812 19.1062 99.5219 19.2125 99.5219C19.3393 99.5219 19.4578 99.6483 19.5846 99.6524C19.7114 99.6565 19.8341 99.738 19.9567 99.7421C20.0794 99.7461 20.2184 99.522 20.3411 99.5301C20.4638 99.5383 20.5824 99.7665 20.705 99.7706C20.8277 99.7747 20.9586 99.6076 21.0854 99.6076C21.2121 99.6076 21.343 99.5912 21.4657 99.5994C21.5883 99.6075 21.7151 99.6442 21.8378 99.6605C21.9604 99.6768 22.0913 99.6728 22.214 99.685C22.3367 99.6972 22.4716 99.5994 22.5943 99.6076C22.717 99.6157 22.8355 99.8766 22.9541 99.8766C23.0727 99.8766 23.2036 99.6768 23.3263 99.6768C23.4489 99.6768 23.5798 99.6768 23.7025 99.6768C23.8251 99.6768 23.956 99.6768 24.0787 99.6768C24.2054 99.6768 24.3322 99.6891 24.4508 99.685C24.5817 99.685 24.7084 99.9092 24.8311 99.9051C24.9824 99.9051 25.0928 99.6361 25.1991 99.6238C25.3545 99.6075 25.424 99.4649 25.5222 99.4364C25.6653 99.3956 25.7675 99.4241 25.8779 99.3711C25.9761 99.3263 26.201 99.6116 26.3523 99.5709C26.4545 99.5464 26.5404 99.469 26.6958 99.4486C26.8512 99.4282 26.9534 99.4323 27.0556 99.4323C27.2151 99.4323 27.2928 99.416 27.3951 99.4486C27.4973 99.4812 27.6527 99.3548 27.7999 99.3956C27.898 99.4201 27.9839 99.5872 28.1352 99.6116C28.2415 99.6279 28.3683 99.6687 28.5114 99.6809C28.63 99.6891 28.7895 99.5016 28.9121 99.5342C29.0266 99.5668 29.0307 99.9214 29.1493 99.9662C29.2597 100.007 29.3906 100.011 29.5092 100.056C29.6196 100.097 29.8527 99.7869 29.9754 99.8236C30.0899 99.8562 30.1512 100.088 30.2739 100.109C30.3965 100.129 30.4947 100.341 30.6174 100.353C30.7401 100.366 30.8913 99.9377 31.0181 99.9458C31.1449 99.954 31.2348 100.276 31.3575 100.288C31.4802 100.3 31.607 100.223 31.7296 100.243C31.8523 100.264 31.9627 100.305 32.0813 100.341C32.1835 100.37 32.294 100.313 32.4044 100.317C32.5066 100.321 32.6129 100.382 32.7233 100.378C32.8337 100.374 32.9482 100.508 33.0545 100.5C33.1609 100.492 33.259 100.215 33.3694 100.211C33.4798 100.207 33.6066 100.207 33.7129 100.223C33.8192 100.239 33.8765 100.472 33.9787 100.512C34.0809 100.553 34.2118 100.521 34.2977 100.586C34.3836 100.647 34.5798 100.598 34.6616 100.671C34.7434 100.745 34.6453 100.997 34.723 101.071C34.8007 101.144 34.7516 101.356 34.8293 101.429C34.907 101.503 35.181 101.356 35.2668 101.421C35.3527 101.487 35.3404 101.735 35.4345 101.78C35.5449 101.833 35.7943 101.645 35.8966 101.719C35.9988 101.792 35.9088 102.106 36.007 102.184C36.1051 102.261 36.3055 102.208 36.3995 102.285C36.4936 102.363 36.6163 102.404 36.7185 102.477C36.8207 102.55 37.0129 102.444 37.1233 102.506C37.2337 102.567 37.2624 102.734 37.381 102.775C37.4995 102.815 37.5486 103.092 37.6713 103.125C37.794 103.158 37.9085 103.198 38.0271 103.235C38.1457 103.272 38.2888 103.202 38.4074 103.247C38.526 103.292 38.6977 103.235 38.804 103.3C38.9103 103.366 39.0903 103.382 39.1802 103.471C39.2702 103.561 39.3397 103.683 39.4215 103.781C39.5033 103.879 39.3274 104.181 39.4092 104.279C39.491 104.376 39.5483 104.511 39.6382 104.601C39.7282 104.69 39.8549 104.784 39.9572 104.857C40.0594 104.931 40.2271 104.967 40.3457 105.016C40.4642 105.065 40.5706 105.179 40.6932 105.22C40.8159 105.261 40.9672 105.196 41.0899 105.236C41.2126 105.277 41.4048 105.143 41.5152 105.2C41.6256 105.257 41.6747 105.428 41.7728 105.509C41.8709 105.591 41.9077 105.734 42.0059 105.811C42.104 105.888 42.3576 105.758 42.4557 105.836C42.5538 105.913 42.6479 105.99 42.746 106.068C42.8442 106.145 42.791 106.406 42.8851 106.484C42.9791 106.561 43.0609 106.655 43.155 106.736C43.249 106.818 43.5148 106.659 43.6293 106.724C43.7438 106.789 43.7479 107.034 43.8665 107.091C43.9851 107.148 44.0628 107.266 44.1814 107.323C44.2999 107.38 44.5453 107.189 44.6557 107.258C44.7661 107.327 44.6475 107.674 44.7375 107.759C44.8275 107.845 45.0851 107.755 45.1873 107.833C45.2896 107.91 45.4817 107.857 45.584 107.935C45.6862 108.012 45.8089 108.053 45.9111 108.13C46.0133 108.208 46.0788 108.338 46.1728 108.42C46.2669 108.501 46.2342 108.729 46.3241 108.819C46.4141 108.909 46.5531 108.954 46.6308 109.055C46.7085 109.157 46.7044 109.312 46.7739 109.418C46.8434 109.524 47.0561 109.532 47.1256 109.634C47.1951 109.736 47.0479 109.997 47.1256 110.099C47.2033 110.201 47.3464 110.254 47.4323 110.348C47.5182 110.441 47.5304 110.58 47.6081 110.682C47.6858 110.784 48.0252 110.682 48.1029 110.784C48.1806 110.886 48.2379 110.996 48.3115 111.097C48.3851 111.199 48.3442 111.379 48.4219 111.481C48.4996 111.582 48.4546 111.774 48.5364 111.868C48.6223 111.982 48.6427 112.141 48.7081 112.21C48.8104 112.316 48.9167 112.418 49.0026 112.475C49.0925 112.54 49.1988 112.553 49.3093 112.638C49.3829 112.699 49.6078 112.606 49.71 112.712C49.7795 112.785 49.7264 112.985 49.8163 113.091C49.8899 113.18 49.8368 113.298 49.8899 113.417C49.939 113.523 50.1476 113.559 50.1884 113.677C50.2293 113.796 50.258 113.91 50.3029 114.024C50.3479 114.138 50.581 114.154 50.6423 114.26C50.7037 114.366 50.7201 114.464 50.8059 114.554C50.8918 114.643 50.8059 114.868 50.8754 114.965C50.945 115.063 50.9818 115.177 51.0513 115.275C51.1208 115.373 51.2108 115.459 51.2803 115.556C51.3498 115.654 51.3702 115.809 51.4479 115.899C51.5256 115.989 51.8446 115.85 51.9346 115.927C52.0245 116.005 52.0368 116.176 52.139 116.241C52.2413 116.306 52.323 116.408 52.4334 116.461C52.5438 116.514 52.687 116.494 52.7974 116.543C52.9078 116.592 52.9078 116.849 53.0141 116.906C53.1204 116.963 53.3004 116.869 53.3985 116.934C53.4966 116.999 53.5662 117.105 53.6602 117.179C53.7543 117.252 53.8483 117.329 53.9424 117.403C54.0364 117.476 54.2859 117.354 54.384 117.423C54.4822 117.493 54.4412 117.762 54.5435 117.827C54.6457 117.892 54.7602 117.973 54.8706 118.014C54.9688 118.051 55.0833 118.043 55.1855 118.092C55.2795 118.137 55.4309 118.075 55.529 118.124C55.6271 118.173 55.7703 118.116 55.8684 118.161C55.9665 118.206 56.0197 118.336 56.1219 118.373C56.2242 118.414 56.3427 118.332 56.445 118.357C56.5554 118.381 56.6126 118.467 56.7149 118.467C56.8253 118.467 57.0011 118.801 57.1074 118.768C57.2137 118.736 57.2628 118.503 57.361 118.45C57.4591 118.397 57.5245 118.295 57.6186 118.234C57.7126 118.173 57.9212 118.279 58.0071 118.218C58.1052 118.153 57.9907 117.749 58.0848 117.7C58.1911 117.643 58.3915 117.79 58.4937 117.774C58.6164 117.757 58.735 117.774 58.8494 117.766C58.9639 117.757 59.0621 117.533 59.1807 117.521C59.2993 117.509 59.4424 117.692 59.5569 117.668C59.6714 117.643 59.7123 117.419 59.8227 117.374C59.9331 117.329 60.0639 117.395 60.1662 117.329C60.2684 117.264 60.526 117.366 60.6078 117.272C60.6814 117.187 60.6405 116.987 60.71 116.885C60.7755 116.791 60.6855 116.592 60.755 116.486C60.8204 116.388 60.9636 116.335 61.0372 116.237C61.1067 116.143 61.3071 116.156 61.3929 116.062C61.4788 115.968 61.4257 115.691 61.5443 115.622C61.6506 115.565 61.8959 115.76 62.0145 115.703C62.129 115.65 62.1331 115.369 62.2476 115.312C62.3621 115.255 62.5911 115.389 62.6933 115.312C62.7956 115.234 62.8201 115.067 62.8978 114.965C62.9673 114.872 62.8692 114.652 62.9428 114.554C63.0164 114.456 63.3067 114.521 63.3762 114.423C63.4458 114.326 63.4621 114.191 63.5316 114.093C63.6011 113.995 63.6502 113.885 63.7238 113.783C63.7974 113.682 63.7483 113.506 63.8219 113.408C63.8956 113.311 63.9446 113.205 64.0182 113.107C64.0919 113.009 64.3863 113.078 64.4558 112.981C64.5253 112.883 64.3658 112.622 64.4353 112.524C64.5048 112.426 64.5826 112.337 64.6521 112.235C64.7216 112.133 64.7952 112.043 64.8647 111.945C64.9342 111.847 65.1714 111.847 65.2082 111.717C65.2409 111.599 65.0774 111.44 65.0978 111.309C65.1183 111.179 65.3554 111.093 65.3759 110.967C65.3963 110.841 65.1796 110.645 65.2205 110.527C65.2614 110.409 65.5722 110.4 65.6458 110.299C65.7153 110.201 65.5926 109.973 65.6621 109.871C65.7316 109.769 65.8257 109.695 65.8952 109.593C65.9647 109.492 66.0629 109.422 66.1324 109.32C66.2019 109.218 66.1569 109.043 66.2264 108.945C66.2959 108.848 66.4227 108.791 66.4922 108.689C66.5617 108.587 66.8889 108.709 66.9789 108.615C67.0688 108.522 67.0729 108.371 67.167 108.289C67.261 108.208 67.396 108.175 67.4859 108.089C67.5759 108.004 67.674 107.91 67.7599 107.82C67.8458 107.731 67.9357 107.621 68.0093 107.519C68.083 107.417 67.9316 107.14 68.0134 107.05C68.0952 106.96 68.4183 107.103 68.5082 107.018C68.5982 106.932 68.5982 106.761 68.6881 106.675C68.7781 106.59 68.68 106.329 68.7658 106.239C68.8517 106.149 68.954 106.096 69.0276 105.999C69.1012 105.901 69.3138 105.909 69.3833 105.807C69.4528 105.705 69.5796 105.648 69.6491 105.546C69.7186 105.444 69.6491 105.257 69.7227 105.155C69.7963 105.053 69.8413 104.939 69.9108 104.841C69.9803 104.743 70.1398 104.706 70.2134 104.609C70.287 104.511 70.1766 104.295 70.2461 104.189C70.3157 104.083 70.3279 103.961 70.3893 103.855C70.4506 103.749 70.88 103.863 70.9454 103.757C71.0108 103.651 70.8064 103.382 70.8718 103.28C70.9372 103.178 71.2357 103.243 71.3134 103.145C71.3911 103.048 71.248 102.783 71.3298 102.689C71.4116 102.595 71.6651 102.656 71.7469 102.567C71.8287 102.477 71.9882 102.457 72.07 102.367C72.1517 102.277 72.2376 102.184 72.3153 102.09C72.393 101.996 72.1763 101.658 72.254 101.56C72.3194 101.478 72.5034 101.474 72.5934 101.413C72.6792 101.352 72.6997 101.148 72.7978 101.095C72.896 101.042 73.1495 101.328 73.2477 101.283C73.3458 101.238 73.3376 100.969 73.4316 100.92C73.5257 100.871 73.583 100.781 73.6688 100.72C73.7547 100.659 73.7547 100.565 73.8242 100.484C73.9019 100.39 74.1718 100.439 74.2332 100.329C74.2945 100.219 74.4744 100.162 74.5235 100.048C74.5726 99.9336 74.4458 99.7421 74.4949 99.6279C74.5439 99.5138 74.5112 99.3508 74.5726 99.2448C74.6339 99.1388 74.6625 98.9717 74.7443 98.878C74.8138 98.7964 75.2064 98.8983 75.2514 98.7924C75.2923 98.6945 74.9815 98.4744 75.006 98.3644C75.0306 98.2543 74.9978 98.1443 75.0183 98.0383C75.0387 97.9324 75.3904 97.8916 75.4149 97.7856C75.4395 97.6797 75.5172 97.6104 75.5581 97.5125C75.603 97.4106 75.6521 97.3903 75.7216 97.3087C75.8034 97.215 75.832 97.1416 75.9425 97.0683C76.0488 96.999 75.9874 96.6322 76.106 96.5751C76.2246 96.518 76.4822 96.7544 76.5967 96.7014C76.7112 96.6485 76.7153 96.3754 76.8176 96.3061C76.9198 96.2368 76.9607 96.1267 77.0424 96.033C77.1242 95.9392 77.1774 95.8496 77.251 95.7477C77.3246 95.6458 77.3982 95.5602 77.4637 95.4583C77.5291 95.3564 77.7867 95.3768 77.8521 95.2708C77.9175 95.1648 78.0034 95.0833 78.073 94.9814C78.1425 94.8795 78.032 94.6268 78.1138 94.5372C78.1956 94.4475 78.3265 94.4108 78.396 94.3048C78.4655 94.1989 78.7395 94.2152 78.8008 94.1051C78.8622 93.9951 78.719 93.779 78.7763 93.669C78.8335 93.5589 78.8335 93.4041 78.9031 93.3022C78.9726 93.2003 79.1075 93.1269 79.1934 93.0372C79.267 92.9557 79.4674 93.0576 79.5696 93.0046C79.6637 92.9557 79.7332 92.8783 79.8436 92.8416C79.954 92.8049 80.0153 92.65 80.1217 92.6174C80.228 92.5848 80.3343 92.5481 80.4365 92.5114C80.5387 92.4748 80.5756 92.3076 80.6696 92.2587C80.7718 92.2057 81.099 92.4544 81.1726 92.3729C81.2585 92.2832 81.1889 92.0549 81.2626 91.953C81.3362 91.8511 81.3443 91.7126 81.4138 91.6107C81.4834 91.5088 81.6469 91.468 81.7124 91.362C81.7778 91.2561 81.8882 91.1908 81.9618 91.093C82.0354 90.9952 81.9986 90.8077 82.0845 90.718C82.1704 90.6284 82.2481 90.5387 82.3094 90.4246C82.3707 90.3105 82.3789 90.1841 82.428 90.0618C82.477 89.9396 82.7674 89.9192 82.8124 89.801C82.8573 89.6828 82.6938 89.4708 82.751 89.3608C82.8083 89.2507 82.9064 89.1407 82.9923 89.051C83.0659 88.9736 83.2458 89.0592 83.344 89.0062C83.438 88.9573 83.5198 88.9287 83.6261 88.8921C83.7325 88.8554 83.8429 88.8839 83.9492 88.8472C84.0555 88.8105 84.1741 88.7902 84.2722 88.7535C84.3704 88.7168 84.3377 88.354 84.4317 88.3051C84.5298 88.2521 84.6607 88.2766 84.7343 88.2032C84.8243 88.1136 85.1064 88.138 85.1719 88.0239C85.2373 87.9098 85.1555 87.7141 85.2046 87.5959C85.2536 87.4777 85.3191 87.3677 85.3722 87.2535C85.4254 87.1394 85.4458 87.0131 85.5113 86.903C85.5767 86.793 85.5685 86.6218 85.6585 86.5362C85.7362 86.4628 85.8997 86.5077 86.002 86.4587C86.1001 86.4139 86.1983 86.3976 86.3087 86.3691C86.4191 86.3405 86.4681 86.1041 86.5745 86.0797C86.6808 86.0552 86.8525 86.259 86.9588 86.2264C87.0652 86.1938 87.1756 86.1245 87.2737 86.0797C87.376 86.0308 87.4046 85.8637 87.4823 85.7903C87.5723 85.7047 87.6009 85.5824 87.6745 85.4805C87.7481 85.3786 87.7113 85.2197 87.7808 85.1137C87.8503 85.0077 87.9362 84.9181 88.0016 84.8121C88.067 84.7061 88.2756 84.6898 88.3533 84.5961C88.431 84.5023 88.4146 84.2904 88.5046 84.2089C88.5946 84.1273 88.9544 84.3597 89.0525 84.2863C89.1507 84.2129 89.2325 84.1355 89.3347 84.0662C89.4369 83.9969 89.5228 83.9072 89.6209 83.838C89.7191 83.7687 89.7968 83.6505 89.8949 83.5771C89.9931 83.5037 89.9522 83.2633 90.0462 83.1817C90.1239 83.1084 90.3938 83.1777 90.4551 83.0839C90.5083 82.9942 90.2057 82.7171 90.2466 82.6152C90.2875 82.5133 90.5574 82.5133 90.5983 82.4114C90.6392 82.3095 90.6065 82.1791 90.6514 82.0813C90.6964 81.9834 90.6964 81.8448 90.7537 81.7552C90.8109 81.6614 91.0685 81.7389 91.1462 81.6696C91.2239 81.6003 91.2444 81.4658 91.3589 81.425C91.4611 81.3924 91.5388 81.1601 91.6533 81.1397C91.7637 81.1234 91.8986 81.2172 92.0131 81.2049C92.1276 81.1927 92.234 81.1438 92.3444 81.1275C92.463 81.1112 92.5284 81.0134 92.6347 80.9767C92.7492 80.94 92.8187 80.9685 92.9046 80.8952C92.9946 80.8137 93.2236 80.8911 93.3135 80.8096C93.4035 80.7281 93.3544 80.4917 93.4444 80.4101C93.5343 80.3286 93.7225 80.3572 93.8165 80.2756C93.9106 80.1941 93.9555 80.0678 94.0455 79.9862C94.1355 79.9047 94.1518 79.7335 94.2418 79.652C94.3277 79.5787 94.6057 79.6643 94.6589 79.5542C94.7039 79.4564 94.5975 79.2852 94.6303 79.1711C94.6589 79.061 94.7407 78.9632 94.7652 78.8491C94.7897 78.735 94.9329 78.6534 94.9656 78.5434C94.9983 78.4252 94.8429 78.2458 94.892 78.148C94.9451 78.038 95.0842 77.9768 95.17 77.9075C95.2641 77.8301 95.3213 77.7078 95.4195 77.6304C95.5176 77.5529 95.6935 77.5815 95.7875 77.504C95.8816 77.4266 96.0738 77.4714 96.1719 77.394C96.2701 77.3166 96.221 77.0598 96.3191 76.9823C96.4173 76.9049 96.4091 76.7052 96.5031 76.6277C96.5972 76.5503 96.8098 76.6155 96.9202 76.5544C97.0306 76.4932 97.231 76.6318 97.3455 76.5747C97.46 76.5177 97.5704 76.4688 97.6849 76.4158C97.7994 76.3628 97.7217 75.943 97.828 75.8818C97.9344 75.8207 98.1634 75.9552 98.2615 75.8818C98.3596 75.8085 98.56 75.8533 98.6541 75.7718C98.7481 75.6903 98.744 75.4987 98.834 75.4172C98.924 75.3357 99.063 75.3071 99.157 75.2297C99.2511 75.1523 99.157 74.8506 99.2511 74.7732C99.3451 74.6958 99.6764 74.9118 99.7704 74.8384C99.8645 74.765 99.7786 74.4267 99.8849 74.3615C99.9912 74.2963 100.065 74.1618 100.175 74.1048C100.286 74.0477 100.596 74.3738 100.707 74.3167C100.817 74.2596 100.875 74.0925 100.977 74.0273C101.079 73.9621 101.03 73.6686 101.128 73.5953C101.226 73.5219 101.398 73.5504 101.484 73.4567C101.57 73.3629 101.705 73.314 101.782 73.2121C101.86 73.1102 101.803 72.9146 101.88 72.8168C101.958 72.7189 102.269 72.8168 102.355 72.723C102.441 72.6293 102.433 72.4785 102.535 72.4051C102.637 72.3317 102.662 72.1646 102.756 72.0872C102.85 72.0097 103.075 72.079 103.164 71.9975C103.254 71.916 103.148 71.6062 103.242 71.5247C103.336 71.4432 103.541 71.4962 103.635 71.4187C103.729 71.3413 103.807 71.2435 103.909 71.1701C104.011 71.0967 104.101 71.0152 104.203 70.9459C104.305 70.8767 104.543 71.0193 104.645 70.95C104.747 70.8807 104.796 70.7299 104.898 70.6647C105.001 70.5995 104.943 70.2856 105.046 70.2164C105.148 70.1471 105.438 70.3631 105.54 70.2938C105.634 70.2286 105.643 70.0166 105.769 70.0003C105.88 69.984 106.011 69.8821 106.133 69.8903C106.248 69.8944 106.379 69.8618 106.497 69.874C106.616 69.8862 106.722 70.0003 106.841 70.0044C106.967 70.0126 107.098 70.2286 107.209 70.2123C107.336 70.196 107.438 70.037 107.532 69.9718C107.626 69.9066 107.765 69.8577 107.83 69.7517C107.888 69.658 107.72 69.4501 107.769 69.34C107.814 69.2341 107.867 69.1403 107.908 69.0303C107.949 68.9202 108.17 68.8795 108.215 68.7735C108.26 68.6635 108.088 68.427 108.149 68.3333C108.215 68.2314 108.35 68.0806 108.444 68.0195C108.538 67.9583 108.808 68.317 108.918 68.2885C109.02 68.2599 109.09 68.2151 109.2 68.2029C109.311 68.1906 109.405 68.1254 109.515 68.1214C109.625 68.1173 109.724 67.942 109.83 67.9298C109.936 67.9176 110.018 67.7994 110.124 67.7708C110.235 67.7423 110.357 67.8157 110.452 67.7586C110.574 67.6812 110.611 67.5222 110.697 67.4692C110.824 67.3877 111.077 67.5589 111.159 67.4977C111.253 67.4325 111.204 67.1921 111.314 67.1024C111.392 67.0412 111.498 66.9923 111.617 66.9027C111.699 66.8374 111.686 66.6255 111.797 66.5399C111.879 66.4788 112.01 66.5236 112.067 66.4258C112.116 66.3402 112.238 66.2831 112.279 66.1772C112.316 66.0793 112.161 65.9122 112.198 65.8063C112.234 65.7003 112.664 65.7573 112.705 65.6595C112.746 65.5617 112.598 65.3864 112.656 65.2968C112.713 65.2071 112.709 65.0563 112.786 64.9829C112.864 64.9096 112.954 64.7221 113.069 64.6813C113.171 64.6487 113.326 64.6976 113.445 64.6772C113.555 64.6569 113.69 64.7669 113.805 64.7506C113.919 64.7343 114.054 64.8158 114.165 64.7954C114.283 64.771 114.365 64.6202 114.467 64.5794C114.578 64.5346 114.508 64.3389 114.578 64.2533C114.659 64.1596 114.815 64.1596 114.868 64.0455C114.921 63.9314 115.15 63.8865 115.191 63.7642C115.232 63.642 114.946 63.43 114.982 63.3077C115.019 63.1855 115.44 63.1855 115.481 63.0673C115.526 62.945 115.24 62.6719 115.301 62.5659C115.363 62.46 115.743 62.4966 115.776 62.3825C115.808 62.2684 115.502 62.085 115.514 61.9668C115.526 61.8486 115.575 61.7385 115.579 61.6203C115.583 61.5021 115.853 61.4002 115.866 61.2861C115.878 61.172 115.931 61.0823 115.96 60.9682C115.984 60.8704 115.78 60.691 115.829 60.5891C115.878 60.4954 115.939 60.4016 116.001 60.3079C116.062 60.2141 116.189 60.1734 116.246 60.0796C116.303 59.9859 116.299 59.8636 116.348 59.7699C116.397 59.672 116.311 59.5538 116.336 59.452C116.36 59.346 116.475 59.2971 116.455 59.187C116.434 59.077 116.483 58.9506 116.418 58.861C116.356 58.7794 116.168 58.8243 116.082 58.7509C116.005 58.6857 115.931 58.6123 115.841 58.5471C115.751 58.4819 115.604 58.5023 115.518 58.4371C115.432 58.3718 115.547 58.058 115.469 57.9846C115.391 57.9113 115.293 57.8746 115.232 57.789C115.166 57.6952 114.978 57.6586 114.929 57.5485C114.88 57.4425 114.933 57.2877 114.888 57.1735C114.843 57.0594 114.635 57.0309 114.582 56.9208C114.528 56.8108 114.471 56.7415 114.402 56.6437C114.332 56.5459 114.459 56.2646 114.361 56.1872C114.279 56.122 114.087 56.179 114.001 56.0975C113.923 56.0241 113.944 55.8407 113.866 55.7592C113.788 55.6777 113.698 55.6084 113.617 55.531C113.535 55.4535 113.334 55.5147 113.244 55.4454C113.155 55.3761 113.175 55.1519 113.081 55.0948C112.987 55.0378 112.758 55.2701 112.656 55.2293C112.553 55.1886 112.517 55.1193 112.394 55.1356C112.283 55.1478 112.136 55.0011 112.018 55.0419C111.907 55.0785 111.776 55.0704 111.662 55.1111C111.547 55.1519 111.478 55.2986 111.367 55.3353C111.257 55.372 111.122 55.319 111.008 55.3353C110.885 55.3557 110.799 55.3435 110.685 55.3231C110.562 55.3027 110.411 55.5595 110.288 55.5513C110.165 55.5432 110.059 55.2579 109.936 55.2538C109.814 55.2497 109.691 55.5717 109.568 55.5676C109.446 55.5636 109.327 55.2864 109.2 55.2864C109.073 55.2864 108.967 55.1274 108.84 55.1193C108.726 55.1111 108.587 55.319 108.472 55.2579C108.374 55.2049 108.186 55.2456 108.084 55.1682C107.99 55.0989 107.949 54.9481 107.855 54.8707C107.761 54.7932 107.609 54.8055 107.515 54.7362C107.413 54.6628 107.344 54.6057 107.241 54.5568C107.127 54.5079 107.082 54.565 106.963 54.565C106.857 54.565 106.747 54.3163 106.636 54.3123C106.526 54.3082 106.415 54.3979 106.309 54.3897C106.203 54.3816 106.117 54.0799 106.011 54.0718C105.904 54.0636 105.778 54.3652 105.671 54.3612C105.565 54.3571 105.463 54.2185 105.352 54.2185C105.242 54.2185 105.131 54.1655 105.025 54.1737C104.919 54.1818 104.8 54.1737 104.694 54.19C104.588 54.2063 104.457 54.1533 104.354 54.1778C104.252 54.2022 104.146 54.2348 104.04 54.2634C103.933 54.2919 103.851 54.3856 103.749 54.4101C103.647 54.4345 103.565 54.5446 103.459 54.565C103.353 54.5854 103.279 54.8462 103.173 54.8625C103.046 54.8788 102.911 54.8136 102.784 54.8299C102.657 54.8462 102.494 54.5242 102.367 54.5364C102.24 54.5487 102.13 54.7158 102.003 54.7321C101.876 54.7484 101.746 54.7402 101.619 54.7606C101.492 54.781 101.353 54.7117 101.226 54.7321C101.12 54.7484 101.059 54.9848 100.952 55.0174C100.846 55.05 100.744 55.0663 100.646 55.1071C100.547 55.1478 100.515 55.3394 100.412 55.3801C100.31 55.4209 100.118 55.2334 100.016 55.2701C99.9135 55.3068 99.8604 55.478 99.7582 55.5106C99.6559 55.5432 99.5578 55.6614 99.4515 55.6818C99.3451 55.7021 99.202 55.5758 99.0875 55.5717C98.973 55.5676 98.879 55.4535 98.7686 55.4372C98.6582 55.4209 98.5518 55.4046 98.4455 55.3883C98.3392 55.372 98.2492 55.1886 98.1388 55.1764C98.0284 55.1641 97.8853 55.3679 97.779 55.3638C97.6727 55.3598 97.5909 55.5228 97.4845 55.5432C97.3782 55.5636 97.1778 55.2905 97.0756 55.3353C96.9734 55.3802 96.8344 55.3842 96.7362 55.4372C96.6381 55.4902 96.7771 55.9304 96.6831 55.9874C96.589 56.0445 96.4745 56.0771 96.3805 56.1342C96.2864 56.1912 96.1106 56.1138 96.0124 56.1546C95.9143 56.1953 95.8161 56.3054 95.7139 56.3298C95.5912 56.3584 95.4195 56.1709 95.2968 56.1953C95.1741 56.2198 95.0883 56.444 94.9615 56.4684C94.8347 56.4929 94.7202 56.5621 94.5975 56.5866C94.4749 56.6111 94.3154 56.4603 94.1927 56.4888C94.07 56.5173 93.9883 56.7211 93.8656 56.7496C93.7429 56.7782 93.6161 56.8189 93.4934 56.8475C93.3708 56.876 93.244 56.8923 93.1172 56.9208C92.9905 56.9494 92.8269 56.8026 92.7042 56.8312C92.5815 56.8597 92.5202 57.1409 92.4016 57.1695C92.283 57.198 92.0704 56.9004 91.9477 56.9331C91.8414 56.9616 91.7474 57.092 91.6492 57.145C91.5511 57.198 91.3916 57.1858 91.3016 57.2551C91.2117 57.3243 91.2444 57.5404 91.1585 57.6137C91.0726 57.6871 90.8436 57.5852 90.7578 57.6504C90.6719 57.7156 90.631 57.8257 90.541 57.8787C90.4429 57.9398 90.4388 58.1803 90.3366 58.2088C90.2343 58.2373 90.1362 58.3963 90.0299 58.4085C89.9236 58.4208 89.7886 58.2903 89.6823 58.2944C89.576 58.2985 89.4615 58.1436 89.3551 58.1436C89.2488 58.1436 89.1425 58.3678 89.0362 58.3718C88.9299 58.3759 88.844 58.4778 88.7377 58.49C88.6314 58.5023 88.4555 58.164 88.3574 58.1925C88.251 58.2251 88.2838 58.5797 88.1856 58.6286C88.0875 58.6775 87.9689 58.6531 87.8789 58.7101C87.789 58.7672 87.5232 58.5919 87.4373 58.6572C87.3514 58.7224 87.3146 58.8569 87.2288 58.9221C87.1388 58.9914 87.2124 59.3011 87.1265 59.3541C87.0284 59.4153 86.8525 59.3664 86.7544 59.399C86.6154 59.4438 86.4436 59.3134 86.3414 59.346C86.1901 59.3908 86.1083 59.5335 86.0101 59.562C85.8588 59.6028 85.7321 59.5457 85.6258 59.5742C85.5235 59.6028 85.4622 59.7862 85.3109 59.8351C85.2128 59.8636 85.041 59.7373 84.8979 59.7862C84.7548 59.8351 84.6893 60.1612 84.5871 60.1775C84.4317 60.2019 84.26 60.1938 84.1495 60.1815C84.0391 60.1693 83.9328 59.8106 83.7815 59.8188C83.6793 59.8229 83.5689 59.994 83.4176 60.0348C83.3113 60.0593 83.1313 59.9207 82.9923 59.9696C82.8778 60.0063 82.8205 60.2549 82.6897 60.2794C82.5711 60.2997 82.428 60.1978 82.2971 60.2141C82.1745 60.2305 82.064 60.3405 81.9373 60.3609C81.8105 60.3813 81.6633 60.2631 81.5365 60.2916C81.4098 60.3201 81.2503 60.2671 81.1317 60.3079C81.0335 60.3405 81.0172 60.6014 80.9231 60.6666C80.8373 60.7236 80.6083 60.6258 80.5224 60.6992C80.4365 60.7725 80.4406 60.9356 80.3588 61.0089C80.277 61.0823 80.2034 61.1557 80.1176 61.225C80.0317 61.2943 80.1094 61.5999 80.0153 61.657C79.9213 61.7141 79.7782 61.7711 79.6759 61.8078C79.5737 61.8445 79.3979 61.6489 79.2874 61.6652C79.177 61.6815 79.0789 61.7711 78.9726 61.7711C78.8663 61.7711 78.7558 61.9056 78.6495 61.9056C78.5432 61.9056 78.4287 61.547 78.3183 61.551C78.2079 61.5551 78.1343 61.8567 78.028 61.873C77.9217 61.8893 77.7499 61.657 77.6517 61.6937C77.5332 61.7344 77.4228 61.7508 77.3001 61.7793C77.1774 61.8078 77.1079 62.0809 76.9852 62.1013C76.8625 62.1217 76.7439 62.1706 76.6213 62.1909C76.4986 62.2113 76.3432 62.0809 76.2205 62.1094C76.0978 62.138 76.012 62.2725 75.8934 62.3173C75.7911 62.354 75.7176 62.4029 75.6235 62.4681C75.5376 62.5292 75.3495 62.4681 75.2677 62.5456C75.186 62.623 75.0101 62.5904 74.9283 62.6678C74.8465 62.7453 74.7811 62.8186 74.7034 62.8879C74.6257 62.9572 74.7443 63.2873 74.6544 63.3485C74.5644 63.4096 74.4254 63.4219 74.3231 63.4626C74.2045 63.5075 74.0778 63.536 73.9592 63.5686C73.8406 63.6012 73.7302 63.6827 73.6075 63.7112C73.4848 63.7398 73.3867 63.8539 73.264 63.8824C73.1413 63.911 72.9491 63.6705 72.8265 63.7072C72.7038 63.7439 72.622 63.8906 72.5034 63.9354C72.4053 63.9721 72.2417 63.9191 72.1517 63.9803C72.0618 64.0414 72.1231 64.2941 72.0413 64.3634C71.9595 64.4327 71.7346 64.3389 71.6528 64.4123C71.5711 64.4857 71.661 64.7506 71.5792 64.8199C71.4975 64.8892 71.1989 64.6691 71.109 64.7261C71.019 64.7832 71.0599 65.0685 70.9618 65.1052C70.8636 65.1419 70.7409 65.1704 70.6305 65.1826C70.5201 65.1949 70.4097 65.2601 70.2993 65.2601C70.1889 65.2601 70.0826 65.1052 69.9722 65.1011C69.8618 65.097 69.7473 64.9177 69.6409 64.9218C69.5346 64.9259 69.4079 65.0115 69.3015 65.0278C69.1952 65.0441 69.0971 65.1704 68.9948 65.2112C68.8803 65.256 68.7699 65.3212 68.6473 65.3538C68.5246 65.3864 68.3774 65.309 68.2547 65.3416C68.132 65.3742 68.0461 65.5291 67.9235 65.5617C67.8008 65.5943 67.6249 65.4435 67.5064 65.4802C67.3878 65.5169 67.3305 65.7533 67.216 65.7981C67.1179 65.8389 67.1465 66.0549 67.0565 66.1201C66.9666 66.1853 66.9175 66.2424 66.8357 66.3198C66.754 66.3973 66.5822 66.3647 66.5086 66.4421C66.435 66.5195 66.4513 66.707 66.3737 66.7804C66.296 66.8538 66.1201 66.8537 66.0342 66.9149C65.9484 66.976 65.7889 66.9597 65.6907 67.0005C65.5844 67.0453 65.4576 67.1839 65.335 67.1839C65.2246 67.1839 65.1183 66.9801 64.9956 66.9556C64.8811 66.9353 64.7216 67.1105 64.603 67.082C64.4844 67.0535 64.3699 67.0739 64.2554 67.0535C64.1327 67.029 64.0551 66.7233 63.9446 66.7193C63.822 66.7193 63.6216 66.6296 63.5193 66.6744C63.4171 66.7192 63.3721 66.9312 63.2863 67.0127C63.2045 67.0861 63.2495 67.2776 63.1759 67.3673C63.1023 67.457 62.9101 67.4448 62.8405 67.5385C62.771 67.6323 62.7506 67.7545 62.6811 67.8401C62.6075 67.9298 62.6361 68.1254 62.5543 68.1988C62.4684 68.2762 62.2435 68.158 62.1413 68.2029C62.0268 68.2518 61.8264 68.1906 61.7201 68.2559C61.6138 68.3211 61.5647 68.4963 61.4625 68.5697C61.3602 68.6431 61.4338 68.9651 61.3316 69.0384C61.2294 69.1118 61.1231 69.2055 61.0208 69.2708C60.9186 69.336 60.6528 69.1281 60.5383 69.1811C60.4238 69.2341 60.3584 69.3849 60.248 69.4419C60.1376 69.499 60.0967 69.6906 59.9863 69.7476C59.8759 69.8047 59.606 69.5561 59.4956 69.6131C59.3851 69.6702 59.2788 69.7313 59.1684 69.7843C59.058 69.8373 59.0662 70.1308 58.9517 70.1838C58.8535 70.2327 58.6941 70.0737 58.5796 70.09C58.4733 70.1063 58.3751 70.037 58.2606 70.037C58.1461 70.037 58.0275 70.2938 57.9171 70.2856C57.8067 70.2775 57.6963 70.249 57.5859 70.2449C57.4714 70.2449 57.3896 70.4079 57.2833 70.4242C57.1688 70.4405 57.0379 70.2571 56.9398 70.306C56.8416 70.3549 56.7353 70.3794 56.629 70.4079C56.5227 70.4365 56.4532 70.6443 56.3427 70.6606C56.2323 70.6769 56.0851 70.4201 55.9788 70.4324C55.8725 70.4446 55.8111 70.7707 55.7089 70.787C55.6067 70.8033 55.4309 70.518 55.3327 70.5465C55.2346 70.575 55.0874 70.5791 54.9933 70.628C54.8911 70.681 54.8911 70.9052 54.8175 71.0071C54.748 71.0967 54.5149 71.1131 54.4576 71.2272C54.4085 71.3331 54.5026 71.5125 54.4576 71.6266C54.4126 71.7407 54.4372 71.8834 54.3881 71.9894C54.3349 72.1035 54.2859 72.2298 54.2204 72.3236C54.1468 72.4296 53.9914 72.4622 53.8892 72.5152C53.7788 72.5763 53.6684 72.6293 53.5539 72.6782C53.4394 72.7271 53.2881 72.6782 53.1695 72.723C53.0509 72.7679 53.0018 72.9839 52.8832 73.0287C52.7647 73.0735 52.6134 73.0328 52.5029 73.0858C52.3925 73.1388 52.3639 73.3426 52.2617 73.4078C52.1595 73.473 52.0736 73.579 51.9673 73.6442C51.8609 73.7094 51.6892 73.6686 51.587 73.7298C51.4847 73.7909 51.3907 73.8887 51.2885 73.9539C51.1862 74.0192 50.9327 73.8561 50.8305 73.9254C50.7282 73.9947 50.7037 74.1822 50.6015 74.2515C50.4992 74.3208 50.4174 74.4267 50.3316 74.5123C50.2457 74.5979 50.0821 74.6305 50.0044 74.7284C49.9267 74.8262 50.0985 75.1197 50.0249 75.2175C49.9513 75.3153 49.8572 75.4213 49.7795 75.515C49.7018 75.6087 49.4156 75.5272 49.3215 75.6047C49.2234 75.6862 49.207 75.9063 49.0966 75.9633C48.9862 76.0204 48.7777 75.8981 48.6632 75.947C48.5487 75.996 48.5323 76.3017 48.4178 76.3506C48.2951 76.4035 48.0825 76.2324 47.9762 76.2976C47.8617 76.3628 47.9312 76.591 47.8535 76.6848C47.784 76.7704 47.5591 76.7255 47.4936 76.8071C47.4282 76.8886 47.4527 77.0475 47.3873 77.1331C47.3219 77.2187 47.0234 77.1413 46.9661 77.2269C46.9048 77.3165 47.1011 77.5693 47.052 77.6589C46.9989 77.7567 46.778 77.769 46.7453 77.8668C46.7085 77.9728 46.7249 78.095 46.7167 78.1969C46.7085 78.307 46.6512 78.4333 46.6717 78.5434C46.6921 78.6534 46.7249 78.7716 46.7658 78.8776C46.8067 78.9754 46.8394 79.1018 46.9007 79.1996C46.958 79.2893 47.2933 79.1792 47.3628 79.2648C47.4323 79.3504 47.3015 79.6031 47.3832 79.6806C47.465 79.758 47.6899 79.6561 47.7758 79.7254C47.878 79.8069 47.8044 80.08 47.8821 80.1248C48.0007 80.1941 48.1275 80.2308 48.2133 80.243C48.3156 80.2553 48.4219 80.0841 48.5446 80.08C48.6345 80.08 48.7449 80.1248 48.8717 80.1411C48.9617 80.1534 49.023 80.349 49.1457 80.3816C49.2398 80.4061 49.4483 80.1085 49.5628 80.1493C49.6773 80.19 49.7509 80.3816 49.8695 80.4427C49.9758 80.4998 50.1271 80.4876 50.2416 80.5528C50.3479 80.6099 50.4542 80.6628 50.5687 80.7199C50.6792 80.7729 50.6628 81.1438 50.7855 81.1846C50.9 81.2253 51.1085 80.9685 51.2353 80.9971C51.3539 81.0215 51.5093 81.0174 51.636 81.0623C51.7546 81.103 51.7383 81.5025 51.8609 81.5514C51.9836 81.6003 52.2412 81.2701 52.3639 81.315C52.4866 81.3598 52.5766 81.4413 52.6992 81.4739C52.8219 81.5065 52.8873 81.8774 53.0182 81.8938C53.1204 81.906 53.2431 81.5718 53.3535 81.5636C53.4639 81.5555 53.5662 81.6207 53.6725 81.6044C53.7788 81.5881 53.8892 81.6125 53.9955 81.5921C54.1018 81.5718 54.2041 81.5514 54.3104 81.5351C54.4167 81.5188 54.5067 81.2946 54.613 81.2865C54.7193 81.2783 54.8543 81.2742 54.9606 81.2783C55.0669 81.2824 55.1242 81.2701 55.2305 81.2498C55.3368 81.2294 55.4881 81.4413 55.5903 81.4087C55.6926 81.3761 55.852 81.5106 55.9584 81.4739C56.0647 81.4373 56.0483 81.0745 56.1506 81.0419C56.2528 81.0093 56.4409 81.3354 56.5472 81.315C56.6535 81.2946 56.7149 81.099 56.8253 81.099C56.9479 81.099 57.0706 81.0419 57.1974 81.0419C57.3242 81.0419 57.4427 80.9767 57.5695 80.9767C57.6963 80.9767 57.8149 81.1886 57.9417 81.1886C58.0684 81.1886 58.1829 80.9522 58.3097 80.9482C58.4364 80.9441 58.5509 80.9278 58.6777 80.9196C58.784 80.9115 58.874 81.1723 58.9844 81.1968C59.0866 81.2172 59.287 80.9359 59.3933 80.9726C59.4996 81.0093 59.561 81.1642 59.6632 81.2009C59.7654 81.2375 59.9126 81.1275 60.019 81.1601C60.1253 81.1927 60.1621 81.4576 60.2684 81.4739C60.3747 81.4902 60.4811 81.3761 60.5915 81.368C60.7141 81.3558 60.8491 81.4413 60.9759 81.425C61.1026 81.4087 61.2498 81.5799 61.3725 81.5636C61.4952 81.5473 61.5647 81.1356 61.6915 81.1193C61.8182 81.103 61.9491 81.1642 62.0759 81.1479C62.2026 81.1316 62.3294 81.1316 62.4603 81.1153C62.5666 81.099 62.7424 81.3109 62.8487 81.2661C62.9469 81.2253 63.0368 81.1275 63.135 81.0704C63.2331 81.0134 63.2249 80.8014 63.319 80.7403C63.413 80.6791 63.4498 80.5161 63.5439 80.4631C63.6379 80.4101 63.7647 80.3612 63.8669 80.3205C63.9692 80.2797 64.1532 80.4672 64.2595 80.4468C64.3658 80.4264 64.4803 80.1737 64.6112 80.1697C64.7298 80.1697 64.8606 80.3083 64.9874 80.3123C65.106 80.3123 65.2205 80.5854 65.3432 80.5895C65.4658 80.5936 65.5967 80.5283 65.7194 80.5324C65.842 80.5365 65.9688 80.3368 66.0874 80.3327C66.2183 80.3286 66.4472 80.1982 66.5576 80.1778C66.6272 80.3001 66.6967 80.5895 66.6967 80.6751C66.6967 80.7892 66.5209 80.9074 66.4268 80.9848C66.3532 81.046 66.1651 80.9522 66.0547 81.0093C65.9647 81.0582 65.9156 81.1968 65.8175 81.2579C65.7275 81.3109 65.5353 81.2335 65.4413 81.3028C65.3554 81.3639 65.4208 81.6288 65.335 81.7104C65.2573 81.7837 65.29 81.9304 65.2205 82.0242C65.151 82.1179 64.8116 82.0894 64.7747 82.2198C64.742 82.334 65.0201 82.5296 64.9956 82.66C64.9751 82.7823 65.0242 82.925 64.9956 83.0513C64.967 83.1777 64.8443 83.2959 64.7993 83.4141C64.7543 83.5323 64.513 83.5526 64.4394 83.6586C64.374 83.7483 64.3576 83.9113 64.2309 83.9602C64.1286 84.001 64.006 84.0458 63.8792 84.0744C63.7647 84.0988 63.6461 84.1396 63.5275 84.164C63.4089 84.1885 63.2576 84.0784 63.1431 84.111C63.0205 84.1436 63.0164 84.4249 62.9142 84.4779C62.7997 84.5349 62.4602 84.3189 62.3948 84.4127C62.3294 84.5064 62.3335 84.6857 62.2844 84.7999C62.2353 84.914 62.3907 85.0974 62.3498 85.2156C62.3089 85.3338 62.3621 85.4765 62.3212 85.5947C62.2803 85.7129 62.2353 85.8433 62.1863 85.9533C62.1372 86.0634 61.7773 86.0186 61.7078 86.1205C61.6383 86.2224 61.8264 86.4547 61.7733 86.5688C61.7201 86.6829 61.7651 86.8133 61.7242 86.9275C61.6833 87.0416 61.5606 87.1231 61.5197 87.2372C61.4788 87.3514 61.5075 87.5062 61.4584 87.6163C61.4093 87.7263 61.1558 87.7467 61.0944 87.8486C61.0331 87.9505 61.029 88.1339 60.9349 88.2236C60.845 88.3051 60.6242 88.244 60.522 88.3174C60.4197 88.3907 60.2275 88.3459 60.1253 88.4193C60.0231 88.4926 60.113 88.8024 60.0231 88.888C59.9331 88.9736 59.7123 88.9654 59.6509 89.0755C59.5896 89.1855 59.7654 89.3852 59.7286 89.5075C59.6918 89.6298 59.6918 89.7358 59.6673 89.858C59.6428 89.9803 59.2747 90.0292 59.2502 90.1515C59.2257 90.2738 59.3075 90.4083 59.2707 90.5265C59.2338 90.6447 59.3483 90.8281 59.287 90.9341C59.2257 91.04 58.8944 91.0604 58.8658 91.1827C58.8372 91.305 59.1684 91.4925 59.152 91.6147C59.1357 91.737 59.1888 91.8674 59.1725 91.9897C59.1561 92.112 58.9026 92.2057 58.8781 92.324C58.8535 92.4422 58.784 92.54 58.7268 92.65C58.6695 92.7601 58.6123 92.8497 58.5428 92.9516C58.4732 93.0535 58.4446 93.1758 58.371 93.2695C58.2974 93.3633 58.3792 93.5834 58.3056 93.6771C58.232 93.7709 57.9703 93.7261 57.9048 93.8239C57.8394 93.9217 57.8353 94.0603 57.7863 94.1703C57.7372 94.2804 57.7658 94.4271 57.7126 94.5331C57.6595 94.639 57.4918 94.692 57.4387 94.798C57.3855 94.904 57.41 95.0507 57.361 95.1567C57.3119 95.2627 57.2874 95.3809 57.2383 95.4909C57.1892 95.601 57.1524 95.7069 57.1115 95.817C57.0665 95.9352 57.1115 96.0982 57.0665 96.1797C57.0052 96.2898 56.8294 96.3183 56.7721 96.3998C56.7149 96.4814 56.5472 96.5017 56.494 96.6077C56.4532 96.6892 56.4491 96.8115 56.4123 96.9338C56.2732 96.9256 56.1587 97.0968 56.0606 97.0968C55.9093 97.0968 55.803 96.8889 55.713 96.8808C55.6026 96.8686 55.5944 96.7952 55.4881 96.6892C55.4268 96.6281 55.1855 96.6892 55.0955 96.571C55.0383 96.4936 55.1242 96.2898 55.0465 96.1797C54.9892 96.0982 55.1037 95.9882 55.0751 95.874C55.0546 95.7762 54.8952 95.7069 54.887 95.5928C54.8747 95.4868 54.8093 95.3849 54.797 95.2749C54.7848 95.1648 54.9442 95.0263 54.9238 94.9203C54.9033 94.8143 54.6662 94.7532 54.6294 94.6554C54.5926 94.5575 54.6621 94.37 54.5966 94.2844C54.523 94.1907 54.2981 94.207 54.2327 94.0969C54.1714 93.995 54.3104 93.7709 54.2491 93.6649C54.1877 93.5589 53.9546 93.5549 53.8892 93.4489C53.8238 93.3429 53.7338 93.2655 53.6643 93.1636C53.5948 93.0617 53.4844 93.0128 53.4026 92.9231C53.3208 92.8334 53.4803 92.4992 53.3862 92.4136C53.2922 92.328 53.145 92.3117 53.0468 92.2343C52.9487 92.1568 52.8301 92.1161 52.736 92.0386C52.642 91.9612 52.4416 92.0142 52.3476 91.9367C52.2535 91.8593 52.1022 91.8348 52.0123 91.7493C51.9223 91.6637 51.8364 91.5903 51.7464 91.5088C51.6565 91.4273 51.6851 91.2234 51.5951 91.1419C51.5052 91.0604 51.5502 90.8322 51.4602 90.7507C51.3702 90.6691 51.1535 90.7303 51.0595 90.6528C50.9654 90.5754 50.8223 90.555 50.7282 90.4776C50.6342 90.4001 50.6137 90.2086 50.5033 90.1515C50.3929 90.0944 50.2007 90.2249 50.0862 90.18C49.9717 90.1352 49.8858 90.0211 49.7672 89.9762C49.6487 89.9314 49.571 89.8091 49.4606 89.7561C49.3501 89.7031 49.3583 89.4994 49.2561 89.426C49.1539 89.3526 49.0026 89.3893 48.9126 89.2996C48.8226 89.21 48.7081 89.1611 48.6305 89.0673C48.5528 88.9736 48.4096 88.9328 48.3279 88.8431C48.2461 88.7535 48.0621 88.7739 47.9721 88.6923C47.8821 88.6108 47.923 88.3907 47.8208 88.3214C47.7308 88.2644 47.6531 88.1339 47.5427 88.1095C47.4405 88.0891 47.3096 88.2032 47.1992 88.1951C47.0929 88.191 46.9866 88.0117 46.8762 88.0117C46.7657 88.0117 46.6553 88.2032 46.549 88.1992C46.4427 88.1951 46.3037 88.2644 46.2014 88.244C46.091 88.2236 46.0461 88.0076 45.952 87.9546C45.858 87.9016 45.7843 87.8405 45.7148 87.7345C45.6535 87.6448 45.768 87.4736 45.7148 87.3595C45.6698 87.2535 45.5513 87.1843 45.5063 87.0742C45.4613 86.9642 45.3918 86.8541 45.3427 86.7522C45.2895 86.6422 45.2732 86.4791 45.2078 86.3895C45.1342 86.2876 44.9501 86.2142 44.8479 86.1653C44.7457 86.1164 44.5903 86.365 44.4594 86.3772C44.349 86.3854 44.2018 86.206 44.0832 86.2386C43.9728 86.2713 43.8869 86.4058 43.7724 86.4465C43.6579 86.4873 43.5925 86.7033 43.4821 86.7359C43.3635 86.7685 43.1631 86.3691 43.0486 86.3813C42.9219 86.3935 42.7542 86.7604 42.6479 86.7155C42.5375 86.6707 42.5865 86.2672 42.4802 86.2142C42.3739 86.1612 42.1122 86.4261 42.0059 86.3732C41.8996 86.3202 41.9159 86.0308 41.8096 85.9778C41.7033 85.9248 41.5233 86.0349 41.4129 85.9859C41.3025 85.937 41.2698 85.6843 41.1553 85.6477C41.0408 85.611 40.8077 85.9044 40.6973 85.8596C40.5869 85.8148 40.6237 85.4316 40.5133 85.3827C40.4029 85.3338 40.1943 85.5172 40.0839 85.4724C39.9735 85.4276 39.9449 85.1789 39.8304 85.1382C39.7159 85.0974 39.5646 85.1667 39.4501 85.1382C39.3356 85.1096 39.1925 85.2767 39.0739 85.2686C38.9553 85.2604 38.8531 85.024 38.7304 85.024C38.6077 85.024 38.4891 85.0444 38.3705 85.0444C38.252 85.0444 38.1375 84.9874 38.0189 84.9792C37.9003 84.971 37.7776 85.0444 37.659 85.024C37.5404 85.0037 37.4137 85.0077 37.2992 84.967C37.1847 84.9262 37.0375 84.9588 36.9271 84.9099C36.8167 84.861 36.8126 84.5716 36.6981 84.5227C36.5836 84.4738 36.3791 84.6939 36.2605 84.6572C36.1419 84.6205 36.0438 84.6572 35.9252 84.6368C35.8066 84.6164 35.7412 84.2578 35.6226 84.2333C35.504 84.2089 35.3772 84.2659 35.2586 84.2415C35.1401 84.217 35.0256 84.1844 34.907 84.164C34.7884 84.1436 34.6289 84.3841 34.5103 84.3678C34.3917 84.3515 34.2854 84.376 34.1627 84.3678C34.0401 84.3597 33.9378 84.1885 33.8152 84.2048C33.6925 84.2211 33.578 84.2456 33.4594 84.2741C33.3408 84.3026 33.2181 84.3026 33.0995 84.3271C32.981 84.3515 32.8746 84.4534 32.7519 84.4697C32.6293 84.486 32.4984 84.2741 32.3798 84.2741C32.2735 84.2741 32.1672 84.3964 32.0609 84.3638C31.9627 84.3311 31.8564 84.2985 31.7583 84.2455C31.6601 84.1926 31.562 84.1518 31.4679 84.0988C31.3739 84.0458 31.3616 83.8176 31.2635 83.7727C31.1653 83.7279 30.9772 83.8706 30.875 83.842C30.7687 83.8094 30.6705 83.732 30.5642 83.7361C30.4579 83.7401 30.3802 83.8583 30.2739 83.9032C30.1798 83.9439 30.1676 84.111 30.0735 84.1722C29.9835 84.2333 29.6809 83.9888 29.591 84.054C29.501 84.1192 29.5991 84.4493 29.5092 84.5064C29.4192 84.5635 29.3293 84.698 29.2311 84.7428C29.1289 84.7917 28.9244 84.5186 28.8181 84.5268C28.6995 84.539 28.5727 84.5268 28.4542 84.5472C28.3356 84.5675 28.2047 84.5309 28.0902 84.5553C27.9757 84.5798 27.9021 84.8243 27.7835 84.8488C27.6649 84.8732 27.5177 84.7143 27.3991 84.7346C27.2806 84.755 27.1824 84.8488 27.0638 84.8692C26.9452 84.8895 26.8103 84.751 26.6917 84.7673C26.5731 84.7836 26.4586 84.7958 26.34 84.808C26.2214 84.8203 26.1029 84.8488 25.9884 84.8651C25.8739 84.8814 25.8003 85.2156 25.6817 85.236C25.5631 85.2564 25.4118 85.073 25.2973 85.0974C25.1582 85.1259 25.0029 85.4072 24.8924 85.3746C24.7698 85.342 24.782 84.9425 24.6675 84.8895C24.553 84.8365 24.414 84.7306 24.2913 84.702C24.1809 84.6776 24.046 84.7999 23.9069 84.8325C23.8374 84.7102 23.7761 84.6654 23.7229 84.5798C23.6411 84.4534 23.6452 84.3352 23.6043 84.2537C23.5512 84.1518 23.3467 84.0947 23.3753 83.9521C23.3917 83.8624 23.3917 83.7279 23.4448 83.5893C23.4776 83.4956 23.498 83.3733 23.5512 83.2469C23.5921 83.1491 23.7679 83.0554 23.8824 82.9739C23.9724 82.9087 24.2054 83.0676 24.3199 83.0065C24.4263 82.9535 24.4058 82.6437 24.5162 82.5867C24.6266 82.5296 24.7534 82.5214 24.8556 82.4603C24.966 82.3951 25.1051 82.3829 25.1869 82.3013C25.2768 82.2117 25.1623 82.0486 25.195 81.9345C25.2278 81.8285 25.3872 81.7674 25.3545 81.6411C25.3259 81.5351 25.4077 81.368 25.3545 81.2539C25.3055 81.152 25.1991 81.0664 25.1419 80.9563C25.0846 80.8463 25.0724 80.7321 25.0274 80.6221C24.9783 80.508 24.9579 80.4142 24.9333 80.3042C24.9047 80.1819 24.6839 80.0718 24.7084 79.9618C24.733 79.8517 24.8965 79.7661 24.9374 79.652C24.9783 79.5379 25.101 79.4645 25.146 79.3545C25.191 79.2444 25.0396 79.0569 25.0846 78.9428C25.1296 78.8287 25.4077 78.8002 25.4404 78.682C25.4731 78.5638 25.1173 78.3803 25.1337 78.2581C25.1501 78.1358 25.4159 78.0543 25.4486 77.9361C25.4813 77.8179 25.3136 77.6345 25.3545 77.5203C25.3954 77.4062 25.6857 77.3777 25.7225 77.2636C25.7593 77.1494 25.8616 77.0394 25.8861 76.9212C25.9107 76.803 25.6326 76.6522 25.6367 76.5299C25.6408 76.4076 25.9475 76.2935 25.9393 76.1712C25.9311 76.049 25.9883 75.9185 25.9761 75.8003C25.9638 75.6821 25.559 75.6047 25.5467 75.4865C25.5344 75.3683 25.8452 75.2134 25.833 75.0911C25.8207 74.9688 25.6776 74.8669 25.6735 74.7447C25.6694 74.6224 25.8411 74.4675 25.8166 74.3493C25.7921 74.2311 25.7716 74.0966 25.7389 73.9825C25.7062 73.8684 25.608 73.7705 25.5712 73.6564C25.5344 73.5423 25.2278 73.5056 25.1991 73.3915C25.1705 73.2773 25.4118 73.1021 25.3913 72.9839C25.3709 72.8657 25.1419 72.7923 25.1051 72.6823C25.0683 72.5722 25.2523 72.3766 25.2073 72.2665C25.1623 72.1565 24.9292 72.1239 24.8843 72.0138C24.8393 71.9038 24.8597 71.7693 24.8188 71.6592C24.7779 71.5492 24.6757 71.4595 24.643 71.3454C24.6103 71.2313 24.7125 71.0927 24.6961 70.9785C24.6798 70.8644 24.4344 70.7748 24.4222 70.6566C24.4099 70.5384 24.6757 70.3875 24.6594 70.2734C24.643 70.1593 24.504 70.0533 24.4794 69.9392C24.4549 69.8251 24.4549 69.6946 24.414 69.5846C24.3772 69.4868 24.3772 69.3971 24.369 69.283C24.3608 69.1811 24.4017 69.0833 24.4058 68.9732C24.4099 68.8632 24.1564 68.7368 24.1645 68.6308C24.1727 68.5249 24.414 68.4311 24.4181 68.3251C24.4222 68.2192 24.279 68.1132 24.2668 68.0113C24.2504 67.9013 24.1482 67.8605 24.1032 67.7627C24.0501 67.6567 24.1973 67.4407 24.14 67.3306C24.0828 67.2206 23.8988 67.188 23.8374 67.082C23.7761 66.976 23.8129 66.813 23.7515 66.707C23.6902 66.6011 23.5144 66.5684 23.4489 66.4625C23.3835 66.3565 23.5103 66.1364 23.4448 66.0304C23.3794 65.9245 23.3181 65.8307 23.2568 65.7247C23.1954 65.6188 22.8356 65.684 22.7742 65.578C22.7129 65.472 22.6638 65.362 22.6025 65.256C22.5411 65.15 22.5043 65.04 22.4348 64.9381C22.3653 64.8362 22.3407 64.7139 22.2671 64.6202C22.1854 64.5183 22.2426 64.3186 22.169 64.2574C22.079 64.18 22.0586 63.9925 21.9645 63.9354C21.8705 63.8784 21.7969 63.8539 21.6988 63.7765C21.6251 63.7153 21.2653 63.8172 21.1753 63.7235C21.2407 63.5808 21.3225 63.3811 21.3675 63.3322C21.4575 63.2221 21.7642 63.2058 21.8868 63.2996C21.9564 63.3526 21.8541 63.7439 21.9768 63.7887C22.0627 63.8172 22.2263 63.5156 22.353 63.5197C22.4471 63.5197 22.5779 63.8824 22.7006 63.8661C22.8151 63.8498 22.9173 63.6583 23.04 63.6175C23.1504 63.5808 23.2649 63.5278 23.3835 63.4789C23.4939 63.4341 23.5839 63.3281 23.7025 63.2833C23.8211 63.2384 23.9069 63.1162 24.0255 63.0795C24.1441 63.0428 24.2709 62.9939 24.3935 62.9694C24.508 62.9491 24.6634 63.1406 24.7861 63.1202C24.9088 63.0999 25.0151 63.0265 25.1337 63.0061C25.2523 62.9857 25.3586 62.9124 25.4813 62.892C25.604 62.8716 25.6939 62.7167 25.8166 62.6964C25.9393 62.676 26.062 62.729 26.1846 62.7045C26.3073 62.68 26.43 62.7167 26.5445 62.6637C26.659 62.6108 26.6835 62.4192 26.7939 62.3581C26.9043 62.2969 27.1824 62.5496 27.2887 62.4885C27.3951 62.4273 27.4032 62.1746 27.5136 62.1257C27.624 62.0768 27.7385 61.9872 27.8612 61.9586C27.9839 61.9301 28.127 62.0442 28.2456 62.0198C28.3642 61.9953 28.5114 62.1502 28.6341 62.1298C28.7568 62.1094 28.8304 61.8853 28.949 61.8608C29.0675 61.8363 29.2148 61.9382 29.3333 61.9138C29.4519 61.8893 29.591 61.9097 29.7055 61.8771C29.82 61.8445 29.8977 61.6489 30.0244 61.6489C30.1471 61.6489 30.2861 61.494 30.4129 61.5021C30.5397 61.5103 30.6542 61.6203 30.7809 61.6285C30.9077 61.6366 31.0222 61.5551 31.1449 61.547C31.2676 61.5388 31.378 61.5877 31.5006 61.551C31.6029 61.5184 31.6846 61.4899 31.7746 61.4165C31.8564 61.3513 31.8073 61.172 31.885 61.0864C31.9586 61.0049 32.1508 61.0293 32.2203 60.9437C32.2899 60.8581 32.5352 60.9193 32.6088 60.8378C32.6865 60.7522 32.4984 60.3935 32.5843 60.3283C32.6743 60.2549 32.8583 60.2427 32.9605 60.2101C33.075 60.1734 33.2508 60.316 33.3653 60.2753C33.4798 60.2345 33.5616 60.1204 33.6761 60.0796C33.7906 60.0389 33.9297 60.0715 34.0401 60.0307C34.1505 59.99 34.3059 60.0552 34.4163 60.0144C34.5267 59.9737 34.5921 59.7984 34.7025 59.7536C34.8129 59.7087 34.9806 59.7943 35.091 59.7454C35.2014 59.6965 35.1728 59.3338 35.2832 59.2848C35.3936 59.2359 35.5326 59.2563 35.6389 59.2074C35.7453 59.1585 35.8966 59.1992 36.007 59.1503C36.1174 59.1014 36.2728 59.1707 36.3832 59.1218C36.4813 59.081 36.5263 58.8976 36.6367 58.8854C36.7389 58.8773 36.8534 58.865 36.9598 58.8691C37.0661 58.8732 37.1888 58.6938 37.2951 58.702C37.4014 58.7101 37.4954 58.918 37.6018 58.9221C37.7081 58.9262 37.8471 59.1748 37.9535 59.1626C38.0639 59.1503 38.0802 58.7713 38.1784 58.7305C38.2929 58.6816 38.5587 58.8609 38.6568 58.7794C38.7549 58.6979 38.8654 58.6082 38.9512 58.5145C39.0371 58.4208 39.1393 58.3474 39.2293 58.2577C39.3193 58.168 39.3602 58.058 39.4542 57.9765C39.5483 57.895 39.446 57.4955 39.5564 57.4385C39.6668 57.3814 39.8631 57.361 39.994 57.3406C40.1167 57.3203 40.2721 57.4425 40.4029 57.4344C40.5338 57.4262 40.6687 57.6749 40.7955 57.6667C40.9222 57.6586 41.0163 57.308 41.139 57.2877C41.2698 57.2632 41.3475 57.2632 41.4579 57.2021C41.5683 57.1409 41.7769 57.2877 41.8873 57.2387C41.9977 57.1898 42.0631 57.0268 42.1776 56.982C42.2921 56.9371 42.4394 56.982 42.5539 56.9371C42.6684 56.8923 42.7542 56.7822 42.8605 56.7293C42.9669 56.6763 43.0691 56.6151 43.1754 56.5499C43.2695 56.4969 43.3758 56.4603 43.4494 56.3706C43.5148 56.2891 43.568 56.1872 43.6211 56.0893C43.6743 55.9956 43.9237 55.9915 43.9728 55.8896C44.0219 55.7877 43.7193 55.5146 43.7724 55.4168C43.8256 55.319 43.8747 55.1804 43.9401 55.0989C44.0096 55.0092 44.3163 55.16 44.4063 55.0989C44.5085 55.0337 44.6475 54.9807 44.7375 54.9033C44.8275 54.8258 44.7743 54.5853 44.8602 54.4998C44.946 54.4142 45.126 54.4223 45.2078 54.3326C45.2895 54.243 45.3304 54.1166 45.4163 54.0351C45.5022 53.9536 45.6494 53.9617 45.7475 53.8925C45.8375 53.8272 45.8948 53.8639 46.0215 53.8476C46.1319 53.8313 46.226 53.5256 46.3487 53.5297C46.4632 53.5297 46.594 53.4645 46.7126 53.4726C46.8312 53.4808 46.9375 53.7131 47.052 53.7172C47.1788 53.7172 47.3015 53.705 47.4119 53.6846C47.5386 53.6642 47.7717 53.7702 47.8617 53.7009C47.9475 53.6357 47.8085 53.3381 47.8699 53.2444C47.9271 53.1547 47.8699 53.0284 47.9148 52.9265C47.9598 52.8246 48.3319 52.8613 48.3687 52.7594C48.4055 52.6575 48.0907 52.4088 48.1356 52.311C48.1806 52.2132 48.4546 52.2091 48.5078 52.1194C48.565 52.0216 48.7041 52.0298 48.7858 51.9605C48.8799 51.879 48.8145 51.5692 48.929 51.5081C49.0435 51.4469 49.1989 51.4795 49.3174 51.4265C49.436 51.3735 49.5628 51.3695 49.6773 51.3206C49.7918 51.2717 49.8572 51.1372 49.9635 51.076C50.0699 51.0149 50.3438 51.1575 50.4338 51.076C50.5238 50.9945 50.491 50.7785 50.5606 50.6766C50.6301 50.5747 50.8714 50.5665 50.9327 50.4565C50.994 50.3464 51.0145 50.2201 51.0717 50.11C51.129 50 51.0594 49.8247 51.1249 49.7228C51.1903 49.6209 51.1412 49.4049 51.223 49.3152C51.3048 49.2256 51.4725 49.1807 51.5829 49.1114C51.6933 49.0421 51.816 48.9932 51.9305 48.9362C52.045 48.8791 52.1227 48.7609 52.2372 48.7038C52.3517 48.6468 52.4621 48.6183 52.5643 48.553C52.6665 48.4878 52.9078 48.5693 52.9896 48.4756C53.0714 48.3819 52.9896 48.1373 53.0755 48.0476C53.1613 47.958 53.2063 47.8194 53.2963 47.7379C53.3862 47.6563 53.5457 47.6482 53.6357 47.5626C53.7256 47.477 54.061 47.64 54.1468 47.5504C54.2327 47.4607 54.1959 47.2488 54.2695 47.155C54.3349 47.0694 54.384 46.9471 54.4167 46.8371C54.4453 46.7352 54.6089 46.6333 54.6253 46.5192C54.6375 46.4132 54.5517 46.2828 54.5558 46.1727C54.5598 46.0627 54.6662 45.9649 54.6784 45.8548C54.6907 45.7448 54.4085 45.5858 54.4372 45.4798C54.4658 45.3698 54.4494 45.1864 54.5108 45.0967C54.5721 45.007 54.8747 45.1252 54.9606 45.0559C55.0424 44.9907 54.9647 44.6891 55.0587 44.632C55.1528 44.575 55.394 44.7788 55.4922 44.7258C55.5903 44.6728 55.7048 44.6443 55.7948 44.5872C55.8848 44.5301 55.8071 44.2408 55.8848 44.1715C55.9665 44.0981 56.2446 44.1919 56.3019 44.0981C56.3632 43.9962 56.216 43.772 56.2732 43.662C56.3305 43.5519 56.3837 43.45 56.4327 43.34C56.4818 43.2299 56.4409 43.0791 56.49 42.965C56.539 42.8509 56.9479 42.9039 57.0011 42.7938C57.0543 42.6838 57.0461 42.5533 57.0992 42.4433C57.1483 42.3496 56.8703 42.158 56.8825 42.0479C56.8948 41.946 56.9112 41.8645 56.9071 41.7545C56.903 41.6444 57.0298 41.5344 57.0216 41.4243C57.0134 41.3143 56.9561 41.2042 56.952 41.0983C56.9479 40.9923 56.9112 40.8578 56.9193 40.7559C56.9316 40.6458 57.2383 40.6214 57.2792 40.5276C57.3201 40.4339 57.1729 40.2423 57.2301 40.1445C57.2833 40.0507 57.4059 39.9978 57.4673 39.904C57.5286 39.8103 57.729 39.8143 57.7863 39.7247C57.8435 39.635 57.8231 39.4842 57.8803 39.3905C57.9375 39.2967 58.1216 39.2641 58.1706 39.1663C58.2238 39.0685 58.1461 38.938 58.1829 38.8402C58.3138 38.7668 58.3383 38.5345 58.4323 38.5304C58.5591 38.5264 58.7636 38.5508 58.8658 38.6242C58.9517 38.6853 58.968 38.8769 59.0662 38.9584C59.1521 39.0277 59.287 39.0155 59.3974 39.0807C59.4915 39.1337 59.5078 39.4068 59.6346 39.4394C59.7409 39.4679 59.8799 39.5209 60.0108 39.529C60.1253 39.5331 60.248 39.313 60.3788 39.3008C60.4974 39.2886 60.6364 39.4394 60.7632 39.4231C60.8818 39.4068 60.9677 39.1255 61.0903 39.1092C61.213 39.0929 61.3684 39.4638 61.4911 39.4557C61.6138 39.4475 61.7201 39.0685 61.8469 39.0725C61.9655 39.0725 62.0759 39.4068 62.1985 39.4108C62.3212 39.4149 62.4357 39.4842 62.5584 39.4883C62.6811 39.4924 62.8119 39.0929 62.9346 39.097C63.0573 39.1011 63.1718 39.1785 63.2944 39.1785C63.4171 39.1785 63.5357 39.3538 63.6584 39.3538C63.7811 39.3538 63.8751 39.0399 64.0019 39.0277C64.1286 39.0155 64.2881 39.4434 64.4108 39.4271C64.5335 39.4108 64.5989 39.0032 64.7175 38.9869C64.8361 38.9706 65.0037 39.366 65.1264 39.3538C65.2491 39.3416 65.3391 38.934 65.4617 38.9299C65.5844 38.9258 65.6948 38.9788 65.8175 38.9625C65.9402 38.9462 66.071 39.0196 66.1896 38.9992C66.3082 38.9788 66.4595 39.1255 66.5781 39.1011C66.6967 39.0766 66.7948 38.9543 66.9134 38.934C67.032 38.9136 67.1588 39.0725 67.2814 39.0644C67.4041 39.0562 67.5063 38.9054 67.629 38.9095C67.7517 38.9136 67.858 39.0481 67.9807 39.0562C68.1034 39.0644 68.2424 38.7098 68.3651 38.7139C68.4878 38.7179 68.5982 38.991 68.7209 38.991C68.8435 38.991 68.9662 38.9136 69.0889 38.9014C69.2116 38.8891 69.3342 38.8932 69.4528 38.8769C69.5714 38.8606 69.7227 39.0236 69.8413 39.0033C69.9599 38.9829 70.0417 38.7302 70.1603 38.7098C70.2789 38.6894 70.4302 38.881 70.5528 38.8606C70.6755 38.8402 70.7409 38.4489 70.8595 38.4326C70.9781 38.4163 71.1212 38.5345 71.2439 38.5345C71.3666 38.5345 71.4852 38.6853 71.6079 38.6853C71.7305 38.6853 71.8532 38.6935 71.9718 38.6935C72.0904 38.6935 72.2171 38.5794 72.3357 38.5753C72.4543 38.5712 72.5688 38.5019 72.6874 38.4856C72.806 38.4693 72.9451 38.6201 73.0677 38.612C73.1904 38.6038 73.3131 38.7139 73.4357 38.7057C73.5584 38.6976 73.6525 38.2981 73.7752 38.29C73.8978 38.2818 74.0369 38.5304 74.1595 38.5182C74.2822 38.506 74.4253 38.5875 74.5439 38.5671C74.6625 38.5468 74.7648 38.3552 74.8793 38.3103C74.9938 38.2655 75.0674 38.1269 75.1778 38.0699C75.2882 38.0128 75.4476 38.0536 75.5581 37.9965C75.6685 37.9394 75.832 38.025 75.9465 37.9802C76.061 37.9354 76.0897 37.6419 76.2083 37.6174C76.3146 37.5971 76.425 37.752 76.5395 37.7683C76.6458 37.7805 76.703 37.9313 76.8135 37.9598C76.9239 37.9884 77.0138 38.0169 77.1201 38.0495C77.2265 38.0821 77.3982 37.9028 77.5004 37.9272C77.6027 37.9517 77.7213 37.9476 77.8276 37.9557C77.938 37.9639 77.9993 37.7886 78.1016 37.7642C78.2038 37.7397 78.3347 37.8457 78.4287 37.7642C78.5105 37.6908 78.5064 37.5441 78.58 37.4463C78.6495 37.3566 78.8744 37.3729 78.944 37.2751C79.0135 37.1773 78.9521 36.9816 79.0257 36.8919C79.1034 36.7941 79.1443 36.6311 79.2261 36.5577C79.3202 36.4721 79.5164 36.4395 79.6228 36.411C79.725 36.3825 79.8599 36.6474 79.9704 36.6515C80.0767 36.6515 80.183 36.521 80.2893 36.5373C80.3956 36.5536 80.5142 36.5047 80.6205 36.5292C80.7269 36.5536 80.8209 36.6311 80.9272 36.6474C81.0335 36.6637 81.144 36.6474 81.2503 36.6474C81.3607 36.6474 81.5284 36.843 81.6306 36.8104C81.7451 36.7737 81.7901 36.464 81.9128 36.4436C82.0354 36.4232 82.1499 36.305 82.2726 36.2887C82.3953 36.2724 82.5466 36.4844 82.6692 36.4681C82.7919 36.4517 82.9514 36.6107 83.07 36.5863C83.1886 36.5618 83.3112 36.4477 83.4257 36.4069C83.5402 36.3662 83.7243 36.3539 83.8306 36.2806C83.9369 36.2072 83.8469 35.873 83.9451 35.7915C84.0432 35.7099 84.1864 35.6855 84.2804 35.604C84.3745 35.5224 84.538 35.5306 84.6403 35.4613C84.7425 35.392 84.7507 35.0945 84.8652 35.0496C84.9797 35.0048 85.2373 35.2616 85.3436 35.2005C85.4499 35.1393 85.3763 34.801 85.4785 34.7276C85.5808 34.6543 85.8793 34.8744 85.9815 34.8051C86.0837 34.7358 86.1533 34.638 86.2555 34.5768C86.3577 34.5157 86.4681 34.5075 86.5786 34.4586C86.7012 34.4057 86.7217 34.1285 86.8198 34.1122C86.9425 34.0959 87.0652 34.0959 87.1715 34.1C87.2778 34.104 87.3473 33.9818 87.47 33.9614C87.5681 33.9451 87.6458 34.2956 87.7685 34.2385L87.744 34.2752Z" fill="#FCFCFC"/>
</svg>
