<svg width="128" height="128" viewBox="0 0 128 128" fill="none" xmlns="http://www.w3.org/2000/svg">
<path d="M87.744 34.2743C87.8176 34.4006 88.0261 34.2906 88.0507 34.3598C88.1079 34.5107 87.9198 34.5106 87.7971 34.5718C87.7235 34.6044 87.5845 34.6166 87.4782 34.6981C87.4046 34.7511 87.2942 34.8326 87.2124 34.9264C87.151 34.9998 87.0856 35.1098 87.0202 35.2117C86.9548 35.3136 87.0774 35.5296 87.0038 35.6315C86.9343 35.7253 86.8116 35.7864 86.7339 35.8842C86.6644 35.978 86.5949 36.0758 86.5213 36.1777C86.4477 36.2796 86.4763 36.4345 86.4068 36.5364C86.3373 36.6383 86.2923 36.7361 86.231 36.8421C86.1778 36.9317 85.8711 36.944 85.8548 37.0622C85.8425 37.164 85.9488 37.2945 85.9529 37.4127C85.9529 37.5187 85.9243 37.6369 85.9284 37.7469C85.9324 37.857 85.9693 37.967 85.9652 38.073C85.9611 38.1789 85.8548 38.2727 85.8343 38.3787C85.8139 38.4887 85.8793 38.5906 85.8261 38.6884C85.7648 38.7944 85.8179 38.9941 85.728 39.0838C85.6462 39.1735 85.5971 39.3243 85.5031 39.4058C85.409 39.4873 85.176 39.4058 85.0819 39.4914C84.9879 39.577 84.8529 39.6259 84.7711 39.7156C84.6893 39.8052 84.7057 39.9805 84.6444 40.0865C84.583 40.1924 84.399 40.278 84.3745 40.4044C84.3499 40.5226 84.6771 40.6938 84.6648 40.8201C84.6525 40.9465 84.3581 41.0484 84.3499 41.1747C84.3417 41.3011 84.2109 41.3948 84.1864 41.5171C84.1618 41.6394 84.3049 41.8024 84.2518 41.9125C84.1986 42.0225 84.1291 42.1203 84.0596 42.2181C83.9901 42.316 83.941 42.4301 83.8633 42.5279C83.7856 42.6257 83.6302 42.6543 83.5525 42.748C83.4748 42.8418 83.4094 42.9477 83.3399 43.0496C83.2704 43.1515 83.2908 43.3023 83.2377 43.4124C83.1845 43.5224 82.9105 43.5061 82.8492 43.6121C82.7878 43.7181 82.9023 43.9178 82.841 44.0197C82.7796 44.1216 82.7265 44.2316 82.6652 44.3335C82.6038 44.4354 82.6325 44.5862 82.5752 44.6922C82.518 44.7982 82.2889 44.8186 82.2358 44.9286C82.1826 45.0387 82.2889 45.2261 82.2276 45.3321C82.1663 45.4381 82.0681 45.5196 81.9986 45.6215C81.9291 45.7234 81.7982 45.7805 81.7328 45.8824C81.6674 45.9843 81.8187 46.2166 81.7614 46.3185C81.7042 46.4204 81.3484 46.3796 81.3034 46.4938C81.2584 46.6079 81.2053 46.7301 81.1726 46.8484C81.1399 46.9665 81.0908 47.0848 81.0622 47.2029C81.0336 47.3212 81.1971 47.4842 81.1685 47.6024C81.1399 47.7206 80.964 47.8021 80.9354 47.9162C80.9068 48.0304 80.7718 48.1037 80.7309 48.2138C80.6901 48.3238 80.8618 48.5154 80.8291 48.6295C80.7964 48.7436 80.8577 48.8863 80.8291 49.0004C80.8005 49.1145 80.6083 49.1961 80.5797 49.3102C80.551 49.4243 80.5551 49.5507 80.5265 49.6648C80.4979 49.7789 80.4774 49.8971 80.4447 50.0112C80.4161 50.1131 80.2607 50.1417 80.2075 50.2354C80.1544 50.3292 80.1257 50.4147 80.0603 50.5044C79.9949 50.5941 80.0726 50.7856 80.0071 50.8672C79.9417 50.9487 79.7046 50.912 79.6391 50.9976C79.5696 51.0873 79.6432 51.2788 79.5941 51.3685C79.541 51.4704 79.4796 51.5682 79.4674 51.6701C79.451 51.7842 79.7005 51.8413 79.7291 51.9473C79.7577 52.0533 79.496 52.2611 79.5492 52.363C79.6023 52.4649 79.8477 52.4364 79.9131 52.5261C79.9785 52.6157 79.815 52.8766 79.8845 52.9622C79.954 53.0559 80.2034 53.0111 80.2607 53.0967C80.3261 53.1986 80.4774 53.2882 80.4979 53.3861C80.5224 53.5002 80.3098 53.6591 80.3261 53.7692C80.3425 53.8874 80.4692 53.9852 80.4856 54.0953C80.506 54.2135 80.6369 54.2868 80.6737 54.3887C80.7105 54.5029 80.6369 54.6455 80.7146 54.727C80.7841 54.8045 80.9436 54.6944 81.0663 54.7393C81.1889 54.7841 81.1889 54.7352 81.3116 54.7066C81.422 54.6822 81.5692 54.8248 81.6878 54.7678C81.7941 54.7189 81.9741 54.8085 82.0845 54.7515C82.1908 54.6985 82.2072 54.4213 82.3257 54.3806C82.4443 54.3398 82.5834 54.3276 82.7061 54.3072C82.8124 54.2909 82.8941 54.5395 83.0209 54.5844C83.1231 54.6211 83.2826 54.5395 83.3971 54.6007C83.4994 54.6537 83.5239 54.8697 83.6302 54.9268C83.7365 54.9838 83.9901 54.7352 84.0964 54.78C84.2109 54.8289 84.2518 55.102 84.3622 55.1183C84.4849 55.1387 84.6116 55.0246 84.7221 54.9838C84.8325 54.9431 84.9428 54.886 85.0614 54.8371C85.1718 54.7922 85.2332 54.6211 85.3477 54.5681C85.4622 54.5151 85.5603 54.4539 85.6748 54.401C85.7893 54.348 85.8834 54.2705 85.9979 54.2135C86.1124 54.1564 86.2923 54.242 86.4027 54.189C86.5131 54.136 86.6072 54.0464 86.7217 53.9934C86.8362 53.9404 86.9425 53.8874 87.057 53.8385C87.1715 53.7896 87.3064 53.7977 87.4168 53.7447C87.5273 53.6917 87.6172 53.598 87.7276 53.545C87.838 53.492 87.9239 53.3983 88.0302 53.3371C88.1202 53.2842 88.2674 53.3168 88.341 53.2312C88.4105 53.1537 88.4351 53.0396 88.4964 52.9459C88.5537 52.8562 88.6068 52.7625 88.6641 52.6687C88.7213 52.575 88.8072 52.5016 88.8685 52.4119C88.9299 52.3223 89.1057 52.3304 89.1752 52.2489C89.2447 52.1674 89.2897 52.1103 89.3797 52.0532C89.4819 51.988 89.4042 51.6946 89.4942 51.609C89.5841 51.5234 89.576 51.3767 89.6578 51.2829C89.7395 51.1892 89.854 51.124 89.9317 51.0302C90.0094 50.9365 90.3038 51.0302 90.3897 50.9446C90.4756 50.859 90.5328 50.7571 90.631 50.6878C90.7291 50.6185 90.8559 50.5982 90.954 50.533C91.0522 50.4677 91.0276 50.2191 91.1258 50.1498C91.2239 50.0805 91.2444 49.9053 91.3425 49.836C91.4407 49.7667 91.5551 49.7259 91.6533 49.6526C91.7514 49.5792 92.0336 49.7708 92.1317 49.6974C92.2299 49.624 92.3894 49.6485 92.4875 49.5751C92.5856 49.5018 92.6592 49.4039 92.7533 49.3306C92.8473 49.2572 92.6838 48.8455 92.7819 48.7722C92.8801 48.6988 93.1827 48.9026 93.2767 48.8292C93.3708 48.7559 93.3994 48.5928 93.4975 48.5154C93.5957 48.4379 93.6284 48.2749 93.7306 48.2056C93.8329 48.1363 94.0578 48.2749 94.1641 48.2138C94.2704 48.1526 94.2908 47.957 94.3931 47.8959C94.4953 47.8347 94.6425 47.8388 94.7448 47.7736C94.847 47.7084 94.9165 47.5983 95.0106 47.5209C95.1046 47.4434 95.1496 47.3252 95.2314 47.2315C95.3131 47.1377 95.3663 47.0318 95.4399 46.9339C95.5135 46.8361 95.6853 46.8117 95.7589 46.7138C95.8325 46.616 95.8938 46.51 95.9715 46.4204C96.0492 46.3307 96.0492 46.1432 96.1392 46.0658C96.2251 45.9924 96.3559 45.8335 96.4827 45.8049C96.589 45.7805 96.7526 46.0454 96.8793 46.0413C96.9938 46.0372 97.1124 45.809 97.231 45.809C97.3496 45.809 97.4764 46.0902 97.595 46.0862C97.7217 46.0821 97.8076 45.8253 97.9139 45.8008C98.0366 45.7723 98.1307 45.7845 98.2165 45.7112C98.3024 45.6378 98.2288 45.5155 98.2779 45.4014C98.3187 45.2995 98.6868 45.2914 98.7113 45.1732C98.7358 45.0631 98.5968 44.9123 98.6173 44.7982C98.6377 44.6841 98.7154 44.5781 98.7399 44.468C98.7645 44.3498 98.744 44.2276 98.789 44.1257C98.8381 44.0115 98.9853 44.0197 99.0671 43.9463C99.157 43.8648 99.1243 43.6488 99.2184 43.5713C99.3124 43.4939 99.431 43.4531 99.5292 43.3798C99.6273 43.3064 99.8399 43.392 99.9381 43.3186C100.036 43.2453 100.085 43.1108 100.179 43.0333C100.273 42.9559 100.237 42.7317 100.327 42.6502C100.417 42.5687 100.437 42.3812 100.535 42.3078C100.633 42.2345 100.78 42.2181 100.883 42.1529C100.985 42.0877 101.165 42.1407 101.267 42.0755C101.369 42.0103 101.349 41.778 101.447 41.7087C101.545 41.6394 101.766 41.725 101.852 41.6434C101.938 41.5619 102.15 41.6394 102.249 41.566C102.347 41.4926 102.216 41.1054 102.318 41.0361C102.42 40.9668 102.58 40.9913 102.682 40.922C102.784 40.8527 102.997 40.9424 103.095 40.865C103.193 40.7875 103.152 40.5593 103.242 40.4777C103.332 40.3962 103.475 40.3595 103.541 40.2495C103.606 40.1394 103.451 39.9316 103.504 39.8175C103.557 39.7033 103.995 39.7726 104.048 39.6585C104.101 39.5444 104.003 39.365 104.068 39.2591C104.134 39.1531 104.215 39.0675 104.305 38.9819C104.395 38.8963 104.408 38.7333 104.506 38.6558C104.604 38.5784 104.633 38.4072 104.731 38.3379C104.829 38.2686 105.062 38.3868 105.16 38.3175C105.258 38.2482 105.43 38.2605 105.524 38.1871C105.618 38.1137 105.643 37.9425 105.728 37.8529C105.814 37.7632 105.978 37.751 106.056 37.6572C106.133 37.5635 106.064 37.3434 106.141 37.2496C106.219 37.1559 106.518 37.2496 106.595 37.1559C106.673 37.0622 106.559 36.8094 106.636 36.7198C106.714 36.6301 106.955 36.6912 107.041 36.6057C107.127 36.5201 107.041 36.2347 107.156 36.1695C107.27 36.1043 107.438 36.1614 107.552 36.1084C107.667 36.0554 107.757 35.9454 107.871 35.8924C107.986 35.8394 108.174 35.9087 108.28 35.8435C108.386 35.7783 108.431 35.603 108.517 35.5133C108.603 35.4237 108.709 35.3584 108.787 35.2647C108.865 35.1709 108.906 35.0487 108.979 34.9508C109.053 34.853 109.127 34.7593 109.2 34.6615C109.274 34.5636 109.311 34.4414 109.388 34.3476C109.466 34.2539 109.63 34.2376 109.711 34.1479C109.785 34.0705 109.773 33.9237 109.818 33.8218C109.863 33.7281 109.785 33.5936 109.814 33.4876C109.842 33.3816 109.785 33.2675 109.814 33.1575C109.842 33.0474 110.047 32.9863 110.075 32.8803C110.104 32.7743 109.961 32.5828 110.002 32.489C110.047 32.3871 110.206 32.2934 110.276 32.2159C110.357 32.1263 110.693 32.3178 110.791 32.2404C110.889 32.1629 110.75 31.7717 110.852 31.7024C110.954 31.6331 111.085 31.6127 111.188 31.5434C111.29 31.4741 111.367 31.3926 111.466 31.3192C111.564 31.2459 111.633 31.1766 111.715 31.0869C111.797 30.9972 112.034 31.0584 112.136 30.985C112.239 30.9116 112.337 30.8546 112.447 30.7894C112.557 30.7242 112.566 30.5 112.672 30.4388C112.778 30.3777 112.856 30.2921 112.954 30.2228C113.052 30.1535 113.281 30.231 113.363 30.1372C113.445 30.0435 113.527 29.962 113.608 29.8723C113.69 29.7826 113.662 29.5911 113.743 29.5055C113.825 29.4199 113.948 29.3669 114.03 29.2813C114.111 29.1957 114.099 29.0204 114.181 28.9308C114.263 28.8411 114.492 28.8859 114.569 28.7963C114.639 28.7147 114.884 28.6821 114.925 28.5762C114.962 28.4783 114.79 28.2949 114.811 28.1849C114.831 28.0748 114.872 27.9729 114.888 27.8629C114.905 27.7528 114.688 27.598 114.708 27.492C114.729 27.386 114.815 27.2556 114.852 27.1578C114.892 27.0518 115.019 26.9458 115.089 26.8643C115.17 26.7706 115.469 26.9295 115.571 26.8561C115.673 26.7828 115.735 26.6931 115.845 26.6279C115.956 26.5627 116.017 26.4241 116.123 26.3589C116.23 26.2937 116.307 26.1714 116.405 26.098C116.504 26.0247 116.512 25.8616 116.594 25.7679C116.675 25.6741 116.986 25.719 117.043 25.6048C117.101 25.4907 116.921 25.2747 116.966 25.1565C117.011 25.0383 117.129 24.9486 117.174 24.8345C117.219 24.7204 117.362 24.6552 117.42 24.5451C117.477 24.4351 117.522 24.3535 117.599 24.2557C117.669 24.1742 117.616 23.9663 117.71 23.9052C117.8 23.8522 117.996 24.0112 118.098 23.9663C118.201 23.9215 118.172 23.5425 118.274 23.5058C118.376 23.4691 118.556 23.6362 118.659 23.5954C118.761 23.5547 118.892 23.5506 118.982 23.4935C119.08 23.4324 119.186 23.355 119.256 23.2734C119.333 23.1756 119.452 23.0737 119.505 22.9555C119.558 22.8373 119.538 22.6906 119.579 22.5683C119.62 22.446 119.509 22.2789 119.55 22.1607C119.591 22.0425 119.685 21.9325 119.738 21.8224C119.791 21.7124 119.996 21.7002 120.073 21.6023C120.143 21.5127 120.082 21.2477 120.196 21.1907C120.298 21.1377 120.429 21.0969 120.548 21.0562C120.666 21.0154 120.793 21.0195 120.904 20.9787C121.022 20.9339 121.235 21.0765 121.333 21.0154C121.443 20.9502 121.55 20.7953 121.603 20.6934C121.656 20.5915 121.668 20.4366 121.676 20.3103C121.681 20.2002 121.591 20.0779 121.578 19.9557C121.566 19.8334 121.746 19.6948 121.73 19.5766C121.713 19.4584 121.349 19.3728 121.345 19.2587C121.345 19.1364 121.341 18.9571 121.374 18.8552C121.407 18.7533 121.525 18.6188 121.603 18.521C121.672 18.4313 121.811 18.3783 121.893 18.2927C121.975 18.2071 122.049 18.1174 122.126 18.0319C122.208 17.9422 122.458 17.9789 122.519 17.8892C122.584 17.7873 122.576 17.6161 122.588 17.5061C122.601 17.396 122.756 17.2941 122.772 17.1678C122.789 17.0536 122.458 16.8947 122.47 16.7724C122.482 16.6501 122.498 16.5442 122.507 16.4219C122.515 16.2996 122.883 16.1896 122.883 16.0714C122.883 15.9532 122.572 15.8431 122.556 15.7249C122.539 15.6067 122.466 15.5578 122.388 15.4477C122.318 15.3499 122.368 15.1584 122.273 15.0646C122.188 14.979 122.012 14.9709 121.922 14.8853C121.832 14.7997 121.922 14.5388 121.84 14.4451C121.754 14.3432 121.431 14.4002 121.386 14.2902C121.341 14.1883 121.55 13.9193 121.48 13.8418C121.411 13.7644 121.243 13.7481 121.157 13.6788C121.071 13.6095 120.949 13.5973 120.863 13.5321C120.777 13.4669 120.617 13.4954 120.536 13.4261C120.454 13.3568 120.417 13.2345 120.343 13.153C120.27 13.0715 120.372 12.8962 120.327 12.7821C120.286 12.6761 120.168 12.6028 120.135 12.4846C120.102 12.3664 119.8 12.3501 119.763 12.24C119.726 12.13 119.898 11.9343 119.836 11.8365C119.775 11.7387 119.799 11.4819 119.697 11.4126C119.603 11.3515 119.411 11.3759 119.301 11.3433C119.194 11.3107 119.018 11.5757 118.904 11.5553C118.789 11.5349 118.724 11.2577 118.61 11.2414C118.495 11.2251 118.381 11.2537 118.27 11.2292C118.16 11.2048 118.033 11.2292 117.927 11.1844C117.82 11.1395 117.718 11.0784 117.612 11.0254C117.505 10.9724 117.403 10.9154 117.301 10.8624C117.199 10.8094 117.141 10.6586 117.035 10.6097C116.929 10.5608 116.749 10.6871 116.639 10.6464C116.528 10.6056 116.495 10.2999 116.381 10.2754C116.266 10.251 116.168 10.251 116.05 10.198C115.931 10.145 115.78 10.2021 115.673 10.145C115.567 10.088 115.449 10.0431 115.338 9.98607C115.228 9.929 115.134 9.81488 115.019 9.77412C114.905 9.73336 114.741 9.97791 114.623 9.96976C114.516 9.96161 114.479 9.9453 114.373 9.98199C114.275 10.0187 114.201 10.0391 114.103 10.0961C114.013 10.1491 113.972 10.2673 113.882 10.3325C113.792 10.3977 113.478 10.1206 113.388 10.1776C113.294 10.2388 113.261 10.3651 113.163 10.4059C113.06 10.4548 112.991 10.5526 112.889 10.5648C112.774 10.5771 112.684 10.7075 112.574 10.732C112.463 10.7564 112.279 10.4833 112.173 10.5119C112.067 10.5404 112.014 10.7849 111.907 10.8175C111.801 10.8501 111.666 10.789 111.556 10.8175C111.445 10.8461 111.31 10.7564 111.2 10.7849C111.089 10.8135 111.012 10.9439 110.897 10.9602C110.783 10.9765 110.664 10.8909 110.55 10.8991C110.435 10.9072 110.349 11.3148 110.235 11.327C110.12 11.3393 109.998 11.1966 109.887 11.2211C109.777 11.2455 109.683 11.2822 109.576 11.3311C109.47 11.38 109.351 11.4004 109.237 11.4575C109.131 11.5104 108.955 11.4412 108.849 11.5023C108.742 11.5634 108.763 11.8487 108.652 11.9058C108.542 11.9629 108.337 11.8243 108.223 11.8773C108.108 11.9303 108.092 12.1952 107.978 12.24C107.879 12.2808 107.704 12.1259 107.589 12.13C107.487 12.1341 107.368 12.2278 107.254 12.2196C107.147 12.2115 107.037 12.1952 106.927 12.1789C106.816 12.1626 106.726 11.9669 106.62 11.9588C106.514 11.9506 106.395 12.0362 106.289 12.0444C106.182 12.0525 105.998 11.8854 105.9 11.9262C105.79 11.971 105.72 12.1014 105.602 12.13C105.483 12.1585 105.409 12.3582 105.291 12.3827C105.172 12.4071 105.009 12.2156 104.89 12.2441C104.772 12.2726 104.673 12.399 104.555 12.4275C104.436 12.456 104.269 12.3542 104.154 12.399C104.04 12.4438 103.991 12.6517 103.872 12.6843C103.753 12.7169 103.618 12.6476 103.5 12.6761C103.381 12.7047 103.324 12.9737 103.205 13.0022C103.087 13.0307 102.964 13.0104 102.846 13.043C102.727 13.0756 102.625 13.1286 102.51 13.1653C102.396 13.2019 102.167 13.0593 102.06 13.1408C101.962 13.2142 101.962 13.4261 101.868 13.5158C101.774 13.6055 101.512 13.5117 101.418 13.5973C101.324 13.6829 101.361 13.903 101.259 13.9764C101.157 14.0497 101.026 14.0334 100.907 14.0742C100.789 14.1149 100.686 14.0823 100.56 14.0946C100.433 14.1068 100.331 14.1598 100.204 14.1638C100.077 14.1679 99.9545 14.0823 99.8277 14.0823C99.7009 14.0823 99.5946 14.3717 99.4719 14.3839C99.3493 14.3962 99.2634 14.4899 99.1448 14.5266C99.0425 14.5592 99.0262 14.6244 98.9321 14.6978C98.8504 14.763 98.7359 14.7671 98.6541 14.8527C98.5805 14.9342 98.4169 14.9342 98.3433 15.0198C98.2697 15.1054 98.2533 15.244 98.1797 15.3214C98.102 15.4029 97.8812 15.3214 97.7953 15.3825C97.7013 15.4518 97.7095 15.6801 97.6031 15.7127C97.4846 15.7494 97.3414 15.8961 97.2106 15.9002C97.0797 15.9042 96.9693 15.5863 96.8385 15.5741C96.7076 15.5619 96.5563 15.8594 96.4295 15.8472C96.3028 15.835 96.1964 15.6026 96.0697 15.6067C95.9429 15.6108 95.7875 15.5374 95.6689 15.5741C95.5503 15.6108 95.4399 15.517 95.3132 15.5293C95.1864 15.5415 95.0923 15.9042 94.9656 15.9083C94.8388 15.9124 94.7161 15.5986 94.5934 15.5986C94.4708 15.5986 94.3726 15.998 94.25 16.0102C94.1273 16.0224 93.9433 15.6556 93.8247 15.6882C93.7061 15.7208 93.5998 15.7249 93.4812 15.7453C93.3626 15.7657 93.244 15.7453 93.1254 15.7575C93.0068 15.7697 92.9169 16.0551 92.7983 16.0714C92.6797 16.0877 92.5161 15.8309 92.3975 15.8513C92.2789 15.8716 92.1767 16.0388 92.0581 16.0673C91.9518 16.0917 91.9232 16.2874 91.8251 16.3648C91.7392 16.4341 91.4734 16.3363 91.3916 16.426C91.318 16.5116 91.4979 16.8132 91.4243 16.9069C91.3507 17.0007 91.0767 16.9232 90.999 17.0088C90.9172 17.0985 91.0113 17.3756 90.9213 17.4409C90.8232 17.5183 90.6146 17.3919 90.5042 17.4164C90.3856 17.4409 90.263 17.4246 90.1444 17.4449C90.0258 17.4653 89.9276 17.6569 89.805 17.6691C89.6823 17.6813 89.5596 17.6528 89.4369 17.6691C89.3142 17.6854 89.1793 17.5754 89.0566 17.5917C88.934 17.608 88.8481 17.8036 88.7254 17.8281C88.6027 17.8525 88.4596 17.6895 88.3369 17.6895C88.2142 17.6895 88.0956 17.7017 87.973 17.6936C87.8503 17.6854 87.7154 17.9055 87.5927 17.9014C87.47 17.8974 87.3514 17.7058 87.2328 17.7058C87.1142 17.7058 86.9875 17.7425 86.8648 17.7628C86.7421 17.7832 86.6154 17.7832 86.5009 17.8199C86.3864 17.8566 86.2473 17.8362 86.1287 17.877C86.0102 17.9177 85.9161 18.0115 85.8016 18.0522C85.6871 18.093 85.5726 18.1338 85.4581 18.1664C85.3436 18.199 85.2659 18.4598 85.1432 18.4761C85.0206 18.4924 84.8693 18.1664 84.7466 18.1623C84.6239 18.1582 84.5053 18.2112 84.3826 18.199C84.26 18.1867 84.1414 18.1134 84.0187 18.0971C83.896 18.0808 83.7611 17.9992 83.6425 17.9952C83.5239 17.9911 83.3562 17.9952 83.2377 18.0156C83.1191 18.0359 83.0618 18.4843 82.9432 18.5047C82.8246 18.525 82.6733 18.3253 82.5547 18.3457C82.4361 18.3661 82.293 18.2357 82.1744 18.252C82.0559 18.2683 81.9495 18.3661 81.8269 18.3824C81.7042 18.3987 81.5815 18.3702 81.4629 18.3824C81.3566 18.3946 81.2544 18.4924 81.1562 18.5332C81.0581 18.5739 81.0744 18.8226 80.9804 18.8756C80.8863 18.9286 80.6573 18.7492 80.5674 18.8103C80.4774 18.8715 80.3997 18.9408 80.3057 18.9938C80.2116 19.0467 80.2034 19.3035 80.1053 19.3402C80.0071 19.3769 79.8232 19.0997 79.7168 19.112C79.5942 19.1242 79.4715 19.4014 79.3447 19.3891C79.2179 19.3769 79.0993 19.2913 78.9767 19.2709C78.854 19.2505 78.7804 18.9734 78.6577 18.9489C78.535 18.9245 78.3837 19.0141 78.2651 19.0019C78.1465 18.9897 78.0034 18.9978 77.8807 19.0019C77.7581 19.006 77.6395 19.2383 77.5168 19.2342C77.3941 19.2302 77.2715 19.1609 77.1488 19.1527C77.0261 19.1446 76.9034 19.1976 76.7807 19.1894C76.6581 19.1813 76.5517 18.9245 76.4291 18.9204C76.3064 18.9163 76.1755 18.8633 76.0529 18.8674C75.9302 18.8715 75.7666 18.9041 75.6398 18.9449C75.5131 18.9856 75.3536 18.9612 75.235 19.0141C75.1164 19.0671 75.0837 19.2995 74.9692 19.3524C74.8547 19.4054 74.7607 19.5318 74.6421 19.5685C74.5235 19.6051 74.3885 19.813 74.2618 19.8171C74.135 19.8212 74.0205 19.5114 73.8937 19.4788C73.767 19.4462 73.6688 19.381 73.5503 19.3361C73.4317 19.2913 73.2027 19.5236 73.0882 19.4788C72.9737 19.434 72.9778 18.9856 72.8592 18.953C72.7406 18.9204 72.5525 19.1201 72.4298 19.1201C72.3071 19.1201 72.1313 19.2954 72.0086 19.2669C71.8859 19.2383 71.8082 19.0264 71.6897 18.9815C71.5711 18.9367 71.477 18.8307 71.3584 18.79C71.2398 18.7492 71.1458 18.5984 71.0272 18.5658C70.9086 18.5332 70.741 18.8674 70.6183 18.8674C70.4956 18.8674 70.3852 18.843 70.2625 18.843C70.1398 18.843 70.0212 18.6229 69.8986 18.6229C69.7759 18.6229 69.6573 18.5291 69.5387 18.5332C69.4201 18.5373 69.3015 18.6106 69.1789 18.6066C69.0562 18.6025 68.9417 18.574 68.8231 18.5658C68.7045 18.5576 68.5736 18.6229 68.451 18.631C68.3283 18.6392 68.2056 18.6432 68.083 18.6595C67.9603 18.6758 67.8458 18.7166 67.7231 18.7329C67.6004 18.7492 67.4736 18.5943 67.351 18.6025C67.2283 18.6106 67.1261 18.6351 67.0075 18.6229C66.9012 18.6147 66.7294 18.5373 66.619 18.5658C66.5168 18.5903 66.4718 18.8715 66.3655 18.9122C66.2591 18.953 66.071 18.7777 65.9688 18.8185C65.8666 18.8593 65.8543 19.1079 65.7521 19.1486C65.6498 19.1894 65.5067 19.0631 65.4045 19.0834C65.2941 19.1079 65.2 19.3769 65.0937 19.3647C64.9874 19.3524 64.8524 19.2587 64.7502 19.1976C64.6562 19.1446 64.6521 18.9571 64.5621 18.8796C64.4762 18.8063 64.4476 18.6758 64.3658 18.5943C64.284 18.5128 64.0755 18.5658 63.9896 18.4924C63.8997 18.415 63.8097 18.3539 63.7197 18.2968C63.6175 18.2357 63.5643 17.9829 63.4539 17.9666C63.3353 17.9463 63.1963 17.8729 63.0777 17.8647C62.9591 17.8566 62.8242 18.1134 62.7015 18.1134C62.5788 18.1134 62.4562 18.1908 62.3376 18.1908C62.219 18.1908 62.1086 17.881 61.99 17.8729C61.8714 17.8647 61.7119 18.1786 61.5933 18.1582C61.4747 18.1378 61.3561 18.0604 61.2416 18.0237C61.1271 17.987 60.9758 18.04 60.8613 17.9993C60.7468 17.9585 60.6692 17.8158 60.5547 17.7751C60.4402 17.7343 60.3175 17.7302 60.203 17.6936C60.0885 17.6569 59.9863 17.6039 59.8677 17.5754C59.7491 17.5468 59.6836 17.2493 59.561 17.2248C59.4383 17.2004 59.3197 17.1637 59.2011 17.1392C59.0825 17.1148 58.919 17.29 58.8004 17.2615C58.6818 17.233 58.5918 17.1107 58.4732 17.074C58.3874 17.0455 58.326 16.9314 58.2033 16.8784C58.1093 16.8376 57.9416 16.9273 57.8312 16.8784C57.7331 16.8376 57.6758 16.6583 57.5654 16.6175C57.4632 16.5808 57.2996 16.6868 57.1892 16.6542C57.0788 16.6216 56.9602 16.6338 56.8498 16.6175C56.7394 16.6012 56.6208 16.7113 56.5063 16.7072C56.3918 16.7031 56.2364 16.5238 56.1178 16.5931C56.0197 16.6501 55.8357 16.6501 55.7335 16.7357C55.6435 16.8132 55.6558 17.021 55.5617 17.1066C55.4677 17.1922 55.5208 17.449 55.4268 17.5264C55.3327 17.6039 55.1937 17.6854 55.0914 17.7465C54.981 17.8118 54.8093 17.9055 54.6948 17.9259C54.5803 17.9463 54.4126 17.7139 54.294 17.7384C54.1754 17.7629 54.0405 17.7221 53.9219 17.7506C53.8033 17.7792 53.7665 18.0848 53.648 18.1174C53.5294 18.1501 53.3617 17.9911 53.2431 18.0319C53.1327 18.0685 53.0223 18.1215 52.9037 18.1664C52.7851 18.2112 52.6093 18.0767 52.4948 18.1174C52.3803 18.1582 52.3517 18.4476 52.2372 18.4884C52.1227 18.5291 52.045 18.6514 51.9305 18.7003C51.816 18.7492 51.5951 18.5536 51.4847 18.6106C51.3784 18.6636 51.2394 18.6922 51.129 18.7614C51.039 18.8185 51.0881 19.2179 50.9736 19.2505C50.8713 19.2832 50.6996 19.1201 50.5851 19.1405C50.4706 19.1609 50.3234 18.9612 50.213 18.9815C50.1026 19.0019 50.0371 19.2505 49.9267 19.2791C49.8163 19.3076 49.6078 19.112 49.5056 19.1568C49.4033 19.2016 49.4606 19.5318 49.3788 19.6092C49.3011 19.6785 49.2029 19.7315 49.1212 19.8049C49.0394 19.8782 48.7613 19.7233 48.6795 19.7926C48.5977 19.8619 48.6591 20.0943 48.5773 20.1676C48.4955 20.241 48.3646 20.2573 48.2829 20.3307C48.2011 20.404 48.1316 20.4896 48.0579 20.5711C47.9843 20.6527 48.0375 20.8483 47.9639 20.9298C47.8903 21.0113 47.6327 20.9746 47.5795 21.0765C47.5304 21.1703 47.5795 21.3252 47.5386 21.4352C47.4977 21.5453 47.3955 21.6227 47.3628 21.7287C47.3301 21.8347 47.5591 22.0303 47.5223 22.1322C47.4855 22.2341 47.4855 22.3767 47.4364 22.4746C47.3873 22.5724 47.1379 22.5765 47.0725 22.6661C46.9988 22.768 46.8557 22.8169 46.7739 22.9148C46.6921 23.0126 46.7208 23.2001 46.6349 23.2979C46.549 23.3957 46.594 23.5873 46.5122 23.6851C46.4304 23.7829 46.2055 23.7625 46.1319 23.8685C46.0583 23.9745 46.0542 24.1131 45.9888 24.2231C45.9356 24.3169 45.6985 24.2802 45.6248 24.3699C45.5512 24.4595 45.6903 24.7245 45.6126 24.806C45.5349 24.8875 45.1791 24.6919 45.1014 24.7693C45.0237 24.8467 45.1014 25.0791 45.0278 25.1606C44.9542 25.2421 44.9011 25.344 44.8397 25.4296C44.7784 25.5152 44.6925 25.5967 44.6394 25.6945C44.578 25.8331 44.6802 26.0247 44.6312 26.1103C44.5576 26.2529 44.5167 26.3793 44.4594 26.4649C44.3981 26.5545 44.12 26.4975 44.0382 26.6279C43.9851 26.7094 43.9524 26.8317 43.8788 26.9662C43.8297 27.0599 43.7724 27.17 43.707 27.2963C43.6579 27.3901 43.7847 27.5205 43.7806 27.6469C43.7806 27.7528 43.5925 27.8751 43.6048 27.9933C43.617 28.1034 43.8992 28.1971 43.9115 28.3112C43.9237 28.4254 43.5843 28.5639 43.5884 28.6781C43.5925 28.7922 43.6784 28.9022 43.6579 29.0123C43.6375 29.1223 43.5966 29.2161 43.5393 29.3139C43.4862 29.4036 43.3471 29.4036 43.2735 29.4892C43.204 29.5666 43.1836 29.6767 43.1018 29.7541C43.02 29.8315 43.1672 30.1495 43.0854 30.2228C43.0037 30.2962 42.9137 30.341 42.836 30.4144C42.7583 30.4878 42.4394 30.3288 42.3698 30.4103C42.3003 30.4918 42.1858 30.5693 42.1286 30.663C42.0631 30.769 42.1695 30.9972 42.0836 31.091C41.9977 31.1847 41.8628 31.2296 41.7687 31.3192C41.6747 31.4089 41.6624 31.5719 41.5683 31.6616C41.4743 31.7513 41.417 31.8532 41.3312 31.9469C41.2453 32.0407 41.0163 32.0081 40.9427 32.11C40.8691 32.2119 40.6769 32.2526 40.6155 32.3627C40.5542 32.4727 40.8486 32.7702 40.7914 32.8803C40.7341 32.9903 40.3334 32.9211 40.2761 33.0352C40.2189 33.1493 40.3866 33.3816 40.3211 33.4876C40.2557 33.5936 40.268 33.7688 40.1944 33.8667C40.1208 33.9645 39.7364 33.8341 39.6628 33.9319C39.5892 34.0297 39.7936 34.3435 39.7159 34.4414C39.6382 34.5392 39.3561 34.478 39.2784 34.5759C39.2007 34.6737 39.0412 34.7022 38.9635 34.8C38.8858 34.8979 38.9308 35.0894 38.849 35.1873C38.7795 35.2728 38.6977 35.3707 38.6527 35.4726C38.6077 35.5704 38.8286 35.7619 38.7958 35.872C38.7631 35.982 38.7509 36.0799 38.7222 36.1899C38.6936 36.3 38.4319 36.3407 38.3992 36.4426C38.3665 36.5445 38.3542 36.6627 38.3092 36.7605C38.2642 36.8584 38.2601 37.0092 38.1865 37.0907C38.1129 37.1722 38.0066 37.2782 37.9044 37.3352C37.8103 37.3882 37.6836 37.4331 37.5731 37.4738C37.4668 37.5105 37.2787 37.2904 37.1683 37.323C37.0579 37.3556 37.0334 37.6532 36.9271 37.6898C36.8207 37.7265 36.5999 37.5227 36.5059 37.5757C36.4036 37.6287 36.3259 37.7754 36.2523 37.857C36.1787 37.9385 36.0928 38.0485 36.0438 38.1545C35.9988 38.2523 35.9579 38.3705 35.9211 38.4846C35.8843 38.5988 35.917 38.721 35.8884 38.8311C35.8598 38.9411 35.7575 39.0267 35.7207 39.1368C35.6839 39.2468 35.6267 39.3283 35.5776 39.4262C35.5245 39.5281 35.6267 39.74 35.5449 39.8175C35.4549 39.903 35.1605 39.7482 35.0624 39.8256C34.9642 39.903 34.9847 40.1394 34.8824 40.2128C34.7802 40.2862 34.6698 40.3514 34.5676 40.4248C34.4653 40.4981 34.3999 40.6286 34.2977 40.7019C34.1955 40.7753 34.036 40.7794 33.9419 40.865C33.8601 40.9342 33.9746 41.1788 33.9051 41.2603C33.8356 41.3418 33.4798 41.1992 33.4144 41.2888C33.349 41.3785 33.304 41.4804 33.2427 41.5701C33.1813 41.6597 33.394 41.941 33.3285 42.0266C33.2631 42.1122 33.0382 42.0796 32.9646 42.157C32.891 42.2344 32.8869 42.4056 32.8051 42.4708C32.7151 42.5401 32.5516 42.6054 32.4207 42.6298C32.3103 42.6502 32.1672 42.6624 32.0363 42.6624C31.9177 42.6624 31.791 42.638 31.6683 42.6339C31.5456 42.6298 31.427 42.7032 31.3085 42.6991C31.1817 42.6991 31.0304 42.3812 30.92 42.4016C30.7932 42.4219 30.6296 42.5075 30.5356 42.5727C30.4334 42.6461 30.3475 42.7317 30.2452 42.801C30.143 42.8703 30.0571 42.964 29.9549 43.0292C29.8527 43.0945 29.8936 43.392 29.7872 43.4572C29.6809 43.5224 29.3824 43.2697 29.2761 43.3349C29.1698 43.4002 29.1043 43.5306 28.998 43.5958C28.8917 43.661 28.8631 43.8444 28.769 43.9259C28.675 44.0075 28.4092 43.9259 28.3233 44.0156C28.2374 44.1053 28.3928 44.4395 28.3029 44.5292C28.2129 44.6188 27.9103 44.4721 27.8121 44.5496C27.714 44.627 27.6322 44.6759 27.5218 44.737C27.4114 44.7982 27.4891 45.1854 27.3828 45.2465C27.2765 45.3077 27.0066 45.0957 26.9002 45.1569C26.7939 45.218 26.6426 45.2017 26.5322 45.2628C26.4218 45.324 26.3727 45.4829 26.2623 45.54C26.1519 45.597 26.0456 45.6541 25.9311 45.7112C25.8166 45.7682 25.8002 46.0821 25.6776 46.1147C25.5549 46.1473 25.424 46.2166 25.3014 46.241C25.1787 46.2655 24.9824 45.9435 24.8597 45.968C24.737 45.9924 24.598 46.0087 24.4794 46.0413C24.3608 46.0739 24.2504 46.1962 24.1318 46.2451C24.0132 46.294 23.956 46.4571 23.8415 46.51C23.727 46.563 23.5021 46.3918 23.3917 46.4489C23.2813 46.506 23.3549 46.9299 23.2445 46.9828C23.1341 47.0358 22.8601 46.7505 22.7456 46.7994C22.6311 46.8484 22.5125 46.8483 22.3939 46.8932C22.2876 46.9339 22.124 47.0318 22.034 47.1133C21.9523 47.1866 21.846 47.2926 21.7683 47.3823C21.6906 47.472 21.756 47.6758 21.6824 47.7654C21.6088 47.8551 21.5106 47.9203 21.437 48.0059C21.3593 48.0956 21.4738 48.4013 21.388 48.4705C21.2939 48.5439 21.0567 48.4135 20.9504 48.4502C20.8441 48.4869 20.7051 48.6254 20.5824 48.601C20.472 48.5806 20.4065 48.3523 20.288 48.3075C20.1776 48.2668 19.9445 48.5072 19.834 48.4583C19.7236 48.4094 19.6419 48.3116 19.5314 48.2708C19.4129 48.226 19.3515 48.0915 19.237 48.067C19.1103 48.0426 18.9508 47.7532 18.8404 47.7817C18.6932 47.8143 18.5827 47.9488 18.4887 47.9814C18.3456 48.0344 18.2352 48.12 18.1452 48.1771C18.0471 48.2382 18.0225 48.4176 17.8917 48.4787C17.8017 48.5235 17.6586 48.4787 17.5114 48.5235C17.4091 48.5521 17.3069 48.6417 17.1679 48.6743C17.0656 48.6947 16.9511 48.7192 16.853 48.7844C16.7671 48.8415 16.7876 49.0371 16.7017 49.1145C16.6199 49.1838 16.4604 49.1716 16.3787 49.249C16.2969 49.3265 16.2478 49.4406 16.1619 49.5099C16.076 49.5792 15.8266 49.3876 15.7325 49.4406C15.6385 49.4936 15.663 49.8115 15.5567 49.836C15.4504 49.8604 15.3482 49.5914 15.2337 49.5751C15.1273 49.5629 15.0251 49.6322 14.9147 49.5996C14.8084 49.571 14.6612 49.6811 14.5548 49.6485C14.4485 49.6159 14.379 49.4488 14.2727 49.4202C14.1664 49.3917 14.0437 49.2572 13.9374 49.249C13.8229 49.2409 13.6552 49.2817 13.5489 49.3102C13.4303 49.3428 13.324 49.4895 13.2095 49.5466C13.095 49.6036 13.0459 49.7667 12.9355 49.8319C12.8251 49.8971 12.7556 50.0153 12.6452 50.0805C12.5348 50.1457 12.3507 50.0683 12.2403 50.1254C12.1299 50.1824 12.0481 50.3128 11.9296 50.3455C11.811 50.3781 11.676 50.3618 11.5615 50.4107C11.447 50.4596 11.3734 50.5859 11.263 50.643C11.1526 50.7001 11.1158 50.8916 11.0054 50.9487C10.895 51.0057 10.6374 50.753 10.5269 50.806C10.4165 50.859 10.3102 50.8794 10.1916 50.9202C10.073 50.9609 10.0567 51.34 9.94219 51.3685C9.82769 51.397 9.68865 51.3767 9.57006 51.4052C9.45148 51.4337 9.25929 51.1403 9.1407 51.1647C9.02211 51.1892 9.00167 51.5967 8.88717 51.6294C8.77267 51.662 8.6459 51.6171 8.53549 51.662C8.42508 51.7068 8.32286 51.8006 8.21245 51.8454C8.10204 51.8902 7.88531 51.6783 7.7749 51.7231C7.66449 51.7679 7.51728 51.7435 7.40687 51.7883C7.29646 51.8332 7.17787 51.8902 7.07155 51.9391C6.96523 51.988 7.02656 52.3875 6.92433 52.4445C6.80983 52.5057 6.47451 52.2204 6.37637 52.2978C6.27823 52.3752 6.29459 52.6116 6.20871 52.7013C6.12284 52.791 6.05742 52.9051 5.9879 53.0111C5.91839 53.1171 5.95519 53.2719 5.89794 53.3901C5.84069 53.5083 5.6076 53.541 5.56262 53.6632C5.52582 53.7651 5.40313 53.8222 5.35406 53.9322C5.30499 54.0301 5.50945 54.2583 5.45629 54.3643C5.40313 54.4703 5.16187 54.4743 5.1128 54.5803C5.06373 54.6863 5.17006 54.8534 5.13325 54.9594C5.09645 55.0653 4.90425 55.1346 4.8838 55.2487C4.86336 55.3629 5.16596 55.4892 5.16596 55.6033C5.16596 55.7175 4.98195 55.8316 5.03102 55.9457C5.076 56.0476 5.17005 56.1291 5.23957 56.231C5.30499 56.3248 5.31317 56.4674 5.38269 56.5653C5.45221 56.6631 5.57489 56.7201 5.64031 56.818C5.70574 56.9158 5.9102 56.9565 5.95927 57.0584C6.01243 57.1685 5.71391 57.3927 5.73436 57.5068C5.75889 57.6331 6.17601 57.678 6.20463 57.8043C6.23326 57.9307 6.06968 58.0937 6.09831 58.2201C6.12693 58.3464 5.99199 58.5135 6.0247 58.6358C6.05742 58.7581 6.38046 58.7988 6.41727 58.9211C6.45407 59.0434 6.2905 59.2227 6.32321 59.3491C6.35183 59.455 6.47043 59.5406 6.48679 59.6466C6.50315 59.7526 6.58493 59.8586 6.59719 59.9686C6.60946 60.0787 6.58902 60.1928 6.59719 60.2988C6.60537 60.4047 6.53994 60.5229 6.55221 60.6289C6.56447 60.7349 6.38455 60.8816 6.40091 60.9876C6.41726 61.0936 6.52359 61.2077 6.56039 61.3096C6.5972 61.4115 6.85891 61.4604 6.87935 61.5704C6.8998 61.6805 6.69942 61.8231 6.7076 61.9332C6.71578 62.0432 6.83846 62.1492 6.84255 62.2593C6.84664 62.3693 6.76485 62.4916 6.77303 62.6016C6.78121 62.7158 6.73623 62.8462 6.75259 62.9522C6.77303 63.0663 6.81393 63.2008 6.85482 63.2986C6.90389 63.4168 6.94887 63.5391 6.99794 63.6287C7.06337 63.7469 7.37415 63.6654 7.43958 63.7388C7.52545 63.8366 7.45184 64.0567 7.53771 64.1179C7.63177 64.1831 7.67266 64.3013 7.76671 64.3746C7.84441 64.4358 8.14701 64.3013 8.2288 64.4032C8.29013 64.4806 8.11839 64.7292 8.18382 64.8474C8.24925 64.9656 8.32694 65.0309 8.35965 65.1205C8.40464 65.2469 8.26969 65.3365 8.27378 65.4303C8.27378 65.5403 8.4946 65.6422 8.48642 65.7604C8.47824 65.8542 8.38419 65.9642 8.40055 66.0947C8.41282 66.1884 8.60501 66.2536 8.64181 66.3759C8.67044 66.4696 8.3801 66.6897 8.42508 66.8079C8.47007 66.9261 8.7972 66.9221 8.85445 67.0403C8.90761 67.1503 8.71133 67.3826 8.76858 67.5008C8.82174 67.6109 9.12843 67.6027 9.18159 67.7209C9.23475 67.8391 9.32062 67.941 9.3656 68.0592C9.41058 68.1774 9.37787 68.3242 9.41467 68.4464C9.4433 68.5443 9.5946 68.5932 9.63549 68.6951C9.67639 68.797 9.48011 69.0008 9.52918 69.0986C9.57825 69.1964 9.63549 69.282 9.68456 69.3798C9.73363 69.4776 9.92174 69.5021 9.96672 69.5999C10.0117 69.6978 10.1548 69.763 10.1875 69.8649C10.2203 69.9668 10.163 70.1053 10.1875 70.2113C10.2162 70.3336 10.0894 70.4925 10.1139 70.6189C10.1385 70.7453 10.4288 70.8105 10.4533 70.9368C10.4779 71.0632 10.4697 71.1936 10.4942 71.32C10.5188 71.4463 10.6333 71.5563 10.6537 71.6827C10.6742 71.8091 10.6414 71.9476 10.6619 72.074C10.6783 72.18 10.5474 72.3063 10.5801 72.4123C10.6128 72.5183 10.7437 72.5794 10.7805 72.6813C10.8173 72.7832 10.7232 72.934 10.7641 73.0359C10.805 73.1378 10.9073 73.2152 10.9441 73.3171C10.9809 73.419 10.8786 73.5617 10.9032 73.6677C10.9277 73.7736 10.8418 73.8755 10.85 73.9815C10.8582 74.0875 10.895 74.1486 10.8745 74.2627C10.8541 74.3687 11.1853 74.5847 11.1485 74.6907C11.1117 74.7967 10.8255 74.813 10.7846 74.919C10.7437 75.0249 10.805 75.1676 10.7682 75.2736C10.7314 75.3795 10.4656 75.4284 10.4411 75.5385C10.4165 75.6485 10.8009 75.7871 10.805 75.8972C10.8091 76.0235 10.6333 76.1539 10.6414 76.2803C10.6496 76.4066 10.7069 76.5248 10.7191 76.6512C10.7314 76.7775 10.6823 76.908 10.6905 77.0343C10.6987 77.1607 10.8255 77.283 10.8296 77.4093C10.8336 77.5357 10.482 77.662 10.4779 77.7924C10.4738 77.9229 10.8255 78.0533 10.8214 78.1837C10.8173 78.3142 10.6619 78.4283 10.6578 78.5546C10.6537 78.681 10.4901 78.7951 10.482 78.9215C10.4738 79.0478 10.7191 79.1905 10.711 79.3168C10.7028 79.4432 10.3797 79.5492 10.3675 79.6755C10.3593 79.7815 10.5556 79.9078 10.5597 80.0179C10.5638 80.1279 10.4124 80.2543 10.4247 80.3643C10.437 80.4744 10.6864 80.5477 10.7028 80.6537C10.7191 80.7597 10.8664 80.8534 10.8786 80.9635C10.8909 81.0735 10.7478 81.1958 10.7478 81.3018C10.7478 81.4078 10.5106 81.4893 10.4942 81.5993C10.4779 81.7094 10.7437 81.852 10.7191 81.958C10.6946 82.064 10.3961 82.0884 10.3634 82.1903C10.3307 82.2922 10.3716 82.4104 10.3388 82.5164C10.3061 82.6224 10.6128 82.8262 10.5801 82.9281C10.5474 83.03 10.2162 83.0463 10.1916 83.1482C10.1671 83.2501 10.3879 83.409 10.3675 83.5109C10.347 83.6332 10.2652 83.7473 10.2448 83.8737C10.2244 84 10.2407 84.1264 10.2203 84.2527C10.1998 84.3791 9.83177 84.4443 9.81133 84.5706C9.79088 84.697 9.96264 84.8559 9.93811 84.9782C9.91357 85.1005 9.84405 85.2187 9.81542 85.341C9.79089 85.4429 9.88086 85.5733 9.86041 85.6793C9.83996 85.7852 9.71728 85.8749 9.70502 85.9809C9.69275 86.0869 9.63141 86.1888 9.61505 86.2947C9.5987 86.4007 9.72955 86.5311 9.71319 86.6371C9.69683 86.7431 9.45149 86.8042 9.42695 86.9102C9.40242 87.0162 9.49646 87.1344 9.46783 87.2403C9.41876 87.3789 9.40241 87.4849 9.34925 87.5705C9.27565 87.6928 9.26746 87.8313 9.18977 87.9047C9.10389 87.9821 8.96487 87.9985 8.8749 88.1003C8.80947 88.1778 8.92806 88.3734 8.86263 88.5039C8.81765 88.5976 8.57229 88.6139 8.52322 88.7443C8.48642 88.8503 8.34738 88.9522 8.33103 89.0704C8.31467 89.1805 8.35965 89.315 8.34739 89.4332C8.33512 89.5473 8.40463 89.6696 8.39236 89.7878C8.38009 89.906 8.52731 90.0446 8.51095 90.1587C8.4946 90.2728 8.09795 90.3054 8.06932 90.4195C8.0407 90.5337 8.04479 90.6193 7.99163 90.7293C7.93847 90.8393 8.24924 91.1287 8.19199 91.2347C8.13474 91.3407 8.01615 91.4059 7.9589 91.5119C7.90166 91.6178 7.57043 91.5934 7.52545 91.7034C7.48046 91.8135 7.40686 91.9561 7.38641 92.0743C7.36597 92.1925 7.52545 92.3352 7.51318 92.4534C7.50091 92.5716 7.43548 92.6816 7.42322 92.7998C7.41095 92.918 7.39869 93.0362 7.39051 93.1544C7.38233 93.2726 7.5786 93.399 7.57452 93.5172C7.57043 93.6354 7.64403 93.7536 7.63994 93.8677C7.63586 93.9818 7.48864 94.0878 7.51318 94.206C7.53771 94.3242 7.39868 94.4873 7.43548 94.6014C7.47229 94.7155 7.74218 94.74 7.78716 94.85C7.83215 94.9601 7.67267 95.1476 7.71356 95.2576C7.75445 95.3677 7.67676 95.494 7.70129 95.6081C7.72583 95.7223 7.9998 95.7671 8.0366 95.8608C8.07749 95.9627 8.10613 96.0687 8.15929 96.1584C8.21245 96.248 8.36783 96.2725 8.43326 96.3581C8.49869 96.4437 8.421 96.6393 8.49051 96.7249C8.56003 96.8105 8.70724 96.8268 8.77267 96.9165C8.8381 97.0062 8.70315 97.2548 8.77267 97.3485C8.84219 97.4382 9.11617 97.3771 9.19386 97.4667C9.26747 97.5523 9.26747 97.7194 9.36152 97.801C9.4474 97.8743 9.52917 97.9884 9.63549 98.0496C9.72955 98.1066 9.9381 97.9477 10.0567 97.9925C10.1753 98.0374 10.2203 98.2534 10.3388 98.2941C10.4574 98.3349 10.6169 98.2371 10.7396 98.2778C10.8623 98.3186 10.9645 98.3797 11.0831 98.4123C11.2017 98.445 11.353 98.343 11.4756 98.3716C11.5983 98.4001 11.7128 98.4042 11.8355 98.4327C11.9582 98.4613 11.9786 98.877 12.1013 98.9137C12.224 98.9504 12.3712 98.8729 12.4939 98.9137C12.6166 98.9544 12.7842 98.824 12.9069 98.8607C13.0296 98.8974 13.0909 99.1297 13.2136 99.1582C13.3363 99.1868 13.4589 99.2846 13.5816 99.3009C13.7043 99.3172 13.8556 99.1419 13.9864 99.1297C14.1173 99.1175 14.2441 99.1297 14.3708 99.1052C14.4976 99.0808 14.5835 98.8485 14.7061 98.824C14.8288 98.7995 15.0169 99.1949 15.1437 99.1827C15.2705 99.1704 15.3645 99.093 15.4913 99.1052C15.618 99.1175 15.7489 98.8648 15.8757 98.8607C16.0024 98.8566 16.121 98.8607 16.2478 98.8484C16.3746 98.8362 16.5054 98.8933 16.6281 98.877C16.7508 98.8607 16.8775 98.8525 17.0002 98.8444C17.1229 98.8362 17.2619 98.5998 17.3887 98.608C17.4991 98.6121 17.5645 98.9503 17.6708 98.987C17.7731 99.0237 17.9367 98.9218 18.0389 98.9748C18.1411 99.0278 18.092 99.3335 18.1861 99.3865C18.2801 99.4395 18.4274 99.4231 18.5255 99.4721C18.6236 99.521 18.8036 99.4109 18.9058 99.4435C19.0121 99.4802 19.1062 99.521 19.2125 99.521C19.3393 99.521 19.4578 99.6473 19.5846 99.6514C19.7114 99.6555 19.8341 99.737 19.9567 99.7411C20.0794 99.7451 20.2184 99.521 20.3411 99.5291C20.4638 99.5373 20.5824 99.7655 20.705 99.7696C20.8277 99.7737 20.9586 99.6066 21.0854 99.6066C21.2121 99.6066 21.343 99.5903 21.4657 99.5984C21.5883 99.6066 21.7151 99.6433 21.8378 99.6596C21.9604 99.6759 22.0913 99.6718 22.214 99.684C22.3367 99.6962 22.4716 99.5984 22.5943 99.6066C22.717 99.6147 22.8355 99.8756 22.9541 99.8756C23.0727 99.8756 23.2036 99.6759 23.3263 99.6759C23.4489 99.6759 23.5798 99.6759 23.7025 99.6759C23.8251 99.6759 23.956 99.6759 24.0787 99.6759C24.2054 99.6759 24.3322 99.6881 24.4508 99.684C24.5817 99.684 24.7084 99.9082 24.8311 99.9041C24.9824 99.9041 25.0928 99.6351 25.1991 99.6229C25.3545 99.6066 25.424 99.4639 25.5222 99.4354C25.6653 99.3946 25.7675 99.4231 25.8779 99.3702C25.9761 99.3253 26.201 99.6106 26.3523 99.5699C26.4545 99.5454 26.5404 99.468 26.6958 99.4476C26.8512 99.4272 26.9534 99.4313 27.0556 99.4313C27.2151 99.4313 27.2928 99.415 27.3951 99.4476C27.4973 99.4802 27.6527 99.3539 27.7999 99.3946C27.898 99.4191 27.9839 99.5862 28.1352 99.6106C28.2415 99.6269 28.3683 99.6677 28.5114 99.6799C28.63 99.6881 28.7895 99.5006 28.9121 99.5332C29.0266 99.5658 29.0307 99.9204 29.1493 99.9653C29.2597 100.006 29.3906 100.01 29.5092 100.055C29.6196 100.096 29.8527 99.7859 29.9754 99.8226C30.0899 99.8552 30.1512 100.088 30.2739 100.108C30.3965 100.128 30.4947 100.34 30.6174 100.352C30.7401 100.365 30.8913 99.9367 31.0181 99.9449C31.1449 99.953 31.2348 100.275 31.3575 100.287C31.4802 100.299 31.607 100.222 31.7296 100.242C31.8523 100.263 31.9627 100.304 32.0813 100.34C32.1835 100.369 32.294 100.312 32.4044 100.316C32.5066 100.32 32.6129 100.381 32.7233 100.377C32.8337 100.373 32.9482 100.507 33.0545 100.499C33.1609 100.491 33.259 100.214 33.3694 100.21C33.4798 100.206 33.6066 100.206 33.7129 100.222C33.8192 100.238 33.8765 100.471 33.9787 100.511C34.0809 100.552 34.2118 100.52 34.2977 100.585C34.3836 100.646 34.5798 100.597 34.6616 100.67C34.7434 100.744 34.6453 100.996 34.723 101.07C34.8007 101.143 34.7516 101.355 34.8293 101.428C34.907 101.502 35.181 101.355 35.2668 101.42C35.3527 101.486 35.3404 101.734 35.4345 101.779C35.5449 101.832 35.7943 101.645 35.8966 101.718C35.9988 101.791 35.9088 102.105 36.007 102.183C36.1051 102.26 36.3055 102.207 36.3995 102.284C36.4936 102.362 36.6163 102.403 36.7185 102.476C36.8207 102.549 37.0129 102.443 37.1233 102.505C37.2337 102.566 37.2624 102.733 37.381 102.774C37.4995 102.814 37.5486 103.091 37.6713 103.124C37.794 103.157 37.9085 103.197 38.0271 103.234C38.1457 103.271 38.2888 103.201 38.4074 103.246C38.526 103.291 38.6977 103.234 38.804 103.299C38.9103 103.365 39.0903 103.381 39.1802 103.471C39.2702 103.56 39.3397 103.682 39.4215 103.78C39.5033 103.878 39.3274 104.18 39.4092 104.278C39.491 104.375 39.5483 104.51 39.6382 104.6C39.7282 104.689 39.8549 104.783 39.9572 104.856C40.0594 104.93 40.2271 104.966 40.3457 105.015C40.4642 105.064 40.5706 105.178 40.6932 105.219C40.8159 105.26 40.9672 105.195 41.0899 105.235C41.2126 105.276 41.4048 105.142 41.5152 105.199C41.6256 105.256 41.6747 105.427 41.7728 105.508C41.8709 105.59 41.9077 105.733 42.0059 105.81C42.104 105.888 42.3576 105.757 42.4557 105.835C42.5538 105.912 42.6479 105.989 42.746 106.067C42.8442 106.144 42.791 106.405 42.8851 106.483C42.9791 106.56 43.0609 106.654 43.155 106.735C43.249 106.817 43.5148 106.658 43.6293 106.723C43.7438 106.788 43.7479 107.033 43.8665 107.09C43.9851 107.147 44.0628 107.265 44.1814 107.322C44.2999 107.379 44.5453 107.188 44.6557 107.257C44.7661 107.326 44.6475 107.673 44.7375 107.758C44.8275 107.844 45.0851 107.754 45.1873 107.832C45.2896 107.909 45.4817 107.856 45.584 107.934C45.6862 108.011 45.8089 108.052 45.9111 108.129C46.0133 108.207 46.0788 108.337 46.1728 108.419C46.2669 108.5 46.2342 108.728 46.3241 108.818C46.4141 108.908 46.5531 108.953 46.6308 109.054C46.7085 109.156 46.7044 109.311 46.7739 109.417C46.8434 109.523 47.0561 109.531 47.1256 109.633C47.1951 109.735 47.0479 109.996 47.1256 110.098C47.2033 110.2 47.3464 110.253 47.4323 110.347C47.5182 110.44 47.5304 110.579 47.6081 110.681C47.6858 110.783 48.0252 110.681 48.1029 110.783C48.1806 110.885 48.2379 110.995 48.3115 111.096C48.3851 111.198 48.3442 111.378 48.4219 111.48C48.4996 111.582 48.4546 111.773 48.5364 111.867C48.6223 111.981 48.6427 112.14 48.7081 112.209C48.8104 112.315 48.9167 112.417 49.0026 112.474C49.0925 112.539 49.1988 112.552 49.3093 112.637C49.3829 112.698 49.6078 112.605 49.71 112.711C49.7795 112.784 49.7264 112.984 49.8163 113.09C49.8899 113.179 49.8368 113.297 49.8899 113.416C49.939 113.522 50.1476 113.558 50.1884 113.677C50.2293 113.795 50.258 113.909 50.3029 114.023C50.3479 114.137 50.581 114.153 50.6423 114.259C50.7037 114.365 50.7201 114.463 50.8059 114.553C50.8918 114.643 50.8059 114.867 50.8754 114.965C50.945 115.062 50.9818 115.176 51.0513 115.274C51.1208 115.372 51.2108 115.458 51.2803 115.556C51.3498 115.653 51.3702 115.808 51.4479 115.898C51.5256 115.988 51.8446 115.849 51.9346 115.926C52.0245 116.004 52.0368 116.175 52.139 116.24C52.2413 116.305 52.323 116.407 52.4334 116.46C52.5438 116.513 52.687 116.493 52.7974 116.542C52.9078 116.591 52.9078 116.848 53.0141 116.905C53.1204 116.962 53.3004 116.868 53.3985 116.933C53.4966 116.998 53.5662 117.104 53.6602 117.178C53.7543 117.251 53.8483 117.329 53.9424 117.402C54.0364 117.475 54.2859 117.353 54.384 117.422C54.4822 117.492 54.4412 117.761 54.5435 117.826C54.6457 117.891 54.7602 117.973 54.8706 118.013C54.9688 118.05 55.0833 118.042 55.1855 118.091C55.2795 118.136 55.4309 118.074 55.529 118.123C55.6271 118.172 55.7703 118.115 55.8684 118.16C55.9665 118.205 56.0197 118.335 56.1219 118.372C56.2242 118.413 56.3427 118.331 56.445 118.356C56.5554 118.38 56.6126 118.466 56.7149 118.466C56.8253 118.466 57.0011 118.8 57.1074 118.767C57.2137 118.735 57.2628 118.502 57.361 118.449C57.4591 118.396 57.5245 118.294 57.6186 118.233C57.7126 118.172 57.9212 118.278 58.0071 118.217C58.1052 118.152 57.9907 117.748 58.0848 117.699C58.1911 117.642 58.3915 117.789 58.4937 117.773C58.6164 117.756 58.735 117.773 58.8494 117.765C58.9639 117.756 59.0621 117.532 59.1807 117.52C59.2993 117.508 59.4424 117.691 59.5569 117.667C59.6714 117.642 59.7123 117.418 59.8227 117.373C59.9331 117.329 60.0639 117.394 60.1662 117.329C60.2684 117.263 60.526 117.365 60.6078 117.271C60.6814 117.186 60.6405 116.986 60.71 116.884C60.7755 116.79 60.6855 116.591 60.755 116.485C60.8204 116.387 60.9636 116.334 61.0372 116.236C61.1067 116.142 61.3071 116.155 61.3929 116.061C61.4788 115.967 61.4257 115.69 61.5443 115.621C61.6506 115.564 61.8959 115.759 62.0145 115.702C62.129 115.649 62.1331 115.368 62.2476 115.311C62.3621 115.254 62.5911 115.388 62.6933 115.311C62.7956 115.234 62.8201 115.066 62.8978 114.965C62.9673 114.871 62.8692 114.651 62.9428 114.553C63.0164 114.455 63.3067 114.52 63.3762 114.422C63.4458 114.325 63.4621 114.19 63.5316 114.092C63.6011 113.994 63.6502 113.884 63.7238 113.782C63.7974 113.681 63.7483 113.505 63.8219 113.408C63.8956 113.31 63.9446 113.204 64.0182 113.106C64.0919 113.008 64.3863 113.077 64.4558 112.98C64.5253 112.882 64.3658 112.621 64.4353 112.523C64.5048 112.425 64.5826 112.336 64.6521 112.234C64.7216 112.132 64.7952 112.042 64.8647 111.944C64.9342 111.846 65.1714 111.846 65.2082 111.716C65.2409 111.598 65.0774 111.439 65.0978 111.308C65.1183 111.178 65.3554 111.092 65.3759 110.966C65.3963 110.84 65.1796 110.644 65.2205 110.526C65.2614 110.408 65.5722 110.4 65.6458 110.298C65.7153 110.2 65.5926 109.972 65.6621 109.87C65.7316 109.768 65.8257 109.694 65.8952 109.592C65.9647 109.491 66.0629 109.421 66.1324 109.319C66.2019 109.217 66.1569 109.042 66.2264 108.944C66.2959 108.847 66.4227 108.79 66.4922 108.688C66.5617 108.586 66.8889 108.708 66.9789 108.614C67.0688 108.521 67.0729 108.37 67.167 108.288C67.261 108.207 67.396 108.174 67.4859 108.088C67.5759 108.003 67.674 107.909 67.7599 107.819C67.8458 107.73 67.9357 107.62 68.0093 107.518C68.083 107.416 67.9316 107.139 68.0134 107.049C68.0952 106.959 68.4183 107.102 68.5082 107.017C68.5982 106.931 68.5982 106.76 68.6881 106.674C68.7781 106.589 68.68 106.328 68.7658 106.238C68.8517 106.148 68.954 106.095 69.0276 105.998C69.1012 105.9 69.3138 105.908 69.3833 105.806C69.4528 105.704 69.5796 105.647 69.6491 105.545C69.7186 105.443 69.6491 105.256 69.7227 105.154C69.7963 105.052 69.8413 104.938 69.9108 104.84C69.9803 104.742 70.1398 104.705 70.2134 104.608C70.287 104.51 70.1766 104.294 70.2461 104.188C70.3157 104.082 70.3279 103.96 70.3893 103.854C70.4506 103.748 70.88 103.862 70.9454 103.756C71.0108 103.65 70.8064 103.381 70.8718 103.279C70.9372 103.177 71.2357 103.242 71.3134 103.144C71.3911 103.047 71.248 102.782 71.3298 102.688C71.4116 102.594 71.6651 102.655 71.7469 102.566C71.8287 102.476 71.9882 102.456 72.07 102.366C72.1517 102.276 72.2376 102.183 72.3153 102.089C72.393 101.995 72.1763 101.657 72.254 101.559C72.3194 101.477 72.5034 101.473 72.5934 101.412C72.6792 101.351 72.6997 101.147 72.7978 101.094C72.896 101.041 73.1495 101.327 73.2477 101.282C73.3458 101.237 73.3376 100.968 73.4316 100.919C73.5257 100.87 73.583 100.78 73.6688 100.719C73.7547 100.658 73.7547 100.564 73.8242 100.483C73.9019 100.389 74.1718 100.438 74.2332 100.328C74.2945 100.218 74.4744 100.161 74.5235 100.047C74.5726 99.9326 74.4458 99.7411 74.4949 99.6269C74.5439 99.5128 74.5112 99.3498 74.5726 99.2438C74.6339 99.1378 74.6625 98.9707 74.7443 98.877C74.8138 98.7955 75.2064 98.8974 75.2514 98.7914C75.2923 98.6936 74.9815 98.4735 75.006 98.3634C75.0306 98.2534 74.9978 98.1433 75.0183 98.0374C75.0387 97.9314 75.3904 97.8906 75.4149 97.7847C75.4395 97.6787 75.5172 97.6094 75.5581 97.5116C75.603 97.4097 75.6521 97.3893 75.7216 97.3078C75.8034 97.214 75.832 97.1407 75.9425 97.0673C76.0488 96.998 75.9874 96.6312 76.106 96.5741C76.2246 96.5171 76.4822 96.7535 76.5967 96.7005C76.7112 96.6475 76.7153 96.3744 76.8176 96.3051C76.9198 96.2358 76.9607 96.1258 77.0424 96.032C77.1242 95.9383 77.1774 95.8486 77.251 95.7467C77.3246 95.6448 77.3982 95.5592 77.4637 95.4573C77.5291 95.3554 77.7867 95.3758 77.8521 95.2698C77.9175 95.1639 78.0034 95.0823 78.073 94.9804C78.1425 94.8785 78.032 94.6258 78.1138 94.5362C78.1956 94.4465 78.3265 94.4098 78.396 94.3038C78.4655 94.1979 78.7395 94.2142 78.8008 94.1041C78.8622 93.9941 78.719 93.7781 78.7763 93.668C78.8335 93.558 78.8335 93.4031 78.9031 93.3012C78.9726 93.1993 79.1075 93.1259 79.1934 93.0363C79.267 92.9547 79.4674 93.0566 79.5696 93.0036C79.6637 92.9547 79.7332 92.8773 79.8436 92.8406C79.954 92.8039 80.0153 92.649 80.1217 92.6164C80.228 92.5838 80.3343 92.5471 80.4365 92.5105C80.5387 92.4738 80.5756 92.3067 80.6696 92.2578C80.7718 92.2048 81.099 92.4534 81.1726 92.3719C81.2585 92.2822 81.1889 92.054 81.2626 91.9521C81.3362 91.8502 81.3443 91.7116 81.4138 91.6097C81.4834 91.5078 81.6469 91.467 81.7124 91.3611C81.7778 91.2551 81.8882 91.1899 81.9618 91.092C82.0354 90.9942 81.9986 90.8067 82.0845 90.7171C82.1704 90.6274 82.2481 90.5377 82.3094 90.4236C82.3707 90.3095 82.3789 90.1831 82.428 90.0609C82.477 89.9386 82.7674 89.9182 82.8124 89.8C82.8573 89.6818 82.6938 89.4698 82.751 89.3598C82.8083 89.2497 82.9064 89.1397 82.9923 89.05C83.0659 88.9726 83.2458 89.0582 83.344 89.0052C83.438 88.9563 83.5198 88.9278 83.6261 88.8911C83.7325 88.8544 83.8429 88.8829 83.9492 88.8462C84.0555 88.8096 84.1741 88.7892 84.2722 88.7525C84.3704 88.7158 84.3377 88.3531 84.4317 88.3041C84.5298 88.2512 84.6607 88.2756 84.7343 88.2022C84.8243 88.1126 85.1064 88.137 85.1719 88.0229C85.2373 87.9088 85.1555 87.7132 85.2046 87.5949C85.2536 87.4767 85.3191 87.3667 85.3722 87.2526C85.4254 87.1385 85.4458 87.0121 85.5113 86.902C85.5767 86.792 85.5685 86.6208 85.6585 86.5352C85.7362 86.4619 85.8997 86.5067 86.002 86.4578C86.1001 86.4129 86.1983 86.3966 86.3087 86.3681C86.4191 86.3396 86.4681 86.1032 86.5745 86.0787C86.6808 86.0543 86.8525 86.258 86.9588 86.2254C87.0652 86.1928 87.1756 86.1236 87.2737 86.0787C87.376 86.0298 87.4046 85.8627 87.4823 85.7893C87.5723 85.7037 87.6009 85.5815 87.6745 85.4796C87.7481 85.3777 87.7113 85.2187 87.7808 85.1127C87.8503 85.0068 87.9362 84.9171 88.0016 84.8111C88.067 84.7051 88.2756 84.6888 88.3533 84.5951C88.431 84.5013 88.4146 84.2894 88.5046 84.2079C88.5946 84.1264 88.9544 84.3587 89.0525 84.2853C89.1507 84.212 89.2325 84.1345 89.3347 84.0652C89.4369 83.9959 89.5228 83.9063 89.6209 83.837C89.7191 83.7677 89.7968 83.6495 89.8949 83.5761C89.9931 83.5028 89.9522 83.2623 90.0462 83.1808C90.1239 83.1074 90.3938 83.1767 90.4551 83.0829C90.5083 82.9933 90.2057 82.7161 90.2466 82.6142C90.2875 82.5123 90.5574 82.5123 90.5983 82.4104C90.6392 82.3085 90.6065 82.1781 90.6514 82.0803C90.6964 81.9825 90.6964 81.8439 90.7537 81.7542C90.8109 81.6605 91.0685 81.7379 91.1462 81.6686C91.2239 81.5993 91.2444 81.4648 91.3589 81.4241C91.4611 81.3914 91.5388 81.1591 91.6533 81.1387C91.7637 81.1224 91.8986 81.2162 92.0131 81.204C92.1276 81.1917 92.234 81.1428 92.3444 81.1265C92.463 81.1102 92.5284 81.0124 92.6347 80.9757C92.7492 80.939 92.8187 80.9676 92.9046 80.8942C92.9946 80.8127 93.2236 80.8901 93.3135 80.8086C93.4035 80.7271 93.3544 80.4907 93.4444 80.4092C93.5343 80.3276 93.7225 80.3562 93.8165 80.2747C93.9106 80.1931 93.9555 80.0668 94.0455 79.9853C94.1355 79.9037 94.1518 79.7326 94.2418 79.651C94.3277 79.5777 94.6057 79.6633 94.6589 79.5532C94.7039 79.4554 94.5975 79.2842 94.6303 79.1701C94.6589 79.06 94.7407 78.9622 94.7652 78.8481C94.7897 78.734 94.9329 78.6525 94.9656 78.5424C94.9983 78.4242 94.8429 78.2449 94.892 78.1471C94.9451 78.037 95.0842 77.9759 95.17 77.9066C95.2641 77.8291 95.3213 77.7068 95.4195 77.6294C95.5176 77.552 95.6935 77.5805 95.7875 77.5031C95.8816 77.4256 96.0738 77.4705 96.1719 77.393C96.2701 77.3156 96.221 77.0588 96.3191 76.9813C96.4173 76.9039 96.4091 76.7042 96.5031 76.6267C96.5972 76.5493 96.8098 76.6145 96.9202 76.5534C97.0306 76.4922 97.231 76.6308 97.3455 76.5738C97.46 76.5167 97.5704 76.4678 97.6849 76.4148C97.7994 76.3618 97.7217 75.942 97.828 75.8809C97.9344 75.8197 98.1634 75.9542 98.2615 75.8809C98.3596 75.8075 98.56 75.8523 98.6541 75.7708C98.7481 75.6893 98.744 75.4977 98.834 75.4162C98.924 75.3347 99.063 75.3062 99.157 75.2287C99.2511 75.1513 99.157 74.8497 99.2511 74.7722C99.3451 74.6948 99.6764 74.9108 99.7704 74.8374C99.8645 74.7641 99.7786 74.4258 99.8849 74.3606C99.9912 74.2953 100.065 74.1608 100.175 74.1038C100.286 74.0467 100.596 74.3728 100.707 74.3157C100.817 74.2587 100.875 74.0915 100.977 74.0263C101.079 73.9611 101.03 73.6677 101.128 73.5943C101.226 73.5209 101.398 73.5495 101.484 73.4557C101.57 73.362 101.705 73.313 101.782 73.2112C101.86 73.1093 101.803 72.9136 101.88 72.8158C101.958 72.718 102.269 72.8158 102.355 72.722C102.441 72.6283 102.433 72.4775 102.535 72.4041C102.637 72.3308 102.662 72.1636 102.756 72.0862C102.85 72.0088 103.075 72.0781 103.164 71.9965C103.254 71.915 103.148 71.6053 103.242 71.5237C103.336 71.4422 103.541 71.4952 103.635 71.4178C103.729 71.3403 103.807 71.2425 103.909 71.1691C104.011 71.0958 104.101 71.0143 104.203 70.945C104.305 70.8757 104.543 71.0183 104.645 70.949C104.747 70.8798 104.796 70.7289 104.898 70.6637C105.001 70.5985 104.943 70.2847 105.046 70.2154C105.148 70.1461 105.438 70.3621 105.54 70.2928C105.634 70.2276 105.643 70.0157 105.769 69.9994C105.88 69.9831 106.011 69.8812 106.133 69.8893C106.248 69.8934 106.379 69.8608 106.497 69.873C106.616 69.8852 106.722 69.9994 106.841 70.0034C106.967 70.0116 107.098 70.2276 107.209 70.2113C107.336 70.195 107.438 70.036 107.532 69.9708C107.626 69.9056 107.765 69.8567 107.83 69.7507C107.888 69.657 107.72 69.4491 107.769 69.3391C107.814 69.2331 107.867 69.1393 107.908 69.0293C107.949 68.9192 108.17 68.8785 108.215 68.7725C108.26 68.6625 108.088 68.4261 108.149 68.3323C108.215 68.2304 108.35 68.0796 108.444 68.0185C108.538 67.9573 108.808 68.316 108.918 68.2875C109.02 68.259 109.09 68.2141 109.2 68.2019C109.311 68.1897 109.405 68.1245 109.515 68.1204C109.625 68.1163 109.724 67.941 109.83 67.9288C109.936 67.9166 110.018 67.7984 110.124 67.7698C110.235 67.7413 110.357 67.8147 110.452 67.7576C110.574 67.6802 110.611 67.5212 110.697 67.4682C110.824 67.3867 111.077 67.5579 111.159 67.4968C111.253 67.4316 111.204 67.1911 111.314 67.1014C111.392 67.0403 111.498 66.9914 111.617 66.9017C111.699 66.8365 111.686 66.6245 111.797 66.5389C111.879 66.4778 112.01 66.5226 112.067 66.4248C112.116 66.3392 112.238 66.2822 112.279 66.1762C112.316 66.0784 112.161 65.9113 112.198 65.8053C112.234 65.6993 112.664 65.7564 112.705 65.6585C112.746 65.5607 112.598 65.3855 112.656 65.2958C112.713 65.2061 112.709 65.0553 112.786 64.9819C112.864 64.9086 112.954 64.7211 113.069 64.6803C113.171 64.6477 113.326 64.6966 113.445 64.6763C113.555 64.6559 113.69 64.7659 113.805 64.7496C113.919 64.7333 114.054 64.8148 114.165 64.7945C114.283 64.77 114.365 64.6192 114.467 64.5784C114.578 64.5336 114.508 64.338 114.578 64.2524C114.659 64.1586 114.815 64.1586 114.868 64.0445C114.921 63.9304 115.15 63.8855 115.191 63.7633C115.232 63.641 114.946 63.429 114.982 63.3068C115.019 63.1845 115.44 63.1845 115.481 63.0663C115.526 62.944 115.24 62.6709 115.301 62.5649C115.363 62.459 115.743 62.4957 115.776 62.3815C115.808 62.2674 115.502 62.084 115.514 61.9658C115.526 61.8476 115.575 61.7375 115.579 61.6193C115.583 61.5011 115.853 61.3992 115.866 61.2851C115.878 61.171 115.931 61.0813 115.96 60.9672C115.984 60.8694 115.78 60.69 115.829 60.5881C115.878 60.4944 115.939 60.4007 116.001 60.3069C116.062 60.2132 116.189 60.1724 116.246 60.0787C116.303 59.9849 116.299 59.8626 116.348 59.7689C116.397 59.6711 116.311 59.5529 116.336 59.451C116.36 59.345 116.475 59.2961 116.455 59.186C116.434 59.076 116.483 58.9496 116.418 58.86C116.356 58.7785 116.168 58.8233 116.082 58.7499C116.005 58.6847 115.931 58.6113 115.841 58.5461C115.751 58.4809 115.604 58.5013 115.518 58.4361C115.432 58.3709 115.547 58.057 115.469 57.9837C115.391 57.9103 115.293 57.8736 115.232 57.788C115.166 57.6943 114.978 57.6576 114.929 57.5475C114.88 57.4416 114.933 57.2867 114.888 57.1726C114.843 57.0584 114.635 57.0299 114.582 56.9199C114.528 56.8098 114.471 56.7405 114.402 56.6427C114.332 56.5449 114.459 56.2636 114.361 56.1862C114.279 56.121 114.087 56.178 114.001 56.0965C113.923 56.0232 113.944 55.8397 113.866 55.7582C113.788 55.6767 113.698 55.6074 113.617 55.53C113.535 55.4525 113.334 55.5137 113.244 55.4444C113.155 55.3751 113.175 55.1509 113.081 55.0939C112.987 55.0368 112.758 55.2691 112.656 55.2284C112.553 55.1876 112.517 55.1183 112.394 55.1346C112.283 55.1468 112.136 55.0001 112.018 55.0409C111.907 55.0776 111.776 55.0694 111.662 55.1102C111.547 55.1509 111.478 55.2977 111.367 55.3343C111.257 55.371 111.122 55.318 111.008 55.3343C110.885 55.3547 110.799 55.3425 110.685 55.3221C110.562 55.3017 110.411 55.5585 110.288 55.5504C110.165 55.5422 110.059 55.2569 109.936 55.2528C109.814 55.2487 109.691 55.5707 109.568 55.5667C109.446 55.5626 109.327 55.2854 109.2 55.2854C109.073 55.2854 108.967 55.1265 108.84 55.1183C108.726 55.1102 108.587 55.318 108.472 55.2569C108.374 55.2039 108.186 55.2447 108.084 55.1672C107.99 55.0979 107.949 54.9471 107.855 54.8697C107.761 54.7922 107.609 54.8045 107.515 54.7352C107.413 54.6618 107.344 54.6048 107.241 54.5558C107.127 54.5069 107.082 54.564 106.963 54.564C106.857 54.564 106.747 54.3154 106.636 54.3113C106.526 54.3072 106.415 54.3969 106.309 54.3887C106.203 54.3806 106.117 54.079 106.011 54.0708C105.904 54.0627 105.778 54.3643 105.671 54.3602C105.565 54.3561 105.463 54.2175 105.352 54.2175C105.242 54.2175 105.131 54.1646 105.025 54.1727C104.919 54.1809 104.8 54.1727 104.694 54.189C104.588 54.2053 104.457 54.1523 104.354 54.1768C104.252 54.2012 104.146 54.2339 104.04 54.2624C103.933 54.2909 103.851 54.3847 103.749 54.4091C103.647 54.4336 103.565 54.5436 103.459 54.564C103.353 54.5844 103.279 54.8452 103.173 54.8615C103.046 54.8778 102.911 54.8126 102.784 54.8289C102.657 54.8452 102.494 54.5232 102.367 54.5355C102.24 54.5477 102.13 54.7148 102.003 54.7311C101.876 54.7474 101.746 54.7393 101.619 54.7596C101.492 54.78 101.353 54.7107 101.226 54.7311C101.12 54.7474 101.059 54.9838 100.952 55.0164C100.846 55.049 100.744 55.0653 100.646 55.1061C100.547 55.1469 100.515 55.3384 100.412 55.3792C100.31 55.4199 100.118 55.2324 100.016 55.2691C99.9135 55.3058 99.8604 55.477 99.7582 55.5096C99.6559 55.5422 99.5578 55.6604 99.4515 55.6808C99.3451 55.7012 99.202 55.5748 99.0875 55.5707C98.973 55.5667 98.879 55.4525 98.7686 55.4362C98.6582 55.4199 98.5518 55.4036 98.4455 55.3873C98.3392 55.371 98.2492 55.1876 98.1388 55.1754C98.0284 55.1631 97.8853 55.3669 97.779 55.3629C97.6727 55.3588 97.5909 55.5218 97.4845 55.5422C97.3782 55.5626 97.1778 55.2895 97.0756 55.3343C96.9734 55.3792 96.8344 55.3833 96.7362 55.4362C96.6381 55.4892 96.7771 55.9294 96.6831 55.9865C96.589 56.0435 96.4745 56.0761 96.3805 56.1332C96.2864 56.1903 96.1106 56.1128 96.0124 56.1536C95.9143 56.1943 95.8161 56.3044 95.7139 56.3289C95.5912 56.3574 95.4195 56.1699 95.2968 56.1943C95.1741 56.2188 95.0883 56.443 94.9615 56.4674C94.8347 56.4919 94.7202 56.5612 94.5975 56.5856C94.4749 56.6101 94.3154 56.4593 94.1927 56.4878C94.07 56.5163 93.9883 56.7201 93.8656 56.7487C93.7429 56.7772 93.6161 56.818 93.4934 56.8465C93.3708 56.875 93.244 56.8913 93.1172 56.9199C92.9905 56.9484 92.8269 56.8017 92.7042 56.8302C92.5815 56.8587 92.5202 57.14 92.4016 57.1685C92.283 57.197 92.0704 56.8995 91.9477 56.9321C91.8414 56.9606 91.7474 57.091 91.6492 57.144C91.5511 57.197 91.3916 57.1848 91.3016 57.2541C91.2117 57.3234 91.2444 57.5394 91.1585 57.6128C91.0726 57.6861 90.8436 57.5842 90.7578 57.6494C90.6719 57.7147 90.631 57.8247 90.541 57.8777C90.4429 57.9388 90.4388 58.1793 90.3366 58.2078C90.2343 58.2364 90.1362 58.3953 90.0299 58.4075C89.9236 58.4198 89.7886 58.2893 89.6823 58.2934C89.576 58.2975 89.4615 58.1426 89.3551 58.1426C89.2488 58.1426 89.1425 58.3668 89.0362 58.3709C88.9299 58.3749 88.844 58.4768 88.7377 58.4891C88.6314 58.5013 88.4555 58.163 88.3574 58.1915C88.251 58.2241 88.2838 58.5787 88.1856 58.6276C88.0875 58.6766 87.9689 58.6521 87.8789 58.7092C87.789 58.7662 87.5232 58.591 87.4373 58.6562C87.3514 58.7214 87.3146 58.8559 87.2288 58.9211C87.1388 58.9904 87.2124 59.3002 87.1265 59.3532C87.0284 59.4143 86.8525 59.3654 86.7544 59.398C86.6154 59.4428 86.4436 59.3124 86.3414 59.345C86.1901 59.3898 86.1083 59.5325 86.0101 59.561C85.8588 59.6018 85.7321 59.5447 85.6258 59.5733C85.5235 59.6018 85.4622 59.7852 85.3109 59.8341C85.2128 59.8626 85.041 59.7363 84.8979 59.7852C84.7548 59.8341 84.6893 60.1602 84.5871 60.1765C84.4317 60.2009 84.26 60.1928 84.1495 60.1806C84.0391 60.1683 83.9328 59.8097 83.7815 59.8178C83.6793 59.8219 83.5689 59.9931 83.4176 60.0338C83.3113 60.0583 83.1313 59.9197 82.9923 59.9686C82.8778 60.0053 82.8205 60.2539 82.6897 60.2784C82.5711 60.2988 82.428 60.1969 82.2971 60.2132C82.1745 60.2295 82.064 60.3395 81.9373 60.3599C81.8105 60.3803 81.6633 60.2621 81.5365 60.2906C81.4098 60.3191 81.2503 60.2662 81.1317 60.3069C81.0335 60.3395 81.0172 60.6004 80.9231 60.6656C80.8373 60.7227 80.6083 60.6248 80.5224 60.6982C80.4365 60.7716 80.4406 60.9346 80.3588 61.008C80.277 61.0813 80.2034 61.1547 80.1176 61.224C80.0317 61.2933 80.1094 61.599 80.0153 61.656C79.9213 61.7131 79.7782 61.7701 79.6759 61.8068C79.5737 61.8435 79.3979 61.6479 79.2874 61.6642C79.177 61.6805 79.0789 61.7701 78.9726 61.7701C78.8663 61.7701 78.7558 61.9047 78.6495 61.9047C78.5432 61.9047 78.4287 61.546 78.3183 61.5501C78.2079 61.5541 78.1343 61.8557 78.028 61.872C77.9217 61.8884 77.7499 61.656 77.6517 61.6927C77.5332 61.7335 77.4228 61.7498 77.3001 61.7783C77.1774 61.8068 77.1079 62.0799 76.9852 62.1003C76.8625 62.1207 76.7439 62.1696 76.6213 62.19C76.4986 62.2103 76.3432 62.0799 76.2205 62.1085C76.0978 62.137 76.012 62.2715 75.8934 62.3163C75.7911 62.353 75.7176 62.4019 75.6235 62.4671C75.5376 62.5283 75.3495 62.4671 75.2677 62.5446C75.186 62.622 75.0101 62.5894 74.9283 62.6668C74.8465 62.7443 74.7811 62.8177 74.7034 62.8869C74.6257 62.9562 74.7443 63.2864 74.6544 63.3475C74.5644 63.4086 74.4254 63.4209 74.3231 63.4617C74.2045 63.5065 74.0778 63.535 73.9592 63.5676C73.8406 63.6002 73.7302 63.6817 73.6075 63.7103C73.4848 63.7388 73.3867 63.8529 73.264 63.8815C73.1413 63.91 72.9491 63.6695 72.8265 63.7062C72.7038 63.7429 72.622 63.8896 72.5034 63.9344C72.4053 63.9711 72.2417 63.9181 72.1517 63.9793C72.0618 64.0404 72.1231 64.2931 72.0413 64.3624C71.9595 64.4317 71.7346 64.338 71.6528 64.4113C71.5711 64.4847 71.661 64.7496 71.5792 64.8189C71.4975 64.8882 71.1989 64.6681 71.109 64.7252C71.019 64.7822 71.0599 65.0675 70.9618 65.1042C70.8636 65.1409 70.7409 65.1694 70.6305 65.1817C70.5201 65.1939 70.4097 65.2591 70.2993 65.2591C70.1889 65.2591 70.0826 65.1042 69.9722 65.1002C69.8618 65.0961 69.7473 64.9167 69.6409 64.9208C69.5346 64.9249 69.4079 65.0105 69.3015 65.0268C69.1952 65.0431 69.0971 65.1694 68.9948 65.2102C68.8803 65.255 68.7699 65.3202 68.6473 65.3529C68.5246 65.3855 68.3774 65.308 68.2547 65.3406C68.132 65.3732 68.0461 65.5281 67.9235 65.5607C67.8008 65.5933 67.6249 65.4425 67.5064 65.4792C67.3878 65.5159 67.3305 65.7523 67.216 65.7971C67.1179 65.8379 67.1465 66.0539 67.0565 66.1191C66.9666 66.1843 66.9175 66.2414 66.8357 66.3188C66.754 66.3963 66.5822 66.3637 66.5086 66.4411C66.435 66.5186 66.4513 66.706 66.3737 66.7794C66.296 66.8528 66.1201 66.8528 66.0342 66.9139C65.9484 66.975 65.7889 66.9588 65.6907 66.9995C65.5844 67.0443 65.4576 67.1829 65.335 67.1829C65.2246 67.1829 65.1183 66.9791 64.9956 66.9547C64.8811 66.9343 64.7216 67.1096 64.603 67.081C64.4844 67.0525 64.3699 67.0729 64.2554 67.0525C64.1327 67.028 64.0551 66.7224 63.9446 66.7183C63.822 66.7183 63.6216 66.6286 63.5193 66.6734C63.4171 66.7183 63.3721 66.9302 63.2863 67.0117C63.2045 67.0851 63.2495 67.2767 63.1759 67.3663C63.1023 67.456 62.9101 67.4438 62.8405 67.5375C62.771 67.6313 62.7506 67.7535 62.6811 67.8391C62.6075 67.9288 62.6361 68.1245 62.5543 68.1978C62.4684 68.2753 62.2435 68.1571 62.1413 68.2019C62.0268 68.2508 61.8264 68.1897 61.7201 68.2549C61.6138 68.3201 61.5647 68.4954 61.4625 68.5687C61.3602 68.6421 61.4338 68.9641 61.3316 69.0375C61.2294 69.1108 61.1231 69.2046 61.0208 69.2698C60.9186 69.335 60.6528 69.1271 60.5383 69.1801C60.4238 69.2331 60.3584 69.3839 60.248 69.441C60.1376 69.498 60.0967 69.6896 59.9863 69.7467C59.8759 69.8037 59.606 69.5551 59.4956 69.6122C59.3851 69.6692 59.2788 69.7303 59.1684 69.7833C59.058 69.8363 59.0662 70.1298 58.9517 70.1828C58.8535 70.2317 58.6941 70.0727 58.5796 70.089C58.4733 70.1053 58.3751 70.036 58.2606 70.036C58.1461 70.036 58.0275 70.2928 57.9171 70.2847C57.8067 70.2765 57.6963 70.248 57.5859 70.2439C57.4714 70.2439 57.3896 70.4069 57.2833 70.4233C57.1688 70.4396 57.0379 70.2561 56.9398 70.305C56.8416 70.354 56.7353 70.3784 56.629 70.4069C56.5227 70.4355 56.4532 70.6433 56.3427 70.6596C56.2323 70.6759 56.0851 70.4192 55.9788 70.4314C55.8725 70.4436 55.8111 70.7697 55.7089 70.786C55.6067 70.8023 55.4309 70.517 55.3327 70.5455C55.2346 70.5741 55.0874 70.5781 54.9933 70.627C54.8911 70.68 54.8911 70.9042 54.8175 71.0061C54.748 71.0958 54.5149 71.1121 54.4576 71.2262C54.4085 71.3322 54.5026 71.5115 54.4576 71.6256C54.4126 71.7398 54.4372 71.8824 54.3881 71.9884C54.3349 72.1025 54.2859 72.2289 54.2204 72.3226C54.1468 72.4286 53.9914 72.4612 53.8892 72.5142C53.7788 72.5753 53.6684 72.6283 53.5539 72.6772C53.4394 72.7261 53.2881 72.6772 53.1695 72.722C53.0509 72.7669 53.0018 72.9829 52.8832 73.0277C52.7647 73.0726 52.6134 73.0318 52.5029 73.0848C52.3925 73.1378 52.3639 73.3416 52.2617 73.4068C52.1595 73.472 52.0736 73.578 51.9673 73.6432C51.8609 73.7084 51.6892 73.6676 51.587 73.7288C51.4847 73.7899 51.3907 73.8878 51.2885 73.953C51.1862 74.0182 50.9327 73.8551 50.8305 73.9244C50.7282 73.9937 50.7037 74.1812 50.6015 74.2505C50.4992 74.3198 50.4174 74.4258 50.3316 74.5114C50.2457 74.597 50.0821 74.6296 50.0044 74.7274C49.9267 74.8252 50.0985 75.1187 50.0249 75.2165C49.9513 75.3143 49.8572 75.4203 49.7795 75.514C49.7018 75.6078 49.4156 75.5263 49.3215 75.6037C49.2234 75.6852 49.207 75.9053 49.0966 75.9624C48.9862 76.0194 48.7777 75.8972 48.6632 75.9461C48.5487 75.995 48.5323 76.3007 48.4178 76.3496C48.2951 76.4026 48.0825 76.2314 47.9762 76.2966C47.8617 76.3618 47.9312 76.5901 47.8535 76.6838C47.784 76.7694 47.5591 76.7246 47.4936 76.8061C47.4282 76.8876 47.4527 77.0466 47.3873 77.1321C47.3219 77.2177 47.0234 77.1403 46.9661 77.2259C46.9048 77.3156 47.1011 77.5683 47.052 77.6579C46.9989 77.7558 46.778 77.768 46.7453 77.8658C46.7085 77.9718 46.7249 78.0941 46.7167 78.196C46.7085 78.306 46.6512 78.4324 46.6717 78.5424C46.6921 78.6525 46.7249 78.7707 46.7658 78.8766C46.8067 78.9744 46.8394 79.1008 46.9007 79.1986C46.958 79.2883 47.2933 79.1782 47.3628 79.2638C47.4323 79.3494 47.3015 79.6021 47.3832 79.6796C47.465 79.757 47.6899 79.6551 47.7758 79.7244C47.878 79.8059 47.8044 80.079 47.8821 80.1238C48.0007 80.1931 48.1275 80.2298 48.2133 80.2421C48.3156 80.2543 48.4219 80.0831 48.5446 80.079C48.6345 80.079 48.7449 80.1238 48.8717 80.1402C48.9617 80.1524 49.023 80.348 49.1457 80.3806C49.2398 80.4051 49.4483 80.1075 49.5628 80.1483C49.6773 80.1891 49.7509 80.3806 49.8695 80.4418C49.9758 80.4988 50.1271 80.4866 50.2416 80.5518C50.3479 80.6089 50.4542 80.6619 50.5687 80.7189C50.6792 80.7719 50.6628 81.1428 50.7855 81.1836C50.9 81.2243 51.1085 80.9676 51.2353 80.9961C51.3539 81.0205 51.5093 81.0165 51.636 81.0613C51.7546 81.1021 51.7383 81.5015 51.8609 81.5504C51.9836 81.5993 52.2412 81.2692 52.3639 81.314C52.4866 81.3588 52.5766 81.4404 52.6992 81.473C52.8219 81.5056 52.8873 81.8765 53.0182 81.8928C53.1204 81.905 53.2431 81.5708 53.3535 81.5626C53.4639 81.5545 53.5662 81.6197 53.6725 81.6034C53.7788 81.5871 53.8892 81.6115 53.9955 81.5912C54.1018 81.5708 54.2041 81.5504 54.3104 81.5341C54.4167 81.5178 54.5067 81.2936 54.613 81.2855C54.7193 81.2773 54.8543 81.2733 54.9606 81.2773C55.0669 81.2814 55.1242 81.2692 55.2305 81.2488C55.3368 81.2284 55.4881 81.4404 55.5903 81.4078C55.6926 81.3752 55.852 81.5096 55.9584 81.473C56.0647 81.4363 56.0483 81.0735 56.1506 81.0409C56.2528 81.0083 56.4409 81.3344 56.5472 81.314C56.6535 81.2936 56.7149 81.098 56.8253 81.098C56.9479 81.098 57.0706 81.0409 57.1974 81.0409C57.3242 81.0409 57.4427 80.9757 57.5695 80.9757C57.6963 80.9757 57.8149 81.1877 57.9417 81.1877C58.0684 81.1877 58.1829 80.9513 58.3097 80.9472C58.4364 80.9431 58.5509 80.9268 58.6777 80.9186C58.784 80.9105 58.874 81.1713 58.9844 81.1958C59.0866 81.2162 59.287 80.935 59.3933 80.9716C59.4996 81.0083 59.561 81.1632 59.6632 81.1999C59.7654 81.2366 59.9126 81.1265 60.019 81.1591C60.1253 81.1917 60.1621 81.4567 60.2684 81.473C60.3747 81.4893 60.4811 81.3752 60.5915 81.367C60.7141 81.3548 60.8491 81.4404 60.9759 81.4241C61.1026 81.4078 61.2498 81.5789 61.3725 81.5626C61.4952 81.5463 61.5647 81.1347 61.6915 81.1184C61.8182 81.1021 61.9491 81.1632 62.0759 81.1469C62.2026 81.1306 62.3294 81.1306 62.4603 81.1143C62.5666 81.098 62.7424 81.3099 62.8487 81.2651C62.9469 81.2243 63.0368 81.1265 63.135 81.0695C63.2331 81.0124 63.2249 80.8004 63.319 80.7393C63.413 80.6782 63.4498 80.5151 63.5439 80.4622C63.6379 80.4092 63.7647 80.3603 63.8669 80.3195C63.9692 80.2787 64.1532 80.4662 64.2595 80.4458C64.3658 80.4255 64.4803 80.1728 64.6112 80.1687C64.7298 80.1687 64.8606 80.3073 64.9874 80.3113C65.106 80.3113 65.2205 80.5844 65.3432 80.5885C65.4658 80.5926 65.5967 80.5274 65.7194 80.5314C65.842 80.5355 65.9688 80.3358 66.0874 80.3317C66.2183 80.3276 66.4472 80.1972 66.5576 80.1768C66.6272 80.2991 66.6967 80.5885 66.6967 80.6741C66.6967 80.7882 66.5209 80.9064 66.4268 80.9839C66.3532 81.045 66.1651 80.9513 66.0547 81.0083C65.9647 81.0572 65.9156 81.1958 65.8175 81.2569C65.7275 81.3099 65.5353 81.2325 65.4413 81.3018C65.3554 81.3629 65.4208 81.6279 65.335 81.7094C65.2573 81.7827 65.29 81.9295 65.2205 82.0232C65.151 82.117 64.8116 82.0884 64.7747 82.2189C64.742 82.333 65.0201 82.5286 64.9956 82.659C64.9751 82.7813 65.0242 82.924 64.9956 83.0503C64.967 83.1767 64.8443 83.2949 64.7993 83.4131C64.7543 83.5313 64.513 83.5517 64.4394 83.6576C64.374 83.7473 64.3576 83.9103 64.2309 83.9593C64.1286 84 64.006 84.0448 63.8792 84.0734C63.7647 84.0978 63.6461 84.1386 63.5275 84.163C63.4089 84.1875 63.2576 84.0775 63.1431 84.1101C63.0205 84.1427 63.0164 84.4239 62.9142 84.4769C62.7997 84.534 62.4602 84.3179 62.3948 84.4117C62.3294 84.5054 62.3335 84.6848 62.2844 84.7989C62.2353 84.913 62.3907 85.0964 62.3498 85.2146C62.3089 85.3328 62.3621 85.4755 62.3212 85.5937C62.2803 85.7119 62.2353 85.8423 62.1863 85.9524C62.1372 86.0624 61.7773 86.0176 61.7078 86.1195C61.6383 86.2214 61.8264 86.4537 61.7733 86.5678C61.7201 86.6819 61.7651 86.8124 61.7242 86.9265C61.6833 87.0406 61.5606 87.1221 61.5197 87.2363C61.4788 87.3504 61.5075 87.5053 61.4584 87.6153C61.4093 87.7254 61.1558 87.7458 61.0944 87.8476C61.0331 87.9495 61.029 88.133 60.9349 88.2226C60.845 88.3042 60.6242 88.243 60.522 88.3164C60.4197 88.3897 60.2275 88.3449 60.1253 88.4183C60.0231 88.4916 60.113 88.8014 60.0231 88.887C59.9331 88.9726 59.7123 88.9644 59.6509 89.0745C59.5896 89.1845 59.7654 89.3843 59.7286 89.5065C59.6918 89.6288 59.6918 89.7348 59.6673 89.8571C59.6428 89.9793 59.2747 90.0282 59.2502 90.1505C59.2257 90.2728 59.3075 90.4073 59.2707 90.5255C59.2338 90.6437 59.3483 90.8271 59.287 90.9331C59.2257 91.0391 58.8944 91.0594 58.8658 91.1817C58.8372 91.304 59.1684 91.4915 59.152 91.6138C59.1357 91.736 59.1888 91.8665 59.1725 91.9887C59.1561 92.111 58.9026 92.2048 58.8781 92.323C58.8535 92.4412 58.784 92.539 58.7268 92.649C58.6695 92.7591 58.6123 92.8488 58.5428 92.9507C58.4732 93.0526 58.4446 93.1748 58.371 93.2686C58.2974 93.3623 58.3792 93.5824 58.3056 93.6762C58.232 93.7699 57.9703 93.7251 57.9048 93.8229C57.8394 93.9207 57.8353 94.0593 57.7863 94.1693C57.7372 94.2794 57.7658 94.4261 57.7126 94.5321C57.6595 94.6381 57.4918 94.6911 57.4387 94.797C57.3855 94.903 57.41 95.0497 57.361 95.1557C57.3119 95.2617 57.2874 95.3799 57.2383 95.4899C57.1892 95.6 57.1524 95.7059 57.1115 95.816C57.0665 95.9342 57.1115 96.0972 57.0665 96.1788C57.0052 96.2888 56.8294 96.3173 56.7721 96.3989C56.7149 96.4804 56.5472 96.5007 56.494 96.6067C56.4532 96.6882 56.4491 96.8105 56.4123 96.9328C56.2732 96.9246 56.1587 97.0958 56.0606 97.0958C55.9093 97.0958 55.803 96.888 55.713 96.8798C55.6026 96.8676 55.5944 96.7942 55.4881 96.6882C55.4268 96.6271 55.1855 96.6882 55.0955 96.57C55.0383 96.4926 55.1242 96.2888 55.0465 96.1788C54.9892 96.0972 55.1037 95.9872 55.0751 95.8731C55.0546 95.7752 54.8952 95.706 54.887 95.5918C54.8747 95.4859 54.8093 95.384 54.797 95.2739C54.7848 95.1639 54.9442 95.0253 54.9238 94.9193C54.9033 94.8133 54.6662 94.7522 54.6294 94.6544C54.5926 94.5566 54.6621 94.3691 54.5966 94.2835C54.523 94.1897 54.2981 94.206 54.2327 94.096C54.1714 93.9941 54.3104 93.7699 54.2491 93.6639C54.1877 93.558 53.9546 93.5539 53.8892 93.4479C53.8238 93.3419 53.7338 93.2645 53.6643 93.1626C53.5948 93.0607 53.4844 93.0118 53.4026 92.9221C53.3208 92.8325 53.4803 92.4982 53.3862 92.4126C53.2922 92.327 53.145 92.3107 53.0468 92.2333C52.9487 92.1559 52.8301 92.1151 52.736 92.0377C52.642 91.9602 52.4416 92.0132 52.3476 91.9358C52.2535 91.8583 52.1022 91.8339 52.0123 91.7483C51.9223 91.6627 51.8364 91.5893 51.7464 91.5078C51.6565 91.4263 51.6851 91.2225 51.5951 91.141C51.5052 91.0594 51.5502 90.8312 51.4602 90.7497C51.3702 90.6682 51.1535 90.7293 51.0595 90.6519C50.9654 90.5744 50.8223 90.554 50.7282 90.4766C50.6342 90.3992 50.6137 90.2076 50.5033 90.1505C50.3929 90.0935 50.2007 90.2239 50.0862 90.1791C49.9717 90.1342 49.8858 90.0201 49.7672 89.9753C49.6487 89.9304 49.571 89.8081 49.4606 89.7552C49.3501 89.7022 49.3583 89.4984 49.2561 89.425C49.1539 89.3516 49.0026 89.3883 48.9126 89.2987C48.8226 89.209 48.7081 89.1601 48.6305 89.0663C48.5528 88.9726 48.4096 88.9318 48.3279 88.8422C48.2461 88.7525 48.0621 88.7729 47.9721 88.6914C47.8821 88.6098 47.923 88.3897 47.8208 88.3205C47.7308 88.2634 47.6531 88.133 47.5427 88.1085C47.4405 88.0881 47.3096 88.2023 47.1992 88.1941C47.0929 88.19 46.9866 88.0107 46.8762 88.0107C46.7657 88.0107 46.6553 88.2022 46.549 88.1982C46.4427 88.1941 46.3037 88.2634 46.2014 88.243C46.091 88.2226 46.0461 88.0066 45.952 87.9536C45.858 87.9006 45.7843 87.8395 45.7148 87.7335C45.6535 87.6439 45.768 87.4727 45.7148 87.3585C45.6698 87.2526 45.5513 87.1833 45.5063 87.0732C45.4613 86.9632 45.3918 86.8531 45.3427 86.7512C45.2895 86.6412 45.2732 86.4782 45.2078 86.3885C45.1342 86.2866 44.9501 86.2132 44.8479 86.1643C44.7457 86.1154 44.5903 86.364 44.4594 86.3763C44.349 86.3844 44.2018 86.2051 44.0832 86.2377C43.9728 86.2703 43.8869 86.4048 43.7724 86.4455C43.6579 86.4863 43.5925 86.7023 43.4821 86.7349C43.3635 86.7675 43.1631 86.3681 43.0486 86.3803C42.9219 86.3926 42.7542 86.7594 42.6479 86.7146C42.5375 86.6697 42.5865 86.2662 42.4802 86.2132C42.3739 86.1602 42.1122 86.4252 42.0059 86.3722C41.8996 86.3192 41.9159 86.0298 41.8096 85.9768C41.7033 85.9238 41.5233 86.0339 41.4129 85.985C41.3025 85.9361 41.2698 85.6834 41.1553 85.6467C41.0408 85.61 40.8077 85.9035 40.6973 85.8586C40.5869 85.8138 40.6237 85.4307 40.5133 85.3817C40.4029 85.3328 40.1943 85.5163 40.0839 85.4714C39.9735 85.4266 39.9449 85.1779 39.8304 85.1372C39.7159 85.0964 39.5646 85.1657 39.4501 85.1372C39.3356 85.1087 39.1925 85.2758 39.0739 85.2676C38.9553 85.2595 38.8531 85.0231 38.7304 85.0231C38.6077 85.0231 38.4891 85.0434 38.3705 85.0434C38.252 85.0434 38.1375 84.9864 38.0189 84.9782C37.9003 84.9701 37.7776 85.0434 37.659 85.0231C37.5404 85.0027 37.4137 85.0068 37.2992 84.966C37.1847 84.9252 37.0375 84.9579 36.9271 84.9089C36.8167 84.86 36.8126 84.5706 36.6981 84.5217C36.5836 84.4728 36.3791 84.6929 36.2605 84.6562C36.1419 84.6196 36.0438 84.6562 35.9252 84.6358C35.8066 84.6155 35.7412 84.2568 35.6226 84.2323C35.504 84.2079 35.3772 84.2649 35.2586 84.2405C35.1401 84.216 35.0256 84.1834 34.907 84.163C34.7884 84.1427 34.6289 84.3831 34.5103 84.3668C34.3917 84.3505 34.2854 84.375 34.1627 84.3668C34.0401 84.3587 33.9378 84.1875 33.8152 84.2038C33.6925 84.2201 33.578 84.2446 33.4594 84.2731C33.3408 84.3016 33.2181 84.3016 33.0995 84.3261C32.981 84.3505 32.8746 84.4524 32.7519 84.4687C32.6293 84.485 32.4984 84.2731 32.3798 84.2731C32.2735 84.2731 32.1672 84.3954 32.0609 84.3628C31.9627 84.3302 31.8564 84.2976 31.7583 84.2446C31.6601 84.1916 31.562 84.1508 31.4679 84.0978C31.3739 84.0448 31.3616 83.8166 31.2635 83.7718C31.1653 83.7269 30.9772 83.8696 30.875 83.8411C30.7687 83.8085 30.6705 83.731 30.5642 83.7351C30.4579 83.7392 30.3802 83.8574 30.2739 83.9022C30.1798 83.943 30.1676 84.1101 30.0735 84.1712C29.9835 84.2323 29.6809 83.9878 29.591 84.053C29.501 84.1182 29.5991 84.4484 29.5092 84.5054C29.4192 84.5625 29.3293 84.697 29.2311 84.7418C29.1289 84.7907 28.9244 84.5177 28.8181 84.5258C28.6995 84.538 28.5727 84.5258 28.4542 84.5462C28.3356 84.5666 28.2047 84.5299 28.0902 84.5543C27.9757 84.5788 27.9021 84.8233 27.7835 84.8478C27.6649 84.8722 27.5177 84.7133 27.3991 84.7337C27.2806 84.7541 27.1824 84.8478 27.0638 84.8682C26.9452 84.8886 26.8103 84.75 26.6917 84.7663C26.5731 84.7826 26.4586 84.7948 26.34 84.807C26.2214 84.8193 26.1029 84.8478 25.9884 84.8641C25.8739 84.8804 25.8003 85.2146 25.6817 85.235C25.5631 85.2554 25.4118 85.072 25.2973 85.0964C25.1582 85.125 25.0029 85.4062 24.8924 85.3736C24.7698 85.341 24.782 84.9415 24.6675 84.8886C24.553 84.8356 24.414 84.7296 24.2913 84.7011C24.1809 84.6766 24.046 84.7989 23.9069 84.8315C23.8374 84.7092 23.7761 84.6644 23.7229 84.5788C23.6411 84.4524 23.6452 84.3342 23.6043 84.2527C23.5512 84.1508 23.3467 84.0938 23.3753 83.9511C23.3917 83.8614 23.3917 83.7269 23.4448 83.5883C23.4776 83.4946 23.498 83.3723 23.5512 83.246C23.5921 83.1482 23.7679 83.0544 23.8824 82.9729C23.9724 82.9077 24.2054 83.0666 24.3199 83.0055C24.4263 82.9525 24.4058 82.6427 24.5162 82.5857C24.6266 82.5286 24.7534 82.5205 24.8556 82.4593C24.966 82.3941 25.1051 82.3819 25.1869 82.3004C25.2768 82.2107 25.1623 82.0477 25.195 81.9335C25.2278 81.8276 25.3872 81.7664 25.3545 81.6401C25.3259 81.5341 25.4077 81.367 25.3545 81.2529C25.3055 81.151 25.1991 81.0654 25.1419 80.9553C25.0846 80.8453 25.0724 80.7312 25.0274 80.6211C24.9783 80.507 24.9579 80.4132 24.9333 80.3032C24.9047 80.1809 24.6839 80.0709 24.7084 79.9608C24.733 79.8508 24.8965 79.7652 24.9374 79.651C24.9783 79.5369 25.101 79.4636 25.146 79.3535C25.191 79.2435 25.0396 79.056 25.0846 78.9418C25.1296 78.8277 25.4077 78.7992 25.4404 78.681C25.4731 78.5628 25.1173 78.3794 25.1337 78.2571C25.1501 78.1348 25.4159 78.0533 25.4486 77.9351C25.4813 77.8169 25.3136 77.6335 25.3545 77.5194C25.3954 77.4052 25.6857 77.3767 25.7225 77.2626C25.7593 77.1485 25.8616 77.0384 25.8861 76.9202C25.9107 76.802 25.6326 76.6512 25.6367 76.5289C25.6408 76.4067 25.9475 76.2925 25.9393 76.1702C25.9311 76.048 25.9883 75.9175 25.9761 75.7993C25.9638 75.6811 25.559 75.6037 25.5467 75.4855C25.5344 75.3673 25.8452 75.2124 25.833 75.0901C25.8207 74.9679 25.6776 74.866 25.6735 74.7437C25.6694 74.6214 25.8411 74.4665 25.8166 74.3483C25.7921 74.2301 25.7716 74.0956 25.7389 73.9815C25.7062 73.8674 25.608 73.7695 25.5712 73.6554C25.5344 73.5413 25.2278 73.5046 25.1991 73.3905C25.1705 73.2764 25.4118 73.1011 25.3913 72.9829C25.3709 72.8647 25.1419 72.7913 25.1051 72.6813C25.0683 72.5712 25.2523 72.3756 25.2073 72.2655C25.1623 72.1555 24.9292 72.1229 24.8843 72.0128C24.8393 71.9028 24.8597 71.7683 24.8188 71.6582C24.7779 71.5482 24.6757 71.4585 24.643 71.3444C24.6103 71.2303 24.7125 71.0917 24.6961 70.9776C24.6798 70.8634 24.4344 70.7738 24.4222 70.6556C24.4099 70.5374 24.6757 70.3866 24.6594 70.2724C24.643 70.1583 24.504 70.0523 24.4794 69.9382C24.4549 69.8241 24.4549 69.6937 24.414 69.5836C24.3772 69.4858 24.3772 69.3961 24.369 69.282C24.3608 69.1801 24.4017 69.0823 24.4058 68.9722C24.4099 68.8622 24.1564 68.7358 24.1645 68.6299C24.1727 68.5239 24.414 68.4301 24.4181 68.3242C24.4222 68.2182 24.279 68.1122 24.2668 68.0103C24.2504 67.9003 24.1482 67.8595 24.1032 67.7617C24.0501 67.6557 24.1973 67.4397 24.14 67.3297C24.0828 67.2196 23.8988 67.187 23.8374 67.081C23.7761 66.975 23.8129 66.812 23.7515 66.706C23.6902 66.6001 23.5144 66.5675 23.4489 66.4615C23.3835 66.3555 23.5103 66.1354 23.4448 66.0294C23.3794 65.9235 23.3181 65.8297 23.2568 65.7238C23.1954 65.6178 22.8356 65.683 22.7742 65.577C22.7129 65.471 22.6638 65.361 22.6025 65.255C22.5411 65.1491 22.5043 65.039 22.4348 64.9371C22.3653 64.8352 22.3407 64.7129 22.2671 64.6192C22.1854 64.5173 22.2426 64.3176 22.169 64.2564C22.079 64.179 22.0586 63.9915 21.9645 63.9344C21.8705 63.8774 21.7969 63.8529 21.6988 63.7755C21.6251 63.7143 21.2653 63.8162 21.1753 63.7225C21.2407 63.5798 21.3225 63.3801 21.3675 63.3312C21.4575 63.2212 21.7642 63.2049 21.8868 63.2986C21.9564 63.3516 21.8541 63.7429 21.9768 63.7877C22.0627 63.8162 22.2263 63.5146 22.353 63.5187C22.4471 63.5187 22.5779 63.8815 22.7006 63.8652C22.8151 63.8489 22.9173 63.6573 23.04 63.6165C23.1504 63.5798 23.2649 63.5269 23.3835 63.4779C23.4939 63.4331 23.5839 63.3271 23.7025 63.2823C23.8211 63.2375 23.9069 63.1152 24.0255 63.0785C24.1441 63.0418 24.2709 62.9929 24.3935 62.9685C24.508 62.9481 24.6634 63.1396 24.7861 63.1193C24.9088 63.0989 25.0151 63.0255 25.1337 63.0051C25.2523 62.9848 25.3586 62.9114 25.4813 62.891C25.604 62.8706 25.6939 62.7158 25.8166 62.6954C25.9393 62.675 26.062 62.728 26.1846 62.7035C26.3073 62.6791 26.43 62.7158 26.5445 62.6628C26.659 62.6098 26.6835 62.4182 26.7939 62.3571C26.9043 62.2959 27.1824 62.5486 27.2887 62.4875C27.3951 62.4264 27.4032 62.1737 27.5136 62.1247C27.624 62.0758 27.7385 61.9862 27.8612 61.9576C27.9839 61.9291 28.127 62.0432 28.2456 62.0188C28.3642 61.9943 28.5114 62.1492 28.6341 62.1288C28.7568 62.1084 28.8304 61.8843 28.949 61.8598C29.0675 61.8354 29.2148 61.9373 29.3333 61.9128C29.4519 61.8884 29.591 61.9087 29.7055 61.8761C29.82 61.8435 29.8977 61.6479 30.0244 61.6479C30.1471 61.6479 30.2861 61.493 30.4129 61.5011C30.5397 61.5093 30.6542 61.6194 30.7809 61.6275C30.9077 61.6357 31.0222 61.5541 31.1449 61.546C31.2676 61.5378 31.378 61.5867 31.5006 61.5501C31.6029 61.5175 31.6846 61.4889 31.7746 61.4156C31.8564 61.3503 31.8073 61.171 31.885 61.0854C31.9586 61.0039 32.1508 61.0283 32.2203 60.9427C32.2899 60.8572 32.5352 60.9183 32.6088 60.8368C32.6865 60.7512 32.4984 60.3925 32.5843 60.3273C32.6743 60.2539 32.8583 60.2417 32.9605 60.2091C33.075 60.1724 33.2508 60.3151 33.3653 60.2743C33.4798 60.2336 33.5616 60.1194 33.6761 60.0787C33.7906 60.0379 33.9297 60.0705 34.0401 60.0298C34.1505 59.989 34.3059 60.0542 34.4163 60.0134C34.5267 59.9727 34.5921 59.7974 34.7025 59.7526C34.8129 59.7078 34.9806 59.7933 35.091 59.7444C35.2014 59.6955 35.1728 59.3328 35.2832 59.2839C35.3936 59.235 35.5326 59.2553 35.6389 59.2064C35.7453 59.1575 35.8966 59.1983 36.007 59.1494C36.1174 59.1005 36.2728 59.1697 36.3832 59.1208C36.4813 59.0801 36.5263 58.8967 36.6367 58.8844C36.7389 58.8763 36.8534 58.864 36.9598 58.8681C37.0661 58.8722 37.1888 58.6929 37.2951 58.701C37.4014 58.7092 37.4954 58.917 37.6018 58.9211C37.7081 58.9252 37.8471 59.1738 37.9535 59.1616C38.0639 59.1494 38.0802 58.7703 38.1784 58.7295C38.2929 58.6806 38.5587 58.86 38.6568 58.7785C38.7549 58.6969 38.8654 58.6073 38.9512 58.5135C39.0371 58.4198 39.1393 58.3464 39.2293 58.2567C39.3193 58.1671 39.3602 58.057 39.4542 57.9755C39.5483 57.894 39.446 57.4945 39.5564 57.4375C39.6668 57.3804 39.8631 57.36 39.994 57.3397C40.1167 57.3193 40.2721 57.4416 40.4029 57.4334C40.5338 57.4253 40.6687 57.6739 40.7955 57.6657C40.9222 57.6576 41.0163 57.3071 41.139 57.2867C41.2698 57.2622 41.3475 57.2622 41.4579 57.2011C41.5683 57.1399 41.7769 57.2867 41.8873 57.2378C41.9977 57.1889 42.0631 57.0258 42.1776 56.981C42.2921 56.9362 42.4394 56.981 42.5539 56.9362C42.6684 56.8913 42.7542 56.7813 42.8605 56.7283C42.9669 56.6753 43.0691 56.6142 43.1754 56.5489C43.2695 56.496 43.3758 56.4593 43.4494 56.3696C43.5148 56.2881 43.568 56.1862 43.6211 56.0884C43.6743 55.9946 43.9237 55.9906 43.9728 55.8887C44.0219 55.7868 43.7193 55.5137 43.7724 55.4159C43.8256 55.318 43.8747 55.1795 43.9401 55.0979C44.0096 55.0083 44.3163 55.1591 44.4063 55.0979C44.5085 55.0327 44.6475 54.9797 44.7375 54.9023C44.8275 54.8249 44.7743 54.5844 44.8602 54.4988C44.946 54.4132 45.126 54.4213 45.2078 54.3317C45.2895 54.242 45.3304 54.1157 45.4163 54.0341C45.5022 53.9526 45.6494 53.9608 45.7475 53.8915C45.8375 53.8263 45.8948 53.8629 46.0215 53.8466C46.1319 53.8303 46.226 53.5246 46.3487 53.5287C46.4632 53.5287 46.594 53.4635 46.7126 53.4717C46.8312 53.4798 46.9375 53.7121 47.052 53.7162C47.1788 53.7162 47.3015 53.704 47.4119 53.6836C47.5386 53.6632 47.7717 53.7692 47.8617 53.6999C47.9475 53.6347 47.8085 53.3372 47.8699 53.2434C47.9271 53.1537 47.8699 53.0274 47.9148 52.9255C47.9598 52.8236 48.3319 52.8603 48.3687 52.7584C48.4055 52.6565 48.0907 52.4079 48.1356 52.31C48.1806 52.2122 48.4546 52.2081 48.5078 52.1185C48.565 52.0206 48.7041 52.0288 48.7858 51.9595C48.8799 51.878 48.8145 51.5682 48.929 51.5071C49.0435 51.4459 49.1989 51.4785 49.3174 51.4256C49.436 51.3726 49.5628 51.3685 49.6773 51.3196C49.7918 51.2707 49.8572 51.1362 49.9635 51.075C50.0699 51.0139 50.3438 51.1566 50.4338 51.075C50.5238 50.9935 50.491 50.7775 50.5606 50.6756C50.6301 50.5737 50.8714 50.5656 50.9327 50.4555C50.994 50.3455 51.0145 50.2191 51.0717 50.1091C51.129 49.999 51.0594 49.8237 51.1249 49.7218C51.1903 49.6199 51.1412 49.4039 51.223 49.3143C51.3048 49.2246 51.4725 49.1797 51.5829 49.1105C51.6933 49.0412 51.816 48.9923 51.9305 48.9352C52.045 48.8781 52.1227 48.7599 52.2372 48.7029C52.3517 48.6458 52.4621 48.6173 52.5643 48.5521C52.6665 48.4869 52.9078 48.5684 52.9896 48.4746C53.0714 48.3809 52.9896 48.1363 53.0755 48.0467C53.1613 47.957 53.2063 47.8184 53.2963 47.7369C53.3862 47.6554 53.5457 47.6472 53.6357 47.5616C53.7256 47.476 54.061 47.6391 54.1468 47.5494C54.2327 47.4597 54.1959 47.2478 54.2695 47.154C54.3349 47.0684 54.384 46.9462 54.4167 46.8361C54.4453 46.7342 54.6089 46.6323 54.6253 46.5182C54.6375 46.4122 54.5517 46.2818 54.5558 46.1718C54.5598 46.0617 54.6662 45.9639 54.6784 45.8538C54.6907 45.7438 54.4085 45.5848 54.4372 45.4789C54.4658 45.3688 54.4494 45.1854 54.5108 45.0957C54.5721 45.0061 54.8747 45.1242 54.9606 45.055C55.0424 44.9897 54.9647 44.6881 55.0587 44.6311C55.1528 44.574 55.394 44.7778 55.4922 44.7248C55.5903 44.6718 55.7048 44.6433 55.7948 44.5862C55.8848 44.5292 55.8071 44.2398 55.8848 44.1705C55.9665 44.0971 56.2446 44.1909 56.3019 44.0971C56.3632 43.9952 56.216 43.7711 56.2732 43.661C56.3305 43.551 56.3837 43.4491 56.4327 43.339C56.4818 43.229 56.4409 43.0782 56.49 42.964C56.539 42.8499 56.9479 42.9029 57.0011 42.7928C57.0543 42.6828 57.0461 42.5524 57.0992 42.4423C57.1483 42.3486 56.8703 42.157 56.8825 42.047C56.8948 41.9451 56.9112 41.8635 56.9071 41.7535C56.903 41.6434 57.0298 41.5334 57.0216 41.4234C57.0134 41.3133 56.9561 41.2033 56.952 41.0973C56.9479 40.9913 56.9112 40.8568 56.9193 40.7549C56.9316 40.6449 57.2383 40.6204 57.2792 40.5267C57.3201 40.4329 57.1729 40.2413 57.2301 40.1435C57.2833 40.0498 57.4059 39.9968 57.4673 39.903C57.5286 39.8093 57.729 39.8134 57.7863 39.7237C57.8435 39.634 57.8231 39.4832 57.8803 39.3895C57.9375 39.2957 58.1216 39.2631 58.1706 39.1653C58.2238 39.0675 58.1461 38.9371 58.1829 38.8392C58.3138 38.7659 58.3383 38.5335 58.4323 38.5295C58.5591 38.5254 58.7636 38.5499 58.8658 38.6232C58.9517 38.6844 58.968 38.8759 59.0662 38.9574C59.1521 39.0267 59.287 39.0145 59.3974 39.0797C59.4915 39.1327 59.5078 39.4058 59.6346 39.4384C59.7409 39.4669 59.8799 39.5199 60.0108 39.5281C60.1253 39.5321 60.248 39.312 60.3788 39.2998C60.4974 39.2876 60.6364 39.4384 60.7632 39.4221C60.8818 39.4058 60.9677 39.1245 61.0903 39.1082C61.213 39.0919 61.3684 39.4629 61.4911 39.4547C61.6138 39.4465 61.7201 39.0675 61.8469 39.0716C61.9655 39.0716 62.0759 39.4058 62.1985 39.4099C62.3212 39.4139 62.4357 39.4832 62.5584 39.4873C62.6811 39.4914 62.8119 39.0919 62.9346 39.096C63.0573 39.1001 63.1718 39.1775 63.2944 39.1775C63.4171 39.1775 63.5357 39.3528 63.6584 39.3528C63.7811 39.3528 63.8751 39.039 64.0019 39.0267C64.1286 39.0145 64.2881 39.4425 64.4108 39.4262C64.5335 39.4099 64.5989 39.0023 64.7175 38.986C64.8361 38.9697 65.0037 39.365 65.1264 39.3528C65.2491 39.3406 65.3391 38.933 65.4617 38.9289C65.5844 38.9248 65.6948 38.9778 65.8175 38.9615C65.9402 38.9452 66.071 39.0186 66.1896 38.9982C66.3082 38.9778 66.4595 39.1245 66.5781 39.1001C66.6967 39.0756 66.7948 38.9534 66.9134 38.933C67.032 38.9126 67.1588 39.0716 67.2814 39.0634C67.4041 39.0553 67.5063 38.9044 67.629 38.9085C67.7517 38.9126 67.858 39.0471 67.9807 39.0553C68.1034 39.0634 68.2424 38.7088 68.3651 38.7129C68.4878 38.717 68.5982 38.99 68.7209 38.99C68.8435 38.99 68.9662 38.9126 69.0889 38.9004C69.2116 38.8882 69.3342 38.8922 69.4528 38.8759C69.5714 38.8596 69.7227 39.0227 69.8413 39.0023C69.9599 38.9819 70.0417 38.7292 70.1603 38.7088C70.2789 38.6884 70.4302 38.88 70.5528 38.8596C70.6755 38.8392 70.7409 38.448 70.8595 38.4316C70.9781 38.4153 71.1212 38.5335 71.2439 38.5335C71.3666 38.5335 71.4852 38.6844 71.6079 38.6844C71.7305 38.6844 71.8532 38.6925 71.9718 38.6925C72.0904 38.6925 72.2171 38.5784 72.3357 38.5743C72.4543 38.5702 72.5688 38.5009 72.6874 38.4846C72.806 38.4683 72.9451 38.6191 73.0677 38.611C73.1904 38.6028 73.3131 38.7129 73.4357 38.7047C73.5584 38.6966 73.6525 38.2971 73.7752 38.289C73.8978 38.2808 74.0369 38.5295 74.1595 38.5172C74.2822 38.505 74.4253 38.5865 74.5439 38.5662C74.6625 38.5458 74.7648 38.3542 74.8793 38.3094C74.9938 38.2645 75.0674 38.126 75.1778 38.0689C75.2882 38.0118 75.4476 38.0526 75.5581 37.9955C75.6685 37.9385 75.832 38.0241 75.9465 37.9792C76.061 37.9344 76.0897 37.6409 76.2083 37.6165C76.3146 37.5961 76.425 37.751 76.5395 37.7673C76.6458 37.7795 76.703 37.9303 76.8135 37.9589C76.9239 37.9874 77.0138 38.0159 77.1201 38.0485C77.2265 38.0811 77.3982 37.9018 77.5004 37.9262C77.6027 37.9507 77.7213 37.9466 77.8276 37.9548C77.938 37.9629 77.9993 37.7877 78.1016 37.7632C78.2038 37.7387 78.3347 37.8447 78.4287 37.7632C78.5105 37.6898 78.5064 37.5431 78.58 37.4453C78.6495 37.3556 78.8744 37.3719 78.944 37.2741C79.0135 37.1763 78.9521 36.9806 79.0257 36.891C79.1034 36.7931 79.1443 36.6301 79.2261 36.5567C79.3202 36.4712 79.5164 36.4385 79.6228 36.41C79.725 36.3815 79.8599 36.6464 79.9704 36.6505C80.0767 36.6505 80.183 36.5201 80.2893 36.5364C80.3956 36.5527 80.5142 36.5038 80.6205 36.5282C80.7269 36.5527 80.8209 36.6301 80.9272 36.6464C81.0335 36.6627 81.144 36.6464 81.2503 36.6464C81.3607 36.6464 81.5284 36.8421 81.6306 36.8094C81.7451 36.7728 81.7901 36.463 81.9128 36.4426C82.0354 36.4222 82.1499 36.304 82.2726 36.2877C82.3953 36.2714 82.5466 36.4834 82.6692 36.4671C82.7919 36.4508 82.9514 36.6097 83.07 36.5853C83.1886 36.5608 83.3112 36.4467 83.4257 36.4059C83.5402 36.3652 83.7243 36.3529 83.8306 36.2796C83.9369 36.2062 83.8469 35.872 83.9451 35.7905C84.0432 35.709 84.1864 35.6845 84.2804 35.603C84.3745 35.5215 84.538 35.5296 84.6403 35.4603C84.7425 35.391 84.7507 35.0935 84.8652 35.0487C84.9797 35.0038 85.2373 35.2606 85.3436 35.1995C85.4499 35.1383 85.3763 34.8 85.4785 34.7267C85.5808 34.6533 85.8793 34.8734 85.9815 34.8041C86.0837 34.7348 86.1533 34.637 86.2555 34.5759C86.3577 34.5147 86.4681 34.5066 86.5786 34.4577C86.7012 34.4047 86.7217 34.1275 86.8198 34.1112C86.9425 34.0949 87.0652 34.0949 87.1715 34.099C87.2778 34.1031 87.3473 33.9808 87.47 33.9604C87.5681 33.9441 87.6458 34.2946 87.7685 34.2376L87.744 34.2743Z" fill="#858586"/>
</svg>
