<svg width="128" height="32" viewBox="0 0 128 32" fill="none" xmlns="http://www.w3.org/2000/svg">
<path d="M25.9144 0.250357C26.059 0.225947 26.241 0.199958 26.4279 0.246426L26.4278 0.2467C26.4495 0.252082 26.4657 0.260388 26.4695 0.262332C26.4765 0.266005 26.4827 0.2698 26.487 0.272479C26.4957 0.277929 26.5048 0.284101 26.5129 0.289847C26.5296 0.301656 26.5502 0.317092 26.5722 0.334C26.6167 0.368127 26.6728 0.412608 26.7278 0.457042C26.7829 0.50156 26.838 0.54684 26.8808 0.582735C26.902 0.600578 26.9209 0.616616 26.9354 0.629356C26.9426 0.635643 26.9495 0.641938 26.9555 0.647547C26.9569 0.648838 26.9652 0.656393 26.9743 0.666561L26.9833 0.677439L26.9842 0.678719L26.9853 0.679907C27.0697 0.79315 27.0989 0.852426 27.1067 0.864471C27.1104 0.870217 27.1167 0.881601 27.2301 0.981754L27.2636 1.01201C27.3389 1.08178 27.3952 1.14683 27.431 1.21312C27.4784 1.30078 27.4851 1.38123 27.4736 1.45445C27.4691 1.48306 27.4615 1.51147 27.4581 1.52502C27.4539 1.54197 27.4519 1.55134 27.4509 1.55976C27.45 1.56776 27.4489 1.58093 27.4551 1.60446C27.4757 1.61676 27.5258 1.64621 27.5679 1.68902C27.6844 1.80758 27.717 1.98402 27.671 2.23923C27.6588 2.30904 27.6196 2.35414 27.5903 2.37882C27.5755 2.39133 27.5603 2.40095 27.5472 2.40826C27.437 2.74266 27.32 3.1487 27.2465 3.46609C27.2327 3.52588 27.2329 3.57759 27.2363 3.63109C27.2376 3.65323 27.241 3.69237 27.242 3.72059C27.2431 3.75174 27.2429 3.79571 27.2314 3.84198C27.2188 3.89289 27.1934 3.94295 27.1501 3.98468C27.1095 4.02379 27.0618 4.04726 27.016 4.06247C26.9687 4.07818 26.9122 4.08845 26.8464 4.09538C26.8418 4.12544 26.8342 4.155 26.8229 4.18387C26.7851 4.28013 26.7178 4.34355 26.6629 4.38635C26.6165 4.42245 26.541 4.47009 26.5101 4.49184C26.4663 4.5226 26.4413 4.54585 26.4265 4.56771C26.4047 4.60047 26.3971 4.6382 26.3699 4.73472C26.3469 4.81666 26.3079 4.94037 26.1989 5.03346L26.1796 5.04983L26.1569 5.06006L26.039 5.11317C26.0365 5.13421 26.0342 5.1546 26.0316 5.17588C26.026 5.22192 26.0177 5.28341 25.9917 5.34372C25.9401 5.46363 25.8399 5.53385 25.7124 5.59904C25.6386 5.70649 25.5573 5.75607 25.4867 5.7974C25.4167 5.83842 25.3527 5.87391 25.2685 5.96953L25.2682 5.9699C25.1961 6.05148 25.179 6.09721 25.1263 6.18116C25.077 6.25979 25.0172 6.33048 24.9084 6.40366L24.8212 6.62771L24.7864 6.71748L24.6966 6.73905C24.6189 6.7578 24.5758 6.77109 24.5513 6.78101C24.5499 6.78495 24.5485 6.78967 24.5467 6.79518C24.5341 6.83276 24.5153 6.88316 24.4782 6.94592L24.478 6.9461C24.4492 6.99458 24.4105 7.02165 24.3874 7.0356C24.3823 7.03866 24.3772 7.04123 24.3726 7.04373C24.3652 7.09137 24.3608 7.12661 24.3574 7.15471C24.3534 7.18847 24.3487 7.23451 24.3352 7.27793C24.3196 7.32827 24.2956 7.3671 24.2709 7.40317C24.2523 7.43031 24.2243 7.46823 24.19 7.5157C24.1496 7.64996 24.0306 7.70218 23.999 7.71809C23.9879 7.72369 23.9806 7.72747 23.9741 7.73088C23.9555 7.78226 23.9239 7.81799 23.897 7.84058C23.8669 7.86575 23.8345 7.88182 23.8189 7.88958C23.8151 7.89145 23.8122 7.89284 23.8097 7.89406C23.6639 8.19703 23.4544 8.42476 23.2703 8.61531C23.0692 8.82343 22.9159 8.97305 22.8351 9.14157L22.8323 9.14998C22.8301 9.16009 22.8294 9.17905 22.8271 9.24021C22.8243 9.31126 22.8158 9.41887 22.7415 9.52761L22.7413 9.52789C22.6601 9.64627 22.5089 9.77137 22.3794 9.87288C22.2382 9.98359 22.1136 10.0734 22.033 10.1439C22.032 10.1453 22.0305 10.1478 22.0284 10.1515C22.0217 10.1639 22.015 10.1795 22.0042 10.2046C21.9952 10.2259 21.9814 10.2584 21.9649 10.2883C21.949 10.3169 21.9207 10.3617 21.8736 10.3951L21.8734 10.3953C21.8414 10.418 21.7829 10.4817 21.7175 10.5626C21.6876 10.5997 21.6597 10.6358 21.637 10.6655C21.6176 10.691 21.595 10.7209 21.583 10.7348C21.5894 10.7274 21.5864 10.7302 21.5688 10.7589C21.5551 10.7814 21.5374 10.8115 21.518 10.8457C21.4789 10.9144 21.4351 10.9956 21.4035 11.0598L21.4034 11.0599C21.3617 11.1446 21.268 11.2551 21.1859 11.3402C21.1418 11.3858 21.0948 11.4306 21.0501 11.4679C21.0091 11.5024 20.9578 11.541 20.9073 11.563L20.907 11.5631C20.724 11.6422 20.674 11.6467 20.5607 11.6817C20.5587 11.6829 20.5548 11.6852 20.5486 11.6894C20.5411 11.6945 20.5329 11.7005 20.5217 11.7085C20.5111 11.7162 20.4982 11.7255 20.4844 11.735C20.4282 11.7735 20.3469 11.8224 20.2386 11.8423L20.2385 11.8422C20.1356 11.8618 19.9211 11.9145 19.7872 11.9228L19.7861 11.9229C19.6359 11.9312 19.4463 11.951 19.2664 11.9133C19.0718 11.8725 18.8891 11.767 18.7302 11.5448L18.7302 11.5449C18.5445 11.2854 18.4787 11.0263 18.4862 10.764C18.4934 10.5111 18.5691 10.2621 18.6485 10.0236V10.0235C18.7496 9.72071 18.8682 9.36934 18.975 9.02776L18.9751 9.02758C19.1717 8.40101 19.5347 7.8525 19.8246 7.31523C19.8714 7.22831 19.9331 7.15341 19.9795 7.09639C20.0309 7.03309 20.0643 6.99054 20.0849 6.94939C20.1022 6.91498 20.1055 6.891 20.1006 6.86438C20.0957 6.83793 20.0796 6.79437 20.032 6.73009C20.0139 6.72851 19.9915 6.72694 19.9651 6.72589C19.891 6.72293 19.7955 6.72283 19.6978 6.72488C19.6003 6.72693 19.5029 6.73112 19.425 6.73649C19.3956 6.73852 19.3696 6.7408 19.348 6.74298C19.3398 6.76464 19.3267 6.79585 19.3075 6.82589C19.2813 6.8666 19.2402 6.9113 19.1774 6.93705C19.0916 6.97218 18.9925 6.97434 18.9333 6.97709C18.86 6.9805 18.8134 6.9842 18.7759 6.99766L18.7753 6.99793C18.3323 7.15528 17.9886 7.30304 17.5184 7.38799C17.4205 7.40585 17.3379 7.45372 17.2674 7.50546C17.2305 7.53259 17.2032 7.55579 17.1711 7.58133C17.1569 7.59261 17.1392 7.60619 17.1213 7.61781C17.1074 7.62679 17.074 7.64778 17.0308 7.65519L17.0309 7.65529C16.2906 7.78334 15.5958 7.72962 14.9194 7.75675L14.9191 7.75685C14.6247 7.76805 14.3306 7.78666 14.0335 7.80465C13.785 7.8197 13.5347 7.83412 13.2835 7.84323C13.2486 7.97696 13.1902 8.07245 13.1548 8.14115C13.1298 8.1897 13.1155 8.22418 13.1086 8.25998C13.1021 8.29364 13.1003 8.3386 13.1157 8.40625L13.1642 8.61823L12.9778 8.63478C12.9812 8.74401 12.9576 8.83522 12.9004 8.91395C12.8653 8.96219 12.8182 9.0012 12.8022 9.01588C12.7808 9.0355 12.7732 9.04494 12.768 9.05482C12.6578 9.26435 12.6561 9.39385 12.6055 9.59087C12.5807 9.68724 12.5448 9.78866 12.4759 9.895C12.4078 10 12.3126 10.1019 12.178 10.2085L12.1776 10.2089C12.0912 10.277 11.9855 10.3042 11.9414 10.3196C11.8886 10.3381 11.8636 10.3528 11.8414 10.3817L11.8411 10.382C11.803 10.4313 11.7878 10.5095 11.7766 10.647C11.7718 10.7061 11.767 10.7822 11.755 10.8505C11.743 10.9191 11.7202 11.0049 11.6646 11.0783C11.5683 11.2051 11.4093 11.2656 11.2877 11.2976C11.2164 11.3164 11.1439 11.3286 11.0777 11.3366L11.0709 11.3836L11.049 11.535L10.7204 11.5519C10.7065 11.6235 10.6872 11.6983 10.6669 11.766C10.6279 11.8958 10.5731 12.0409 10.5166 12.1278L10.5166 12.1279C10.4709 12.1987 10.4028 12.2488 10.3631 12.2783C10.3128 12.3157 10.2841 12.3365 10.2626 12.3602L10.2626 12.3601C10.2232 12.4037 10.1976 12.4422 10.1705 12.483C10.1461 12.5195 10.1094 12.577 10.0562 12.6227C9.96775 12.6986 9.85907 12.7241 9.7208 12.7245L9.71699 12.7517L9.69487 12.9038L9.54909 12.9105L9.01333 12.9351C9.01579 13.0001 9.00448 13.0645 8.97569 13.1268C8.91354 13.2612 8.79122 13.3371 8.69011 13.3835C8.58446 13.432 8.46323 13.4653 8.36118 13.4921C8.26606 13.5171 8.19127 13.5356 8.13518 13.5556C8.12473 13.5723 8.0951 13.6243 8.05973 13.6661C8.01837 13.7149 7.95937 13.7644 7.8751 13.7894C7.85962 13.794 7.84378 13.7972 7.82775 13.7998L7.82749 13.9301L7.69108 13.9642C7.56666 13.9952 7.42258 14.0273 7.27473 14.0668C7.12704 14.1063 6.99511 14.1485 6.90529 14.1927H6.90521C6.8587 14.2156 6.82284 14.2546 6.76914 14.3214C6.72628 14.3747 6.64869 14.481 6.53343 14.5301L6.53282 14.5304C6.47286 14.5557 6.26621 14.6316 6.06895 14.702C5.87819 14.77 5.67115 14.8419 5.61088 14.8566L5.61097 14.8567C5.61032 14.8569 5.60963 14.857 5.60897 14.8572L5.60889 14.8571C5.50556 14.8824 5.39146 14.8761 5.31369 14.873C5.28048 14.8717 5.25302 14.8712 5.23026 14.8711C5.22748 14.885 5.22061 14.9124 5.20173 14.9407C5.19009 14.9582 5.17248 14.9782 5.14718 14.9941C5.12112 15.0105 5.0925 15.0191 5.06436 15.0205L4.29661 15.0598L4.30364 15.0903C4.30517 15.091 4.3068 15.0915 4.30832 15.0922C4.36746 15.1202 4.40983 15.1655 4.43936 15.2064C4.49642 15.2855 4.53483 15.3903 4.56285 15.4797C4.59166 15.5717 4.61748 15.6754 4.63899 15.755C4.66325 15.8446 4.68073 15.8978 4.6938 15.9221L4.71635 15.9658C4.91674 16.3692 4.89991 16.7665 4.90688 17.1411L4.98033 17.1643L5.10157 17.2021L5.1072 17.3353L5.17857 19.018L5.17866 19.0202L5.18369 19.1822L5.20719 19.5183C5.29205 19.8468 5.21265 20.0697 5.1686 20.2211C5.14606 20.2986 5.13902 20.3382 5.14224 20.3725C5.14448 20.3963 5.15333 20.4326 5.19488 20.4883L5.21482 20.5134L5.24596 20.5508L5.2555 20.5994L5.35861 21.125L5.36 21.1321L5.51271 21.1285L5.5278 21.3005C5.6651 21.2953 5.80282 21.297 5.93193 21.2967C6.12207 21.2962 6.29845 21.2911 6.46284 21.2591C6.50037 21.2518 6.51753 21.2422 6.52458 21.2374C6.53111 21.2329 6.53642 21.2278 6.5454 21.2155C6.55202 21.2064 6.62017 21.0751 6.76394 21.0494L6.84112 21.0365C7.22945 20.9761 7.65726 20.9756 8.07118 20.9762C8.51967 20.9769 8.95276 20.9789 9.33923 20.9184L9.46948 20.898L9.52576 21.0235L9.57485 21.1326C9.57568 21.1323 9.57652 21.132 9.57736 21.1317C9.6408 21.109 9.7242 21.0873 9.82877 21.1066H9.82868C9.86148 21.1126 9.89888 21.1284 9.922 21.1385C9.9517 21.1514 9.98738 21.1681 10.026 21.187C10.1035 21.225 10.1984 21.2743 10.2918 21.3246C10.3852 21.3749 10.4787 21.427 10.5534 21.4708C10.5906 21.4925 10.6244 21.5129 10.6516 21.5304C10.6732 21.5443 10.7047 21.565 10.7271 21.5862H10.7272C10.7386 21.597 10.7485 21.6065 10.7571 21.6146C10.7658 21.6229 10.7729 21.6296 10.7791 21.6355C10.7918 21.6475 10.798 21.653 10.8023 21.6565C10.8049 21.6587 10.8073 21.6607 10.8137 21.6646L10.8485 21.6845L10.8615 21.6916L10.8732 21.701C11.235 21.989 11.533 22.1372 11.7971 22.645L11.8918 22.8097L11.8955 22.8162L11.8987 22.8229L11.9576 22.9473C12.2898 23.0123 12.4923 23.2515 12.6335 23.3678C12.7175 23.4369 12.7861 23.476 12.8652 23.4862C12.9369 23.4955 13.0385 23.4835 13.191 23.4094C13.257 23.2613 13.2868 23.0927 13.3191 22.8947C13.3535 22.6845 13.3913 22.437 13.5029 22.2116L13.5031 22.2112C13.5439 22.1291 13.6057 22.0527 13.6656 21.9866C13.7265 21.9194 13.7965 21.851 13.8589 21.7891C13.9236 21.7248 13.9811 21.6666 14.0268 21.6118C14.0743 21.5549 14.0971 21.5156 14.1051 21.4919C14.108 21.483 14.1095 21.4673 14.1047 21.4059C14.101 21.3598 14.0902 21.2627 14.1216 21.1674C14.2195 20.8687 14.3621 20.7114 14.5149 20.5889C14.6707 20.464 14.7784 20.4101 14.898 20.2668C14.9299 20.2282 14.9607 20.1751 14.9967 20.103C15.0269 20.0425 15.0742 19.9395 15.1144 19.8616C15.1942 19.707 15.3023 19.5333 15.481 19.4035L15.5469 19.038C15.2228 19.0753 14.8995 19.0918 14.5852 19.1095C14.1876 19.1318 13.8037 19.156 13.4309 19.2243L13.431 19.2244C13.3057 19.2474 13.1821 19.2862 13.1021 19.319L13.102 19.3189C13.0728 19.3309 13.0389 19.3374 13.0165 19.3413C12.9892 19.346 12.9572 19.3503 12.9233 19.3541C12.8551 19.3618 12.7725 19.3685 12.6906 19.3736C12.6085 19.3788 12.5252 19.3823 12.4553 19.3838C12.3909 19.3851 12.3235 19.385 12.2824 19.3791H12.2823C12.2213 19.3704 12.1963 19.3739 12.1823 19.3759C12.1658 19.3784 12.1107 19.3917 12.0412 19.3778L12.0402 19.3776C11.9863 19.3665 11.9355 19.3605 11.8715 19.3514C11.8107 19.3428 11.7416 19.3315 11.6695 19.3097C11.5238 19.2654 11.3801 19.1817 11.2338 19.0134L11.0517 18.8899L11.0114 18.8625L10.9896 18.8176L10.7211 18.2628L10.7037 18.2269L10.6902 17.9334L10.6913 17.9204C10.7006 17.8124 10.7377 17.6953 10.7832 17.5849C10.8298 17.4719 10.8904 17.3539 10.9554 17.2412C11.0846 17.017 11.2395 16.7997 11.3569 16.6676L11.3571 16.6675C11.4129 16.6049 11.5012 16.5175 11.5939 16.4398C11.6791 16.3685 11.7941 16.2827 11.8991 16.2522C12.0628 16.2038 12.2484 16.2233 12.3804 16.24C12.4537 16.2493 12.5083 16.2576 12.5566 16.2617C12.5634 16.2623 12.5694 16.2624 12.5747 16.2627C12.5749 16.2623 12.575 16.2619 12.5752 16.2615C12.5783 16.2523 12.5829 16.2394 12.5883 16.2262C12.5936 16.2132 12.6017 16.195 12.6134 16.1763C12.6246 16.1585 12.6422 16.1351 12.6686 16.1148L12.6686 16.1147C12.7113 16.0813 12.7589 16.0649 12.7917 16.0556C12.8264 16.0458 12.8633 16.0391 12.8926 16.0338C12.9622 16.0212 12.9984 16.0138 13.0208 16.0026L13.0213 16.0024C13.0528 15.9869 13.0775 15.9685 13.1053 15.9453C13.1283 15.9261 13.1722 15.8864 13.2173 15.858C13.2705 15.8244 13.3332 15.7996 13.4117 15.7942C13.4634 15.7906 13.5179 15.796 13.5764 15.8085L13.7071 15.7222L13.7524 15.6923L13.8057 15.6936C13.8833 15.6956 13.9278 15.6803 13.9788 15.6554C14.0221 15.6343 14.1007 15.5875 14.1971 15.5485L14.2395 15.5323C14.2832 15.5166 14.3164 15.4917 14.3775 15.4471C14.4344 15.4055 14.5148 15.348 14.6257 15.3219L14.6264 15.3218L14.627 15.3217C14.8769 15.2652 15.1298 15.2912 15.3488 15.3113C15.5778 15.3324 15.7736 15.3476 15.9587 15.3011C16.0456 15.2791 16.1539 15.2098 16.2894 15.1166C16.3517 15.0738 16.4197 15.0262 16.4841 14.9871C16.547 14.9488 16.6204 14.9099 16.6951 14.8912L16.6952 14.8911C16.8664 14.8485 17.0304 14.8442 17.1679 14.8389C17.3108 14.8334 17.424 14.8267 17.5294 14.7927C17.5885 14.7725 17.812 14.6847 17.8942 14.6507L17.9234 14.6391C18.0426 14.5938 18.1689 14.5755 18.2763 14.5605L18.3275 14.4892L18.3847 14.4094L18.4794 14.415C18.6484 14.4251 18.8294 14.3569 19.0385 14.2547C19.2191 14.1664 19.4351 14.0437 19.6397 13.9841L19.6805 13.973C19.8107 13.9404 19.9432 13.9405 20.0483 13.9393C20.1618 13.938 20.2463 13.9353 20.3203 13.9133L20.3212 13.913C20.3387 13.9079 20.3562 13.8955 20.4111 13.849C20.4537 13.8129 20.5246 13.7515 20.6226 13.7221L20.6426 13.7166C20.7345 13.6939 20.8141 13.683 20.8793 13.6731C20.9455 13.6631 20.9978 13.6539 21.0524 13.6364C21.0533 13.636 21.0549 13.6353 21.0572 13.6342C21.0618 13.6319 21.0679 13.6288 21.0756 13.6245C21.0915 13.6155 21.1095 13.6041 21.132 13.59C21.1716 13.5651 21.231 13.5271 21.2874 13.5034C21.4242 13.4459 21.5895 13.4016 21.7404 13.3634C21.8779 13.3286 22.002 13.2993 22.1029 13.2685L22.1461 13.2548C22.1652 13.2486 22.2101 13.229 22.2715 13.2006L22.4376 13.1233C22.8422 12.9398 23.437 12.8292 24.0214 12.772C24.5731 12.7181 25.134 12.7102 25.5504 12.7401L25.6316 12.7466L25.6324 12.7467C25.6635 12.7496 25.7223 12.7633 25.7747 12.776C25.8344 12.7904 25.9076 12.8093 25.9797 12.8285C26.0516 12.8476 26.1236 12.8675 26.1805 12.8842C26.2088 12.8925 26.2345 12.9003 26.2551 12.9071C26.2643 12.9101 26.2844 12.9166 26.3039 12.9254L26.3229 12.9351L26.3237 12.9355C26.3803 12.9686 26.4392 13.0304 26.485 13.0815C26.5365 13.139 26.5933 13.2086 26.6483 13.2777C26.7636 13.4226 26.8647 13.5568 26.9226 13.6207L26.9229 13.6212C26.9405 13.6407 26.9697 13.6575 27.0379 13.6988C27.066 13.7158 27.1024 13.7384 27.1355 13.7661C27.1682 13.7934 27.2087 13.8346 27.235 13.894H27.2351C27.2512 13.9298 27.2705 13.999 27.2871 14.0609C27.3059 14.1312 27.3278 14.2182 27.349 14.3059C27.3906 14.4775 27.4329 14.6651 27.444 14.7344H27.4439C27.4887 15.0009 27.464 15.2289 27.3764 15.4385C27.2907 15.6434 27.1504 15.8176 26.9867 15.986C26.7888 16.19 26.5094 16.3486 26.2573 16.4921C26.0097 16.6331 25.7844 16.7616 25.6179 16.9128L25.5855 16.9432C25.048 17.4675 24.9305 17.6322 24.2242 18.0505L24.2243 18.0506C23.5579 18.4463 23.0405 18.984 22.4988 19.5297C21.9622 20.0702 21.4029 20.6172 20.6705 20.9826C20.5906 21.0225 20.5115 21.0387 20.44 21.046L20.395 21.2808L20.3609 21.459L20.1909 21.4282L20.1901 21.4282L20.2 21.6418L19.8309 21.6607L19.8489 22.0501L19.4884 22.0686C19.4888 22.0991 19.4883 22.129 19.4861 22.1581C19.4794 22.2495 19.4577 22.3483 19.4018 22.4315C19.3414 22.5214 19.2521 22.5761 19.1456 22.5914C19.1359 22.5928 19.1262 22.5938 19.1164 22.5945C19.1166 22.6167 19.1155 22.6386 19.1132 22.6604C19.1005 22.7786 19.0518 22.8698 18.9945 22.9429C18.9415 23.0104 18.8735 23.0711 18.821 23.1202C18.7642 23.1734 18.7127 23.2238 18.6671 23.2849V23.285C18.6437 23.3164 18.6321 23.3434 18.6214 23.3734C18.6176 23.384 18.6077 23.414 18.6004 23.4328C18.5914 23.456 18.5773 23.4884 18.5538 23.5203C18.4983 23.5954 18.4215 23.6281 18.3403 23.6402C18.3183 23.6434 18.2945 23.6452 18.2689 23.646C18.2635 23.6786 18.2545 23.7104 18.2411 23.7413C18.1955 23.8465 18.1145 23.9086 18.0491 23.9465C17.9862 23.983 17.9129 24.0101 17.8727 24.0268C17.8556 24.0339 17.8432 24.0396 17.834 24.0442C17.8328 24.0485 17.8312 24.0539 17.8296 24.0604C17.8222 24.092 17.8157 24.1326 17.8083 24.1829C17.7957 24.2688 17.7791 24.4064 17.7423 24.5006L17.7422 24.5005C17.588 24.8995 17.3355 25.0515 17.0687 25.2172C17.0673 25.2192 17.0657 25.2215 17.0639 25.2243C17.0519 25.2424 17.0244 25.2863 16.9835 25.3244C16.9382 25.3665 16.8792 25.4003 16.8033 25.4129C16.8004 25.4134 16.7974 25.4136 16.7944 25.414C16.7666 25.6427 16.6568 25.8703 16.5346 26.0599C16.365 26.3232 16.1411 26.5608 15.9558 26.7041L15.9558 26.704C15.8811 26.7619 15.7955 26.8006 15.722 26.8302C15.637 26.8644 15.5833 26.8815 15.5172 26.9105C15.457 26.9369 15.4226 26.9591 15.4036 26.9787C15.3906 26.9921 15.3845 27.0037 15.384 27.0278L15.3799 27.2089L15.2182 27.2103C15.2169 27.2264 15.2163 27.2406 15.2138 27.2724C15.2092 27.3296 15.1981 27.4528 15.1038 27.5436C15.0589 27.5869 15.0055 27.6131 14.9471 27.6275C14.9409 27.7314 14.9144 27.8333 14.8775 27.9223C14.8127 28.0784 14.7013 28.2324 14.5552 28.3132L14.5548 28.3135C14.4474 28.3725 14.3455 28.3856 14.2857 28.3944C14.2618 28.3979 14.2485 28.4004 14.2401 28.4022C14.2222 28.4194 14.2056 28.429 14.1996 28.4323C14.1881 28.4388 14.1773 28.4433 14.1702 28.4461C14.156 28.4519 14.1406 28.4568 14.1289 28.4605C14.1005 28.4693 14.0791 28.4751 14.0514 28.4843C14.0265 28.4927 14.0081 28.5002 13.9962 28.5065C13.9922 28.5119 13.9891 28.5155 13.988 28.5167C13.9837 28.5218 13.9798 28.5261 13.9772 28.5288C13.9718 28.5343 13.9661 28.5395 13.9616 28.5437C13.9521 28.5524 13.9405 28.5625 13.9284 28.5729C13.9037 28.594 13.8723 28.62 13.8411 28.6452C13.81 28.6704 13.7777 28.6958 13.7516 28.7155C13.7388 28.7252 13.7259 28.7347 13.7146 28.7424C13.7092 28.7461 13.7019 28.751 13.694 28.7556C13.6902 28.7578 13.6839 28.7613 13.6762 28.7649C13.6723 28.7667 13.6534 28.7754 13.6278 28.7792L13.6279 28.7794C13.6273 28.7795 13.6266 28.7795 13.626 28.7796C13.6257 28.7796 13.6253 28.7798 13.625 28.7799L13.6249 28.7798C13.5886 28.785 13.4813 28.7959 13.3689 28.8037C13.2574 28.8115 13.1172 28.8181 13.0326 28.8084V28.8085C12.8805 28.7913 12.7529 28.7728 12.6237 28.729C12.493 28.6846 12.369 28.6173 12.2162 28.5128L12.2156 28.5122L12.2149 28.5118C12.2014 28.5023 12.1845 28.4871 12.1788 28.482C12.1678 28.4722 12.1538 28.4594 12.1381 28.4449C12.1065 28.4159 12.0663 28.3785 12.0264 28.3412C11.9865 28.3039 11.9465 28.2662 11.9156 28.2367C11.9001 28.222 11.8866 28.2089 11.8762 28.1988C11.8706 28.1933 11.8548 28.1782 11.8449 28.1661V28.166C11.755 28.0572 11.6562 27.9135 11.5613 27.7748C11.4647 27.6336 11.3706 27.4957 11.2825 27.3834C11.279 27.3829 11.2752 27.3824 11.2711 27.3816C11.1848 27.3657 11.0952 27.3198 10.9606 27.1933C10.794 27.086 10.7121 27.016 10.6635 26.9277C10.6185 26.846 10.6429 26.8573 10.5781 26.7873V26.7872C10.3854 26.5807 10.3548 26.6068 10.1171 26.2741C10.0228 26.2449 9.94644 26.207 9.88427 26.1587C9.80621 26.098 9.7612 26.0295 9.72991 25.9692C9.66326 25.8407 9.67484 25.8313 9.62324 25.8036L9.62307 25.8036C9.51778 25.7469 9.44474 25.7118 9.38762 25.6848C9.33254 25.6588 9.28224 25.636 9.23369 25.6084C9.13131 25.5502 9.03804 25.4721 8.83615 25.2874C8.83505 25.2864 8.83601 25.2871 8.83494 25.2868C8.82688 25.2847 8.82036 25.2842 8.78551 25.2807C8.72249 25.2742 8.6356 25.2597 8.54243 25.1837L8.14741 25.041L8.00735 25.0418L7.95237 25.0421L7.90693 25.0096C7.84056 24.9622 7.78843 24.9223 7.74623 24.8901C7.7028 24.8569 7.67346 24.8348 7.64668 24.8173C7.6028 24.7887 7.56516 24.7716 7.48182 24.7582L7.46855 24.7572C7.45058 24.7566 7.41834 24.7573 7.36969 24.7608C7.30979 24.7651 7.24105 24.7723 7.17049 24.7795C7.10235 24.7863 7.03099 24.7932 6.97337 24.7954C6.94501 24.7966 6.91417 24.7969 6.88613 24.7943C6.87224 24.793 6.85396 24.7906 6.8347 24.7852C6.82678 24.783 6.81298 24.7787 6.79672 24.7706L6.49388 24.6674C6.27779 24.698 6.11407 24.6793 5.96792 24.6632C5.81561 24.6464 5.68363 24.6326 5.50205 24.6653L5.5017 24.6654C5.43133 24.6779 5.38776 24.7051 5.33719 24.7423C5.29077 24.7766 5.20621 24.849 5.09237 24.8782L5.09168 24.8785C4.95642 24.9125 4.798 24.9052 4.67698 24.9013C4.57922 24.8982 4.50271 24.8973 4.44326 24.9041C4.43941 24.9136 4.43493 24.9236 4.42965 24.9334C4.40969 24.9704 4.37115 25.0207 4.30329 25.044L4.30338 25.0441C4.16062 25.0935 3.87016 25.1373 3.59998 25.1647C3.3305 25.192 3.0379 25.2075 2.89085 25.1863H2.89025C2.52654 25.1326 2.32785 24.9491 2.26915 24.8912L2.26923 24.891C2.24924 24.8713 2.23541 24.8495 2.23047 24.8416C2.22269 24.8291 2.21492 24.8151 2.20749 24.8013C2.1925 24.7735 2.17412 24.7371 2.15329 24.695C2.11045 24.6083 2.05508 24.4936 1.98244 24.3484V24.3483C1.9447 24.2727 1.92623 24.1976 1.92642 24.1221C1.92662 24.0484 1.94463 23.9862 1.96258 23.9378C1.97142 23.914 1.9811 23.8915 1.98912 23.8729C1.9977 23.8531 2.00442 23.8377 2.01063 23.822C2.02256 23.7918 2.02833 23.7704 2.03023 23.7508V23.7506C2.03604 23.6908 2.03011 23.6278 2.02242 23.537C2.01538 23.4538 2.00706 23.3471 2.02468 23.2367L2.02476 23.2361C2.04121 23.1351 2.09005 23.0566 2.13213 22.9999C2.15344 22.9712 2.17618 22.944 2.19561 22.9209C2.21613 22.8965 2.23322 22.8764 2.24911 22.8558C2.28095 22.8146 2.29671 22.7855 2.30366 22.7604C2.3093 22.74 2.31233 22.7112 2.29629 22.6631L2.28163 22.6192L2.28822 22.5733L2.33245 22.2614L2.27921 19.7635C2.10284 19.5655 2.00808 19.2789 1.94377 19.018C1.90702 18.869 1.87764 18.716 1.85054 18.5765C1.82296 18.4346 1.79801 18.3086 1.76963 18.2026C1.76542 18.1879 1.75228 18.1659 1.71404 18.1199C1.6989 18.1017 1.67438 18.0731 1.65498 18.0461C1.63636 18.0202 1.60691 17.9752 1.59436 17.9169V17.917C1.57652 17.8348 1.59819 17.7612 1.61327 17.7191C1.62024 17.6996 1.62904 17.6788 1.63764 17.6595L1.38415 17.6724L1.37444 17.4867L1.361 17.2323L1.18027 17.1769L1.06076 17.1401L1.05279 17.0092L1.03006 16.6409L0.930248 16.5903L0.867982 16.5586L0.842399 16.4909C0.792322 16.3584 0.715365 16.3092 0.59767 16.2069C0.541694 16.1582 0.473908 16.0934 0.425787 15.9988C0.383758 15.9163 0.362336 15.8226 0.361787 15.7143L0.266653 15.5476L0.258414 15.5333L0.252777 15.5176L0.185742 15.3315L0.0921687 15.2484L0.0194092 15.1837L0.0302494 15.084C0.0373643 15.0185 0.0291788 14.9393 0.0170677 14.8323C0.00635799 14.7377 -0.0088135 14.6122 0.00648761 14.4976C0.0258549 14.3468 0.0376597 14.2264 0.0514962 14.1495V14.1488C0.0689643 14.0536 0.111792 13.9824 0.131367 13.9457C0.149003 13.9126 0.158504 13.8916 0.162847 13.8641L0.164321 13.8518C0.182626 13.6656 0.246215 13.4674 0.354242 13.3082C0.457012 13.1567 0.610111 13.0277 0.810745 13.0007L1.08574 12.868C1.15925 12.832 1.21775 12.7998 1.27696 12.7685C1.33429 12.7382 1.39348 12.708 1.45665 12.6852C1.57287 12.6433 1.68955 12.6306 1.84005 12.6499L2.0761 12.4495L2.10654 12.4237L2.14435 12.4136L2.72643 12.2597L2.73727 12.1888L2.75245 12.0896L2.83917 12.0481C3.05007 11.9469 3.14997 11.8986 3.21979 11.8648C3.28963 11.8309 3.33025 11.811 3.42176 11.7671C3.45634 11.7505 3.52695 11.7263 3.59911 11.7027C3.67693 11.6773 3.77255 11.6476 3.86777 11.6191C3.96295 11.5905 4.05878 11.5628 4.13705 11.5416C4.20742 11.5226 4.28237 11.5034 4.32254 11.4996C4.36655 11.4949 4.42282 11.4726 4.49668 11.4333C4.55626 11.4016 4.65279 11.3432 4.72285 11.3128L4.72311 11.3126C4.77356 11.2909 4.79458 11.2803 4.81183 11.2678C4.8265 11.2571 4.84564 11.2394 4.87678 11.1955C5.02358 10.9883 5.2433 10.9366 5.3959 10.9217C5.47111 10.9143 5.54204 10.9149 5.58608 10.9145L5.67211 10.7981L5.73732 10.7098L5.84208 10.7284C5.8604 10.7317 5.87315 10.7324 5.88145 10.7326C5.89213 10.7156 5.92722 10.6544 5.98674 10.6108C6.03502 10.5754 6.08971 10.5565 6.14934 10.55L6.29607 10.4157L6.29945 10.4125L6.3031 10.4096L6.44766 10.2902C6.57807 10.0029 6.8407 9.63603 7.11351 9.41252C7.35496 9.21469 7.58592 9.03119 7.83244 8.82199L7.83252 8.8219C7.86845 8.79144 7.85863 8.79208 7.90554 8.70727C7.9481 8.63034 8.00903 8.55258 8.13145 8.45753C8.15787 8.3105 8.19875 8.17498 8.26743 8.04196C8.34796 7.886 8.46151 7.74298 8.61692 7.5913C8.67452 7.53498 8.74089 7.49327 8.80051 7.46039C8.857 7.42924 8.92558 7.39671 8.97283 7.37254C9.08716 7.31405 9.13274 7.27523 9.14965 7.23862C9.15035 7.23679 9.15319 7.22932 9.15832 7.2133C9.16381 7.19618 9.1704 7.17436 9.17792 7.14858C9.1938 7.09417 9.20965 7.03729 9.229 6.97042C9.24717 6.90763 9.26672 6.84217 9.28511 6.78841C9.29424 6.76173 9.30414 6.73479 9.31442 6.71117C9.32138 6.6952 9.33859 6.65596 9.36776 6.62414C9.40735 6.58091 9.45478 6.56297 9.4883 6.55476C9.45257 6.38428 9.46801 6.2354 9.51874 6.09248C9.55289 5.9963 9.60126 5.90791 9.647 5.82739C9.69467 5.74346 9.74053 5.66634 9.78402 5.57655L9.78419 5.57609C9.79697 5.54982 9.80627 5.50447 9.82634 5.41639C9.83475 5.37952 9.84541 5.33524 9.85973 5.2939C9.87314 5.25519 9.89584 5.20026 9.93726 5.15477C10.0264 5.05685 10.1419 5.03905 10.203 5.03301C10.2054 5.0231 10.2083 5.01239 10.211 5.00074C10.2287 4.92462 10.248 4.82581 10.2681 4.72074C10.2878 4.61746 10.3084 4.50806 10.3274 4.41697C10.3448 4.33413 10.3657 4.24127 10.3898 4.18597C10.4472 4.05346 10.5468 3.97278 10.6139 3.92051C10.6943 3.85776 10.7237 3.83573 10.74 3.80834C10.7407 3.80666 10.7424 3.80215 10.7444 3.79353C10.7477 3.77925 10.7503 3.76218 10.7537 3.7364C10.7567 3.71444 10.761 3.68053 10.7681 3.64883C10.7749 3.6177 10.788 3.57037 10.8182 3.52606L10.8184 3.52569C10.8993 3.40769 11.0374 3.31965 11.1739 3.25346C11.3167 3.1842 11.4852 3.12608 11.6543 3.08051C11.9863 2.99101 12.355 2.94096 12.5701 2.96579L12.5704 2.9657C12.7345 2.98489 12.9158 3.07944 13.0579 3.15008C13.2186 3.23 13.3473 3.28997 13.4539 3.30155H13.454C13.5943 3.31684 13.7556 3.30012 13.939 3.27879C14.1136 3.25849 14.3115 3.23349 14.4922 3.24761H14.4921C14.5458 3.25162 14.5977 3.26737 14.6437 3.30045C14.6882 3.33255 14.7141 3.37173 14.7279 3.39451C14.7284 3.39542 14.7289 3.3964 14.7294 3.39726C15.0355 3.4168 15.2122 3.36373 15.3921 3.32166C15.4908 3.29856 15.5974 3.27708 15.7212 3.27988C15.8263 3.28227 15.9377 3.30206 16.0651 3.34552L16.2752 3.23875L16.3078 3.2222L16.4232 3.21626C16.4957 3.21205 16.5497 3.20616 16.601 3.18673L16.669 3.16041C16.8301 3.0966 17.009 3.01746 17.1941 2.93855C17.4015 2.85014 17.6162 2.76222 17.803 2.70773C18.018 2.64501 18.2581 2.68353 18.4475 2.69996C18.6521 2.71769 18.8435 2.71942 19.0405 2.63377L19.0407 2.63368C19.0372 2.6352 19.0416 2.63362 19.057 2.62326C19.0706 2.61412 19.0877 2.60158 19.108 2.58606C19.1486 2.55503 19.196 2.5161 19.2436 2.47645C19.2892 2.43845 19.3384 2.39683 19.3741 2.3674C19.3923 2.35235 19.4098 2.33813 19.4244 2.32699C19.4315 2.32153 19.4399 2.31541 19.4482 2.30981C19.4506 2.30819 19.4719 2.29311 19.4994 2.28403C19.5688 2.26113 19.6445 2.25474 19.7113 2.25331C19.7795 2.25186 19.852 2.25559 19.9169 2.2588C19.9846 2.26214 20.0447 2.26497 20.0987 2.26382C20.1246 2.26327 20.1463 2.26158 20.1643 2.25944C20.184 2.21447 20.2256 2.12992 20.3176 2.0767L20.3522 2.0575C20.5252 1.96581 20.6993 1.93395 20.85 1.91216C21.02 1.88756 21.1459 1.87619 21.263 1.83062L21.2636 1.83034C21.2935 1.81886 21.323 1.80039 21.3601 1.77175C21.3878 1.75034 21.4477 1.69967 21.4923 1.6679C21.5712 1.61179 21.6646 1.56449 21.7831 1.55428L21.7868 1.52895L21.8086 1.3783L21.9529 1.37026L22.3862 1.34576L22.4337 1.27976L22.4837 1.21029L22.5666 1.20608C22.5984 1.20444 22.626 1.18964 22.6689 1.14986C22.6798 1.13969 22.6903 1.12939 22.703 1.11695C22.7146 1.10547 22.7291 1.09115 22.7441 1.07783C22.7698 1.055 22.8212 1.01163 22.8917 0.9983C22.9958 0.978582 23.1214 0.987012 23.2102 0.990804C23.2853 0.99401 23.3389 0.994146 23.3764 0.989981C23.3991 0.958291 23.4363 0.907329 23.4864 0.860266C23.5376 0.812157 23.6075 0.76327 23.6981 0.740514C23.7577 0.725547 23.8208 0.723287 23.8863 0.73503L23.9707 0.6555L24.0297 0.599829L24.1085 0.608879C24.3082 0.631847 24.4338 0.556444 24.6103 0.4543C24.7872 0.351952 25.0065 0.2309 25.3319 0.297069C25.3363 0.29598 25.3428 0.293958 25.352 0.291675C25.3969 0.280513 25.4508 0.273125 25.5295 0.28098L25.5648 0.285277L25.5652 0.285368C25.6527 0.298286 25.755 0.277255 25.9144 0.250357ZM13.4403 28.6106C13.4747 28.6077 13.5062 28.6046 13.5325 28.602C13.5062 28.6046 13.4747 28.6077 13.4403 28.6106ZM13.5515 28.6001C13.558 28.5994 13.564 28.5989 13.5695 28.5982C13.5848 28.5965 13.5962 28.5951 13.6028 28.5941C13.5939 28.5955 13.5758 28.5975 13.5515 28.6001ZM12.5522 28.4987C12.5809 28.5127 12.6089 28.5249 12.6366 28.5356L12.5948 28.5183C12.5808 28.5122 12.5666 28.5057 12.5522 28.4987ZM13.879 28.3637C13.8696 28.3717 13.8622 28.3804 13.8573 28.3897C13.8572 28.3901 13.8567 28.3905 13.8563 28.391L13.8573 28.3898C13.8585 28.3875 13.8599 28.3852 13.8614 28.383C13.8645 28.3784 13.8681 28.3741 13.8723 28.3699C13.875 28.3672 13.878 28.3646 13.8811 28.362L13.879 28.3637ZM12.2547 28.3038C12.2858 28.3323 12.3081 28.3524 12.3129 28.3557V28.3556C12.3081 28.3522 12.2857 28.3323 12.2547 28.3038ZM13.944 28.3263C13.9407 28.3277 13.9373 28.3291 13.9341 28.3306C13.9373 28.3291 13.9407 28.3277 13.944 28.3263ZM13.9703 28.3157C13.9664 28.3171 13.9625 28.3186 13.9587 28.3201C13.9625 28.3186 13.9664 28.3171 13.9703 28.3157ZM14.0228 28.2978C14.0088 28.3022 13.9942 28.3069 13.9798 28.3121C13.9942 28.3069 14.0088 28.3022 14.0228 28.2978ZM14.147 28.2401C14.1373 28.2462 14.1289 28.2537 14.1216 28.263C14.1234 28.2607 14.1253 28.2585 14.1272 28.2564C14.1331 28.2501 14.1397 28.2448 14.147 28.2402V28.2401ZM14.8201 27.4547C14.8229 27.4547 14.8257 27.4547 14.8284 27.4547C14.8257 27.4547 14.8229 27.4547 14.8201 27.4547ZM14.7964 27.4543C14.7975 27.4543 14.7986 27.4543 14.7997 27.4543C14.7971 27.4542 14.7945 27.4541 14.7919 27.4539L14.7964 27.4543ZM15.061 27.0983C15.056 27.1094 15.0523 27.1213 15.0494 27.1338L15.0545 27.1155C15.0564 27.1096 15.0585 27.1038 15.061 27.0983ZM15.2636 26.8626C15.2443 26.8861 15.2293 26.9128 15.2195 26.9433C15.2218 26.9362 15.2243 26.9293 15.2272 26.9225C15.2366 26.9005 15.2489 26.8806 15.2637 26.8626H15.2636ZM9.98973 26.008C10.0025 26.018 10.0166 26.0276 10.0323 26.0369C10.0245 26.0323 10.017 26.0275 10.0099 26.0227C10.0012 26.0167 9.99305 26.0107 9.98539 26.0045C9.98684 26.0056 9.98824 26.0069 9.98973 26.008ZM9.96284 25.9847C9.96938 25.9909 9.97634 25.997 9.98374 26.0031C9.97633 25.9971 9.96938 25.9909 9.96284 25.9847ZM9.5634 25.564C9.58336 25.5739 9.60487 25.5849 9.62818 25.597C9.6515 25.6091 9.67663 25.6223 9.7038 25.6369C9.64942 25.6076 9.60324 25.5838 9.56332 25.5639L9.5634 25.564ZM8.95227 25.1457L8.94299 25.1378C8.94121 25.1364 8.9394 25.135 8.93762 25.1337C8.94249 25.1373 8.94738 25.1413 8.95227 25.1457ZM8.63071 25.0179C8.63876 25.0256 8.64669 25.0324 8.65447 25.0386C8.64667 25.0324 8.63869 25.0255 8.63062 25.0178L8.17663 24.8537L8.63071 25.0179ZM2.87681 24.9945C2.87984 24.995 2.88285 24.9958 2.88591 24.9963C2.89542 24.9979 2.90508 24.9995 2.91488 25.0009C2.9226 25.0021 2.93092 25.003 2.93977 25.0039C2.93091 25.003 2.9226 25.002 2.91488 25.0009C2.90193 24.9989 2.88925 24.9967 2.87681 24.9945ZM3.68843 24.9668C3.61987 24.9748 3.55002 24.982 3.48134 24.988C3.5488 24.9821 3.6174 24.9751 3.68479 24.9673C3.68601 24.9672 3.68722 24.967 3.68843 24.9668ZM2.8017 24.9779C2.80919 24.9799 2.81681 24.9816 2.82451 24.9834C2.81681 24.9816 2.80919 24.9798 2.8017 24.9779ZM3.70881 24.9643C3.73436 24.9613 3.75971 24.9583 3.7847 24.9551L3.7938 24.9538C3.76587 24.9575 3.73747 24.9609 3.70881 24.9643ZM4.24796 24.8662C4.24207 24.8682 4.23581 24.8702 4.22923 24.8722C4.23583 24.8702 4.24214 24.8682 4.24805 24.8662C4.24897 24.8659 4.24977 24.8653 4.25065 24.8649C4.24976 24.8653 4.2489 24.8659 4.24796 24.8662ZM12.489 23.4855C12.491 23.4872 12.493 23.4888 12.495 23.4905C12.4813 23.4788 12.4677 23.4669 12.454 23.4547L12.489 23.4855ZM13.5746 22.5256C13.5739 22.5281 13.5732 22.5306 13.5725 22.5332C13.5768 22.5176 13.5814 22.5021 13.5862 22.4866L13.5746 22.5256ZM18.8865 22.3675L18.922 22.3798L18.9219 22.3797C18.9104 22.376 18.8986 22.3719 18.8865 22.3674V22.3675ZM13.6269 22.3722C13.626 22.3745 13.625 22.3769 13.6241 22.3793C13.6265 22.3734 13.6289 22.3675 13.6314 22.3616C13.6299 22.3651 13.6284 22.3686 13.6269 22.3722ZM13.6454 22.3296C13.6431 22.3346 13.6409 22.3396 13.6387 22.3446C13.6409 22.3396 13.6431 22.3346 13.6454 22.3296ZM13.6954 22.2385C13.6819 22.2587 13.67 22.2786 13.6603 22.2981C13.6583 22.3022 13.6564 22.3062 13.6545 22.3103C13.6564 22.3062 13.6584 22.3022 13.6604 22.2981C13.6653 22.2883 13.6707 22.2785 13.6765 22.2685C13.6824 22.2586 13.6887 22.2486 13.6955 22.2385H13.6954ZM10.6783 21.7913C10.6797 21.7926 10.6812 21.7938 10.6825 21.795C10.6761 21.7893 10.6689 21.7828 10.6606 21.7749L10.6783 21.7913ZM10.6087 21.7257L10.6014 21.7194C10.601 21.7191 10.6006 21.7189 10.6002 21.7186C10.6037 21.7213 10.6066 21.7236 10.6087 21.7257ZM9.711 21.2889H9.71109C9.71779 21.288 9.72461 21.2873 9.73155 21.2868H9.73147C9.72452 21.2873 9.71771 21.288 9.711 21.2889ZM2.38284 19.6047C2.39136 19.6154 2.39999 19.6259 2.40894 19.6359H2.40903C2.40006 19.6259 2.39137 19.6154 2.38284 19.6047ZM2.36679 19.5839C2.3696 19.5877 2.37235 19.5914 2.37521 19.5951C2.37235 19.5914 2.3696 19.5877 2.36679 19.5839ZM2.35127 19.5625C2.35391 19.5663 2.35657 19.57 2.35925 19.5737C2.35657 19.57 2.35391 19.5663 2.35127 19.5625ZM2.34 19.546C2.34117 19.5478 2.34246 19.5495 2.34364 19.5513C2.34155 19.5482 2.33946 19.5451 2.3374 19.5419C2.33829 19.5433 2.3391 19.5447 2.34 19.546ZM2.29135 19.4646C2.29936 19.4795 2.30766 19.4939 2.31615 19.5081C2.30765 19.4939 2.29936 19.4795 2.29135 19.4646ZM11.981 19.1779C11.9769 19.1773 11.9727 19.1767 11.9685 19.1761C11.9727 19.1767 11.9769 19.1773 11.981 19.1779ZM11.8511 19.1592C11.8526 19.1594 11.854 19.1595 11.8555 19.1597C11.8393 19.1572 11.8232 19.1546 11.8071 19.1514L11.8511 19.1592ZM11.5178 19.0297C11.5224 19.033 11.5269 19.0364 11.5315 19.0395C11.5269 19.0364 11.5224 19.033 11.5178 19.0297ZM11.4924 19.0108C11.496 19.0137 11.4998 19.0162 11.5034 19.019C11.4976 19.0146 11.4917 19.0101 11.4859 19.0054C11.4881 19.0072 11.4902 19.0091 11.4924 19.0108ZM11.446 18.9709C11.4546 18.9787 11.4631 18.9863 11.4716 18.9935C11.4631 18.9863 11.4546 18.9787 11.446 18.9709ZM11.4218 18.9482C11.4234 18.9498 11.4252 18.9513 11.4268 18.9529C11.4226 18.9487 11.4183 18.9445 11.414 18.9402C11.4167 18.9429 11.4192 18.9456 11.4218 18.9482ZM11.3805 18.9049C11.3849 18.9098 11.3894 18.9145 11.3938 18.9192C11.3894 18.9145 11.3849 18.9098 11.3805 18.9049ZM10.8682 17.9374L10.8792 18.1776H10.8793L10.8682 17.9374C10.8691 17.9275 10.8703 17.9174 10.8718 17.907V17.9069C10.8703 17.9173 10.8691 17.9275 10.8682 17.9374ZM1.76893 17.8209C1.76811 17.8247 1.76742 17.8286 1.76685 17.8323L1.76902 17.8209C1.76985 17.817 1.77073 17.8131 1.7718 17.8092L1.76893 17.8209ZM4.73335 17.2822L4.92977 17.3437V17.3436L4.73335 17.2821V17.2822ZM11.3994 16.9011H11.3995H11.3994ZM26.1479 16.3417C26.0917 16.3737 26.0355 16.4058 25.98 16.4383L26.0762 16.3827C26.1001 16.369 26.124 16.3554 26.1479 16.3417ZM26.3647 16.2168C26.3149 16.2462 26.2643 16.2753 26.2134 16.3043C26.2321 16.2937 26.2508 16.2831 26.2694 16.2724C26.3014 16.2539 26.3333 16.2354 26.3648 16.2168H26.3647ZM4.50284 15.9246C4.51454 15.96 4.52652 15.9907 4.53918 16.0143H4.53926C4.5361 16.0084 4.53297 16.002 4.5299 15.9953C4.52372 15.9818 4.51771 15.9667 4.51177 15.9502C4.50881 15.942 4.50585 15.9335 4.50293 15.9246H4.50284ZM27.0704 15.6113C27.0786 15.6002 27.0865 15.5889 27.0942 15.5777C27.0864 15.5889 27.0786 15.6002 27.0704 15.6113ZM27.1041 15.5634C27.107 15.5591 27.1099 15.555 27.1127 15.5507C27.1144 15.5481 27.1161 15.5454 27.1178 15.5427C27.1133 15.5496 27.1087 15.5565 27.1041 15.5634ZM27.1286 15.526C27.1339 15.5175 27.1391 15.5091 27.1442 15.5006C27.1391 15.5091 27.1339 15.5175 27.1286 15.526ZM14.6176 15.5191C14.6143 15.5204 14.6111 15.5216 14.6078 15.5229C14.6111 15.5216 14.6143 15.5204 14.6176 15.5191ZM14.6372 15.5122C14.6354 15.5128 14.6335 15.5135 14.6317 15.5141C14.6348 15.513 14.6379 15.512 14.641 15.5111C14.6398 15.5115 14.6385 15.5118 14.6372 15.5122ZM16.0002 15.4831C15.9866 15.4865 15.9729 15.4896 15.9593 15.4925C15.932 15.4982 15.9046 15.5029 15.8771 15.5066L15.9183 15.5004C15.9457 15.4957 15.973 15.49 16.0002 15.4832C16.006 15.4817 16.0117 15.4799 16.0175 15.4782C16.0117 15.4799 16.0059 15.4816 16.0002 15.4831ZM14.7572 15.4878C14.7261 15.4921 14.6952 15.4977 14.6644 15.5047C14.6622 15.5052 14.66 15.5058 14.6578 15.5064C14.6599 15.5059 14.6621 15.5053 14.6643 15.5048C14.6951 15.4978 14.7261 15.4921 14.7572 15.4878ZM27.1481 15.494C27.149 15.4924 27.1499 15.4909 27.1508 15.4894C27.1568 15.4791 27.1626 15.4687 27.1683 15.4583V15.4582C27.1618 15.4702 27.155 15.4821 27.1481 15.494ZM16.0241 15.4762C16.0293 15.4746 16.0345 15.4728 16.0398 15.471C16.0345 15.4728 16.0293 15.4746 16.0241 15.4762ZM16.0518 15.4668C16.056 15.4652 16.0604 15.4636 16.0647 15.4619C16.0604 15.4636 16.0561 15.4652 16.0518 15.4668ZM16.0797 15.4558C16.0838 15.454 16.088 15.4524 16.0921 15.4505C16.0879 15.4524 16.0838 15.454 16.0797 15.4558ZM0.29926 14.0119C0.289112 14.0324 0.278353 14.0517 0.268041 14.0713H0.268127C0.278434 14.0517 0.289129 14.0324 0.29926 14.0119ZM0.315391 13.9759C0.316551 13.973 0.317662 13.97 0.318773 13.967C0.31766 13.97 0.316553 13.973 0.315391 13.9759ZM0.323629 13.953C0.324286 13.951 0.324993 13.949 0.325624 13.947C0.324992 13.949 0.324287 13.951 0.323629 13.953ZM0.331347 13.9265C0.331656 13.9253 0.332003 13.924 0.332301 13.9228C0.332003 13.924 0.331656 13.9253 0.331347 13.9265ZM26.8464 13.7961C26.8497 13.7984 26.853 13.8006 26.8563 13.8029C26.8464 13.796 26.8368 13.789 26.8276 13.7815L26.8464 13.7961ZM26.5865 13.4921C26.613 13.5258 26.6388 13.5589 26.6633 13.59C26.6388 13.5589 26.613 13.5258 26.5865 13.4921ZM7.94465 13.5188C7.94154 13.5232 7.93838 13.5275 7.93503 13.5318C7.93836 13.5276 7.94155 13.5232 7.94465 13.5189V13.5188ZM22.0965 13.4645C22.1148 13.4594 22.1326 13.4542 22.1498 13.449C22.1326 13.4542 22.1148 13.4594 22.0965 13.4645ZM26.5469 13.4418C26.5296 13.4199 26.5121 13.3979 26.4948 13.3763C26.5121 13.3979 26.5296 13.4199 26.5469 13.4418ZM26.3968 13.257C26.4088 13.2711 26.421 13.2857 26.4335 13.3007C26.4328 13.2999 26.4322 13.2991 26.4316 13.2983C26.4198 13.2841 26.4082 13.2703 26.3968 13.257ZM0.858096 13.1838C0.848741 13.1845 0.839477 13.1855 0.830345 13.1868C0.839481 13.1855 0.848736 13.1845 0.858096 13.1839L1.15971 13.0382L0.858096 13.1838ZM3.29402 12.0347C3.22439 12.0685 3.12514 12.1165 2.91696 12.2163C3.3348 12.016 3.31382 12.0246 3.49539 11.9374L3.29402 12.0347ZM8.10838 8.72866C8.09373 8.74648 8.08216 8.76309 8.07239 8.77875L8.08861 8.75453C8.09456 8.74621 8.10106 8.73757 8.10838 8.72866ZM23.8275 7.85667C23.8273 7.85714 23.827 7.85757 23.8268 7.85804C23.827 7.85751 23.8274 7.85703 23.8277 7.85649L23.8275 7.85667ZM8.76981 7.69999C8.76416 7.70455 8.75863 7.70921 8.75325 7.71397C8.74787 7.71873 8.74263 7.72363 8.73755 7.7286C8.71928 7.74643 8.70175 7.76404 8.68491 7.78144C8.70175 7.76403 8.71935 7.74644 8.73764 7.7286C8.7478 7.71866 8.75854 7.70911 8.76981 7.69999ZM13.1336 7.66086C13.1315 7.69413 13.1275 7.72492 13.1219 7.75365V7.75374C13.1275 7.72501 13.1315 7.69423 13.1336 7.66095V7.66086ZM23.8213 7.62612C23.8213 7.62621 23.8213 7.62632 23.8212 7.6264C23.8228 7.62343 23.8245 7.62056 23.8264 7.61781L23.8213 7.62612ZM14.9127 7.56972C14.8385 7.57255 14.7643 7.57588 14.6902 7.5795L14.9127 7.56981C14.9566 7.56805 15.0004 7.56651 15.044 7.56533C15.0004 7.56651 14.9566 7.56796 14.9127 7.56972ZM17.4881 7.20361C17.4782 7.20542 17.4684 7.20751 17.4588 7.20974C17.4685 7.2075 17.4783 7.20543 17.4882 7.20361C17.5139 7.19898 17.5391 7.19399 17.564 7.18899C17.5391 7.194 17.5138 7.19897 17.4881 7.20361ZM18.7371 6.81438C18.7309 6.81625 18.7247 6.8183 18.7185 6.8205C18.6673 6.8387 18.6177 6.85664 18.5694 6.87425L18.7186 6.8205C18.7309 6.81609 18.7434 6.81233 18.7561 6.80916L18.7371 6.81438ZM9.73494 6.73146C9.71845 6.7349 9.69768 6.73538 9.67519 6.73485C9.69772 6.73538 9.71853 6.73491 9.73502 6.73146C9.72811 6.71612 9.72163 6.70108 9.7156 6.68631L9.73494 6.73146ZM24.7664 6.27522L24.7271 6.37632L24.7665 6.27522C24.7813 6.26647 24.7949 6.25779 24.8076 6.24935C24.7949 6.25779 24.7812 6.26647 24.7664 6.27522ZM25.2543 5.7304C25.2516 5.73262 25.2488 5.73485 25.246 5.73716C25.2488 5.73486 25.2516 5.73262 25.2543 5.7304ZM25.2811 5.70956C25.279 5.71112 25.2769 5.71279 25.2748 5.7144C25.2785 5.7116 25.2821 5.70883 25.2858 5.70617L25.2811 5.70956ZM25.6887 5.40149C25.6615 5.41726 25.6295 5.43394 25.5918 5.45214V5.45223C25.6295 5.43404 25.6615 5.41735 25.6887 5.40158V5.40149ZM10.5008 4.45728C10.4795 4.55878 10.4565 4.68351 10.4337 4.80182C10.4565 4.68355 10.4795 4.55885 10.5008 4.45738V4.45728ZM10.5511 4.26404C10.5475 4.27235 10.5437 4.28304 10.5397 4.29576L10.5398 4.29585C10.5437 4.28311 10.5475 4.27236 10.5512 4.26404H10.5511ZM14.6345 3.56866C14.6398 3.57246 14.6456 3.576 14.6522 3.57908C14.6737 3.58103 14.6946 3.58254 14.715 3.58383C14.6946 3.58252 14.6737 3.58094 14.6522 3.57899C14.6456 3.57592 14.6398 3.57243 14.6345 3.56866ZM15.8813 3.48712L15.8432 3.47962C15.8423 3.47946 15.8413 3.47932 15.8404 3.47916C15.8538 3.48146 15.8674 3.4841 15.8813 3.48712ZM27.1425 3.14624C27.1172 3.24227 27.094 3.33509 27.0739 3.42166H27.074C27.0941 3.33509 27.1172 3.24227 27.1425 3.14624ZM16.5087 3.39717C16.4958 3.3986 16.4828 3.39981 16.4698 3.40082C16.451 3.40229 16.432 3.40333 16.413 3.4043C16.432 3.40332 16.451 3.40239 16.4698 3.40091C16.4828 3.39991 16.4958 3.39869 16.5087 3.39726V3.39717ZM16.5816 3.38565C16.5839 3.38518 16.5861 3.38468 16.5883 3.38419C16.5861 3.38468 16.5839 3.38518 16.5816 3.38565ZM18.5706 2.89531C18.5768 2.89554 18.5829 2.89586 18.5891 2.89604C18.5829 2.89586 18.5768 2.89554 18.5706 2.89531ZM18.433 2.88653C18.47 2.88974 18.5074 2.89234 18.5454 2.89421C18.5075 2.89232 18.47 2.88974 18.433 2.88653H18.433ZM27.2918 2.62326C27.2688 2.69852 27.2459 2.77503 27.2239 2.85152C27.2382 2.80182 27.2529 2.75209 27.2677 2.7027C27.2756 2.67608 27.2838 2.64962 27.2918 2.62326ZM27.3245 2.51768C27.3178 2.53907 27.311 2.56062 27.3043 2.58231C27.311 2.56061 27.3178 2.53908 27.3245 2.51768ZM19.5436 2.46758C19.5402 2.46984 19.5362 2.47288 19.5315 2.47645C19.5366 2.47254 19.541 2.46938 19.5446 2.46704L19.5436 2.46758ZM27.3636 2.39546C27.3581 2.4122 27.3526 2.42908 27.3472 2.4461C27.3526 2.42908 27.3581 2.4122 27.3636 2.39546ZM22.9534 1.17793C22.943 1.17918 22.9329 1.18073 22.9231 1.18259H22.9232C22.9329 1.18074 22.943 1.17918 22.9534 1.17793ZM23.3941 1.17601C23.3999 1.17537 23.4056 1.17499 23.4111 1.17418L23.413 1.17381C23.4069 1.17474 23.4005 1.1753 23.3941 1.17601ZM26.4551 0.475873C26.439 0.463667 26.425 0.453354 26.4139 0.445432C26.425 0.45333 26.439 0.463665 26.4551 0.475873ZM25.5867 0.475416C25.5901 0.475605 25.5935 0.475566 25.597 0.47569C25.5857 0.475269 25.5745 0.474682 25.5635 0.473588L25.5867 0.475416ZM25.4328 0.46664C25.4276 0.467207 25.4226 0.467983 25.418 0.468743C25.4273 0.467226 25.4376 0.465976 25.4494 0.465361L25.4328 0.46664ZM26.402 0.437205C26.4 0.435881 26.3983 0.434575 26.3966 0.433549L26.3957 0.433092C26.3975 0.434247 26.3996 0.435635 26.402 0.437205ZM2.84524 24.9881C2.84939 24.989 2.85352 24.9901 2.85773 24.991C2.86328 24.9921 2.8689 24.993 2.87455 24.9941C2.86461 24.9922 2.85485 24.9902 2.84524 24.9881ZM0.299694 14.0112C0.304194 14.002 0.308422 13.9925 0.312529 13.9827C0.308417 13.9925 0.304198 14.002 0.299694 14.0112Z" fill="#C6F065"/>
<path d="M125.644 6.70092L125.973 7.20883L126.349 7.34955L126.807 7.37069L126.843 7.37234L126.868 7.39807L127.171 7.71043L127.2 7.74064L127.198 7.78321L127.173 8.14465L127.474 8.54353L127.494 8.57044L127.493 8.6045L127.476 9.06865L127.475 9.09492L127.461 9.11681L127.191 9.53665L127.464 9.94001L127.477 9.95878L127.479 9.98139L127.538 10.4455L127.539 10.4468L127.539 10.4482L127.585 10.9124L127.586 10.9184L127.585 10.9245L127.573 11.3825L127.619 11.839L127.673 12.3032L127.676 12.3283L127.667 12.3516L127.47 12.8217L127.319 13.2452L127.614 13.6603L127.625 13.6747L127.629 13.692L127.747 14.1562L127.75 14.1687L127.75 14.1817L127.741 14.6502L127.741 14.6546L127.712 15.1188L127.711 15.1352L127.704 15.1504L127.505 15.615L127.412 16.0362L127.727 16.4566L127.766 16.5085L127.732 16.5639L127.465 16.9995L127.676 17.4115L127.698 17.4533L127.678 17.4959L127.472 17.9358L127.638 18.3617L127.649 18.3886L127.642 18.417L127.548 18.856L127.73 19.2924L127.738 19.3109L127.737 19.3311L127.729 19.7996L127.729 19.8085L127.727 19.8172L127.635 20.2634L127.795 20.7021L127.799 20.7142L127.8 20.7271L127.838 21.1957L127.838 21.1995V21.6875L127.834 21.7021L127.692 22.1302L127.978 22.5557L128.002 22.5918L127.991 22.6341L127.865 23.1026L127.748 23.5661L127.673 24.0023L127.825 24.4431L127.828 24.4533L127.829 24.464L127.88 24.9282L127.882 24.9448L127.878 24.961L127.771 25.408L127.788 25.8592L127.789 25.8875L127.774 25.9115L127.536 26.3133L127.752 26.7435L127.763 26.7639V27.257L127.762 27.2632L127.704 27.7111L127.762 28.1761L127.769 28.2304L127.726 28.2631L127.26 28.6203L127.219 29.026L127.21 29.4868L127.21 29.5042L127.204 29.5203L127.046 29.9211L127.029 30.4727L127.027 30.5317L126.975 30.5555L126.473 30.7839L126.083 30.9964L125.81 31.4398L125.792 31.4691L125.759 31.4793L125.287 31.6268L125.266 31.6334L125.244 31.6291L124.752 31.5329L124.331 31.6283L123.926 31.9537L123.868 32L123.812 31.9519L123.406 31.606L123.012 31.6729L122.999 31.6752L122.985 31.6733L122.564 31.6138L122.118 31.6436L122.1 31.6448L122.083 31.6387L121.676 31.4949L121.228 31.4569L121.185 31.4533L121.161 31.4167L120.876 30.9912L120.58 30.7063L120.164 30.5953L120.146 30.5907L120.132 30.5798L119.775 30.3076L119.435 30.0724L118.945 30.283L118.893 30.3052L118.851 30.2681L118.495 29.9581L118.112 29.6834L118.095 29.6715L118.085 29.6534L117.849 29.2326L117.838 29.2132L117.837 29.1908L117.812 28.732L117.588 28.2408L117.549 28.156L117.632 28.1161L118.159 27.8615L118.388 27.5398L118.707 27.039L118.728 27.0061L118.765 26.9984L119.254 26.8986L119.273 26.8948L119.292 26.8992L119.79 27.0164L119.798 27.0183L119.805 27.0216L120.228 27.2082L120.633 26.8901L120.682 26.8514L120.735 26.8842L121.125 27.126L121.545 27.1138L121.56 27.1134L121.574 27.1179L122.03 27.261L122.079 27.2764L122.091 27.3278L122.211 27.8184L122.581 27.9991L122.607 28.0115L122.621 28.0366L122.819 28.3847L123.228 28.4556L123.231 28.4562L123.235 28.4571L123.538 28.5361L123.762 28.436L123.769 28.4328L123.777 28.4309L124.255 28.3108L124.328 27.9019L124.329 27.8968L124.331 27.8917L124.454 27.4753L124.335 27.0371L124.184 26.5874L124.173 26.553L124.187 26.5196L124.366 26.0905L124.409 25.6524L124.17 25.2051L124.142 25.1536L124.175 25.1057L124.486 24.6539L124.348 24.2216L124.344 24.2083L124.344 24.1942L124.335 23.7202L124.256 23.2497L124.254 23.2327L124.257 23.2158L124.347 22.7409L124.344 22.7195L124.335 22.7726L124.326 22.8262L124.276 22.8447L123.824 23.0137L123.897 23.5148L123.905 23.5689L123.863 23.6026L123.496 23.8976L123.492 23.9011L123.487 23.9041L123.114 24.1339L123.037 24.5735L123.031 24.6076L123.005 24.6296L122.675 24.9062L122.425 25.31L122.418 25.3214L122.408 25.3304L122.05 25.6514L122.018 25.6806L121.975 25.6731L121.433 25.5779L121.086 25.7315L120.729 26.1781L120.695 26.2213L120.641 26.2106L120.181 26.1192L119.725 26.2398L119.663 26.2561L119.627 26.2018L119.306 25.717L118.987 25.5375L118.461 25.5788L118.435 25.5808L118.412 25.5682L117.986 25.3384L117.956 25.3217L117.943 25.2881L117.774 24.8208L117.531 24.4438L117.517 24.422L117.516 24.3959L117.497 23.9139L117.183 23.6149L117.182 23.6136L116.836 23.2709L116.819 23.2542L116.812 23.2314L116.677 22.7889L116.672 22.7698L116.674 22.7498L116.726 22.2951L116.297 22.0017L116.257 21.9748L116.256 21.9261L116.244 21.4534L116.149 21.0111L116.143 20.9843L116.152 20.9586L116.311 20.5143L115.898 20.1747L115.869 20.1502L115.865 20.1111L115.818 19.6469L115.818 19.64L115.818 19.633L115.839 19.1645L115.839 19.1637L115.863 18.7208L115.647 18.297L115.631 18.2654L115.639 18.2308L115.753 17.7622L115.755 17.7544L115.758 17.7468L115.937 17.3325L115.591 16.9176L115.546 16.864L115.584 16.8051L115.876 16.3479L115.997 15.9325L115.777 15.4799L115.771 15.4671L115.768 15.4529L115.692 14.967L115.69 14.9493L115.693 14.9318L115.795 14.4633L115.8 14.4401L115.815 14.4222L116.139 14.0383L115.931 13.5772L115.919 13.5496L115.925 13.5198L116.013 13.0556L116.019 13.0254L116.041 13.0046L116.428 12.6395L116.506 12.2103L116.507 12.2077L116.507 12.205L116.611 11.7795L116.446 11.2453L116.422 11.1687L116.492 11.133L116.993 10.8772L116.985 10.4246L116.985 10.4094L116.989 10.3949L117.128 9.93946L117.136 9.91337L117.157 9.89579L117.526 9.57601L117.834 9.2869L117.853 8.76224L117.855 8.72726L117.878 8.70172L118.194 8.35466L118.21 8.33708L118.232 8.32958L118.673 8.18264L118.938 7.81617L118.947 7.8028L118.961 7.79365L119.349 7.53338L119.753 7.26019L119.8 7.22843L119.849 7.25745L120.344 7.55278L120.726 7.41903L120.733 7.41647L120.741 7.41519L121.238 7.33279L121.267 7.32803L121.293 7.34121L121.713 7.55324L122.283 7.33325L122.373 7.29846L122.402 7.39303L122.584 7.99359L122.922 8.17522L122.934 8.182L122.944 8.19244L123.208 8.46791L123.478 8.49757L123.62 8.10015L123.621 8.09658L123.623 8.09311L123.795 7.70942L123.783 7.14109L123.782 7.08799L123.826 7.0597L124.201 6.81673L124.23 6.7976L124.265 6.80364L124.707 6.88173L124.71 6.88228L124.713 6.88292L125.052 6.96522L125.521 6.67272L125.596 6.62622L125.644 6.70092ZM78.0112 6.47589L78.4622 6.55829L78.4855 6.56259L78.5039 6.57797L78.8866 6.89995L79.248 7.06822L79.7236 6.95405L79.7755 6.9416L79.8114 6.98198L80.1289 7.33764L80.5792 7.49914L80.5802 7.4995L80.5811 7.49978L81.0785 7.69066L81.1292 7.71016L81.1368 7.76536L81.2121 8.31236L81.6125 8.67563L81.6466 8.70648L81.6431 8.75299L81.6094 9.21284L81.5757 9.6812L81.5737 9.70894L81.5574 9.7311L81.2936 10.0877V10.5363L81.2524 10.564L80.8648 10.8249L81.0294 11.2303L81.0305 11.2329L81.0315 11.2356L81.1916 11.7085L81.1981 11.7277L81.1963 11.7479L81.1542 12.2165L81.1524 12.2358L81.1434 12.2527L80.9118 12.689L81.0211 13.1304L81.0221 13.1343L81.0227 13.1383L81.0986 13.6111L81.1043 13.6473L81.0848 13.678L80.8199 14.0926L81.1163 14.5175L81.1429 14.5555L81.1293 14.6L80.989 15.0629L80.952 15.5256L80.9515 15.5311L80.9504 15.5364L80.858 16.0074L80.793 16.4637L80.8578 16.9224L80.9731 17.3884L81.0502 17.5829L81.0725 17.506L81.1896 17.0667L81.2717 16.6231L81.28 16.1539L81.2807 16.1116L81.3121 16.0841L81.6743 15.7675L81.6974 15.3391L81.699 15.3087L81.7178 15.2851L81.9889 14.943L81.8849 14.4714L81.8813 14.4546L81.8836 14.4374L81.9468 13.9819L81.9499 13.9594L81.9627 13.9409L82.2325 13.5504L82.2333 13.5491L82.2343 13.5479L82.5143 13.1706L82.6751 12.7972L82.459 12.2795L82.4447 12.2451L82.4573 12.21L82.6133 11.7762L82.6211 11.7542L82.6381 11.7387L82.9797 11.4257L82.855 10.9435L82.8424 10.8946L82.8752 10.8569L83.1851 10.5L83.3444 10.0982L83.4355 9.6466L83.4358 9.64513L83.537 9.18098L83.5421 9.15727L83.5579 9.13905L83.8697 8.77899L83.874 8.77405L83.8789 8.76983L84.2287 8.46544L84.5453 8.11389L84.5806 8.07461L84.6315 8.08606L85.1212 8.19619L85.5085 8.17623L85.8943 7.94882L85.9298 7.92786L85.9687 7.94132L86.3862 8.08587L86.8389 8.0163L87.3342 7.86643L87.3671 7.85654L87.3982 7.87137L87.8533 8.08825L87.8602 8.09155L87.8665 8.09594L88.2538 8.36876L88.7319 8.49912L88.7591 8.50663L88.7775 8.5286L89.1189 8.93636L89.1337 8.95403L89.1387 8.97674L89.2567 9.51037L89.2629 9.53811L89.253 9.56466L89.0834 10.0199L89.0129 10.4473L89.1613 10.8887L89.1618 10.8902L89.3093 11.3544L89.32 11.3882L89.3063 11.4209L89.115 11.8743L88.9988 12.3114L89.0381 12.7442L89.2224 13.1953L89.241 13.2409L89.2149 13.2825L88.9364 13.7268L88.9014 14.1556L88.9795 14.6078L88.981 14.6168L88.9808 14.6259L88.9728 15.0683L89.1745 15.5129L89.1922 15.5518L89.1752 15.591L88.9813 16.0355L88.9933 16.4769L89.0215 16.9165L89.2289 17.3601L89.2348 17.3727L89.2369 17.3867L89.3043 17.8465L89.3058 17.8565L89.3051 17.8666L89.2757 18.3308L89.2739 18.3586L89.2577 18.3808L88.9352 18.8246L88.89 19.2413L89.0496 19.6808L89.2587 20.1371L89.2682 20.1578L89.2674 20.1806L89.2505 20.6447L89.2504 20.6478L89.25 20.6509L89.2037 21.115L89.203 21.1223L89.2012 21.1292L89.0896 21.5683L89.2132 22.0077L89.2189 22.0279L89.2157 22.0485L89.145 22.5068L89.1336 22.9231L89.4667 23.2501L89.4781 23.2613L89.4852 23.2758L89.7373 23.7904L89.9354 24.1533L90.2949 24.3836L90.3573 24.4235L90.3326 24.4947L90.1882 24.9117L90.2614 25.5145L90.1971 25.5227L90.257 25.5622L90.0135 25.9699L89.8398 26.4852L89.8173 26.5517L89.749 26.5481L89.2024 26.5191L88.8167 26.7443L88.7976 26.7553L88.7758 26.7564L88.3053 26.778L87.8547 26.8083L87.8343 26.8096L87.8152 26.8019L87.3896 26.6284V26.6283L87.0064 26.4738L86.4893 26.5852L86.4158 26.6011L86.3867 26.5299L86.1926 26.0559L85.6897 26.0011L85.6363 25.9952L85.6154 25.9442L85.4257 25.48L85.4186 25.4626V24.9874L85.1614 24.6127L85.1433 24.5865L85.1448 24.5543L85.165 24.1084L85.0192 23.6831L85.0165 23.6754L85.0152 23.6671L84.9436 23.216L84.938 23.1805L84.9569 23.1502L85.2351 22.704L85.2021 22.3083L84.8776 21.8836L84.8505 21.8481L84.8605 21.8041L84.96 21.37L84.8206 20.9353L84.8053 20.8876L84.8353 20.8482L85.1676 20.4113L85.1893 20.04L84.9006 19.629L84.89 19.6139L84.8859 19.5958L84.7847 19.1576L84.7781 19.1293L84.7884 19.1021L84.9477 18.6774L84.9805 18.1538L84.9816 18.1367L84.9885 18.121L85.2114 17.6168L85.0932 17.114L84.9386 16.6364L84.9332 16.6195L84.9341 16.6017L84.9594 16.1202L84.9601 16.1053L84.9654 16.0915L85.1316 15.6479L84.8073 15.2435L84.7875 15.2188L84.7865 15.1868L84.7812 15.0123L84.6855 15.1276L84.6781 15.1365L84.6688 15.1433L84.2902 15.4183L84.4179 15.9283L84.4258 15.9601L84.4128 15.9901L84.2273 16.4153L84.2257 16.4189L84.2238 16.4225L84.0004 16.8347L83.7978 17.2272L83.8138 17.7055L83.8149 17.7362L83.798 17.7616L83.5324 18.1607L83.5292 18.1656L83.5254 18.17L83.2316 18.5111L83.3962 19.015L83.4153 19.0736L83.3704 19.1148L82.9886 19.4655L82.7688 19.8361L82.8476 20.3267L82.8494 20.3384L82.8484 20.3503L82.8062 20.8319L82.8049 20.8471L82.7989 20.8612L82.6134 21.295L82.6054 21.3139L82.5904 21.3275L82.2312 21.6544L82.3446 22.1331L82.3507 22.1586L82.3429 22.1837L82.2039 22.6348L82.1962 22.66L82.1767 22.6773L81.7898 23.0222L81.6872 23.4531L81.687 23.4539L81.6867 23.4546L81.577 23.8822L81.8207 24.433L81.8448 24.4876L81.8068 24.533L81.4253 24.9897L81.556 25.4841L81.5595 25.4978L81.5591 25.5119L81.5422 26.0195L81.5411 26.0542L81.5182 26.0797L81.1853 26.4528L81.1752 26.464L81.1622 26.4715L80.812 26.6703L80.4949 27.0931L80.4711 27.1249L80.4321 27.129L79.939 27.181L79.914 27.1837L79.8912 27.1727L79.4511 26.9609L78.9796 26.9733L78.9635 26.9738L78.9483 26.9685L78.4846 26.8079L78.4837 26.8076L78.4826 26.8073L78.0063 26.6294L77.9588 26.6116L77.9483 26.5606L77.8336 26.0028L77.4968 25.7638L77.4891 25.7582L77.4825 25.7511L77.1706 25.4127L77.1479 25.3881L77.1458 25.3542L77.1187 24.9214L76.6937 24.5569L76.6339 24.5056L76.6739 24.4368L76.9607 23.9432L76.8336 23.5191L76.83 23.5073L76.8296 23.4948L76.8136 23.0444L76.5206 22.5982L76.5004 22.5675L76.5061 22.5309L76.5798 22.0587L76.5185 21.5909L76.5151 21.5656L76.5247 21.5421L76.7188 21.0658L76.795 20.6266L76.5071 20.1719L76.4911 20.1465L76.4924 20.1163L76.5135 19.6565L76.5143 19.6399L76.5205 19.6246L76.7031 19.1759L76.8014 18.7637L76.5166 18.3341L76.4776 18.2752L76.5224 18.2207L76.8746 17.793L76.8597 17.3876L76.6647 16.9401L76.656 16.9201L76.6568 16.8982L76.6736 16.4426V15.9984L76.5626 15.5497L76.553 15.5108L76.5737 15.4767L76.8149 15.0809L76.588 14.6564L76.5807 14.6428L76.578 14.6274L76.508 14.2177L76.1346 14.4468L76.023 14.8629L75.9309 15.3242L75.9236 15.3607L75.894 15.382L75.5287 15.6456L75.5741 16.1248L75.5792 16.1787L75.5364 16.2102L75.1195 16.5166L74.9935 16.9626L74.9905 16.9734L74.985 16.9832L74.7598 17.3858L74.8195 17.9059L74.8229 17.9355L74.8091 17.9618L74.5832 18.3878L74.387 18.8303L74.3871 18.8304L74.2064 19.26L74.2467 19.7484L74.248 19.7649L74.2438 19.7808L74.1248 20.2329V20.7453L74.1188 20.7615L73.9505 21.2135L73.906 21.7034L73.9546 22.1994L74.1195 22.6747L74.1262 22.6941L74.1244 22.7146L74.078 23.2482L74.0751 23.2821L74.0518 23.3062L73.664 23.7052L73.6402 23.7298L73.6065 23.7324L73.1824 23.7657L72.8577 23.9391L72.8356 23.9508L72.8108 23.9495L72.4189 23.9278L72.409 23.9272L72.3994 23.9245L72.031 23.8192L71.6464 23.8108L71.6169 23.8101L71.5934 23.7919L71.2801 23.5489L70.9293 23.4203L70.436 23.2826L70.4112 23.2757L70.3935 23.2564L70.0622 22.8943L69.5945 22.6324L69.5517 22.6085L69.5472 22.5586L69.5019 22.0454L69.3458 21.5969L69.3371 21.5722L69.3422 21.5465L69.4375 21.0687L69.2474 20.6366L69.2432 20.6272L69.2411 20.6171L69.1447 20.1425L69.011 19.6652L69.006 19.6471L69.008 19.6285L69.0623 19.1377L69.0784 18.6771L68.8763 18.2111L68.8656 18.1865L68.8692 18.1598L68.9367 17.6653L68.9384 17.6523L68.9436 17.6403L69.1301 17.2072L69.0512 16.7805L69.0455 16.75L69.0587 16.722L69.2491 16.3184L68.946 15.9087L68.9126 15.8636L68.9359 15.8122L69.1276 15.3893L69.0029 14.9682L68.9928 14.9338L69.0076 14.9012L69.1989 14.4792L69.0666 14.0587L69.0631 14.0473L69.0623 14.0352L69.0379 13.5946L68.8704 13.1529L68.8536 13.1086L68.8785 13.0684L69.1354 12.6538L68.9721 12.2434L68.9593 12.2112L68.9699 12.1782L69.1065 11.7564L68.9305 11.3338L68.9251 11.3207L68.9237 11.3066L68.8773 10.8511L68.8752 10.8305L68.8817 10.8109L69.0285 10.37V9.9336L69.0052 9.48968L68.6675 9.14189L68.6441 9.1179L68.6411 9.08403L68.599 8.59809L68.5974 8.57923L68.603 8.5611L68.7442 8.10794L68.671 7.51708L68.66 7.42809L68.7459 7.41281L69.2355 7.32602L69.5537 7.04771L69.5781 7.02638L69.6101 7.02546L70.0434 7.01283L70.4612 6.82497L70.4694 6.82131L70.4781 6.81939L70.9375 6.7152L70.9472 6.71301H71.9671L71.9921 6.73388L72.3835 7.05952L72.8732 7.05146L72.9174 7.05073L72.9452 7.08588L73.2655 7.48925L73.2787 7.50582L73.2836 7.52669L73.3877 7.97208L73.722 8.35347L73.7546 8.39064L73.7427 8.43916L73.6247 8.92071L73.6172 8.95147L73.593 8.97124L73.2439 9.25633L73.2899 9.76543L73.2927 9.79518L73.2781 9.82109L73.0532 10.2206L72.957 10.6663L72.9448 11.1233V11.5788L73.0669 12.0274L73.2222 12.4941L73.2299 12.5174L73.2256 12.5416L73.1576 12.919L73.5906 12.754L73.5181 12.2877L73.5117 12.2465L73.5371 12.214L73.8087 11.8676L73.9385 11.4505L73.942 11.4391L73.9482 11.4291L74.1842 11.043L74.1855 11.0408L74.187 11.0387L74.4422 10.6682L74.6727 10.2844L74.6746 10.2811L74.677 10.2779L74.9364 9.91749L75.1068 9.5209L75.2272 9.08064V9.08037L75.3148 9.106L75.2273 9.08037L75.3494 8.63791L75.3519 8.62949L75.3557 8.62162L75.5504 8.22054L75.5951 7.75199L75.5966 7.73698L75.6025 7.72316L75.8048 7.25461L75.8239 7.2103L75.8701 7.20078L76.4193 7.08671L76.7135 6.90434L76.7342 6.89143L76.7585 6.89089L77.1124 6.88301L77.4795 6.54593L77.5015 6.5257L77.5309 6.52268L77.986 6.47489L77.9987 6.47361L78.0112 6.47589ZM102.115 6.72225L102.527 7.08176L102.973 7.0261L102.989 7.024L103.005 7.02803L103.473 7.14512L103.496 7.15098L103.513 7.16764L103.875 7.5136L104.236 7.84812L104.768 7.96448L104.803 7.97208L104.824 8.00229L105.132 8.45344L105.149 8.47935L105.148 8.51093L105.123 9.18684L105.156 9.65887L105.158 9.67589L105.153 9.69228L105.019 10.1557L104.936 10.6491L104.932 10.6763L104.913 10.6967L104.531 11.1216L104.607 11.5264L104.607 11.5272L104.607 11.5281L104.683 11.9793L104.687 12.0004L104.681 12.021L104.567 12.4313L104.873 12.8452L104.915 12.902L104.873 12.9587L104.56 13.3809L104.637 13.7909L104.638 13.801L104.638 13.8112L104.626 14.24L104.87 14.6725L104.887 14.7028L104.881 14.7372L104.809 15.126L105.026 14.8032L104.975 14.2867L104.972 14.2586L104.985 14.2335L105.2 13.8127L105.207 13.7996L105.217 13.7893L105.563 13.4418L105.827 13.098L105.788 12.5795L105.783 12.5166L105.838 12.4884L106.316 12.2424L106.494 11.8607L106.547 11.3689L106.549 11.3487L106.559 11.3313L106.795 10.9234L107.018 10.5198L107.176 10.0678L107.188 10.0332L107.219 10.0163L107.637 9.79308L107.742 9.34037L107.746 9.32114L107.758 9.30549L108.032 8.93233L108.05 8.90725L108.08 8.89864L108.537 8.76581L108.754 8.37801L108.776 8.33873L108.82 8.33214L109.281 8.26265L109.585 7.97034L109.586 7.96851L109.588 7.96677L109.942 7.6631L109.973 7.63719L110.012 7.64204L110.456 7.69771L110.809 7.37838L110.852 7.33975L110.904 7.36236L111.345 7.55205L111.754 7.49474L111.776 7.49172L111.797 7.49914L112.17 7.63289L112.649 7.6414L112.692 7.64214L112.719 7.67711L113.001 8.04587L113.006 8.05136L113.009 8.0574L113.228 8.45216L113.231 8.45829L113.234 8.46498L113.384 8.86624L113.673 9.20954L113.687 9.22648L113.693 9.24836L113.796 9.67937L113.966 10.0934L113.973 10.1097L113.973 10.1273L113.986 10.6123L114.015 11.0832L114.084 11.5367L114.258 11.9868L114.261 11.9961L114.263 12.006L114.339 12.4788L114.341 12.4936L114.339 12.5083L114.267 12.9899L114.266 12.9977L114.264 13.0051L114.115 13.4676L114.199 13.9122L114.202 13.924L114.201 13.936L114.171 14.4133L114.171 14.4157L114.171 14.4183L114.117 14.8824L114.191 15.342L114.194 15.3598L114.19 15.3773L114.092 15.8405L114.128 16.2719L114.26 16.7182L114.266 16.7378L114.263 16.7579L114.208 17.1878L114.387 17.6197L114.401 17.652L114.39 17.6855L114.253 18.1221L114.3 18.5797L114.292 18.6003L114.138 19.0263L114.26 19.4521L114.263 19.4604L114.264 19.4689L114.31 19.9207L114.397 20.3713L114.401 20.3879L114.398 20.4046L114.327 20.8557L114.299 21.2852L114.464 21.6989L114.465 21.7025L114.466 21.7061L114.584 22.0878L114.586 22.0931L114.587 22.0985L114.676 22.5743L114.898 22.9143L114.914 22.9398L114.913 22.9704L114.896 23.3975V23.4259L114.887 23.445L114.673 23.9092L114.672 23.9099L114.44 24.4002L114.432 24.4181L114.417 24.431L114.004 24.7867L113.99 24.7991L113.972 24.8046L113.482 24.9554L113.017 25.1406L112.993 25.1506L112.966 25.1451L112.48 25.0432L112.028 25.284L112.008 25.2944H111.47L111.461 25.2924L110.964 25.184L110.446 25.0712L110.395 25.0601L110.378 25.0097L110.191 24.4439L109.914 24.1511L109.895 24.1305L109.89 24.1023L109.814 23.6641L109.812 23.6538L109.813 23.6433L109.833 23.1915L109.647 22.7337L109.631 22.6952L109.649 22.6575L109.859 22.1998L109.94 21.7662L109.757 21.3151L109.748 21.2945L109.75 21.2721L109.783 20.7993L109.784 20.7854L109.789 20.7724L109.959 20.3192L109.928 19.8873L109.689 19.4322L109.664 19.384L109.692 19.3377L109.963 18.8918L109.882 18.4552L109.88 18.4473L109.88 18.4392L109.872 17.9771L109.761 17.5188L109.758 17.5076V17.0361L109.635 16.5798L109.627 16.5499L109.638 16.5211L109.814 16.047L109.857 15.5997L109.696 15.1605L109.693 15.1519L109.692 15.1428L109.616 14.6743L109.615 14.6679L109.615 14.6614L109.604 14.2283L109.262 14.1121L109.031 14.205L108.828 14.563L108.827 14.5637L108.827 14.5643L108.599 14.9505L108.596 14.9558L108.592 14.9607L108.328 15.2973L108.305 15.7528L108.302 15.8049L108.258 15.83L107.81 16.0825L107.729 16.4787L107.811 16.9907L107.815 17.017L107.805 17.0416L107.636 17.4624L107.631 17.4745L107.624 17.4848L107.337 17.8579L107.335 17.8608L107.332 17.8635L107.04 18.1876L107.144 18.6733L107.153 18.719L107.124 18.7545L106.833 19.1031L106.765 19.5369L106.765 19.5406L106.764 19.5441L106.659 19.991L106.652 20.0211L106.628 20.041L106.263 20.3528L106.244 20.7886L106.243 20.8113L106.232 20.8309L106.021 21.2115L106.033 21.6756L106.034 21.691L106.029 21.7059L105.899 22.1394L105.768 22.5776L105.76 22.6055L105.737 22.6237L105.338 22.9478L105.38 23.4134L105.38 23.4219L105.38 23.4302L105.339 23.9072L105.473 24.3844L105.616 24.879L105.626 24.9108L105.613 24.9417L105.429 25.3989L105.295 25.8204L105.275 26.3239L105.272 26.3913L105.209 26.41L104.723 26.5545L104.429 26.8825L104.413 26.8994L104.392 26.9071L103.967 27.0633L103.962 27.0651L103.956 27.0664L103.514 27.1705L103.489 27.1763L103.466 27.1684L103.019 27.0209L103.015 27.0197L103.012 27.0183L102.616 26.8495L102.087 26.9078L102.024 26.9146L101.996 26.8567L101.77 26.3951L101.264 26.3438L101.221 26.3394L101.197 26.3024L100.923 25.8772L100.909 25.8556L100.908 25.8296L100.887 25.3709L100.663 24.97L100.649 24.9453L100.651 24.917L100.679 24.4696L100.553 24.0345L100.551 24.0274L100.55 24.0201L100.491 23.5646L100.487 23.5326L100.503 23.5047L100.758 23.0571L100.728 22.6565L100.435 22.2265L100.413 22.1933L100.421 22.1536L100.508 21.7171L100.38 21.2801L100.377 21.2681L100.377 21.263L100.347 21.2582L100.364 20.7897L100.441 20.7899L100.37 20.4164L100.365 20.3924L100.373 20.3692L100.516 19.9172L100.537 19.4656L100.538 19.4478L100.545 19.4316L100.734 18.9976L100.625 18.5684L100.49 18.1043L100.485 18.0877L100.486 18.0704L100.52 17.6062L100.521 17.5914L100.527 17.5776L100.694 17.1583L100.433 16.7351L100.413 16.7031L100.42 16.6659L100.511 16.2098L100.52 15.7547L100.52 15.7333L100.53 15.7142L100.733 15.3L100.448 14.8819L100.43 14.8556L100.431 14.8237L100.452 14.3595L100.453 14.3552L100.453 14.351L100.516 13.884L100.568 13.4417L100.415 12.9984L100.406 12.9716L100.413 12.9441L100.527 12.4799L100.528 12.4745L100.53 12.4692L100.686 12.0506L100.405 11.6226L100.374 11.5758L100.4 11.526L100.634 11.0733L100.722 10.6483L100.524 10.2083L100.521 10.2022L100.519 10.1958L100.406 9.80534L100.402 9.79216V9.35154L100.412 9.33094L100.591 8.98543L100.358 8.67783L100.334 8.64624L100.34 8.6066L100.424 8.01227L100.429 7.97601L100.457 7.95294L100.918 7.56816L101.178 7.2536L101.19 7.2385L101.208 7.22989L101.575 7.04716L102.002 6.71868L102.06 6.67391L102.115 6.72225ZM47.0126 7.57375L47.4335 7.75135L47.9085 7.60057L47.9364 7.59188L47.9639 7.60121L48.4483 7.76582L48.4555 7.7682L48.4621 7.77186L48.8368 7.97446L49.2871 7.8667L49.3142 7.8603L49.3401 7.87037L49.7607 8.0347L49.7822 8.04312L49.7973 8.06106L50.085 8.40455L50.5527 8.44612L50.5968 8.45005L50.6211 8.48814L50.8779 8.89214L50.8793 8.89434L50.8806 8.89663L51.1026 9.29359L51.3289 9.67132L51.3308 9.6747L51.3326 9.67818L51.5238 10.0674L51.776 10.4444L51.7778 10.4473L52.0299 10.855L52.0435 10.8771L52.0441 10.9033L52.0539 11.3732L52.0543 11.3912L52.0481 11.4081L51.8919 11.8374L52.1936 12.2282L52.2204 12.2628L52.2115 12.306L52.1196 12.7507L52.2074 13.1956L52.2168 13.2436L52.1839 13.279L51.8155 13.675L51.9711 14.1357L51.9839 14.1736L51.9662 14.2092L51.7556 14.6338L51.641 15.089L51.6377 15.1019L51.6312 15.1133L51.3933 15.5264L51.3907 15.531L51.3875 15.5353L51.1072 15.9161L51.1069 15.9165L50.8272 16.293L50.8236 16.2977L50.4982 16.6366L50.2329 17.0058L49.9847 17.4104L49.9837 17.4119L49.9827 17.4135L49.7173 17.8096L49.7115 17.8183L49.704 17.8253L49.3872 18.1253L49.1526 18.5221L49.1473 18.531L49.1403 18.5385L48.828 18.8711L48.8037 18.897L48.7689 18.8994L48.2595 18.9356L47.9342 19.1935L47.926 19.2001L47.9167 19.2045L47.5466 19.3793L47.3307 19.8336L47.3208 19.8546L47.3026 19.8681L46.9387 20.1409L46.9307 20.1469L46.9218 20.151L46.5098 20.338L46.4916 20.3464L46.4715 20.3461L45.9909 20.3381L45.5986 20.4344L45.2812 20.7987L45.2507 20.8338L45.2051 20.8295L44.7527 20.7865L44.3659 20.9509L44.0548 21.11L43.903 21.4368L44.1982 21.7922L44.2158 21.8134L44.2194 21.8412L44.2738 22.2781L44.4034 22.6822L44.4036 22.6833L44.4041 22.6844L44.5383 23.1407L44.9574 23.328L44.9781 23.3374L44.9922 23.3555L45.3217 23.7796L45.6928 23.6395L46.0684 23.4333L46.0792 23.4275L46.0909 23.4246L46.4862 23.3314L46.4983 23.3287L46.5108 23.3292L46.9467 23.3502L47.2616 23.0584L47.5798 22.7407L47.5973 22.7233L47.6209 22.717L48.0298 22.6107L48.0142 22.1847L48.0129 22.1503L48.0336 22.1233L48.2768 21.8044L48.4743 21.453L48.484 21.4357L48.4997 21.424L48.816 21.1884L48.826 21.1809L48.8375 21.1765L49.1782 21.045L49.1839 21.0427L49.1899 21.0413L49.5851 20.9481L49.5965 20.9456L49.6082 20.9458L50.0403 20.9586L50.0476 20.9588L50.0548 20.9602L50.5232 21.0524L50.5821 21.064L50.595 21.1243L50.7051 21.6351L50.978 21.9198L50.9804 21.9223L50.9825 21.9249L51.2574 22.257L51.2592 22.2592L51.2609 22.2616L51.5343 22.6373L51.5652 22.6796L51.5458 22.7286L51.3695 23.1762L51.3019 23.5596L51.2649 23.7692L51.2489 23.7474L51.1965 23.9987L51.1956 24.0032L51.1942 24.0075L51.0526 24.4649L51.0412 24.5018L51.0078 24.5196L50.6081 24.7328L50.4832 25.1997L50.4696 25.2511L50.4195 25.2652L49.9583 25.3954L49.6668 25.7177L49.6577 25.7277L49.6464 25.7347L49.2659 25.9656L48.9688 26.413L48.9487 26.4433L48.9139 26.4514L48.4133 26.5691L48.4121 26.5694L48.4107 26.5697L47.9166 26.6708L47.9143 26.6714L47.9119 26.6718L47.4302 26.7433L47.039 26.975L47.0224 26.9848L47.0034 26.9869L46.5615 27.0366L46.1264 27.1565L46.1099 27.161L46.093 27.1591L45.6369 27.1079L45.637 27.108L45.1879 27.0623L44.7555 27.0356L44.2972 27.0831L44.2839 27.0845L44.2708 27.0818L43.8149 26.9914L43.7973 26.9879L43.7823 26.9777L43.388 26.712L43.3777 26.7051L43.3696 26.6957L43.0654 26.3416L42.6828 26.1578L42.6679 26.1508L42.6563 26.1387L42.3464 25.8148L42.3414 25.8096L42.3373 25.8036L42.089 25.4471L41.7749 25.1456L41.7593 25.1304L41.7518 25.1098L41.5998 24.6908L41.369 24.3341L41.0675 23.9852L41.0528 23.9682L41.0473 23.9463L40.9413 23.5214L40.637 23.1382L40.6161 23.1116L40.6165 23.0774L40.6236 22.5903L40.4849 22.1471L40.4784 22.1258L40.4816 22.1039L40.5523 21.6327L40.3762 21.2018L40.3725 21.193L40.3707 21.1836L40.2814 20.7158L40.1661 20.2397L40.1619 20.2222L40.2284 19.7216L40.257 19.2612L40.1106 18.7881L40.1033 18.7646L40.1082 18.7403L40.2062 18.2594L40.2086 18.2482L40.2134 18.2376L40.4227 17.7945L40.4075 17.3296L40.4066 17.3023L40.4202 17.2788L40.6457 16.8862L40.4512 16.4183L40.4321 16.3725L40.4583 16.3307L40.7077 15.9323L40.6962 15.4781L40.6954 15.4463L40.7135 15.4206L40.9849 15.0343L40.9897 14.5789L40.9898 14.5673L40.9927 14.5561L41.1054 14.1148L41.1118 13.6282L41.1124 13.586L41.1434 13.5586L41.5054 13.2363L41.5347 12.7808L41.5365 12.7501L41.5559 12.7267L41.8431 12.3749L41.8973 11.9073L41.8989 11.8936L41.9044 11.8808L42.0897 11.447L42.097 11.4297L42.1106 11.4166L42.4492 11.0879L42.6914 10.7033L42.6966 10.6952L42.7032 10.6882L42.9967 10.3824L43.1101 9.92463L43.1182 9.89204L43.1448 9.87208L43.5133 9.59561L43.5226 9.58865L43.5333 9.58425L43.9415 9.41699L44.1004 8.98525L44.1192 8.93417L44.1718 8.92583L44.6378 8.85259L44.9047 8.53025L44.92 8.51176L44.9422 8.50324L45.3344 8.35219L45.6604 8.05667L45.6674 8.05026L45.6756 8.0455L46.0677 7.81617L46.0774 7.8104L46.0882 7.80729L46.5172 7.68388L46.5183 7.68352L46.5194 7.68324L46.9556 7.56963L46.9848 7.56194L47.0126 7.57375ZM38.2902 7.05897L38.7183 7.24619L39.1354 7.33398L39.5752 7.39889L39.5802 7.39962L39.5849 7.40081L40.0319 7.51873L40.0548 7.52486L40.0721 7.54171L40.4045 7.86716L40.4068 7.86954L40.4091 7.8722L40.7317 8.23848L41.1341 8.55259L41.1742 8.5839L41.1242 9.18254L41.0953 9.62838L41.0951 9.63268L41.0944 9.63689L41.0601 9.85798L41.0892 9.86952L41.0772 9.94496L41.0148 10.3358L41.0077 10.3809L40.9687 10.4029L40.6391 10.5876L40.3377 10.9072L40.306 10.9407L40.261 10.935L39.8486 10.8818L39.4284 11.0074L39.4121 11.0123L38.9416 10.9707L38.5795 11.2361L38.2418 11.5171L37.9974 11.8884L37.988 11.9025L37.9744 11.9124L37.6122 12.1744L37.2944 12.4498L37.1094 12.8746L37.0991 12.8981L37.0787 12.913L36.714 13.1769L36.7055 13.1829L36.6959 13.187L36.2816 13.3602L36.033 13.7116L36.0173 13.7339L35.9921 13.7439L35.5885 13.9031L35.4941 14.3919L35.4842 14.4424L35.4377 14.4611L35.0207 14.6274L34.8041 15.0055L34.788 15.0336L34.7585 15.0453L34.3422 15.2115L34.1293 15.5936L34.124 15.6032L34.1166 15.6113L33.8233 15.9312L33.6196 16.3533L33.6011 16.3916L33.5607 16.4023L33.1085 16.522L32.9212 16.9218L32.9084 16.949L32.8826 16.9635L32.5291 17.1608L32.6388 17.5709L32.6419 17.5826L32.642 17.5949L32.6466 18.048L32.6466 18.0668L32.6399 18.0841L32.473 18.5087L32.4356 18.956L32.434 18.9633L32.3313 19.3833L32.4857 19.8281L32.4963 19.8586L32.4864 19.8893L32.3438 20.3295L32.3409 20.3385L32.3364 20.3466L32.115 20.7424L32.2868 21.1738L32.306 21.2218L32.2768 21.2638L32.0009 21.6622L32.0778 22.0877L32.0805 22.1021L32.0786 22.1167L32.0165 22.6189L32.2291 23.0764L32.4742 23.5182L32.4764 23.5222L32.4782 23.5264L32.6414 23.9022L32.6416 23.9027L32.8079 24.2919L32.8237 24.3288L32.8085 24.3661L32.6431 24.7702L32.7122 25.2383L32.7183 25.2792L32.6928 25.3113L32.3947 25.6899L32.3877 25.6989L32.379 25.7057L32.0387 25.9702L31.8805 26.4297L31.8686 26.4641L31.8373 26.4812L31.425 26.706L31.3994 26.7199L31.3707 26.7162L30.9248 26.6565L30.5306 26.942L30.4935 26.9688L30.4504 26.9546L29.9975 26.8057L29.9963 26.8053L29.9952 26.8049L29.5147 26.6318L29.5131 26.6312L29.5116 26.6306L29.0533 26.4464L29.0452 26.4432L29.038 26.4385L28.6246 26.1711L28.6229 26.17L28.1946 25.8795L28.1882 25.8753L28.1827 25.8699L27.8223 25.5245L27.797 25.5003L27.7937 25.465L27.7464 24.9689L27.7438 24.9414L27.7559 24.9169L27.9623 24.5028L27.7332 24.0801L27.7109 24.039L27.7297 23.996L27.8984 23.6103L27.8725 23.1474L27.8701 23.1043L27.9004 23.0744L28.2856 22.6943L28.0773 22.2604L28.0619 22.2281L28.0714 22.1933L28.1949 21.7443L28.1761 21.2832L28.1757 21.2733L28.1773 21.2635L28.2544 20.7958L28.2548 20.7932L28.2553 20.7908L28.357 20.3284L28.4296 19.8629L28.4301 19.8595L28.4308 19.8562L28.5353 19.3999L28.5531 18.9418L28.5173 18.469L28.4812 17.9912L28.4804 17.9818L28.4815 17.9725L28.5359 17.5176L28.4478 17.0495L28.4462 17.041L28.4461 17.0322L28.4436 16.5574L28.4434 16.5238L28.4639 16.4978L28.7957 16.0772L28.8247 15.6351L28.8254 15.6269L28.8271 15.619L28.9297 15.1888L28.6912 14.7231L28.6817 14.7045L28.6808 14.6833L28.6613 14.207L28.6611 14.1988L28.6621 14.1907L28.7224 13.7214L28.7247 13.703L28.7338 13.6869L28.9805 13.2468L29.0731 12.8253L28.8767 12.3604L28.8595 12.3199L28.879 12.2806L29.0923 11.8475L29.0744 11.3979L28.9935 10.9175L28.9868 10.8785L29.0094 10.8464L29.2828 10.4571L29.008 10.1451L28.9954 10.1308L28.9893 10.1126L28.873 9.7647L28.6982 9.42478L28.6848 9.39896L28.6883 9.36994L28.734 8.97344L28.7541 8.42964L28.757 8.35091L28.8329 8.34038L29.3781 8.26439L29.7106 7.94983L29.7201 7.94104L29.7314 7.93518L30.1779 7.70466L30.1975 7.69459L30.2194 7.69468L30.7013 7.69816L30.7219 7.69835L30.7404 7.7075L31.181 7.92722L31.6245 7.84794L31.6306 7.84693L31.6369 7.84666L32.0909 7.83018L32.1288 7.8289L32.1564 7.85554L32.4925 8.18044L32.9673 8.06418L33.0235 8.05044L33.0595 8.09677L33.3613 8.48493L33.369 8.49482L33.3739 8.50672L33.5465 8.92245L33.555 8.94295L33.5535 8.9652L33.52 9.51953L33.5184 9.54663L33.5029 9.5686L33.2171 9.97517L32.9475 10.4353L33.0345 10.7919L33.1851 11.1877L33.1993 11.2253L33.1828 11.2617L33.1137 11.4129L33.2297 11.3158L33.5078 10.9741L33.7498 10.5747L33.7693 10.5423L33.8055 10.5332L34.2597 10.4195L34.4964 10.0627L34.5115 10.04L34.5359 10.0293L34.9302 9.85661L35.0924 9.40921L35.098 9.39438L35.1077 9.38221L35.3956 9.02452L35.4083 9.00859L35.4264 8.99981L35.8455 8.793L36.2918 8.55936L36.6535 8.27547L36.7892 7.70649L36.7977 7.67052L36.8278 7.65037L37.2446 7.36941L37.2702 7.35211L37.3007 7.35431L37.7882 7.38928L38.1998 7.07032L38.2418 7.03773L38.2902 7.05897ZM94.5209 6.95204L94.9055 7.3879L95.2917 7.33005L95.2969 7.32922L95.3022 7.32913L95.7448 7.31613L95.7762 7.31512L95.8014 7.33435L96.1283 7.5829L96.6353 7.33389L96.7306 7.28702L96.7616 7.39093L96.9309 7.95853L97.2443 8.11013L97.2749 8.12496L97.2887 8.15673L97.432 8.4864L97.4434 8.51267L97.4385 8.54105L97.3968 8.78348L97.4018 8.86129L97.4307 9.31226L97.5845 9.91969L97.5931 9.95356L97.5779 9.98487L97.3504 10.4578L97.3422 10.4748L97.3282 10.4872L96.9953 10.7822L96.9941 10.7832L96.9931 10.7841L96.6801 11.0439L96.9028 11.4834L96.9287 11.5344L96.8962 11.5812L96.6678 11.9101L96.7712 12.3279L96.7725 12.3328L96.7732 12.3379L96.8363 12.7977L96.8417 12.8365L96.8185 12.8677L96.5087 13.285L96.6704 13.6953L96.6814 13.723L96.6747 13.752L96.5769 14.1787L96.7855 14.6083L96.7939 14.6257L96.795 14.645L96.8202 15.1048L96.8456 15.5646L96.8477 15.6035L96.8224 15.6325L96.4503 16.0599L96.5076 16.4765L96.5093 16.4888L96.5078 16.501L96.4559 16.9366L96.628 17.3734L96.8135 17.8333L96.8282 17.87L96.8128 17.9065L96.6242 18.3539L96.5747 18.7693L96.8167 19.202L96.8487 19.2591L96.8072 19.3094L96.4602 19.7299L96.5845 20.1406L96.5891 20.1559L96.5886 20.1719L96.572 20.6283L96.63 21.0846L96.6324 21.1037L96.6274 21.1221L96.5038 21.5756L96.4889 22.0132L96.9145 22.383L96.9684 22.4298L96.9378 22.4952L96.7148 22.973L97.151 23.2748L97.1959 23.306L97.1909 23.3614L97.1487 23.8256L97.1482 23.8319L97.1468 23.8381L97.0517 24.2567L97.3218 24.5897L97.3474 24.6212L97.3422 24.6619L97.2892 25.0812L97.3584 25.4792L97.363 25.5055L97.3534 25.5303L97.1975 25.9338L97.1726 25.9981L97.1055 25.9927L96.613 25.9517L96.2962 26.1564L96.0211 26.673L95.9933 26.7251L95.9358 26.7216L95.4688 26.6925L95.0297 26.8917L94.9732 26.9173L94.9292 26.8727L94.4792 26.4181L94.0994 26.272L93.5214 26.3223L93.486 26.3253L93.4579 26.303L93.0112 25.9472L92.978 25.9209L92.976 25.8778L92.951 25.3605L92.8558 24.9218L92.8499 24.8949L92.8593 24.869L93.0218 24.4145L92.8187 24.0359L92.5869 23.6064L92.5754 23.5852V23.08L92.5842 23.061L92.7724 22.6508L92.4154 22.2679L92.3814 22.2316L92.3923 22.1823L92.4912 21.7325V21.2608L92.5051 21.238L92.7495 20.836L92.3779 20.442L92.3504 20.4128L92.3522 20.3723L92.3732 19.9124L92.3736 19.9058L92.3747 19.8994L92.4586 19.4417L92.5302 18.9833L92.3344 18.5181L92.3207 18.4857L92.3312 18.4521L92.4829 17.9663L92.485 17.9595L92.4882 17.9531L92.6975 17.522L92.3352 17.0746L92.2912 17.0201L92.3301 16.9616L92.642 16.4927L92.7623 16.0589L92.5113 15.5985L92.5051 15.5871L92.5021 15.5746L92.3884 15.0886L92.3843 15.0711L92.3867 15.0533L92.4542 14.5718L92.4574 14.5491L92.4704 14.5305L92.7664 14.1061L92.4814 13.6701L92.4651 13.6452L92.4659 13.6152L92.4786 13.1337L92.4794 13.104L92.4966 13.0802L92.8222 12.6305L92.7948 12.1833V12.1825L92.7947 12.1817L92.7751 11.7364L92.4251 11.3761L92.3624 11.3115L92.4236 11.2452L92.7798 10.8596L92.5552 10.5454L92.5452 10.5314L92.5407 10.5146L92.4017 9.98963L92.395 9.96455L92.4019 9.93956L92.5494 9.40161L92.5502 9.39841L92.5514 9.39521L92.7051 8.95659L92.5334 8.40584L92.5212 8.36684L92.5409 8.33113L92.798 7.86259L92.8112 7.83842L92.8352 7.8256L93.3016 7.57503L93.5423 7.24902L93.5591 7.22614L93.5855 7.21689L93.9942 7.0738L93.9948 7.07362L94.4247 6.92604L94.481 6.90672L94.5209 6.95204ZM43.4379 26.6336L43.8322 26.8993L43.4379 26.6336L43.2483 26.413L43.4379 26.6336ZM61.237 7.11381L61.6878 7.12479H61.6912L61.6946 7.12525L62.1426 7.17084L62.588 7.20755L62.5927 7.20801L62.5972 7.20883L63.0353 7.29224L63.4927 7.3208L63.4935 7.32089L63.9687 7.35458L63.9763 7.35513L63.9837 7.35696L64.4556 7.47314L64.472 7.47716L64.4861 7.48705L64.8797 7.76655L65.3247 8.01373L65.3386 8.02151L65.3491 8.03369L65.6875 8.42186L65.7129 8.45088L65.7106 8.48969L65.6792 9.05684L65.855 9.47888L65.8604 9.49179L65.8619 9.5058L65.9037 9.90879L66.2491 10.2619L66.2657 10.2787L66.2723 10.3018L66.3977 10.7371L66.4004 10.7464L66.4012 10.7561L66.4376 11.2048L66.4392 11.2251L66.4324 11.2442L66.2745 11.6971L66.2578 12.1033L66.5111 12.5026L66.5356 12.541L66.521 12.5845L66.375 13.0185L66.4524 13.4307L66.5887 13.8653L66.6011 13.9048L66.5811 13.9407L66.354 14.3483L66.6083 14.7424L66.6246 14.7678L66.6046 15.2552L66.6522 15.7103L66.6538 15.7247L66.651 15.7388L66.5656 16.1757L66.7387 16.6047L66.7575 16.6513L66.73 16.6931L66.4475 17.1231L66.6198 17.5317L66.6207 17.5342L66.6216 17.5366L66.7843 17.9909L66.7903 18.0077L66.7898 18.0255L66.7793 18.4854L66.779 18.5027L66.7727 18.5187L66.5967 18.9611L66.7244 19.3822L66.7254 19.3855L66.7261 19.3888L66.8297 19.845L66.8369 19.8765L66.8235 19.9059L66.6296 20.3335L66.9343 20.7152L66.9597 20.7473L66.954 20.7881L66.8896 21.2483L66.9206 21.695L66.9527 22.1103L67.0783 22.4868L67.3377 22.7904L67.639 23.092L67.6406 23.0937L67.6422 23.0954L67.9568 23.4435L68.0018 23.4933L67.9699 23.5527L67.7352 23.9885L67.7928 24.2593L67.843 24.2047L67.8324 24.46L67.7569 24.4667L67.8077 24.5162L67.503 24.8481L67.3608 25.2616L67.3546 25.2799L67.3417 25.294L67.0368 25.6324L67.0329 25.6368L67.0286 25.6405L66.6699 25.9505L66.63 25.985L66.581 25.967L66.0956 25.7905L65.7233 25.9229L65.7167 25.9253L65.7098 25.9266L65.2762 26.0075L65.2515 26.0122L65.228 26.003L64.7556 25.8204L64.159 25.9073L64.0637 25.9212L64.0555 25.8226L64.0127 25.311L63.7858 25.023L63.7736 25.0075L63.7686 24.9882L63.6721 24.6188L63.3685 24.2699L63.3445 24.2423L63.3453 24.2053L63.3545 23.7818L63.2367 23.3784L63.23 23.3555L63.2349 23.332L63.3275 22.8827L63.3137 22.4885L63.0221 22.1984L63.0335 22.2427L62.9778 22.2797L62.5271 22.5787L62.3529 22.961L62.263 23.4448L62.2588 23.4671L62.2451 23.485L61.9597 23.859L61.9586 23.8605L61.6689 24.2247L61.4229 24.6383L61.4049 24.6686L61.3719 24.679L60.9146 24.8231L60.7139 25.2625L60.7063 25.2791L60.6931 25.2916L60.342 25.6236L60.321 25.6436L60.2926 25.6475L59.8043 25.7156L59.4989 26.0704L59.4719 26.1016L59.4313 26.102L58.9425 26.1053L58.5701 26.3473L58.5676 26.349L58.5651 26.3504L58.1419 26.5881L58.1092 26.6065L58.0733 26.596L57.6214 26.4635L57.1921 26.7031L57.1436 26.7302L57.0977 26.6984L56.7021 26.4239L56.2961 26.3774L56.2768 26.3752L56.26 26.3651L55.9063 26.1507L55.4304 26.0966L55.3944 26.0924L55.371 26.064L55.0737 25.7036L55.0705 25.6998L55.0677 25.6956L54.8176 25.3156L54.8142 25.3105L54.8115 25.3049L54.6196 24.9098L54.3021 24.5762L54.2875 24.5607L54.2808 24.5404L54.1406 24.1106L53.9412 23.6994L53.9333 23.683L53.9319 23.6647L53.8966 23.1964L53.8526 22.7426L53.7801 22.3081L53.6162 21.8755L53.6119 21.8643L53.6106 21.8524L53.5579 21.3898L53.5559 21.3728L53.56 21.3562L53.6718 20.8965L53.6742 20.8865L53.6786 20.8774L53.8814 20.4586L53.8871 20.0286L53.8873 20.013L53.8925 19.9981L54.0407 19.5748L54.0428 19.5688L54.0456 19.5632L54.2433 19.1724L54.3555 18.749L54.3612 18.7274L54.3757 18.7109L54.6647 18.3806L54.8582 18.0059L55.0134 17.5756L55.0214 17.5535L55.0385 17.5378L55.3514 17.2539L55.5265 16.8216L55.5402 16.7877L55.5727 16.7724L55.98 16.5803L56.2855 16.2755L56.3019 16.2592L56.3238 16.2527L56.7454 16.1282L57.0207 15.7895L57.0289 15.7795L57.0395 15.7721L57.4055 15.5168L57.7561 15.2225L57.7687 15.2119L57.7842 15.2064L58.2083 15.0571L58.5949 14.8807L58.8964 14.528L58.912 14.5097L58.9343 14.5015L59.3582 14.3464L59.3684 14.3427L59.379 14.3415L59.8284 14.2911L60.17 14.0232L60.191 14.0068L60.2172 14.0044L60.6519 13.9646L60.8886 13.5287L60.9121 13.4855L60.96 13.481L61.4079 13.4396L61.7276 13.1414L61.748 13.1223L61.7751 13.118L62.222 13.0483L62.2365 12.5195L62.2366 12.5178L62.2367 12.5159L62.2705 11.991L62.1105 11.5645L62.1009 11.5389L62.1063 11.5119L62.1921 11.0804L61.8311 10.9302L61.8236 10.9271L61.8167 10.9225L61.4322 10.6725L60.9872 10.7617L60.9864 10.7618L60.9857 10.7619L60.6201 10.8284L60.6113 10.8301L60.6023 10.8299L60.236 10.8218L59.9388 11.0376L59.9368 11.0391L59.9347 11.0404L59.6273 11.2388L59.4903 11.6236L59.4782 11.6574L59.4474 11.6741L59.0935 11.867L59.0877 11.8703L59.0816 11.8725L58.5968 12.051L58.4361 12.5599L58.4243 12.5967L58.391 12.6143L57.9015 12.872L57.7242 13.2686L57.7114 13.2975L57.6841 13.3123L57.3036 13.5194L56.9339 13.7657L56.9168 13.7772L56.8965 13.78L56.468 13.8394L56.4494 13.842L56.4311 13.8367L56.0102 13.7142L56.0028 13.712L55.996 13.7087L55.5949 13.5132L55.562 13.4971L55.5489 13.4622L55.3892 13.0379L55.0051 12.8065L54.9717 12.7864L54.9626 12.7475L54.855 12.2869L54.852 12.2741L54.8702 11.8339L54.632 11.4259L54.6146 11.3959L54.6205 11.3614L54.7092 10.8442L54.7145 10.8136L54.7365 10.7921L55.0901 10.4498L55.1456 9.96546L55.1506 9.92207L55.1861 9.89808L55.5723 9.63708L55.942 9.38642L56.2792 9.10893L56.2802 9.10811L56.2811 9.10738L56.6234 8.84079L56.9228 8.50462L57.2367 8.1495L57.2533 8.13073L57.277 8.12313L57.7172 7.98178L57.7331 7.97656L57.7498 7.97757L58.1994 8.00504L58.4803 7.58849L58.5044 7.55269L58.5465 7.54857L58.9894 7.50545L59.3834 7.285L59.4255 7.26148L59.4682 7.28381L59.9293 7.52504L60.273 7.21497L60.3005 7.19007L60.7843 7.21121L61.2156 7.11591L61.2262 7.11353L61.237 7.11381ZM28.673 26.0917L29.0863 26.359L29.3902 26.4812L29.0864 26.359L28.6731 26.0917L28.2447 25.8012L28.673 26.0917ZM42.4112 25.7489L42.5663 25.9109L42.4113 25.7489L42.1577 25.3849L42.4112 25.7489ZM28.0656 24.501H28.0657L27.8128 24.0344H27.8127L28.0656 24.501ZM61.8881 23.8011L61.7391 23.9885L61.8881 23.8012L62.1735 23.4271L61.8881 23.8011ZM66.998 22.5349L67.2716 22.8551H67.2717L66.998 22.5348V22.5349ZM62.068 16.2973L61.7509 16.5855L61.745 16.5908L61.7383 16.5951L61.3705 16.8276L61.0301 17.1084L60.9983 17.1347L60.9581 17.1277L60.463 17.0419L60.1352 17.3218L59.7934 17.645L59.7814 17.6563L59.7664 17.6627L59.3713 17.8294L59.2499 18.3376L59.2352 18.3989L59.1746 18.408L58.6606 18.4858L58.4518 18.8338L58.4479 18.8404L58.1787 19.1581L58.1393 19.6338L58.1369 19.6633L58.1183 19.6861L57.8603 20.0011L57.7603 20.3889L57.7565 20.4032L57.7488 20.4157L57.5166 20.7859L57.4753 21.18L57.8115 21.5071L57.8265 21.5218L57.8339 21.5417L57.9821 21.939L57.9854 21.9478L57.9868 21.9573L58.0581 22.3997L58.2483 22.7394L58.6516 22.6486L58.6797 22.6422L58.7063 22.6537L59.1517 22.8457L59.4774 22.5971L59.6557 22.1559L59.661 22.1428L59.6698 22.132L59.9509 21.7838L60.1853 21.4139L60.3264 20.9801L60.3367 20.9489L60.3635 20.931L60.7349 20.6849L60.7457 20.2402L60.746 20.2244L60.7514 20.2096L60.9037 19.7907L60.9128 19.7654L60.9337 19.7491L61.2921 19.4672L61.3114 18.9989L61.3405 18.9724L61.6833 18.6598L61.7396 18.238L61.7752 17.7789L61.7778 17.7458L61.8 17.7218L62.0986 17.398L62.0104 16.9421L62.0011 16.8933L62.0351 16.8579L62.3549 16.5248L62.3418 16.2555L62.068 16.2973ZM66.8298 21.7025L66.8405 21.8415L66.8299 21.7025L66.798 21.2452L66.8298 21.7025ZM121.016 11.3179L120.593 11.4123L120.293 11.6555L120.369 12.1435L120.379 12.2079L120.324 12.2399L119.922 12.4736L119.973 12.8972L119.979 12.943L119.947 12.9755L119.615 13.3132L119.654 13.7639L119.656 13.7911L119.644 13.8154L119.443 14.2114L119.53 14.6696L119.534 14.6883L119.53 14.7069L119.437 15.158L119.436 15.1647L119.433 15.1711L119.283 15.5905L119.394 16.0351L119.397 16.0465V16.52L119.388 16.9712L119.388 16.9874L119.382 17.0027L119.232 17.4101L119.522 17.8114L119.547 17.8464L119.538 17.8889L119.433 18.3455L119.354 18.8024L119.331 19.2332L119.549 19.6302L119.553 19.6377L119.556 19.6459L119.7 20.0755L119.704 20.0878L119.704 20.101L119.729 20.583L119.912 21.014L119.919 21.032V21.5506L120.383 21.73L120.749 21.8304L121.034 21.7399L121.231 21.422L121.255 21.3826L121.3 21.379L121.845 21.3352L122.023 20.9944L122.143 20.5659L122.146 20.5549L122.152 20.545L122.349 20.1912L122.329 19.6758L122.327 19.6273L122.365 19.5978L122.774 19.2733L123.011 18.9008L122.929 18.3993L122.925 18.3752L122.933 18.3522L123.089 17.901L123.093 17.8877L123.102 17.8765L123.393 17.4737L123.421 17.0113L123.421 17.0026L123.423 16.9941L123.534 16.5427L123.274 16.1168L123.259 16.0915L123.261 16.0617L123.286 15.6062L123.287 15.5818L123.3 15.5612L123.56 15.1405L123.264 14.7591L123.251 14.7432L123.246 14.7236L123.137 14.2812V14.2811L123.015 13.8457L123.014 13.8417L123.014 13.8377L122.931 13.3997L122.771 12.9894L122.583 12.5943L122.574 12.5748V12.0608L122.508 11.626L122.039 11.4984L122.035 11.4975L122.032 11.4964L121.656 11.363L121.327 11.2692L121.016 11.3179ZM32.2026 21.2094L31.9043 21.6402L32.2027 21.2094L32.0137 20.7355L32.2026 21.2094ZM45.5498 20.3499L45.2134 20.7361L45.5498 20.35L45.9807 20.2443L45.5498 20.3499ZM28.5194 19.8777L28.4465 20.3459H28.4466L28.5195 19.8777L28.626 19.4126L28.5194 19.8777ZM47.8786 19.1193L47.4791 19.3082L47.2488 19.7924L47.4792 19.3082L47.8786 19.1193L48.2258 18.8441H48.2257L47.8786 19.1193ZM58.0906 19.1195V19.1196L58.3743 18.7846V18.7846L58.0906 19.1195ZM32.5509 17.5958L32.5554 18.049L32.5555 18.049L32.551 17.5958L32.422 17.1141L32.5509 17.5958ZM47.4199 11.4543L47.0076 11.7058L46.9932 11.7146L46.9766 11.7175L46.5046 11.8012L46.3259 12.2756L46.3129 12.3105L46.2801 12.3265L45.8216 12.5504L45.6131 12.9806L45.6097 12.9876L45.6053 12.9939L45.3546 13.3486L45.3422 13.8344L45.3416 13.8611L45.3272 13.8835L45.0826 14.2652L44.8702 14.663L44.6759 15.057L44.6717 15.516L44.6716 15.5315L44.6666 15.5462L44.5237 15.9656L44.485 16.4123L44.484 16.4252L44.4795 16.4373L44.3218 16.8646L44.2182 17.3021L44.1957 17.5422L44.4162 17.4062L44.4217 17.4028L44.4275 17.4001L44.8295 17.2247L44.8376 17.2212L44.8464 17.2192L45.2886 17.1239L45.2934 17.123L45.7482 17.0509L46.0687 16.7461L46.0744 16.7408L46.0808 16.7365L46.4637 16.4796L46.8384 16.2239L47.1096 15.8556L47.1186 15.8435L47.1311 15.8348L47.4878 15.5856L47.7246 15.242L47.8807 14.8162L47.8865 14.8003L47.8971 14.7877L48.1665 14.469L48.2176 14.0238L48.2212 13.9935L48.2414 13.9712L48.5295 13.6511L48.6241 13.2426L48.6274 13.2282L48.6348 13.2155L48.8571 12.8397L48.7526 12.3694L48.5807 11.9544L48.2248 11.7323L48.2167 11.7273L48.2097 11.7205L47.8447 11.3686L47.4199 11.4543ZM46.1305 16.815L45.7896 17.1392L46.1305 16.8151L46.5135 16.5581H46.5134L46.1305 16.815ZM51.6699 14.6004L51.5528 15.0656L51.3149 15.4786L51.0346 15.8596L50.7548 16.2361L50.4289 16.5755V16.5756L50.7549 16.2361L51.0346 15.8596L51.315 15.4787L51.5529 15.0656L51.67 14.6004L51.8851 14.1666L51.885 14.1666L51.6699 14.6004ZM57.4597 15.5923L57.0905 15.8497L56.7973 16.2104L56.3489 16.3428L56.7973 16.2104L57.0905 15.8498L57.4597 15.5923L57.8136 15.2952V15.2951L57.4597 15.5923ZM47.1821 15.9123L47.0226 16.129L47.1822 15.9123L47.5526 15.6536L47.1821 15.9123ZM48.3081 14.0349L48.2537 14.5089L47.9658 14.8492H47.9659L48.2537 14.5089L48.3082 14.0349L48.6126 13.6968L48.3081 14.0349ZM34.9583 14.5518L34.915 14.6274L34.9583 14.5519L35.2324 14.4424L34.9583 14.5518ZM59.8634 14.3816L59.3888 14.4346V14.4347L59.8634 14.3816L60.2253 14.0978V14.0977L59.8634 14.3816ZM56.8844 13.687L56.5067 13.7394L56.8844 13.6871L57.2574 13.4385L56.8844 13.687ZM62.3275 12.5221L62.311 13.1293L61.7888 13.2107L61.4466 13.5302L61.7888 13.2108L62.311 13.1293L62.3276 12.5221L62.3628 11.9766H62.3627L62.3275 12.5221ZM72.9005 13.4562L72.9581 13.5285L72.9546 13.5133L72.9503 13.4945L72.9536 13.4754L72.9829 13.3072L72.9005 13.4562ZM55.4628 12.9738L55.6338 13.4284L55.4628 12.9737L55.0512 12.7256L55.4628 12.9738ZM28.9601 12.323L29.0138 12.4498L28.9602 12.323L29.1674 11.9025L28.9601 12.323ZM47.6427 11.3139L47.8983 11.2624L47.8985 11.2623L47.6427 11.3139ZM65.8166 9.95201L66.1849 10.3285V10.3284L65.8166 9.95191V9.95201ZM43.567 9.67132L43.1985 9.94779V9.94789L43.567 9.67141L44.0124 9.48895L43.567 9.67132ZM64.8319 7.84647L65.2814 8.09622L65.6197 8.48439L65.587 9.0735H65.5871L65.6198 8.48439L65.2814 8.09622L64.832 7.84647L64.4344 7.56423H64.4343L64.8319 7.84647ZM46.1127 7.89756L45.7206 8.12698L45.382 8.43394L44.974 8.59095L44.9741 8.59104L45.382 8.43394L45.7207 8.12698L46.1127 7.89765L46.5417 7.77415L46.1127 7.89756ZM39.5623 7.49172L40.0093 7.60964V7.60954L39.5623 7.49163V7.49172ZM94.161 0.0127253L94.6626 0.125514L94.6709 0.127345L94.6787 0.130823L95.1176 0.322618L95.515 0.132105L95.5487 0.115901L95.5839 0.128718L95.9838 0.274189L96.4165 0.249288L96.4326 0.248372L96.448 0.253133L96.882 0.387618L96.9331 0.403456L96.9447 0.457012L97.0552 0.968587L97.1799 1.10792L97.188 1.11717L97.1937 1.12825L97.4803 1.69658L97.4962 1.72817L97.4877 1.76268L97.3613 2.27893L97.3568 2.29751L97.3455 2.31271L97.0801 2.67277L97.0771 2.67661L97.0739 2.68019L96.8007 2.97983L97.0518 3.40937L97.0784 3.45478L97.0543 3.50156L96.8488 3.90044L96.9846 4.33576L96.9857 4.33905L96.9865 4.34244L97.1003 4.82829L97.1113 4.87534L97.0803 4.91187L96.6867 5.37612L96.5197 5.84146L96.5006 5.89474L96.446 5.90197L95.9396 5.96917L95.4483 6.23475L95.4285 6.24547H94.9337L94.9292 6.24501L94.4613 6.19731L94.4193 6.19301L94.3952 6.15703L94.0748 5.67667L93.6776 5.59739L93.66 5.59382L93.645 5.58375L93.3178 5.36348L92.8964 5.27166L92.8812 5.26836L92.8681 5.26022L92.4424 4.99555L92.3903 4.96314L92.3995 4.90116L92.4753 4.38931L92.477 4.3786L92.4809 4.36853L92.7102 3.78051L92.616 3.38456L92.599 3.31297L92.6625 3.27901L93.0464 3.07385L92.9571 2.67625L92.9545 2.6649L92.9548 2.65327L92.963 2.22015L92.8847 1.79179L92.8804 1.76854L92.8874 1.74602L93.0096 1.35126L93.0107 1.34797L93.0119 1.34467L93.1343 1.03176L93.0858 0.49473L93.0745 0.370498L93.1937 0.393935L93.7325 0.500132L94.0693 0.0473308L94.1045 0L94.161 0.0127253Z" fill="#C6F065"/>
</svg>
