<svg width="898" height="682" viewBox="0 0 898 682" fill="none" xmlns="http://www.w3.org/2000/svg">
<path d="M423.306 677.8C420.836 677.464 418.331 678.088 416.308 679.545C413.067 681.878 408.729 681.995 405.368 679.838L404.521 679.295C403.586 678.696 402.568 678.238 401.498 677.938L395.003 676.114L391.749 675.424C388.435 674.721 385.721 672.35 384.579 669.16L384.289 668.351C383.058 664.909 379.777 662.629 376.121 662.673C373.219 662.709 370.496 661.272 368.887 658.855L365.676 654.032L362.538 649.66C360.688 647.085 359.777 643.953 359.956 640.788L360.101 638.211C360.309 634.536 358.419 631.06 355.221 629.236C352.089 627.449 350.205 624.072 350.332 620.467L350.483 616.137C350.527 614.9 350.706 613.671 351.018 612.473L352.309 607.517C353.136 604.346 352.949 600.996 351.776 597.936C350.433 594.431 350.408 590.508 351.672 586.974C352.775 583.888 352.92 580.493 352.056 577.332L350.417 571.332C350.327 571 350.362 570.647 350.517 570.34C351.227 568.931 349.412 567.616 348.294 568.73L348.05 568.973C347.885 569.138 347.762 569.339 347.692 569.561L346.414 573.602C345.073 577.845 342.265 581.472 338.494 583.833L337.327 584.563C336.465 585.104 335.558 585.57 334.616 585.957L332.629 586.774C328.829 588.336 325.944 591.539 324.784 595.481L324.68 595.835C323.813 598.784 321.895 601.313 319.29 602.944C316.554 604.657 314.582 607.357 313.782 610.484L312.072 617.163L310.2 622.022C308.857 625.509 306.056 628.233 302.534 629.481C299.797 630.45 297.47 632.322 295.938 634.789L293.2 639.198L290.426 643.386C288.616 646.117 286.347 648.513 283.719 650.468L281.893 651.826C280.909 652.557 280.036 653.428 279.302 654.41L278.856 655.006C275.891 658.972 270.743 660.628 266.022 659.136C264.866 658.771 263.659 658.588 262.447 658.595L257.695 658.623C256.545 658.629 255.4 658.48 254.29 658.179L251.977 657.551C249.411 656.855 246.668 657.457 244.63 659.164L244.193 659.529C241.336 661.921 237.154 661.844 234.387 659.347C232.681 657.807 230.362 657.137 228.098 657.531L227.965 657.555C224.678 658.127 221.393 656.531 219.811 653.593L219.47 652.959C217.922 650.084 214.903 648.31 211.638 648.358L210.593 648.373C208.313 648.406 206.084 647.694 204.245 646.345L202.198 644.842C200.363 643.496 198.8 641.814 197.59 639.887L193.903 634.01L191.576 628.894C190.21 625.893 189.21 622.739 188.597 619.499L188.381 618.362C187.761 615.089 186.657 611.926 185.103 608.979C183.534 606.001 182.422 602.803 181.806 599.493L181.344 597.014C180.978 595.045 180.385 593.124 179.576 591.291L179.403 590.898C177.44 586.446 176.844 581.511 177.692 576.72C178.13 574.245 178.185 571.718 177.856 569.226L177.453 566.179C177.09 563.438 176.984 560.669 177.137 557.907L177.518 550.999L178.247 543.087C178.453 540.855 179.137 538.694 180.253 536.75L183.605 530.913C183.773 530.619 184.063 530.415 184.397 530.355C185.551 530.148 186.236 531.602 185.341 532.36L181.567 535.555C181.353 535.737 181.109 535.881 180.846 535.981L177.234 537.352C173.403 538.806 170.145 541.46 167.946 544.917C166.882 546.589 165.564 548.084 164.039 549.348L159.734 552.916L153.951 558.215C153.465 558.659 153.018 559.145 152.615 559.665L150.925 561.845C148.552 564.905 144.366 565.895 140.874 564.22C138.814 563.231 136.435 563.145 134.308 563.982L130.004 565.677L127.192 567.137C123.938 568.827 120.018 568.584 116.997 566.506C115.167 565.247 112.967 564.638 110.75 564.778L110.63 564.786C107.572 564.978 104.588 563.795 102.493 561.559L101.206 560.186C99.9033 558.796 98.3355 557.682 96.5951 556.907L95.4824 556.413C92.9964 555.307 90.7583 553.713 88.9013 551.724L87.9747 550.732C86.402 549.048 84.6199 547.572 82.672 546.341L78.2673 543.558L74.8229 541.422C71.8859 539.6 69.4538 537.07 67.75 534.063C66.2105 531.346 65.3079 528.315 65.1104 525.199L64.9896 523.293C64.7854 520.071 63.784 516.95 62.0752 514.211C60.3594 511.461 59.3568 508.326 59.1584 505.091L59.105 504.22C58.9125 501.083 58.0772 498.02 56.6508 495.219L55.7372 493.425C54.5576 491.11 53.6591 488.661 53.0608 486.132L52.9472 485.651C51.9422 481.403 51.7029 477.009 52.2405 472.676L52.779 468.336L52.7564 463.825C52.7342 459.41 53.615 455.037 55.3446 450.975C56.3955 448.508 57.7488 446.18 59.3736 444.046L63.1395 439.1C66.3711 434.492 64.1149 428.072 58.7109 426.5L58.2798 426.374C57.68 426.199 57.1013 425.96 56.5539 425.659L52.6259 423.499C50.3059 422.224 48.1144 420.728 46.0818 419.032L44.3076 417.552C42.6058 416.132 40.7179 414.951 38.6963 414.042L37.2403 413.387C34.7338 412.26 32.5258 410.562 30.7932 408.429L30.2183 407.721C28.2017 405.238 25.4091 403.465 22.3086 402.679C18.5937 401.737 15.3589 399.372 13.3561 396.105C11.8671 393.676 11.1164 390.866 11.1952 388.018L11.271 385.279C11.3713 381.658 9.69878 378.216 6.79005 376.056C4.04508 374.019 2.39178 370.83 2.30813 367.413L2.19961 362.979C2.17268 361.878 2.23579 360.777 2.38832 359.687L3.07012 354.813C3.49752 351.758 2.98784 348.645 1.60842 345.885C-0.350223 341.967 -0.528639 337.396 1.11867 333.337L2.80667 329.178L5.29313 322.508C6.0488 320.48 6.61511 318.388 6.98479 316.256L7.57746 312.839C7.97169 310.565 7.91475 308.237 7.40989 305.986L7.10405 304.622C5.87376 299.136 7.76147 293.418 12.0162 289.743C12.707 289.147 13.3429 288.489 13.9161 287.779L17.1836 283.729C18.4759 282.128 20.0272 280.754 21.7732 279.665C25.1018 277.589 27.681 274.505 29.1357 270.861L29.5377 269.854C30.5384 267.348 32.0314 265.068 33.9285 263.149L34.0786 262.997C36.4803 260.567 38.2032 257.523 39.0622 254.217C40.2064 249.812 42.8821 245.925 46.6002 243.301C47.8496 242.419 48.9894 241.391 49.9956 240.24L52.8769 236.942C54.1604 235.473 55.7468 234.297 57.5258 233.497C61.3015 231.798 64.0959 228.465 65.1085 224.45C66.0201 220.836 68.3799 217.757 71.6328 215.937L74.7387 214.199L78.5718 211.664C81.1352 209.968 83.0001 207.405 83.8238 204.444L84.1708 203.196C85.1804 199.567 88.0541 196.754 91.7045 195.823C94.1397 195.202 96.2719 193.729 97.7153 191.672L101.203 186.701L101.444 186.396C105.315 181.491 109.674 176.993 114.454 172.969L117.879 170.482C120.549 168.543 122.406 165.683 123.092 162.454L123.586 160.125C124.271 156.9 126.624 154.285 129.76 153.267C132.434 152.399 134.566 150.359 135.551 147.726L136.381 145.508C137.421 142.726 139.311 140.343 141.783 138.697L142.566 138.175C144.675 136.77 146.445 134.912 147.746 132.738L149.189 130.323C150.421 128.264 151.9 126.362 153.592 124.661L157.754 120.476L163.835 112.82L166.115 109.54C168.323 106.363 171.572 104.059 175.301 103.027C177.795 102.336 180.093 101.071 182.01 99.3328L182.353 99.0221C184.797 96.8063 186.605 93.9779 187.59 90.8293L189.624 84.327L190.187 83.1108C192.831 77.4084 196.462 72.2183 200.913 67.78L203.153 65.084C205.773 61.9311 209.018 59.3551 212.683 57.5187L213.493 57.1125C214.887 56.414 216.201 55.5653 217.41 54.5815L218.871 53.3932C221.476 51.2742 223.333 48.3752 224.167 45.1225L224.261 44.7562C225.334 40.5754 228.172 37.0677 232.036 35.1451L232.282 35.0225C233.386 34.4734 234.406 33.7695 235.31 32.9321L236.719 31.6276C239.305 29.2339 242.987 28.4329 246.333 29.5359C248.922 30.3893 251.751 30.1124 254.125 28.773L255.17 28.1837C256.959 27.1744 258.971 26.6254 261.025 26.5859L262.526 26.5571C264.82 26.513 267.079 25.9934 269.161 25.031L269.745 24.761C272.698 23.3964 276.02 23.0504 279.19 23.7771L279.409 23.8274C281.48 24.3021 283.413 25.2509 285.055 26.599L286.652 27.9107C288.679 29.575 291.323 30.2891 293.913 29.8717C297.182 29.3448 300.48 30.6255 302.537 33.2202L304.126 35.2245C305.019 36.3519 305.727 37.6149 306.223 38.9657L307.352 42.0439C308.693 45.7012 311.17 48.8332 314.419 50.9814C316.523 52.3721 318.316 54.1839 319.684 56.3023L323.39 62.0406L328.852 71.3386L334.561 79.0574C335.205 79.9278 335.556 80.9805 335.562 82.0631C335.584 85.8124 339.505 88.2594 342.882 86.6309L343.479 86.3434C343.83 86.1738 344.163 85.9675 344.471 85.7278L347.502 83.3696C350.396 81.1181 352.98 78.4942 355.187 75.566L358.084 71.722L364.278 63.4425L368.881 56.627C369.727 55.3746 370.444 54.0402 371.022 52.6439L372.491 49.0975C373.819 45.8908 376.359 43.3382 379.559 41.995C382.452 40.7809 384.816 38.5736 386.226 35.7707L387.321 33.5941C388.447 31.3549 389.988 29.3504 391.863 27.6874L393.378 26.3442C394.874 25.0173 396.536 23.8894 398.321 22.9884L400.279 22.0002C402.143 21.06 403.767 19.7069 405.028 18.0442L405.888 16.9113C407.803 14.3864 410.741 12.8425 413.907 12.6969C416.08 12.5969 418.17 11.8359 419.899 10.5156L424.32 7.13947L427.84 4.43643C430.6 2.31687 433.838 0.907421 437.27 0.331855L437.769 0.248232C439.609 -0.0603357 441.486 -0.0812829 443.332 0.186139C447.061 0.726235 450.527 2.42173 453.243 5.03415L456.377 8.0501L460.766 12.2762C462.277 13.731 464.085 14.841 466.066 15.5298L466.368 15.6345C469.269 16.6432 471.743 18.6047 473.387 21.1994L473.928 22.0526C475.302 24.2215 477.402 25.8322 479.853 26.5981C483.09 27.6096 485.667 30.0774 486.818 33.2674L487.292 34.5837C488.183 37.0518 489.9 39.1359 492.152 40.4823C495.422 42.4372 497.495 45.9003 497.673 49.7058L497.742 51.176C497.874 53.9904 499.251 56.6003 501.5 58.298C504.899 60.8639 506.169 65.3813 504.607 69.3428L502.962 73.5119C502.393 74.9536 502.519 76.5767 503.304 77.9133C504.498 79.9467 506.941 80.8809 509.187 80.1625L511.182 79.524C512.627 79.062 513.901 78.1817 514.845 76.9946L517.347 73.8463C518.587 72.2864 520.043 70.9117 521.672 69.7641L521.846 69.6414C525.048 67.3856 527.602 64.3292 529.253 60.7774L530.993 57.0322L533.156 52.4012C534.533 49.45 536.789 46.9967 539.615 45.377C542.068 43.9708 544.099 41.9321 545.496 39.4736L546.69 37.372C547.681 35.6267 548.275 33.6842 548.43 31.683L548.806 26.8134C549.08 23.2725 551.779 20.3984 555.296 19.9033C557.665 19.5697 559.738 18.1345 560.884 16.0333L561.98 14.0237C563.445 11.3362 566.256 9.65772 569.317 9.64172L569.783 9.63929C572.138 9.62698 574.349 8.50576 575.751 6.61339L575.976 6.31043C578.33 3.13269 582.826 2.48929 585.977 4.87924C588.252 6.60494 591.34 6.80056 593.814 5.37582L597.661 3.16147C602.814 0.937644 608.816 2.37187 612.406 6.68508L612.977 7.36988C613.42 7.90249 613.903 8.40107 614.421 8.86142L616.466 10.6791C619.084 13.0054 622.279 14.5855 625.716 15.2541C627.586 15.6177 629.392 16.2526 631.078 17.1388L636.081 19.7684L638.801 21.7104C641.89 23.916 644.732 26.4478 647.28 29.262C648.996 31.158 650.572 33.1761 651.997 35.3002L655.385 40.3534L657.029 43.0045C659.483 46.9629 661.289 51.2884 662.377 55.8171L662.802 57.587C663.112 58.8762 663.533 60.1359 664.062 61.3519L664.525 62.4171C666.437 66.8159 666.682 71.7601 665.215 76.3266C664.208 79.4616 664.001 82.7987 664.613 86.0342L665.07 88.4507C665.419 90.2984 665.945 92.1083 666.64 93.8556L666.744 94.1185C668.844 99.3997 669.516 105.141 668.694 110.764L667.96 115.78L669.386 110.461C670.425 106.585 672.048 102.888 674.199 99.4997C675.268 97.8143 676.464 96.2122 677.775 94.7072L678.837 93.4883C680.648 91.4107 682.272 89.1781 683.691 86.8161L684.986 84.6613C685.833 83.2522 686.826 81.9366 687.95 80.7364L690.393 78.126C691.897 76.5196 693.836 75.3863 695.973 74.8646L697.326 74.5345C700.001 73.8818 702.201 71.9865 703.242 69.4378L703.528 68.7368C704.96 65.2315 708.727 63.2868 712.414 64.1497C714.503 64.6385 716.7 64.2345 718.478 63.0348L722.775 60.1355L725.364 57.9006C728.37 55.3062 732.453 54.3413 736.302 55.3154C737.781 55.6898 739.318 55.7826 740.831 55.5892L742.708 55.3492C745.406 55.0044 748.144 55.1595 750.786 55.8067L751.017 55.8632C753.592 56.4942 756.041 57.5577 758.26 59.0085L758.652 59.2646C761.063 60.8409 763.717 62.0081 766.508 62.7193L769.443 63.4669C770.13 63.6421 770.832 63.7584 771.539 63.8146C776.629 64.2196 780.961 67.6783 782.484 72.5522L783.149 74.6814C783.625 76.2064 784.33 77.6503 785.239 78.964L787.86 82.7503C788.981 84.3698 790.523 85.6527 792.319 86.4607C796.578 88.3767 799.128 92.8089 798.643 97.454L798.324 100.5C798.081 102.834 798.386 105.192 799.215 107.387L801.586 113.659L802.995 119.422C803.71 122.347 805.081 125.072 807.003 127.39C810.227 131.277 811.85 136.246 811.543 141.288L811.308 145.147L809.991 155.782C809.931 156.272 809.827 156.755 809.682 157.227L808.647 160.578C807.474 164.379 810.355 168.217 814.333 168.151C815.238 168.136 816.128 167.911 816.931 167.494L818.964 166.439C822.06 164.832 825.605 164.31 829.033 164.957L830.662 165.265C831.634 165.448 832.62 165.555 833.609 165.583L835.66 165.641C838.833 165.731 841.867 166.958 844.211 169.098L844.367 169.241C846.563 171.247 849.395 172.415 852.367 172.541C855.084 172.656 857.691 173.642 859.803 175.355L860.748 176.121C862.673 177.682 864.218 179.66 865.265 181.907L865.571 182.565C867.281 186.234 870.271 189.152 873.98 190.773C875.76 191.551 877.39 192.635 878.796 193.975L882.314 197.331C883.223 198.198 884.048 199.15 884.776 200.174L886.568 202.693C888.52 205.437 889.276 208.855 888.663 212.166L888.271 214.288C887.57 218.081 889.28 221.913 892.572 223.922C895.775 225.878 897.49 229.567 896.921 233.277L896.436 236.437C896.162 238.218 896.233 240.035 896.643 241.79L896.94 243.06C897.97 247.464 897.541 252.083 895.716 256.221L895.172 257.456C894.278 259.482 893.659 261.619 893.331 263.809L892.761 267.616C892.456 269.653 892.656 271.733 893.343 273.674L894.607 277.243C895.895 280.879 894.409 284.916 891.071 286.848C888.123 288.554 886.578 291.938 887.217 295.283L887.788 298.269C888.468 301.829 887.543 305.508 885.259 308.322L882.424 311.816L879.771 315.867C877.844 318.808 875.118 321.138 871.912 322.582C869.314 323.752 867.022 325.508 865.217 327.712L864.451 328.646C862.689 330.797 861.321 333.242 860.41 335.869L858.052 342.669L856.225 346.523C854.542 350.07 850.975 352.339 847.049 352.359C843.67 352.376 840.518 354.064 838.631 356.866L836.055 360.69L831.753 367.3C830.964 368.512 830.332 369.819 829.872 371.19L828.263 375.986C827.422 378.492 825.369 380.402 822.809 381.06C819.377 381.942 816.971 385.026 816.949 388.569L816.925 392.579C816.904 396.141 815.422 399.538 812.827 401.978L811.713 403.025C810.549 404.119 809.219 405.019 807.772 405.693C803.61 407.631 800.565 411.368 799.507 415.835L799.413 416.233C798.718 419.171 797.197 421.849 795.031 423.951L791.497 427.381L788.545 430.725C786.325 433.239 783.239 434.892 779.921 435.379C776.411 435.894 773.18 437.734 770.974 440.512C769.248 442.684 768.21 445.322 767.991 448.087L767.776 450.81C767.431 455.16 764.385 458.823 760.17 459.955C758.319 460.452 756.642 461.455 755.33 462.852L753.174 465.146C751.569 466.853 750.255 468.813 749.286 470.947L746.292 477.538L741.422 486.812L739.322 490.914C737.563 494.351 734.841 497.203 731.489 499.12C729.401 500.314 727.546 501.878 726.016 503.734L722.137 508.439L721.791 508.994C718.46 514.34 714.376 519.177 709.665 523.357L705.734 526.919C703.702 528.76 702.264 531.164 701.603 533.825L701.116 535.784C700.227 539.364 697.495 542.197 693.95 543.215C691.366 543.958 689.173 545.679 687.839 548.014L686.466 550.417C685.369 552.337 683.911 554.026 682.173 555.391L677.345 559.183L673.205 562.507C671.05 564.237 669.136 566.246 667.511 568.481L666.869 569.364C665.059 571.853 663.719 574.653 662.916 577.624L662.561 578.939C661.539 582.72 659.46 586.13 656.567 588.77L655.746 589.519C654.563 590.599 653.572 591.872 652.817 593.285L650.986 596.707C649.587 599.323 646.83 600.923 643.865 600.839C640.427 600.742 637.329 602.901 636.229 606.159L635.944 607.003C634.513 611.244 630.192 613.796 625.788 613.003L625.259 612.908C624.033 612.688 622.776 612.706 621.556 612.963L617.747 613.767C615.767 614.185 613.749 614.398 611.725 614.404L606.06 614.419L599.077 614.726C597.929 614.777 596.798 615.025 595.734 615.46L594.404 616.003C590.53 617.587 586.082 616.06 583.996 612.432C582.24 609.376 578.755 607.75 575.285 608.368L575.154 608.391C572.373 608.887 569.526 607.975 567.549 605.956L563.529 601.85L561.189 599.512C558.147 596.473 555.699 592.891 553.974 588.951L553.486 587.839C552.634 585.893 552.033 583.846 551.698 581.748L551.353 579.583C550.711 575.561 548.762 571.862 545.806 569.06L543.695 567.057C543.351 566.731 543.074 566.341 542.878 565.91C541.502 562.869 537.108 563.101 536.059 566.27L535.858 566.877C535.689 567.389 535.415 567.861 535.054 568.263L530.819 572.98C529.8 574.114 528.648 575.121 527.388 575.978L525.13 577.512C522.788 579.105 521.107 581.496 520.401 584.239L520.36 584.399C519.305 588.498 516.061 591.671 511.939 592.636C509.611 593.181 507.514 594.447 505.946 596.252L504.233 598.225C502.851 599.816 501.736 601.622 500.933 603.571L499.741 606.467C498.689 609.022 497.026 611.28 494.899 613.043C492.301 615.197 490.407 618.08 489.461 621.32L488.677 624.004C488.08 626.05 487.234 628.014 486.158 629.853L483.808 633.871C483.116 635.054 482.556 636.31 482.139 637.616L480.94 641.364C479.971 644.395 477.678 646.823 474.706 647.962L474.55 648.022C471.73 649.104 469.54 651.387 468.576 654.25C467.327 657.958 464.005 660.622 460.119 661.084C458.013 661.335 456.01 662.236 454.435 663.657L452.349 665.54C451.013 666.746 449.446 667.667 447.743 668.249L446.469 668.685C443.973 669.537 441.915 671.34 440.741 673.702L440.562 674.062C438.382 678.449 433.24 680.479 428.652 678.764C427.987 678.516 427.297 678.342 426.594 678.247L423.306 677.8Z" fill="#FCFCFC"/>
</svg>
