<svg width="378" height="47" viewBox="0 0 378 47" fill="none" xmlns="http://www.w3.org/2000/svg">
<g clip-path="url(#clip0_1249_92573)">
<path d="M20.375 23.5463L23.5512 22.5012L26.7274 22.9636L29.9036 23.5648L33.089 22.7232L36.2652 23.2873H39.4414L42.6269 23.2133L45.8031 23.537L48.9793 22.9451L52.1648 23.8607L55.3409 22.6307L58.5171 23.1486L61.6933 23.8237L64.8695 23.7497L68.0457 23.1763L71.2312 23.3983L74.4074 23.7867L77.5836 22.8896L80.769 23.7035L83.9452 23.2041L87.1214 23.389L90.3069 22.7602L93.4831 23.0746L96.6593 23.8237L99.8355 23.0376L103.021 23.8884L106.197 23.2041L109.373 22.7417L112.559 23.5648L115.735 23.7312L118.911 22.8619L122.097 23.4908L125.273 24.2769L128.449 23.3983L131.634 22.5105L134.811 22.7324L137.996 23.6572L141.172 22.4735L144.349 24.3508L147.534 24.2954L150.71 23.1209L153.886 22.603L157.072 23.463L160.248 23.3243L163.434 22.6215L166.61 23.0746L169.786 23.0099L172.971 24.2214L176.148 22.7047L179.333 22.9636L182.509 22.5475L185.685 23.6295L188.862 23.8792L192.038 23.2966L195.214 22.7787L198.39 24.0364L201.566 23.685L204.743 23.5185L207.928 24.0364L211.104 23.3243L214.28 22.6122L217.457 23.8792L220.642 23.3243L223.818 23.7682L226.995 23.0284L230.18 24.0364L233.356 23.6665L236.542 23.9347L239.718 24.1751L242.894 23.4538L246.07 24.2491L249.256 22.8064L252.441 23.722L255.617 23.8792L258.794 23.2318L261.979 23.8514L265.164 22.8434L268.341 23.4075L271.526 23.9532L274.702 23.9162L277.888 23.0006L281.073 22.6307L284.249 23.8422L287.435 23.1856L290.611 23.722L293.796 24.2584L296.982 23.3336L300.167 22.8157L303.344 23.5L306.529 22.4735L309.715 23.8977L312.891 24.3416L316.076 23.0561L319.252 23.9532L322.438 24.1751L325.623 23.7312L328.809 23.0469L331.985 24.2676L335.17 23.9162L338.356 24.2121L341.541 23.5463L344.727 23.8422L347.912 24.2399L351.098 22.4272L354.292 23.2966L357.487 23.3983" stroke="black" stroke-width="40.757" stroke-miterlimit="10" stroke-linecap="round"/>
</g>
<defs>
<clipPath id="clip0_1249_92573">
<rect width="377.856" height="46.3235" fill="white"/>
</clipPath>
</defs>
</svg>
