<svg width="810" height="416" viewBox="0 0 810 416" fill="none" xmlns="http://www.w3.org/2000/svg">
<path d="M379.484 402.448L372.005 406L365.135 403.093L358.017 401.775L350.48 400.721L346.806 393.951L337.358 394.027L332.275 388.991L327.012 384.156L327.679 376.359L318.626 372.953L318.996 365.974L321.657 359.238L318.247 353.37L321.484 347.397L318.758 340.814L322.366 336.09L316.583 339.891L313.543 346.232L306.253 349.242L297.991 351.483L295.108 357.948L287.818 360.959L285.223 367.646L281.722 373.639L273.138 375.644L268.657 380.403L263.822 385.217L257.429 388.353L251.721 393.389L243.269 391.627L235.971 391.654L228.878 390.385L221.267 394.589L214.66 390.656L206.563 391.585L201.728 385.661L193.062 385.744L186.34 382.491L181.496 377.399L177.649 371.822L175.829 365.482L171.694 360.307L169.989 354.265L166.125 348.486L167.847 342.069L166.578 335.743L167.114 329.34L168.028 322.799L172.69 317.444L176.842 316.951L170.384 320.558L161.685 322.736L157.303 327.28L151.504 330.45L145.787 333.905L140.202 338.657L132.113 336.097L125.407 337.838L118.298 340.273L111.511 337.193L104.163 337.498L98.3965 333.44L91.7983 331.505L86.4357 327.717L79.9939 325.032L73.0415 322.188L68.7086 317.145L68.0661 310.458L63.486 305.616L62.9176 299.505L58.6589 293.99L56.4347 287.788L57.6209 281.483L57.5715 274.997L61.2619 269.281L66.7151 264.557L72.4978 259.118L61.6573 257.037L54.4248 254.415L47.9336 250.842L40.6352 248.678L35.0914 244.176L25.7583 242.615L21.0135 237.51L21.3265 230.052L13.435 226.189L13.1879 219.529L14.5636 213.043L10 207.022L13.7563 200.917L16.936 195.292L18.4681 189.465L15.7745 181.543L22.7516 177.568L28.0895 173.204L34.9019 170.402L38.5511 164.374L44.4245 160.454L47.1428 153.552L53.8482 150.431L59.4167 146.227L67.0364 143.965L69.6971 137.008L76.8967 134.351L83.7502 131.361L86.6087 124.584L95.1015 123.155L100.126 118.431L105.448 113.984L111.758 110.481L118.405 107.297L120.745 100.027L128.908 98.279L132.409 92.1052L139.246 89.1015L143.876 83.9959L149.765 80.0905L155.103 75.6578L160.104 70.9129L168.498 69.3799L174.634 65.7103L177.74 59.1618L181.743 53.4666L187.65 49.582L193.103 45.2533L200.533 42.7977L206.934 39.3639L209.627 32.4409L216.646 30.1378L222.758 26.4058L231.086 28.2163L237.668 25.7676L244.785 25.6774L252.067 23.4576L259.316 24.5536L265.708 28.0151L273.929 27.1411L279.432 31.7194L282.892 37.9418L290.083 41.0773L295.157 46.2592L299.951 51.6422L305.833 56.8865L305.882 62.5262L313.255 60.1815L320.15 56.6437L325.611 51.8642L331.048 47.0708L336.205 42.0346L340.076 35.8677L348.396 33.5647L352.77 27.8278L358.569 24.4357L365.135 22.2506L370.225 17.8248L377.54 17.6028L383.751 14.4743L390.531 11.0405L397.994 10.215L405.474 10.9295L411.891 15.0015L417.756 18.7266L424.593 20.2944L429.165 25.0531L437.007 26.6694L440.236 32.5727L447.888 35.5902L448.383 42.541L456.546 46.606L451.991 54.2228L454.874 57.4623L461.942 55.9708L467.049 51.7324L473.647 48.6663L477.387 43.3596L481.143 38.0528L488.244 35.3682L492.486 30.443L493.434 22.3546L502.025 21.5569L506.671 15.938L514.719 15.9102L520.625 10.6521L528.945 14.8142L535.906 12.1713L543.534 10L549.935 15.0709L555.923 18.5809L563.007 19.4897L569.63 21.7858L576.097 24.8311L581.723 28.9308L586.575 33.7034L591.27 38.698L593.494 44.8024L597.201 50.4283L593.857 57.2958L595.537 63.1575L599.359 69.4978L597.613 77.3712L600.241 70.906L604.5 66.4803L609.549 62.658L613.676 58.1282L619.327 54.1464L627.128 52.8909L631.016 46.613L639.509 47.924L645.728 45.1562L652.211 41.4658L659.567 42.6936L666.808 42.0832L673.933 43.2347L680.416 46.0303L687.599 47.2373L695.927 47.6743L699.354 54.9095L704.363 59.6821L713.037 62.2557L711.719 70.58L714.907 76.1434L717.098 82.0536L724.067 87.5962L723.441 94.3735L722.205 100.957L719.017 107.769L727.304 107.679L734.355 105.264L741.711 106.18L749.133 106.319L755.443 110.12L763.154 110.335L769.406 113.679L773.401 119.333L780.815 121.469L786.968 125.34L792.183 130.175L789.975 138.048L799.415 141.85L797.801 148.787L800 154.988L795.873 161.162L794.53 167.072L798.509 174.481L789.135 178.06L791.515 186.274L785.864 190.866L780.947 195.819L773.17 198.129L767.75 202.492L764.472 208.728L760.452 214.32L750.073 214.354L745.163 219.161L740.344 224.045L737.14 230.344L728.424 231.821L728.342 240.853L722.255 244.627L714.552 246.992L712.065 253.922L706.051 257.772L700.442 261.962L691.051 262.871L685.713 267.304L684.725 275.538L676.067 277.071L670.284 281.129L666.371 286.81L662.096 292.179L657.887 297.604L650.605 300.351L645.168 304.7L640.456 309.688L634.221 313.337L628.034 317.034L625.456 323.881L616.889 325.504L612.399 330.686L605.851 334.078L599.368 337.512L594.252 342.153L591.501 348.868L585.323 352.586L580.71 358.274L571.385 358.101L567.324 366.036L558.501 364.989L550.923 366.043L543.279 366.057L535.626 366.279L527.108 368.575L521.342 361.958L512.248 363.026L505.946 358.78L499.851 354.764L496.004 348.972L494.389 342.298L488.079 338.351L484.422 333.024L481.432 338.983L475.888 343.055L469.051 346.121L466.546 352.537L457.518 353.932L452.065 358.073L448.547 363.706L442.205 367.174L439.453 373.39L435.054 378.35L432.105 384.433L423.934 386.5L420.804 392.633L412.311 393.298L406.577 396.711L399.773 398.245L394.641 405.057L386.676 403.093L379.484 402.448Z" fill="#FCFCFC"/>
</svg>
