<svg width="32" height="32" viewBox="0 0 32 32" fill="none" xmlns="http://www.w3.org/2000/svg">
<path d="M16 0.5C7.43959 0.5 0.5 7.43959 0.5 16C0.5 24.5604 7.43959 31.5 16 31.5C24.5604 31.5 31.5 24.5604 31.5 16C31.5 7.43959 24.5604 0.5 16 0.5Z" fill="#545556"/>
<path d="M16 0.5C7.43959 0.5 0.5 7.43959 0.5 16C0.5 24.5604 7.43959 31.5 16 31.5C24.5604 31.5 31.5 24.5604 31.5 16C31.5 7.43959 24.5604 0.5 16 0.5Z" stroke="#B6B6B7"/>
<path fill-rule="evenodd" clip-rule="evenodd" d="M11.0378 16.8888L18.2078 24L20 22.2225L13.7261 16L20 9.7775L18.2078 8L11.0378 15.1113C10.8002 15.347 10.6667 15.6667 10.6667 16C10.6667 16.3333 10.8002 16.653 11.0378 16.8888Z" fill="#FCFCFC"/>
</svg>
