<svg width="32" height="32" viewBox="0 0 32 32" fill="none" xmlns="http://www.w3.org/2000/svg">
<path d="M16 0.5C24.5604 0.5 31.5 7.43959 31.5 16C31.5 24.5604 24.5604 31.5 16 31.5C7.43959 31.5 0.5 24.5604 0.5 16C0.5 7.43959 7.43959 0.5 16 0.5Z" fill="#545556"/>
<path d="M16 0.5C24.5604 0.5 31.5 7.43959 31.5 16C31.5 24.5604 24.5604 31.5 16 31.5C7.43959 31.5 0.5 24.5604 0.5 16C0.5 7.43959 7.43959 0.5 16 0.5Z" stroke="#B6B6B7"/>
<path fill-rule="evenodd" clip-rule="evenodd" d="M20.9622 16.8888L13.7922 24L12 22.2225L18.2739 16L12 9.7775L13.7922 8L20.9622 15.1113C21.1998 15.347 21.3333 15.6667 21.3333 16C21.3333 16.3333 21.1998 16.653 20.9622 16.8888Z" fill="#FCFCFC"/>
</svg>
