<svg width="32" height="32" viewBox="0 0 32 32" fill="none" xmlns="http://www.w3.org/2000/svg">
<path d="M2.61719 4.90479C3.42478 4.57896 4.27329 4.75768 4.94141 5.21729L5.85938 5.68604L6.5625 6.05713L6.93359 6.77979L7.08984 7.13135L7.42188 7.229L7.67578 7.30713L7.89062 7.42432L9.04297 8.08838L9.55078 8.38135L10.3711 9.61182L10.8203 9.94385L11.7578 10.3345L12.3047 10.5298L12.7148 10.9595L13.5938 11.936L13.9258 12.2876L14.082 12.7173L14.1992 12.7368L17.6758 13.2642L16.0547 16.3696L15.332 17.7563L15.2734 17.854L15.1953 17.9517L14.4727 19.0845L13.9648 19.8462L13.0859 20.1001L12.5 20.2759L12.2461 20.647L11.5625 21.5845L10.9375 22.6782L10.3125 23.7329L9.25781 23.8696L9.00391 25.1001L7.69531 25.5688L7.05078 25.7837L6.71875 26.2524L5.80078 27.4634L4.29688 27.2095L3.90625 27.1509C2.54573 26.9173 1.62237 25.6207 1.85547 24.2603C2.0051 23.3887 2.60122 22.7256 3.35938 22.4048L3.53516 22.1899L3.98438 21.5845L4.6875 21.3306L4.72656 21.1353L5.07812 19.4165L6.81641 19.1626L7.20703 19.104L7.28516 19.0063L7.34375 18.8892L7.42188 18.7915L8.18359 17.7173H8.20312L8.96484 16.6431L9.47266 15.9595L9.92188 15.8228L9.58984 14.9634L9.39453 14.7681L8.69141 14.4946L8.35938 14.3774L8.08594 14.1626L7.05078 13.3618L6.71875 13.1274L6.05469 12.1313L5.58594 11.8774L4.55078 11.5454L3.55469 11.2134L3.08594 10.2759L2.83203 9.729L2.42188 9.53369L1.62109 9.104L1.26953 8.26416L1.23047 8.1665C0.715395 6.88982 1.34127 5.42468 2.61719 4.90479Z" fill="#232426"/>
<path d="M16.2578 3.76123C17.0815 3.61022 17.846 3.9243 18.4062 4.46436L19.2461 5.10889L19.8516 5.59717L20.0859 6.33936L20.1836 6.65186L20.4766 6.80811L20.7109 6.92529L20.9062 7.08154L21.9414 7.88232L22.4297 8.23389L22.6836 8.78076L23.0938 9.65967L23.4844 10.0698L24.3047 10.5386L24.7539 10.7925L25.0664 11.1831L25.8672 12.2378L26.2188 12.7065L26.3359 13.2729L26.5703 14.5425L26.6094 14.7769L26.7266 16.0464L26.8828 17.5894L25.5742 18.4097L25.0664 18.7026L24.8516 19.23L24.4805 20.0503L23.6602 20.4409L23.0547 20.7144L22.8203 21.1831L22.8008 21.2026V21.2222L22.2148 22.2183L21.6094 23.4487L21.0234 24.6206L19.8125 24.7964L19.5391 26.0659L18.1914 26.5151L17.5664 26.7104L17.2148 27.1792L16.5508 28.019L15.4961 28.1167L14.9688 28.1558C13.5961 28.2854 12.3859 27.2826 12.2539 25.9097C12.1451 24.7652 12.8304 23.761 13.8555 23.3706L14.1289 23.0386L14.5781 22.4526L15.2812 22.2183L15.3203 22.0229L15.6914 20.3433L17.3906 20.0894L17.7031 20.0308L17.7227 20.0112L17.8008 19.855L18.4648 18.7222L19.0703 17.6089L19.4609 16.9253L20.1836 16.5737L20.6719 16.3198L20.8477 15.9487L21.1602 15.2651L21.5703 14.9917L21.5312 14.7964L21.3945 14.6401L20.6719 14.2104L20.3398 14.0347L20.0664 13.7417L19.1875 12.7847L18.9336 12.5112L18.4258 11.4956L17.9961 11.144L17.0195 10.6753L16.0625 10.2065L15.7305 9.17139L15.5352 8.56592L15.1836 8.29248L14.4414 7.70654L14.2656 6.76904L14.2461 6.67139C13.9986 5.31499 14.9013 4.01101 16.2578 3.76123Z" fill="#232426"/>
</svg>
