<svg width="24" height="24" viewBox="0 0 24 24" fill="none" xmlns="http://www.w3.org/2000/svg">
<path d="M16.8599 11.2891C16.6628 11.0224 16.4229 10.7913 16.2001 10.5602C15.6259 10.0268 14.9746 9.64461 14.4261 9.08459C13.1492 7.78677 12.8664 5.64449 13.6805 4C12.8664 4.20445 12.1551 4.66669 11.5466 5.17337C9.32704 7.02231 8.45291 10.2846 9.49844 13.0847C9.53272 13.1736 9.56699 13.2625 9.56699 13.378C9.56699 13.5736 9.43845 13.7514 9.26705 13.8225C9.06994 13.9114 8.86427 13.8581 8.70144 13.7158C8.6528 13.6736 8.61212 13.6223 8.58146 13.5647C7.61307 12.2936 7.45881 10.4713 8.11012 9.01348C6.67895 10.2224 5.8991 12.2669 6.0105 14.1958C6.06192 14.6403 6.11334 15.0848 6.25903 15.5292C6.37901 16.0626 6.61039 16.5959 6.86749 17.067C7.79303 18.6049 9.3956 19.7071 11.1181 19.9293C12.9521 20.1693 14.9146 19.8227 16.32 18.5071C17.8883 17.0315 18.4368 14.667 17.6312 12.6402L17.5198 12.4091C17.3399 12.0002 16.8599 11.2891 16.8599 11.2891ZM14.1519 16.8893C13.9119 17.1026 13.5177 17.3337 13.2092 17.4226C12.2494 17.7782 11.2895 17.2804 10.7239 16.6937C11.7437 16.4448 12.3522 15.6626 12.5322 14.8714C12.6779 14.1603 12.4036 13.5736 12.2922 12.8891C12.1894 12.2313 12.2065 11.6713 12.4379 11.058C12.6007 11.3958 12.7721 11.7336 12.9778 12.0002C13.6377 12.8891 14.6746 13.2803 14.8974 14.4892C14.9317 14.6136 14.9489 14.7381 14.9489 14.8714C14.9746 15.6003 14.6661 16.4004 14.1519 16.8893Z" fill="#121315"/>
</svg>
