<svg width="24" height="24" viewBox="0 0 24 24" fill="none" xmlns="http://www.w3.org/2000/svg">
<path d="M12.3857 2.72104L12.4322 2.56098L12.582 2.55925V2.72104H12.733V2.55925L13.0649 2.52637V2.72061H14.8753V2.8824H15.6901V3.07621H16.173V3.23801H16.6858V3.3998H17.1534C17.1808 3.3998 17.2628 3.4582 17.3193 3.43225V3.59404L17.6472 3.59793L17.6847 3.75194L17.9831 3.7554V3.9172L18.315 3.94964V4.11144H18.4959V4.27323L18.9485 4.30568V4.46747H19.1294V4.62927L19.282 4.64311L19.3099 4.82351H19.4609V4.9853H19.6119L19.6248 5.14883L19.7932 5.17868V5.34047H19.9442V5.53471H20.1251V5.69651H20.2761V5.8583H20.4267L20.4396 6.02226L20.608 6.05211V6.24635H20.759V6.40815H20.9399V6.56994H21.0909L21.1212 6.92555H21.2722V7.28158H21.4236V7.44338H21.5746L21.5875 7.9625L21.7555 7.99279V8.31638H21.9061V8.86579H22.0874V9.22139H22.2384V9.73835H22.389L22.4193 10.2558H22.5707C22.5441 10.6689 22.6288 11.0747 22.5707 11.4839H22.7217C22.7112 11.962 22.7661 12.4292 22.7217 12.9063H22.6006V13.0681H22.7217V13.5851H22.5707V13.7793H22.4197V14.4901H22.2384V14.8457H22.087L22.0741 15.171L21.9372 15.2022L21.9364 15.5245H21.7551L21.7264 15.8978L21.6065 15.9142L21.5738 16.2352H21.4228V16.5913H21.2718L21.2403 16.9131L20.9399 16.9469V17.27L20.7715 17.2999L20.7586 17.4638H20.6076L20.6036 17.7662C20.5801 17.8415 20.4857 17.8173 20.4267 17.819V17.9808H20.2757V18.3368H19.9438V18.5311H19.7928V18.6929H19.6119V18.8871H19.4609V19.0489H19.28V19.2107H19.129V19.405H18.8278L18.7975 19.7606H18.6465V19.9224H18.4652V20.1162H18.3142V20.278H17.9819V20.4718H17.8309V20.6336H17.6496V20.7954H17.3476L17.3197 20.9753L17.1667 20.9892V21.151H16.8348V21.3127L16.5029 21.3452V21.507H16.171V21.6688H16.02V21.8306L15.5072 21.863V22.0248L15.2056 22.0577V22.187L15.0243 22.1866V22.3809H14.5418V22.5751L14.2099 22.5427V22.7369H13.3951V22.5751L12.9122 22.5431V22.3813H12.4297L12.4015 22.2013L12.2484 22.1875V20.9593H12.0974V20.7975H12.2488V20.6548L12.0974 20.6362L12.0958 20.4925L12.2355 20.4441L12.2484 20.0859H12.3999V19.9245H11.4345V20.0863H10.9515V19.9245H9.62397V19.7627H9.49072L9.47336 19.9249H8.77929V19.7636C8.68118 19.7696 8.59154 19.7303 8.49383 19.729C8.40661 19.7281 8.19302 19.7874 8.15911 19.732L8.14336 19.604L7.66248 19.5693V19.4075L7.182 19.3729L7.13031 19.2168L6.66679 19.2142V19.0524H6.3349V18.8906L5.5201 18.8581V18.6963L5.23787 18.692C5.16761 18.6669 5.19022 18.5657 5.18861 18.5025H5.0376V18.3407H4.7053V18.1789L4.37341 18.1465V17.9847H4.19211V17.8229H4.04111V17.6287H3.73949V17.4669H3.55861V17.1108H3.408L3.37651 16.789L3.07611 16.7552V16.5934H2.74381L2.71595 16.413L2.56292 16.3992V16.2374H2.41232V15.7204L2.25929 15.7066C2.25162 15.4929 2.13372 15.5889 2.09334 15.5288L2.08083 15.203H1.92982V14.4923H1.74893V13.7811H1.59792V12.9085H1.41663V12.5204H1.26562V12.3915H1.41663V10.6135H1.56724L1.59752 9.74052H1.74893L1.78123 9.22572L1.90115 9.20928L1.92982 8.8355H2.08123V8.51235H2.41353V8.15674H2.56494V7.80114H2.74623C2.71393 7.61772 2.73089 7.46717 2.74623 7.28374H2.89724V7.12238L3.05027 7.10854L3.07813 6.92814H3.41043V6.76635H3.56143V6.41074H3.71244L3.72496 6.24679L3.86184 6.21564L3.86345 6.05514H3.74232V5.89335H3.89373V5.69954H4.22603V5.53774L4.70893 5.50573V5.34394H4.85994L4.89265 5.02337L5.19143 4.9879V4.82654L5.34446 4.81269L5.37232 4.6323H5.52333V4.30914H5.99089C6.01713 4.30914 6.09991 4.2542 6.15482 4.27453L6.16976 4.14605L6.51861 4.11533V3.95354L7.15171 3.92066L7.1824 3.59793L7.9657 3.56419L8.01617 3.40802L8.4801 3.40413V3.20989L8.63111 3.21032V3.08054L9.7778 3.04852V2.88673H10.2906V2.72537L10.7735 2.69249V2.88673H10.9245V2.72493H12.3877L12.3857 2.72104ZM9.77578 5.53342H9.29288V5.69521H8.62909V5.85657L8.14619 5.88902V6.05081H7.66369V6.21261L7.51066 6.22645L7.4824 6.40642H6.99949V6.56821H6.6676V6.73001H6.51659V6.92425H6.1847L6.15643 7.26601L5.8528 7.27985V7.44165C5.831 7.4663 5.56451 7.39363 5.52091 7.4901V7.95861H5.3699V8.15285H5.18861V8.34666H5.0376V8.50845H4.85631V8.86406H4.55429L4.54137 9.18938L4.37341 9.21966V9.54325H4.2228V10.0442L4.04151 10.0927V10.2545H3.8905V10.4487H4.04151V11.1275H3.8905V12.0325H3.7399L3.70921 12.7112H3.8905V13.5838L4.04353 13.5976C4.09238 13.7279 4.03424 13.7547 4.19333 13.7599L4.2224 13.9398L4.06977 13.9541L4.05403 14.1038L4.373 14.1336V14.2954H4.22199V14.6515H4.373V14.8133L4.54097 14.8431L4.55389 15.0071H4.7049V15.1689H4.8559L4.86882 15.3324L5.03719 15.3622V15.524H5.1882L5.21647 15.704L5.5201 15.7178V15.8796H5.70098V16.0414L6.00219 16.0743V16.3975L6.35145 16.4282C6.34418 16.5376 6.39708 16.5913 6.50044 16.5913H7.33018V16.7531H7.66207V16.9473H7.99397V17.1091H8.62747L8.65574 17.2891L8.95937 17.3029V17.4647H9.92477V17.6265H10.7694V17.4647H11.2524V17.6265C11.4102 17.6715 11.4353 17.553 11.5689 17.5287L11.6008 17.6282L11.7655 17.6261V17.4643H12.414C12.4358 17.4643 12.5024 17.415 12.548 17.4301L12.5496 17.3025H12.7309V17.4647H13.0632V17.3029C13.3988 17.2752 13.7234 17.2839 14.0593 17.3029V17.4647H14.5418V17.7874L14.8737 17.8199V19.2098H15.0247V19.4041L15.3566 19.3712V19.2094H15.6889V19.0476H15.8399L15.8678 18.8672L16.0208 18.8534V18.6916H16.322L16.3523 18.336H16.6846V18.1746L16.9858 18.1417V17.9799H17.1372V17.8182H17.3181L17.346 17.6378L17.499 17.6239V17.4621H17.65V17.3003H17.801V17.1061H17.9819V16.9118H18.1329V16.75H18.3138V16.5558L18.6142 16.5549L18.6433 16.4083L18.7967 16.3944V15.877H18.9776V15.7153H19.1286V15.3592H19.2796L19.3099 15.0036H19.4609V14.8094H19.6119V14.6476H19.7629V14.4858H19.9442L19.947 13.9896L20.094 13.9355L20.0948 13.7746H20.2761V13.6128L20.1247 13.5946V13.419H20.2761V12.8696H20.4271V12.7567L20.2761 12.7402V11.9966H20.4271V11.673H20.2757V11.3174C20.2159 11.3156 20.1207 11.3381 20.0976 11.2642L20.1251 10.9618H19.9438V10.7675H20.0948L20.0956 10.6546L19.9478 10.5854L19.9442 10.0888L19.7912 10.0749L19.7633 9.89453H19.6426L19.6123 9.53892H19.4613V8.66636H19.28V8.50456H18.978L18.9477 8.14939H18.7967V7.95515H18.6453L18.6328 7.62983C18.5924 7.5697 18.4745 7.66574 18.4668 7.45203L18.3134 7.43862V7.27682H18.1325V7.08258H17.9815V6.92079H17.8006V6.75899H17.6496V6.40296H17.3177V6.24116L16.9858 6.20872V6.04692H16.6539V5.88513L15.8694 5.85268V5.69089H15.6582V5.52909H15.5379V5.69089H15.3566V5.52909H14.7082C14.6416 5.52909 14.491 5.46333 14.3924 5.49535L14.346 5.33485H13.8784V5.17306H13.2147V5.33485H13.0636V5.17306H11.2532V5.01126L10.7703 4.97838V5.17262H10.4384V5.33442C10.2086 5.3262 10.0031 5.37811 9.77457 5.33442V5.52866L9.77578 5.53342Z" fill="#121315"/>
<path d="M8.23457 9.74461V9.95569H8.75769V10.1319H8.92128L8.93528 10.3105L9.1168 10.3439C9.20603 10.5715 8.97595 10.9691 9.31363 10.9065C9.332 11.2297 9.2677 11.5388 9.31363 11.8573H9.11723V12.0683H8.95365V12.2445H8.75726V12.4203H8.25075C8.24069 12.4203 8.19476 12.4518 8.15408 12.4566C8.10203 12.4627 7.92051 12.4429 7.9087 12.4566C7.89471 12.4726 7.93014 12.612 7.85403 12.6266L7.51505 12.6314V12.4551L7.16994 12.4222L7.1555 12.0683L6.79596 12.033V11.6452H6.63281V10.7124C6.63281 10.6803 6.69186 10.5847 6.66562 10.5187H6.79596L6.82877 10.1314H7.18875V9.95522H7.35233V9.74414H8.235L8.23457 9.74461Z" fill="#121315"/>
<path d="M16.4212 9.74515V9.93475H16.8086L16.8486 10.3084L17.1959 10.3514L17.2313 10.9572H17.3717V11.7906H17.1955V11.9802H17.0192V12.2073H16.8076V12.3969H16.6314L16.6163 12.5886C16.5663 12.6681 15.4712 12.6185 15.2935 12.5855V12.3959H15.0819V12.2063H14.9057V12.0167L14.7275 12.0005C14.646 11.9407 14.7111 10.6713 14.7304 10.464L14.8703 10.5395L14.9071 10.1624L15.2935 10.1233V9.93373H15.4698V9.74414H16.4203L16.4212 9.74515Z" fill="#121315"/>
<path d="M13.3405 11.568L13.1765 11.5675V11.7957H12.9796L12.98 12.0239L12.816 12.0234V12.2135H12.6191L12.6195 12.4036L12.4555 12.4031V12.6314L11.3741 12.5932V12.4031L11.0461 12.4036L11.0465 12.2135H10.8496L10.8168 11.7957H10.6856L10.6562 11.2121L10.8189 11.1283L10.8172 10.96L10.6856 10.9605V10.7699L10.8501 10.7704L10.8496 10.5422L11.0136 10.5427L11.0132 10.3521L11.2105 10.3526L11.2101 10.1625L11.3741 10.163L11.3737 9.93425L11.7346 9.93476V9.74465L11.9122 9.74414L11.931 9.93476H12.4555V10.1249L12.7853 10.1411L12.816 10.3526L12.98 10.3521L12.9796 10.5427L13.144 10.5422L13.1436 10.9605L13.3405 10.96V11.568Z" fill="#121315"/>
</svg>
