<svg width="24" height="24" viewBox="0 0 24 24" fill="none" xmlns="http://www.w3.org/2000/svg">
<path d="M6.85714 3C5.83416 3 4.85309 3.40638 4.12973 4.12973C3.40638 4.85309 3 5.83416 3 6.85714V17.1429C3 18.1658 3.40638 19.1469 4.12973 19.8703C4.85309 20.5936 5.83416 21 6.85714 21H17.1429C18.1658 21 19.1469 20.5936 19.8703 19.8703C20.5936 19.1469 21 18.1658 21 17.1429V6.85714C21 5.83416 20.5936 4.85309 19.8703 4.12973C19.1469 3.40638 18.1658 3 17.1429 3H6.85714ZM4.28571 6.85714C4.28571 6.17516 4.55663 5.5211 5.03887 5.03887C5.5211 4.55663 6.17516 4.28571 6.85714 4.28571H17.1429C17.8248 4.28571 18.4789 4.55663 18.9611 5.03887C19.4434 5.5211 19.7143 6.17516 19.7143 6.85714V17.1429C19.7143 17.8248 19.4434 18.4789 18.9611 18.9611C18.4789 19.4434 17.8248 19.7143 17.1429 19.7143H6.85714C6.17516 19.7143 5.5211 19.4434 5.03887 18.9611C4.55663 18.4789 4.28571 17.8248 4.28571 17.1429V6.85714ZM16.9551 9.24086C17.0759 9.12015 17.1437 8.95643 17.1437 8.78571C17.1437 8.615 17.0759 8.45128 16.9551 8.33057C16.8344 8.20986 16.6707 8.14204 16.5 8.14204C16.3293 8.14204 16.1656 8.20986 16.0449 8.33057L10.0714 14.3053L7.95514 12.1877C7.83443 12.067 7.67071 11.9992 7.5 11.9992C7.32929 11.9992 7.16557 12.067 7.04486 12.1877C6.92415 12.3084 6.85633 12.4721 6.85633 12.6429C6.85633 12.8136 6.92415 12.9773 7.04486 13.098L9.61629 15.6694C9.676 15.7293 9.74694 15.7768 9.82504 15.8092C9.90314 15.8416 9.98687 15.8583 10.0714 15.8583C10.156 15.8583 10.2397 15.8416 10.3178 15.8092C10.3959 15.7768 10.4669 15.7293 10.5266 15.6694L16.9551 9.24086Z" fill="#121315"/>
</svg>
