<svg width="24" height="24" viewBox="0 0 24 24" fill="none" xmlns="http://www.w3.org/2000/svg">
<path d="M11.9999 22.2457C17.5949 22.2457 22.2453 17.6052 22.2453 12.0003C22.2453 6.40531 17.5846 1.75488 11.9896 1.75488C6.38517 1.75488 1.75488 6.40531 1.75488 12.0003C1.75488 17.6052 6.39503 22.2457 11.9999 22.2457ZM12.0003 20.5383C7.2586 20.5383 3.47131 16.7412 3.47131 12.0003C3.47131 7.26888 7.24831 3.46231 11.9896 3.46231C16.7206 3.46231 20.5272 7.26931 20.5375 12.0003C20.5473 16.7416 16.7313 20.5383 12.0003 20.5383Z" fill="#85B31A"/>
<path fill-rule="evenodd" clip-rule="evenodd" d="M17.307 8.52384C17.4554 8.66233 17.5388 8.85013 17.5388 9.04595C17.5388 9.24177 17.4554 9.42958 17.307 9.56807L10.9716 15.476C10.8231 15.6145 10.6218 15.6922 10.4118 15.6922C10.2018 15.6922 10.0004 15.6145 9.85188 15.476L6.68421 12.522C6.53996 12.3828 6.46014 12.1962 6.46194 12.0026C6.46375 11.809 6.54703 11.6237 6.69386 11.4868C6.84069 11.3499 7.03931 11.2722 7.24695 11.2705C7.45459 11.2689 7.65463 11.3433 7.80398 11.4778L10.4118 13.9097L16.1872 8.52384C16.3357 8.38539 16.5371 8.30762 16.7471 8.30762C16.9571 8.30762 17.1585 8.38539 17.307 8.52384Z" fill="#85B31A"/>
</svg>
