<svg width="24" height="24" viewBox="0 0 24 24" fill="none" xmlns="http://www.w3.org/2000/svg">
<path d="M6.85714 3C5.83417 3 4.85309 3.40638 4.12973 4.12973C3.40638 4.85309 3 5.83417 3 6.85714V17.1429C3 18.1658 3.40638 19.1469 4.12973 19.8703C4.85309 20.5936 5.83417 21 6.85714 21H17.1429C18.1658 21 19.1469 20.5936 19.8703 19.8703C20.5936 19.1469 21 18.1658 21 17.1429V6.85714C21 5.83417 20.5936 4.85309 19.8703 4.12973C19.1469 3.40638 18.1658 3 17.1429 3H6.85714ZM4.28571 6.85714C4.28571 6.17516 4.55663 5.5211 5.03887 5.03887C5.5211 4.55663 6.17516 4.28571 6.85714 4.28571H17.1429C17.8248 4.28571 18.4789 4.55663 18.9611 5.03887C19.4434 5.5211 19.7143 6.17516 19.7143 6.85714V17.1429C19.7143 17.8248 19.4434 18.4789 18.9611 18.9611C18.4789 19.4434 17.8248 19.7143 17.1429 19.7143H6.85714C6.17516 19.7143 5.5211 19.4434 5.03887 18.9611C4.55663 18.4789 4.28571 17.8248 4.28571 17.1429V6.85714Z" fill="#121315"/>
</svg>
