<svg width="24" height="24" viewBox="0 0 24 24" fill="none" xmlns="http://www.w3.org/2000/svg">
<g opacity="0.75">
<path d="M0 12C0 5.37258 5.37258 0 12 0C18.6274 0 24 5.37258 24 12C24 18.6274 18.6274 24 12 24C5.37258 24 0 18.6274 0 12Z" fill="#121315"/>
<path fill-rule="evenodd" clip-rule="evenodd" d="M12.4246 20.0178L12.4169 20.0192L12.3672 20.0437L12.3532 20.0465L12.3434 20.0437L12.2936 20.0192C12.2862 20.0168 12.2806 20.018 12.2768 20.0227L12.274 20.0297L12.2621 20.3294L12.2656 20.3434L12.2726 20.3525L12.3455 20.4044L12.356 20.4072L12.3644 20.4044L12.4372 20.3525L12.4456 20.3413L12.4484 20.3294L12.4365 20.0304C12.4346 20.0229 12.4307 20.0187 12.4246 20.0178ZM12.6102 19.9386L12.6011 19.94L12.4715 20.0052L12.4645 20.0122L12.4624 20.0199L12.475 20.321L12.4785 20.3294L12.4841 20.3343L12.6249 20.3995C12.6338 20.4018 12.6405 20.3999 12.6452 20.3939L12.648 20.3841L12.6242 19.954C12.6219 19.9456 12.6172 19.9405 12.6102 19.9386ZM12.1094 19.94C12.1063 19.9381 12.1026 19.9375 12.0991 19.9383C12.0956 19.9391 12.0925 19.9412 12.0905 19.9442L12.0863 19.954L12.0625 20.3841C12.063 20.3925 12.0669 20.3981 12.0744 20.4009L12.0849 20.3995L12.2257 20.3343L12.2327 20.3287L12.2355 20.321L12.2474 20.0199L12.2453 20.0115L12.2383 20.0045L12.1094 19.94Z" fill="#C6F065"/>
<path fill-rule="evenodd" clip-rule="evenodd" d="M18.6924 7.30794C18.8894 7.50495 19 7.77212 19 8.0507C19 8.32927 18.8894 8.59644 18.6924 8.79345L10.818 16.6678C10.714 16.7719 10.5904 16.8545 10.4544 16.9108C10.3185 16.9672 10.1727 16.9961 10.0255 16.9961C9.87836 16.9961 9.73262 16.9672 9.59664 16.9108C9.46067 16.8545 9.33712 16.7719 9.23306 16.6678L5.32073 12.7562C5.22039 12.6593 5.14035 12.5434 5.08529 12.4152C5.03023 12.287 5.00125 12.1492 5.00004 12.0097C4.99883 11.8702 5.02541 11.7318 5.07823 11.6027C5.13106 11.4736 5.20906 11.3563 5.30771 11.2577C5.40635 11.159 5.52364 11.081 5.65276 11.0282C5.78187 10.9754 5.92021 10.9488 6.0597 10.95C6.1992 10.9512 6.33705 10.9802 6.46522 11.0353C6.5934 11.0903 6.70932 11.1704 6.80624 11.2707L10.0252 14.4897L17.2062 7.30794C17.3038 7.21032 17.4196 7.13287 17.5471 7.08003C17.6746 7.0272 17.8113 7 17.9493 7C18.0873 7 18.224 7.0272 18.3515 7.08003C18.479 7.13287 18.5948 7.21032 18.6924 7.30794Z" fill="#C6F065"/>
</g>
</svg>
