<svg width="24" height="24" viewBox="0 0 24 24" fill="none" xmlns="http://www.w3.org/2000/svg">
<path d="M12.9664 6.97822L17.0297 11.0366M5.01246 17.8895L5.47236 14.74C5.50039 14.5341 5.59434 14.3427 5.74133 14.1951L14.6522 5.28315C14.7675 5.16628 14.9111 5.08112 15.0691 5.03591C15.227 4.99071 15.394 4.98698 15.5538 5.0251C16.3719 5.25096 17.1133 5.69395 17.6995 6.307C18.3116 6.89645 18.7521 7.6408 18.9739 8.46065C19.0121 8.62026 19.0083 8.78702 18.9631 8.94477C18.9178 9.10253 18.8325 9.24595 18.7155 9.36115L9.79482 18.2618C9.64686 18.4082 9.45502 18.5023 9.24855 18.5297L6.09592 18.989C5.94699 19.0107 5.79505 18.997 5.6524 18.9491C5.50975 18.9012 5.38042 18.8204 5.27489 18.7132C5.16936 18.606 5.0906 18.4755 5.04501 18.3323C4.99941 18.189 4.98826 18.0378 5.01246 17.8895Z" stroke="#121315" stroke-width="1.5" stroke-linecap="round" stroke-linejoin="round"/>
</svg>
