<svg width="24" height="24" viewBox="0 0 24 24" fill="none" xmlns="http://www.w3.org/2000/svg">
<path d="M13.2723 5.36449L18.6353 10.7275M2.77426 19.7835L3.38126 15.6215C3.41826 15.3495 3.54226 15.0965 3.73626 14.9015L15.4973 3.12449C15.6495 2.97004 15.839 2.85751 16.0475 2.79777C16.256 2.73803 16.4763 2.73311 16.6873 2.78349C17.767 3.08195 18.7456 3.66735 19.5193 4.47749C20.3272 5.25644 20.9085 6.24007 21.2013 7.32349C21.2516 7.53442 21.2467 7.75478 21.187 7.96325C21.1272 8.17172 21.0147 8.36125 20.8603 8.51349L9.08626 20.2755C8.89098 20.469 8.63777 20.5933 8.36526 20.6295L4.20426 21.2365C4.0077 21.2652 3.80715 21.2471 3.61888 21.1838C3.43061 21.1205 3.25991 21.0137 3.12062 20.872C2.98134 20.7304 2.87739 20.558 2.81722 20.3687C2.75704 20.1794 2.74232 19.9795 2.77426 19.7835Z" stroke="#121315" stroke-width="1.5" stroke-linecap="round" stroke-linejoin="round"/>
</svg>
