<svg width="21" height="21" viewBox="0 0 21 21" fill="none" xmlns="http://www.w3.org/2000/svg">
<path d="M10.245 20.4909C15.84 20.4909 20.4904 15.8503 20.4904 10.2454C20.4904 4.65043 15.8297 0 10.2347 0C4.63029 0 0 4.65043 0 10.2454C0 15.8503 4.64014 20.4909 10.245 20.4909ZM10.2454 18.7834C5.50371 18.7834 1.71643 14.9863 1.71643 10.2454C1.71643 5.514 5.49343 1.70743 10.2347 1.70743C14.9657 1.70743 18.7723 5.51443 18.7826 10.2454C18.7924 14.9867 14.9756 18.7834 10.2446 18.7834M10.2347 12.0634C10.7164 12.0634 10.9877 11.7921 10.9976 11.2701L11.1484 5.96657C11.1587 5.454 10.7567 5.07257 10.2244 5.07257C9.68186 5.07257 9.30043 5.44414 9.31029 5.95629L9.441 11.2701C9.45086 11.7823 9.73243 12.0634 10.2347 12.0634ZM10.2347 15.3279C10.8069 15.3279 11.319 14.8659 11.319 14.2834C11.319 13.6907 10.8171 13.2386 10.2347 13.2386C9.642 13.2386 9.14957 13.7006 9.14957 14.2834C9.14957 14.856 9.65186 15.3279 10.2347 15.3279Z" fill="#FF5A5A"/>
</svg>
