<svg width="24" height="24" viewBox="0 0 24 24" fill="none" xmlns="http://www.w3.org/2000/svg">
<path d="M10.0856 4.75C10.1797 4.31471 10.591 4 11.0682 4H12.9456C13.4228 4 13.8341 4.31471 13.9283 4.75L14.3835 6.80882C14.8262 6.98529 15.2406 7.21176 15.6173 7.47941L17.7459 6.81765C18.198 6.67647 18.6941 6.85294 18.9327 7.24118L19.8714 8.76471C20.11 9.15294 20.0252 9.64118 19.6673 9.93824L17.9939 11.3324C18.0222 11.55 18.0348 11.7735 18.0348 12C18.0348 12.2265 18.0191 12.45 17.9939 12.6676L19.6704 14.0647C20.0283 14.3618 20.11 14.8529 19.8745 15.2382L18.9358 16.7618C18.6972 17.1471 18.2012 17.3265 17.7491 17.1853L15.6205 16.5235C15.2406 16.7912 14.8262 17.0147 14.3867 17.1941L13.9346 19.25C13.8373 19.6882 13.426 20 12.9519 20H11.0745C10.5973 20 10.186 19.6853 10.0918 19.25L9.63975 17.1941C9.19708 17.0176 8.78581 16.7912 8.40593 16.5235L6.26793 17.1853C5.81584 17.3265 5.3198 17.15 5.0812 16.7618L4.14249 15.2382C3.90389 14.85 3.98866 14.3618 4.34656 14.0647L6.02305 12.6676C5.99479 12.45 5.98224 12.2265 5.98224 12C5.98224 11.7735 5.99793 11.55 6.02305 11.3324L4.34656 9.93529C3.98866 9.63824 3.90703 9.14706 4.14249 8.76176L5.0812 7.23824C5.3198 6.85 5.81584 6.67353 6.26793 6.81471L8.39651 7.47647C8.77639 7.20882 9.1908 6.98529 9.63033 6.80588L10.0856 4.75ZM12.0069 14.3529C13.3946 14.3471 14.5154 13.2912 14.5091 11.9912C14.5028 10.6912 13.3758 9.64118 11.9881 9.64706C10.6004 9.65294 9.47964 10.7088 9.48591 12.0088C9.49219 13.3088 10.6193 14.3588 12.0069 14.3529Z" fill="#121315"/>
</svg>
