<svg width="24" height="24" viewBox="0 0 24 24" fill="none" xmlns="http://www.w3.org/2000/svg">
<path d="M17.793 14.9355C18.1834 14.5453 18.8166 14.5453 19.207 14.9355C19.5976 15.3261 19.5976 15.9601 19.207 16.3506L17.707 17.8506C17.3166 18.2407 16.6834 18.2407 16.293 17.8506C15.9024 17.4601 15.9024 16.8261 16.293 16.4355L17.793 14.9355ZM14 4H9C9 4.55228 8.55228 5 8 5C7.44772 5 7 4.55228 7 4H6C5.20435 4 4.44152 4.3163 3.87891 4.87891C3.3163 5.44152 3 6.20435 3 7H20C20 6.20435 19.6837 5.44152 19.1211 4.87891C18.5585 4.3163 17.7956 4 17 4H16C16 4.55228 15.5523 5 15 5C14.4477 5 14 4.55228 14 4ZM22 10C22 10.5523 21.5523 11 21 11C20.4477 11 20 10.5523 20 10V9H3V16C3 16.7956 3.3163 17.5585 3.87891 18.1211C4.44152 18.6837 5.20435 19 6 19H9C9.55229 19 10 19.4477 10 20C10 20.5523 9.55229 21 9 21H6C4.67392 21 3.40253 20.4728 2.46484 19.5352C1.52716 18.5975 1 17.3261 1 16V7C1 5.67392 1.52716 4.40253 2.46484 3.46484C3.40253 2.52716 4.67392 2 6 2H7C7 1.44772 7.44772 1 8 1C8.55228 1 9 1.44772 9 2H14C14 1.44772 14.4477 1 15 1C15.5523 1 16 1.44772 16 2H17C18.3261 2 19.5975 2.52716 20.5352 3.46484C21.4728 4.40253 22 5.67392 22 7V10Z" fill="#121315"/>
<path d="M21 17C21 14.7909 19.2091 13 17 13C14.7909 13 13 14.7909 13 17C13 19.2091 14.7909 21 17 21C19.2091 21 21 19.2091 21 17ZM23 17C23 20.3137 20.3137 23 17 23C13.6863 23 11 20.3137 11 17C11 13.6863 13.6863 11 17 11C20.3137 11 23 13.6863 23 17Z" fill="#121315"/>
</svg>
