<svg width="24" height="24" viewBox="0 0 24 24" fill="none" xmlns="http://www.w3.org/2000/svg">
<path d="M15.0811 2.0017V2.00268C15.7837 1.97788 16.4691 2.22496 16.9932 2.69506C17.5262 3.17326 17.8488 3.84256 17.8916 4.55736L17.8936 4.57983V10.6931C17.8717 11.8293 17.5393 12.9387 16.9336 13.9001C16.3279 14.8614 15.4713 15.639 14.4561 16.1492L14.4551 16.1482C13.6983 16.5465 12.8563 16.7556 12.001 16.7556C11.1456 16.7555 10.3037 16.5466 9.54688 16.1482V16.1492C8.53154 15.639 7.67408 14.8615 7.06836 13.9001C6.46264 12.9387 6.13121 11.8293 6.10938 10.6931V4.57983L6.11035 4.55736C6.15313 3.84256 6.47676 3.17326 7.00977 2.69506C7.53359 2.2252 8.21859 1.9781 8.9209 2.00268L15.0811 2.0017ZM15.0996 3.5017H8.90332L8.88477 3.50072C8.56405 3.48523 8.24974 3.59684 8.01074 3.81127C7.77404 4.02364 7.63082 4.32041 7.60938 4.63744V10.6648L7.62598 10.9871C7.69159 11.7364 7.93527 12.4612 8.33789 13.1003C8.74045 13.7393 9.28907 14.2714 9.93652 14.654L10.2197 14.8093L10.2275 14.8122L10.2344 14.8162C10.7784 15.1047 11.3852 15.2555 12.001 15.2556C12.6168 15.2556 13.2235 15.1047 13.7676 14.8162L13.7754 14.8122L13.7822 14.8093C14.5535 14.4218 15.2049 13.8307 15.665 13.1003C16.1251 12.37 16.3769 11.5278 16.3936 10.6648V4.63744C16.3721 4.3204 16.2279 4.02365 15.9912 3.81127C15.7523 3.59713 15.4386 3.48528 15.1182 3.50072L15.0996 3.5017Z" fill="#121315" stroke="#121315" stroke-width="0.5" stroke-linecap="round"/>
<path d="M8.68945 19.2314C8.57224 19.243 8.45687 19.2712 8.34766 19.3164C8.20195 19.3768 8.0695 19.4656 7.95801 19.5771C7.8466 19.6886 7.75849 19.8212 7.69824 19.9668C7.63797 20.1126 7.60726 20.269 7.60742 20.4268V20.501H16.3906V20.4268C16.3908 20.269 16.3601 20.1126 16.2998 19.9668C16.2395 19.821 16.1506 19.6887 16.0391 19.5771C15.9275 19.4656 15.7952 19.3767 15.6494 19.3164C15.5401 19.2712 15.4249 19.2429 15.3076 19.2314L15.1895 19.2256H8.80762L8.68945 19.2314ZM6.85742 3.85254C7.27144 3.85277 7.60742 4.18847 7.60742 4.60254C7.6074 5.01659 7.27143 5.35231 6.85742 5.35254H4.78613L4.77051 5.35156C4.45064 5.3375 4.13727 5.44973 3.89941 5.66406C3.66634 5.87413 3.52463 6.16612 3.50098 6.47852C3.50833 7.49982 3.7723 8.50258 4.27148 9.39258C4.80791 10.3369 5.55764 11.1437 6.45996 11.748L6.46582 11.752L7.26855 12.2988L8.04004 12.7656C8.39444 12.98 8.50837 13.4415 8.29395 13.7959C8.07952 14.1503 7.61806 14.2632 7.26367 14.0488L6.46875 13.5684L6.45117 13.5576L6.43457 13.5459L5.62012 12.9912V12.9902C4.52657 12.2566 3.61824 11.2789 2.96777 10.1338L2.96582 10.1309C2.33496 9.00793 2.00333 7.74166 2 6.4541V6.43066L2.00098 6.40723C2.04384 5.69478 2.36528 5.0276 2.89551 4.5498C3.41758 4.07936 4.10118 3.8322 4.80273 3.85449V3.85254H6.85742ZM19.1953 3.85254V3.85449C19.8969 3.83221 20.5805 4.07936 21.1025 4.5498C21.6328 5.0276 21.9542 5.69479 21.9971 6.40723L21.998 6.43066V6.4541C21.9948 7.74182 21.6624 9.00789 21.0322 10.1309L21.0303 10.1338C20.3797 11.2791 19.4708 12.2565 18.377 12.9902L17.5635 13.5459L17.5469 13.5576L17.5293 13.5684L16.7344 14.0488C16.38 14.2632 15.9185 14.1503 15.7041 13.7959C15.4897 13.4415 15.6036 12.98 15.958 12.7656L16.7285 12.2988L17.5322 11.752L17.5381 11.748C18.4404 11.1437 19.1892 10.3369 19.7256 9.39258C20.2247 8.50174 20.4888 7.49938 20.4961 6.47852C20.4724 6.16616 20.3317 5.87412 20.0986 5.66406C19.8608 5.44973 19.5474 5.3375 19.2275 5.35156L19.2119 5.35254H17.1406C16.7266 5.35234 16.3907 5.0166 16.3906 4.60254C16.3906 4.18845 16.7266 3.85274 17.1406 3.85254H19.1953ZM17.8906 20.7607C17.8906 21.0895 17.7598 21.4052 17.5273 21.6377C17.2949 21.8699 16.9799 22.0009 16.6514 22.001H7.34668C7.01792 22.0009 6.70219 21.8702 6.46973 21.6377C6.23726 21.4052 6.10749 21.0895 6.10742 20.7607V20.4277C6.10713 20.073 6.17598 19.7214 6.31152 19.3936C6.44713 19.0656 6.64659 18.7676 6.89746 18.5166C7.14833 18.2656 7.44657 18.0664 7.77441 17.9307C8.10199 17.7951 8.45309 17.7255 8.80762 17.7256H9.19629V15.5068C9.19629 15.0926 9.53208 14.7568 9.94629 14.7568C10.3604 14.757 10.6963 15.0927 10.6963 15.5068V17.7256H13.3018V15.5068C13.3018 15.0927 13.6377 14.757 14.0518 14.7568C14.466 14.7568 14.8018 15.0926 14.8018 15.5068V17.7256H15.1895C15.544 17.7254 15.895 17.7952 16.2227 17.9307C16.5507 18.0664 16.8495 18.2656 17.1006 18.5166C17.3514 18.7675 17.5499 19.0657 17.6855 19.3936C17.8212 19.7215 17.8909 20.0729 17.8906 20.4277V20.7607Z" fill="#121315" stroke="#121315" stroke-width="0.5" stroke-linecap="round"/>
<path d="M13.25 9.00391C13.25 8.31355 12.6904 7.75391 12 7.75391C11.3096 7.75391 10.75 8.31355 10.75 9.00391C10.75 9.69426 11.3096 10.2539 12 10.2539C12.6904 10.2539 13.25 9.69426 13.25 9.00391ZM14.75 9.00391C14.75 10.5227 13.5188 11.7539 12 11.7539C10.4812 11.7539 9.25 10.5227 9.25 9.00391C9.25 7.48512 10.4812 6.25391 12 6.25391C13.5188 6.25391 14.75 7.48512 14.75 9.00391Z" fill="#121315" stroke="#121315" stroke-width="0.5"/>
</svg>
