<svg width="24" height="24" viewBox="0 0 24 24" fill="none" xmlns="http://www.w3.org/2000/svg">
<path d="M7.41256 3.80017C7.42908 3.81634 7.40171 3.90481 7.42598 3.93211C7.50705 4.02361 7.8148 3.89217 7.80602 4.14999L8.49948 4.14594L8.50619 4.3436L8.64354 4.35826L8.66007 4.4902L9.21721 4.55642L9.22444 4.69595C9.25748 4.72577 9.38657 4.67572 9.4222 4.70858C9.43924 4.72425 9.60344 5.00077 9.64836 5.04273C9.67315 5.06548 9.75112 5.04273 9.77538 5.067C9.80223 5.09379 9.77642 5.17265 9.79655 5.19439C9.82908 5.22977 10.048 5.21663 10.1157 5.25404C10.1869 5.29347 10.0707 5.47192 10.3547 5.40721L10.3609 5.60537C10.6 5.55735 10.4936 5.82275 10.5721 5.9006C10.6176 5.94559 10.8401 5.95014 10.9186 5.9653L10.9279 6.16043C11.1659 6.10887 11.0626 6.39247 11.1406 6.45818C11.1954 6.50469 11.3239 6.38134 11.2873 6.66595L11.4298 6.67252L11.4659 7.02285L11.7902 7.01425C11.7716 6.8075 11.942 6.85552 11.991 6.80497C12.0143 6.78121 11.9911 6.70589 12.0164 6.68112C12.0417 6.65635 12.1196 6.67808 12.1434 6.65786C12.2059 6.60529 12.2151 6.28732 12.2059 6.19177L12.3592 6.16094L12.367 5.9648C12.3799 5.95064 12.6293 5.94913 12.6928 5.91374C12.7645 5.8733 12.6453 5.70799 12.9277 5.754L12.9391 5.61902C12.9695 5.58616 13.1926 5.5983 13.2597 5.56038C13.3315 5.52045 13.2122 5.35565 13.4936 5.39963L13.5091 5.26566L13.6465 5.251L13.6532 5.05335L13.9831 5.05739L14.0616 4.87439L14.3461 4.85569L14.3818 4.71061C14.6322 4.70757 14.6487 4.65045 14.7943 4.53165C14.8294 4.50334 14.9053 4.51143 14.9301 4.48464C14.9797 4.43055 14.8625 4.29608 15.1485 4.34865V4.14594L15.6866 4.14999L15.7429 3.99176H16.2019L16.2582 4.14999H16.7683L16.8246 3.99176H18.778L18.8095 4.14089L19.1601 4.15403C19.1415 4.3618 19.3134 4.31327 19.3615 4.36281C19.3862 4.38808 19.3615 4.46695 19.3816 4.48818C19.4126 4.52053 19.6568 4.52205 19.7286 4.55541L19.7363 4.85114C19.7492 4.86428 19.9976 4.8658 20.0616 4.90169C20.1153 4.93202 20.0787 5.01543 20.1071 5.04273C20.1334 5.06801 20.2114 5.04526 20.2351 5.06548C20.3306 5.14737 20.201 5.47141 20.4494 5.41176L20.4551 5.61043L20.657 5.617C20.6219 5.81163 20.7788 5.73681 20.8403 5.81415C20.8914 5.87835 20.8196 5.99563 21.0143 5.96783L21.022 6.31664H21.2291L21.2363 6.66292L21.4325 6.75088L21.383 7.02285H21.59L21.5947 7.22202L21.748 7.25185L21.7439 7.57791H21.951L21.9473 8.25581L22.1069 8.30889L22.0992 8.48127L21.951 8.48582V8.63697L22.0992 8.64152L22.1069 8.8139L21.9566 8.8417L21.9473 9.16422L22.095 9.1991L22.109 10.0726L21.9473 10.1277L21.9515 11.3617L21.7444 11.3607L21.7403 11.5604L21.59 11.5629V11.7141L21.748 11.7414L21.7424 12.0649L21.4475 12.1291L21.3752 12.4648L21.2399 12.4804L21.225 12.6149L21.0231 12.6215L21.0169 12.8196C20.7262 12.7529 20.8635 13.3241 20.8098 13.3742L20.673 13.3883L20.6585 13.5233L20.4566 13.5299V13.8837L20.0962 13.8832V14.2371L19.8948 14.2437L19.8799 14.3781L19.7425 14.3928L19.7327 14.5869L19.38 14.6456L19.3666 14.9888L19.2298 15.003L19.2153 15.1374L19.0134 15.144L19.0145 15.4979H18.8074L18.8007 15.695L18.6633 15.7097L18.6479 15.8436C18.3618 15.8123 18.4847 15.9367 18.4356 15.9882C18.4067 16.0185 18.3143 15.9963 18.2678 16.0544C18.241 16.0878 18.2559 16.1662 18.2265 16.193C18.1759 16.239 18.0308 16.1247 18.0866 16.4058L17.8795 16.4048L17.8733 16.6024L17.736 16.6171L17.721 16.7515L17.5191 16.7576L17.5201 16.9603L17.3182 16.9664L17.3033 17.1009L17.1659 17.1155L17.1592 17.3132H16.7978L16.7983 17.666L16.442 17.6736C16.4885 17.8733 16.2747 17.7919 16.237 17.8986C16.2102 17.9739 16.2556 18.1306 16.2262 18.1655C16.1998 18.1968 15.9107 18.1983 15.8792 18.2322C15.859 18.2545 15.8849 18.3328 15.858 18.3596C15.8337 18.3844 15.7558 18.3611 15.731 18.3839C15.6907 18.4198 15.7258 18.5355 15.6329 18.5679C15.5399 18.6002 15.4021 18.5613 15.3034 18.5734V18.9273L14.9425 18.9268V19.2807H14.7881L14.7835 19.1351L14.5888 19.1386C14.578 19.1765 14.5955 19.2443 14.5707 19.269C14.5547 19.2852 14.2537 19.4733 14.2325 19.496C14.1855 19.5456 14.3022 19.6876 14.0151 19.633V19.8357L13.4998 19.8347C13.5804 20.2007 13.3909 20.1163 13.3062 20.2032C13.2706 20.2391 13.3222 20.362 13.1141 20.3918C13.0893 20.7512 12.557 20.321 12.5255 20.7214L12.2188 20.7507C12.2394 20.9595 12.0613 20.912 12.0169 20.959C11.9694 21.009 12.0871 21.1506 11.7995 21.096V21.2987C11.5212 21.1976 11.4814 21.4165 11.4071 21.4423C11.2465 21.4969 10.8602 21.5034 10.8762 21.2704L10.5143 21.2426L10.5081 21.1025L10.1554 21.0889L10.1404 20.9549L10.0026 20.9408L9.99638 20.7431L9.78933 20.7441L9.79036 20.5414L9.58795 20.5359C9.64733 20.2927 9.29208 20.3953 9.23166 20.3291C9.19604 20.2902 9.28278 20.1542 9.07573 20.1845L9.06902 19.9869L8.86557 19.9823L8.85886 19.8423L8.50154 19.8362V19.6335L8.29862 19.629L8.29242 19.4884C7.91652 19.5531 8.0074 19.3722 7.91962 19.2928C7.89741 19.2726 7.6191 19.1012 7.59999 19.0779C7.57004 19.0405 7.58605 18.9526 7.56695 18.9354C7.52667 18.898 7.33769 18.9647 7.26023 18.9056C7.19621 18.8565 7.26488 18.6958 7.0697 18.715C7.07176 18.4309 6.79449 18.7332 6.84509 18.3778L6.70774 18.3631L6.69276 18.2287L6.49087 18.2226L6.4919 18.0199L6.28485 18.0209V17.667L5.92443 17.6675V17.4648L5.72306 17.4588L5.7086 17.3238L5.57176 17.3091L5.56763 16.9912L5.38071 16.9143L5.35799 16.6075H4.99655L4.99087 16.4093L4.84732 16.4027L4.84216 16.2036H4.6351L4.63923 15.7269L4.48588 15.6965L4.48123 15.4974H4.11978L4.1203 15.1445H3.91324L3.91427 14.7911L3.70722 14.7922L3.70257 14.5925L3.55902 14.5864L3.50481 14.2583L3.1919 14.2361L3.19913 14.0394L3.3468 14.0344V13.8832L3.14594 13.8762C3.18364 13.7255 3.0184 13.7184 2.99413 13.6502C2.96212 13.5607 3.01272 13.3651 2.97916 13.3322C2.96109 13.314 2.8635 13.356 2.8289 13.2963C2.75506 13.1679 2.87124 12.9258 2.63166 12.9718C2.61049 12.9511 2.63837 12.6265 2.57228 12.5097C2.54078 12.4536 2.44835 12.4511 2.42666 12.3889C2.39568 12.3 2.44215 12.0993 2.41272 12.0699L2.25988 12.0396L2.2666 11.5397L2.10859 11.5119V11.3607H2.26298L2.26195 11.2116C2.0079 11.2348 2.13699 10.9957 1.89844 10.98V8.31141L2.05696 8.25833L1.89844 8.10516V7.6052L2.06006 7.5501C2.07296 7.32919 2.02443 7.06986 2.06832 6.85552C2.1024 6.68971 2.3678 6.63714 2.26763 6.31917L2.41117 6.3131L2.42408 5.96935L2.60016 5.91677L2.63011 5.61649C2.84284 5.63672 2.79482 5.46231 2.84284 5.41884C2.87124 5.39306 2.95954 5.42086 2.97606 5.40317C3.00911 5.36829 2.95799 5.24544 2.99 5.21056C3.00653 5.19287 3.09741 5.21966 3.12477 5.19691C3.21462 5.12159 3.09224 4.80261 3.33338 4.84255L3.37262 4.69797L3.91118 4.70201L3.91014 4.4993L4.1141 4.49475L4.12081 4.35472L4.63252 4.34865V4.14594L4.96453 4.14999C5.0234 4.13836 4.95679 4.02411 5.02598 3.99328C5.19121 3.92048 5.66677 3.98519 5.8919 3.94778L5.9487 3.78955L7.41049 3.80017H7.41256Z" fill="#121315"/>
</svg>
