<svg width="24" height="24" viewBox="0 0 24 24" fill="none" xmlns="http://www.w3.org/2000/svg">
<path d="M12 3C13.1603 3 14.2731 3.47411 15.0936 4.31802C15.9141 5.16193 16.375 6.30653 16.375 7.5V10.2C17.0712 10.2 17.7389 10.4845 18.2312 10.9908C18.7234 11.4972 19 12.1839 19 12.9V18.3C19 19.0161 18.7234 19.7028 18.2312 20.2092C17.7389 20.7155 17.0712 21 16.375 21H7.625C6.92881 21 6.26113 20.7155 5.76884 20.2092C5.27656 19.7028 5 19.0161 5 18.3V12.9C5 12.1839 5.27656 11.4972 5.76884 10.9908C6.26113 10.4845 6.92881 10.2 7.625 10.2V7.5C7.625 6.30653 8.08594 5.16193 8.90641 4.31802C9.72688 3.47411 10.8397 3 12 3ZM12 13.8C11.5585 13.7999 11.1333 13.9714 10.8095 14.2801C10.4858 14.5889 10.2875 15.0122 10.2544 15.465L10.25 15.6C10.25 15.956 10.3526 16.304 10.5449 16.6C10.7372 16.896 11.0105 17.1267 11.3303 17.263C11.6501 17.3992 12.0019 17.4349 12.3414 17.3654C12.6809 17.296 12.9927 17.1245 13.2374 16.8728C13.4822 16.6211 13.6489 16.3003 13.7164 15.9512C13.7839 15.602 13.7492 15.2401 13.6168 14.9112C13.4843 14.5823 13.26 14.3011 12.9722 14.1034C12.6845 13.9056 12.3461 13.8 12 13.8ZM12 4.8C11.3038 4.8 10.6361 5.08446 10.1438 5.59081C9.65156 6.09716 9.375 6.78392 9.375 7.5V10.2H14.625V7.5C14.625 6.78392 14.3484 6.09716 13.8562 5.59081C13.3639 5.08446 12.6962 4.8 12 4.8Z" fill="#121315"/>
</svg>
