<svg width="24" height="24" viewBox="0 0 24 24" fill="none" xmlns="http://www.w3.org/2000/svg">
<path d="M10.9166 3.08745L11.2244 3L11.5506 3.12534L11.8615 3.0204L12.1785 3.00291L12.4894 3.08453H12.8064L13.0926 3.27401L13.4466 3.1166L13.7605 3.18073L14.0622 3.28275L14.3515 3.41101L14.5793 3.66462L14.9086 3.69959L15.2071 3.80453L15.4103 4.06397H15.795L16.0012 4.30591L16.1613 4.58866L16.3952 4.78397L16.7492 4.87433L16.94 5.11919L17.0262 5.43401L17.1093 5.73717L17.297 5.96745L17.654 6.11611L17.771 6.39887L17.7341 6.73992L17.8695 7.00518L17.9034 7.30251L18.1557 7.53862L18.2234 7.83012L18.1311 8.14786L18.1865 8.42478L18.3835 8.72502V9.02526L18.365 9.31967L18.3219 9.64907L18.6667 9.78024L18.9744 9.90267L19.2853 10.028L19.4484 10.3662L19.7378 10.5119L20.0302 10.6547L20.2179 10.9054L20.3472 11.1969L20.5503 11.4214L20.7904 11.6196L21.0058 11.844L21.2859 12.0394L21.1936 12.427L21.4337 12.6486L21.6953 12.876L21.8122 13.1616L21.723 13.4998L21.8984 13.7708L21.7384 14.1002L21.9569 14.3772L21.9231 14.6803L21.8523 14.9777L21.8738 15.275L21.8276 15.5694L22 15.8988L21.7599 16.1641L21.606 16.4322L21.6307 16.75L21.4521 17.0065L21.3752 17.298L21.3875 17.639L21.1013 17.8372L20.9412 18.0938L20.6765 18.2832L20.6057 18.601L20.5165 18.9245L20.2856 19.1402L20.064 19.3647L19.7839 19.5279L19.4115 19.5746L19.2422 19.8544L18.9591 19.9914L18.6636 20.1051L18.482 20.4228L18.1465 20.4607L17.8295 20.5219L17.574 20.7406L17.2262 20.6852L16.9554 20.9038L16.6106 20.7901L16.3213 21L15.9951 20.9504L15.675 20.8747L15.358 20.9679L15.044 20.8834L14.7393 20.7755H14.4254L14.0806 20.7901L13.7913 20.6385L13.4251 20.6648L13.2342 20.2917L12.8279 20.3995L12.6094 20.0964L12.2431 20.1197L11.9661 19.834L11.6891 20.0206L11.4614 20.2304L11.1228 20.2217L10.8858 20.4112L10.5688 20.4432L10.341 20.6589L10.0055 20.6356L9.78701 20.933L9.46999 20.9534L9.14066 20.8484L8.83287 20.9184L8.51893 20.8659L8.20499 20.9067L7.8972 20.8134L7.57095 20.9096L7.23546 20.9854L6.92152 20.9184L6.64758 20.7114L6.29363 20.7755L6.00739 20.6298L5.8104 20.3062L5.40105 20.417L5.21945 20.108L4.9763 19.9156L4.76085 19.697L4.40997 19.6387L4.0868 19.525L3.93906 19.2364L3.81902 18.9362L3.43736 18.8458L3.2527 18.5951L3.22807 18.2483L3.03109 18.0121L3.00646 17.6886L2.60018 17.5428L2.54171 17.2368L2.42475 16.954L2.24931 16.6887L2.30471 16.3623L2.18159 16.0795L2.19391 15.7734V15.4732L2.17852 15.1759L2.16928 14.8785L2 14.5725L2.1108 14.2751L2.06156 13.9632L2.24315 13.6863L2.47399 13.4327L2.29548 13.0713L2.52016 12.8264L2.50477 12.4941L2.89874 12.3396L2.97877 12.0452L3.01877 11.7158L3.35427 11.573L3.54202 11.3368L3.64666 11.0308L3.80056 10.7538L4.1699 10.6868L4.33918 10.4186L4.61311 10.267L4.78547 9.97846L5.04094 9.7919L5.45953 9.87352L5.6165 9.58785L5.70883 9.31676L5.6442 9.01943L5.5611 8.71336L5.85349 8.44518L5.84426 8.14786L5.9366 7.8651L5.80117 7.52405L6.08126 7.29376L6.01046 6.95271L6.22899 6.71368L6.46599 6.49214V6.15984L6.63835 5.90624L6.96153 5.75174L6.93075 5.36988L7.11234 5.11919L7.32164 4.88891L7.62635 4.74607L7.90336 4.59158L8.05725 4.30591L8.31579 4.13101L8.51277 3.87449L8.82979 3.78121L9.11911 3.65587L9.4269 3.57425L9.71314 3.45182L9.98399 3.28275L10.3041 3.25652L10.6026 3.15741L10.9104 3.0787L10.9166 3.08745ZM15.9828 9.01069L15.8966 8.74542L16.0166 8.43061L15.8596 8.15077L15.7612 7.86802L15.7242 7.56486L15.5765 7.2996L15.5642 6.96146L15.1979 6.82154L15.0071 6.59417L14.8132 6.3668L14.607 6.14526L14.4561 5.83919L14.1299 5.75757L13.8344 5.65263L13.5943 5.41943L13.2281 5.51854L12.948 5.36988L12.6556 5.20081L12.3355 5.17749L12.0154 5.34656L11.7045 5.3349L11.3752 5.24162L11.0335 5.19206L10.7227 5.29992L10.5011 5.60891L10.2025 5.70219H9.83626L9.57772 5.88583L9.27608 6.02283L9.15297 6.34931L8.93136 6.56502L8.61127 6.71368L8.45429 6.98769L8.46968 7.34332L8.34041 7.6115L8.20191 7.87676L7.97722 8.12745L7.99569 8.44227V8.74542L7.98338 8.95239L8.22653 9.10688L8.55586 9.06607L8.89135 9.00194L9.2176 9.08356L9.52539 9.23514L9.84549 9.29053L10.1779 9.3051L10.4949 9.36923L10.8489 9.38964L11.012 9.76275L11.3567 9.80939L11.7168 9.81522L11.9846 9.89101L12.2709 9.99303L12.4955 9.78316L12.8556 9.84146L13.0372 9.56162L13.3266 9.48291L13.622 9.43044L13.8744 9.30802L14.1761 9.25554L14.4377 8.9932L14.7732 9.11854L15.0871 9.16518L15.3857 9.03692L15.6934 9.10688L15.9735 9.0136L15.9828 9.01069ZM8.82979 11.2523L8.95291 11.4068L9.01447 11.707L9.29455 11.8295L9.52847 11.9811L9.73161 12.1705H9.93783L10.2887 12.0889L10.1871 11.7624L10.0148 11.605L9.747 11.4709L9.45152 11.3602L9.15605 11.1561L8.83287 11.2523H8.82979ZM15.2472 11.2552L14.9609 11.366L14.6254 11.2785L14.3392 11.4301L14.0375 11.5117H13.7175L13.8498 11.7857L13.8098 12.121L14.1268 12.3279L14.2161 12.1355L14.4623 11.984L14.7147 11.8266L15.0471 11.7449L15.1702 11.4622L15.2502 11.2581L15.2472 11.2552ZM6.4783 11.847L6.23515 11.9694H5.89351L5.70576 12.223L5.50262 12.4387L5.25331 12.6194L5.09634 12.873L4.80086 13.0479L4.85934 13.4123L4.74854 13.6747L4.64081 13.937L4.53924 14.2168L4.32995 14.4879L4.4069 14.7998L4.44383 15.0972L4.32995 15.4032L4.58541 15.6714L4.57002 15.9746L4.53924 16.2952L4.66236 16.578L4.96707 16.7674L5.09942 17.0327L5.16713 17.3534L5.28409 17.6623L5.53032 17.8693L5.92121 17.9043L6.15205 18.1054L6.32441 18.4115L6.62296 18.5339L6.89382 18.7176L7.25393 18.6622L7.55863 18.7438L7.84795 18.942H8.17729L8.50354 18.77L8.8144 18.7555H9.12835L9.46692 18.8254L9.75315 18.6651L10.0332 18.5223L10.2364 18.4261L10.3102 18.1637L10.144 17.9014L9.94398 17.6536L9.87627 17.3534L9.86703 17.0327L9.75623 16.7529L9.59618 16.4876L9.46692 16.2078L9.26685 15.9367L9.49153 15.6015L9.35303 15.3158L9.20529 15.0068L9.22992 14.692L9.47615 14.3976L9.11604 14.3597L8.93136 14.0478H8.57125L8.33733 13.8408L8.1342 13.6047L7.87565 13.4356L7.66328 13.217L7.2847 13.1412L7.21699 12.8002L7.09388 12.5174L6.81995 12.3367L6.72453 12.0452L6.48446 11.8528L6.4783 11.847ZM13.7544 18.4494L14.0468 18.4931L14.3022 18.7292L14.6408 18.7117L14.9578 18.7409L15.2687 18.8342L15.5888 18.8138L15.9212 18.942L16.2136 18.6855L16.5183 18.6185L16.823 18.5543L17.1277 18.4785L17.4878 18.4902L17.7218 18.2541L17.9649 18.0559L18.3004 17.9684L18.3897 17.6128L18.6636 17.4496L18.9621 17.2863L19.1407 17.0269L19.1345 16.6771L19.2915 16.4206L19.5315 16.1815L19.7347 15.9104L19.7716 15.5956L19.5777 15.2662L19.6208 14.9689L19.7901 14.657L19.7316 14.348V14.0186L19.4669 13.765L19.35 13.4764L19.3407 13.1296L19.1437 12.8701L18.7959 12.7215L18.5897 12.4912L18.3835 12.258L18.205 11.9665L17.8695 11.8965L17.5925 11.8615L17.5248 12.1268L17.1801 12.2784L17.0354 12.5436L16.9 12.8235L16.6476 13.01L16.346 13.1441L16.1213 13.3482L15.9274 13.5901L15.7119 13.8117L15.5457 14.0944L15.1302 14.0653L14.9455 14.3334L14.8224 14.5812L14.8655 14.8202L14.6808 15.1147L14.7732 15.412L14.5239 15.6772L14.6531 15.9891L14.5362 16.2632L14.3884 16.5255L14.333 16.8112L14.2191 17.0794L14.3207 17.4262L14.0375 17.6361L13.8436 17.8751L13.8313 18.187L13.7513 18.4406L13.7544 18.4494ZM12.4863 15.0243L12.1847 15.0768L11.8769 14.9281L11.5722 15.0243L11.6276 15.2575L11.5999 15.5432L11.6861 15.8172L11.6122 16.132L11.9323 16.3215L12.04 16.4614L12.12 16.3506L12.237 16.097L12.4678 15.8551L12.4278 15.549L12.434 15.2575L12.4832 15.0214L12.4863 15.0243Z" fill="#121315"/>
</svg>
