<svg width="24" height="24" viewBox="0 0 24 24" fill="none" xmlns="http://www.w3.org/2000/svg">
<path d="M5.29513 9.99189L4.7795 9.65841L4.58333 9.15679L4.75708 8.63274L4.60575 8.13392L4.69823 7.62389L4.49086 7.11947L4.58333 6.61224L4.68422 6.10502L4.80752 5.6174L4.71504 5.10737L5.12139 4.83555L5.57257 4.71224L6.07139 4.7823L6.5618 4.76268L7.05782 4.57773L7.55664 4.56932L8.04705 4.64779L8.54587 4.63938L9.03348 4.85516L9.5351 4.68982L10.0311 4.74307L10.4683 4.65619L10.586 4.19661L10.5243 3.66416L10.9727 3.3615L11.3146 3.01962L11.819 3L12.2506 3.26903L12.4916 3.709L12.6093 4.19381L12.5981 4.73466L13.1333 4.7795L13.6518 4.61976L14.1702 4.78791L14.6886 4.85796L15.2099 4.7823L15.7311 4.67301L16.2496 4.72906L16.7708 4.83835L17.292 4.7795L17.8105 4.84115L18.2701 4.97847L18.6007 5.3736L18.9763 5.72109L19.3826 6.03776L19.6853 6.45811L20.0412 6.83083L20.1112 7.34086L20.0468 7.85369L19.6096 8.17316L19.4246 8.68599L18.965 8.94661L18.5363 9.22965L18.1888 9.61357L17.8385 9.96667L17.3201 9.86018L16.7988 10.146L16.2776 10.1348L15.7535 9.91062L15.2323 10.0227L14.7083 9.92183L14.187 10.1208L13.663 10.0732L13.1389 9.98909L12.6513 10.0339L12.6065 10.4851L12.5308 11.0596L13.1221 11.0512L13.6294 10.855L14.1394 10.8578L14.6466 11.0372L15.1538 11.0764L15.6639 10.9503L16.1739 10.8578L16.6811 11.1072L17.194 10.9895L17.704 10.883L18.1327 11.3763L18.483 11.8835L18.5447 12.3795L18.413 12.8839L18.5447 13.3771L18.6624 13.8788L18.4971 14.3776L18.5923 14.882L18.3681 15.364L18.483 15.8768L18.015 16.1206L17.704 16.485L17.194 16.5186L16.6867 16.5494L16.1795 16.2972L15.6723 16.555L15.1622 16.3981L14.6522 16.4261L14.145 16.5046L13.635 16.4009L13.1249 16.3224L12.5953 16.3897L12.472 16.9081L12.6513 17.4041L12.6709 17.903L12.7606 18.4018L12.6261 18.8978L12.6345 19.3994L12.5084 19.9347L13.167 19.7357L13.705 20.0552L14.2823 20.0215L14.7111 20.4447L14.7923 20.994L14.4785 21.4283L14.1366 21.7534L13.6322 21.7926L13.1221 21.9159L12.6009 21.787L12.0881 22L11.5696 21.9103L11.054 21.7506L10.5327 21.9215L10.0199 21.8291L9.50148 21.8319L8.98024 21.8066L8.57389 21.4031L8.45339 20.8482L8.71681 20.369L8.98864 19.915L9.51269 19.8338L10.0171 20.0327L10.6252 19.9291L10.4178 19.3994L10.5215 18.9034L10.4515 18.4046L10.6729 17.9086L10.5047 17.4097L10.6532 16.9109L10.6196 16.314L10.0143 16.541L9.50708 16.485L8.99985 16.5438L8.49263 16.4653L7.9826 16.5298L7.47257 16.4037L6.96534 16.4625L6.45531 16.513L5.94528 16.5018L5.41283 16.555L5.06814 16.0282L4.5441 15.8376L4.19941 15.4201L3.87714 14.9885L3.51563 14.6102L3.04204 14.3047L3.03643 13.691L3 13.0521L3.41475 12.6765L3.89956 12.4215L4.14897 11.9059L4.68982 11.7237L5.03451 11.3118L5.45767 11.1156L5.94248 11.0792L6.44971 11.0007L6.95974 10.8354L7.46696 11.0035L7.97419 10.9335L8.48422 10.8522L8.99145 11.0568L9.50148 10.8971L10.0115 10.8802L10.4879 10.9363L10.5916 10.4851L10.6168 9.89661L10.0003 9.94425L9.47906 10.0451L8.95782 9.93864L8.43658 9.98068L7.91254 9.93024L7.3913 10.0676H6.86726L6.34322 10.076L5.81917 10.1152L5.29513 9.99189Z" fill="#121315"/>
</svg>
