<svg width="24" height="24" viewBox="0 0 24 24" fill="none" xmlns="http://www.w3.org/2000/svg">
<path d="M14.09 20.4419L13.9637 20.8835L13.5561 21.0921L13.1169 21.1228L12.7251 21.2792L12.3428 21.27L11.9605 21.2485L11.5845 21.3927L11.1991 21.3344L10.8167 21.319L10.4313 21.5L10.0521 21.273L9.66351 21.4877L9.28752 21.2178L8.89573 21.4417L8.52291 21.2086L8.13428 21.3129L7.74882 21.3773L7.36335 21.4111L6.9842 21.27L6.6019 21.181L6.21643 21.1964L5.83096 21.362L5.44866 21.1872L5.06635 21.1964L4.6872 21.3467L4.3049 21.2914L3.91627 21.3129L3.64455 21.0338L3.26224 20.9602L3.17694 20.5983L3 20.3162L3.05371 19.9757L3.24961 19.6844L3.50869 19.4267L3.86256 19.3225L4.22591 19.3409L4.5703 19.347L4.86414 19.2734L4.93365 18.933L4.82938 18.568V18.203L4.84834 17.838L5.02212 17.4731L4.93365 17.1081L4.92417 16.7431L4.90521 16.3782L4.99684 16.0132L5.03791 15.6482L4.87362 15.2833L5.00316 14.9183L4.94629 14.5533L4.92733 14.1884L4.83886 13.8234L4.88942 13.4584L5.06635 13.0904L4.82622 12.7254L4.80727 12.3605L5.05055 11.9955L4.99052 11.6305L4.86098 11.2655L4.9842 10.9006L5.06003 10.5356L4.95577 10.1676L4.79147 9.80261L4.95893 9.43457L4.81043 9.0696L4.8515 8.70156L4.80095 8.3366L4.89258 7.97164L4.84834 7.6036L4.84202 7.23556L4.92101 6.86753L4.78515 6.49949L4.90205 6.13146L4.78199 5.76342L5.00948 5.39538L4.78515 5.02121L5.04739 4.64398L5.15798 4.27901L5.37599 4.00299L5.71406 3.84044L6.11217 3.82204H6.49447L6.87362 3.72696L7.25592 3.68709L7.63823 3.61655L8.02686 3.73002L8.40916 3.64722L8.79463 3.71775L9.17694 3.5L9.5624 3.61042L9.94787 3.70549L10.3333 3.62575L10.7188 3.63802L11.1043 3.60428L11.4866 3.76376L11.8752 3.64415L12.2575 3.73002L12.6367 3.7975L13.0158 3.8343L13.3981 3.8435L13.654 4.09192L14.0174 4.31274L14.1659 4.58878L14.5134 4.78199L14.8989 4.75133L15.2717 4.57958L15.6477 4.56424L16.0395 4.71145L16.4218 4.72372L16.7978 4.68691L17.1769 4.54584L17.5529 4.70531L17.9258 4.73292L18.2954 4.79119L18.6209 4.95681L18.9589 5.15616L19.1232 5.5242L18.9716 5.89837L19.1864 6.26947L19.0253 6.64058L19 7.01167L18.921 7.38277L18.9273 7.75387L19.0506 8.12498L19.1738 8.49608L19.1453 8.86718L19.1232 9.23828L18.9716 9.60939L19.2117 9.98049L19.0569 10.3516L19.1264 10.7227L19.2149 11.0938L19.0979 11.4649L18.9842 11.836L19.1327 12.2071V12.5813L19.1264 12.9554L19.0158 13.3296L18.9779 13.7038L19.0758 14.078L19.0664 14.4521L19.1769 14.8263L19.1359 15.1974L19.0695 15.5716L19.0442 15.9427L19.2243 16.3138L19.1485 16.6879L18.9747 17.0621L19.1232 17.4363L19.1643 17.8104L19.0221 18.1846L19.1896 18.5588L19.1706 18.933L19.019 19.3317L19.4518 19.2826L19.8088 19.2396L20.1817 19.2212L20.4471 19.5341H20.8799L20.8389 19.9512L21 20.2517L20.8673 20.5738L20.9115 21.0032L20.5419 21.1841L20.1722 21.2884L19.7962 21.3221L19.4265 21.4724L19.0442 21.4019L18.6588 21.4509L18.2986 21.2945L17.9226 21.2424L17.6224 20.9817H17.1927L17.06 20.6045L17.1864 20.2395L17.0979 19.8745L17.0569 19.5095L17.1738 19.1446L17.1864 18.7796L16.9179 18.4146L17.019 18.0466L17.0474 17.6786L17.1264 17.3105L17.1801 16.9425V16.5745L17.1517 16.2064V15.8384L17.1675 15.4704L17.0632 15.1023V14.7343L17.0126 14.3662L17.1611 13.9982L17.1106 13.6302L17.1611 13.2621L16.9431 12.8941L17.2085 12.5261L17.019 12.158L17 11.79L16.9431 11.422L17.158 11.0539L17.1264 10.6859L17.1074 10.3179L17.1896 9.94982L16.9147 9.58179V9.21375L17.1927 8.84571L16.9305 8.47768L16.9747 8.10964L17.1738 7.74161L16.9874 7.37357L17.0126 7.00247L17.0379 6.65284L16.6872 6.49949L16.3144 6.63751L15.9416 6.75098L15.5687 6.54856L15.1959 6.5823L14.8231 6.66818L14.4502 6.5915L13.9984 6.55469L14.1975 6.99327L14.0837 7.35517L13.9573 7.71707V8.07897L14.1438 8.44088L14.0585 8.80278L14.2227 9.16468L14.2101 9.52658L14.1122 9.89155L14.1343 10.2535L14.207 10.6154L14.0079 10.9773L14.1532 11.3392L14.0869 11.7011L13.9921 12.066L14.1027 12.431L14.0269 12.7929L14.0427 13.1548L14.049 13.5167L14.2038 13.8817L14.1722 14.2466L14.0648 14.6116L13.9921 14.9766L13.9668 15.3415L14.1501 15.7065V16.0715L13.9795 16.4334L14.1153 16.7984L14.1817 17.1603L14.2038 17.5252L14.1596 17.8902L14.109 18.2552L14.1817 18.6201L14.1058 18.9851L14.0079 19.3501L14.1501 19.715L14.1943 20.0769L14.1216 20.4511L14.09 20.4419ZM11.9668 12.4647L11.812 12.1366L11.6825 11.7992L11.4202 11.4741L10.9968 11.4802L10.5924 11.5201L10.2196 11.7103L10.1058 12.1059L9.96366 12.4647L10.0237 12.8573L10.387 13.0597L10.5798 13.4462L11 13.3051L11.4329 13.4799L11.6288 13.0751L12.03 12.8788L11.97 12.4647H11.9668Z" fill="#121315"/>
</svg>
