<svg width="24" height="24" viewBox="0 0 24 24" fill="none" xmlns="http://www.w3.org/2000/svg">
<path fill-rule="evenodd" clip-rule="evenodd" d="M7.71763 6.5635C7.69111 6.56323 7.6648 6.56824 7.64024 6.57824C7.61568 6.58823 7.59335 6.60301 7.57455 6.62172C7.55576 6.64042 7.54086 6.66268 7.53075 6.68719C7.52063 6.7117 7.51549 6.73798 7.51562 6.7645V15.3325H16.4876V6.7645C16.4879 6.7379 16.4829 6.71151 16.4728 6.68688C16.4627 6.66225 16.4479 6.63988 16.4291 6.62107C16.4102 6.60226 16.3879 6.58739 16.3632 6.57733C16.3386 6.56727 16.3122 6.56223 16.2856 6.5625L7.71763 6.5635ZM6.01562 6.7645C6.01562 5.8245 6.77763 5.0625 7.71763 5.0625H16.2856C17.2256 5.0625 17.9876 5.8245 17.9876 6.7645V17.2365C17.9876 18.1765 17.2256 18.9375 16.2856 18.9375H7.71763C6.77763 18.9375 6.01562 18.1765 6.01562 17.2365V6.7645ZM9.66963 9.5925C9.90063 9.2645 10.2186 8.9455 10.5096 8.7875C10.5984 8.73108 10.7005 8.69901 10.8056 8.6945C10.8426 8.6955 10.8886 8.7045 10.9546 8.7675V8.7745C10.952 8.867 10.9334 8.95836 10.8996 9.0445C10.7966 9.3415 10.5926 9.6965 10.3456 10.1215L10.3326 10.1435C10.1116 10.5255 9.84462 10.9835 9.71863 11.4005C9.63719 11.6462 9.61661 11.9081 9.65863 12.1635C9.71863 12.4695 9.89563 12.7285 10.1736 12.9035C10.7976 13.2955 11.4266 13.0215 11.8286 12.7515C12.2376 12.4765 12.6446 12.0555 12.9906 11.6995L13.0016 11.6875C13.3796 11.2975 13.6916 10.9775 13.9686 10.7865C14.0422 10.7299 14.1251 10.6866 14.2136 10.6585L14.2166 10.6615L14.2136 10.6815C14.1836 10.8215 14.0916 10.9975 13.9306 11.3015L13.9056 11.3495C13.7616 11.6215 13.5476 12.0275 13.5116 12.4535C13.4916 12.6865 13.5216 12.9395 13.6456 13.1875C13.7686 13.4335 13.9606 13.6325 14.1996 13.7925C14.3375 13.8845 14.5064 13.918 14.669 13.8856C14.8315 13.8531 14.9746 13.7574 15.0666 13.6195C15.1587 13.4816 15.1921 13.3128 15.1597 13.1502C15.1272 12.9876 15.0315 12.8445 14.8936 12.7525C14.7956 12.6865 14.7706 12.6425 14.7656 12.6315C14.7606 12.6225 14.7536 12.6055 14.7576 12.5585C14.7676 12.4275 14.8476 12.2425 15.0106 11.9335L15.0556 11.8495C15.1866 11.6035 15.3706 11.2615 15.4376 10.9315C15.49 10.6967 15.4761 10.4519 15.3976 10.2245C15.3004 9.97048 15.1236 9.75473 14.8936 9.6095C14.2736 9.1955 13.6396 9.4945 13.2576 9.7575C12.8746 10.0225 12.4846 10.4255 12.1476 10.7725L12.1046 10.8175C11.7296 11.2045 11.4136 11.5245 11.1316 11.7135C11.0585 11.7653 10.9788 11.807 10.8946 11.8375L10.9146 11.7645C10.9916 11.5075 11.1786 11.1765 11.4266 10.7495L11.4556 10.6995C11.6756 10.3215 11.9366 9.8715 12.0816 9.4515C12.2256 9.0315 12.3386 8.3845 11.8456 7.8915C11.5838 7.61968 11.2268 7.45983 10.8496 7.4455C10.4996 7.4325 10.1796 7.5445 9.91463 7.6885C9.39263 7.9705 8.94262 8.4555 8.64862 8.8705C8.59897 8.93736 8.56318 9.01346 8.54335 9.09434C8.52352 9.17523 8.52006 9.25926 8.53316 9.3415C8.54626 9.42374 8.57567 9.50253 8.61965 9.57325C8.66363 9.64396 8.72131 9.70518 8.78928 9.75329C8.85725 9.80141 8.93415 9.83545 9.01547 9.85343C9.09678 9.8714 9.18087 9.87294 9.26279 9.85796C9.34471 9.84299 9.42281 9.81179 9.49251 9.7662C9.5622 9.72061 9.62208 9.66155 9.66862 9.5925" fill="#121315"/>
</svg>
