<svg width="24" height="24" viewBox="0 0 24 24" fill="none" xmlns="http://www.w3.org/2000/svg">
<path d="M16.9 12.965C17.457 12.965 17.9911 13.1799 18.3849 13.5625C18.7788 13.9451 19 14.464 19 15.005V15.685C19 18.3656 16.396 21.125 12 21.125C7.604 21.125 5 18.3656 5 15.685V15.005C5 14.464 5.22125 13.9451 5.61508 13.5625C6.0089 13.1799 6.54305 12.965 7.1 12.965H16.9ZM12 4.125C13.0211 4.125 14.0003 4.51903 14.7224 5.22042C15.4444 5.92181 15.85 6.87309 15.85 7.865C15.85 8.85691 15.4444 9.80819 14.7224 10.5096C14.0003 11.211 13.0211 11.605 12 11.605C10.9789 11.605 9.99965 11.211 9.27764 10.5096C8.55562 9.80819 8.15 8.85691 8.15 7.865C8.15 6.87309 8.55562 5.92181 9.27764 5.22042C9.99965 4.51903 10.9789 4.125 12 4.125Z" fill="#121315"/>
</svg>
