<svg width="112" height="112" viewBox="0 0 112 112" fill="none" xmlns="http://www.w3.org/2000/svg">
<g clip-path="url(#clip0_1836_90185)">
<path d="M0 56C0 25.0721 25.0721 0 56 0C86.9279 0 112 25.0721 112 56C112 86.9279 86.9279 112 56 112C25.0721 112 0 86.9279 0 56Z" fill="#858586"/>
<path d="M56 63C67.6025 63 77 53.6025 77 42C77 30.3975 67.6025 21 56 21C44.3975 21 35 30.3975 35 42C35 53.6025 44.3975 63 56 63ZM56 73.5C41.9825 73.5 14 80.535 14 94.5V105H98V94.5C98 80.535 70.0175 73.5 56 73.5Z" fill="#545556"/>
<rect x="24.5" y="84" width="63" height="31.5" fill="#545556"/>
</g>
<defs>
<clipPath id="clip0_1836_90185">
<path d="M0 56C0 25.0721 25.0721 0 56 0C86.9279 0 112 25.0721 112 56C112 86.9279 86.9279 112 56 112C25.0721 112 0 86.9279 0 56Z" fill="white"/>
</clipPath>
</defs>
</svg>
