<svg width="24" height="24" viewBox="0 0 24 24" fill="none" xmlns="http://www.w3.org/2000/svg">
<path d="M2.52868 5.80869H2.68217L2.67921 5.34963L2.79914 5.30924L2.79371 4.98134L2.91265 4.93714L2.91117 4.59261H3.06467L3.06911 4.37401L3.17522 4.36926L3.1846 4.22764C3.35536 4.25141 3.23296 4.0846 3.40323 4.11027C3.35684 3.84129 3.49306 3.90735 3.55278 3.84462C3.64704 3.74673 3.67814 3.71631 3.7803 3.62555C3.84495 3.56757 3.77685 3.43689 4.05619 3.48156C4.02905 3.31713 4.20475 3.43546 4.1776 3.27151L4.55269 3.22541L4.55664 3.00777L5.0334 3.01062L5.07535 2.89514L5.43465 2.89324L5.45785 2.78441C5.6523 2.76398 5.92573 2.82053 6.10784 2.78774C6.20754 2.77016 6.17052 2.68319 6.25788 2.67321C6.32056 2.66609 6.50317 2.66466 6.55845 2.67702C6.57868 2.68177 6.59349 2.8001 6.78745 2.75067C6.82693 2.74069 6.82545 2.67559 6.8521 2.65896C6.9671 2.5872 9.25861 2.62807 9.59027 2.63805C9.69194 2.6409 9.79805 2.69222 9.89429 2.67844C10.03 2.65896 9.94167 2.52542 10.0458 2.52637L10.3331 2.53303L10.3562 2.64185L10.601 2.6352L10.6242 2.52637H11.2328L11.2747 2.64185C11.4657 2.64185 11.6572 2.63472 11.8482 2.63757C12.2973 2.64423 12.7716 2.68319 13.2252 2.67939C13.3817 2.67797 13.5356 2.56344 13.5179 2.74117C13.6763 2.79154 13.9137 2.81768 14.0706 2.75685C14.1575 2.72311 14.1215 2.64137 14.2567 2.63567C14.4492 2.62712 14.5074 2.7426 14.5341 2.74877C15.0227 2.85665 15.6628 2.74877 16.1697 2.78441L16.2116 2.89989L16.5142 2.89466L16.5374 3.00349C16.679 3.01965 16.8429 2.98448 16.9791 3.0377C17.0719 3.07382 17.0891 3.21448 17.2979 3.15888L17.3024 3.26153L17.5269 3.27056L17.5318 3.37273L17.6789 3.38176L17.6903 3.47966L17.7919 3.49058L17.7969 3.63505L18.0229 3.63885L18.0688 3.85222L18.2949 3.85603V4.11454H18.4479C18.3807 4.35785 18.6181 4.3474 18.5663 4.59166L18.6798 4.61352L18.6818 4.84923L18.7943 4.87299C18.8304 5.02981 18.8003 5.2774 18.8313 5.41521C18.8348 5.43089 19.0016 5.57298 18.9468 5.69749L19.1724 5.70319L19.1956 5.81201L19.6896 5.80679L19.7316 5.92226C19.853 5.92084 20.0025 5.90468 20.117 5.94935C20.1284 5.95363 20.3065 6.06863 20.3144 6.07766C20.3589 6.12471 20.2582 6.22212 20.5321 6.17508L20.5548 6.28485L20.7058 6.28818L20.7108 6.43217C20.8203 6.40793 20.8978 6.59754 20.9442 6.64602C20.9689 6.67168 21.0454 6.65837 21.071 6.69116C21.1174 6.75104 21.076 6.92449 21.0858 7.00528L21.2058 7.04567L21.2003 7.37357L21.3203 7.41397L21.3173 7.87302H21.4708C21.3815 8.07166 21.6001 8.50981 21.3178 8.50031V8.60961H21.4323V8.71986L21.3173 8.73839C21.2986 8.82868 21.3519 8.85577 21.4323 8.86765V8.93988C21.2201 8.96602 21.3563 9.14803 21.3524 9.2578C21.3499 9.33146 21.3178 9.39894 21.3158 9.47355C21.3045 9.91503 21.3262 10.3584 21.3203 10.7999L21.2028 10.8198C21.1663 10.9415 21.306 10.8655 21.3188 10.9116C21.377 11.1216 21.1599 10.9695 21.2028 11.1325L21.3139 11.1534L21.3208 11.3891L21.2008 11.4295V11.7579L21.3183 11.7779V11.8881H21.0883L21.0928 12.1072L21.2058 12.1295V13.1945L21.0928 13.2168L21.0858 13.415L21.1979 13.4387L21.2038 13.5642L21.0854 13.6027C21.0824 13.8113 21.0967 14.0936 21.0488 14.2941C21.0434 14.3169 20.8253 14.3996 21.0903 14.4495C21.0799 14.7318 21.0952 15.0146 21.0893 15.2968C21.0858 15.4674 21.0947 15.8576 21.0464 15.9854C20.9743 16.1774 20.9857 16.2881 20.9324 16.4654C20.9245 16.492 20.7586 16.6236 20.8213 16.7496L20.9373 16.7705V18.1671L20.8174 18.2075L20.8228 19.3832L20.7029 19.4236C20.6999 19.6166 20.733 19.8166 20.6644 20.0015C20.655 20.0267 20.5977 20.0286 20.5918 20.0557C20.5607 20.1973 20.6688 20.2434 20.4546 20.2847L20.4334 20.4696L20.3204 20.4919L20.3189 20.7262C20.1007 20.7461 20.0721 20.7737 20.0509 20.9842L19.7128 20.9923L19.7079 21.0945L19.4655 21.0959L19.4073 21.2294C19.3895 21.2432 19.3683 21.2423 19.3476 21.2465C19.3002 21.256 18.7603 21.2209 18.703 21.2085C18.6675 21.2009 18.6941 21.1078 18.5831 21.1349C18.5678 21.1387 18.5678 21.1947 18.5337 21.2062C18.205 21.3155 17.6765 21.209 17.3211 21.2437L17.3004 21.3568H17.1859L17.1651 21.2437H16.7096L16.6677 21.3592H16.1736L16.1317 21.2437H15.7911L15.7492 21.3592H15.4466L15.4047 21.2437L13.663 21.2247L13.6038 21.3592H13.1507L13.1087 21.2437H12.6532L12.6295 21.352C12.3862 21.4281 12.3813 21.17 12.1369 21.2508L12.1133 21.3592H11.7722L11.7505 21.2746C11.6518 21.162 11.6286 21.333 11.5743 21.3511C11.485 21.381 11.3354 21.344 11.2362 21.3539L11.2155 21.467C11.1074 21.4875 11.1459 21.4319 11.137 21.3601C11.1114 21.3387 10.9613 21.373 10.8942 21.3516C10.8335 21.3321 10.8182 21.1406 10.7521 21.2974C10.7057 21.4072 10.7664 21.4998 10.6035 21.467L10.5828 21.3539H10.0123L9.98905 21.4628L9.74426 21.4694L9.70231 21.3539L8.97877 21.3587L8.95805 21.2456H8.84354V21.3558H8.72904L8.70831 21.2427L8.46352 21.2494L8.44032 21.3582H7.98478L7.96405 21.2451C7.82093 21.2 7.85745 21.3506 7.75726 21.3544C7.62104 21.3601 7.57366 21.2508 7.55392 21.2465C7.31899 21.1914 7.35552 21.3278 7.28988 21.3501C7.20893 21.3772 7.08061 21.3435 6.9903 21.3582L6.9671 21.2494L6.70157 21.2456V21.0973L6.3403 21.1002L6.29835 20.9847L5.95781 20.9899C5.94399 20.8364 5.86453 20.8982 5.83097 20.8678C5.81122 20.8497 5.82899 20.7932 5.81369 20.7766C5.75348 20.71 5.51806 20.7998 5.5457 20.6264L5.44502 20.6155L5.43465 20.3631L5.32163 20.3408L5.32706 19.9022L5.20713 19.8618C5.24069 19.7007 5.16962 19.4203 5.2091 19.2796C5.22095 19.2378 5.30584 19.2853 5.28659 19.2007C5.28363 19.1665 5.21947 19.1965 5.2091 19.158C5.18344 19.0639 5.23082 18.6148 5.16962 18.5573H4.80983L4.76788 18.4423L4.46534 18.4475L4.43918 18.3416C4.27878 18.3221 4.0098 18.2546 4.06162 18.0764L3.79708 18.0712L3.78622 17.9733L3.68406 17.9623L3.6732 17.8221L3.57153 17.8112L3.56018 17.7133C3.35437 17.7295 3.44222 17.6691 3.39879 17.6116C3.3677 17.5703 3.28676 17.5555 3.28478 17.4586C3.08046 17.4919 3.23395 17.1768 3.17522 17.1221C3.16288 17.1107 3.09773 17.1302 3.07651 17.1112C3.04098 17.0789 3.077 16.9525 2.91907 16.9663L2.91611 16.6232C2.74041 16.6056 2.85639 16.4868 2.68266 16.474V16.3675L2.76064 16.3262L2.69451 16.263C2.61406 16.0349 2.84405 16.2069 2.79815 16.0135L2.68069 15.9935L2.68414 14.3726L2.56816 14.2267L2.68316 14.1159C2.61406 14.0651 2.57655 14.0689 2.55286 13.9805C2.53904 13.9282 2.52917 13.6398 2.52819 13.5642C2.52671 13.454 2.53411 13.3432 2.5272 13.233L2.63973 13.2102C2.73054 13.0196 2.54546 12.9735 2.53263 12.9322C2.49117 12.7977 2.60814 12.2721 2.52769 12.0901L2.52671 7.04235C2.53213 7.01764 2.68859 7.05518 2.68118 6.85226C2.67872 6.78573 2.52917 6.74724 2.52917 6.63509V5.80584L2.52868 5.80869ZM11.1005 4.11359H10.986C11.0146 4.2994 10.9623 4.23002 10.8868 4.27517C10.8636 4.28895 10.8784 4.33219 10.8138 4.33837C10.7007 4.3493 10.7279 4.28277 10.6884 4.26424C10.5458 4.19818 10.4258 4.27136 10.2773 4.26424C10.0586 4.25378 9.83606 4.19485 9.60804 4.22384V4.37211L9.13276 4.33742L9.10808 4.22907C8.93929 4.21671 8.7473 4.20626 8.67031 4.37211L8.61158 4.35453C8.52521 4.14211 8.47141 4.31603 8.43144 4.33219C8.37073 4.35643 7.95616 4.37544 7.86534 4.37354C7.73554 4.37116 7.60377 4.30986 7.46508 4.33504V4.48331L7.19956 4.47903L7.17784 4.37211L7.06137 4.48521L6.45283 4.48046C6.43013 4.71284 6.20211 4.5717 6.11031 4.59641C6.06096 4.60972 6.06589 4.69383 6.02197 4.70476C5.94942 4.72282 5.74262 4.6791 5.70906 4.70904L5.64243 4.84685L5.34236 4.84875L5.31916 4.95758L5.07486 4.959L5.04624 5.06497L4.94407 5.0759L4.93469 5.21752L4.82858 5.22227C4.89324 5.4556 4.69582 5.58486 4.67509 5.75784C4.6519 5.95173 4.70915 6.24779 4.66966 6.41031C4.66423 6.43312 4.5448 6.43692 4.59514 6.63224C4.60303 6.66217 4.71408 6.65885 4.67065 6.7672L4.5596 6.7691L4.5522 6.91214L4.43869 6.93447V7.26285L4.55862 7.30324V7.74186L4.44115 7.76182V7.87207H4.55565V7.98232L4.44461 7.98422L4.4377 8.12774L4.32665 8.13012V8.24037H4.55615V8.35062L4.43869 8.37057V9.28822L4.55072 9.31198L4.55664 9.43743L4.43819 9.47593V10.0619L4.55812 10.1023V10.5409L4.43819 10.5813L4.44313 11.1306L4.32566 11.1506V11.2608L4.44313 11.2808L4.44461 11.7745L4.55516 11.7769V11.8872L4.4377 11.9071V12.1984L4.55615 12.2369L4.55023 12.3624L4.43819 12.3861V13.1931L4.55565 13.2316C4.59761 13.377 4.45152 13.2962 4.43967 13.3418C4.38489 13.5547 4.59859 13.3988 4.55565 13.5628L4.4451 13.5846L4.43967 13.7106L4.55121 13.731L4.55812 13.9296L4.43819 13.97V14.777L4.55812 14.8174L4.55121 15.016L4.43967 15.0364L4.4456 15.1619L4.55763 15.1856V15.4033L4.4377 15.4437V15.9536C4.45102 16.0002 4.60057 15.9869 4.64548 16.0116C4.6588 16.0187 4.77972 16.2083 4.79404 16.223C4.85277 16.2839 4.99984 16.2254 4.93766 16.492L5.08917 16.4953L5.09411 16.5975C5.12866 16.6317 5.85663 16.5771 5.99186 16.6013C6.0802 16.6175 6.06688 16.6864 6.11574 16.712C6.30822 16.8142 7.02287 16.7154 7.29382 16.7472C7.36934 16.7562 7.34663 16.8161 7.39549 16.8351C7.55047 16.8955 7.77256 16.8418 7.94086 16.8627L7.96405 16.7539L8.20885 16.7472L8.2508 16.8627L9.20383 16.8575L9.24578 16.9729L9.49058 16.9663L9.51377 16.8575H10.8493L10.8912 16.9729H11.3468L11.37 16.8641L11.5763 16.8575L11.6182 16.9729H11.9588L11.9835 16.8651L12.1138 16.8594L12.1537 16.9734L12.9918 16.9682L13.0337 17.0837L15.0059 17.1017L15.0646 16.9682H15.4032L15.4452 17.0837H15.7477L15.7709 16.9748L16.1277 16.9729C16.1746 16.7643 16.2501 16.8617 16.3528 16.8213C16.4021 16.8019 16.447 16.6945 16.6252 16.7453L16.7101 16.5994L16.9169 16.6023L16.9139 16.2539L17.0339 16.2135L17.027 16.0149L16.9139 15.9926V15.6647L17.0339 15.6243V15.1486L16.9139 15.1082V14.7062L17.0339 14.6658L17.062 13.5252C16.9717 13.1422 17.1054 12.7658 17.0289 12.3847C17.0373 12.3462 17.1138 12.3771 17.1365 12.3576C17.2471 12.2654 17.1528 11.6168 17.1538 11.4614C17.1548 11.306 17.2175 11.1164 17.1819 10.9477L17.3004 10.9092L17.295 10.7832L17.1849 10.7799V10.6697L17.2989 10.6692L17.2969 9.80525C17.3043 9.77959 17.5926 9.77104 17.2969 9.69167L17.3024 8.99501L17.1824 8.95462L17.1893 8.60866L17.2954 8.60438L17.3038 8.38768L17.4154 8.36725L17.4095 8.24179L17.2974 8.21803V7.77988L17.4159 7.74139L17.4104 7.61546L17.3004 7.61213V7.50188H17.4149V7.39163C17.2249 7.43963 17.2969 7.1697 17.2599 7.04948C17.2495 7.01621 17.1933 7.03807 17.1824 6.97011C17.1484 6.75769 17.2372 6.79476 17.2683 6.71492C17.2994 6.63509 17.3019 6.53862 17.3028 6.45308L17.1898 6.43122L17.1859 6.17508H17.0319L17.0349 5.82722C16.8937 5.82484 16.8552 5.68228 16.9737 5.65852C17.0349 5.64616 17.0423 5.6818 17.0324 5.58581L16.9149 5.56205L16.9139 5.44087L16.8078 5.43612L16.7861 5.10489L16.5349 5.07068V4.84923L16.3103 4.844L16.2437 4.70619L15.9254 4.69763L15.9022 4.58881L14.7962 4.59404L14.773 4.48521L14.5667 4.47856L14.5247 4.59404H14.1842L14.1422 4.47856C13.8708 4.44862 13.4789 4.52751 13.2242 4.48188C13.1245 4.4643 13.1625 4.37781 13.0737 4.36736C13.0362 4.36308 12.8753 4.36451 12.8639 4.37449L12.8047 4.48093C12.7203 4.26994 12.4262 4.37971 12.2667 4.37259C12.0165 4.36118 11.7609 4.31651 11.5047 4.33647L11.4628 4.22099L11.1035 4.21957L11.101 4.11312L11.1005 4.11359ZM19.3244 7.50948L18.9454 7.54085C18.8496 7.63066 19.1665 7.64112 19.1749 7.65157V7.76135L19.0643 7.76372L19.0574 7.96236L19.1704 7.9847L19.1773 8.21993C18.9996 8.23134 19.1166 8.37248 18.9508 8.35442L18.9409 8.60676L18.8304 8.60913V8.71938L18.9414 8.72128L18.9493 8.93656L19.1709 8.98075L19.1778 9.43553L19.0579 9.47593L19.0628 10.2833L18.9454 10.3033V10.4135L19.0628 10.4335V10.7619L18.9454 10.7818V10.8921L19.0564 10.894L19.0633 11.0375L19.1749 11.0579L19.0678 11.1577C19.0934 11.2965 18.9291 11.2509 18.9088 11.3198C18.8817 11.4115 18.9542 11.5407 19.0628 11.5393V11.8648C18.8466 11.9014 18.8313 12.1485 19.0599 12.1462V12.2555L18.9429 12.2754L18.9414 12.7321L18.8309 12.7345V12.8447L18.9483 12.8647L18.9463 13.2135H18.7924L18.7884 13.4687L18.6754 13.491C18.6828 13.5984 18.6665 13.7077 18.6867 13.8142C18.707 13.9206 18.8452 13.9102 18.7894 14.058L18.6828 14.0637L18.6769 14.1896L18.7884 14.21L18.7963 14.4272L18.9074 14.4296C18.9577 14.5565 18.8111 14.5446 18.7973 14.5973C18.7859 14.6429 18.8674 14.8264 18.8309 14.9086H18.6774C18.6334 15.035 18.7751 15.0288 18.7924 15.083C18.8131 15.1481 18.7953 15.284 18.8289 15.3653L18.6833 15.4294L18.6739 15.6438L18.5629 15.6457V15.7559L18.7904 15.7578L18.8309 16.1247H18.6774L18.7139 16.4706L18.5604 16.5524L18.5673 16.7486C18.665 16.7534 18.6961 16.7268 18.6783 16.8427L18.5673 16.8636L18.5589 17.1706C18.3857 17.2543 18.3013 17.4016 18.288 17.5936L18.1858 17.6012L18.1833 17.7998L18.0698 17.8217L18.0604 17.9633L17.9588 17.9742L17.9474 18.0721C17.7347 18.0479 17.8265 18.1429 17.7895 18.1795C17.7717 18.1971 17.713 18.18 17.6942 18.1966C17.6306 18.2527 17.6982 18.3862 17.4188 18.3411C17.4381 18.5012 17.292 18.3881 17.2792 18.5592C17.177 18.5535 17.0674 18.5525 16.9702 18.5872C16.9164 18.6067 16.9169 18.6604 16.8912 18.6661C16.7506 18.6956 16.4846 18.6585 16.334 18.7041C16.2866 18.7184 16.3064 18.7982 16.2116 18.8153C16.0917 18.8372 15.9194 18.7997 15.7911 18.812L15.7492 18.9275L15.5044 18.9208L15.5019 18.8144C15.3978 18.7807 15.4318 18.8814 15.3889 18.9071C15.3139 18.9517 15.1392 18.9189 15.0449 18.9213L15.0237 18.8139L14.8934 18.8196L14.8687 18.9275H14.0307L13.9142 18.8144L13.8742 18.9275H13.4187L13.3767 18.812H13.0362L12.9942 18.9275H12.3857C12.3181 18.6647 12.3052 18.9066 12.1937 18.9256L11.6202 18.9275L11.5783 18.812H11.2757L11.2338 18.9275H10.1277L10.1045 18.8182C9.9856 18.8063 9.85037 18.8576 9.83803 18.7041H9.78177C9.71514 18.8766 9.55474 18.8172 9.40125 18.7811L9.31784 18.9275H8.48178L8.45858 18.8187L8.09928 18.8168L8.05733 18.7013L7.85103 18.7079L7.82784 18.8168H7.60179L7.5786 18.7075L7.34811 18.6875C7.29136 18.6495 7.3565 18.5207 7.23707 18.5563C7.28099 18.7065 7.09098 18.6913 7.08061 18.726C7.06679 18.774 7.1048 18.898 7.07913 18.9227L6.96611 18.9451C6.99819 19.0962 6.93107 19.3561 6.96809 19.4882C6.97697 19.5196 7.11072 19.5543 7.089 19.6555C7.30666 19.6636 7.48976 19.5914 7.70939 19.6603L7.75528 19.7748H8.21033C8.2508 19.7667 8.21823 19.6931 8.23846 19.6712C8.31249 19.5904 8.83663 19.7021 8.97581 19.6593L8.99654 19.7724H9.11104L9.13177 19.6593H9.70231L9.7255 19.7681L9.99103 19.7724V19.551C10.0828 19.5614 10.1919 19.5372 10.2793 19.5481C10.3202 19.5534 10.5191 19.7121 10.5092 19.7753H10.8498L10.873 19.6665C11.0546 19.6741 11.4717 19.5182 11.4874 19.7662L11.6172 19.7734L11.6572 19.6593L12.6103 19.6646L12.6522 19.5491C12.7554 19.5667 12.8931 19.5305 12.9873 19.5524C13.0155 19.5591 13.0095 19.6151 13.0411 19.6237C13.1314 19.6479 13.2938 19.6398 13.396 19.6626V19.5149C13.5677 19.6166 14.0277 19.4716 14.1254 19.5334C14.1585 19.5543 14.1555 19.6204 14.1624 19.6256C14.2404 19.6869 14.2394 19.5396 14.2996 19.5201C14.3934 19.4897 14.7404 19.541 14.7715 19.5111L14.7942 19.4022C15.0296 19.3552 15.0133 19.5087 15.0972 19.5182C15.1905 19.5291 15.305 19.5035 15.4032 19.5177L15.4452 19.4022H16.3602L16.4021 19.5177H16.7812L16.8231 19.4022L18.1206 19.4075L18.1626 19.292L18.5589 19.2887L18.5698 19.1908L18.6719 19.1803L18.6769 19.0358H18.9449C18.9987 18.832 18.7889 18.4713 19.0623 18.4261V17.2509L18.9449 17.231V17.1207L19.0623 17.1008L19.0574 16.4041L19.1773 16.3637L19.1724 15.409L19.2898 15.389C19.3308 15.2712 19.2158 15.2992 19.2104 15.2241L19.2124 15.1533L19.2844 15.1272L19.2894 15.0578C19.2094 15.0455 19.1561 15.0184 19.1744 14.9286L19.2894 14.91C19.3323 14.7218 19.1734 14.863 19.1744 14.7451C19.1758 14.575 19.2736 14.5546 19.2869 14.5146C19.317 14.4229 19.3111 13.8455 19.2884 13.7567C19.2815 13.7291 19.2208 13.7343 19.2138 13.7058C19.1926 13.6198 19.2168 13.4844 19.1768 13.3855L19.3303 13.3038L19.3318 12.9597L19.4428 12.9574C19.471 12.8609 19.3412 12.8728 19.3274 12.821C19.2977 12.7117 19.3515 12.5126 19.3254 12.388L19.4453 12.3477C19.4912 12.1519 19.2908 11.7969 19.5588 11.7603L19.5524 11.6344L19.4399 11.6106V10.9144L19.5598 10.874V10.5827L19.4399 10.5423V9.95589L19.5578 9.9174L19.4404 9.80525V9.21883L19.5578 9.19888V9.08863L19.4404 9.06867L19.4458 7.63494L19.3357 7.60785L19.3249 7.50996L19.3244 7.50948Z" fill="#121315"/>
<path d="M10.593 6.52234L10.5976 6.62518C10.7973 6.61461 10.8236 6.64104 10.9509 6.75588C11.0324 6.82941 11.0796 6.7333 11.0574 6.99903C11.2096 6.97981 11.1022 7.12301 11.2653 7.13503V8.09994L11.1548 8.14079V8.36087L11.2626 8.38105C11.2657 8.5281 11.099 8.37673 11.162 8.60066L11.2648 8.62468V8.80681L11.162 8.83083C11.1027 9.06341 11.3056 8.8909 11.2635 9.10714L11.1548 9.14606L11.1611 9.34645L11.2648 9.36903L11.2621 9.83323L11.5058 9.8289L11.5271 9.71886H13.6663L13.6876 9.8289L13.9281 9.839C13.9154 9.95673 14.0568 9.98123 14.1392 10.0797C14.2217 10.1783 14.1347 10.245 14.3879 10.2052L14.3856 10.5579L14.4935 10.5781V10.6895H14.3879L14.4214 10.8904L14.2878 10.9553L14.2815 11.1725C14.0889 11.1672 14.0309 11.2292 14.0355 11.4329L13.6346 11.432L13.596 11.5487L13.3365 11.5502L13.3342 11.6578C13.2277 11.6953 13.2377 11.6016 13.2024 11.5862C13.066 11.5266 12.917 11.5531 12.7743 11.5425L12.772 11.4349H12.6669L12.6479 11.5492H12.1944C12.1183 11.2614 12.1106 11.542 12.0862 11.5492L11.2653 11.5526L11.2553 11.6516L11.1543 11.679V11.899L11.2585 11.9216L11.2975 12.2921H11.1566V12.5535L11.297 12.6088C11.1385 12.6823 11.1339 12.6886 11.1606 12.8865L11.263 12.9072L11.258 13.0346C11.1688 13.0403 11.1403 13.0144 11.1566 13.1307L11.2644 13.1696L11.2975 14.0062H11.1566L11.152 14.1518C11.0093 14.1696 11.0066 14.3209 10.8073 14.271L10.8032 14.3748L10.5966 14.3829L10.5926 14.4862L10.1223 14.493L10.1011 14.3829L9.89538 14.3733C9.91486 14.2325 9.83287 14.2844 9.78847 14.2474C9.73502 14.2027 9.78666 14.0888 9.65212 14.1148L9.64895 13.654L9.54113 13.6338V13.5223H9.64623V13.4108L9.53841 13.3906V12.6862L9.64849 12.6453V12.3138L9.53841 12.2729L9.54068 11.4363H9.43558L9.41655 11.5507L9.19186 11.5439L9.17056 11.4339H8.89287L8.85436 11.5507H8.2958L8.27677 11.4363H8.17167L8.15265 11.5507L7.92795 11.5439L7.90666 11.4339L7.13744 11.4392L7.11343 11.332L6.87606 11.2835L6.87243 11.0634L6.66314 11.0615C6.64321 10.9207 6.67446 10.801 6.51863 10.7818C6.52995 10.6992 6.5064 10.5992 6.51999 10.5218C6.5363 10.4296 6.61738 10.445 6.6269 10.4041C6.64366 10.333 6.60289 10.1316 6.63098 10.0994C6.67265 10.0519 6.82804 10.111 6.76643 9.83371L7.09848 9.83659L7.13699 9.71982C7.34085 9.71262 7.56418 9.75586 7.75807 9.68234C7.78435 9.67225 7.77302 9.61603 7.83599 9.60786C7.92297 9.59633 8.02671 9.62179 8.11731 9.60786L8.15582 9.72463C8.3266 9.69099 8.57213 9.81161 8.64688 9.60882L8.71438 9.60978C8.74383 9.77508 9.46548 9.7376 9.50851 9.70589L9.54385 9.36999L9.43512 9.33107C9.40568 9.17057 9.50036 9.21238 9.5067 9.18162L9.50398 9.1278C9.27612 9.01776 9.53886 8.97307 9.54158 8.95818C9.5674 8.83035 9.30103 8.79624 9.50715 8.69773V8.62324C9.4691 8.5997 9.44056 8.61171 9.43331 8.55068C9.38303 8.11964 9.47861 7.57808 9.43331 7.13407L9.53705 7.11148L9.54656 6.8938C9.68292 6.91686 9.62765 6.81883 9.65529 6.78808C9.67205 6.76934 9.7246 6.78616 9.74136 6.76982C9.76582 6.74579 9.75314 6.67131 9.7844 6.64632C9.84148 6.60115 10.0068 6.64152 10.0838 6.63191L10.1223 6.51514L10.5926 6.52186L10.593 6.52234Z" fill="#121315"/>
</svg>
