<svg width="24" height="24" viewBox="0 0 24 24" fill="none" xmlns="http://www.w3.org/2000/svg">
<path fill-rule="evenodd" clip-rule="evenodd" d="M5.57453 10.7211C5.57453 9.35589 6.11681 8.04664 7.08208 7.08132C8.04735 6.116 9.35653 5.57369 10.7216 5.57369C12.0867 5.57369 13.3959 6.116 14.3612 7.08132C15.3264 8.04664 15.8687 9.35589 15.8687 10.7211C15.8687 12.0862 15.3264 13.3955 14.3612 14.3608C13.3959 15.3261 12.0867 15.8684 10.7216 15.8684C9.35653 15.8684 8.04735 15.3261 7.08208 14.3608C6.11681 13.3955 5.57453 12.0862 5.57453 10.7211ZM10.7216 3C9.50653 2.99985 8.30856 3.28651 7.22513 3.83667C6.14171 4.38683 5.20342 5.18496 4.4866 6.16615C3.76977 7.14733 3.29464 8.28386 3.09985 9.48331C2.90506 10.6828 2.99611 11.9112 3.36559 13.0689C3.73508 14.2265 4.37256 15.2805 5.2262 16.1453C6.07984 17.0101 7.12552 17.6612 8.27821 18.0456C9.4309 18.43 10.658 18.5369 11.8598 18.3576C13.0616 18.1783 14.2041 17.7179 15.1945 17.0137L18.8193 20.6388C19.062 20.8732 19.387 21.0029 19.7244 21C20.0618 20.997 20.3845 20.8617 20.6231 20.6231C20.8617 20.3845 20.997 20.0617 21 19.7243C21.0029 19.3869 20.8732 19.0619 20.6388 18.8192L17.0152 15.1954C17.8366 14.0403 18.3241 12.6814 18.4244 11.2676C18.5247 9.85374 18.2339 8.43958 17.584 7.18005C16.934 5.92053 15.9498 4.86423 14.7394 4.12692C13.5289 3.38961 12.1389 2.99972 10.7216 3Z" fill="#121315"/>
</svg>
