<svg width="24" height="24" viewBox="0 0 24 24" fill="none" xmlns="http://www.w3.org/2000/svg">
<g clip-path="url(#clip0_2987_173400)">
<path d="M22.3143 8.02208C22.3131 6.95153 21.7415 5.96276 20.8143 5.42748L13.488 1.19759C12.561 0.662416 11.4191 0.661645 10.4915 1.19557L3.18765 5.39931C2.25632 5.93534 1.68282 6.92855 1.68415 8.00312L1.69458 16.4323C1.6959 17.5028 2.26752 18.4914 3.19458 19.0267L10.5206 23.2563C11.4478 23.7917 12.5901 23.7923 13.5179 23.2579L20.8214 19.0514C21.7522 18.5153 22.3253 17.5225 22.3241 16.4483L22.3143 8.02208Z" fill="url(#paint0_linear_2987_173400)"/>
<g filter="url(#filter0_i_2987_173400)">
<path d="M13.3601 3.18526L19.1499 6.52803C19.9997 7.01866 20.5237 7.92498 20.5249 8.90622L20.5327 15.5626C20.5338 16.5472 20.0084 17.457 19.1553 17.9484L13.3858 21.2716C12.5354 21.7613 11.4886 21.7605 10.6387 21.2699L4.84886 17.9271C3.99921 17.4365 3.47507 16.5301 3.47386 15.549L3.46571 8.89119C3.46449 7.90617 3.99041 6.99506 4.84413 6.5037L10.613 3.18356C11.4634 2.69414 12.5104 2.69472 13.3601 3.18526Z" stroke="url(#paint1_linear_2987_173400)" stroke-width="0.5"/>
</g>
<path d="M15.6883 14.6124L15.8245 14.5125L15.977 14.2388L16 13.9452L15.9131 13.6623L15.8524 13.5992V13.4609L15.6375 13.2195L15.4882 13.1104L15.252 12.9735L14.9256 12.9305L14.6549 12.9228L14.4909 12.9751L14.3908 12.9904L14.2448 13.0258L14.1464 12.8767L14.1218 12.8213L14.1038 12.56L14.048 12.3985L13.9955 12.1525L13.8971 12.0741V12.0265L13.8528 11.9296L13.8921 11.7205L13.7691 11.576V11.533L13.738 11.3577L13.6691 11.1609L13.6281 11.0733L13.6231 10.9057L13.528 10.7612V10.7566L13.5575 10.5552L13.4804 10.3922L13.4771 10.2831L13.4378 10.1401L13.4296 10.0355L13.3984 9.86027L13.3656 9.76033L13.4919 9.49744L13.5132 9.34523L13.6182 9.12846L13.528 8.76102L13.3705 8.5919L13.2967 8.49351L13.0326 8.21985H12.8374L12.716 8.12299L12.4667 8.13068L12.429 8.11992L12.1878 8L11.8138 8.08917L11.5218 8.06611L11.1724 8.10301L11.0527 8.23061L10.7607 8.29518L10.6967 8.63803L10.5212 8.85326L10.5048 9.233L10.5409 9.29142L10.4408 9.45439L10.39 9.64195L10.3752 9.70653L10.2981 9.79262L10.2407 9.93714L10.1571 10.0448L10.08 10.2139L9.95858 10.6274L9.85032 10.8165L9.70268 10.9949L9.683 11.2378L9.67316 11.2916L9.50912 11.5284L9.4878 11.6806L9.28768 11.9834L9.30572 12.068L9.17121 12.1725L9.2237 12.417L9.0449 12.6353L9.07115 12.7352L9.03178 12.7644L8.93172 13.0811L8.93992 13.2241L8.78245 13.4517L8.81033 13.5808L8.75128 13.6454L8.72831 13.8422L8.66926 13.9605L8.63482 14.1512L8.62497 14.3065L8.58889 14.4448L8.5856 14.5294L8.47406 14.7323L8.38876 14.9921L8.3986 15.1551L8.28706 15.2458L8.11318 15.4595L8.06889 15.6717L8.03609 15.7854L8 16.1268L8.17224 16.4142L8.39204 16.6064L8.53968 16.6602L8.58232 16.6971L8.84806 16.8632L9.0285 16.877L9.17941 16.9324L9.31392 16.9277L9.50748 17L9.88968 16.9001L10.0357 16.7602L10.4113 16.6541L10.5491 16.1975L10.513 16.0237L10.536 15.9146L10.554 15.7731L10.5868 15.664L10.6032 15.5963L10.7377 15.458V15.4211L10.91 15.3227L11.1085 15.3565L11.2167 15.3012L11.3332 15.3396L11.5661 15.2689L11.7154 15.255L11.7876 15.2335L12.0254 15.2904L12.1419 15.2043L12.2354 15.2366L12.4946 15.1336L12.5175 15.129L12.6816 15.1597L12.7127 15.152L12.7931 15.2704L12.8833 15.4718L12.9539 15.5195L12.9588 15.6225L13.0949 15.7747L13.1556 15.9561L13.2163 16.0007L13.2114 16.1483L13.3082 16.2989L13.3344 16.5173L13.6855 16.814H13.9168L14.1136 16.9954L14.4187 16.9708L14.6024 16.9892L14.7878 16.9447L14.8386 16.9416L15.0207 16.9785L15.3061 16.9201L15.5751 16.7924L15.79 16.5234L15.8097 16.3758L15.9787 16.1375L15.836 15.8792V15.6409L15.5883 15.4165L15.4406 15.3058L15.3635 15.2412L15.2553 15.1244L15.2274 15.1044L15.2143 15.0275L15.1208 14.8891L15.5637 14.823L15.6998 14.617L15.6883 14.6124ZM11.8745 13.2841L11.8794 13.2902L11.7466 13.3271L11.5382 13.321L11.384 13.404H11.3496L11.2709 13.4009L11.3053 13.2564L11.3217 13.1457L11.3922 13.0227L11.4169 12.8813L11.5005 12.7414L11.5087 12.6584L11.5809 12.5876L11.6104 12.5261L11.7548 12.8782L11.7827 12.9151L11.7695 13.0104L11.8762 13.2872L11.8745 13.2841Z" fill="#C6F065"/>
</g>
<defs>
<filter id="filter0_i_2987_173400" x="3.21875" y="2.56689" width="17.5625" height="19.3218" filterUnits="userSpaceOnUse" color-interpolation-filters="sRGB">
<feFlood flood-opacity="0" result="BackgroundImageFix"/>
<feBlend mode="normal" in="SourceGraphic" in2="BackgroundImageFix" result="shape"/>
<feColorMatrix in="SourceAlpha" type="matrix" values="0 0 0 0 0 0 0 0 0 0 0 0 0 0 0 0 0 0 127 0" result="hardAlpha"/>
<feOffset dx="0.1" dy="0.1"/>
<feComposite in2="hardAlpha" operator="arithmetic" k2="-1" k3="1"/>
<feColorMatrix type="matrix" values="0 0 0 0 0.132394 0 0 0 0 0.2149 0 0 0 0 0.0245015 0 0 0 0.45 0"/>
<feBlend mode="normal" in2="shape" result="effect1_innerShadow_2987_173400"/>
</filter>
<linearGradient id="paint0_linear_2987_173400" x1="23.5021" y1="23.5" x2="6.00214" y2="3.5" gradientUnits="userSpaceOnUse">
<stop stop-color="#4F800F"/>
<stop offset="0.650906" stop-color="#121315"/>
</linearGradient>
<linearGradient id="paint1_linear_2987_173400" x1="22.8916" y1="24.4403" x2="3.49878" y2="1" gradientUnits="userSpaceOnUse">
<stop offset="0.29793" stop-color="#23340D"/>
<stop offset="1" stop-color="#C6F065"/>
</linearGradient>
<clipPath id="clip0_2987_173400">
<rect width="24" height="24" fill="white"/>
</clipPath>
</defs>
</svg>
