<svg width="148" height="148" viewBox="0 0 148 148" fill="none" xmlns="http://www.w3.org/2000/svg">
<g clip-path="url(#clip0_2987_173403)">
<path d="M0 74C0 33.1309 33.1309 0 74 0C114.869 0 148 33.1309 148 74C148 114.869 114.869 148 74 148C33.1309 148 0 114.869 0 74Z" fill="#5CA521"/>
<path d="M60.8218 37.2488L61.0784 36.9516L61.1467 36.3318L61.4118 35.8514L61.6727 35.3858L62.016 34.9964L62.0212 34.4856L62.0688 33.9812L61.8619 33.5152L61.5258 33.1352L61.2049 32.7245L60.7779 32.3746L60.2362 32.1918L59.7342 32.5398L59.2184 32.6178L58.777 32.9201L58.3931 33.3517L57.9686 33.7487L57.4502 34.0438L57.157 34.6757L57.5785 34.2234L57.9079 33.7945L58.0077 33.197L58.282 32.729L58.7319 32.3973L59.014 31.9349L59.3603 31.5239L59.7787 31.1699L60.1644 30.7868L60.0351 30.2162L59.9797 29.7512L59.9897 29.2675L59.7888 28.8353L59.46 28.4959L59.045 28.2137L58.6526 27.7878L58.0982 27.6492L57.598 27.969L57.1923 28.2788L56.7692 28.5289L56.4107 28.949L55.9856 29.3042L55.3843 29.4813L55.1997 30.066L54.8897 30.5264L54.3314 30.7517L54.0577 31.2615L53.6527 31.5363L54.1098 31.3221L54.169 30.6899L54.5819 30.3438L55.0512 30.0436L55.3921 29.6406L55.6372 29.1638L55.8485 28.6512L56.2366 28.2816L56.7114 27.9735L56.8584 27.4094L57.2883 27.0813L57.1469 26.5199L57.4332 26.0427L57.1651 25.5807L57.1364 25.0341L56.6099 24.8207L56.2726 24.357L55.74 24.1866L55.1891 24.222L54.612 24.4577L54.4239 23.9045L54.2346 23.4215L53.7899 23.1655L53.4369 22.7675L52.9376 22.5912L52.4309 22.7584L51.9115 22.7393L51.4974 23.0017L51.3244 22.4948L51.4321 21.9029L51.1755 21.3899L50.6745 21.0882L50.3245 20.6687L49.9515 20.1974L49.3272 20.3227L48.8183 20.0922L48.2958 20.2483L47.697 20.2084L47.2635 20.5931L46.9965 21.1017L46.6513 21.5194L46.0694 21.728L45.8315 22.2454L45.4627 22.6464L45.0116 22.9713L44.6011 23.3309L44.2245 23.7264L43.9629 24.227L43.751 24.7747L43.1782 24.9956L43.0759 25.6564L43.16 24.9709L43.6082 24.5906L43.9775 24.1546L44.2657 23.6492L44.5642 23.1629L44.75 22.7386L45.0696 22.3324L45.056 21.8319L44.8194 21.3922L44.6197 20.9669L44.3084 20.6103L43.8941 20.37L43.47 20.0754L42.9543 19.9998L42.5329 20.3753L41.9221 20.2677L41.7181 20.821L41.3918 21.2284L40.9358 21.5262L40.7809 22.0847L40.2686 22.3367L39.8454 22.6636L39.6905 23.2221L39.3484 23.6183L39.0469 24.0493L38.7115 24.4444L38.3773 24.8462L38.06 25.266L37.7258 25.6678L37.1312 25.8437L36.8612 26.297L36.5125 26.6945L36.3981 27.2876L35.7956 27.4579L35.439 27.8498L35.2998 28.4194L34.942 28.8045L34.4479 29.0812L34.3741 29.709L34.0411 30.1176L33.627 30.4569L33.3019 30.8711L32.7254 31.0717L32.4657 31.5441L32.3053 32.1105L31.918 32.2145L32.0588 31.924L32.6001 31.6807L32.5854 31.0198L33.2213 30.8435L33.381 30.3122L33.6116 29.831L34.127 29.5575L34.4218 29.1278L34.4465 28.4948L34.7243 28.0471L35.2566 27.7915L35.5896 27.3829L35.6694 26.789L36.0508 26.4206L36.3511 25.9829L36.5818 25.5017L37.0892 25.2226L37.2635 24.6957L37.8091 24.4377L37.8798 23.8314L38.208 23.3957L38.1514 22.8471L38.1008 22.3323L37.8684 21.8778L37.6057 21.4079L37.1496 21.0492L36.5825 20.878L35.971 20.8823L35.4472 21.1853L35.1244 21.6898L34.6146 21.9554L34.4136 22.4871L34.0019 22.8399L33.6882 23.28L33.48 23.848L33.5501 23.1999L33.2359 22.7112L33.2921 22.1005L32.9749 21.6332L32.5115 21.3108L32.156 20.8993L31.6974 20.6039L31.186 20.4367L30.6704 20.2843L30.1316 20.3105L29.5923 20.295L29.0649 20.424L28.6308 20.7668L28.2832 21.171L27.9309 21.5482L27.3925 21.8468L27.0007 22.2729L26.7858 22.842L26.537 23.3753L26.1512 23.9121L25.566 23.5625L25.061 23.7014L24.8255 24.2323L24.3042 24.3952L24.1893 24.9465L23.946 25.395L23.4246 25.6347L23.1589 26.0732L22.964 26.5619L22.6498 26.9602L22.1993 27.2501L22.045 27.7735L21.6691 28.1339L21.3549 28.5322L21.1309 29.0121L20.835 29.2814L20.6365 28.8629L20.0548 28.6873L19.6296 28.386L19.1035 28.368L18.594 28.1726L18.1254 28.4378L17.4872 28.4468L17.3704 29.1032L16.9999 29.3789L16.7972 29.7852L16.4667 30.0537L16.6162 29.58L16.4844 29.0727L16.5829 28.5453L16.3978 28.0475L15.935 27.7669L15.5935 27.3948L15.2144 26.9665L14.6458 27.1727L14.1622 27.0843L13.7463 27.375L13.2371 27.4519L12.866 27.8394L12.4583 27.521L12.0749 27.2611L11.731 26.7986L11.2055 26.8993L10.7085 26.8902L10.2079 27.0144L9.92213 27.4565L9.57826 27.8042L9.16112 28.0882L9.03171 28.5582L8.83012 29.125L8.61787 28.4365L8.12539 28.1053L7.56661 28.1351L7.08253 27.9281L6.59939 28.1121L6.11142 28.269L5.62703 28.523L5.42244 29.0344L5.18279 29.4264L4.9298 29.8207L4.81011 30.2681L4.29421 30.4998L3.76015 30.7069L3.36049 31.1274L3.1474 31.6683L2.96466 32.1478L2.72133 32.5963L2.61129 33.0979L2.38371 33.5575L2.35426 34.0866L2.13456 34.5519L2.07602 35.0722L1.62911 35.4592L1.52816 35.9731L1.36662 36.4559L1.5365 37.0612L1.16109 37.4634L1.20556 38.0212L1.03488 38.5685L1.24603 39.0965L1.67305 39.4464L2.07098 39.7875L2.5811 40.0248L2.70804 40.505L2.75376 40.9927L3.01347 41.4074L3.54128 41.4739L3.78639 41.9609L4.08856 42.3051L4.30338 42.7767L3.88613 43.2143L3.82513 43.7979L3.36551 44.1523L3.00585 44.5656L2.94485 45.1492L2.67726 45.616L2.45572 46.1095L2.18814 46.5763L1.92844 47.0487L1.69115 47.531L1.43144 48.0034L0.878532 48.2976L0.695159 48.8122L0.427576 49.279L0.42049 49.8949L-0.137876 50.197L-0.413332 50.6583L-0.444044 51.2574L-0.726167 51.7198L-1.15549 52.0897L-1.10987 52.7311L-1.35383 53.2147L-1.69108 53.638L-1.93624 54.1148L-2.46311 54.4392L-2.62407 54.9638L-2.66265 55.5574L-3.24464 55.8428L-3.18327 56.4954L-3.58299 56.9927L-3.1743 57.5484L-3.45411 58.178L-3.06232 58.6389L-2.6614 59.0354L-2.41393 59.6128L-2.01043 59.7923L-1.96103 60.2235L-2.18556 60.6617L-2.67663 60.9169L-2.95869 61.3024L-2.91302 61.867L-3.08606 62.3239L-3.02821 62.8025L-2.76068 63.2996L-3.22701 63.732L-3.20497 64.2798L-3.54106 64.7867L-3.18565 65.2751L-3.11389 65.7931L-2.739 66.1593L-2.42958 66.5441L-2.0401 66.8378L-1.65976 67.196L-1.23568 67.4137L-1.38871 67.867L-1.42604 68.3905L-1.2288 68.8792L-0.849667 69.2306L-0.658524 69.7623L-0.142943 69.9916L0.395736 70.119L0.927326 69.9753L1.49997 70.0617L1.88079 69.7284L2.16963 70.0749L2.58032 70.3719L2.99584 70.6958L3.52197 70.5601L4.04973 70.7034L4.46813 70.3494L4.43868 70.8785L4.54321 71.3487L4.31552 71.9621L4.8553 72.2499L5.03127 72.8122L5.61972 72.833L6.02547 73.2565L6.54384 72.9615L7.05165 73.0315L7.58261 72.9228L7.91985 72.4995L8.19232 71.9829L8.68706 71.6712L9.09943 71.2833L9.45305 70.8361L9.78305 70.3722L10.1269 70.1013L10.5764 70.3075L10.8179 70.7743L11.1254 71.2642L11.661 71.4131L12.2022 71.4004L12.7547 71.7209L13.2561 71.4079L13.6848 71.073L14.0257 70.67L14.4017 70.3096L14.8261 69.9894L15.0362 69.47L15.5769 69.2618L15.919 68.8656L16.252 68.457L16.6516 68.1133L16.8277 67.558L17.1843 67.1662L17.5865 66.6823L17.968 67.0473L18.0641 67.4702L18.4978 67.742L18.9905 67.8427L19.4747 67.8961L20.0375 68.082L20.5341 67.8188L20.8271 67.3405L21.197 66.9463L21.5658 66.5452L22.0248 66.2259L22.442 65.8651L22.6133 65.2828L22.9324 64.8348L23.5143 64.6262L23.619 63.9789L24.0374 63.6249L24.4794 63.2877L24.9045 62.9325L25.123 62.3836L25.5348 61.954L25.9514 62.5152L26.1783 62.9776L26.4628 63.4926L26.9954 63.663L27.5416 63.5237L28.1008 63.7662L28.5367 63.395L28.9285 63.0458L29.2354 62.6069L29.758 62.374L29.9566 61.8287L30.355 61.4783L30.7431 61.1087L31.05 60.6698L31.4315 60.3015L31.7869 59.9028L32.1671 59.5277L32.6152 59.2243L32.9367 58.7898L33.5362 58.6409L33.7662 58.118L34.1543 57.7484L34.5685 57.4091L35.0244 57.1113L35.3164 56.4725L35.2553 57.133L35.5083 57.6256L35.7219 58.0904L35.8457 58.669L36.4002 58.8075L36.8182 59.0682L37.298 59.2131L37.8053 59.2413L38.3821 59.3899L38.8762 59.1132L39.0978 58.5428L39.5786 58.2685L40.0866 58.0312L40.4329 57.6202L40.6539 57.0849L41.0668 56.7389L41.3556 56.2753L41.8794 56.0491L42.3681 55.7804L42.7404 55.3997L43.0135 54.9249L43.3089 54.4601L43.6147 54.0145L44.2038 53.8465L44.5435 53.4367L44.6585 52.8086L45.1271 52.5434L45.5776 52.2535L45.764 51.7174L46.1649 51.3805L46.6844 51.1691L46.8278 50.5847L47.3067 50.3387L47.7415 50.0376L48.043 49.6067L48.2778 49.1108L48.7107 48.838L48.8389 49.325L48.8876 49.8681L49.2485 50.2717L49.5482 50.756L50.068 50.9706L50.6232 50.8436L51.1129 50.8121L51.711 50.887L52.1858 50.5789L52.3195 49.9404L52.7179 49.5899L53.2259 49.3526L53.7 49.0795L54.1075 48.7414L54.4981 48.3854L54.7778 47.9094L55.0757 47.4582L55.5613 47.2109L56.0027 46.9087L56.2382 46.3778L56.5506 45.9309L57.1628 45.8148L57.4503 45.3444L57.9142 45.0521L58.1 44.4742L58.4712 44.0867L58.9126 43.7845L59.3867 43.5113L59.7669 43.1362L60.215 42.8328L60.6564 42.5305L60.8749 41.9817L61.237 41.5819L61.6069 41.1876L62.0889 40.92L62.3069 40.4062L62.7471 40.0204L62.8439 39.4444L62.6503 38.8992L62.5367 38.3398L62.1467 37.9274L61.5911 37.7821L61.1361 37.5839L60.8218 37.2488Z" fill="#121315"/>
<path d="M128.257 96.9589L129.001 96.1786L128.747 94.9845L129.451 94.0581L129.232 92.9831L128.989 91.9681L128.526 91.0341L129.056 89.7905L128.553 88.8288L127.927 87.9516L127.345 87.0459L126.628 86.2406L125.296 86.2764L124.78 85.1638L123.894 84.4931L122.821 84.3224L121.755 84.2271L120.714 84.8098L119.73 84.9435L118.576 84.3556L117.606 85.03L116.67 85.7818L115.47 85.6337L114.398 85.9294L113.2 85.8715L112.191 86.7896L112.98 85.7993L114.147 85.6818L115.162 85.3404L115.738 84.3116L116.464 83.5067L117.748 83.5841L118.342 82.5799L119.061 81.7761L120.155 81.5602L121.218 81.2939L121.734 80.1992L122.842 79.911L123.5 79.0346L124.502 78.459L124.984 77.447L125.777 76.5951L125.553 75.3399L125.441 74.2458L125.507 73.2244L126.04 72.1475L125.862 71.0721L125.382 70.0854L124.642 69.2634L124.161 68.3465L123.617 67.4618L122.879 66.73L122.132 65.9859L121.396 65.1493L120.538 64.3623L119.271 64.7693L118.279 64.4309L117.25 63.6119L116.128 63.7842L115.158 64.5769L114.149 64.8404L112.969 64.8003L112.033 65.2806L111.184 65.9403L110.173 66.2669L109.463 67.243L108.269 67.3585L109.111 66.6234L110.17 66.1768L110.137 64.7901L111.368 64.3407L111.7 63.2997L112.115 62.2995L111.795 61.1591L112.642 60.1445L111.986 59.0986L111.683 58.0943L111.666 56.997L111.634 55.812L110.779 55.0386L110.229 54.0852L109.098 53.702L108.616 52.6252L107.698 52.0439L106.438 52.2547L105.751 51.0334L104.67 50.8154L103.569 51.0325L102.497 50.9384L101.492 51.3821L100.299 51.0796L99.3866 51.9597L100.399 51.1733L101.254 50.589L102.168 49.9873L102.045 48.6792L103.1 48.0524L103.363 47.0098L103.192 45.94L103.521 44.8787L102.962 43.913L102.875 42.8424L102.545 41.8079L101.93 40.9149L100.743 40.6044L100.141 39.7439L99.4642 38.8132L98.295 38.8755L97.3088 38.6476L96.293 38.9889L95.2966 38.6653L94.4263 39.2801L93.1967 38.8101L92.533 39.771L91.2412 39.7647L90.3664 40.4709L89.6698 41.4795L88.3143 41.387L87.9441 42.0588L88.054 41.4752L88.7939 40.7096L89.5383 39.8526L89.4333 38.7224L89.327 37.6621L88.9343 36.6598L89.1124 35.6462L89.1793 34.5898L88.3101 33.8187L88.5026 32.6146L87.4142 32.0846L86.874 31.2618L86.2023 30.553L85.9986 29.2175L85.0219 28.772L84.2525 27.9414L82.9178 28.5067L82.0017 28.1688L81.038 27.9508L80.0454 27.4942L79.0676 28.0098L78.0965 28.176L76.8973 27.7215L76.1782 28.7202L74.9376 28.6908L74.0506 29.4061L73.1605 30.1428L72.065 30.192L71.3329 30.9632L70.4851 31.5113L69.3422 31.5272L68.4006 31.8971L67.7933 32.9037L66.6994 33.0779L65.6606 33.3676L65.0447 34.4036L64.2265 35.0788L63.4083 35.7539L62.0131 35.4388L61.6404 36.8701L60.2215 36.5382L59.6887 37.6917L58.4172 37.6052L57.8317 38.6566L56.8135 38.9844L55.8001 39.3393L55.0159 40.0502L54.1564 40.6491L53.6074 41.7498L52.7673 42.3801L51.3272 42.0451L50.9697 43.4458L49.9484 43.7951L48.6956 43.7749L48.275 45.0545L47.2447 45.3915L46.4125 46.0273L45.5143 46.5636L44.761 47.3316L43.9494 48.0056L42.8039 48.1612L41.6789 48.3549L41.3039 49.6961L40.2347 49.9703L39.291 50.4451L38.1684 50.6523L37.4139 51.4135L36.4247 51.8267L35.9824 53.0615L35.0011 53.4803L33.8046 53.5823L33.1252 54.4555L32.2603 55.0624L31.3669 55.6256L30.7057 56.5235L29.5571 56.7005L29.1239 57.9476L27.7394 57.7698L27.1661 58.8121L26.6243 58.9087L26.6849 58.32L27.7223 57.8286L28.2242 56.8895L29.1736 56.3302L29.4066 55.1606L30.4045 54.6414L31.1268 53.8928L31.3235 52.674L32.6619 52.4771L33.3095 51.6582L33.5864 50.5017L34.0768 49.5369L35.2446 49.1963L35.4365 47.9504L36.265 47.2943L37.0935 46.6382L38.257 46.3123L38.7621 45.3518L39.7186 44.833L40.3493 43.9963L40.9029 43.0759L41.2041 41.9011L41.9671 41.1871L42.9758 40.7286L43.689 39.9677L44.4689 39.2716L45.386 38.725L45.8784 37.732L46.3597 36.7548L47.2284 36.0915L48.2783 35.3611L48.0769 34.1158L48.7432 33.0917L48.4023 31.9549L48.3277 30.8401L47.8955 29.8101L47.2971 28.8932L46.7876 27.9327L45.8251 27.3732L45.2718 26.3996L44.5775 25.4093L43.2437 25.7865L42.295 25.343L41.2999 24.6013L40.1645 24.5044L39.1578 25.2062L38.1693 25.5845L37.1832 25.9763L36.5299 26.8796L35.2773 27.0543L35.0247 28.2692L34.0682 28.788L33.3775 29.5588L32.8803 30.5248L31.6561 30.8198L31.4398 32.0839L30.4996 32.6555L29.651 33.3152L29.2491 34.3896L27.8962 34.5822L27.8754 36.0133L27.167 36.8012L26.1454 37.3037L25.6507 38.2833L24.9514 39.0835L23.6088 39.2951L22.9186 40.1076L22.4159 41.0816L21.9054 42.05L20.8523 42.5303L20.4479 43.5912L19.6018 44.2644L18.9996 45.1447L18.2845 45.9338L17.4869 46.647L16.9345 47.5742L16.1144 48.2775L15.4715 49.1234L14.998 50.1061L14.1373 50.7749L13.9722 52.0159L12.661 52.3264L12.7745 53.7754L11.2952 53.9557L11.4245 55.4158L10.4453 56.0013L10.0192 57.0174L9.48805 57.9477L8.23144 58.332L8.26551 59.6838L7.30575 60.3006L6.80618 61.2532L5.99759 61.9823L5.3098 62.8083L4.65238 63.6497L4.46611 64.811L3.97872 65.7544L2.69161 66.1999L2.24609 67.1846L1.59107 68.0395L1.66902 69.3277L1.19741 70.2822L0.34989 71.0253L-0.187938 71.9568L-0.499813 72.9943L-0.781994 74.0821L-1.11942 75.1311L-1.54675 76.1404L-2.02692 77.1243L-2.97063 77.9472L-2.63917 79.225L-3.44442 80.1276L-3.60687 81.2289L-4.05734 82.2632L-4.17899 83.3225L-4.06598 84.3816L-3.92742 85.4292L-3.54618 86.4057L-3.53311 87.601L-2.42222 88.141L-1.70559 88.8696L-0.842726 89.412L-0.336008 90.589L0.767001 90.7752L1.78104 91.0817L2.80833 91.4625L3.75042 91.2109L3.46717 92.2154L2.30207 92.4162L1.66538 93.2192L1.18762 94.2166L-0.251044 94.0833L-0.808268 94.9834L-1.3382 95.9205L-2.10532 96.5726L-3.21825 96.8338L-3.55166 98.0213L-4.17136 98.8421L-4.71882 99.7197L-5.53063 100.547L-5.04946 101.735L-5.73632 102.721L-5.89395 103.85L-5.66309 104.95L-4.55555 105.665L-4.01056 106.515L-4.13409 107.95L-3.32943 108.747L-2.16033 109.033L-1.12743 109.329L-0.792468 110.007L-1.11945 110.65L-1.7968 111.419L-2.90572 111.819L-3.49518 112.732L-3.67342 113.822L-4.41967 114.707L-4.30372 115.821L-4.36824 116.891L-4.2139 117.95L-3.22743 118.721L-2.85395 119.615L-2.31739 120.418L-2.50299 121.892L-1.3656 122.232L-0.366813 122.57L0.224593 123.641L1.30647 123.747L2.31395 123.978L3.33565 123.399L4.32428 123.641L5.50393 124.141L6.58692 122.938L6.93323 124.415L6.54882 125.897L7.91765 126.335L8.50893 127.135L8.63102 128.554L9.67275 129.016L10.8105 129.127L11.3149 129.594L10.808 130.582L9.39482 130.786L8.5073 131.459L7.7648 132.288L6.93855 133.034L6.29557 133.957L5.64162 134.895L5.50887 136.047L5.55245 137.181L5.89274 138.276L5.38447 139.335L5.14778 140.484L5.90842 141.421L6.19226 142.47L6.79625 143.303L7.05026 144.378L7.5214 145.394L8.98295 145.308L9.38331 146.469L10.2265 147.133L11.3841 147.045L12.2528 147.698L13.3453 147.322L14.3133 148.222L15.3831 148.261L16.2743 147.259L17.3742 147.467L18.207 146.796L19.1097 146.168L20.263 146.095L21.3061 145.791L22.2214 145.196L22.9908 144.285L23.9922 143.863L25.1577 143.78L25.7015 144.623L26.1885 145.574L27.116 146.014L27.9045 146.682L29.019 146.545L29.5136 147.035L29.2793 147.85L29.561 149.081L28.8205 150.153L28.7564 151.341L29.5551 152.376L29.2969 153.675L30.6321 154.196L30.7505 155.324L31.4774 156.071L32.1282 156.895L33.2635 157.069L33.999 157.787L35.023 157.918L35.7914 158.937L36.8682 158.821L37.9029 159.166L38.9254 158.823L39.9385 158.622L40.8979 158.235L42.0011 157.919L42.8975 157.063L44.3113 157.521L45.4161 156.363L44.8295 158.028L46.0715 159.032L46.1206 160.158L46.8425 160.955L47.511 161.762L48.2537 162.521L49.1658 163.068L50.0192 163.828L51.1873 163.606L52.182 164.229L53.2425 163.713L54.2109 163.338L55.1786 163.075L56.6904 163.425L57.5811 162.654L58.5461 163.227L59.4689 162.867L60.5635 163.006L61.4131 162.081L62.6157 162.71L63.5872 162.313L64.4429 161.423L65.5031 161.408L66.5741 161.453L67.6464 161.506L68.5775 160.922L69.4911 160.278L70.5338 160.204L71.626 160.329L72.5016 159.512L73.6721 159.999L74.6129 159.469L75.5097 158.731L76.5999 158.885L77.5655 158.455L78.5569 158.132L79.6304 158.191L80.6411 157.976L81.7589 158.014L82.7152 157.3L83.8131 157.264L85.0209 157.689L85.9868 157.03L87.1102 157.059L87.9833 155.956L89.273 156.764L90.2009 155.93L91.2724 155.746L92.1829 155.124L93.1591 154.831L94.236 154.987L95.2122 154.695L96.3132 154.986L97.3371 154.921L98.1535 153.85L99.2105 153.933L100.178 153.593L101.275 153.899L102.302 153.813L103.254 153.344L104.212 152.95L105.174 152.5L105.427 151.25L106.675 151.013L106.493 149.681L107.705 149.166L107.812 148.102L107.377 147.017L107.463 146.068L107.786 145.015L108.689 144.269L110.006 144.73L110.928 144.134L111.703 143.174L112.769 142.963L113.994 143.176L114.682 142.002L115.862 142.077L116.68 141.249L117.837 141.272L118.633 140.392L119.589 139.908L120.703 139.849L121.553 139.196L122.889 139.299L123.237 137.997L123.823 137.141L124.81 136.603L125.389 135.706L126.145 134.84L125.89 133.639L126.247 132.621L126.473 131.529L126.587 130.388L125.635 129.499L125.459 128.437L125.49 127.179L124.323 126.635L123.517 125.95L123.441 125.093L123.885 124.102L125.266 124.029L125.849 122.999L126.729 122.438L127.169 121.462L128.34 120.988L128.574 119.902L128.903 118.882L128.472 117.782L129.413 116.709L128.731 115.71L128.272 114.761L127.597 113.956L127.548 112.753L126.832 111.954L125.808 111.28L127.316 111.144L128.048 109.829L128.997 109.389L129.931 108.86L130.645 108.064L131.169 107.128L131.96 106.304L131.497 105.064L132.393 104.124L132.286 103.022L131.465 102.097L131.737 100.913L131.083 100.034L130.255 99.339L130.034 98.139L128.936 97.7848L128.257 96.9589Z" fill="#C6F065"/>
<path d="M62.3964 99.0944C63.1933 98.3295 64.4601 98.3554 65.2249 99.1523L66.4325 100.411L67.4799 100.738L68.7726 100.65L70.075 100.266L71.0281 99.5307L71.8367 97.9025C72.3275 96.9129 73.527 96.5081 74.5166 96.9989C75.5061 97.4896 75.9101 98.6903 75.4194 99.6798L74.2025 102.134L72.2234 103.662L71.9259 103.891L71.5668 103.997L69.6973 104.549L69.4861 104.611L69.2666 104.626L67.3759 104.754L67.0016 104.78L64.2585 103.922L62.3385 101.923C61.5736 101.126 61.5996 99.8593 62.3964 99.0944Z" fill="#121315"/>
<path d="M42.7811 102.555L42.5932 103.439L41.8307 103.927L40.9176 103.765L40.4446 102.972L40.6209 102.063L41.4127 101.584L42.3038 101.777L42.7811 102.555Z" fill="#121315"/>
<path d="M39.3403 110.969L39.1347 111.87L38.3642 112.352L37.4676 112.167L36.9836 111.39L37.1624 110.494L37.9451 110.002L38.8483 110.187L39.3403 110.969Z" fill="#121315"/>
<path d="M48.8624 109.269L48.6781 110.172L47.8931 110.651L46.991 110.473L46.5125 109.688L46.7216 108.808L47.4763 108.314L48.3662 108.501L48.8624 109.269Z" fill="#121315"/>
<path d="M99.607 92.4173L99.4081 93.3163L98.631 93.8003L97.7399 93.607L97.2571 92.8365L97.4358 91.9411L98.2118 91.4504L99.1151 91.6347L99.607 92.4173Z" fill="#121315"/>
<path d="M96.108 100.84L95.9202 101.723L95.1576 102.211L94.2512 102.048L93.7715 101.257L93.9558 100.353L94.7408 99.8748L95.6386 100.067L96.108 100.84Z" fill="#121315"/>
<path d="M105.68 99.1331L105.466 100.028L104.703 100.551L103.795 100.34L103.317 99.5547L103.494 98.6526L104.273 98.1406L105.182 98.3584L105.68 99.1331Z" fill="#121315"/>
<path d="M89.1199 82.1323L89.3261 82.6689L89.825 83.1809L89.7142 83.7602L89.9252 84.3236L89.3649 84.9002L89.7706 85.4703L89.2779 86.0002L89.2317 86.5542L89.7332 87.197L89.2334 87.6868L89.2041 88.2585L88.9943 88.7864L88.7542 89.299L88.4533 89.7809L88.3377 90.3335L88.0199 90.7977L87.8471 91.3397L87.5123 91.7863L87.4627 92.4376L87.1642 92.933L86.4139 93.0254L86.3337 93.7374L85.7636 93.9496L85.5158 94.5741L84.7438 94.4285L84.3941 94.9468L83.8389 95.0873L83.2694 95.1475L82.8869 95.8305L82.3033 95.9277L81.6786 95.5625L81.1389 95.9834L80.5653 95.7887L80.0104 95.6597L79.4313 95.6663L78.8615 95.6091L78.4265 95.1064L77.7041 95.3941L77.33 94.8461L76.8492 94.5519L76.2761 94.3985L75.7942 94.0976L75.2579 93.841L75.0673 93.198L74.7709 92.6982L74.0785 92.5731L73.668 92.1696L73.6222 91.487L73.3983 90.9674L73.0512 90.5319L72.4275 90.2494L72.4034 89.6113L72.3208 89.0319L71.8678 88.6223L71.8777 88.0195L71.5904 87.5319L71.1436 87.0797L70.9763 86.5293L70.7902 85.9891L70.9431 85.3747L70.69 84.8465L70.861 84.2564L70.8714 83.695L70.7589 83.1417L70.672 82.577L70.6398 82.0093L70.846 81.4614L70.5956 80.8705L71.0012 80.356L70.8961 79.7669L70.9017 79.1787L71.4828 78.7573L71.5558 78.1985L71.6052 77.6233L71.906 77.1413L72.0023 76.5577L72.3493 76.102L72.692 75.661L73.0505 75.2309L73.4496 74.835L73.4139 74.0539L73.8477 73.6587L74.4142 73.4264L75.0925 73.3952L75.3561 72.7818L75.8231 72.4567L76.4309 72.4173L76.8341 71.8895L77.4694 72.0041L78.0243 71.9397L78.5893 71.9701L79.1283 71.5839L79.7043 71.5986L80.2635 71.713L80.879 71.5617L81.3691 71.9855L81.924 72.1145L82.4997 72.2052L83.0159 72.4654L83.3094 73.1039L83.8789 73.2372L84.4091 73.4603L84.7952 73.8819L85.1459 74.3375L85.7352 74.5432L86.0603 75.0102L86.5117 75.3718L86.941 75.765L86.9344 76.4639L87.5247 76.7523L87.7254 77.2968L87.8415 77.8702L88.0777 78.3807L88.4161 78.8453L88.3551 79.471L88.629 79.961L88.8005 80.4968L89.4537 80.9053L89.2551 81.5349L89.1199 82.1323Z" fill="#FCFCFC"/>
<path d="M89.0202 84.7667L89.2843 85.2792L89.2167 85.83L89.4789 86.3705L89.1262 86.91L89.4558 87.4799L89.1754 87.9996L89.2781 88.5754L88.8271 89.0289L88.7943 89.5805L88.5651 90.0773L88.5619 90.6788L88.1797 91.0924L87.9463 91.6038L87.6509 92.0779L87.1488 92.3608L86.6825 92.6513L86.2465 92.957L85.7876 93.2115L85.4554 93.7889L84.8197 93.6329L84.3102 93.7583L83.7875 93.8101L83.2425 94.1629L82.6838 94.0899L82.2224 93.6334L81.6622 93.6297L81.1371 93.4746L80.6942 93.1599L80.1632 92.9714L79.8082 92.5304L79.2724 92.3151L78.9973 91.8185L78.4952 91.5212L78.1847 91.0585L77.9254 90.5728L77.7472 90.0382L77.5725 89.5236L77.0628 89.1448L76.8802 88.6247L76.8279 88.0607L76.6643 87.5303L76.842 86.9391L76.7477 86.4102L76.4556 85.8958L76.4124 85.344L76.3212 84.7938L76.6764 84.2676L76.4204 83.6846L76.6314 83.1634L76.8514 82.6544L77.0514 82.149L77.2751 81.6601L77.3311 81.0836L77.5973 80.601L77.7846 80.0633L78.1522 79.6454L78.6283 79.3325L79.0413 78.9756L79.3417 78.4523L79.9913 78.4538L80.411 78.0957L80.8938 77.7817L81.4655 77.8109L82.0192 77.9332L82.5493 77.8456L83.0976 77.7823L83.6276 77.8881L84.1213 78.1385L84.6801 78.2115L85.1836 78.4395L85.5783 78.8319L86.1073 79.0484L86.4831 79.4511L86.8522 79.855L87.3555 80.159L87.666 80.6217L87.679 81.2757L88.0859 81.659L88.1594 82.2262L88.6423 82.6098L88.8894 83.1045L88.7846 83.7173L89.0908 84.1946L89.0202 84.7667Z" fill="#121315"/>
<path d="M46.0455 98.6889L45.3245 98.4778L44.633 98.3049L44.3397 97.9744L44.0611 97.6046L43.951 97.1509L43.8025 96.69L44.0946 96.29L44.3454 95.9052L44.669 95.4771L44.9122 94.9769L45.3418 94.6379L45.7531 94.2805L46.2589 94.029L46.663 93.673L47.1739 93.4863L47.6695 93.2587L48.1233 92.9296L48.623 92.7231L49.1172 92.4885L49.624 92.2807L50.1601 92.1476L50.6808 91.9736L51.2224 91.8686L51.7718 91.8425L52.2983 91.6601L52.8041 91.4087L53.3587 91.4473L53.9029 91.3565L54.4636 91.3501L55.0068 91.2156L54.5669 90.8916L54.0824 90.6421L53.6307 90.3715L53.175 90.0798L52.7003 89.843L52.2171 89.6004L51.6842 89.521L51.1543 89.4191L50.6582 89.1864L50.1415 89.038L49.6076 88.9149L49.0659 88.8665L48.5284 88.9925L47.9851 88.9736L47.4509 89.0406L46.8994 88.9794L46.3745 89.1322L45.8377 89.1851L45.3298 89.3493L44.7927 89.4388L44.3042 89.665L43.7936 89.8151L43.2987 89.7794L42.8379 89.7664L42.4196 89.5917L42.0188 89.3551L41.6815 89.0259L41.45 88.6323L41.3412 88.1856L41.355 87.7226L41.4655 87.2627L41.6911 86.8244L42.1337 86.629L42.551 86.4166L43.0441 86.1383L43.604 86.0517L44.1281 85.8186L44.6918 85.7898L45.2445 85.7046L45.8014 85.6405L46.3588 85.5033L46.9064 85.3533L47.4648 85.4497L48.0306 85.5081L48.5949 85.4061L49.1616 85.3547L49.7153 85.5032L50.2878 85.4434L50.8123 85.6706L51.3768 85.722L51.9399 85.7664L52.482 85.9317L53.014 86.1209L53.5724 86.2173L54.0682 86.4867L54.5524 86.7728L55.0685 86.9944L55.5355 87.3058L56.0573 87.5189L56.4898 87.8809L56.9395 88.2176L57.4295 88.4953L57.8117 88.9036L58.2183 89.2852L58.6206 89.6822L58.9957 90.0919L59.3721 90.5085L59.73 90.9434L59.9504 91.4707L60.3425 91.8917L60.4167 92.3889L60.5794 92.847L60.419 93.3165L60.3211 93.8032L59.8965 94.0536L59.5381 94.3788L59.0736 94.4615L58.6312 94.6203L58.0728 94.5239L57.5053 94.495L56.9509 94.6098L56.3968 94.6879L55.8345 94.7238L55.2995 94.9006L54.732 94.8717L54.1754 94.8991L53.6281 95.0125L53.0863 95.154L52.5363 95.2533L52.004 95.4442L51.4376 95.4589L50.8832 95.5737L50.3495 95.7575L49.8159 95.9413L49.32 96.2055L48.8577 96.5289L48.4013 96.8439L47.9349 97.1462L47.5277 97.5247L47.2533 98.0164L46.653 98.3519L46.0455 98.6889Z" fill="black"/>
</g>
<defs>
<clipPath id="clip0_2987_173403">
<path d="M0 74C0 33.1309 33.1309 0 74 0C114.869 0 148 33.1309 148 74C148 114.869 114.869 148 74 148C33.1309 148 0 114.869 0 74Z" fill="white"/>
</clipPath>
</defs>
</svg>
