<svg width="148" height="148" viewBox="0 0 148 148" fill="none" xmlns="http://www.w3.org/2000/svg">
<g clip-path="url(#clip0_2987_173404)">
<path d="M0 74C0 33.1309 33.1309 0 74 0C114.869 0 148 33.1309 148 74C148 114.869 114.869 148 74 148C33.1309 148 0 114.869 0 74Z" fill="#E65255"/>
<path d="M84.1728 44.1745L84.4819 43.9269L84.6605 43.3288L85.0108 42.9024L85.3543 42.4899L85.7664 42.1667L85.8626 41.6648L86 41.1766L85.8764 40.6816L85.6085 40.2484L85.3612 39.7877L84.9971 39.3683L84.4888 39.0933L83.9255 39.3477L83.3966 39.3339L82.902 39.5539L82.4418 39.9115L81.9472 40.2278L81.377 40.4272L80.9718 40.9979L81.4732 40.6266L81.8785 40.2621L82.0846 39.6914L82.4418 39.2789L82.9501 39.0314L83.3142 38.6257L83.7332 38.2819L84.214 38.0069L84.6674 37.6975L84.6399 37.113L84.6674 36.6455L84.7636 36.171L84.6399 35.7104L84.372 35.3184L84.0079 34.9678L83.692 34.4796L83.163 34.2458L82.6066 34.4727L82.1464 34.7065L81.6793 34.8784L81.2465 35.2291L80.7588 35.5041L80.1268 35.5728L79.8383 36.116L79.4468 36.5148L78.8492 36.6386L78.4851 37.0924L78.0317 37.2918L78.5263 37.1612L78.6981 36.5492L79.172 36.281L79.6941 36.0679L80.1062 35.731L80.436 35.3047L80.7382 34.8371L81.1916 34.5415L81.7205 34.3214L81.9678 33.792L82.4555 33.5445L82.4143 32.9669L82.7852 32.5475L82.5998 32.0456L82.6684 31.5024L82.1807 31.1998L81.9266 30.6841L81.4251 30.4229L80.8687 30.361L80.2505 30.4916L80.1612 29.9141L80.0582 29.4052L79.6597 29.0752L79.3781 28.6214L78.911 28.3601L78.3752 28.4358L77.86 28.3257L77.3998 28.5114L77.3173 27.982L77.5303 27.4181L77.3654 26.8681L76.9189 26.483L76.6442 26.0086L76.3557 25.4792L75.7099 25.4929L75.2429 25.1766L74.6933 25.2385L74.1026 25.0941L73.6011 25.3966L73.2439 25.8505L72.8249 26.2011L72.2067 26.3043L71.8769 26.7718L71.4373 27.1018L70.929 27.3425L70.455 27.6244L70.0085 27.9476L69.6582 28.3945L69.3491 28.8964L68.7377 29.0133L68.5179 29.6459L68.724 28.9858L69.2392 28.6902L69.6857 28.3257L70.0635 27.8788L70.4481 27.4525L70.7092 27.0675L71.1007 26.7237L71.1763 26.2286L71.0183 25.7542L70.8946 25.3004L70.6474 24.8947L70.2764 24.5853L69.9055 24.2209L69.404 24.0559L68.9163 24.3515L68.3256 24.1384L68.0233 24.6472L67.6249 24.991L67.1166 25.2041L66.8624 25.7267L66.306 25.8848L65.8252 26.1324L65.571 26.6549L65.1589 26.985L64.7811 27.3563L64.3758 27.6863L63.9705 28.0232L63.579 28.3807L63.1737 28.7177L62.5486 28.7864L62.1982 29.1852L61.7792 29.5153L61.5594 30.0791L60.9274 30.141L60.5016 30.4641L60.2611 31.0004L59.8352 31.3167L59.2926 31.5024L59.1071 32.1074L58.7018 32.4512L58.2278 32.7125L57.8294 33.0632L57.2181 33.1594L56.8746 33.5789L56.6136 34.1083L56.2083 34.1427L56.4006 33.8814L56.9845 33.737L57.0876 33.0838L57.7539 33.0219L58.008 32.5269L58.324 32.0937L58.8873 31.9149L59.2582 31.5436L59.3956 30.9248L59.7528 30.5329L60.3298 30.3747L60.7351 30.0309L60.9206 29.4602L61.3671 29.1646L61.7449 28.7864L62.0609 28.3532L62.6173 28.1676L62.8852 27.6794L63.4759 27.5213L63.6545 26.9368L64.0598 26.5655L64.101 26.0155L64.1422 25.4998L63.9911 25.0116L63.8125 24.5028L63.421 24.0696L62.8852 23.8015L62.2738 23.6983L61.6968 23.9046L61.2846 24.3446L60.7282 24.5165L60.4329 25.0047L59.9589 25.2798L59.5673 25.6579L59.2582 26.1805L59.4437 25.5548L59.217 25.0185L59.3819 24.4272L59.1483 23.9115L58.743 23.5127L58.4614 23.0451L58.0561 22.6738L57.5753 22.4194L57.0876 22.1788L56.5449 22.11L56.0091 22L55.4596 22.0344L54.965 22.2957L54.546 22.6326L54.1269 22.942L53.5362 23.1414L53.0691 23.492L52.7531 24.0146L52.4096 24.4959L51.9288 24.9566L51.4067 24.5097L50.8778 24.5578L50.5481 25.0391L49.9986 25.1079L49.7856 25.6304L49.4628 26.0292L48.8995 26.1736L48.556 26.5587L48.2744 27.0056L47.8897 27.3425L47.3883 27.5488L47.141 28.037L46.7013 28.3257L46.3167 28.6627L46.0075 29.0958L45.6641 29.309L45.5404 28.8621L44.9909 28.587L44.62 28.2157L44.0979 28.1057L43.6239 27.8238L43.1087 28.0026L42.4699 27.8994L42.2364 28.5251L41.8173 28.7314L41.5426 29.0958L41.1648 29.3021L41.3983 28.8621L41.3571 28.3395L41.5494 27.8376L41.4533 27.315L41.0411 26.9575L40.7664 26.5312L40.4641 26.043L39.8596 26.1461L39.3925 25.9742L38.9254 26.1874L38.4033 26.1736L37.9637 26.4899L37.6134 26.1049L37.2768 25.7817L37.0158 25.266L36.4731 25.2729L35.9785 25.1766L35.4565 25.211L35.0924 25.596L34.6871 25.878L34.22 26.0842L34.0071 26.5243L33.7048 27.0468L33.6155 26.3318L33.1828 25.9192L32.6195 25.8505L32.173 25.5617L31.6578 25.6579L31.1426 25.7267L30.6137 25.8917L30.3183 26.3593L30.0092 26.7031L29.6863 27.0468L29.4871 27.4663L28.9307 27.6038L28.3606 27.7138L27.8866 28.0576L27.5775 28.5526L27.3096 28.9927L26.9867 29.3915L26.7875 29.8659L26.4784 30.2785L26.3548 30.7942L26.0525 31.2136L25.9014 31.7155L25.3862 32.018L25.1939 32.5062L24.9466 32.9532L25.0084 33.5789L24.5619 33.9089L24.507 34.4658L24.2391 34.9746L24.3558 35.5316L24.7199 35.951L25.0565 36.3567L25.5236 36.6798L25.5648 37.1749L25.5236 37.6631L25.7091 38.1169L26.2243 38.275L26.3823 38.7976L26.6227 39.1895L26.7532 39.6914L26.2586 40.049L26.0937 40.6128L25.5717 40.881L25.1389 41.2248L24.9741 41.7886L24.6237 42.2011L24.3146 42.648L23.9643 43.0606L23.6208 43.48L23.298 43.9132L22.9545 44.3326L22.35 44.5251L22.0753 44.9996L21.7249 45.4121L21.6082 46.0172L20.9968 46.2166L20.6396 46.6223L20.5022 47.2067L20.1382 47.6124L19.6436 47.9012L19.5749 48.5406L19.2452 48.9738L18.833 49.3313L18.5033 49.7576L17.9194 49.9845L17.6652 50.4727L17.521 51.0503L16.889 51.229L16.8341 51.8823L16.3464 52.3017L16.6555 52.9205L16.2639 53.4912L16.573 54.0138L16.9028 54.4744L17.047 55.0864L17.418 55.3339L17.3905 55.7671L17.0882 56.159L16.5524 56.324L16.2021 56.6541L16.1472 57.2179L15.893 57.6373L15.8655 58.1186L16.0441 58.6549L15.5015 58.9987L15.4259 59.5419L15 59.982L15.2679 60.5251L15.2473 61.0477L15.5564 61.474L15.7968 61.9072L16.1334 62.2647L16.4494 62.6841L16.8341 62.9729L16.6005 63.3924L16.47 63.9012L16.5799 64.4168L16.8959 64.8294L16.9921 65.3863L17.466 65.7026L17.9812 65.9226L18.5376 65.8745L19.094 66.0602L19.5337 65.7989L19.7604 66.1908L20.1175 66.5552L20.4747 66.9471L21.0243 66.9059L21.5257 67.1397L22.0066 66.8646L21.8829 67.3803L21.9035 67.8616L21.5669 68.4254L22.0547 68.8036L22.1302 69.3881L22.7141 69.5118L23.0438 70L23.614 69.8006L24.1086 69.9587L24.6581 69.945L25.0702 69.5875L25.4343 69.1268L25.9838 68.9067L26.4647 68.5973L26.8974 68.2192L27.3096 67.8204L27.7011 67.6141L28.1133 67.896L28.2713 68.3979L28.4911 68.9343L28.9994 69.1749L29.5421 69.2574L30.0367 69.67L30.5931 69.4499L31.0808 69.1955L31.4929 68.8586L31.9326 68.5698L32.4134 68.3292L32.7157 67.8548L33.2927 67.7447L33.7048 67.4147L34.1101 67.0709L34.5703 66.8028L34.8451 66.2871L35.271 65.9639L35.7587 65.5582L36.0747 65.9845L36.0953 66.4177L36.48 66.7615L36.9539 66.9471L37.4279 67.0847L37.9569 67.3666L38.4995 67.1947L38.8773 66.7752L39.317 66.4521L39.7566 66.122L40.2718 65.8883L40.7526 65.6064L41.0274 65.0632L41.4258 64.6781L42.044 64.575L42.2638 63.9562L42.7447 63.6811L43.2461 63.4267L43.7338 63.1517L44.0498 62.6498L44.5375 62.2991L44.8535 62.9248L44.9978 63.4199L45.1901 63.9768L45.6916 64.2381L46.2617 64.1968L46.7769 64.5337L47.2784 64.2449L47.7317 63.9699L48.1164 63.5918L48.6797 63.4542L48.975 62.9523L49.4353 62.6773L49.8886 62.3816L50.2733 62.0034L50.7198 61.7078L51.1457 61.3777L51.5922 61.0752L52.0937 60.8552L52.4921 60.4839L53.1172 60.4426L53.44 59.9682L53.8934 59.6725L54.3674 59.4113L54.8757 59.1981L55.281 58.6205L55.1024 59.26L55.2672 59.7894L55.3977 60.2845L55.4183 60.8758L55.9473 61.1096L56.3182 61.4396L56.7716 61.6665L57.273 61.7834L57.8226 62.0309L58.3652 61.8453L58.6881 61.3227L59.217 61.1371L59.7665 60.9927L60.1856 60.6489L60.5016 60.1607L60.9755 59.8926L61.3465 59.4869L61.9097 59.3563L62.4455 59.1775L62.8852 58.8681L63.2424 58.4486L63.6202 58.043L64.0048 57.6579L64.6231 57.596L65.0352 57.2523L65.2619 56.6541L65.7771 56.4753L66.2785 56.269L66.5602 55.774L67.0204 55.5127L67.5768 55.3958L67.8241 54.8457L68.3462 54.6876L68.8339 54.4676L69.2117 54.0963L69.5345 53.6493L70.0154 53.4568L70.0566 53.9587L70.0085 54.5019L70.297 54.9626L70.51 55.4921L70.9908 55.7946L71.5678 55.7671L72.0624 55.8221L72.6463 56.0009L73.1752 55.7808L73.4225 55.1758L73.8827 54.9007L74.4323 54.7563L74.9543 54.5707L75.4214 54.3094L75.8748 54.0275L76.2389 53.6081L76.6167 53.2162L77.1456 53.058L77.6402 52.838L77.9699 52.3567L78.3615 51.9716L78.9934 51.9648L79.3644 51.5522L79.8796 51.3459L80.1681 50.8096L80.6077 50.4933L81.1023 50.2733L81.6243 50.0877L82.0708 49.7851L82.5723 49.5651L83.0669 49.3451L83.3828 48.8431L83.8156 48.5131L84.2552 48.1899L84.7842 48.0112L85.0933 47.5436L85.6016 47.2411L85.8008 46.691L85.7046 46.1203L85.6909 45.5496L85.3749 45.0752L84.846 44.8346L84.427 44.5595L84.1728 44.1745Z" fill="#121315"/>
<path d="M141.056 115.418L141.939 114.776L141.897 113.547L142.766 112.753L142.738 111.649L142.676 110.599L142.38 109.591L143.131 108.452L142.8 107.41L142.332 106.429L141.911 105.428L141.339 104.503L140.002 104.303L139.684 103.108L138.919 102.287L137.878 101.928L136.83 101.645L135.686 102.038L134.68 101.997L133.632 101.21L132.542 101.707L131.474 102.287L130.302 101.928L129.178 102.031L127.993 101.762L126.821 102.494L127.786 101.652L128.971 101.741L130.047 101.583L130.805 100.664L131.674 99.9947L132.942 100.298L133.714 99.4079L134.576 98.7382L135.707 98.7175L136.817 98.6415L137.527 97.6474L138.685 97.5576L139.498 96.8051L140.601 96.4115L141.263 95.4933L142.208 94.7891V93.505L142.29 92.4003L142.539 91.3993L143.262 90.4258L143.276 89.3281L142.973 88.2648L142.38 87.319L142.063 86.3248L141.677 85.3514L141.07 84.4953L140.457 83.6254L139.871 82.6657L139.154 81.7337L137.816 81.9132L136.886 81.4023L136.003 80.4081L134.852 80.3805L133.742 80.995L132.687 81.0778L131.515 80.8293L130.495 81.1399L129.53 81.6439L128.461 81.7889L127.579 82.6312L126.366 82.5345L127.338 81.9546L128.475 81.6992L128.689 80.3184L129.999 80.0905L130.516 79.1171L131.109 78.1988L130.991 77.0114L132.019 76.1553L131.55 75.0023L131.426 73.9529L131.605 72.8621L131.784 71.6815L131.067 70.7633L130.688 69.7208L129.626 69.1408L129.337 67.9879L128.523 67.2491L127.227 67.2353L126.759 65.9029L125.718 65.4955L124.58 65.5162L123.525 65.2332L122.443 65.4955L121.306 64.9846L120.237 65.6957L121.388 65.0951L122.347 64.667L123.367 64.2321L123.477 62.9134L124.642 62.4785L125.09 61.4912L125.111 60.4004L125.628 59.4062L125.242 58.3499L125.345 57.2729L125.201 56.189L124.746 55.1948L123.615 54.677L123.167 53.7173L122.657 52.6748L121.478 52.5298L120.533 52.1294L119.458 52.2882L118.52 51.7911L117.542 52.2468L116.397 51.5633L115.563 52.3987L114.274 52.1639L113.274 52.7093L112.399 53.5862L111.061 53.2548L110.572 53.8554L110.786 53.2962L111.661 52.6679L112.557 51.9499L112.654 50.8108L112.737 49.7406L112.523 48.6774L112.881 47.704L113.136 46.6684L112.406 45.7501L112.812 44.5903L111.82 43.8723L111.427 42.9609L110.882 42.1394L110.917 40.7793L110.02 40.1648L109.4 39.2052L107.966 39.5296L107.111 39.0326L106.187 38.6459L105.277 38.0177L104.209 38.356L103.209 38.3491L102.092 37.6863L101.196 38.5493L99.9623 38.3007L98.9489 38.8531L97.9286 39.4261L96.8256 39.2811L95.957 39.9163L95.0126 40.3098L93.8682 40.1234L92.8617 40.3236L92.0758 41.2142L90.9521 41.1935L89.8629 41.2971L89.0632 42.2153L88.1256 42.74L87.1881 43.2647L85.8507 42.7055L85.2233 44.0587L83.8653 43.4787L83.1276 44.5281L81.8729 44.2175L81.1008 45.1564L80.0254 45.3014L78.95 45.474L78.04 46.0401L77.0748 46.482L76.3303 47.4761L75.379 47.9525L74.0002 47.3657L73.3935 48.6912L72.3112 48.8569L71.0634 48.6153L70.4154 49.8097L69.3262 49.9616L68.3817 50.4448L67.389 50.8177L66.4997 51.4459L65.5691 51.9706L64.3971 51.9223L63.239 51.9154L62.6254 53.1788L61.5086 53.2617L60.4814 53.5654L59.3233 53.5723L58.434 54.1937L57.3723 54.4284L56.7105 55.5745L55.6558 55.8161L54.4424 55.7057L53.6083 56.4513L52.6363 56.9001L51.6436 57.3005L50.8232 58.0737L49.6444 58.0461L48.9894 59.206L47.6383 58.7848L46.8799 59.7169H46.3215L46.487 59.1439L47.6107 58.8401L48.2794 57.9978L49.3272 57.6112L49.7684 56.4927L50.8577 56.1544L51.7125 55.54L52.1261 54.3663L53.498 54.4077L54.2908 53.7104L54.7734 52.6127L55.4352 51.7428L56.6623 51.6116L57.0759 50.4103L58.0203 49.9063L58.9648 49.4023L60.185 49.285L60.8606 48.422L61.9085 48.0768L62.6875 47.3588L63.4044 46.5441L63.9146 45.4326L64.8039 44.8595L65.8931 44.5834L66.741 43.9551L67.6441 43.4028L68.6575 43.0231L69.3262 42.1255L69.9811 41.2418L70.9669 40.7378L72.1458 40.1993L72.1665 38.929L73.0144 38.0315L72.8765 36.844L73.0006 35.7256L72.7524 34.6278L72.3181 33.6129L71.9803 32.5704L71.1186 31.8455L70.7394 30.7823L70.2224 29.6777L68.8229 29.8157L67.9543 29.2082L67.0926 28.2969L65.9758 28L64.8452 28.5178L63.7905 28.718L62.7357 28.932L61.9222 29.7122L60.64 29.6639L60.1712 30.8237L59.1234 31.1689L58.2961 31.811L57.6274 32.6809L56.352 32.7568L55.9108 33.9719L54.8699 34.3724L53.9047 34.8764L53.3119 35.8705L51.9262 35.8222L51.6505 37.2375L50.8025 37.8934L49.6926 38.211L49.0239 39.0947L48.1829 39.7644L46.8041 39.7368L45.9699 40.4203L45.2944 41.2971L44.6119 42.167L43.4744 42.4569L42.8815 43.4373L41.9164 43.9551L41.1581 44.7214L40.3032 45.3773L39.3795 45.9434L38.6625 46.765L37.7181 47.3173L36.9253 48.0423L36.2772 48.9329L35.2983 49.4438L34.9123 50.6451L33.5473 50.721L33.4025 52.1777L31.8928 52.0949L31.7618 53.5654L30.6795 53.9728L30.0728 54.9048L29.3765 55.7333L28.0529 55.8921L27.8461 57.2384L26.7776 57.6802L26.1089 58.5363L25.1713 59.1162L24.3372 59.8135L23.5306 60.5316L23.1376 61.65L22.4827 62.4992L21.1177 62.7132L20.4973 63.6107L19.6907 64.3426L19.5391 65.6336L18.8979 66.4966L17.919 67.0834L17.2158 67.9119L16.7195 68.8854L16.2438 69.9141L15.7199 70.8944L15.1132 71.8196L14.4583 72.7102L13.3691 73.3591L13.4725 74.6847L12.5074 75.4372L12.1489 76.5005L11.5147 77.4463L11.2044 78.475L11.1286 79.5451L11.0803 80.6083L11.2872 81.6439L11.0872 82.8314L12.1006 83.5632L12.6866 84.4124L13.4518 85.1028L13.7483 86.3593L14.8168 86.7391L15.775 87.2223L16.7333 87.7816L17.7191 87.6987L17.2572 88.6446L16.0577 88.6377L15.2787 89.3212L14.6238 90.2256L13.2105 89.839L12.4936 90.6329L11.7973 91.4683L10.9149 91.9792L9.75673 92.0413L9.21212 93.1598L8.44691 93.864L7.74374 94.6372L6.7855 95.3138L7.05436 96.5772L6.19263 97.4333L5.83415 98.5242L5.86862 99.6564L6.84754 100.561L7.24049 101.5L6.86133 102.901L7.52314 103.833L8.63994 104.324L9.61886 104.8L9.83257 105.532L9.39136 106.112L8.57789 106.754L7.39905 106.954L6.64762 107.755L6.27536 108.804L5.37227 109.55L5.28954 110.675L5.03447 111.725L5 112.802L5.84794 113.741L6.06165 114.693L6.4546 115.584L6.0065 117.013L7.08193 117.552L8.01949 118.062L8.41933 119.229L9.48098 119.526L10.4461 119.933L11.5698 119.54L12.5143 119.954L13.6035 120.658L14.8995 119.657L14.9822 121.183L14.3342 122.585L15.6234 123.261L16.0715 124.159L15.9405 125.588L16.8987 126.23L18.0155 126.541L18.436 127.093L17.7536 127.983L16.3059 127.935L15.2994 128.446L14.4101 129.136L13.4518 129.73L12.6452 130.531L11.8249 131.346L11.4871 132.464L11.3285 133.596L11.4733 134.742L10.777 135.702L10.3358 136.8L10.9287 137.863L11.0252 138.954L11.4802 139.886L11.5422 140.997L11.8318 142.088L13.307 142.261L13.5001 143.483L14.2239 144.291L15.3959 144.408L16.1473 145.209L17.3055 145.029L18.112 146.093L19.1737 146.32L20.2422 145.485L21.3039 145.885L22.2552 145.368L23.2686 144.905L24.4337 145.036L25.5298 144.919L26.5501 144.491L27.4807 143.725L28.5562 143.483L29.735 143.607L30.128 144.539L30.4451 145.568L31.293 146.169L31.9617 146.969L33.0992 147.032L33.5059 147.605L33.1268 148.371L33.1888 149.641L32.2581 150.573L31.9824 151.74L32.5959 152.907L32.1065 154.15L33.3474 154.902L33.2646 156.041L33.8575 156.911L34.3608 157.843L35.4638 158.216L36.0704 159.058L37.07 159.369L37.656 160.515L38.7521 160.591L39.7242 161.116L40.8065 160.957L41.8543 160.936L42.8815 160.722L44.0397 160.605L45.0875 159.914L46.418 160.619L47.7279 159.666L46.8455 161.212L47.9071 162.427L47.7555 163.553L48.3345 164.471L48.8585 165.389L49.4651 166.273L50.2786 166.977L50.9955 167.882L52.202 167.868L53.0844 168.662L54.2356 168.337L55.2697 168.137L56.2831 168.047L57.7308 168.662L58.758 168.054L59.6197 168.793L60.6055 168.6L61.6741 168.931L62.6875 168.165L63.7767 169L64.8176 168.779L65.831 168.047L66.8927 168.22L67.9543 168.455L69.016 168.696L70.05 168.282L71.0772 167.806L72.132 167.916L73.2005 168.234L74.2208 167.578L75.3031 168.268L76.3372 167.909L77.3644 167.336L78.426 167.681L79.467 167.426L80.5149 167.281L81.5765 167.529L82.6244 167.495L83.7343 167.73L84.8166 167.191L85.9196 167.35L87.0502 167.985L88.1325 167.502L89.2493 167.73L90.3179 166.791L91.4622 167.819L92.5377 167.157L93.6407 167.164L94.661 166.708L95.6881 166.59L96.736 166.936L97.7632 166.818L98.8111 167.302L99.8451 167.419L100.852 166.501L101.893 166.77L102.92 166.604L103.961 167.101L105.002 167.198L106.036 166.901L107.063 166.68L108.104 166.404L108.58 165.21L109.869 165.196L109.924 163.843L111.227 163.546L111.523 162.51L111.282 161.357L111.537 160.432L112.047 159.445L113.081 158.865L114.315 159.555L115.342 159.127L116.287 158.313L117.39 158.292L118.576 158.72L119.472 157.677L120.637 157.961L121.602 157.284L122.753 157.512L123.705 156.78L124.746 156.469L125.869 156.607L126.834 156.11L128.151 156.449L128.73 155.22L129.468 154.474L130.55 154.115L131.288 153.328L132.198 152.603L132.156 151.367L132.694 150.421L133.115 149.379L133.432 148.267L132.639 147.218L132.653 146.134L132.908 144.891L131.839 144.146L131.157 143.324L131.233 142.461L131.853 141.557L133.246 141.729L134.011 140.811L134.99 140.411L135.603 139.52L136.858 139.258L137.285 138.222L137.796 137.269L137.561 136.103L138.692 135.205L138.189 134.093L137.899 133.072L137.368 132.153L137.534 130.952L136.961 130.034L136.058 129.185L137.589 129.316L138.554 128.142L139.581 127.873L140.608 127.514L141.463 126.851L142.152 126.016L143.09 125.339L142.849 124.027L143.91 123.254L144 122.143L143.345 121.079L143.828 119.954L143.331 118.967L142.628 118.131L142.621 116.903L141.587 116.357L141.056 115.418Z" fill="#C6F065"/>
<path d="M66.9063 93.8113L67.456 94.3954L67.2155 94.9589L67.1536 95.536L66.707 96.0445L66.7276 96.6217L67.0025 97.2608L66.5627 97.7418L66.2741 98.2502L66.3084 98.8549L66.4115 99.5077L65.7313 99.8444L65.477 100.346L65.2228 100.854L64.9754 101.356L64.8036 101.926L64.3776 102.318L64.1852 102.902L63.5599 103.101L63.1957 103.527L62.9071 104.057L62.5154 104.489L62.1375 104.97L61.4366 104.929L60.8732 105.06L60.3922 105.355L59.8768 105.575L59.4165 106.07L58.8461 106.214L58.214 105.726L57.6711 106.159L57.0871 106.139L56.5305 105.967L55.9945 105.733L55.3898 105.781L54.7989 105.706L54.3935 105.197L53.9949 104.751L53.3216 104.778L52.9711 104.29L52.5313 103.933L51.9541 103.72L51.6793 103.191L51.2258 102.833L50.9715 102.304L50.5455 101.913L50.2913 101.397L49.9133 100.964L49.8034 100.373L49.24 100.009L49.0269 99.4733L49.2949 98.7656L48.5528 98.4083L48.4154 97.838L48.594 97.2058L48.4772 96.6492L48.2711 96.0995L48.3604 95.5154L48.3329 94.952L48.3398 94.3817L48.278 93.8113L47.9688 93.2341L48.0581 92.6638L48.223 92.1004L48.2024 91.5163L48.1474 90.9254L48.2367 90.3482L48.5322 89.8191L49.1094 89.393L48.8895 88.7265L49.4736 88.3349L49.4873 87.7302L49.7965 87.2492L50.0508 86.7407L50.092 86.1017L50.6211 85.765L50.9578 85.3046L51.212 84.7824L51.5968 84.3563L51.961 83.9097L52.4489 83.5867L52.9917 83.3668L53.4658 83.0645L53.7201 82.3842L54.2835 82.1918L54.9844 82.3705L55.3623 81.7452L55.9189 81.5665L56.5167 81.594L57.1008 81.6009L57.6711 81.704L58.2277 81.8002L58.8255 81.5391L59.334 81.9376L59.8768 82.0682L60.564 81.8551L60.8801 82.5698L61.3748 82.8171L62.0345 82.824L62.2887 83.4493L62.8934 83.5936L63.4156 83.8685L63.8554 84.2533L64.1096 84.7961L64.2745 85.387L64.9891 85.5794L64.9685 86.2803L65.264 86.7544L65.6831 87.1805L66.1573 87.5927L66.1504 88.2249L66.2054 88.809L66.2878 89.3724L66.4802 89.9084L66.8169 90.41L67.1193 90.9322L67.243 91.5026L66.8994 92.121L67.1674 92.6707L67.4079 93.2341L66.9063 93.8113Z" fill="#FCFCFC"/>
<path d="M63.9663 90.2594L64.2205 90.8228L64.09 91.3726L64.0831 91.936L63.7327 92.4376L63.5265 92.9461L63.4647 93.4958L63.1623 93.9631L63.0524 94.5128L62.805 95.0006L62.6745 95.5641L62.2897 95.9764L61.7881 96.2787L61.5888 96.8353L61.204 97.2407L60.6612 97.44L60.187 97.6942L59.8022 98.1615L59.2182 98.1821L58.6959 98.3126L58.1668 98.4295L57.624 98.5257L57.0537 98.6287L56.504 98.5119L55.9749 98.3195L55.5695 97.8729L54.9029 97.9622L54.525 97.5156L54.1471 97.1101L53.7554 96.7322L53.3225 96.3887L53.137 95.8389L52.7728 95.4335L52.2368 95.1106L52.1681 94.5196L51.8314 94.0661L51.7971 93.4889L51.4673 93.0148L51.4604 92.4445L51.1924 91.936L51.0893 91.3794L51.3917 90.8022L51 90.2594L51.1512 89.7028L51.0275 89.1325L51.4947 88.6377L51.6253 88.1087L51.3436 87.4696L51.9002 87.0642L51.7078 86.4046L51.962 85.9029L52.2094 85.3945L52.5735 84.9547L52.9652 84.5562L53.192 84.0202L53.7554 83.7866L54.154 83.4155L54.525 83.0101L54.9304 82.5978L55.5626 82.639L56.0436 82.4054L56.5452 82.1855L57.0743 82.0756L57.624 82.0687L58.1737 82.0344L58.744 82L59.1975 82.4192L59.8297 82.3161L60.3588 82.5291L60.6474 83.1063L61.2315 83.2575L61.6163 83.6629L62.0973 83.979L62.4408 84.4325L62.4821 85.0784L62.8875 85.47L63.073 85.9991L63.3616 86.4733L63.396 87.0436L63.712 87.5246L63.8907 88.0468L63.8151 88.624L64.1518 89.1394L64.2137 89.6959L63.9663 90.2594Z" fill="#121315"/>
<path d="M66.1556 106.586C66.9363 105.804 68.2033 105.804 68.9847 106.585L69.9124 107.513L70.9905 107.887L72.4729 107.995L73.9964 107.882L75.1761 107.472L76.2317 106.52C77.0521 105.781 78.3164 105.847 79.0559 106.667C79.7954 107.487 79.73 108.753 78.9095 109.492L77.555 110.713L77.2542 110.983L75.0638 111.746L74.8157 111.832L74.554 111.851L72.6165 111.994L72.47 112.006L70.4407 111.857L70.179 111.839L67.7356 110.991L66.1565 109.415C65.3753 108.634 65.3749 107.367 66.1556 106.586Z" fill="#121315"/>
<path d="M46.3356 105.904L45.992 106.749L45.1469 107.1L44.2673 106.777L43.9375 105.904L44.2742 105.032L45.1469 104.695L45.9989 105.045L46.3356 105.904Z" fill="#121315"/>
<path d="M41.4187 113.662L41.0545 114.521L40.2025 114.864L39.3436 114.521L39 113.662L39.3367 112.803L40.2025 112.453L41.0683 112.796L41.4187 113.662Z" fill="#121315"/>
<path d="M51.1931 113.661L50.8495 114.527L49.9837 114.864L49.118 114.527L48.7812 113.661L49.1454 112.823L49.9837 112.466L50.8358 112.809L51.1931 113.661Z" fill="#121315"/>
<path d="M104.662 105.904L104.305 106.763L103.446 107.107L102.594 106.756L102.25 105.904L102.587 105.045L103.446 104.695L104.311 105.038L104.662 105.904Z" fill="#121315"/>
<path d="M99.6872 113.661L99.3436 114.506L98.4984 114.857L97.6258 114.534L97.2891 113.661L97.6326 112.795L98.4984 112.458L99.3574 112.809L99.6872 113.661Z" fill="#121315"/>
<path d="M109.512 113.662L109.14 114.514L108.288 114.899L107.423 114.528L107.086 113.662L107.423 112.796L108.288 112.425L109.154 112.803L109.512 113.662Z" fill="#121315"/>
<path d="M96.0497 93.8118L96.1596 94.3822L96.5651 94.98L96.352 95.5365L96.462 96.1344L95.8023 96.6085L96.1047 97.2475L95.5206 97.6873L95.3763 98.2301L95.7611 98.9585L95.177 99.357L95.0465 99.9205L94.7441 100.408L94.4143 100.876L94.0295 101.302L93.8165 101.831L93.418 102.236L93.15 102.745L92.7377 103.129L92.5728 103.768L92.188 104.208L91.4253 104.167L91.2191 104.861L90.6144 104.971L90.2571 105.548L89.515 105.266L89.0753 105.72L88.4981 105.761L87.9209 105.72L87.4193 106.331L86.8214 106.325L86.2649 105.85L85.6533 106.173L85.1173 105.878L84.5882 105.651L84.0111 105.555L83.4545 105.397L83.1109 104.82L82.3413 104.978L82.0665 104.366L81.6404 103.988L81.0976 103.734L80.6716 103.349L80.1837 102.999L80.1081 102.325L79.902 101.776L79.2355 101.528L78.8988 101.054L78.9743 100.367L78.8438 99.8105L78.5758 99.3158L78.0055 98.9241L78.0948 98.2851L78.1154 97.6942L77.7375 97.2063L77.8543 96.6085L77.655 96.0725L77.2909 95.5434L77.2221 94.9662L77.1328 94.3959L77.3939 93.8118L77.2359 93.2415L77.5107 92.6849L77.6207 92.1283L77.6069 91.558L77.6207 90.9808L77.6894 90.4105L77.9917 89.902L77.8474 89.2699L78.3422 88.8301V88.2254L78.4521 87.6413L79.1049 87.3253L79.2767 86.7824L79.4278 86.219L79.8126 85.7929L80.0119 85.2295L80.4379 84.8378L80.8571 84.4599L81.29 84.0957L81.7572 83.7728L81.8603 82.9894L82.3619 82.6733L82.9666 82.5428L83.6469 82.6321L84.0179 82.0687L84.5402 81.8282L85.1517 81.8969L85.6464 81.4434L86.258 81.6701L86.8214 81.7045L87.378 81.835L87.9827 81.5464L88.553 81.6632L89.089 81.8763L89.728 81.835L90.1403 82.3435L90.6694 82.5703L91.226 82.7627L91.6932 83.1131L91.8719 83.8002L92.4147 84.0339L92.9026 84.3499L93.2118 84.8378L93.4798 85.3532L94.0295 85.6624L94.27 86.1846L94.6548 86.6244L95.0121 87.0916L94.8816 87.7856L95.4175 88.1773L95.5206 88.7545L95.5343 89.3454L95.6786 89.8951L95.9329 90.4174L95.7611 91.0289L95.9466 91.5649L96.0222 92.1283L96.5994 92.6506L96.2902 93.2415L96.0497 93.8118Z" fill="#FCFCFC"/>
<path d="M92.7808 90.39L92.9525 90.9465L92.7876 91.4825L92.9525 92.0666L92.5059 92.5407L92.7327 93.166L92.3616 93.6332V94.2242L91.8325 94.5952L91.7019 95.1381L91.3859 95.5916L91.2759 96.1894L90.8224 96.533L90.4995 97.0002L90.1215 97.4194L89.5718 97.6118L89.0565 97.8179L88.5686 98.0447L88.067 98.2164L87.6341 98.7318L87.0294 98.4638L86.5003 98.4982L85.9712 98.4569L85.3665 98.7112L84.8237 98.5394L84.4458 98.0034L83.8892 97.9004L83.3945 97.653L83.0097 97.2613L82.5149 96.9796L82.2401 96.478L81.7453 96.1688L81.5598 95.6259L81.1132 95.2411L80.8864 94.7258L80.7146 94.1967L80.6322 93.6332L80.5497 93.0904L80.1099 92.6231L80.0206 92.0734L80.0687 91.5031L80 90.9465L80.2817 90.39V89.8471L80.0825 89.2837L80.1374 88.7271L80.1443 88.1636L80.5909 87.7032L80.4398 87.0779L80.7421 86.597L81.0513 86.1297L81.3399 85.6624L81.6491 85.2158L81.8072 84.6524L82.1576 84.2195L82.4393 83.7178L82.8791 83.3674L83.4082 83.1407L83.8823 82.8589L84.274 82.3917L84.9199 82.5085L85.4009 82.2268L85.9369 82L86.5003 82.1306L87.0294 82.3504L87.5722 82.3573L88.1288 82.3917L88.6373 82.5909L89.0839 82.9276L89.6268 83.0994L90.0872 83.4155L90.4101 83.8759L90.898 84.1851L91.2003 84.6524L91.4958 85.1196L91.9424 85.5113L92.1692 86.0266L92.0661 86.6794L92.4028 87.1329L92.3753 87.7101L92.7876 88.1774L92.9457 88.7133L92.7327 89.3043L92.9525 89.8334L92.7808 90.39Z" fill="#121315"/>
</g>
<defs>
<clipPath id="clip0_2987_173404">
<path d="M0 74C0 33.1309 33.1309 0 74 0C114.869 0 148 33.1309 148 74C148 114.869 114.869 148 74 148C33.1309 148 0 114.869 0 74Z" fill="white"/>
</clipPath>
</defs>
</svg>
