<svg width="148" height="148" viewBox="0 0 148 148" fill="none" xmlns="http://www.w3.org/2000/svg">
<path d="M81.5074 21.0168L81.7599 20.8156L81.9058 20.3296L82.192 19.9832L82.4725 19.648L82.8092 19.3855L82.8878 18.9777L83 18.581L82.899 18.1788L82.6802 17.8268L82.4781 17.4525L82.1807 17.1117L81.7655 16.8883L81.3053 17.095L80.8733 17.0838L80.4692 17.2626L80.0933 17.5531L79.6892 17.8101L79.2235 17.9721L78.8924 18.4358L79.3021 18.1341L79.6331 17.838L79.8015 17.3743L80.0933 17.0391L80.5085 16.838L80.8059 16.5084L81.1482 16.2291L81.541 16.0056L81.9114 15.7542L81.8889 15.2793L81.9114 14.8994L81.9899 14.514L81.8889 14.1397L81.6701 13.8212L81.3727 13.5363L81.1146 13.1397L80.6825 12.9497L80.2279 13.1341L79.852 13.324L79.4704 13.4637L79.1169 13.7486L78.7185 13.9721L78.2022 14.0279L77.9665 14.4693L77.6467 14.7933L77.1585 14.8939L76.8611 15.2626L76.4907 15.4246L76.8947 15.3184L77.035 14.8212L77.4222 14.6034L77.8487 14.4302L78.1854 14.1564L78.4547 13.8101L78.7016 13.4302L79.072 13.1899L79.5041 13.0112L79.7061 12.581L80.1045 12.3799L80.0708 11.9106L80.3738 11.5698L80.2223 11.162L80.2784 10.7207L79.88 10.4749L79.6724 10.0559L79.2628 9.84358L78.8082 9.7933L78.3032 9.89944L78.2303 9.43017L78.1461 9.01676L77.8206 8.7486L77.5906 8.37989L77.209 8.1676L76.7713 8.22905L76.3504 8.13967L75.9745 8.2905L75.9071 7.86034L76.0811 7.40223L75.9464 6.95531L75.5817 6.64246L75.3572 6.25698L75.1215 5.82682L74.594 5.83799L74.2125 5.58101L73.7635 5.63129L73.281 5.51397L72.8713 5.75978L72.5795 6.12849L72.2372 6.41341L71.7322 6.49721L71.4628 6.8771L71.1037 7.14525L70.6885 7.34078L70.3013 7.56983L69.9365 7.8324L69.6504 8.19553L69.3978 8.60335L68.8984 8.69832L68.7188 9.21229L68.8872 8.67598L69.3081 8.43575L69.6728 8.13967L69.9814 7.77654L70.2957 7.43017L70.5089 7.11732L70.8288 6.83799L70.8905 6.43575L70.7614 6.05028L70.6604 5.68156L70.4584 5.35196L70.1554 5.10056L69.8524 4.80447L69.4427 4.67039L69.0443 4.91061L68.5617 4.73743L68.3148 5.15084L67.9894 5.43017L67.5741 5.60335L67.3665 6.02793L66.912 6.15642L66.5192 6.35754L66.3115 6.78212L65.9748 7.05028L65.6662 7.35196L65.3351 7.62011L65.0041 7.89386L64.6842 8.18436L64.3531 8.4581L63.8425 8.51397L63.5563 8.83799L63.214 9.10615L63.0344 9.56425L62.5182 9.61453L62.1703 9.8771L61.9739 10.3128L61.626 10.5698L61.1827 10.7207L61.0312 11.2123L60.7001 11.4916L60.3129 11.7039L59.9874 11.9888L59.488 12.067L59.2074 12.4078L58.9942 12.838L58.6631 12.8659L58.8202 12.6536L59.2972 12.5363L59.3814 12.0056L59.9257 11.9553L60.1333 11.5531L60.3914 11.2011L60.8516 11.0559L61.1546 10.7542L61.2668 10.2514L61.5586 9.93296L62.03 9.80447L62.3611 9.52514L62.5126 9.06145L62.8773 8.82123L63.186 8.51397L63.4441 8.16201L63.8986 8.01117L64.1175 7.61453L64.6 7.48603L64.7459 7.01117L65.077 6.7095L65.1107 6.26257L65.1444 5.84358L65.0209 5.44693L64.875 5.03352L64.5551 4.68156L64.1175 4.46369L63.618 4.37989L63.1467 4.54749L62.81 4.90503L62.3555 5.04469L62.1142 5.44134L61.727 5.6648L61.4071 5.97207L61.1546 6.39665L61.3061 5.88827L61.1209 5.45251L61.2556 4.97207L61.0648 4.55307L60.7337 4.22905L60.5037 3.84916L60.1726 3.54749L59.7798 3.34078L59.3814 3.14525L58.9381 3.08939L58.5004 3L58.0515 3.02793L57.6474 3.24022L57.3051 3.51397L56.9628 3.76536L56.4803 3.92737L56.0987 4.21229L55.8406 4.63687L55.56 5.02793L55.1672 5.40223L54.7407 5.03911L54.3086 5.07821L54.0393 5.46927L53.5904 5.52514L53.4164 5.94972L53.1527 6.27374L52.6925 6.39106L52.412 6.70391L52.1819 7.06704L51.8676 7.34078L51.458 7.50838L51.256 7.90503L50.8969 8.13967L50.5826 8.41341L50.3301 8.76536L50.0495 8.93855L49.9485 8.57542L49.4996 8.35196L49.1966 8.05028L48.7701 7.96089L48.3829 7.73184L47.9621 7.8771L47.4402 7.7933L47.2494 8.30168L46.9071 8.46927L46.6827 8.76536L46.374 8.93296L46.5648 8.57542L46.5312 8.15084L46.6883 7.74302L46.6097 7.31844L46.273 7.02793L46.0486 6.68156L45.8017 6.28492L45.3079 6.36872L44.9263 6.22905L44.5447 6.40223L44.1182 6.39106L43.7591 6.64805L43.4729 6.3352L43.198 6.07263L42.9847 5.65363L42.5414 5.65922L42.1374 5.58101L41.7109 5.60894L41.4135 5.92179L41.0824 6.15084L40.7008 6.31844L40.5269 6.67598L40.28 7.10056L40.207 6.51955L39.8535 6.18436L39.3934 6.12849L39.0286 5.89385L38.6078 5.97207L38.1869 6.02793L37.7548 6.16201L37.5135 6.5419L37.261 6.82123L36.9973 7.10056L36.8346 7.44134L36.38 7.55307L35.9143 7.64246L35.5271 7.92179L35.2746 8.32402L35.0557 8.68156L34.792 9.00559L34.6293 9.39106L34.3767 9.72626L34.2757 10.1453L34.0288 10.486L33.9054 10.8939L33.4845 11.1397L33.3274 11.5363L33.1254 11.8994L33.1759 12.4078L32.8111 12.676L32.7663 13.1285L32.5474 13.5419L32.6428 13.9944L32.9402 14.3352L33.2152 14.6648L33.5967 14.9274L33.6304 15.3296L33.5967 15.7263L33.7483 16.095L34.1691 16.2235L34.2982 16.648L34.4946 16.9665L34.6012 17.3743L34.1972 17.6648L34.0625 18.1229L33.636 18.3408L33.2825 18.6201L33.1478 19.0782L32.8616 19.4134L32.6091 19.7765L32.3229 20.1117L32.0424 20.4525L31.7786 20.8045L31.4981 21.1453L31.0043 21.3017L30.7798 21.6872L30.4936 22.0223L30.3982 22.514L29.8988 22.676L29.607 23.0056L29.4948 23.4804L29.1974 23.8101L28.7933 24.0447L28.7372 24.5642L28.4679 24.9162L28.1312 25.2067L27.8618 25.5531L27.3849 25.7374L27.1772 26.1341L27.0594 26.6034L26.5432 26.7486L26.4983 27.2793L26.0998 27.6201L26.3524 28.1229L26.0325 28.5866L26.285 29.0112L26.5544 29.3855L26.6722 29.8827L26.9752 30.0838L26.9528 30.4358L26.7059 30.7542L26.2682 30.8883L25.982 31.1564L25.9371 31.6145L25.7295 31.9553L25.707 32.3464L25.8529 32.7821L25.4096 33.0615L25.3479 33.5028L25 33.8603L25.2188 34.3017L25.202 34.7263L25.4545 35.0726L25.6509 35.4246L25.9259 35.7151L26.184 36.0559L26.4983 36.2905L26.3075 36.6313L26.2009 37.0447L26.2906 37.4637L26.5488 37.7989L26.6273 38.2514L27.0145 38.5084L27.4354 38.6872L27.8899 38.648L28.3444 38.7989L28.7036 38.5866L28.8887 38.905L29.1805 39.2011L29.4723 39.5196L29.9212 39.486L30.3309 39.676L30.7237 39.4525L30.6227 39.8715L30.6395 40.2626L30.3646 40.7207L30.763 41.0279L30.8247 41.5028L31.3017 41.6034L31.571 42L32.0368 41.838L32.4408 41.9665L32.8897 41.9553L33.2264 41.6648L33.5238 41.2905L33.9727 41.1117L34.3655 40.8603L34.719 40.5531L35.0557 40.2291L35.3756 40.0615L35.7123 40.2905L35.8413 40.6983L36.0209 41.1341L36.4361 41.3296L36.8795 41.3967L37.2835 41.7318L37.738 41.5531L38.1364 41.3464L38.4731 41.0726L38.8322 40.838L39.225 40.6425L39.4719 40.257L39.9433 40.1676L40.28 39.8994L40.6111 39.6201L40.987 39.4022L41.2115 38.9832L41.5594 38.7207L41.9578 38.3911L42.2159 38.7374L42.2328 39.0894L42.547 39.3687L42.9342 39.5196L43.3214 39.6313L43.7535 39.8603L44.1968 39.7207L44.5054 39.3799L44.8646 39.1173L45.2237 38.8492L45.6445 38.6592L46.0373 38.4302L46.2618 37.9888L46.5873 37.676L47.0923 37.5922L47.2719 37.0894L47.6647 36.8659L48.0743 36.6592L48.4727 36.4358L48.7308 36.0279L49.1293 35.743L49.3874 36.2514L49.5052 36.6536L49.6623 37.1061L50.072 37.3184L50.5377 37.2849L50.9586 37.5587L51.3682 37.324L51.7386 37.1006L52.0528 36.7933L52.513 36.6816L52.7543 36.2737L53.1302 36.0503L53.5006 35.8101L53.8148 35.5028L54.1796 35.2626L54.5275 34.9944L54.8922 34.7486L55.3019 34.5698L55.6273 34.2682L56.138 34.2346L56.4017 33.8492L56.7721 33.6089L57.1592 33.3967L57.5745 33.2235L57.9056 32.7542L57.7597 33.2737L57.8943 33.7039L58.001 34.1061L58.0178 34.5866L58.4499 34.7765L58.7529 35.0447L59.1233 35.2291L59.5329 35.324L59.9818 35.5251L60.4251 35.3743L60.6889 34.9497L61.1209 34.7989L61.5699 34.6816L61.9122 34.4022L62.1703 34.0056L62.5575 33.7877L62.8605 33.4581L63.3206 33.352L63.7583 33.2067L64.1175 32.9553L64.4092 32.6145L64.7179 32.2849L65.0321 31.9721L65.5372 31.9218L65.8738 31.6425L66.059 31.1564L66.4799 31.0112L66.8895 30.8436L67.1196 30.4413L67.4955 30.2291L67.9501 30.1341L68.1521 29.6872L68.5786 29.5587L68.977 29.3799L69.2856 29.0782L69.5493 28.7151L69.9421 28.5587L69.9758 28.9665L69.9365 29.4078L70.1722 29.7821L70.3462 30.2123L70.739 30.4581L71.2103 30.4358L71.6144 30.4804L72.0913 30.6257L72.5234 30.4469L72.7254 29.9553L73.1014 29.7318L73.5503 29.6145L73.9768 29.4637L74.3584 29.2514L74.7287 29.0223L75.0261 28.6816L75.3348 28.3631L75.7668 28.2346L76.1709 28.0559L76.4402 27.6648L76.7601 27.352L77.2763 27.3464L77.5793 27.0112L78.0002 26.8436L78.2359 26.4078L78.595 26.1508L78.999 25.9721L79.4255 25.8212L79.7902 25.5754L80.1999 25.3966L80.6039 25.2179L80.862 24.8101L81.2156 24.5419L81.5747 24.2793L82.0068 24.1341L82.2593 23.7542L82.6745 23.5084L82.8373 23.0615L82.7587 22.5978L82.7475 22.1341L82.4894 21.7486L82.0573 21.5531L81.715 21.3296L81.5074 21.0168Z" fill="#121315"/>
<path d="M127.607 79.2985L128.324 78.7749L128.291 77.7726L128.997 77.125L128.974 76.2241L128.924 75.3682L128.683 74.546L129.294 73.6169L129.025 72.7667L128.644 71.9671L128.302 71.1506L127.837 70.3961L126.749 70.2328L126.492 69.2586L125.87 68.5886L125.023 68.2957L124.172 68.0649L123.241 68.3858L122.423 68.3521L121.571 67.7101L120.686 68.1156L119.817 68.5886L118.864 68.2957L117.951 68.3802L116.987 68.1606L116.034 68.7575L116.819 68.0705L117.783 68.1437L118.657 68.0142L119.273 67.2653L119.979 66.7191L121.011 66.9669L121.638 66.2405L122.339 65.6943L123.258 65.6774L124.16 65.6154L124.738 64.8046L125.679 64.7314L126.34 64.1176L127.237 63.7967L127.775 63.0477L128.543 62.4734V61.426L128.61 60.5251L128.812 59.7086L129.4 58.9147L129.412 58.0193L129.165 57.1522L128.683 56.3807L128.425 55.5699L128.111 54.7759L127.618 54.0777L127.119 53.3682L126.643 52.5855L126.06 51.8253L124.973 51.9717L124.216 51.5551L123.499 50.7442L122.563 50.7217L121.661 51.2228L120.803 51.2904L119.851 51.0877L119.021 51.3411L118.237 51.7521L117.368 51.8704L116.651 52.5574L115.664 52.4785L116.454 52.0055L117.379 51.7972L117.553 50.671L118.618 50.4852L119.038 49.6912L119.52 48.9423L119.425 47.9738L120.26 47.2756L119.879 46.3352L119.778 45.4793L119.923 44.5896L120.069 43.6267L119.486 42.8778L119.178 42.0276L118.315 41.5546L118.08 40.6142L117.418 40.0117L116.365 40.0004L115.984 38.9137L115.137 38.5815L114.213 38.5983L113.355 38.3675L112.475 38.5815L111.551 38.1648L110.682 38.7447L111.618 38.2549L112.397 37.9057L113.226 37.551L113.316 36.4755L114.263 36.1207L114.627 35.3155L114.644 34.4258L115.064 33.615L114.751 32.7535L114.835 31.875L114.717 30.991L114.347 30.1801L113.428 29.7578L113.064 28.9751L112.649 28.1249L111.691 28.0066L110.923 27.68L110.049 27.8095L109.286 27.4041L108.491 27.7757L107.56 27.2183L106.882 27.8996L105.834 27.7082L105.022 28.153L104.31 28.8681L103.223 28.5979L102.825 29.0877L102.998 28.6316L103.71 28.1192L104.439 27.5336L104.517 26.6045L104.584 25.7317L104.411 24.8646L104.702 24.0706L104.909 23.226L104.315 22.4771L104.646 21.5311L103.839 20.9455L103.52 20.2022L103.077 19.5321L103.105 18.4228L102.376 17.9217L101.872 17.139L100.706 17.4036L100.011 16.9982L99.2603 16.6829L98.5205 16.1704L97.6518 16.4464L96.8392 16.4407L95.9313 15.9002L95.2027 16.604L94.1996 16.4013L93.3757 16.8518L92.5463 17.3192L91.6496 17.2009L90.9435 17.7189L90.1757 18.0399L89.2453 17.8879L88.4271 18.0512L87.7882 18.7776L86.8747 18.7607L85.9892 18.8451L85.3391 19.594L84.577 20.022L83.8148 20.4499L82.7275 19.9938L82.2175 21.0975L81.1135 20.6245L80.5138 21.4804L79.4938 21.227L78.8661 21.9928L77.9919 22.1111L77.1176 22.2518L76.3778 22.7136L75.5932 23.0739L74.988 23.8848L74.2146 24.2733L73.0937 23.7947L72.6005 24.8758L71.7206 25.011L70.7062 24.8139L70.1794 25.788L69.294 25.9119L68.5262 26.3061L67.7191 26.6101L66.9962 27.1226L66.2396 27.5505L65.2869 27.5111L64.3453 27.5055L63.8466 28.5359L62.9387 28.6035L62.1036 28.8512L61.1621 28.8569L60.4391 29.3637L59.5761 29.5551L59.038 30.4898L58.1806 30.6869L57.1942 30.5968L56.5161 31.205L55.7259 31.571L54.9189 31.8976L54.2519 32.5282L53.2936 32.5057L52.7612 33.4517L51.6628 33.1082L51.0463 33.8684H50.5923L50.7268 33.401L51.6403 33.1533L52.184 32.4663L53.0358 32.151L53.3945 31.2388L54.28 30.9628L54.9749 30.4617L55.3112 29.5044L56.4264 29.5382L57.0709 28.9695L57.4632 28.0742L58.0012 27.3647L58.9988 27.2577L59.3351 26.2779L60.1029 25.8669L60.8707 25.4558L61.8626 25.3601L62.4118 24.6562L63.2637 24.3747L63.897 23.7891L64.4798 23.1246L64.8946 22.218L65.6175 21.7507L66.503 21.5254L67.1923 21.013L67.9265 20.5626L68.7503 20.2529L69.294 19.5208L69.8264 18.8001L70.6278 18.389L71.5861 17.9498L71.6029 16.9137L72.2923 16.1817L72.1802 15.2132L72.2811 14.301L72.0793 13.4057L71.7262 12.5779L71.4516 11.7277L70.7511 11.1364L70.4428 10.2693L70.0225 9.36831L68.8848 9.48093L68.1787 8.98541L67.4782 8.24213L66.5703 8L65.6511 8.42232L64.7937 8.58561L63.9362 8.76017L63.2749 9.39647L62.2325 9.35705L61.8514 10.303L60.9996 10.5846L60.327 11.1083L59.7834 11.8178L58.7466 11.8797L58.3879 12.8707L57.5417 13.1973L56.7571 13.6084L56.2751 14.4192L55.1486 14.3798L54.9245 15.5342L54.2351 16.0691L53.3328 16.3281L52.7892 17.0489L52.1055 17.5951L50.9846 17.5725L50.3065 18.13L49.7573 18.8451L49.2025 19.5546L48.2777 19.7911L47.7958 20.5907L47.0112 21.013L46.3947 21.6381L45.6997 22.173L44.9488 22.6347L44.3659 23.3048L43.5981 23.7553L42.9536 24.3465L42.4268 25.0729L41.631 25.4896L41.3172 26.4694L40.2075 26.5313L40.0898 27.7194L38.8625 27.6519L38.756 28.8512L37.8761 29.1835L37.3829 29.9436L36.8169 30.6194L35.7409 30.7489L35.5727 31.8469L34.7041 32.2073L34.1604 32.9055L33.3983 33.3785L32.7201 33.9472L32.0644 34.5328L31.745 35.445L31.2126 36.1376L30.1029 36.3122L29.5985 37.0442L28.9428 37.6411L28.8195 38.6941L28.2983 39.3979L27.5025 39.8766L26.9309 40.5523L26.5274 41.3462L26.1407 42.1852L25.7147 42.9848L25.2215 43.7394L24.6891 44.4657L23.8037 44.9951L23.8877 46.0762L23.1031 46.69L22.8117 47.5571L22.2961 48.3286L22.0439 49.1676L21.9822 50.0403L21.943 50.9075L22.1111 51.7521L21.9486 52.7207L22.7725 53.3175L23.2488 54.0101L23.8709 54.5732L24.1119 55.598L24.9806 55.9078L25.7596 56.3019L26.5386 56.758L27.34 56.6904L26.9645 57.4619L25.9893 57.4563L25.356 58.0137L24.8236 58.7514L23.6748 58.436L23.0919 59.0836L22.5259 59.7649L21.8085 60.1816L20.867 60.2323L20.4242 61.1445L19.8022 61.7188L19.2305 62.3495L18.4515 62.9013L18.6701 63.9318L17.9695 64.63L17.6781 65.5197L17.7061 66.4432L18.502 67.1808L18.8214 67.9466L18.5132 69.0897L19.0512 69.8499L19.9591 70.2497L20.7549 70.6382L20.9286 71.2351L20.57 71.7081L19.9086 72.2317L18.9503 72.395L18.3394 73.0482L18.0368 73.9041L17.3026 74.5123L17.2354 75.4301L17.028 76.286L17 77.1644L17.6893 77.9302L17.8631 78.7073L18.1825 79.4337L17.8182 80.5993L18.6925 81.0385L19.4547 81.4552L19.7797 82.4068L20.6428 82.6489L21.4274 82.9811L22.3409 82.6602L23.1087 82.998L23.9942 83.5724L25.0478 82.7559L25.1151 84.0003L24.5883 85.1434L25.6363 85.6953L26.0005 86.4273L25.8941 87.5929L26.6731 88.1165L27.581 88.3699L27.9228 88.8204L27.368 89.5468L26.1911 89.5074L25.3729 89.924L24.6499 90.4871L23.8709 90.9714L23.2152 91.6246L22.5483 92.289L22.2737 93.2012L22.1448 94.1247L22.2625 95.0594L21.6964 95.8421L21.3377 96.7374L21.8197 97.6046L21.8982 98.4943L22.2681 99.2545L22.3185 100.161L22.5539 101.051L23.7532 101.191L23.9101 102.188L24.4986 102.847L25.4513 102.943L26.0622 103.596L27.0037 103.449L27.6594 104.317L28.5225 104.502L29.3912 103.821L30.2542 104.148L31.0276 103.725L31.8515 103.348L32.7986 103.455L33.6897 103.359L34.5191 103.01L35.2757 102.385L36.15 102.188L37.1083 102.29L37.4278 103.05L37.6856 103.889L38.3749 104.379L38.9185 105.032L39.8432 105.082L40.1739 105.55L39.8656 106.175L39.9161 107.211L39.1595 107.971L38.9353 108.923L39.4341 109.874L39.0362 110.888L40.045 111.502L39.9777 112.431L40.4597 113.14L40.8688 113.9L41.7655 114.205L42.2587 114.891L43.0713 115.145L43.5477 116.08L44.4388 116.142L45.229 116.57L46.1089 116.44L46.9607 116.423L47.7958 116.249L48.7373 116.153L49.5892 115.59L50.6708 116.164L51.7356 115.387L51.0183 116.648L51.8813 117.639L51.758 118.557L52.2288 119.306L52.6547 120.055L53.1479 120.776L53.8092 121.35L54.3921 122.088L55.3728 122.077L56.0902 122.724L57.0261 122.459L57.8667 122.296L58.6906 122.223L59.8675 122.724L60.7025 122.229L61.4031 122.831L62.2045 122.673L63.0732 122.944L63.897 122.319L64.7825 123L65.6287 122.82L66.4526 122.223L67.3156 122.364L68.1787 122.555L69.0418 122.752L69.8824 122.414L70.7175 122.026L71.5749 122.116L72.4436 122.375L73.273 121.84L74.1529 122.403L74.9936 122.11L75.8286 121.643L76.6917 121.924L77.5379 121.716L78.3898 121.598L79.2528 121.801L80.1047 121.772L81.007 121.964L81.8869 121.525L82.7836 121.654L83.7027 122.172L84.5826 121.778L85.4905 121.964L86.3591 121.198L87.2894 122.037L88.1637 121.497L89.0604 121.502L89.8898 121.131L90.7249 121.035L91.5767 121.316L92.4118 121.221L93.2637 121.615L94.1043 121.711L94.9225 120.962L95.7688 121.181L96.6038 121.046L97.4501 121.452L98.2963 121.53L99.137 121.288L99.972 121.108L100.818 120.883L101.205 119.909L102.253 119.897L102.298 118.794L103.357 118.552L103.598 117.707L103.402 116.767L103.609 116.012L104.024 115.207L104.865 114.734L105.868 115.297L106.703 114.948L107.471 114.283L108.367 114.266L109.331 114.616L110.06 113.765L111.007 113.996L111.792 113.444L112.727 113.63L113.501 113.033L114.347 112.78L115.261 112.893L116.045 112.487L117.116 112.763L117.586 111.761L118.186 111.153L119.066 110.86L119.666 110.218L120.405 109.627L120.372 108.619L120.809 107.847L121.151 106.997L121.409 106.09L120.764 105.234L120.775 104.35L120.983 103.337L120.114 102.729L119.559 102.059L119.621 101.355L120.125 100.617L121.257 100.758L121.879 100.009L122.675 99.6824L123.174 98.956L124.194 98.7421L124.541 97.8974L124.956 97.1203L124.766 96.1687L125.685 95.4367L125.276 94.5301L125.04 93.6968L124.609 92.9478L124.743 91.9681L124.278 91.2192L123.544 90.5266L124.788 90.6335L125.573 89.6763L126.408 89.4567L127.243 89.1639L127.938 88.6233L128.498 87.942L129.26 87.3901L129.064 86.3203L129.927 85.6896L130 84.783L129.468 83.9159L129.86 82.998L129.456 82.1928L128.885 81.5115L128.879 80.5092L128.038 80.0643L127.607 79.2985Z" fill="#C6F065"/>
<path d="M74.1779 61.6217L74.6267 62.0985L74.4304 62.5584L74.3799 63.0296L74.0153 63.4447L74.0321 63.9159L74.2565 64.4376L73.8975 64.8302L73.6619 65.2453L73.6899 65.7389L73.7741 66.2718L73.2187 66.5466L73.0112 66.9561L72.8037 67.3712L72.6017 67.7807L72.4615 68.2463L72.1137 68.566L71.9567 69.0428L71.4462 69.2054L71.1489 69.5532L70.9133 69.9851L70.5936 70.3385L70.2851 70.7312L69.7129 70.6975L69.253 70.8041L68.8603 71.0453L68.4396 71.2248L68.0638 71.6287L67.5982 71.7465L67.0822 71.3482L66.6391 71.7016L66.1623 71.6848L65.7079 71.5445L65.2704 71.3538L64.7768 71.3931L64.2944 71.3314L63.9634 70.9163L63.6381 70.5517L63.0884 70.5741L62.8023 70.1759L62.4433 69.8842L61.9721 69.7103L61.7478 69.2784L61.3775 68.9867L61.17 68.5548L60.8222 68.235L60.6147 67.8143L60.3062 67.461L60.2164 66.9786L59.7565 66.6813L59.5826 66.2437L59.8013 65.666L59.1955 65.3743L59.0834 64.9087L59.2292 64.3927L59.1338 63.9383L58.9656 63.4896L59.0385 63.0128L59.016 62.5528L59.0217 62.0873L58.9712 61.6217L58.7188 61.1505L58.7917 60.6849L58.9263 60.225L58.9095 59.7482L58.8646 59.2658L58.9375 58.7946L59.1787 58.3627L59.6499 58.0149L59.4704 57.4708L59.9472 57.1511L59.9584 56.6575L60.2108 56.2648L60.4184 55.8497L60.452 55.3281L60.8839 55.0532L61.1588 54.6774L61.3663 54.2511L61.6805 53.9033L61.9777 53.5387L62.376 53.2751L62.8191 53.0956L63.2062 52.8488L63.4137 52.2935L63.8737 52.1364L64.4458 52.2822L64.7543 51.7718L65.2087 51.626L65.6967 51.6484L66.1735 51.654L66.6391 51.7381L67.0934 51.8167L67.5814 51.6035L67.9965 51.9289L68.4396 52.0354L69.0006 51.8615L69.2586 52.4449L69.6625 52.6468L70.201 52.6524L70.4085 53.1629L70.9021 53.2807L71.3284 53.5051L71.6874 53.8192L71.895 54.2623L72.0296 54.7447L72.6129 54.9018L72.5961 55.4739L72.8373 55.861L73.1795 56.2087L73.5665 56.5453L73.5609 57.0613L73.6058 57.5381L73.6731 57.9981L73.8302 58.4356L74.105 58.8451L74.3518 59.2714L74.4528 59.737L74.1723 60.2418L74.3911 60.6906L74.5874 61.1505L74.1779 61.6217Z" fill="#FCFCFC"/>
<path d="M73.7644 63.7472L73.9719 64.2072L73.8654 64.6559L73.8598 65.1159L73.5737 65.5254L73.4054 65.9405L73.3549 66.3892L73.1081 66.7706L73.0184 67.2194L72.8164 67.6176L72.7099 68.0776L72.3957 68.4142L71.9863 68.661L71.8236 69.1153L71.5095 69.4463L71.0663 69.6089L70.6793 69.8165L70.3652 70.1979L69.8884 70.2147L69.4621 70.3213L69.0302 70.4167L68.587 70.4952L68.1215 70.5794L67.6727 70.484L67.2408 70.3269L66.9099 69.9623L66.3658 70.0353L66.0573 69.6706L65.7487 69.3397L65.429 69.0312L65.0756 68.7507L64.9242 68.302L64.6269 67.971L64.1894 67.7074L64.1333 67.225L63.8584 66.8548L63.8304 66.3836L63.5611 65.9966L63.5555 65.531L63.3367 65.1159L63.2526 64.6616L63.4994 64.1904L63.1797 63.7472L63.3031 63.2929L63.2021 62.8273L63.5836 62.4235L63.6901 61.9915L63.4602 61.4699L63.9145 61.1389L63.7574 60.6004L63.965 60.191L64.1669 59.7759L64.4642 59.4169L64.7839 59.0915L64.9691 58.654L65.429 58.4633L65.7544 58.1604L66.0573 57.8294L66.3882 57.4929L66.9043 57.5265L67.2969 57.3358L67.7064 57.1563L68.1383 57.0666L68.587 57.061L69.0358 57.0329L69.5014 57.0049L69.8716 57.347L70.3876 57.2629L70.8195 57.4368L71.0551 57.908L71.5319 58.0314L71.846 58.3623L72.2387 58.6204L72.5191 58.9906L72.5528 59.5178L72.8837 59.8376L73.0352 60.2695L73.2708 60.6565L73.2988 61.1221L73.5569 61.5147L73.7027 61.9411L73.641 62.4122L73.9159 62.8329L73.9663 63.2873L73.7644 63.7472Z" fill="#121315"/>
<path d="M75 73L76.0027 74.2523L77.4119 74.8629L78.9187 75L80.4688 74.8567L81.916 74.2274L83 73.0062" stroke="#121315" stroke-width="4" stroke-miterlimit="10" stroke-linecap="round"/>
<path d="M29.9024 95.0527L29.4152 95.0087L29.0063 95.2727L28.6031 95.4761L28.3679 95.8556L28.0151 96.2185L27.9367 96.708L27.8191 97.1864L27.7239 97.6813L27.7855 98.2258L27.3375 98.5997L27.2479 99.1001L27.1695 99.5621L26.8167 99.9085L26.6543 100.343L26.4079 100.728L26.0663 101.014L26.0439 101.179L26.1839 100.744L26.0439 100.249L26.0831 99.7381L26.0327 99.2101L26.1839 98.7097L26.5647 98.2973L26.4079 97.7528L26.6039 97.1754L26.2623 96.7025L25.7919 96.5595L25.3775 96.4165L24.935 96.3725L24.4534 96.4055L24.1118 96.741L23.703 96.9994L23.395 97.3624L23.0646 97.7088L22.6726 97.9838L22.2862 98.2643L21.8942 98.5447L21.4965 98.8032L21.2053 99.2486H20.6565L20.2477 99.4961L19.7605 99.5401L19.4301 99.9085L19.0773 99.804L19.0325 99.3146L18.9597 98.7482L19.2061 98.2533L19.6317 97.9398L19.9565 97.5658L20.3765 97.2854L20.6285 96.8454L21.1101 96.6365L21.4797 96.323L21.7766 95.9106L22.2134 95.6631L22.4822 95.2012L22.863 94.8712L23.2998 94.6292L23.8934 94.6347L24.1454 94.0903L24.7334 94.1178L25.1702 93.8868L25.5343 93.5074L26.0551 93.4414L26.5031 93.2214L26.8167 92.743L27.2759 92.5505L27.8135 92.5065L28.2951 92.38L28.6535 92.0611L28.9671 91.7146L28.9615 91.2417L28.9279 90.8457L28.8159 90.4773L28.7207 90.0648L28.4743 89.6579L27.9871 89.6689L27.5727 89.7129H27.1527L26.7159 89.9109L26.1671 89.8394L25.7191 90.0153L25.3495 90.4003L24.9014 90.5708L24.4198 90.6698L23.9942 90.9062L23.4622 90.8567L22.9974 90.9777L22.6278 91.3847L22.1574 91.5056L21.7038 91.6706L21.1829 91.6211L20.8189 92.0721L20.3037 92.0391L19.8669 92.27L19.3573 92.248L18.9149 92.4735L18.3997 92.435L17.9125 92.4845L17.4756 92.721L17.0444 93.007L16.5292 92.9355L16.0588 93.0564L15.622 93.3534L15.1012 93.2104L14.6476 93.4524L14.1492 93.4194L13.6675 93.4689L13.1915 93.5734L12.7043 93.5954L12.2115 93.5734L11.7411 93.7988L11.2427 93.5679L10.7667 93.8483L10.2738 93.8428L9.79223 93.7383L9.29942 93.7823L8.82901 93.5459L8.3362 93.5899L7.83778 93.6504L7.38417 93.4029L6.92496 93.2489L6.44335 93.1279L5.90013 93.1664L5.42412 92.9795L5.06011 92.6055L4.55609 92.38L4.30969 91.9181L4.18649 91.4177L4.08568 90.9337L4.03528 90.4443L3.88968 89.9549L3.83368 89.4489L4.10808 88.976L4.24809 88.503L4.32089 88.0136L4.38809 87.5242L4.37689 87.0182L4.47209 86.5343L4.8641 86.1659L4.8697 85.6379L5.13291 85.2255L5.51932 84.879L5.73773 84.4501L5.83853 83.9496L6.15774 83.5757L6.44895 83.1907L6.62815 82.7233L7.05936 82.4373L7.28337 82.0029L7.56338 81.6069L7.97779 81.3155L8.26899 80.9305L8.6442 80.6171L8.96901 80.2596L9.21542 79.8307L9.61303 79.5337L9.87624 79.1158L10.3018 78.8518L10.5259 78.3844L10.8955 78.0654L11.3491 77.8454L11.6963 77.5045L12.0043 77.1195L12.3011 76.7181L12.8779 76.6411L13.1355 76.1902L13.5723 75.9592L13.8859 75.5687L14.4236 75.4698L14.7428 75.0848L15.1292 74.7823L15.5828 74.5734L15.8796 74.1609L16.3164 73.93L16.6468 73.545L17.05 73.2645L17.5204 73.0886L17.8509 72.6981L18.3773 72.6101L18.7693 72.3187L19.2061 72.0877L19.5981 71.7907L20.0685 71.6203L20.3933 71.2078L20.9421 71.1748L21.2221 70.6909L21.7598 70.6359L22.1798 70.3939L22.5382 70.0255L23.0814 69.987L23.479 69.6955L23.8374 69.3326L24.291 69.1456L24.795 69.0631L25.0862 68.5682L25.5063 68.3152L26.0551 68.3097L26.4135 67.9632L26.9287 67.7268L27.1471 67.1933L27.0015 66.6434L26.5927 66.2915L26.1279 66.0165L25.5231 66L25.1142 66.2805L24.7334 66.6104L24.2238 66.6654L23.731 66.7699L23.3222 67.0394L22.8798 67.2428L22.5662 67.6993L22.051 67.7598L21.6814 68.0952L21.2613 68.3372L20.8525 68.5957L20.2813 68.5682L19.8893 68.8651L19.4133 69.0136L19.1557 69.5305L18.7245 69.756L18.2429 69.888L17.8677 70.2124L17.4308 70.4159L16.8932 70.4764L16.658 71.0043L16.0868 71.0153L15.8068 71.4718L15.2804 71.5543L14.9556 71.9392L14.4236 72.0272L14.1212 72.4397L13.8299 72.8631L13.3707 73.0501L12.9563 73.3085L12.6371 73.6825L12.1779 73.875L11.8027 74.1829L11.3659 74.4139L10.8955 74.6064L10.6883 75.1178L10.2178 75.3103L9.83704 75.6127L9.38342 75.8327L9.26582 76.4266L8.70581 76.5366L8.5322 77.059L7.93299 77.1415L7.73138 77.6255L7.30017 77.8839L7.08176 78.3459L6.54415 78.5054L6.25294 78.9013L6.02333 79.3467L5.60332 79.6272L5.41292 80.1001L5.13851 80.4961L4.6681 80.7491L4.6401 81.3265L4.07448 81.5245L3.92888 82.0084L3.80568 82.4978L3.36886 82.8003L3.32966 83.3337L3.04965 83.7242L2.70245 84.0926L2.66884 84.604L2.23763 84.945L2.01363 85.374L1.87362 85.8414L1.96323 86.3803L1.71682 86.8038L1.68882 87.2987L1.61602 87.7826L1.33601 88.2281L1.45361 88.7395L1.26881 89.2069L1.1512 89.6909L1.20721 90.1858L1 90.6863L1.22961 91.1647L1.34161 91.6486L1.40881 92.1436L1.56562 92.622L1.96323 92.9849L2.14243 93.4469L2.41124 93.8703L2.83125 94.1618L3.10006 94.6017L3.39126 95.0472L3.98488 95.0857L4.42169 95.3111L4.7521 95.7841L5.22251 96.0041L5.77133 95.9711L6.24734 96.0645L6.72895 96.125L7.21057 96.1965L7.70898 96.169L8.17379 96.334L8.661 96.367L9.15382 96.2955L9.62983 96.554L10.1226 96.3285L10.6043 96.433L11.0915 96.378L11.5731 96.323L12.0771 96.598L12.5643 96.5705L13.0347 96.345L13.5107 96.1745L13.9923 96.1525L14.5132 96.367L14.9948 96.29L15.4652 96.125L15.93 95.9601L16.4396 96.015L16.8932 95.8061L17.3972 95.8226L17.8509 95.5641L17.6324 96.0096L17.1452 96.2405L16.9268 96.6695L16.8988 97.1864L16.518 97.5219L16.4564 97.9948L16.35 98.4457L15.9748 98.8527L16.266 99.3531L16.238 99.804L16.294 100.26L16.1428 100.794L16.3332 101.261L16.854 101.498L17.1508 101.85L17.3972 102.323L17.9181 102.383L18.3493 102.614L18.8421 102.587L19.3125 102.565L19.7885 102.57L20.2421 102.438L20.7797 102.51L21.1437 102.147L21.5638 101.954L22.1182 102.009L22.387 101.525L22.8742 101.432L23.2606 101.118L23.4342 101.558L23.395 102.02L23.6246 102.477L23.8038 102.977L24.179 103.351L24.7838 103.39L25.1814 103.67L25.6183 103.945L26.1279 104L26.6151 103.912L27.0407 103.67L27.5167 103.577L28.0263 103.45L28.2111 102.933L28.5527 102.603L28.7935 102.196L29.1632 101.861L29.46 101.47L29.4768 100.953L29.9192 100.618L30.076 100.162L30.16 99.6611L30.1152 99.1276L30.4736 98.7207L30.5464 98.2313L30.524 97.7198L31 97.3239V96.8179L30.888 96.279L30.6976 95.8006L30.4456 95.2837L29.9024 95.0527Z" fill="#121315"/>
<path d="M145.66 85.5905L145.552 85.1033L145.167 84.7225L145.082 84.2296L144.724 83.8488L144.56 83.3895L144.475 82.8855L144.163 82.4935L143.953 82.051L143.795 81.575L143.472 81.1942L143.279 80.7349L142.927 80.3821L142.547 80.0516L142.372 79.57L142.054 79.1948L141.589 78.9372L141.317 78.5283L141.056 78.1083L140.592 77.8675L140.319 77.4474L140.11 76.9658L139.764 76.6129L139.384 76.2993L138.897 76.0977L138.585 75.7113L138.301 75.2912L137.893 75.0112L137.553 74.6528L137.122 74.3951L136.754 74.0703L136.362 73.7679L135.932 73.5159L135.489 73.2806L135.098 72.9782L134.775 72.5862L134.356 72.3286L133.981 72.0037L133.471 71.8749L133.176 71.4269L132.66 71.3149L132.286 70.9788L131.827 70.7772L131.362 70.5868L130.965 70.2956L130.484 70.1444L130.217 69.6291L129.758 69.4387L129.236 69.3491L128.834 69.0579L128.352 68.9123L127.915 68.6826L127.57 68.2738L127.116 68.0778L126.64 67.921L126.266 67.5681L125.727 67.5345L125.296 67.2993L124.939 66.9073L124.531 66.6161L124.049 66.476L123.59 66.2968L123.142 66.1008L122.66 66L122.144 66.0504L121.713 66.3696L121.498 66.8625L121.81 67.3273V67.8258L122.286 67.9938L122.677 68.3298L123.114 68.565L123.646 68.621L124.015 68.9851L124.406 69.3099L124.882 69.4723L125.381 69.6011L125.767 69.9316L126.118 70.3124L126.674 70.3516L127.008 70.766L127.519 70.878L127.966 71.1021L128.397 71.3541L128.834 71.6005L129.174 71.9869L129.542 72.3286L130.002 72.5414L130.478 72.7262L130.835 73.079L131.3 73.2806L131.748 73.5047L132.014 73.9863L132.524 74.1319L132.848 74.524L133.38 74.6416L133.743 74.9832L134.129 75.2968L134.446 75.6945L134.837 75.9913L135.342 76.1593L135.71 76.4841L135.994 76.9098L136.255 77.3578L136.833 77.4586L136.969 78.0355L137.508 78.1867L137.7 78.6963L138.058 79.038L138.545 79.2508L138.965 79.5364L139.214 79.9788L139.367 80.4941L139.843 80.7405L140.059 81.1942L140.263 81.6478L140.575 82.0286L141.091 82.275L141.266 82.7455L141.538 83.1543L141.72 83.6136L141.969 84.0392L142.145 84.4984L142.298 84.9689L142.496 85.4169L142.814 85.8258L142.791 86.3466L143.018 86.8002L142.956 87.3155L143.046 87.7971L143.256 88.2732L143.018 88.766L143.058 89.2533L143.182 89.7909L142.888 90.2222L142.701 90.7094L142.287 91.023L141.827 91.2414L141.323 91.3142L140.898 91.5607L140.45 91.8855L139.911 91.7623L139.401 91.7511L138.902 91.8015L138.409 91.8911L137.91 91.9471L137.406 92.0535L136.901 91.8463L136.396 91.9247L135.881 92.1263L135.376 92.0759L134.866 92.0647L134.384 91.8463L133.913 91.5943L133.397 91.6503L132.904 91.5551L132.388 91.5775L131.918 91.3479L131.408 91.3255L130.948 91.0846L130.415 91.1406L129.951 90.9278L129.491 90.6982L128.964 90.7094L128.488 90.547L128.057 90.3118L127.587 90.2166L127.122 90.0933L126.674 89.9253L126.158 89.9589L125.784 89.5613L125.296 89.5053L124.877 89.2533L124.349 89.2981L123.89 89.1469L123.442 88.9676L123.029 88.6988L122.501 88.7212L122.127 88.3684L121.691 88.1612L121.186 88.1108L120.687 88.1388L120.177 88.2956L119.945 88.7716L119.82 89.2365L119.627 89.7125L119.661 90.2558L120.217 90.463L120.602 90.6982L121.033 90.9222L121.458 91.1462L121.906 91.3367L122.32 91.5887L122.694 91.9191L123.142 92.1039L123.51 92.4343L123.947 92.6416L124.372 92.8712L124.837 93.0336L125.188 93.3864L125.733 93.448L126.084 93.8009L126.475 94.0865L126.878 94.3665L127.173 94.7698L127.536 95.089L127.87 95.4362L128.119 95.8563L128.647 96.0523L128.924 96.4667L129.066 96.9259L129.151 97.3796L129.129 97.85L128.499 97.6428L128.034 97.4916L127.643 97.1892L127.161 97.0548L126.81 96.7019L126.362 96.4947L125.999 96.1643L125.648 95.8283L125.24 95.5538L124.956 95.145L124.417 95.0106L124.055 94.6017L123.516 94.3553L122.938 94.5065L122.615 94.8818L122.246 95.1506L122.025 95.5538L122.002 96.0131L122.082 96.4611L122.15 96.954L122.416 97.3964L122.564 97.8836L122.666 98.3933L122.439 98.8581L122.155 98.5109L121.838 98.1413L121.77 97.6428L121.64 97.1892L121.396 96.7747L121.061 96.3827L120.925 95.9235L121.101 95.3802L120.931 94.9378L120.733 94.5009L120.472 94.1369L120.387 93.6217L119.893 93.5097L119.485 93.2072L119.003 93.3416L118.454 93.5433L118.051 93.9689L118 94.5401V95.0554L118.102 95.5202L118.034 96.0299L118.232 96.4723L118.255 96.9596L118.595 97.3628L118.845 97.7828L118.89 98.2701L119.088 98.7013L119.219 99.1661L119.434 99.5974L119.689 100.006L119.945 100.415L120.409 100.645L120.562 101.154L121.05 101.322L121.35 101.742L121.838 101.838L122.326 101.776L122.813 102L123.272 101.804L123.703 101.586L124.185 101.434L124.349 100.908L124.707 100.605L124.939 100.202L125.308 99.8382L125.398 99.5078L125.687 99.7038L126.226 99.7542L126.674 99.9446L127.071 100.258L127.587 100.281L128.046 100.589L128.584 100.6L129.1 100.566L129.639 100.717L130.155 100.645L130.603 100.381L131.09 100.163L131.266 99.631L131.702 99.3174L131.889 98.8357L132.054 98.3541L132.094 97.8444L132.031 97.3404L132.111 96.8195L132.02 96.2819L131.521 95.8899L131.323 95.4082L131.084 94.9434L130.835 94.4729L130.449 93.9801L131.011 94.2489L131.51 94.3441H132.026L132.558 94.2433L133.035 94.4729L133.539 94.5457L134.032 94.6858L134.526 94.865L135.053 94.7306L135.552 94.8258L136.056 94.865L136.572 94.6577L137.077 94.9322L137.581 94.6913L138.086 94.7194L138.585 94.6466L139.095 94.7306L139.583 94.5345L140.115 94.6913L140.586 94.4393L141.13 94.5849L141.578 94.2657L142.009 94.0697L142.451 93.9073L143.007 93.9577L143.353 93.5937L143.71 93.2744L144.237 93.1512L144.509 92.7312L144.707 92.2719L145.167 92.0143L145.405 91.5887L145.518 91.1126L145.813 90.7094L145.841 90.2166L146 89.7573L145.96 89.2813L145.847 88.8164L145.881 88.3516V87.8867L145.819 87.4275L145.751 86.9683L145.728 86.4978L145.711 86.0218L145.592 85.5625L145.66 85.5905Z" fill="#121315"/>
<path d="M67.637 145.978L67.1488 145.693L66.6552 145.816L66.1615 145.95L65.6678 145.872L65.1797 145.916L64.686 145.782L64.1923 145.743L63.6986 145.894L63.2049 145.967L62.7112 145.939L62.2176 145.71L61.7294 145.883L61.2413 145.972L60.7532 145.727L60.2595 145.894L59.7658 145.983L59.2721 145.727L58.7784 145.771L58.2847 145.788L57.7911 145.911L57.2974 145.754L56.8037 145.693L56.31 145.955H55.8163L55.3226 145.911L54.8844 145.632L54.3963 145.699L53.9026 145.632L53.6807 145.107L53.1094 145.046L53.0151 144.51L52.7988 144.113L52.6324 143.689L52.5103 143.248L52.5325 142.752L52.4105 142.272L52.3328 141.786L52.1109 141.306L52.2607 140.804L52.3772 140.307L52.355 139.816L52.2884 139.33L52.0777 138.845L52.1941 138.353L52 137.862L52.1276 137.371L52.1609 136.88L52.2219 136.389L52.3217 135.898L52.1276 135.401L52.0777 134.904L52.3661 134.424L52.4105 133.933L52.3827 133.436L52.4327 132.945L52.4826 132.454L52.2718 131.94L52.4493 131.46L52.6601 130.986L52.4438 130.467L52.4826 129.976L52.6878 129.501L52.71 129.005L52.8099 128.519L52.832 128.028L52.9485 127.548L52.9763 127.057L52.8709 126.543L53.0373 126.069L53.1427 125.589L53.1094 125.087L53.4533 124.64L53.3091 124.115L53.6364 123.669L53.4367 123.133L53.7806 122.692L53.6696 122.173L53.7528 121.687V121.185L54.1578 120.761L54.008 120.231L54.1467 119.756L54.2854 119.282L54.4518 118.813L54.6237 118.344L54.6847 117.853L54.657 117.34L54.8123 116.871L54.9066 116.385L54.8678 115.872L55.2672 115.464L55.0786 114.912L55.428 114.493L55.3726 113.974L55.4502 113.488L55.6721 113.042L55.7498 112.556L56.0549 112.132L56.0271 111.619L56.3932 111.217L56.482 110.687L56.8314 110.212L57.3972 110L57.9131 110.368L58.4068 110.508L58.6342 110.971L58.8394 111.418L58.9393 111.959L58.6398 112.383L58.6287 112.886L58.4622 113.343L58.257 113.795L58.3347 114.314L58.3014 114.806L58.1904 115.28L57.9741 115.727L57.8687 116.201L57.8798 116.703L57.4638 117.111L57.547 117.63L57.5137 118.121L57.3473 118.584L57.3307 119.081L57.192 119.55L56.9146 119.985L57.0644 120.51L56.7649 120.945L56.8703 121.459L56.7538 121.933L56.4931 122.38L56.3045 122.843L56.4653 123.367L56.3045 123.836V124.333L55.9439 124.768L56.127 125.293L55.8052 125.734L55.9384 126.247L55.894 126.733L55.8108 127.213L55.7165 127.693L55.4891 128.156L55.5334 128.653L55.4447 129.133L55.3393 129.613L55.3116 130.104L55.2228 130.59L55.3726 131.098V131.589L55.1673 132.063L55.306 132.566L55.2505 133.051L55.0009 133.526L55.184 134.028L55.1119 134.513L55.0065 134.999L54.8789 135.574L55.4558 135.602L55.9384 135.663L56.432 135.457L56.9202 135.446L57.3972 135.658L57.8798 135.764L58.3901 135.518L58.8561 135.747L59.3442 135.786L59.8157 135.931L60.2928 136.026L60.7753 136.11L61.3023 135.976L61.7516 136.216L62.2342 136.3L62.7279 136.344L63.1162 136.735L63.5932 136.841L64.0924 136.902L64.4696 137.26L64.9467 137.377L65.4071 137.544L65.8009 137.846L66.1948 138.13L66.5886 138.409L67.1433 138.482L67.526 138.8L67.8256 139.207L68.0364 139.682L68.3026 140.089L68.8518 140.285L69.0515 140.748L69.2234 141.217L69.5895 141.585L69.4675 142.16L69.767 142.567L70 143.042L69.9501 143.567L69.9834 144.102L69.645 144.532L69.5174 145.051L69.0182 145.308L68.5744 145.542L68.1251 145.81L67.6037 146L67.637 145.978ZM55.0009 138.337L54.8456 138.744L54.9954 139.213L54.8622 139.687L55.0564 140.151L54.9898 140.62L55.2173 141.072L55.0009 141.557L55.2838 141.998L55.0508 142.489L55.184 142.941L55.3393 142.969L55.8274 143.103L56.3156 143.148L56.8037 143.12L57.2918 143.07L57.78 143.047L58.2681 142.88L58.7562 142.975L59.2444 143.148L59.7325 143.008L60.2206 142.947L60.7088 142.93L61.1969 143.087L61.6851 143.103L62.1732 142.992L62.6613 143.12L63.1495 142.925L63.6376 143.148H64.1257L64.6139 143.12L65.102 143.181L65.5901 142.98H66.0783L66.572 143.075L67.0435 142.997L66.988 142.545L66.6663 142.154L66.2558 141.847L65.9341 141.49L65.6012 141.139L65.3738 140.642L64.9134 140.435L64.4696 140.223L64.0425 139.978L63.6487 139.665L63.216 139.414L62.678 139.447L62.2009 139.341L61.7239 139.252L61.269 139.062L60.853 138.688L60.326 138.794L59.8767 138.521L59.3553 138.66L58.8727 138.549L58.3901 138.42L57.8965 138.409L57.4028 138.448L56.9202 138.303L56.4265 138.247L55.9328 138.264L55.4391 138.153L55.0009 138.331V138.337Z" fill="#121315"/>
<path d="M101.696 145.821L101.188 145.927L100.675 145.703L100.161 145.659L99.6469 145.821L99.1389 145.754L98.625 145.776L98.1112 145.759L97.5974 145.81L97.0836 145.916L96.5697 145.681L96.0559 145.955L95.5479 145.67L95.0398 145.72L94.5317 145.86L94.0179 145.709L93.5041 145.888L92.9903 145.799L92.4764 146L91.9626 145.748L91.4488 145.86L90.935 145.681L90.4211 145.838L89.9073 145.759L89.3935 145.743L88.8797 145.832L88.412 145.664L87.9155 145.681L87.419 145.575L87.0207 145.278L86.5703 145.032L86.3452 144.578L86.0277 144.192L85.8314 143.733L85.9295 143.224L85.8544 142.743L85.8371 142.256L85.5947 141.791L85.7043 141.287L85.5254 140.812L85.5485 140.319L85.6986 139.815L85.4676 139.34L85.4907 138.847L85.3695 138.366L85.5427 137.862L85.4272 137.381L85.2309 136.899L85.1905 136.407L85.3406 135.909L85.3002 135.422L85.3464 134.929L85.1732 134.442L85.2021 133.95L85.3695 133.452L85.2367 132.965L85.0462 132.478L85.2598 131.979L85.052 131.493L85.1847 130.994L85.2771 130.502L85.052 130.009L85.2367 129.511V129.019L85 128.526L85.0404 128.034L85.1155 127.541V127.049L85.1501 126.556L85.0751 126.063L85.1963 125.571L85 125.078L85.1212 124.586L85.0462 124.093L85.1674 123.601L85.1386 123.108L85.2482 122.621L85.1559 122.129L85.1328 121.636L85.3002 121.149L85.3175 120.657L85.1963 120.164L85.3118 119.677L85.2021 119.185L85.0981 118.692L85.3002 118.205V117.713L85.1212 117.215L85.2829 116.728L85.433 116.241L85.4561 115.754L85.3349 115.261L85.3002 114.769L85.2598 114.276L85.5427 113.8L85.4792 113.308L85.3637 112.81L85.5023 112.328L85.4676 111.836L85.6177 111.36L85.6004 110.772L85.9988 110.325L86.5126 110L87.1188 110.017L87.5864 110.353L88.2215 110.442L88.5506 110.957L88.5275 111.556L88.3716 112.032L88.5275 112.53L88.285 113.006L88.4005 113.498L88.4871 113.991L88.1349 114.461L88.1003 114.948L88.3716 115.446L88.1811 115.927L88.3081 116.42L88.0887 116.901L88.0599 117.388L88.2042 117.881L88.1349 118.368L88.158 118.854L88.2446 119.347L88.0079 119.823L88.2446 120.315L87.979 120.797L88.1349 121.284L88.0656 121.771L88.1234 122.257L88.0887 122.744L88.0541 123.231L88.1003 123.718L87.9097 124.205L87.9617 124.692L88.106 125.179L87.9502 125.666V126.153L87.9906 126.64L88.0252 127.127L88.0656 127.614L87.8924 128.101L88.0945 128.588L87.9271 129.075L88.0714 129.562L87.904 130.054L87.9675 130.541L88.0425 131.028L88.0945 131.515L88.1696 132.002L88.1407 132.494L88.0887 132.987L88.1349 133.479L88.2504 133.966L88.158 134.459L88.0079 134.957L88.2215 135.416L88.3658 135.567L88.8797 135.349L89.3935 135.377L89.8958 135.606L90.4211 135.349L90.9234 135.517L91.4488 135.382L91.9395 135.668L92.4649 135.584H92.9845L93.4637 135.892L93.966 135.993L94.5144 135.853L95.0052 136.009L95.5074 136.104L96.027 136.149L96.4658 136.474L97.0316 136.379L97.4069 136.86L97.8918 137.011L98.4922 136.905L98.8906 137.257L99.3525 137.476L99.7393 137.823L100.242 137.968L100.571 138.377L101.096 138.517L101.587 138.729L101.766 139.278L102.216 139.541L102.499 139.955L103.001 140.213L103.169 140.705L103.452 141.119L103.74 141.539V142.076L103.821 142.558L103.977 143.028L103.913 143.515L104 144.019L103.925 144.534L103.596 144.942L103.249 145.362L102.799 145.687L102.245 145.782L101.702 145.832L101.696 145.821ZM88.4063 138.231L88.4236 138.69L88.4524 139.16L88.516 139.625L88.4294 140.106V140.582L88.7238 141.03L88.4409 141.528L88.7238 141.97L88.7873 142.435L88.7065 142.91L88.8912 142.871L89.3993 143.062L89.9073 143.157L90.4154 142.955H90.9234L91.4315 142.916H91.9395H92.4476L92.9556 142.894H93.4637L93.9717 143.106H94.4798L94.9878 143.162L95.4959 142.978L96.0039 142.843L96.512 142.927L97.02 142.916L97.5281 143.09L98.0362 143.202L98.5442 143.19L99.0523 143.05L99.5603 143.185L100.068 143.129L100.582 142.888L101.073 142.961L101.044 142.491L100.536 142.2L100.397 141.685L100.091 141.271L99.5892 141.052L99.2255 140.694L98.8733 140.308L98.3364 140.202L97.9207 139.905L97.4761 139.647L97.02 139.407L96.5409 139.222L95.9635 139.328L95.5709 138.858L95.0052 138.987L94.5548 138.651L94.041 138.573L93.5099 138.612L93.0076 138.489L92.4995 138.388L91.9799 138.405L91.4777 138.226L90.9523 138.315L90.4385 138.332L89.9246 138.248L89.4108 138.343L88.897 138.198L88.3774 138.366L88.4005 138.226L88.4063 138.231Z" fill="#121315"/>
<path d="M57.3873 71.4931L57.1069 72.183L56.4169 72.4691L55.6989 72.2055L55.4297 71.4931L55.7045 70.7807L56.4169 70.5059L57.1125 70.7919L57.3873 71.4931Z" fill="#121315"/>
<path d="M53.3729 77.8261L53.0756 78.5273L52.3801 78.8077L51.6789 78.5273L51.3984 77.8261L51.6733 77.1249L52.3801 76.8389L53.0868 77.1193L53.3729 77.8261Z" fill="#121315"/>
<path d="M61.3517 77.8256L61.0712 78.5324L60.3644 78.8073L59.6577 78.5324L59.3828 77.8256L59.6801 77.1413L60.3644 76.8496L61.06 77.1301L61.3517 77.8256Z" fill="#121315"/>
<path d="M105 71.4931L104.708 72.1943L104.007 72.4747L103.312 72.1886L103.031 71.4931L103.306 70.7919L104.007 70.5059L104.714 70.7863L105 71.4931Z" fill="#121315"/>
<path d="M100.942 77.8259L100.662 78.5158L99.9716 78.8019L99.2592 78.5382L98.9844 77.8259L99.2648 77.1191L99.9716 76.8442L100.673 77.1303L100.942 77.8259Z" fill="#121315"/>
<path d="M108.964 77.8261L108.662 78.5216L107.966 78.8358L107.259 78.5328L106.984 77.8261L107.259 77.1193L107.966 76.8164L108.673 77.1249L108.964 77.8261Z" fill="#121315"/>
<path d="M97.9736 61.6216L98.0634 62.0872L98.3943 62.5752L98.2204 63.0295L98.3102 63.5176L97.7717 63.9046L98.0185 64.4263L97.5417 64.7853L97.4239 65.2284L97.738 65.823L97.2612 66.1483L97.1547 66.6083L96.9078 67.0065L96.6386 67.388L96.3245 67.7357L96.1506 68.1676L95.8253 68.4986L95.6065 68.9137L95.2699 69.2278L95.1353 69.7495L94.8212 70.1085L94.1986 70.0748L94.0303 70.6413L93.5367 70.7311L93.245 71.2023L92.6392 70.9723L92.2802 71.3425L91.809 71.3762L91.3378 71.3425L90.9283 71.8417L90.4403 71.8361L89.986 71.4491L89.4868 71.7127L89.0492 71.4715L88.6173 71.2864L88.1461 71.2079L87.6918 71.0789L87.4113 70.6077L86.7831 70.7367L86.5587 70.2375L86.2109 69.929L85.7678 69.7214L85.42 69.4073L85.0218 69.1212L84.9601 68.5715L84.7918 68.1228L84.2477 67.9208L83.9728 67.5338L84.0345 66.9729L83.928 66.5185L83.7092 66.1146L83.2436 65.7949L83.3165 65.2733L83.3334 64.7909L83.0249 64.3926L83.1202 63.9046L82.9576 63.4671L82.6603 63.0352L82.6042 62.564L82.5312 62.0984L82.7444 61.6216L82.6154 61.156L82.8398 60.7017L82.9295 60.2473L82.9183 59.7818L82.9295 59.3106L82.9856 58.845L83.2324 58.4299L83.1146 57.9139L83.5185 57.5549V57.0613L83.6082 56.5845L84.1411 56.3264L84.2813 55.8833L84.4047 55.4234L84.7189 55.0756L84.8815 54.6156L85.2293 54.2959L85.5715 53.9874L85.9249 53.6901L86.3063 53.4264L86.3904 52.787L86.7999 52.529L87.2935 52.4224L87.8488 52.4953L88.1517 52.0353L88.5781 51.839L89.0773 51.8951L89.4812 51.5249L89.9804 51.71L90.4403 51.7381L90.8947 51.8446L91.3883 51.609L91.8539 51.7044L92.2914 51.8783L92.8131 51.8446L93.1496 52.2597L93.5815 52.4448L94.0359 52.6019L94.4173 52.888L94.5632 53.4489L95.0063 53.6396L95.4046 53.8976L95.657 54.2959L95.8757 54.7166L96.3245 54.969L96.5208 55.3953L96.8349 55.7543L97.1266 56.1357L97.02 56.7023L97.4576 57.022L97.5417 57.4932L97.5529 57.9756L97.6707 58.4243L97.8783 58.8506L97.738 59.3499L97.8895 59.7874L97.9512 60.2473L98.4223 60.6736L98.1699 61.156L97.9736 61.6216Z" fill="#FCFCFC"/>
<path d="M97.5114 63.7479L97.6516 64.2022L97.517 64.6397L97.6516 65.1165L97.287 65.5036L97.4721 66.014L97.1692 66.3954V66.8778L96.7373 67.1807L96.6307 67.6239L96.3727 67.9941L96.283 68.4821L95.9127 68.7626L95.6491 69.144L95.3406 69.4862L94.8919 69.6432L94.4712 69.8115L94.0729 69.9966L93.6634 70.1368L93.31 70.5575L92.8164 70.3388L92.3845 70.3668L91.9526 70.3332L91.459 70.5407L91.0158 70.4005L90.7073 69.963L90.253 69.8788L89.8491 69.6769L89.535 69.3572L89.1311 69.1272L88.9067 68.7177L88.5029 68.4653L88.3514 68.0221L87.9868 67.708L87.8017 67.2873L87.6615 66.8554L87.5942 66.3954L87.5269 65.9523L87.1679 65.5709L87.095 65.1221L87.1342 64.6566L87.0781 64.2022L87.3081 63.7479V63.3047L87.1454 62.8448L87.1903 62.3904L87.1959 61.9305L87.5605 61.5546L87.4371 61.0442L87.6839 60.6515L87.9363 60.2701L88.1719 59.8887L88.4243 59.5241L88.5534 59.0641L88.8394 58.7107L89.0694 58.3012L89.4284 58.0152L89.8603 57.8301L90.2474 57.6001L90.5671 57.2187L91.0944 57.314L91.487 57.084L91.9245 56.8989L92.3845 57.0055L92.8164 57.185L93.2596 57.1906L93.7139 57.2187L94.129 57.3813L94.4936 57.6562L94.9367 57.7964L95.3126 58.0544L95.5762 58.4303L95.9745 58.6827L96.2213 59.0641L96.4625 59.4455L96.8271 59.7653L97.0122 60.186L96.928 60.7189L97.2029 61.0891L97.1804 61.5602L97.517 61.9417L97.646 62.3792L97.4721 62.8616L97.6516 63.2935L97.5114 63.7479Z" fill="#121315"/>
</svg>
