<svg width="148" height="148" viewBox="0 0 148 148" fill="none" xmlns="http://www.w3.org/2000/svg">
<path d="M81.4557 20.0168L81.717 19.8156L81.8679 19.3296L82.164 18.9832L82.4543 18.648L82.8084 18.3855L82.8839 17.9777L83 17.581L82.8955 17.1788L82.6691 16.8268L82.4601 16.4525L82.1524 16.1117L81.7228 15.8883L81.2467 16.095L80.7997 16.0838L80.3817 16.2626L79.9927 16.5531L79.5747 16.8101L79.0929 16.9721L78.7504 17.4358L79.1742 17.1341L79.5167 16.838L79.6909 16.3743L79.9927 16.0391L80.4223 15.838L80.73 15.5084L81.0842 15.2291L81.4964 15.0056L81.8737 14.7542L81.8505 14.2793L81.8737 13.8994L81.955 13.514L81.8505 13.1397L81.6241 12.8212L81.3164 12.5363L81.0493 12.1397L80.6023 11.9497L80.1321 12.1341L79.7431 12.324L79.3483 12.4637L78.9826 12.7486L78.5704 12.9721L78.0421 13.0279L77.7924 13.4693L77.4615 13.7933L76.9565 13.8939L76.6488 14.2626L76.2656 14.4246L76.6836 14.3184L76.8287 13.8212L77.2293 13.6034L77.6705 13.4302L78.0189 13.1564L78.2975 12.8101L78.553 12.4302L78.9419 12.1899L79.3832 12.0112L79.5922 11.581L80.0044 11.3799L79.9695 10.9106L80.283 10.5698L80.1263 10.162L80.1843 9.72067L79.7721 9.47486L79.5631 9.05587L79.1335 8.84358L78.6633 8.7933L78.1408 8.89944L78.0653 8.43017L77.9782 8.01676L77.6415 7.7486L77.4035 7.37989L77.0087 7.1676L76.5617 7.22905L76.1205 7.13967L75.7315 7.2905L75.6618 6.86034L75.8418 6.40223L75.7025 5.95531L75.3251 5.64246L75.0929 5.25698L74.8491 4.82682L74.3033 4.83799L73.9086 4.58101L73.4441 4.63129L72.9448 4.51397L72.521 4.75978L72.2192 5.12849L71.865 5.41341L71.3425 5.49721L71.0639 5.8771L70.6923 6.14525L70.2627 6.34078L69.8621 6.56983L69.4848 6.8324L69.1887 7.19553L68.9274 7.60335L68.4107 7.69832L68.225 8.21229L68.3991 7.67598L68.8345 7.43575L69.2119 7.13967L69.5312 6.77654L69.8563 6.43017L70.0769 6.11732L70.4078 5.83799L70.4717 5.43575L70.3382 5.05028L70.2337 4.68156L70.0247 4.35196L69.7112 4.10056L69.3977 3.80447L68.9739 3.67039L68.5617 3.91061L68.0624 3.73743L67.807 4.15084L67.4702 4.43017L67.0406 4.60335L66.8258 5.02793L66.3556 5.15642L65.9492 5.35754L65.7344 5.78212L65.3861 6.05028L65.0668 6.35196L64.7242 6.62011L64.3817 6.89386L64.0508 7.18436L63.7083 7.4581L63.18 7.51397L62.8839 7.83799L62.5297 8.10615L62.344 8.56425L61.8099 8.61453L61.4499 8.8771L61.2467 9.31285L60.8868 9.56983L60.4282 9.72067L60.2714 10.2123L59.9289 10.4916L59.5283 10.7039L59.1916 10.9888L58.6749 11.067L58.3846 11.4078L58.164 11.838L57.8215 11.8659L57.984 11.6536L58.4833 11.5363L58.5646 11.0056L59.1277 10.9553L59.3425 10.5531L59.6096 10.2011L60.0856 10.0559L60.3991 9.75419L60.5152 9.2514L60.8171 8.93296L61.3048 8.80447L61.6473 8.52514L61.8041 8.06145L62.1814 7.82123L62.5007 7.51397L62.7678 7.16201L63.238 7.01117L63.4644 6.61453L63.9637 6.48603L64.1147 6.01117L64.4572 5.7095L64.492 5.26257L64.5268 4.84358L64.3991 4.44693L64.2482 4.03352L63.9173 3.68156L63.4644 3.46369L62.9477 3.37989L62.4601 3.54749L62.1118 3.90503L61.6415 4.04469L61.3919 4.44134L60.9913 4.6648L60.6604 4.97207L60.3991 5.39665L60.5559 4.88827L60.3643 4.45251L60.5036 3.97207L60.3062 3.55307L59.9637 3.22905L59.7257 2.84916L59.3832 2.54749L58.9768 2.34078L58.5646 2.14525L58.106 2.08939L57.6531 2L57.1887 2.02793L56.7707 2.24022L56.4165 2.51397L56.0624 2.76536L55.5631 2.92737L55.1684 3.21229L54.9071 3.63687L54.611 4.02793L54.2046 4.40223L53.7634 4.03911L53.3164 4.07821L53.0377 4.46927L52.5733 4.52514L52.3933 4.94972L52.1205 5.27374L51.6502 5.39106L51.3541 5.70391L51.1161 6.06704L50.791 6.34078L50.3672 6.50838L50.1582 6.90503L49.7866 7.13967L49.4615 7.41341L49.2003 7.76536L48.91 7.93855L48.8055 7.57542L48.3411 7.35196L48.0276 7.05028L47.5864 6.96089L47.1858 6.73184L46.7504 6.8771L46.2104 6.7933L46.0131 7.30168L45.6647 7.46927L45.4267 7.76536L45.1074 7.93296L45.3048 7.57542L45.2758 7.15084L45.4325 6.74302L45.3512 6.31844L45.0029 6.02793L44.7707 5.68156L44.5152 5.28492L44.0044 5.36872L43.6096 5.22905L43.2206 5.40223L42.7736 5.39106L42.402 5.64805L42.1059 5.3352L41.8215 5.07263L41.6009 4.65363L41.1422 4.65922L40.7242 4.58101L40.283 4.60894L39.9753 4.92179L39.6328 5.15084L39.238 5.31844L39.0581 5.67598L38.8026 6.10056L38.7271 5.51955L38.3614 5.18436L37.8911 5.12849L37.508 4.89385L37.0726 4.97207L36.6372 5.02793L36.1901 5.16201L35.9405 5.5419L35.6792 5.82123L35.4064 6.10056L35.2438 6.44134L34.7678 6.55307L34.2859 6.64246L33.8853 6.92179L33.6241 7.32402L33.3977 7.68156L33.1248 8.00559L32.9565 8.39106L32.6952 8.72626L32.5907 9.14525L32.3353 9.48603L32.2075 9.89386L31.7721 10.1397L31.6096 10.5363L31.4006 10.8994L31.4528 11.4078L31.0755 11.676L31.029 12.1285L30.8026 12.5419L30.9013 12.9944L31.209 13.3352L31.4993 13.6648L31.894 13.9274L31.9231 14.3296L31.894 14.7263L32.045 15.095L32.4804 15.2235L32.6139 15.648L32.8171 15.9665L32.9274 16.3743L32.5094 16.6648L32.3701 17.1229L31.9289 17.3408L31.5631 17.6201L31.4238 18.0782L31.1277 18.4134L30.8665 18.7765L30.5704 19.1117L30.2801 19.4525L30.0073 19.8045L29.717 20.1453L29.2061 20.3017L28.9739 20.6872L28.6778 21.0223L28.5791 21.514L28.0624 21.676L27.7605 22.0056L27.6444 22.4804L27.3367 22.8101L26.9187 23.0447L26.8607 23.5642L26.582 23.9162L26.2337 24.2067L25.955 24.5531L25.4673 24.7374L25.2467 25.1341L25.1248 25.6034L24.5907 25.7486L24.5443 26.2793L24.1321 26.6201L24.3933 27.1229L24.0624 27.5866L24.3237 28.0112L24.6023 28.3855L24.7242 28.8827L25.0377 29.0838L25.0145 29.4358L24.7591 29.7542L24.3062 29.8883L24.016 30.1564L23.9637 30.6145L23.7547 30.9553L23.7257 31.3464L23.8766 31.7821L23.418 32.0615L23.3541 32.5028L23 32.8603L23.2206 33.3017L23.2032 33.7263L23.4702 34.0726L23.6676 34.4246L23.9521 34.7151L24.2192 35.0559L24.5443 35.2905L24.3469 35.6313L24.2366 36.0447L24.3295 36.4637L24.5965 36.7989L24.6778 37.2514L25.0784 37.5084L25.5138 37.6872L25.984 37.648L26.4543 37.7989L26.8258 37.5866L27.0174 37.905L27.3193 38.2011L27.627 38.5196L28.0856 38.486L28.5094 38.676L28.9158 38.4525L28.8113 38.8715L28.8345 39.2626L28.5443 39.7207L28.9565 40.0279L29.0203 40.5028L29.5138 40.6034L29.7925 41L30.2743 40.838L30.6923 40.9665L31.1567 40.9553L31.5051 40.6648L31.8128 40.2905L32.2772 40.1117L32.6836 39.8603L33.0493 39.5531L33.3977 39.2291L33.7286 39.0615L34.0769 39.2905L34.2104 39.6983L34.3962 40.1341L34.8258 40.3296L35.2845 40.3967L35.7025 40.7318L36.1727 40.5531L36.5849 40.3464L36.9332 40.0726L37.3048 39.838L37.7112 39.6425L37.9666 39.257L38.4543 39.1676L38.8026 38.8994L39.1451 38.6201L39.5341 38.4022L39.7663 37.9832L40.1263 37.7207L40.5385 37.3911L40.8055 37.7374L40.8229 38.0894L41.148 38.3687L41.5486 38.5196L41.9492 38.6313L42.3962 38.8603L42.8549 38.7207L43.1742 38.3799L43.5457 38.1173L43.9231 37.8492L44.3527 37.6592L44.7591 37.4302L44.9913 36.9888L45.328 36.676L45.8505 36.5922L46.0363 36.0894L46.4427 35.8659L46.8665 35.6592L47.2787 35.4358L47.5457 35.0279L47.9579 34.743L48.225 35.2514L48.3469 35.6536L48.5094 36.1061L48.9332 36.3184L49.4151 36.2849L49.8505 36.5587L50.2743 36.324L50.6575 36.1006L50.9826 35.7933L51.4586 35.6816L51.7083 35.2737L52.0972 35.0503L52.4804 34.8101L52.8055 34.5028L53.1829 34.2626L53.5428 33.9944L53.9202 33.7486L54.344 33.5698L54.6807 33.2682L55.209 33.2346L55.4819 32.8492L55.865 32.6089L56.2656 32.3967L56.6952 32.2235L57.0377 31.7542L56.8868 32.2737L57.0261 32.7039L57.1364 33.1061L57.1538 33.5866L57.6009 33.7765L57.9144 34.0447L58.2975 34.2291L58.7213 34.324L59.1916 34.5251L59.6444 34.3743L59.9231 33.9497L60.3643 33.7989L60.8287 33.6816L61.1829 33.4022L61.4499 33.0056L61.8505 32.7877L62.164 32.4581L62.6401 32.352L63.0929 32.2067L63.4644 31.9553L63.7663 31.6145L64.0856 31.2849L64.4107 30.9721L64.9332 30.9218L65.2816 30.6425L65.4731 30.1564L65.9144 30.0112L66.3324 29.8436L66.5704 29.4413L66.9594 29.2291L67.4296 29.1341L67.6386 28.6872L68.0798 28.5587L68.492 28.3799L68.8113 28.0782L69.0842 27.7151L69.4906 27.5587L69.5254 27.9665L69.4848 28.4078L69.7286 28.7821L69.9086 29.2123L70.3149 29.4581L70.8026 29.4358L71.2206 29.4804L71.7141 29.6257L72.1611 29.4469L72.3701 28.9553L72.7591 28.7318L73.2235 28.6145L73.6647 28.4637L74.0595 28.2514L74.4427 28.0223L74.7504 27.6816L75.0697 27.3631L75.5167 27.2346L75.9347 27.0559L76.2133 26.6648L76.5443 26.352L77.0784 26.3464L77.3919 26.0112L77.8273 25.8436L78.0711 25.4078L78.4427 25.1508L78.8607 24.9721L79.3019 24.8212L79.6792 24.5754L80.103 24.3966L80.521 24.2179L80.7881 23.8101L81.1538 23.5419L81.5254 23.2793L81.9782 23.1341L82.2337 22.7542L82.6633 22.5084L82.8316 22.0615L82.7504 21.5978L82.7388 21.1341L82.4717 20.7486L82.0247 20.5531L81.6705 20.3296L81.4557 20.0168Z" fill="#121315"/>
<path d="M128.175 79.2503L129.211 78.7094L129.303 77.7572L129.456 76.9121L129.764 76.129L129.644 75.2782L130.351 74.4161L130.185 73.5259L129.263 72.8724L129.764 71.7737L129.069 71.1258L128.363 70.5623L128.032 69.7003L127.309 69.1932L126.495 68.8439L125.737 68.4382L124.945 68.0607L124.136 67.5537L123.197 68.1453L122.325 67.5875L121.38 67.5762L120.508 68.1847L119.631 68.6073L118.674 68.4608L117.689 68.2016L116.521 68.765L117.478 67.9312L118.52 68.1734L119.113 67.3396L119.944 67.0579L120.844 66.9564L121.659 66.6466L122.274 65.869L123.088 65.5592L123.994 65.4803L124.735 65.0014L125.549 64.7309L126.54 64.7084L127.053 63.8745L127.657 63.2548L128.306 62.6913L128.71 61.9307L129.234 61.249L129.747 60.5222L130.066 59.6939L130.442 58.8319L130.288 57.9248L129.923 57.074L130.328 56.0599L129.206 55.5134L129.337 54.4654L128.836 53.6991L128.095 53.147L127.241 52.7808L126.637 52.1272L126.022 51.3609L124.979 51.5469L124.193 51.0905L123.293 51.1581L122.422 51.1975L121.505 50.944L120.525 50.8088L119.865 51.6933L119.039 52.0201L118.179 52.223L117.113 51.7215L116.122 52.4202L117.011 51.7272L117.751 51.2933L118.446 50.7806L119.153 50.251L119.642 49.5242L120.36 48.8931V47.941L120.457 47.0789L120.542 46.2282L121.078 45.338L120.542 44.5097L120.708 43.5519L120.451 42.6673L119.927 41.9067L118.834 41.5856L118.725 40.5545L117.683 40.408L117.187 39.6587L116.487 39.129L115.701 38.729L114.744 38.9657L113.941 38.6614L113.064 38.0247L112.261 38.9262L111.349 38.6501L112.204 38.1262L112.79 37.5064L113.707 37.2923L114.18 36.5655L114.613 35.8499L114.903 35.0724L115.445 34.3512L115.45 33.4892L115.576 32.6272L114.955 31.8834L114.938 31.0383L114.852 30.1425L114.294 29.4664L113.947 28.5987L112.944 28.4184L112.3 27.8606L111.469 27.6578L110.728 27.1282L109.828 27.562L108.991 27.2296L108.148 27.3704L107.271 27.4437L106.587 28.2719L105.653 28.4353L104.577 28.2212L103.967 29.2297L102.828 29.3593L103.244 28.3452L104.195 28.024L104.85 27.3873L104.964 26.4802L104.81 25.5562L105.665 24.8576L105.203 23.9617L105.027 23.1448L105.004 22.3165L105.032 21.4432L104.884 20.5812L104.508 19.7924L104.144 18.9811L103.597 18.2712L102.714 17.9162L102.031 17.4035L101.45 16.6936L100.368 16.9809L99.6612 16.5246L98.841 16.3893L98.0094 16.4232L97.1721 16.0457L96.2551 15.7301L95.5716 16.6711L94.683 16.919L93.7831 17.1781L92.7635 16.964L92.0002 17.3584L91.106 17.3246L90.2516 17.4373L89.6194 18.2036L88.8162 18.474L87.8479 18.2205L87.0505 18.6092L86.2873 19.0769L85.4386 19.2966L84.5158 19.336L83.895 20.1699L82.8527 19.8882L82.3115 20.9418L81.4458 21.1221L80.6996 21.6123L79.6345 21.3024L79.0022 22.0743L77.9827 21.8714L77.1682 22.1813L76.5017 22.8631L75.6246 23.0321L74.679 23.0208L74.0525 23.804L73.3576 24.4181L72.469 24.559L71.478 24.4519L70.8229 25.1506L70.1109 25.7252L69.1028 25.5788L68.5275 26.4633L67.5877 26.4859L66.8415 26.9648L65.9529 27.1113L65.2865 27.7761L64.4435 28.0465L63.4752 27.9958L62.7803 28.6043L61.7836 28.5142L60.969 28.8241L60.4393 29.8157L59.5109 29.8833L58.6337 30.0636L57.9104 30.6045L57.1186 30.9876L56.0877 30.8242L55.4668 31.6074L54.715 32.0806L53.9916 32.6215L53.0461 32.6497L52.1632 32.83L51.3373 33.1455L50.6823 33.8272L49.8905 33.9568L50.5968 33.6075L50.9158 32.6441L51.6506 32.1708L52.6986 32.075L53.103 31.2073L53.8492 30.751L54.6067 30.3115L54.8972 29.2861L55.632 28.8128L56.5149 28.5311L57.1585 27.9451L57.7053 27.2352L58.4173 26.7338L59.1805 26.3056L59.9267 25.8492L60.6273 25.3365L61.4247 24.959L61.9316 24.1815L62.9683 24.1251L63.7657 23.7476L64.341 23.0659L64.8479 22.2827L65.4631 21.6461L66.2833 21.3024L66.8985 20.6601L67.8497 20.5136L68.3794 19.7473L69.1825 19.3924L69.8831 18.8515L70.2818 18.0458L70.8115 17.3922L71.5577 16.8063L71.9963 15.995L71.6773 15.0428L71.8995 14.192L72.0077 13.2905L71.3754 12.5581L71.5064 11.5439L70.9084 10.8453L70.0825 10.4114L69.4047 9.92127L69.0401 8.89584L68.0889 8.80006L67.2573 8.51271L66.3574 8.63667L65.4802 8L64.6885 8.8226L63.7828 8.73808L62.843 8.81696L62.1139 9.36911L61.3507 9.79731L60.6899 10.3551L60.1944 11.1439L59.3913 11.5158L58.7021 12.0679L57.7566 12.2764L57.1186 12.9018L56.3041 13.2849L55.7345 14.0004L55.1365 14.6765L54.3618 15.1104L53.5758 15.5386L53.2283 16.5358L52.3967 16.9021L51.4854 17.1725L50.9955 17.9782L49.9133 18.0345L49.4235 18.8346L48.6033 19.2234L47.9084 19.7699L47.1451 20.2319L46.8432 21.2573L45.7496 21.3193L45.1231 21.9503L44.4054 22.463L44.0636 23.4321L43.4485 24.0688L42.3264 24.1195L41.734 24.7843L41.2328 25.5506L40.6575 26.238L39.6038 26.3788L38.9373 26.9648L38.5386 27.8437L38.1456 28.7283L37.2343 29.0382L36.4653 29.5058L36.135 30.4524L35.1097 30.6552L34.8933 31.7088L33.794 31.844L33.2073 32.5145L32.6149 33.1737L31.8403 33.6582L31.789 34.8358L31.1283 35.4274L30.0575 35.6358L29.7499 36.5542L28.9069 36.988L28.2006 37.5515L28.0411 38.5713L27.369 39.1629L26.5944 39.6756L26.0931 40.408L25.9963 41.4391L25.5064 42.1997L24.7717 42.7969L24.3957 43.6364L23.9572 44.4196L22.7382 44.7633L22.9376 45.9183L21.9009 46.4197L21.7301 47.3606L21.9465 48.4368L21.0352 49.034L21.1605 49.9467L20.682 50.8257L20.9782 51.7046L21.713 52.392L21.9408 53.2033L22.3623 53.9414L23.1085 54.3978L23.5812 55.119L24.4014 55.395L24.8343 56.4768L25.8596 56.2064L26.7709 56.5331L26.0589 57.1754L25.2444 57.4572L24.2647 57.4684L23.8831 58.46L22.8294 58.3417L22.5389 59.4967L21.6503 59.6545L20.9725 60.1559L19.9985 60.1728L19.1669 60.6067L18.7853 61.5251L18.5404 62.4209L17.4411 62.7646L17.6347 63.8013L16.9284 64.5225L17.2816 65.4408L16.6721 66.3648L17.6233 67.0748L17.8626 67.8748L17.5664 69.0129L18.4549 69.5087L18.7796 70.4384L19.7536 70.6976L20.7162 71.1877L19.8276 71.9146L18.9391 72.0554L18.3752 72.6921L17.6917 73.1935L17.0367 73.7795L17.1164 74.7598L16.2734 75.3458L16 76.1909L16.6778 77.0642L16.7006 77.8587L16.5126 78.7545L17.2246 79.363L17.0139 80.4335L18.0277 80.7434L18.2385 81.7068L19.1669 81.8984L19.9473 82.1688L20.6535 82.5689L21.451 82.7266L22.2541 83.0985L23.0629 82.6815L23.7407 83.1379L24.1964 83.9267V84.9409L24.0654 85.9494L25.0508 86.4396L25.2046 87.4143L25.8425 88.0791L26.6456 88.5299L27.7905 88.913L26.4633 89.1834L25.3071 89.2454L24.6179 89.9553L23.9173 90.5413L23.342 91.2343L22.4591 91.6287L22.1174 92.4963L21.394 93.1217L21.2345 94.0401L20.8586 94.8627L20.4086 95.7248L20.7048 96.66L20.9782 97.5333L20.87 98.463L21.5478 99.1222L21.6275 100.001L21.7415 100.942L22.3053 101.641L23.4047 101.765L23.6439 102.807L24.7717 102.638L25.4666 103.055L26.2526 103.258L26.8791 104.238L27.7563 104.447L28.6563 104.294L29.4879 103.877L30.2397 103.399L31.1169 103.196L32.0054 103.015L32.9339 102.993L33.811 102.796L34.6426 102.413L35.6679 102.756L36.3172 102.638L36.5622 103.139L37.5077 103.449L38.026 104.035L38.3848 104.875L39.3759 104.813L40.2417 105.354L39.5468 106.244L39.1823 107.089L38.6184 107.912L38.7437 108.886L38.7095 109.816L39.057 110.701L38.8861 111.636L39.1082 112.509L39.4785 113.337L40.236 113.895L41.2157 114.137L41.4549 115.18L42.4631 115.219L43.1181 115.799L44.0409 115.721L44.7358 116.509L45.6243 116.577L46.53 116.752L47.3673 116.301L48.2273 115.732L49.3266 116.295L50.2038 115.816L50.7734 115.822L50.762 116.588L50.9671 117.681L51.4683 118.47L51.7018 119.321L52.2316 120.031L52.5904 120.904L53.1828 121.642L54.1966 121.766L54.8744 122.448L55.837 122.42L56.737 122.279L57.6199 123L58.5597 122.91L59.6305 121.958L60.314 122.927L61.2197 122.262L61.9943 122.792L62.8601 122.634L63.7145 122.437L64.5745 122.189L65.4745 122.82L66.3004 122.048L67.2003 122.617L68.0604 122.47L68.9205 122.363L69.7692 121.851L70.635 121.839L71.5406 122.639L72.395 122.358L73.238 121.822L74.1038 121.727L74.9752 121.755L75.841 121.727L76.7353 122.363L77.5726 121.603L78.444 121.676L79.3269 122.003L80.1756 121.552L81.0926 121.721L81.9926 121.456L82.9096 121.749L83.8096 121.479L84.738 121.884L85.6379 121.496L86.555 121.552L87.4777 121.811L88.3834 121.648L89.289 121.62L90.1491 121.721L90.9864 121.203L91.8351 121.051L92.7008 121.546L93.5552 121.591L94.3868 120.876L95.264 121.625L96.1127 121.496L96.9671 121.676L97.8044 120.977L98.6701 121.389L99.5815 121.518L100.373 121.045L101.205 120.774L101.621 119.839L102.731 119.884L103.176 119.101L103.586 118.352L104.184 117.704L104.207 116.808L104.793 116.064L104.201 114.898L105.437 115.135L106.371 115.247L107.111 114.363L107.983 114.154L108.877 114.053L109.874 114.492L110.745 114.278L111.48 113.416L112.437 113.608L113.263 113.202L114.134 113.027L115.029 112.932L116.031 113.337L116.823 112.751L117.717 112.532L118.332 111.788L119.096 111.354L119.642 110.661L120.622 110.329L120.577 109.253L121.408 108.672L121.283 107.714L121.767 106.914L121.813 106.024L121.642 105.151L121.721 104.232L121.385 103.393L121.112 102.531L120.588 101.793L119.825 101.083L120.981 100.914L121.892 100.384L122.661 99.9786L123.658 99.9166L124.205 99.156L124.74 98.4686L125.071 97.6629L125.378 96.891L125.84 96.1586L125.748 95.2966L126.5 94.4345L125.657 93.657L126.204 92.609L125.145 92.0907L125.253 91.0258L124.689 90.6033L125.543 90.4004L126.375 89.544L127.292 89.482L128.112 89.1215L128.585 88.3045L129.758 88.1918L130.225 87.3636L130.459 86.4565L130.835 85.617L130.624 84.6817L130.732 83.814L131 82.8731L130.806 81.9547L129.918 81.3575L129.525 80.5856L129.194 79.7123L128.175 79.2503Z" fill="#C6F065"/>
<path d="M57.073 71.6358L56.7894 72.3334L56.0919 72.6226L55.366 72.3561L55.0938 71.6358L55.3716 70.9156L56.0919 70.6377L56.7951 70.9269L57.073 71.6358Z" fill="#121315"/>
<path d="M53.0119 78.0387L52.717 78.7476L52.0081 79.0311L51.2992 78.7476L51.0156 78.0387L51.2992 77.3298L52.0081 77.0405L52.7227 77.3241L53.0119 78.0387Z" fill="#121315"/>
<path d="M61.0843 78.0386L60.8008 78.7531L60.0862 79.031L59.3716 78.7531L59.0938 78.0386L59.3943 77.3467L60.0862 77.0518L60.7894 77.3353L61.0843 78.0386Z" fill="#121315"/>
<path d="M105.209 71.6358L104.914 72.3447L104.206 72.6283L103.502 72.3391L103.219 71.6358L103.497 70.9269L104.206 70.6377L104.92 70.9213L105.209 71.6358Z" fill="#121315"/>
<path d="M101.104 78.0388L100.826 78.7364L100.123 79.0256L99.4029 78.7591L99.125 78.0388L99.4086 77.3243L100.123 77.0464L100.832 77.3356L101.104 78.0388Z" fill="#121315"/>
<path d="M109.213 78.0389L108.907 78.7421L108.203 79.0597L107.489 78.7535L107.211 78.0389L107.489 77.3243L108.203 77.0181L108.918 77.33L109.213 78.0389Z" fill="#121315"/>
<path d="M61.9805 70.9772L61.5608 70.9716L61.1411 70.9489L60.7215 71.0283L60.3018 71.0113L59.8821 70.9092L59.4625 71.0623L59.0428 70.9092H58.6231L58.2035 70.9205L57.7838 70.9092L57.3584 70.9659H56.9388L56.5021 71.0963L56.0371 71.0169L55.6514 71.2721L55.2317 71.4082L54.8404 71.6181L54.5002 71.8903L54.1712 72.1739L53.899 72.5255L53.6098 72.8714L53.5814 72.8771L53.4453 73.2968L53.5134 73.7391L53.4567 74.1645L53.5758 74.5728L53.6268 75.0151L53.933 75.3327L54.2223 75.639L54.4548 76.0246L54.8745 76.1721L55.2204 76.4273L55.6401 76.5237L55.6344 76.5293L56.0597 76.6144L56.4681 76.8356L56.9161 76.7789L57.3528 76.7449L57.7838 76.6711L58.2091 76.569L58.6345 76.4556L59.0258 76.2514L59.3661 75.9962L59.695 75.7297L59.9956 75.4235L60.3528 75.1909L60.6988 74.9301L60.9937 74.6125L61.1582 74.2041L61.368 73.8355L61.5495 73.4555L61.8274 73.1096L61.8217 72.6673L61.9238 72.2589L62.0372 71.8449L62.0882 71.4139L61.9805 70.9772Z" fill="#FCFCFC"/>
<path d="M56.4718 78.2534C56.2393 78.2534 56.0068 78.1967 55.8026 78.0833L55.5814 77.9642L55.3716 77.9245C55.3092 77.9131 55.2468 77.8961 55.1844 77.8734L54.9122 77.811C54.7251 77.7657 54.5436 77.6863 54.3848 77.5728L54.2033 77.4367L53.9765 77.3573C53.6702 77.2496 53.415 77.0341 53.2449 76.7562L53.0918 76.501L52.6097 75.9906C52.3999 75.7694 52.2638 75.4858 52.2241 75.1796L52.1844 74.862L52.0993 74.5728C52.0426 74.38 52.0256 74.1758 52.0539 73.9773L52.0823 73.7561L52.0483 73.5123C52.0142 73.2967 52.0313 73.0812 52.0993 72.8771L52.2354 72.4574C52.3205 72.1965 52.4736 71.9697 52.6721 71.7996L53.0521 71.3175C53.1088 71.2438 53.1712 71.1757 53.2392 71.119L53.5681 70.8298C53.5681 70.8298 53.6022 70.8014 53.6192 70.7844L53.9651 70.5122C54.0275 70.4611 54.1012 70.4158 54.1693 70.3761L54.5549 70.1662C54.6343 70.1265 54.7137 70.0925 54.7988 70.0642L55.037 69.9904L55.2695 69.843C55.5701 69.6445 55.933 69.5708 56.2903 69.6332L56.4264 69.6558L56.5399 69.6218C56.6646 69.5821 56.7951 69.5651 56.9255 69.5651H57.2658L57.606 69.5141C57.6798 69.5027 57.7592 69.497 57.8386 69.5027L58.2129 69.5141L59.0465 69.5027C59.1883 69.5027 59.3358 69.5254 59.4719 69.5708C59.7157 69.497 59.9709 69.4914 60.2205 69.5481L60.6231 69.6218L60.884 69.5708C60.9918 69.5481 61.0995 69.5424 61.2129 69.5481L62.0182 69.5708C62.6648 69.5821 63.2205 70.0245 63.3737 70.654L63.4814 71.0907C63.5211 71.2494 63.5325 71.4196 63.5098 71.584L63.4644 72.0151C63.4587 72.0945 63.4417 72.1682 63.419 72.2419L63.2546 72.8431V73.1039C63.2602 73.4329 63.1525 73.7504 62.9483 74.0057L62.7725 74.2268L62.6591 74.4593C62.6421 74.4877 62.6307 74.5217 62.6137 74.5501L62.4493 74.8393L62.3131 75.1626C62.2451 75.3214 62.1544 75.4688 62.0353 75.5936L61.7404 75.9055C61.6893 75.9622 61.6269 76.0133 61.5645 76.0643L61.2186 76.3252C61.2186 76.3252 61.1732 76.3592 61.1449 76.3762L60.9067 76.535L60.7082 76.7335C60.6742 76.7675 60.6401 76.8016 60.6004 76.8299L60.2715 77.1021C60.2715 77.1021 60.2375 77.1305 60.2148 77.1475L59.8745 77.4027C59.8121 77.4481 59.7498 77.4878 59.6817 77.5218L59.2904 77.726C59.1997 77.7713 59.1032 77.811 59.0012 77.8394L58.1108 78.0606C58.0824 78.0662 58.0541 78.0719 58.0257 78.0776L57.5947 78.1513C57.555 78.157 57.5096 78.1626 57.4699 78.1683L56.6533 78.2534C56.5966 78.2591 56.5342 78.2647 56.4775 78.2647L56.4718 78.2534ZM56.0635 75.1683L56.3357 75.2193C56.4775 75.2476 56.6079 75.293 56.7327 75.3611H56.744C56.744 75.3611 56.7837 75.3611 56.8064 75.3611L57.1807 75.3327L58.1221 75.1229L58.2752 75.0435L58.746 74.6748L58.9955 74.4253C59.0635 74.3573 59.1373 74.2949 59.2167 74.2438L59.7838 73.8298L59.8518 73.6654C59.8745 73.6087 59.9029 73.5576 59.9312 73.5009L60.2715 72.8431C60.3112 72.7637 60.3509 72.6899 60.4019 72.6162C60.4019 72.5538 60.4076 72.4914 60.419 72.4291H60.2432C60.1524 72.4177 60.056 72.4064 59.9709 72.3837H59.9539C59.6363 72.5028 59.2847 72.4971 58.9728 72.3837L58.797 72.3156L58.2582 72.327C58.2299 72.327 58.1958 72.327 58.1675 72.327L57.8612 72.3156L57.555 72.3553C57.4983 72.361 57.4416 72.3667 57.3905 72.3667H57.1637L56.9198 72.4404C56.7384 72.4971 56.5455 72.5141 56.3584 72.4914C56.2733 72.5368 56.1882 72.5765 56.0918 72.6049L55.7969 72.7013L55.6325 72.792L55.2128 73.1436L54.9236 73.5123V73.5236C54.9462 73.654 54.9462 73.7901 54.9236 73.9206L54.9065 74.0397L54.9406 74.1531C54.9633 74.2212 54.9746 74.2892 54.9859 74.3629L55.2638 74.6578C55.3206 74.7145 55.3716 74.7826 55.4113 74.845C55.519 74.8904 55.6211 74.9471 55.7119 75.0151L55.8196 75.0945L55.9501 75.1229C55.9841 75.1286 56.0181 75.1399 56.0521 75.1512L56.0635 75.1683Z" fill="#121315"/>
<path d="M97.546 71.0077L97.96 70.9567L98.3797 70.9453L98.7993 71.019L99.219 70.985L99.6387 71.0474L100.058 71.0758L100.478 70.9964L100.892 71.002L101.317 71.0701L101.737 71.0644L102.157 71.0247L102.582 71.0134L103.03 70.9737L103.455 71.1325L103.903 71.1835L104.278 71.4387L104.743 71.5124L105.083 71.8187L105.321 72.2043L105.69 72.4822L105.781 72.9302H105.82L105.973 73.3215L106.155 73.7299L106.104 74.1722L105.968 74.5806L105.843 74.9946L105.582 75.3348L105.401 75.7432L105.055 76.0154L104.652 76.1798L104.334 76.5031L103.92 76.6449L103.926 76.6619L103.484 76.7356L103.047 76.7753L102.605 76.7243L102.168 76.7753L101.731 76.7129L101.3 76.6108L100.869 76.5031L100.523 76.2139L100.149 76.004L99.7748 75.7942L99.4402 75.5276L99.2077 75.1477L98.8277 74.9265L98.5328 74.6089L98.3116 74.2403L98.1698 73.8263L97.9373 73.4747L97.6764 73.1174L97.5517 72.7034L97.4893 72.278L97.4723 71.847L97.4609 71.416L97.546 71.0077Z" fill="#FCFCFC"/>
<path d="M103.047 78.193C102.995 78.193 102.939 78.193 102.882 78.1817L102.604 78.1477L102.326 78.1817C102.207 78.193 102.082 78.193 101.963 78.1817L101.527 78.1193C101.481 78.1136 101.442 78.1023 101.396 78.0966L100.523 77.8811C100.313 77.8301 100.12 77.728 99.9557 77.5919L99.7119 77.3877L99.0824 77.0361C99.02 77.0021 98.9576 76.9624 98.9009 76.917L98.5606 76.6505C98.4245 76.5427 98.3111 76.4179 98.2203 76.2705L98.175 76.1968L98.1069 76.1571C97.9878 76.089 97.8801 75.9983 97.7837 75.8962L97.4888 75.5786C97.4207 75.5049 97.364 75.4311 97.3129 75.3461L97.0918 74.9774C97.0407 74.8924 97.001 74.8073 96.967 74.7166L96.8763 74.467L96.5247 73.968C96.4282 73.8375 96.3545 73.6901 96.3091 73.537L96.1844 73.123C96.1674 73.0606 96.1503 72.9925 96.139 72.9245L96.0766 72.4991C96.0709 72.4424 96.0653 72.3857 96.0596 72.3347L96.0312 71.4726C96.0312 71.3592 96.0369 71.2458 96.0596 71.138L96.1447 70.7297C96.2694 70.1399 96.7572 69.6919 97.3526 69.6182L97.7666 69.5671C97.812 69.5614 97.8631 69.5558 97.9141 69.5558L98.3338 69.5444C98.4302 69.5444 98.5152 69.5444 98.606 69.5671L98.8498 69.6068L99.0937 69.5898C99.1958 69.5841 99.3035 69.5898 99.4113 69.6011L99.9614 69.6692L100.2 69.6238C100.29 69.6068 100.387 69.5955 100.477 69.6011H100.897C100.971 69.6011 101.045 69.6125 101.118 69.6238L101.413 69.6749H101.646L102.009 69.6352C102.043 69.6352 102.077 69.6352 102.111 69.6295L102.916 69.5841C103.12 69.5671 103.324 69.5955 103.512 69.6692L103.772 69.7656L104.045 69.794C104.277 69.8167 104.504 69.9017 104.697 70.0378L104.81 70.1172L104.963 70.1399C105.23 70.1853 105.474 70.2987 105.672 70.4802L106.013 70.7808C106.12 70.8772 106.211 70.9849 106.279 71.104L106.376 71.2571L106.523 71.3649C106.801 71.5691 106.994 71.8696 107.067 72.2099L107.096 72.3517C107.096 72.3517 107.118 72.4084 107.13 72.4311L107.442 73.1853C107.544 73.4179 107.578 73.6674 107.549 73.9169L107.498 74.3536C107.487 74.45 107.464 74.5464 107.436 74.6372L107.187 75.4198C107.141 75.5729 107.067 75.7204 106.965 75.8508L106.801 76.0663L106.682 76.3329C106.585 76.5484 106.444 76.7355 106.256 76.8773L105.91 77.1495C105.808 77.2289 105.695 77.2913 105.576 77.3423L105.445 77.3934L105.338 77.5068C105.179 77.6713 104.986 77.7904 104.771 77.8641L104.549 77.9378C104.425 78.0059 104.289 78.0512 104.147 78.0739L103.71 78.1477C103.67 78.1533 103.636 78.159 103.597 78.1647L103.154 78.2044C103.115 78.2044 103.069 78.2044 103.03 78.2044L103.047 78.193ZM102.604 75.3064C102.655 75.3064 102.712 75.3064 102.769 75.3177L103.064 75.3517L103.466 75.3007C103.466 75.3007 103.466 75.3007 103.472 75.3007L103.563 75.2724L103.636 75.1986C103.772 75.0569 103.937 74.9491 104.118 74.8754L104.277 74.813L104.3 74.7676C104.34 74.6712 104.396 74.5805 104.459 74.4954L104.566 74.3479L104.703 73.9283L104.617 73.7128C104.532 73.588 104.47 73.4519 104.43 73.3044C104.311 73.208 104.209 73.0889 104.124 72.9528L104.056 72.8451C103.852 72.811 103.653 72.7317 103.483 72.6126L103.404 72.5615L103.313 72.5502C103.2 72.5388 103.086 72.5105 102.978 72.4708L102.842 72.4197L102.701 72.4311C102.701 72.4311 102.655 72.4311 102.633 72.4311L101.89 72.4764C101.85 72.4764 101.81 72.4821 101.771 72.4821H101.351C101.266 72.4935 101.181 72.4821 101.096 72.4708L100.619 72.4197L100.341 72.4708C100.222 72.4935 100.098 72.4991 99.9727 72.4935L99.5531 72.4651C99.519 72.4651 99.485 72.4594 99.4453 72.4538L99.1844 72.4141L98.9689 72.4311L98.986 72.4821L99.0994 72.6409C99.0994 72.6409 99.1334 72.6863 99.1504 72.709L99.3829 73.0663C99.4453 73.1627 99.4964 73.2591 99.5304 73.3668L99.7005 73.7581L99.7516 73.8149L99.9501 73.9339C100.154 74.053 100.324 74.2232 100.443 74.4217L100.591 74.6202L101.243 74.9888C101.317 75.0342 101.391 75.0795 101.459 75.1362L101.555 75.2156L102.213 75.3574L102.474 75.3291C102.525 75.3234 102.582 75.3177 102.633 75.3177L102.604 75.3064Z" fill="#121315"/>
<path d="M62.6332 72.2064L62.1115 71.9342L61.6068 71.696L61.4309 71.3954L61.2722 71.0665L61.2551 70.6979L61.2098 70.3179L61.4933 70.0513L61.7429 69.7905L62.0548 69.5069L62.3157 69.1553L62.6956 68.9568L63.0643 68.7413L63.4896 68.6222L63.8525 68.4067L64.2722 68.3386L64.6862 68.2366L65.0832 68.0494L65.4972 67.9643L65.9112 67.8566L66.3309 67.7715L66.7619 67.7488L67.1872 67.6921H67.6182L68.0436 67.7545L68.4746 67.6921L68.8999 67.573L69.3196 67.6865L69.7506 67.6978L70.1816 67.7772L70.6183 67.7545L70.3291 67.4369L69.9945 67.1704L69.6882 66.8925L69.382 66.5976L69.053 66.3424L68.7184 66.0815L68.3215 65.9397L67.9301 65.7809L67.5842 65.5257L67.2099 65.3329L66.8186 65.1571L66.4103 65.038L65.9793 65.055L65.5653 64.9586L65.1456 64.9302L64.7316 64.7998L64.3062 64.8395L63.8866 64.7998L63.4726 64.8508L63.0472 64.8395L62.6389 64.9416L62.2249 64.9813L61.8506 64.8792L61.499 64.7998L61.2041 64.6013L60.9319 64.3575L60.722 64.0512L60.603 63.7109L60.5859 63.348L60.6653 62.9907L60.8185 62.6504L61.0566 62.3442L61.4253 62.2591L61.7769 62.157L62.1966 62.0152L62.6389 62.0323L63.0756 61.9302L63.5123 61.9926L63.949 62.0096L64.3856 62.0436L64.8337 62.0209L65.276 61.9869L65.69 62.1457L66.1154 62.2761L66.5634 62.2818L67.0057 62.3272L67.4084 62.5257L67.8564 62.5654L68.2251 62.8206L68.6504 62.9453L69.0757 63.0644L69.467 63.2743L69.847 63.5011L70.261 63.6599L70.6013 63.9435L70.9302 64.2384L71.2932 64.4879L71.6051 64.7998L71.9737 65.0437L72.2516 65.3896L72.5465 65.7185L72.8811 66.0078L73.1136 66.3821L73.3688 66.7394L73.6184 67.108L73.8452 67.4823L74.0721 67.8623L74.2819 68.2536L74.3726 68.6959L74.6108 69.0816L74.5938 69.4786L74.6505 69.8585L74.4577 70.1988L74.3103 70.5618L73.9473 70.6922L73.624 70.8907L73.2554 70.885L72.8925 70.9417L72.4785 70.7829L72.0474 70.6752L71.6051 70.6808L71.1684 70.6582L70.7317 70.6015L70.295 70.6582L69.864 70.5504L69.433 70.488L68.9963 70.4937L68.5597 70.5221L68.123 70.5164L67.6863 70.5844L67.2496 70.5107L66.8073 70.5164L66.3706 70.5788L65.9339 70.6411L65.5142 70.7716L65.1116 70.9531L64.7146 71.1289L64.3119 71.2933L63.9433 71.5259L63.6597 71.8661L63.1493 72.0363L62.6332 72.2064Z" fill="#121315"/>
<path d="M96.5793 72.1949L96.0972 71.9738L95.5755 71.8377L95.2862 71.5031L94.9233 71.2649L94.5149 71.1174L94.1123 70.9246L93.687 70.8282L93.2673 70.7148L92.8249 70.7204L92.4109 70.5673L91.9742 70.5219L91.5376 70.4709L91.1009 70.5106L90.6585 70.4993L90.2275 70.6013L89.7908 70.5616L89.3485 70.5957L88.9118 70.5276L88.4694 70.5219L88.0328 70.5786L87.6131 70.7034L87.1877 70.8282L86.7738 70.9529L86.3371 70.9813L85.9514 70.9359H85.5828L85.2595 70.7545L84.9873 70.4936L84.7718 70.1873L84.6641 69.8414L84.7094 69.4954L84.8002 69.1382L84.8966 68.7072L84.9136 68.2478L85.1234 67.8508L85.3049 67.4425L85.5715 67.0852L85.8493 66.7392L86.1102 66.3876L86.3654 66.0303L86.666 65.7014L86.9099 65.3328L87.2331 65.0265L87.6358 64.828L87.9137 64.4708L88.2426 64.1815L88.6112 63.9433L89.0082 63.7448L89.3485 63.4613L89.7455 63.2685L90.1651 63.1267L90.5564 62.9339L90.9704 62.7864L91.3788 62.6163L91.7928 62.4745L92.2294 62.4008L92.6548 62.31L93.0971 62.293L93.5282 62.225L93.9478 62.0775L94.3845 62.0095L94.8212 61.9074L95.2692 61.9698L95.7059 61.8677L96.1426 61.9584L96.5793 62.0321L97.0216 62.0775L97.4696 62.0038L97.7929 62.2136L98.0708 62.4575L98.2976 62.7467L98.5982 62.9736L98.6663 63.3535L98.7343 63.7392L98.4564 64.0284L98.3033 64.3744L97.9744 64.5275L97.7192 64.7997L97.3562 64.8734L96.9933 64.9074L96.5793 64.8507L96.1596 64.8677L95.7456 64.7543L95.3259 64.8337L94.9006 64.811L94.4866 64.8791L94.0669 64.9018H93.6416L93.2389 65.0436L92.8363 65.157L92.4223 65.2364L92.0253 65.3895L91.6396 65.554L91.2086 65.6107L90.8797 65.8942L90.4714 66.0417L90.1481 66.3196L89.8022 66.5578L89.4449 66.7846L89.1103 67.0568L88.8778 67.4311L88.5942 67.7544H89.0252L89.4676 67.709L89.8986 67.7033L90.3126 67.5672L90.7493 67.5956L91.1746 67.6126L91.5999 67.6636L92.0253 67.7714L92.462 67.7544L92.8873 67.726L93.3013 67.8451L93.7266 67.9075L94.152 67.9699L94.5546 68.1287L94.98 68.2081L95.36 68.4179L95.7626 68.5597L96.1483 68.7412L96.5112 68.968L96.8345 69.2516L97.1974 69.4784L97.5207 69.7393L97.7305 70.0342L97.8496 70.3688L97.8893 70.7204L97.963 71.072L97.7646 71.3669L97.5377 71.6335L97.0897 71.9624L96.5793 72.1949Z" fill="#121315"/>
<path d="M85.4304 78.5524L85.0958 78.3766L84.7896 78.1781L84.4947 77.9966L84.2735 77.7301L83.9956 77.3841L83.7744 76.9928L83.4342 76.6866L83.1506 76.3463L82.833 76.023L82.4814 75.7451L82.1411 75.4616L81.8122 75.1383L81.3699 75.0759L80.9445 74.9398L80.5475 75.0873L80.1335 75.1326L79.7649 75.3311L79.4416 75.6034L79.1014 75.8529L78.7895 76.1365L78.4322 76.3633L78.1429 76.6696L77.865 76.9928L77.5701 77.2934L77.2412 77.5599L76.9974 77.9172L76.6911 78.1327L76.4416 78.4163L76.0503 78.4333L75.6816 78.473L75.33 78.3539L74.9727 78.2121L74.7856 77.8945L74.5701 77.5769L74.519 77.2026L74.4453 76.851L74.5984 76.5164L74.6892 76.1365L74.9557 75.7962L75.2053 75.4446L75.5966 75.2404L75.9198 74.9568L76.2431 74.679L76.5437 74.3784L76.7648 74.0041L77.0597 73.6808L77.4057 73.4199L77.7573 73.1818L78.1543 73.0059L78.5286 72.8131L78.8915 72.5806L79.2829 72.4048L79.6855 72.2687L80.0825 72.0815L80.5192 72.1439L80.9445 72.1212L81.3869 72.2403L81.8406 72.2687L82.2829 72.3935L82.7423 72.4615L83.1506 72.6884L83.5476 72.9322L83.9106 73.2158L84.2678 73.505L84.6138 73.8169L84.9484 74.1345L85.2376 74.4918L85.5779 74.8094L85.8047 75.212L86.077 75.5863L86.3945 75.9209L86.6327 76.3179L86.7518 76.6639L86.7745 77.0155L86.7575 77.3728L86.6611 77.7244L86.4002 77.9683L86.1053 78.1667L85.7877 78.3766L85.4304 78.5524Z" fill="#121315"/>
<path d="M79.724 84.8704L79.3724 84.5925L78.9243 84.4734L78.6748 83.997L78.2608 83.8098L77.8014 83.7475L77.3704 83.634L76.9451 83.4752L76.4744 83.617L76.0377 83.5546L75.5953 83.4355L75.1587 83.6851L74.6993 83.4355L74.2739 83.617L73.7862 83.5433L73.3666 83.8212L72.9242 83.9516L72.4762 84.0594L72.0168 84.1444L71.5518 84.2295L71.2342 84.6605L70.7465 84.7059L70.2587 84.7796L69.9525 85.1823L69.6349 85.5452L69.2493 85.7948L68.7842 85.9366L68.4213 86.2201L68.0073 86.447L67.8201 86.9404L67.3948 87.1559L67.1169 87.5302L66.7256 87.7854L66.2605 87.9895L66.1301 88.4943L65.6877 88.7325L65.4722 89.1578L65.0526 89.4243L65.0412 89.9858L64.8427 90.3998L64.389 90.6607L64.1225 91.0463L63.941 91.4773L63.6404 91.8516V92.3507L63.1697 92.3393L62.7898 92.7363H62.319L61.8257 92.5945L61.3946 92.759L60.9523 92.8724L60.5326 93.1617L60.0335 92.9065L59.5912 93.0596L59.1432 93.19L58.6838 93.2297L58.2188 93.105L57.7764 93.4225L57.3114 93.2637L56.8577 93.4225L56.3983 93.2411L55.9446 93.139L55.4852 93.2581L55.0259 93.2751L54.5665 93.2978L54.1015 93.3999L53.6591 93.1447L53.2111 92.9802L52.7574 92.9518L52.2697 93.1957L51.816 93.1163H51.3509L50.9483 92.725L50.4889 92.708L50.0522 92.5548L49.5985 92.4981L49.0881 92.7023L48.6458 92.5719L48.1864 92.5208L47.7497 92.379L47.33 92.1749L46.882 92.0785L46.4283 91.9877L46.0484 91.6645L45.606 91.5624L45.1069 91.6248L44.744 91.2618L44.2789 91.2108L43.916 90.8818L43.4396 90.8648L43.0199 90.6833L42.5152 90.7174L42.1409 90.4225L41.7893 90.0765L41.3583 89.9348L40.9273 89.7703L40.4565 89.6909L40.0085 89.5661L39.6682 89.2202L39.2259 89.0784L38.9083 88.7041L38.4943 88.517L37.9555 88.5566L37.5983 88.2561L37.1843 88.0576L36.9574 87.5528L36.4413 87.5188L36.084 87.2353L35.6871 87.0198L35.3638 86.6568L34.8874 86.7986L34.4848 86.8723L34.0141 86.912L33.5944 87.1785L33.583 87.6946L33.5547 88.12L33.6624 88.5226L33.6171 89.05L34.0708 89.2542L34.343 89.6682L34.8817 89.6852L35.256 89.9348L35.5623 90.2977L35.9253 90.5756L36.43 90.6153L36.6739 91.1087L37.2353 91.0406L37.5302 91.4546L37.9726 91.5964L38.3866 91.7892L38.7665 92.0501L39.1749 92.2656L39.5435 92.5548L39.9518 92.7647L40.4679 92.725L40.9273 92.81L41.2335 93.2524L41.7553 93.173L42.0785 93.5927L42.5832 93.5473L43.0369 93.638L43.3886 94.0124L43.8026 94.2165L44.296 94.1825L44.727 94.3413L45.141 94.5454L45.606 94.5851L46.003 94.8687L46.5191 94.7213L46.916 95.0105L47.33 95.2317L47.7951 95.26L48.2261 95.4415L48.6798 95.5209L49.1392 95.5606L49.5872 95.6683L50.0692 95.5776L50.5343 95.5549L50.9483 95.8725L51.436 95.674L51.8613 95.9349L52.3264 95.9179L52.7744 96.054L53.2394 96.0029L53.6875 96.1901L54.1525 96.1164L54.6062 96.2241L55.0712 96.105L55.5306 96.3092L55.9956 96.3205L56.4607 96.2071L56.9257 96.1787L57.3964 96.2922L57.8501 96.02L58.3208 96.1277L58.7802 96.0597L59.2396 95.9632L59.6819 95.7704L60.1583 95.8782L60.6007 95.7024L61.0997 95.9009L61.5648 95.8441L62.0071 95.6797L62.4495 95.5209L62.9088 95.4528L63.4363 95.226L63.5213 95.7704V96.2185L63.3625 96.7062L63.7028 97.0918L63.8616 97.5058L63.9694 97.9368L64.0147 98.4132L64.3267 98.7591L64.5081 99.1788L64.6726 99.6268L65.2284 99.7459L65.3531 100.251L65.7445 100.495L66.1188 100.744L66.4137 101.118L66.9014 101.175L67.3154 101.345L67.6557 101.697L68.0867 101.844L68.5177 101.992L69.0054 101.935L69.4364 102.06L69.8901 102.105L70.3381 102.213L70.7975 102.241L71.2399 102.168L71.6765 102.105L72.1586 102.219L72.5953 102.082L73.0603 102.02L73.4119 101.685L73.7465 101.368L74.2116 101.271L74.5802 101.011L74.8467 100.631L75.2664 100.415L75.6804 100.171L75.8846 99.7459L76.1228 99.3603L76.2078 98.8782L76.6502 98.6174L76.7863 98.175L76.86 97.71L77.1606 97.347L77.3648 96.9217L77.5519 96.485L77.5746 96.0086V95.5379L77.654 95.0842L77.8752 94.6362L77.62 94.1598L77.8695 93.6948L77.9035 93.2184L77.6086 92.7874V92.311L77.4952 91.8573L77.3761 91.5624L77.7164 91.3129L78.136 91.1144L78.5047 90.7968L78.896 90.5869L79.3837 90.5019L79.6389 90.0992L80.1096 89.9064L80.3535 89.5037L80.5179 89.0671L80.6541 88.6247L80.7958 88.188L80.7335 87.7343L80.8525 87.2863L80.6994 86.8553L80.4953 86.4583V85.9933L80.1663 85.6643L80.0756 85.1823L79.7353 84.876L79.724 84.8704ZM77.9319 87.6549L77.7788 88.0292L77.5065 88.4092L76.9734 88.3014L76.5538 88.4659L76.1738 88.7211L75.7598 88.8969L75.3118 89.0047L74.9715 89.3733L74.5462 89.5264L74.0868 89.6058L73.7579 90.0028L73.2304 89.9177L72.8618 90.2126L72.3798 90.2467L72.0281 90.5926L71.6142 90.7798L71.1831 90.9329L70.7691 91.1087L70.3948 91.4093L70.4742 91.9197L70.2757 92.3337L70.2304 92.8327L70.6444 93.1333L71.0527 93.2978L71.4213 93.4509L71.8297 93.6324L72.2607 93.519L72.686 93.4282L72.9809 93.0312L73.4233 92.9802L73.7862 92.742L74.2229 92.6683L74.6426 92.6966L74.9318 93.173L74.4214 93.1447L74.0244 93.3658L73.5537 93.3261L73.2248 93.7571L72.8221 93.9443L72.3287 93.8365L71.892 93.9216L71.478 94.0861L71.0187 94.1031L70.6727 94.4717L70.2531 94.7042L70.3098 95.226L70.1396 95.606L69.9752 96.088L70.2644 96.4907L70.616 96.7969H71.0981L71.4837 97.1826L71.9091 97.0181L72.3231 96.8026L72.7654 96.6721L73.2531 96.6892L73.6104 96.2752L74.1095 96.3149L74.5235 96.037L74.4611 96.2865L74.1889 96.6608L74.0925 97.1202L73.8826 97.5285L73.6501 97.9311L73.4516 98.3735L72.9639 98.5436L72.5386 98.7251L72.1756 98.9633L71.875 99.4113L71.41 99.5134L70.9393 99.6325L70.4913 99.2922L70.0432 99.2809L69.6179 99.0994L69.1755 98.9973L68.6368 99.1164L68.2228 98.8896L67.7804 98.6968L67.4118 98.3848L67.1282 97.9879L66.8163 97.6363L66.5384 97.2506V96.7459L66.3853 96.3205L66.0904 95.9009L66.2719 95.4131L66.1471 94.9594L66.3399 94.5001L66.2095 94.035L66.2492 93.4963L66.1811 92.9859L66.4931 92.6116L66.873 92.294L67.0715 91.8856L67.304 91.4887L67.4742 91.0406L67.6953 90.6266L68.115 90.3714L68.3646 89.9801L68.8126 89.7703L69.1188 89.43L69.2606 88.9026L69.6689 88.6644L70.0092 88.3468L70.565 88.3298L70.8088 87.8761L71.2228 87.6663L71.6028 87.3997L72.0905 87.3487L72.4195 86.963L72.8505 86.7816L73.3439 86.8042L73.8089 86.7872L74.2059 86.464L74.6596 86.3449L75.0963 86.2541L75.5386 86.5207L76.0037 86.3619L76.4347 86.6057L76.9508 86.4413L77.3988 86.6171L77.7107 86.9914L77.8525 87.3146L77.9205 87.6606L77.9319 87.6549Z" fill="#121315"/>
<path d="M120.105 84.6261L119.737 84.3085L119.255 84.3992L118.846 84.558L118.432 84.6998L118.166 85.0514L117.922 85.4427L117.587 85.7603L117.179 86.0042L116.975 86.4352L116.697 86.8038L116.22 86.9626L115.96 87.3483L115.551 87.5694L115.205 87.8643L114.842 88.1366L114.462 88.3861L114.111 88.681L113.759 88.9759L113.425 89.3048L112.926 89.3559L112.608 89.7245L112.211 89.9514L111.74 90.0308L111.349 90.2689L110.89 90.3597L110.504 90.6149L110.084 90.7907L109.693 91.0572L109.183 90.9778L108.746 91.1083L108.332 91.3068L107.889 91.4259L107.436 91.4826L107.027 91.7435L106.579 91.8172H106.114L105.695 92.0837L105.207 91.9363L104.765 92.0951L104.294 92.027L103.857 92.2142L103.404 92.2595H102.944L102.485 92.2368L102.025 92.1801L101.566 92.3956L101.107 92.2595L100.727 92.1461L100.466 91.8455L100.171 91.4826L99.9611 91.0799L99.8364 90.6262L99.5868 90.2406L99.3827 89.8209L98.9573 89.5657L98.7588 89.1404L98.4242 88.8228L98.1861 88.4258L97.9932 87.9778L97.5395 87.7736L97.3184 87.3426L96.9327 87.0817L96.6775 86.6734L96.1671 86.5656L95.7815 86.3218L95.5319 85.8908L95.1746 85.5959L94.772 85.369L94.4204 85.0514L93.944 84.9493L93.5754 84.6488L93.0593 84.6658L92.668 84.4163L92.305 84.076L91.8456 83.9909L91.3919 83.8888L90.9042 83.9455L90.5072 83.6053H90.0365L89.5885 83.6223L89.1461 83.5883L88.7038 83.4521L88.2671 83.696L87.8191 83.5939L87.3994 83.7697L86.94 83.713L86.4864 83.7527L86.095 83.9909L85.6981 84.1894L85.3238 84.4276L85.0175 84.7509L84.5695 84.8983L84.1838 85.1705L83.923 85.5562L83.9116 86.0609L83.7358 86.4636L83.6791 86.9002L83.3672 87.3142L83.4126 87.7736V88.2386L83.5487 88.6923L83.9343 89.0326L84.1215 89.4353L84.4107 89.7699L84.6886 90.1158L84.9835 90.4618L85.3691 90.6943L85.7831 90.8644L86.1461 91.1877L86.5828 91.3408L87.1045 91.3862L86.7869 91.8852L86.7245 92.3559L86.475 92.7813L86.5204 93.2633L86.4693 93.7284L86.6338 94.1934L86.5544 94.6585L86.458 95.1405L86.5601 95.5999L86.6735 96.0536L86.8833 96.4789L87.0818 96.9042L87.1215 97.3863L87.3484 97.7833L87.4108 98.254L87.6433 98.6453L88.0686 98.9175L88.2558 99.3259L88.545 99.6661L88.6414 100.177L89.0894 100.381L89.39 100.715L89.7586 100.976L90.0422 101.356L90.5129 101.453L90.9099 101.657L91.2672 101.969L91.6698 102.201L92.1576 102.15L92.5999 102.207L93.0479 102.224L93.4903 102.462L93.9497 102.303L94.4317 102.394L94.8457 102.093L95.2937 101.991L95.7701 101.98L96.2238 101.872L96.5924 101.549L97.1142 101.583L97.4091 101.141L97.8968 101.056L98.2428 100.744L98.6 100.449L98.98 100.177L99.3089 99.8476L99.6719 99.5357L99.9555 99.1557L100.029 98.6566L100.16 98.2143L100.545 97.874L100.489 97.3693L100.817 96.978L100.738 96.4903L100.749 96.0309L100.976 95.5942L100.999 95.2142L101.532 95.1008L101.991 95.1121L102.451 95.1575L102.904 95.0668L103.37 95.1745L103.812 94.925L104.277 95.0271L104.742 95.0668L105.19 94.9534H105.655L106.109 94.8796L106.557 94.7662L107.016 94.6982L107.441 94.4713L107.872 94.2955L108.366 94.3806L108.757 94.063L109.245 94.097L109.67 93.9155L110.13 93.8475L110.544 93.632L111.014 93.5923L111.411 93.3541L111.865 93.2463L112.245 92.9684L112.727 92.9174L113.147 92.7246L113.521 92.441L113.918 92.2142L114.366 92.0781L114.661 91.6754L115.109 91.5279L115.483 91.2614L115.841 90.9722L116.147 90.6149L116.589 90.4504L116.895 90.0988L117.383 89.9797L117.746 89.6962L118.047 89.3445L118.347 88.9929L118.693 88.6923L118.931 88.284L119.243 87.9608L119.584 87.6545L120.02 87.422L120.151 86.9456L120.389 86.5713L120.599 86.2084L120.769 85.783L120.593 85.3634L120.423 84.9493L120.088 84.6488L120.105 84.6261ZM94.2843 99.3542L93.8192 99.2975L93.3769 99.4563L92.9062 99.479L92.4751 99.2862L92.0328 99.1444L91.6131 98.9345L91.2842 98.5999L91.063 98.1803L90.6604 97.9251L90.3428 97.5848L90.2861 97.0857L89.9798 96.7341L89.8891 96.2861L89.7416 96.2691L90.1726 96.4052L90.6093 96.5583L91.063 96.649L91.5224 96.7341L91.9988 96.7681L92.3844 97.1027L92.8324 97.0007L93.2521 96.9156L93.7115 96.8305L94.0007 96.4676L94.3013 96.0876L94.2786 95.6112L94.1878 95.1689L93.8816 94.8456L93.7228 94.3636L93.2861 94.148L92.8438 94.0913L92.4184 93.9666L92.0158 93.7851L91.5451 93.8134L91.1311 93.666L90.7341 93.4562L90.2577 93.5072L89.8947 93.1669L89.4411 93.1329L89.6849 92.6679L90.0932 92.6905L90.4902 92.8437L90.8759 93.0251L91.2502 93.235L91.6188 93.4618L92.0952 93.4278L92.4808 93.6547L92.9572 93.7454L93.3258 93.4221L93.5754 93.0648L93.7852 92.7189L94.0007 92.3333L93.961 91.8909L93.8476 91.4486L93.4166 91.2501L93.1103 90.9495L92.668 90.8361L92.2823 90.5922L91.925 90.2746H91.4373L91.0744 89.9627L90.6263 89.8549L90.2634 89.5544L89.7473 89.6111L89.3106 89.4806L88.9647 89.1234L88.562 88.9192L88.131 88.7717L87.7454 88.5165L87.269 88.4712L86.8833 88.2046L86.4013 88.1309L86.2765 87.6715L86.475 87.3142L86.5998 86.9967L86.9514 86.7358L87.32 86.4069L87.8248 86.543L88.2558 86.4012L88.7095 86.3104L89.1688 86.3275L89.6112 86.5033L90.1046 86.3558L90.5242 86.5997L91.0006 86.6167L91.3863 86.9059L91.7776 87.1498L92.2313 87.2519L92.6509 87.439L93.065 87.6375L93.513 87.7963L93.7965 88.199L94.1028 88.5506L94.4657 88.8285L94.9648 88.9532L95.2937 89.2821L95.6567 89.5714L95.7871 90.0818L96.1217 90.3937L96.3656 90.785L96.6662 91.131L97.1312 91.3635L97.3694 91.7605L97.6473 92.1348L97.8458 92.5544L97.9762 93.0081L98.1293 93.4562L98.1804 94.0403L98.0386 94.511L98.067 94.9704L98.2144 95.4411L97.9876 95.8834V96.3485L97.7153 96.7455L97.6416 97.2048L97.3921 97.5905L97.2276 98.0612L96.8136 98.3107L96.3599 98.4638L95.9856 98.719L95.5773 98.9289L95.1803 99.1841L94.7493 99.3826L94.2672 99.3712L94.2843 99.3542Z" fill="#121315"/>
<path d="M72.4827 145.779L72.0177 145.875L71.5526 145.972L71.0876 145.841L70.6226 145.921L70.1575 145.87L69.6925 145.807L69.2274 145.904L68.7624 145.972L68.2974 145.841L67.8323 145.756L67.3673 145.881L66.9023 145.921L66.4372 145.784L65.9722 145.949L65.5071 145.813L65.0421 145.745L64.5771 145.983L64.112 145.909L63.647 145.892L63.1819 145.813L62.7169 145.767L62.2519 145.96L61.7868 145.858L61.3218 145.841L60.8511 145.875L60.3804 145.847L59.9097 145.733L59.4333 145.824L58.9512 145.762L58.5486 145.495L58.1402 145.246L57.7773 144.928L57.5277 144.514L57.3916 144.043L57.0684 143.68L56.8188 143.272L56.7962 142.767L56.5296 142.37L56.4445 141.9L56.2858 141.457L56.1553 141.009L56.0532 140.55L55.9171 140.102L55.798 139.648L55.6562 139.189L55.8207 138.712L55.6959 138.236L55.747 137.765L55.9795 137.34L56.1099 136.892L56.4162 136.535L56.6374 136.126L56.9663 135.797L57.2896 135.44L57.7943 135.366L58.1856 135.117L58.5372 134.805L58.9172 134.533L59.3198 134.295L59.6034 133.898L59.9777 133.62L60.3804 133.376L60.6242 132.945L61.0949 132.769L61.3672 132.383L61.7698 132.123L61.991 131.697L62.2859 131.34L62.5921 130.988L62.9097 130.642L63.2273 130.296L63.3237 129.803L63.6583 129.463L63.9759 129.1L64.0553 128.618L64.146 128.153L64.3048 127.722L64.543 127.313L64.6508 126.865L64.7982 126.423L64.6962 125.941L64.8266 125.504L64.7926 125.051L64.8606 124.603L64.974 124.143L64.7699 123.706L64.8323 123.241L64.6905 122.805L64.7075 122.334L64.3842 121.948L64.2141 121.529L64.2254 121.047L64.0893 120.61L63.8908 120.202L63.7717 119.754L63.4598 119.402L63.3181 118.96L62.9154 118.665L62.7396 118.245L62.6262 117.774L62.3199 117.434L62.0364 117.082L61.6394 116.816L61.5259 116.328L61.18 116.039L60.8794 115.704L60.749 115.268L60.8624 114.831L60.8227 114.343L61.197 114.048L61.5146 113.708L61.9853 113.697L62.405 113.771L62.8303 113.827L63.1933 114.077L63.5222 114.4L63.8852 114.695L64.0553 115.149L64.2651 115.568L64.543 115.937L64.9684 116.203L65.2066 116.6L65.4901 116.969L65.5298 117.479L65.785 117.865L65.9495 118.296L66.1707 118.699L66.5506 119.033L66.7094 119.47L66.9136 119.89L67.0497 120.332L67.1291 120.791L67.2709 121.234L67.4127 121.676L67.3786 122.158L67.4864 122.606L67.7019 123.043L67.5998 123.519L67.7076 123.973L67.5998 124.438L67.7019 124.897L67.6735 125.357L67.787 125.833L67.6509 126.287L67.4637 126.718L67.4127 127.166L67.3333 127.608L67.2992 128.068L67.2198 128.521L66.9703 128.918L66.8569 129.361L66.5677 129.729L66.3975 130.143L66.3692 130.637L66.0969 131.005L65.8871 131.408L65.4618 131.674L65.3427 132.14L65.0534 132.491L64.7982 132.871L64.4183 133.143L64.2368 133.58L63.9362 133.92L63.5336 134.164L63.1593 134.431L62.9381 134.856L62.6205 135.185L62.3199 135.417L62.6942 135.593L63.1649 135.514L63.6073 135.69L64.095 135.559L64.5544 135.633L64.9967 135.809L65.4448 135.928L65.9268 135.877L66.3295 136.183L66.8285 136.075L67.2369 136.342L67.6962 136.421L68.1386 136.552L68.5582 136.75L68.9836 136.926L69.3806 137.17L69.7889 137.374L70.2766 137.431L70.719 137.595L71.0139 138.004L71.5016 138.106L71.7625 138.531L72.2162 138.701L72.5961 138.973L72.8116 139.416L73.0895 139.779L73.4752 140.057L73.7361 140.442L73.9402 140.856L74.2181 141.23L74.3145 141.696L74.6605 142.053L74.6888 142.529L74.7058 142.96L74.7909 143.374L74.7058 143.788L74.6264 144.197L74.5073 144.599L74.2748 144.945L74.0763 145.342L73.7587 145.66L73.2937 145.694L72.9194 145.977L72.4714 145.801L72.4827 145.779ZM59.9664 143.113L60.4314 143.017L60.8908 142.92L61.3501 143.051L61.8095 142.972L62.2689 143.023L62.7282 143.085L63.1876 142.989L63.647 142.92L64.1063 143.051L64.56 143.136L65.0194 143.011L65.4788 142.972L65.9381 143.108L66.3918 142.943L66.8512 143.079L67.3106 143.147L67.7699 142.909L68.2293 142.983L68.6887 143L69.148 143.079L69.6074 143.125L70.0668 142.932L70.5262 143.034L70.9855 143.051L71.4506 143.017L71.9156 143.045L71.8419 142.546L71.5016 142.2L71.184 141.86L70.9402 141.463L70.5885 141.162L70.2199 140.885L69.8853 140.567L69.5677 140.204L69.1027 140.074L68.666 139.909L68.3201 139.546L67.8493 139.455L67.441 139.212L66.993 139.07L66.545 138.934L66.0969 138.798L65.6319 138.724L65.1669 138.673H64.6962L64.2651 138.423L63.7831 138.503L63.3181 138.457L62.87 138.287H62.3993L61.9399 138.162L61.4692 138.208L61.0042 138.196L60.5335 138.281L60.0684 138.066L59.6034 138.055L59.1327 138.117L58.6336 138.134L58.4692 138.622L58.6223 139.07L58.662 139.512L58.6847 139.966L58.9569 140.357L58.9115 140.845L59.144 141.242L59.2121 141.701L59.5013 142.07L59.6998 142.478L59.9834 143.136L59.9664 143.113Z" fill="#121315"/>
<path d="M103.229 145.739L102.764 145.819L102.298 145.926L101.833 145.768L101.368 145.779L100.903 145.915L100.438 146L99.9733 145.836L99.5082 145.966L99.0432 145.858L98.5782 145.892L98.1131 145.841L97.6481 145.864L97.183 145.847L96.718 145.79H96.253L95.7879 145.938L95.3229 145.926L94.8579 145.847L94.3928 145.802L93.9278 145.751L93.4627 145.807L92.9977 145.745L92.5327 145.79L92.0676 145.824L91.5969 145.802L91.1262 145.79L90.6555 145.887L90.1621 145.943L89.7311 145.694L89.266 145.558L88.9088 145.234L88.6195 144.854L88.2566 144.537L87.9503 144.157L87.8596 143.675L87.7405 143.21L87.4399 142.83L87.2244 142.405L87.1904 141.917L86.8841 141.52V141.026L86.8218 140.556L86.4872 140.147V139.665L86.4531 139.195L86.5155 138.724L86.5836 138.259L86.4645 137.765L86.68 137.329L86.8671 136.898L87.0713 136.472L87.3832 136.121L87.7915 135.888L88.0921 135.52L88.4494 135.213L88.8747 135.015L89.2377 134.72L89.595 134.425L89.9976 134.193L90.4457 134.005L90.7292 133.614L91.0468 133.274L91.5175 133.104L91.7954 132.712L92.1867 132.446L92.5043 132.106L92.8219 131.765L93.1395 131.425L93.4003 131.039L93.6442 130.637L93.8314 130.206L94.234 129.911L94.3418 129.434L94.5459 129.02L94.8522 128.652L94.994 128.204L95.2378 127.795L95.3059 127.325L95.4136 126.871V126.4L95.6802 125.975L95.7312 125.516L95.6915 125.056V124.603L95.7199 124.143L95.5384 123.701L95.493 123.253L95.4817 122.793L95.2265 122.385L95.2945 121.897L95.079 121.483L95.028 121.018L94.7501 120.638L94.5686 120.224L94.3928 119.805L94.234 119.379L94.0752 118.948L93.6896 118.648L93.5535 118.2L93.4003 117.757L93.0317 117.457L92.6914 117.151L92.4192 116.793L92.2151 116.379L91.9145 116.05L91.7103 115.659L91.4154 115.273L91.5062 114.808L91.6026 114.355L91.9315 114.026L92.3625 113.89L92.7311 113.612L93.1678 113.742L93.5932 113.822L93.8597 114.168L94.3248 114.36L94.6537 114.689L94.8068 115.154L95.062 115.54L95.3512 115.897L95.5441 116.323L95.8957 116.64L96.0658 117.077L96.4741 117.372L96.6386 117.809L96.7123 118.291L96.9675 118.676L97.183 119.085L97.5006 119.453L97.4666 119.964L97.6878 120.372L97.8863 120.792L98.011 121.234L98.0224 121.71L98.3173 122.119L98.2833 122.601L98.4534 123.043L98.3797 123.519L98.3513 123.984L98.4591 124.438L98.4818 124.903L98.4988 125.368L98.5555 125.839L98.357 126.287L98.2095 126.718L98.1415 127.16L98.2379 127.642L98.1074 128.079L98.0167 128.527L97.6594 128.884L97.5347 129.315L97.3135 129.707L97.1433 130.121L97.1207 130.62L96.8825 131.011L96.684 131.419L96.4174 131.788L96.1112 132.128L95.856 132.503L95.6008 132.877L95.2095 133.143L94.9316 133.501L94.7331 133.932L94.3077 134.153L94.0412 134.527L93.6272 134.748L93.3607 135.128L93.0034 135.44L93.4968 135.344L93.9505 135.48L94.3928 135.656L94.8579 135.684L95.3172 135.735L95.7879 135.724L96.253 135.752L96.684 135.951L97.149 136.002L97.5687 136.234L98.0167 136.336L98.5158 136.28L98.9411 136.478L99.3835 136.614L99.7351 136.983L100.223 137.011L100.631 137.232L101.056 137.414L101.402 137.743L101.873 137.856L102.264 138.106L102.565 138.474L102.871 138.82L103.319 139.013L103.665 139.319L104 139.643L104.136 140.119L104.499 140.42L104.641 140.873L105.032 141.185L105.225 141.611L105.304 142.076L105.412 142.518L105.65 142.909L105.474 143.352L105.673 143.788L105.435 144.18L105.333 144.594L105.117 144.968L104.799 145.251L104.454 145.495L104.051 145.609L103.654 145.699L103.251 145.734L103.229 145.739ZM90.7065 143.153L91.1772 143.079L91.6366 142.972L92.096 143.13L92.5553 143.119L93.0147 142.983L93.4741 142.898L93.9334 143.062L94.3928 142.932L94.8522 143.04L95.3059 143.006L95.7652 143.057L96.2246 143.034L96.684 143.051L97.1377 143.108H97.597L98.0564 142.96L98.5158 142.972L98.9751 143.051L99.4345 143.096L99.8939 143.147L100.353 143.091L100.813 143.153L101.272 143.108L101.731 143.074L102.196 143.096L102.684 143.108L102.463 142.603L102.151 142.251L101.992 141.798L101.635 141.491L101.351 141.123L101.039 140.766L100.608 140.561L100.189 140.363L99.8599 140.011L99.4856 139.716L99.0092 139.631L98.5668 139.49L98.1812 139.2H97.6878L97.2795 138.945L96.8484 138.758L96.338 138.883L95.9014 138.713L95.4477 138.605L94.9996 138.452L94.5459 138.338L94.0582 138.469L93.6045 138.316L93.1395 138.253H92.6744L92.2094 138.196L91.75 138.06L91.2793 138.174L90.8086 138.231L90.3436 138.162L89.8729 138.202L89.4418 138.231L89.3454 138.605L89.232 139.059L89.4192 139.484L89.5666 139.904L89.5042 140.386L89.7368 140.788L89.8105 141.242L89.9863 141.662L90.1621 142.081L90.3322 142.501L90.7235 143.147L90.7065 143.153Z" fill="#121315"/>
</svg>
