<svg width="24" height="24" viewBox="0 0 24 24" fill="none" xmlns="http://www.w3.org/2000/svg">
<path d="M13.6131 3.92524L13.6653 3.88398L13.6955 3.78428L13.7547 3.71323L13.8127 3.64448L13.8824 3.59062L13.8987 3.50696L13.9219 3.4256L13.901 3.34309L13.8557 3.27089L13.8139 3.19411L13.7524 3.12421L13.6665 3.07837L13.5713 3.12077L13.4819 3.11848L13.3983 3.15515L13.3205 3.21474L13.2369 3.26745L13.1405 3.30069L13.072 3.3958L13.1568 3.33392L13.2253 3.27318L13.2601 3.17807L13.3205 3.10931L13.4064 3.06805L13.4679 3.00044L13.5387 2.94314L13.62 2.89731L13.6966 2.84574L13.692 2.74833L13.6966 2.6704L13.7129 2.59133L13.692 2.51455L13.6467 2.44923L13.5852 2.39079L13.5318 2.30942L13.4424 2.27046L13.3483 2.30828L13.2706 2.34724L13.1916 2.37589L13.1185 2.43433L13.036 2.48017L12.9292 2.49163L12.8805 2.58216L12.8143 2.64863L12.7133 2.66926L12.6518 2.74489L12.5751 2.77812L12.6587 2.75635L12.6877 2.65436L12.7679 2.60967L12.8561 2.57414L12.9257 2.51799L12.9815 2.44694L13.0326 2.36901L13.1092 2.31974L13.1986 2.28307L13.2404 2.19483L13.3228 2.15357L13.3158 2.05731L13.3785 1.98741L13.3472 1.90375L13.3588 1.81322L13.2764 1.7628L13.2334 1.67685L13.1487 1.6333L13.0546 1.62299L12.9501 1.64476L12.935 1.5485L12.9176 1.4637L12.8503 1.40869L12.8027 1.33306L12.7237 1.28951L12.6332 1.30212L12.5461 1.28378L12.4683 1.31472L12.4544 1.22648L12.4904 1.13251L12.4625 1.04084L12.387 0.976663L12.3406 0.897591L12.2918 0.809352L12.1827 0.811644L12.1038 0.758929L12.0109 0.769243L11.911 0.745178L11.8263 0.7956L11.7659 0.871234L11.6951 0.929678L11.5906 0.946868L11.5349 1.02479L11.4606 1.0798L11.3747 1.11991L11.2946 1.16689L11.2191 1.22075L11.1599 1.29524L11.1076 1.3789L11.0043 1.39838L10.9672 1.50381L11.002 1.3938L11.0891 1.34452L11.1645 1.28378L11.2284 1.20929L11.2934 1.13824L11.3375 1.07407L11.4037 1.01677L11.4165 0.934262L11.3898 0.855191L11.3689 0.779557L11.3271 0.711945L11.2644 0.660376L11.2017 0.59964L11.1169 0.572137L11.0345 0.621413L10.9346 0.585888L10.8836 0.67069L10.8162 0.727988L10.7303 0.763513L10.6874 0.850607L10.5933 0.876964L10.512 0.918219L10.4691 1.00531L10.3994 1.06032L10.3356 1.1222L10.2671 1.17721L10.1986 1.23336L10.1324 1.29295L10.0639 1.3491L9.95825 1.36056L9.89904 1.42703L9.82822 1.48203L9.79107 1.576L9.68426 1.58632L9.61228 1.64018L9.57164 1.72956L9.49966 1.78228L9.40794 1.81322L9.3766 1.91406L9.3081 1.97136L9.22799 2.01491L9.16065 2.07335L9.05732 2.0894L8.99927 2.1593L8.95516 2.24754L8.88666 2.25327L8.91917 2.20972L9.01785 2.18566L9.03527 2.07679L9.14788 2.06648L9.19084 1.98397L9.24424 1.91177L9.33945 1.88198L9.40214 1.8201L9.42536 1.71696L9.48573 1.65164L9.58325 1.62528L9.65175 1.56798L9.6831 1.47287L9.75856 1.42359L9.82242 1.36056L9.87582 1.28837L9.96986 1.25743L10.0151 1.17606L10.115 1.1497L10.1452 1.0523L10.2137 0.990415L10.2206 0.898737L10.2276 0.81279L10.2021 0.731426L10.1719 0.646624L10.1057 0.574428L10.0151 0.529736L9.91181 0.512546L9.81429 0.546925L9.74463 0.620267L9.65059 0.648916L9.60067 0.73028L9.52056 0.776119L9.45438 0.839147L9.40214 0.926241L9.43349 0.821957L9.39517 0.732572L9.42304 0.634019L9.38356 0.548071L9.31506 0.481605L9.26746 0.403679L9.19897 0.341797L9.1177 0.299396L9.03527 0.259287L8.94355 0.247828L8.85299 0.229492L8.76011 0.235222L8.67652 0.278769L8.6057 0.334921L8.53488 0.38649L8.43503 0.419723L8.35609 0.478167L8.30268 0.565261L8.24463 0.645478L8.16336 0.722258L8.07513 0.64777L7.98573 0.655792L7.93 0.73601L7.83712 0.74747L7.80113 0.834563L7.74657 0.901029L7.65136 0.925095L7.59331 0.989269L7.54571 1.06376L7.4807 1.11991L7.39595 1.15429L7.35415 1.23565L7.27985 1.28378L7.21483 1.33993L7.16259 1.41213L7.10454 1.44766L7.08364 1.37317L6.99076 1.32733L6.92807 1.26545L6.83983 1.24711L6.75972 1.20013L6.67265 1.22992L6.56468 1.21273L6.5252 1.31702L6.45438 1.35139L6.40794 1.41213L6.34409 1.44651L6.38356 1.37317L6.3766 1.28607L6.4091 1.20242L6.39285 1.11533L6.32319 1.05573L6.27675 0.984685L6.22567 0.903321L6.1235 0.920511L6.04455 0.891862L5.96561 0.927387L5.87737 0.925095L5.80307 0.977809L5.74386 0.913635L5.68697 0.859774L5.64285 0.773827L5.55113 0.774973L5.46754 0.758929L5.37931 0.764659L5.31777 0.828833L5.24927 0.875818L5.17033 0.910197L5.13434 0.983539L5.08325 1.07063L5.06816 0.951452L4.99502 0.882694L4.89982 0.871234L4.82435 0.823103L4.73728 0.839147L4.6502 0.850607L4.56081 0.87811L4.51088 0.956036L4.45864 1.01333L4.40407 1.07063L4.3704 1.14054L4.27636 1.16346L4.18 1.18179L4.09989 1.23909L4.04765 1.3216L4.00237 1.39494L3.9478 1.46141L3.91414 1.54048L3.86189 1.60924L3.84099 1.69518L3.78991 1.76509L3.76437 1.84874L3.67729 1.89917L3.64479 1.98053L3.60299 2.05502L3.61344 2.1593L3.53797 2.21431L3.52869 2.30713L3.48341 2.39193L3.50314 2.48476L3.56468 2.55466L3.62157 2.62227L3.70051 2.67613L3.70748 2.75864L3.70051 2.84001L3.73186 2.91564L3.81893 2.942L3.84564 3.02909L3.88627 3.09441L3.90833 3.17807L3.82474 3.23766L3.79687 3.33163L3.70864 3.37632L3.6355 3.43362L3.60763 3.52759L3.54842 3.59635L3.49618 3.67083L3.43697 3.73959L3.37892 3.8095L3.32435 3.88169L3.2663 3.9516L3.16413 3.98368L3.1177 4.06275L3.05848 4.13151L3.03875 4.23236L2.93542 4.26559L2.87505 4.3332L2.85183 4.43061L2.7903 4.49822L2.7067 4.54635L2.69509 4.65293L2.63937 4.72512L2.56971 4.78471L2.51398 4.85576L2.4153 4.89358L2.37234 4.97494L2.34796 5.07121L2.24115 5.101L2.23186 5.20987L2.14943 5.27977L2.20167 5.38291L2.1355 5.47802L2.18774 5.56512L2.24347 5.6419L2.26785 5.74389L2.33054 5.78514L2.3259 5.85734L2.27482 5.92266L2.18426 5.95016L2.12505 6.00517L2.11576 6.09914L2.0728 6.16904L2.06816 6.24926L2.09835 6.33865L2.00663 6.39594L1.99386 6.48648L1.92188 6.55982L1.96715 6.65035L1.96367 6.73744L2.01591 6.80849L2.05655 6.88069L2.11344 6.94028L2.16684 7.01018L2.23186 7.05831L2.19239 7.12822L2.17033 7.21302L2.1889 7.29897L2.24231 7.36773L2.25856 7.46055L2.33867 7.51326L2.42575 7.54993L2.51979 7.54191L2.61383 7.57285L2.68813 7.52931L2.72644 7.59463L2.78681 7.65536L2.84718 7.72068L2.94006 7.71381L3.02482 7.75277L3.10609 7.70693L3.08519 7.79288L3.08867 7.8731L3.03178 7.96707L3.11421 8.03009L3.12698 8.1275L3.22567 8.14813L3.2814 8.22949L3.37776 8.19626L3.46135 8.22262L3.55423 8.22033L3.62389 8.16073L3.68542 8.08395L3.7783 8.04728L3.85957 7.99571L3.93271 7.93269L4.00237 7.86622L4.06855 7.83184L4.13821 7.87883L4.16491 7.96248L4.20206 8.05187L4.28797 8.09198L4.37969 8.10573L4.46328 8.17449L4.55732 8.13782L4.63975 8.09541L4.70941 8.03926L4.78372 7.99113L4.86499 7.95102L4.91607 7.87195L5.01359 7.85362L5.08325 7.79861L5.15175 7.74131L5.22954 7.69662L5.27598 7.61067L5.34796 7.55681L5.43039 7.4892L5.48379 7.56025L5.48728 7.63244L5.55229 7.68974L5.6324 7.72068L5.71251 7.7436L5.80191 7.79059L5.89362 7.76194L5.95748 7.69203L6.03178 7.63817L6.10609 7.58317L6.19316 7.5442L6.27443 7.49722L6.32087 7.40669L6.38821 7.34251L6.4927 7.32532L6.52985 7.22219L6.61112 7.17635L6.69587 7.13395L6.7783 7.08811L6.83171 7.00445L6.91414 6.94601L6.96754 7.05029L6.99192 7.1328L7.02443 7.22562L7.10918 7.26917L7.20554 7.2623L7.29262 7.31845L7.37737 7.27032L7.454 7.22448L7.51901 7.16145L7.61421 7.13853L7.66414 7.05488L7.74192 7.00904L7.81855 6.95976L7.88356 6.89673L7.95903 6.84746L8.03101 6.79245L8.10647 6.74203L8.19123 6.70536L8.25856 6.64347L8.36421 6.6366L8.41878 6.55753L8.4954 6.50825L8.57551 6.4647L8.66143 6.42918L8.72993 6.33292L8.69974 6.43949L8.7276 6.52773L8.74966 6.61024L8.75314 6.70879L8.84254 6.74776L8.90523 6.80276L8.98186 6.84058L9.06661 6.86006L9.15949 6.90132L9.25121 6.87038L9.30578 6.78328L9.39517 6.75234L9.48805 6.72827L9.55887 6.67098L9.61228 6.58961L9.69239 6.54492L9.75508 6.47731L9.85028 6.45553L9.94084 6.42574L10.0151 6.37417L10.0755 6.30427L10.1394 6.23665L10.2044 6.17248L10.3089 6.16217L10.3785 6.10487L10.4168 6.00517L10.5039 5.97537L10.5887 5.941L10.6363 5.85849L10.7141 5.81494L10.8081 5.79546L10.8499 5.70378L10.9381 5.67742L11.0206 5.64075L11.0844 5.57887L11.139 5.50438L11.2203 5.47229L11.2272 5.55595L11.2191 5.64648L11.2679 5.72326L11.3038 5.8115L11.3851 5.86192L11.4826 5.85734L11.5662 5.86651L11.6649 5.8963L11.7543 5.85963L11.7961 5.75879L11.8739 5.71295L11.9668 5.68888L12.055 5.65794L12.134 5.61439L12.2106 5.56741L12.2721 5.49751L12.336 5.43219L12.4254 5.40583L12.5089 5.36916L12.5647 5.28894L12.6309 5.22477L12.7377 5.22362L12.8004 5.15486L12.8874 5.12048L12.9362 5.0311L13.0105 4.97838L13.0941 4.94171L13.1823 4.91077L13.2578 4.86035L13.3425 4.82368L13.4261 4.78701L13.4795 4.70335L13.5527 4.64834L13.627 4.59448L13.7164 4.56469L13.7686 4.48676L13.8545 4.43634L13.8882 4.34466L13.872 4.24955L13.8696 4.15443L13.8162 4.07536L13.7268 4.03525L13.656 3.98941L13.6131 3.92524Z" fill="#121315"/>
<path d="M22.456 14.8692L22.5956 14.769L22.5891 14.5773L22.7266 14.4534L22.7222 14.2811L22.7124 14.1173L22.6655 13.96L22.7844 13.7823L22.732 13.6196L22.6578 13.4667L22.5913 13.3105L22.5007 13.1661L22.289 13.1349L22.2388 12.9485L22.1177 12.8203L21.953 12.7643L21.7871 12.7202L21.606 12.7816L21.4467 12.7751L21.2808 12.6523L21.1085 12.7299L20.9393 12.8203L20.7538 12.7643L20.576 12.7805L20.3883 12.7385L20.2028 12.8527L20.3556 12.7212L20.5433 12.7352L20.7135 12.7105L20.8335 12.5672L20.971 12.4627L21.1717 12.5101L21.2939 12.3711L21.4303 12.2667L21.6093 12.2634L21.7849 12.2516L21.8973 12.0965L22.0806 12.0825L22.2094 11.965L22.384 11.9036L22.4887 11.7604L22.6382 11.6505V11.4501L22.6513 11.2778L22.6906 11.1216L22.8051 10.9697L22.8073 10.7984L22.7593 10.6325L22.6655 10.4849L22.6153 10.3298L22.5542 10.1779L22.4582 10.0444L22.361 9.90863L22.2683 9.75889L22.1548 9.61347L21.9432 9.64148L21.7959 9.56176L21.6562 9.40665L21.474 9.40234L21.2983 9.49821L21.1314 9.51113L20.9459 9.47235L20.7844 9.52083L20.6316 9.59947L20.4625 9.62209L20.3229 9.75351L20.1308 9.73843L20.2847 9.64794L20.4647 9.60808L20.4985 9.39264L20.7058 9.35709L20.7877 9.20521L20.8815 9.06194L20.863 8.87665L21.0255 8.74308L20.9513 8.56318L20.9317 8.39945L20.9601 8.22925L20.9884 8.04504L20.875 7.90177L20.8149 7.73911L20.6469 7.64863L20.6011 7.46873L20.4723 7.35347L20.2672 7.35132L20.193 7.14341L20.0283 7.07986L19.8482 7.08309L19.6813 7.03892L19.51 7.07986L19.3299 7.00014L19.1608 7.1111L19.343 7.01738L19.4947 6.95059L19.6562 6.88273L19.6736 6.67698L19.858 6.60911L19.929 6.45507L19.9322 6.28487L20.0141 6.12975L19.953 5.96494L19.9693 5.79689L19.9464 5.62777L19.8744 5.47265L19.6955 5.39186L19.6245 5.24212L19.5438 5.07947L19.3572 5.05684L19.2077 4.99436L19.0375 5.01914L18.8891 4.94158L18.7342 5.01268L18.5531 4.90603L18.4211 5.03638L18.217 4.99975L18.0588 5.08485L17.9202 5.22166L17.7086 5.16995L17.6311 5.26367L17.6649 5.17641L17.8035 5.07839L17.9453 4.96636L17.9606 4.78862L17.9737 4.62165L17.9399 4.45576L17.9966 4.30387L18.037 4.14229L17.9213 3.99902L17.9857 3.81804L17.8286 3.70601L17.7664 3.56382L17.6802 3.43563L17.6857 3.22342L17.5438 3.12755L17.4456 2.97781L17.2187 3.02844L17.0834 2.95088L16.9372 2.89056L16.7931 2.79253L16.624 2.84532L16.4658 2.84424L16.289 2.74083L16.1472 2.87548L15.9519 2.8367L15.7915 2.92288L15.63 3.01229L15.4554 2.98966L15.3179 3.08877L15.1685 3.15017L14.9873 3.12108L14.828 3.15232L14.7037 3.29129L14.5258 3.28805L14.3534 3.30421L14.2268 3.44748L14.0785 3.52935L13.9301 3.61122L13.7184 3.52396L13.6191 3.7351L13.4041 3.64461L13.2874 3.80835L13.0888 3.75987L12.9666 3.90638L12.7964 3.929L12.6262 3.95593L12.4822 4.04426L12.3294 4.1132L12.2116 4.26832L12.061 4.34265L11.8428 4.25109L11.7468 4.45791L11.5754 4.48376L11.378 4.44606L11.2754 4.63242L11.103 4.65612L10.9535 4.73152L10.7964 4.78969L10.6556 4.88772L10.5083 4.96959L10.3229 4.96205L10.1396 4.96097L10.0424 5.1581L9.86568 5.17103L9.70311 5.21843L9.5198 5.2195L9.37905 5.31645L9.21102 5.35308L9.10627 5.5319L8.93933 5.5696L8.7473 5.55236L8.61527 5.6687L8.46143 5.73872L8.30431 5.8012L8.17447 5.92185L7.98789 5.91754L7.88423 6.09851L7.67038 6.0328L7.55035 6.17823H7.46197L7.48816 6.08882L7.66601 6.04142L7.77185 5.91L7.9377 5.84967L8.00753 5.67517L8.17992 5.62238L8.31522 5.52651L8.38069 5.34338L8.59782 5.34985L8.72329 5.24105L8.79967 5.06977L8.90442 4.93404L9.09863 4.91357L9.1641 4.72614L9.31358 4.6475L9.46307 4.56886L9.65619 4.55055L9.76312 4.4159L9.92897 4.36204L10.0523 4.25001L10.1657 4.1229L10.2465 3.94946L10.3872 3.86006L10.5596 3.81697L10.6938 3.71894L10.8368 3.63276L10.9972 3.57352L11.103 3.43348L11.2067 3.29559L11.3627 3.21696L11.5493 3.13293L11.5525 2.93473L11.6867 2.79469L11.6649 2.60941L11.6846 2.4349L11.6453 2.26362L11.5765 2.10527L11.5231 1.94261L11.3867 1.8295L11.3267 1.66361L11.2448 1.49126L11.0233 1.5128L10.8859 1.41801L10.7495 1.27581L10.5727 1.22949L10.3938 1.31028L10.2268 1.34152L10.0599 1.37492L9.93115 1.49664L9.7282 1.4891L9.65401 1.67007L9.48816 1.72393L9.35723 1.82412L9.25139 1.95985L9.04954 1.97169L8.9797 2.16128L8.81495 2.22376L8.66219 2.3024L8.56836 2.45752L8.34904 2.44998L8.3054 2.67081L8.17119 2.77314L7.99553 2.8227L7.88969 2.96058L7.75657 3.06507L7.53835 3.06076L7.40633 3.16741L7.2994 3.30421L7.19138 3.43994L7.01135 3.48518L6.91751 3.63815L6.76476 3.71894L6.64473 3.83851L6.50944 3.94085L6.36323 4.02918L6.24975 4.15737L6.10027 4.24354L5.97479 4.35665L5.87223 4.49561L5.71729 4.57533L5.65619 4.76276L5.44015 4.77461L5.41724 5.00191L5.17829 4.98898L5.15755 5.21843L4.98625 5.28198L4.89023 5.42741L4.78003 5.55667L4.57054 5.58145L4.53781 5.79151L4.36868 5.86045L4.26285 5.99402L4.11446 6.08451L3.98243 6.19331L3.85477 6.30534L3.79258 6.47985L3.68892 6.61234L3.47288 6.64574L3.37468 6.78578L3.24703 6.89996L3.22302 7.1014L3.12155 7.23605L2.96661 7.32762L2.85532 7.45688L2.77676 7.60877L2.70147 7.76928L2.61855 7.92224L2.52253 8.06659L2.41887 8.20555L2.24648 8.30681L2.26285 8.51363L2.11009 8.63105L2.05335 8.79694L1.95297 8.94452L1.90387 9.10502L1.89187 9.27199L1.88423 9.43788L1.91697 9.59947L1.88532 9.78475L2.04572 9.89893L2.13846 10.0314L2.25957 10.1392L2.30649 10.3352L2.47561 10.3945L2.62728 10.4699L2.77894 10.5571L2.93497 10.5442L2.86186 10.6918L2.67201 10.6907L2.54872 10.7973L2.44506 10.9384L2.22138 10.8781L2.10791 11.002L1.99771 11.1323L1.85805 11.2121L1.67474 11.2218L1.58854 11.3963L1.46743 11.5061L1.35614 11.6268L1.20447 11.7324L1.24703 11.9295L1.11064 12.0631L1.0539 12.2333L1.05935 12.4099L1.21429 12.551L1.27648 12.6975L1.21647 12.9162L1.32122 13.0616L1.49798 13.1381L1.65292 13.2125L1.68674 13.3266L1.61691 13.4171L1.48816 13.5173L1.30158 13.5485L1.18265 13.6735L1.12373 13.8372L0.980795 13.9536L0.967702 14.1292L0.927331 14.2929L0.921875 14.4609L1.05608 14.6074L1.08991 14.7561L1.1521 14.8951L1.08118 15.118L1.25139 15.2021L1.39978 15.2818L1.46306 15.4638L1.6311 15.5102L1.78385 15.5737L1.9617 15.5123L2.11118 15.5769L2.28358 15.6868L2.48871 15.5306L2.5018 15.7687L2.39923 15.9874L2.60327 16.0929L2.67419 16.233L2.65346 16.456L2.80513 16.5561L2.98189 16.6046L3.04844 16.6908L2.94042 16.8297L2.71129 16.8222L2.55199 16.9019L2.41124 17.0096L2.25957 17.1023L2.13191 17.2272L2.00207 17.3544L1.94861 17.5289L1.92351 17.7055L1.94643 17.8843L1.83622 18.0341L1.76639 18.2054L1.86023 18.3712L1.8755 18.5414L1.94752 18.6869L1.95734 18.8603L2.00316 19.0305L2.23666 19.0574L2.26721 19.2481L2.38178 19.3741L2.56727 19.3924L2.6862 19.5174L2.8695 19.4894L2.99716 19.6553L3.16519 19.6908L3.33431 19.5605L3.50234 19.623L3.65292 19.5422L3.81331 19.47L3.99771 19.4905L4.17119 19.4722L4.33268 19.4054L4.47998 19.2858L4.65019 19.2481L4.83677 19.2675L4.89896 19.4129L4.94915 19.5734L5.08336 19.6671L5.1892 19.7921L5.36923 19.8018L5.43361 19.8912L5.37359 20.0108L5.38341 20.209L5.23611 20.3544L5.19247 20.5364L5.28958 20.7185L5.21211 20.9124L5.40851 21.0298L5.39542 21.2076L5.48925 21.3433L5.5689 21.4887L5.74348 21.5469L5.8395 21.6783L5.99771 21.7268L6.09045 21.9056L6.26394 21.9174L6.41778 21.9993L6.58909 21.9745L6.75494 21.9713L6.91751 21.9379L7.10082 21.9196L7.26667 21.8119L7.47725 21.9217L7.68456 21.7731L7.5449 22.0144L7.71293 22.204L7.68892 22.3796L7.78058 22.5228L7.8635 22.6661L7.95952 22.804L8.08827 22.9139L8.20174 23.055L8.39269 23.0528L8.53235 23.1767L8.71457 23.1261L8.87823 23.0948L9.03862 23.0808L9.26776 23.1767L9.43033 23.0819L9.56672 23.1972L9.72275 23.167L9.89187 23.2187L10.0523 23.0991L10.2247 23.2295L10.3894 23.195L10.5498 23.0808L10.7178 23.1078L10.8859 23.1444L11.0539 23.1821L11.2176 23.1175L11.3801 23.0431L11.5471 23.0604L11.7162 23.1099L11.8777 23.0076L12.049 23.1153L12.2127 23.0593L12.3752 22.9699L12.5433 23.0237L12.708 22.9839L12.8739 22.9613L13.0419 23L13.2077 22.9947L13.3834 23.0313L13.5547 22.9473L13.7293 22.972L13.9082 23.0711L14.0795 22.9957L14.2563 23.0313L14.4254 22.8848L14.6065 23.0453L14.7768 22.9419L14.9513 22.943L15.1128 22.8719L15.2754 22.8535L15.4412 22.9074L15.6038 22.8891L15.7697 22.9645L15.9333 22.9828L16.0926 22.8395L16.2574 22.8815L16.42 22.8557L16.5847 22.9333L16.7495 22.9483L16.9131 22.902L17.0757 22.8675L17.2405 22.8245L17.3158 22.6381L17.5198 22.6359L17.5285 22.4248L17.7348 22.3785L17.7817 22.2169L17.7435 22.037L17.7838 21.8927L17.8646 21.7386L18.0283 21.6481L18.2236 21.7559L18.3861 21.6891L18.5356 21.562L18.7102 21.5587L18.8979 21.6255L19.0397 21.4629L19.2241 21.507L19.3769 21.4015L19.5591 21.437L19.7097 21.3228L19.8744 21.2743L20.0523 21.2959L20.205 21.2183L20.4134 21.2711L20.5051 21.0794L20.6218 20.963L20.7931 20.907L20.9099 20.7842L21.0539 20.6711L21.0474 20.4783L21.1325 20.3307L21.199 20.168L21.2492 19.9946L21.1237 19.8309L21.1259 19.6617L21.1663 19.4678L20.9972 19.3515L20.8891 19.2233L20.9011 19.0887L20.9993 18.9476L21.2197 18.9745L21.3409 18.8312L21.4958 18.7687L21.5929 18.6298L21.7915 18.5888L21.8591 18.4273L21.9399 18.2786L21.9028 18.0966L22.0817 17.9565L22.0021 17.7831L21.9562 17.6237L21.8722 17.4804L21.8984 17.2929L21.8079 17.1497L21.6649 17.0172L21.9071 17.0376L22.0599 16.8545L22.2225 16.8125L22.385 16.7565L22.5203 16.6531L22.6295 16.5227L22.7778 16.4172L22.7397 16.2125L22.9077 16.0919L22.9219 15.9184L22.8182 15.7525L22.8946 15.5769L22.816 15.4229L22.7047 15.2926L22.7037 15.1008L22.54 15.0157L22.456 14.8692Z" fill="#C6F065"/>
<path d="M11.9694 11.6889L12.0574 11.7824L12.0189 11.8727L12.009 11.9651L11.9375 12.0465L11.9408 12.1389L11.9848 12.2412L11.9144 12.3182L11.8682 12.3996L11.8737 12.4964L11.8902 12.6009L11.7813 12.6548L11.7406 12.7352L11.6999 12.8166L11.6603 12.8969L11.6328 12.9882L11.5646 13.0509L11.5338 13.1444L11.4337 13.1763L11.3754 13.2445L11.3292 13.3292L11.2665 13.3985L11.2059 13.4755L11.0937 13.4689L11.0035 13.4898L10.9265 13.5371L10.844 13.5723L10.7703 13.6516L10.679 13.6747L10.5778 13.5965L10.4909 13.6659L10.3974 13.6626L10.3083 13.6351L10.2224 13.5976L10.1256 13.6053L10.031 13.5932L9.96611 13.5118L9.90231 13.4403L9.79449 13.4447L9.73839 13.3666L9.66798 13.3094L9.57557 13.2753L9.53157 13.1906L9.45896 13.1334L9.41825 13.0487L9.35005 12.986L9.30934 12.9035L9.24883 12.8342L9.23123 12.7396L9.14102 12.6812L9.10692 12.5954L9.14982 12.4821L9.03101 12.4249L9.00901 12.3336L9.03761 12.2324L9.01891 12.1433L8.9859 12.0553L9.00021 11.9618L8.99581 11.8716L8.99691 11.7802L8.98701 11.6889L8.9375 11.5965L8.9518 11.5052L8.9782 11.415L8.9749 11.3215L8.9661 11.2269L8.9804 11.1345L9.02771 11.0498L9.12012 10.9816L9.08492 10.8748L9.17843 10.8121L9.18063 10.7153L9.23013 10.6383L9.27084 10.5569L9.27744 10.4546L9.36215 10.4007L9.41605 10.327L9.45676 10.2434L9.51836 10.1752L9.57667 10.1037L9.65478 10.052L9.74169 10.0168L9.8176 9.96835L9.8583 9.85944L9.94851 9.82863L10.0607 9.85724L10.1212 9.75712L10.2103 9.72852L10.3061 9.73292L10.3996 9.73402L10.4909 9.75052L10.58 9.76593L10.6757 9.72412L10.7571 9.78793L10.844 9.80883L10.954 9.77473L11.0046 9.88914L11.0838 9.92874L11.1894 9.92984L11.2302 10.03L11.327 10.0531L11.4106 10.0971L11.481 10.1587L11.5217 10.2456L11.5481 10.3402L11.6625 10.371L11.6592 10.4832L11.7065 10.5591L11.7736 10.6273L11.8495 10.6933L11.8484 10.7945L11.8572 10.888L11.8704 10.9783L11.9012 11.0641L11.9551 11.1444L12.0035 11.228L12.0233 11.3193L11.9683 11.4183L12.0112 11.5063L12.0497 11.5965L11.9694 11.6889Z" fill="#FCFCFC"/>
<path d="M11.8884 12.106L11.9291 12.1962L11.9082 12.2843L11.9071 12.3745L11.851 12.4548L11.818 12.5362L11.8081 12.6242L11.7597 12.699L11.7421 12.787L11.7025 12.8651L11.6816 12.9553L11.62 13.0213L11.5397 13.0697L11.5078 13.1589L11.4462 13.2238L11.3593 13.2557L11.2834 13.2964L11.2218 13.3712L11.1282 13.3745L11.0446 13.3954L10.9599 13.4141L10.873 13.4295L10.7817 13.446L10.6937 13.4273L10.609 13.3965L10.5441 13.325L10.4374 13.3393L10.3769 13.2678L10.3164 13.2029L10.2536 13.1424L10.1843 13.0873L10.1546 12.9993L10.0963 12.9344L10.0105 12.8827L9.99952 12.7881L9.94561 12.7155L9.94011 12.6231L9.88731 12.5472L9.88621 12.4559L9.8433 12.3745L9.8268 12.2854L9.87521 12.1929L9.8125 12.106L9.8367 12.0169L9.8169 11.9256L9.89171 11.8464L9.91261 11.7617L9.86751 11.6594L9.95662 11.5945L9.92581 11.4889L9.96652 11.4086L10.0061 11.3272L10.0644 11.2567L10.1271 11.1929L10.1634 11.1071L10.2536 11.0697L10.3175 11.0103L10.3769 10.9454L10.4418 10.8794L10.543 10.886L10.62 10.8486L10.7003 10.8134L10.785 10.7958L10.873 10.7947L10.961 10.7892L11.0523 10.7837L11.1249 10.8508L11.2262 10.8343L11.3109 10.8684L11.3571 10.9608L11.4506 10.985L11.5122 11.0499L11.5892 11.1005L11.6442 11.1731L11.6508 11.2765L11.7157 11.3393L11.7454 11.424L11.7916 11.4999L11.7971 11.5912L11.8477 11.6682L11.8763 11.7518L11.8642 11.8442L11.9181 11.9267L11.928 12.0158L11.8884 12.106Z" fill="#121315"/>
<path d="M11.9922 14.019L12.2548 14.6403L12.6129 14.9388L12.9909 15.0001L13.3769 14.921L13.7326 14.5995L13.9919 13.9838" stroke="#121315" stroke-width="0.6" stroke-miterlimit="10" stroke-linecap="round"/>
<path d="M8.673 13.6253L8.618 13.7606L8.48268 13.8167L8.34187 13.765L8.28906 13.6253L8.34297 13.4855L8.48268 13.4316L8.6191 13.4877L8.673 13.6253Z" fill="#121315"/>
<path d="M7.88724 14.8679L7.82894 15.0055L7.69252 15.0605L7.55501 15.0055L7.5 14.8679L7.55391 14.7304L7.69252 14.6743L7.83114 14.7293L7.88724 14.8679Z" fill="#121315"/>
<path d="M9.45646 14.8667L9.40145 15.0053L9.26283 15.0592L9.12422 15.0053L9.07031 14.8667L9.12862 14.7325L9.26283 14.6753L9.39925 14.7303L9.45646 14.8667Z" fill="#121315"/>
<path d="M18.019 13.6253L17.9617 13.7628L17.8242 13.8178L17.6878 13.7617L17.6328 13.6253L17.6867 13.4877L17.8242 13.4316L17.9628 13.4866L18.019 13.6253Z" fill="#121315"/>
<path d="M17.2199 14.8668L17.1649 15.0022L17.0296 15.0583L16.8898 15.0066L16.8359 14.8668L16.8909 14.7282L17.0296 14.6743L17.1671 14.7304L17.2199 14.8668Z" fill="#121315"/>
<path d="M18.7946 14.8675L18.7352 15.0039L18.5988 15.0655L18.4602 15.0061L18.4062 14.8675L18.4602 14.7288L18.5988 14.6694L18.7374 14.7299L18.7946 14.8675Z" fill="#121315"/>
<path d="M16.638 11.6892L16.6556 11.7805L16.7205 11.8762L16.6864 11.9653L16.704 12.061L16.5984 12.137L16.6468 12.2393L16.5533 12.3097L16.5302 12.3966L16.5918 12.5132L16.4983 12.577L16.4774 12.6672L16.429 12.7453L16.3762 12.8201L16.3146 12.8883L16.2805 12.973L16.2167 13.038L16.1738 13.1194L16.1077 13.181L16.0813 13.2833L16.0197 13.3537L15.8976 13.3471L15.8646 13.4582L15.7678 13.4758L15.7106 13.5682L15.5918 13.5231L15.5214 13.5957L15.429 13.6023L15.3366 13.5957L15.2563 13.6936L15.1605 13.6925L15.0714 13.6166L14.9735 13.6683L14.8877 13.621L14.803 13.5847L14.7106 13.5693L14.6215 13.544L14.5665 13.4516L14.4433 13.4769L14.3993 13.379L14.3311 13.3185L14.2441 13.2778L14.1759 13.2162L14.0978 13.1601L14.0857 13.0523L14.0527 12.9642L13.946 12.9246L13.8921 12.8487L13.9042 12.7387L13.8833 12.6496L13.8404 12.5704L13.7491 12.5077L13.7634 12.4054L13.7667 12.3108L13.7062 12.2327L13.7249 12.137L13.693 12.0511L13.6347 11.9664L13.6237 11.874L13.6094 11.7827L13.6512 11.6892L13.6259 11.5979L13.6699 11.5088L13.6875 11.4197L13.6853 11.3284L13.6875 11.236L13.6985 11.1446L13.7469 11.0632L13.7238 10.962L13.803 10.8916V10.7948L13.8206 10.7013L13.9251 10.6507L13.9526 10.5638L13.9768 10.4736L14.0384 10.4054L14.0703 10.3152L14.1385 10.2524L14.2056 10.1919L14.2749 10.1336L14.3498 10.0819L14.3663 9.95651L14.4466 9.90591L14.5434 9.885L14.6523 9.8993L14.7117 9.80909L14.7953 9.77059L14.8932 9.78159L14.9724 9.70898L15.0703 9.74529L15.1605 9.75079L15.2497 9.77169L15.3465 9.72549L15.4378 9.74419L15.5236 9.77829L15.6259 9.77169L15.6919 9.8531L15.7766 9.8894L15.8657 9.92021L15.9405 9.97631L15.9691 10.0863L16.056 10.1237L16.1342 10.1743L16.1837 10.2524L16.2266 10.335L16.3146 10.3845L16.3531 10.4681L16.4147 10.5385L16.4719 10.6133L16.451 10.7244L16.5368 10.7871L16.5533 10.8795L16.5555 10.9741L16.5786 11.0621L16.6193 11.1457L16.5918 11.2437L16.6215 11.3295L16.6336 11.4197L16.726 11.5033L16.6765 11.5979L16.638 11.6892Z" fill="#FCFCFC"/>
<path d="M16.5462 12.1059L16.5737 12.1951L16.5473 12.2809L16.5737 12.3744L16.5022 12.4503L16.5385 12.5504L16.4791 12.6252V12.7198L16.3944 12.7792L16.3735 12.8661L16.3229 12.9387L16.3053 13.0344L16.2327 13.0895L16.181 13.1643L16.1205 13.2314L16.0325 13.2622L15.95 13.2952L15.8718 13.3315L15.7915 13.359L15.7222 13.4415L15.6254 13.3986L15.5407 13.4041L15.456 13.3975L15.3592 13.4382L15.2723 13.4107L15.2118 13.3249L15.1227 13.3084L15.0435 13.2688L14.9819 13.2061L14.9026 13.161L14.8586 13.0807L14.7794 13.0311L14.7497 12.9442L14.6782 12.8826L14.6419 12.8001L14.6144 12.7154L14.6012 12.6252L14.588 12.5383L14.5176 12.4635L14.5033 12.3755L14.511 12.2842L14.5 12.1951L14.5451 12.1059V12.019L14.5132 11.9288L14.522 11.8397L14.5231 11.7495L14.5946 11.6758L14.5704 11.5757L14.6188 11.4987L14.6683 11.4239L14.7145 11.3491L14.764 11.2776L14.7893 11.1873L14.8454 11.118L14.8905 11.0377L14.9609 10.9816L15.0457 10.9453L15.1216 10.9002L15.1843 10.8254L15.2877 10.8441L15.3647 10.799L15.4505 10.7627L15.5407 10.7836L15.6254 10.8188L15.7123 10.8199L15.8014 10.8254L15.8829 10.8573L15.9544 10.9112L16.0413 10.9387L16.115 10.9893L16.1667 11.063L16.2448 11.1125L16.2932 11.1873L16.3405 11.2622L16.412 11.3249L16.4483 11.4074L16.4318 11.5119L16.4857 11.5845L16.4813 11.6769L16.5473 11.7517L16.5726 11.8375L16.5385 11.9321L16.5737 12.0168L16.5462 12.1059Z" fill="#121315"/>
</svg>
