<svg width="148" height="148" viewBox="0 0 148 148" fill="none" xmlns="http://www.w3.org/2000/svg">
<path d="M0 74C0 33.1309 33.1309 0 74 0C114.869 0 148 33.1309 148 74C148 114.869 114.869 148 74 148C33.1309 148 0 114.869 0 74Z" fill="#4B8ADB"/>
<path d="M81.5074 32.0168L81.7599 31.8156L81.9058 31.3296L82.192 30.9832L82.4725 30.648L82.8092 30.3855L82.8878 29.9777L83 29.581L82.899 29.1788L82.6802 28.8268L82.4781 28.4525L82.1807 28.1117L81.7655 27.8883L81.3053 28.095L80.8733 28.0838L80.4692 28.2626L80.0933 28.5531L79.6892 28.8101L79.2235 28.9721L78.8924 29.4358L79.3021 29.1341L79.6331 28.838L79.8015 28.3743L80.0933 28.0391L80.5085 27.838L80.8059 27.5084L81.1482 27.2291L81.541 27.0056L81.9114 26.7542L81.8889 26.2793L81.9114 25.8994L81.9899 25.514L81.8889 25.1397L81.6701 24.8212L81.3727 24.5363L81.1146 24.1397L80.6825 23.9497L80.2279 24.1341L79.852 24.324L79.4704 24.4637L79.1169 24.7486L78.7185 24.9721L78.2022 25.0279L77.9665 25.4693L77.6467 25.7933L77.1585 25.8939L76.8611 26.2626L76.4907 26.4246L76.8947 26.3184L77.035 25.8212L77.4222 25.6034L77.8487 25.4302L78.1854 25.1564L78.4547 24.8101L78.7016 24.4302L79.072 24.1899L79.5041 24.0112L79.7061 23.581L80.1045 23.3799L80.0708 22.9106L80.3738 22.5698L80.2223 22.162L80.2785 21.7207L79.88 21.4749L79.6724 21.0559L79.2628 20.8436L78.8082 20.7933L78.3032 20.8994L78.2303 20.4302L78.1461 20.0168L77.8206 19.7486L77.5906 19.3799L77.209 19.1676L76.7713 19.2291L76.3504 19.1397L75.9745 19.2905L75.9071 18.8603L76.0811 18.4022L75.9464 17.9553L75.5817 17.6425L75.3572 17.257L75.1215 16.8268L74.594 16.838L74.2125 16.581L73.7635 16.6313L73.281 16.514L72.8713 16.7598L72.5795 17.1285L72.2372 17.4134L71.7322 17.4972L71.4628 17.8771L71.1037 18.1453L70.6885 18.3408L70.3013 18.5698L69.9365 18.8324L69.6504 19.1955L69.3978 19.6034L68.8984 19.6983L68.7188 20.2123L68.8872 19.676L69.3081 19.4358L69.6728 19.1397L69.9814 18.7765L70.2957 18.4302L70.5089 18.1173L70.8288 17.838L70.8905 17.4358L70.7614 17.0503L70.6604 16.6816L70.4584 16.352L70.1554 16.1006L69.8524 15.8045L69.4427 15.6704L69.0443 15.9106L68.5617 15.7374L68.3148 16.1508L67.9894 16.4302L67.5741 16.6034L67.3665 17.0279L66.912 17.1564L66.5192 17.3575L66.3115 17.7821L65.9748 18.0503L65.6662 18.352L65.3351 18.6201L65.0041 18.8939L64.6842 19.1844L64.3531 19.4581L63.8425 19.514L63.5563 19.838L63.214 20.1061L63.0344 20.5642L62.5182 20.6145L62.1703 20.8771L61.9739 21.3128L61.626 21.5698L61.1827 21.7207L61.0312 22.2123L60.7001 22.4916L60.3129 22.7039L59.9874 22.9888L59.488 23.067L59.2074 23.4078L58.9942 23.838L58.6631 23.8659L58.8202 23.6536L59.2972 23.5363L59.3814 23.0056L59.9257 22.9553L60.1333 22.5531L60.3914 22.2011L60.8516 22.0559L61.1546 21.7542L61.2668 21.2514L61.5586 20.933L62.03 20.8045L62.3611 20.5251L62.5126 20.0615L62.8773 19.8212L63.186 19.514L63.4441 19.162L63.8986 19.0112L64.1175 18.6145L64.6 18.486L64.7459 18.0112L65.077 17.7095L65.1107 17.2626L65.1444 16.8436L65.0209 16.4469L64.875 16.0335L64.5551 15.6816L64.1175 15.4637L63.618 15.3799L63.1467 15.5475L62.81 15.905L62.3555 16.0447L62.1142 16.4413L61.727 16.6648L61.4071 16.9721L61.1546 17.3966L61.3061 16.8883L61.1209 16.4525L61.2556 15.9721L61.0648 15.5531L60.7337 15.2291L60.5037 14.8492L60.1726 14.5475L59.7798 14.3408L59.3814 14.1453L58.9381 14.0894L58.5004 14L58.0515 14.0279L57.6474 14.2402L57.3051 14.514L56.9629 14.7654L56.4803 14.9274L56.0987 15.2123L55.8406 15.6369L55.56 16.0279L55.1672 16.4022L54.7407 16.0391L54.3086 16.0782L54.0393 16.4693L53.5904 16.5251L53.4164 16.9497L53.1527 17.2737L52.6925 17.3911L52.412 17.7039L52.1819 18.067L51.8676 18.3408L51.458 18.5084L51.256 18.905L50.8969 19.1397L50.5826 19.4134L50.3301 19.7654L50.0495 19.9385L49.9485 19.5754L49.4996 19.352L49.1966 19.0503L48.7701 18.9609L48.3829 18.7318L47.9621 18.8771L47.4402 18.7933L47.2494 19.3017L46.9071 19.4693L46.6827 19.7654L46.374 19.933L46.5648 19.5754L46.5312 19.1508L46.6883 18.743L46.6097 18.3184L46.273 18.0279L46.0486 17.6816L45.8017 17.2849L45.3079 17.3687L44.9263 17.2291L44.5447 17.4022L44.1182 17.3911L43.7591 17.648L43.4729 17.3352L43.198 17.0726L42.9847 16.6536L42.5414 16.6592L42.1374 16.581L41.7109 16.6089L41.4135 16.9218L41.0824 17.1508L40.7008 17.3184L40.5269 17.676L40.28 18.1006L40.207 17.5196L39.8535 17.1844L39.3934 17.1285L39.0286 16.8939L38.6078 16.9721L38.1869 17.0279L37.7548 17.162L37.5135 17.5419L37.261 17.8212L36.9973 18.1006L36.8346 18.4413L36.38 18.5531L35.9143 18.6425L35.5271 18.9218L35.2746 19.324L35.0557 19.6816L34.792 20.0056L34.6293 20.3911L34.3767 20.7263L34.2757 21.1453L34.0288 21.486L33.9054 21.8939L33.4845 22.1397L33.3274 22.5363L33.1254 22.8994L33.1759 23.4078L32.8111 23.676L32.7663 24.1285L32.5474 24.5419L32.6428 24.9944L32.9402 25.3352L33.2152 25.6648L33.5967 25.9274L33.6304 26.3296L33.5967 26.7263L33.7483 27.095L34.1691 27.2235L34.2982 27.648L34.4946 27.9665L34.6012 28.3743L34.1972 28.6648L34.0625 29.1229L33.636 29.3408L33.2825 29.6201L33.1478 30.0782L32.8616 30.4134L32.6091 30.7765L32.3229 31.1117L32.0424 31.4525L31.7786 31.8045L31.4981 32.1453L31.0043 32.3017L30.7798 32.6872L30.4936 33.0223L30.3982 33.514L29.8988 33.676L29.607 34.0056L29.4948 34.4804L29.1974 34.8101L28.7933 35.0447L28.7372 35.5642L28.4679 35.9162L28.1312 36.2067L27.8618 36.5531L27.3849 36.7374L27.1772 37.1341L27.0594 37.6034L26.5432 37.7486L26.4983 38.2793L26.0998 38.6201L26.3524 39.1229L26.0325 39.5866L26.285 40.0112L26.5544 40.3855L26.6722 40.8827L26.9752 41.0838L26.9528 41.4358L26.7059 41.7542L26.2682 41.8883L25.982 42.1564L25.9371 42.6145L25.7295 42.9553L25.707 43.3464L25.8529 43.7821L25.4096 44.0615L25.3479 44.5028L25 44.8603L25.2188 45.3017L25.202 45.7263L25.4545 46.0726L25.6509 46.4246L25.9259 46.7151L26.184 47.0559L26.4983 47.2905L26.3075 47.6313L26.2009 48.0447L26.2906 48.4637L26.5488 48.7989L26.6273 49.2514L27.0145 49.5084L27.4354 49.6872L27.8899 49.648L28.3444 49.7989L28.7036 49.5866L28.8887 49.905L29.1805 50.2011L29.4723 50.5196L29.9212 50.486L30.3309 50.676L30.7237 50.4525L30.6227 50.8715L30.6395 51.2626L30.3646 51.7207L30.763 52.0279L30.8247 52.5028L31.3017 52.6034L31.571 53L32.0368 52.838L32.4408 52.9665L32.8897 52.9553L33.2264 52.6648L33.5238 52.2905L33.9727 52.1117L34.3655 51.8603L34.719 51.5531L35.0557 51.2291L35.3756 51.0615L35.7123 51.2905L35.8413 51.6983L36.0209 52.1341L36.4361 52.3296L36.8794 52.3967L37.2835 52.7318L37.738 52.5531L38.1364 52.3464L38.4731 52.0726L38.8322 51.838L39.225 51.6425L39.4719 51.257L39.9433 51.1676L40.28 50.8994L40.6111 50.6201L40.987 50.4022L41.2115 49.9832L41.5594 49.7207L41.9578 49.3911L42.2159 49.7374L42.2328 50.0894L42.547 50.3687L42.9342 50.5196L43.3214 50.6313L43.7535 50.8603L44.1968 50.7207L44.5054 50.3799L44.8646 50.1173L45.2237 49.8492L45.6445 49.6592L46.0373 49.4302L46.2618 48.9888L46.5873 48.676L47.0923 48.5922L47.2719 48.0894L47.6647 47.8659L48.0743 47.6592L48.4727 47.4358L48.7308 47.0279L49.1293 46.743L49.3874 47.2514L49.5052 47.6536L49.6623 48.1061L50.072 48.3184L50.5377 48.2849L50.9586 48.5587L51.3682 48.324L51.7386 48.1006L52.0528 47.7933L52.513 47.6816L52.7543 47.2737L53.1302 47.0503L53.5006 46.8101L53.8148 46.5028L54.1796 46.2626L54.5275 45.9944L54.8922 45.7486L55.3019 45.5698L55.6273 45.2682L56.138 45.2346L56.4017 44.8492L56.7721 44.6089L57.1592 44.3967L57.5745 44.2235L57.9056 43.7542L57.7597 44.2737L57.8943 44.7039L58.001 45.1061L58.0178 45.5866L58.4499 45.7765L58.7529 46.0447L59.1233 46.2291L59.5329 46.324L59.9818 46.5251L60.4251 46.3743L60.6889 45.9497L61.1209 45.7989L61.5699 45.6816L61.9122 45.4022L62.1703 45.0056L62.5575 44.7877L62.8605 44.4581L63.3206 44.352L63.7583 44.2067L64.1175 43.9553L64.4092 43.6145L64.7179 43.2849L65.0321 42.9721L65.5372 42.9218L65.8738 42.6425L66.059 42.1564L66.4799 42.0112L66.8895 41.8436L67.1196 41.4413L67.4955 41.2291L67.9501 41.1341L68.1521 40.6872L68.5786 40.5587L68.977 40.3799L69.2856 40.0782L69.5493 39.7151L69.9421 39.5587L69.9758 39.9665L69.9365 40.4078L70.1722 40.7821L70.3462 41.2123L70.739 41.4581L71.2103 41.4358L71.6144 41.4804L72.0913 41.6257L72.5234 41.4469L72.7254 40.9553L73.1014 40.7318L73.5503 40.6145L73.9768 40.4637L74.3584 40.2514L74.7287 40.0223L75.0261 39.6816L75.3348 39.3631L75.7668 39.2346L76.1709 39.0559L76.4402 38.6648L76.7601 38.352L77.2763 38.3464L77.5793 38.0112L78.0002 37.8436L78.2359 37.4078L78.595 37.1508L78.999 36.9721L79.4255 36.8212L79.7902 36.5754L80.1999 36.3967L80.6039 36.2179L80.862 35.8101L81.2156 35.5419L81.5747 35.2793L82.0068 35.1341L82.2593 34.7542L82.6745 34.5084L82.8373 34.0615L82.7587 33.5978L82.7475 33.1341L82.4894 32.7486L82.0573 32.5531L81.715 32.3296L81.5074 32.0168Z" fill="#121315"/>
<path d="M127.607 90.2985L128.324 89.7749L128.291 88.7726L128.997 88.125L128.974 87.2241L128.924 86.3682L128.683 85.5461L129.294 84.617L129.025 83.7667L128.644 82.9671L128.302 82.1506L127.837 81.3961L126.749 81.2328L126.492 80.2586L125.87 79.5886L125.023 79.2957L124.172 79.0649L123.241 79.3858L122.423 79.3521L121.571 78.7101L120.686 79.1156L119.817 79.5886L118.864 79.2957L117.951 79.3802L116.987 79.1606L116.034 79.7575L116.819 79.0705L117.783 79.1437L118.657 79.0142L119.273 78.2653L119.979 77.7191L121.011 77.9669L121.638 77.2405L122.339 76.6943L123.258 76.6774L124.16 76.6154L124.738 75.8046L125.679 75.7314L126.34 75.1176L127.237 74.7967L127.775 74.0477L128.543 73.4734V72.426L128.61 71.5251L128.812 70.7086L129.4 69.9147L129.412 69.0193L129.165 68.1522L128.683 67.3807L128.425 66.5699L128.111 65.7759L127.618 65.0777L127.119 64.3682L126.643 63.5855L126.06 62.8253L124.973 62.9717L124.216 62.5551L123.499 61.7442L122.563 61.7217L121.661 62.2228L120.803 62.2904L119.851 62.0877L119.021 62.3411L118.237 62.7521L117.368 62.8704L116.65 63.5574L115.664 63.4785L116.454 63.0055L117.379 62.7972L117.553 61.671L118.618 61.4852L119.038 60.6912L119.52 59.9423L119.425 58.9738L120.26 58.2756L119.879 57.3352L119.778 56.4793L119.923 55.5896L120.069 54.6267L119.486 53.8778L119.178 53.0276L118.315 52.5546L118.08 51.6142L117.418 51.0117L116.365 51.0004L115.984 49.9137L115.137 49.5814L114.213 49.5983L113.355 49.3675L112.475 49.5814L111.551 49.1648L110.682 49.7447L111.618 49.2549L112.397 48.9057L113.226 48.551L113.316 47.4755L114.263 47.1207L114.627 46.3155L114.644 45.4258L115.064 44.615L114.751 43.7535L114.835 42.875L114.717 41.991L114.347 41.1801L113.428 40.7578L113.064 39.9751L112.649 39.1249L111.691 39.0066L110.923 38.68L110.049 38.8095L109.286 38.4041L108.491 38.7757L107.56 38.2183L106.882 38.8996L105.834 38.7082L105.022 39.153L104.31 39.8681L103.223 39.5979L102.825 40.0877L102.998 39.6316L103.71 39.1192L104.439 38.5336L104.517 37.6045L104.584 36.7317L104.411 35.8646L104.702 35.0706L104.909 34.226L104.315 33.4771L104.646 32.5311L103.839 31.9455L103.52 31.2022L103.077 30.5321L103.105 29.4228L102.376 28.9217L101.872 28.139L100.706 28.4036L100.011 27.9982L99.2603 27.6829L98.5205 27.1704L97.6518 27.4464L96.8392 27.4407L95.9313 26.9002L95.2027 27.604L94.1996 27.4013L93.3757 27.8518L92.5463 28.3191L91.6496 28.2009L90.9435 28.7189L90.1757 29.0399L89.2453 28.8879L88.4271 29.0512L87.7882 29.7776L86.8747 29.7607L85.9892 29.8451L85.3391 30.594L84.577 31.022L83.8148 31.4499L82.7275 30.9938L82.2175 32.0975L81.1135 31.6245L80.5138 32.4804L79.4938 32.227L78.8661 32.9928L77.9919 33.1111L77.1176 33.2518L76.3778 33.7136L75.5932 34.0739L74.988 34.8848L74.2146 35.2733L73.0937 34.7947L72.6005 35.8758L71.7206 36.011L70.7062 35.8139L70.1794 36.788L69.294 36.9119L68.5262 37.3061L67.7191 37.6101L66.9962 38.1226L66.2396 38.5505L65.2869 38.5111L64.3453 38.5055L63.8466 39.5359L62.9387 39.6035L62.1036 39.8512L61.1621 39.8569L60.4391 40.3637L59.5761 40.5551L59.038 41.4898L58.1806 41.6869L57.1942 41.5968L56.5161 42.205L55.7259 42.571L54.9189 42.8976L54.2519 43.5282L53.2936 43.5057L52.7612 44.4517L51.6628 44.1082L51.0463 44.8684H50.5923L50.7268 44.401L51.6403 44.1533L52.184 43.4663L53.0358 43.151L53.3945 42.2388L54.28 41.9628L54.9749 41.4617L55.3112 40.5044L56.4264 40.5382L57.0709 39.9695L57.4632 39.0742L58.0012 38.3647L58.9988 38.2577L59.3351 37.2779L60.1029 36.8669L60.8707 36.4558L61.8626 36.3601L62.4118 35.6562L63.2637 35.3747L63.897 34.7891L64.4798 34.1246L64.8946 33.218L65.6175 32.7507L66.503 32.5254L67.1923 32.013L67.9265 31.5626L68.7503 31.2529L69.294 30.5208L69.8264 29.8001L70.6278 29.389L71.5861 28.9498L71.6029 27.9137L72.2923 27.1817L72.1802 26.2132L72.2811 25.301L72.0793 24.4057L71.7262 23.5779L71.4516 22.7277L70.7511 22.1364L70.4428 21.2693L70.0225 20.3683L68.8848 20.4809L68.1787 19.9854L67.4782 19.2421L66.5703 19L65.6511 19.4223L64.7937 19.5856L63.9362 19.7602L63.2749 20.3965L62.2325 20.357L61.8514 21.303L60.9996 21.5846L60.327 22.1083L59.7834 22.8178L58.7466 22.8797L58.3879 23.8707L57.5417 24.1973L56.7571 24.6084L56.2751 25.4192L55.1486 25.3798L54.9245 26.5342L54.2351 27.0691L53.3328 27.3281L52.7892 28.0489L52.1055 28.5951L50.9846 28.5725L50.3065 29.13L49.7573 29.8451L49.2024 30.5546L48.2777 30.7911L47.7958 31.5907L47.0112 32.013L46.3947 32.6381L45.6997 33.173L44.9488 33.6347L44.3659 34.3048L43.5981 34.7553L42.9536 35.3465L42.4268 36.0729L41.631 36.4896L41.3172 37.4694L40.2075 37.5313L40.0898 38.7194L38.8625 38.6519L38.756 39.8512L37.8761 40.1835L37.3829 40.9436L36.8169 41.6194L35.7409 41.7489L35.5727 42.8469L34.7041 43.2073L34.1604 43.9055L33.3983 44.3785L32.7201 44.9472L32.0644 45.5328L31.745 46.445L31.2126 47.1376L30.1029 47.3122L29.5985 48.0442L28.9428 48.6411L28.8195 49.6941L28.2983 50.3979L27.5025 50.8766L26.9309 51.5523L26.5274 52.3462L26.1407 53.1852L25.7147 53.9848L25.2215 54.7394L24.6891 55.4658L23.8037 55.9951L23.8877 57.0762L23.1031 57.69L22.8117 58.5571L22.2961 59.3286L22.0439 60.1676L21.9822 61.0403L21.943 61.9075L22.1111 62.7521L21.9486 63.7207L22.7725 64.3175L23.2488 65.0101L23.8709 65.5732L24.1119 66.598L24.9806 66.9078L25.7596 67.3019L26.5386 67.758L27.34 67.6904L26.9645 68.4619L25.9893 68.4562L25.356 69.0137L24.8236 69.7514L23.6748 69.436L23.0919 70.0836L22.5259 70.7649L21.8085 71.1816L20.867 71.2323L20.4242 72.1445L19.8022 72.7188L19.2305 73.3495L18.4515 73.9013L18.6701 74.9318L17.9695 75.63L17.6781 76.5197L17.7061 77.4432L18.502 78.1808L18.8214 78.9466L18.5132 80.0897L19.0512 80.8499L19.9591 81.2497L20.7549 81.6382L20.9286 82.2351L20.57 82.7081L19.9086 83.2318L18.9503 83.395L18.3394 84.0482L18.0368 84.9041L17.3026 85.5123L17.2354 86.4301L17.028 87.286L17 88.1644L17.6893 88.9302L17.8631 89.7073L18.1825 90.4337L17.8182 91.5993L18.6925 92.0385L19.4547 92.4552L19.7797 93.4068L20.6428 93.6489L21.4274 93.9811L22.3409 93.6602L23.1087 93.998L23.9942 94.5724L25.0478 93.7559L25.1151 95.0003L24.5883 96.1434L25.6363 96.6953L26.0005 97.4273L25.8941 98.5929L26.6731 99.1165L27.581 99.3699L27.9228 99.8204L27.368 100.547L26.1911 100.507L25.3729 100.924L24.6499 101.487L23.8709 101.971L23.2152 102.625L22.5483 103.289L22.2737 104.201L22.1448 105.125L22.2625 106.059L21.6964 106.842L21.3377 107.737L21.8197 108.605L21.8982 109.494L22.2681 110.254L22.3185 111.161L22.5539 112.051L23.7532 112.191L23.9101 113.188L24.4986 113.847L25.4513 113.943L26.0622 114.596L27.0037 114.449L27.6594 115.317L28.5225 115.502L29.3912 114.821L30.2542 115.148L31.0276 114.725L31.8515 114.348L32.7986 114.455L33.6897 114.359L34.5191 114.01L35.2757 113.385L36.15 113.188L37.1083 113.29L37.4278 114.05L37.6856 114.889L38.3749 115.379L38.9185 116.032L39.8432 116.082L40.1739 116.55L39.8656 117.175L39.9161 118.211L39.1595 118.971L38.9353 119.923L39.4341 120.874L39.0362 121.888L40.045 122.502L39.9777 123.431L40.4597 124.14L40.8688 124.9L41.7655 125.205L42.2587 125.891L43.0713 126.145L43.5477 127.08L44.4388 127.142L45.229 127.57L46.1089 127.44L46.9607 127.423L47.7958 127.249L48.7373 127.153L49.5891 126.59L50.6708 127.164L51.7356 126.387L51.0183 127.648L51.8813 128.639L51.758 129.557L52.2288 130.306L52.6547 131.055L53.1479 131.776L53.8092 132.35L54.3921 133.088L55.3728 133.077L56.0902 133.724L57.0261 133.459L57.8667 133.296L58.6906 133.223L59.8675 133.724L60.7025 133.229L61.4031 133.831L62.2045 133.673L63.0732 133.944L63.897 133.319L64.7825 134L65.6287 133.82L66.4526 133.223L67.3156 133.364L68.1787 133.555L69.0418 133.752L69.8824 133.414L70.7175 133.026L71.5749 133.116L72.4436 133.375L73.273 132.84L74.1529 133.403L74.9936 133.11L75.8286 132.643L76.6917 132.924L77.5379 132.716L78.3898 132.598L79.2528 132.801L80.1047 132.772L81.007 132.964L81.8869 132.525L82.7836 132.654L83.7027 133.172L84.5826 132.778L85.4905 132.964L86.3591 132.198L87.2894 133.037L88.1637 132.497L89.0604 132.502L89.8898 132.131L90.7249 132.035L91.5767 132.316L92.4118 132.221L93.2637 132.615L94.1043 132.711L94.9225 131.962L95.7688 132.181L96.6038 132.046L97.4501 132.452L98.2963 132.53L99.137 132.288L99.972 132.108L100.818 131.883L101.205 130.909L102.253 130.897L102.298 129.794L103.357 129.552L103.598 128.707L103.402 127.767L103.609 127.012L104.024 126.207L104.865 125.734L105.868 126.297L106.703 125.948L107.471 125.283L108.367 125.266L109.331 125.616L110.06 124.765L111.007 124.996L111.792 124.444L112.727 124.63L113.501 124.033L114.347 123.78L115.261 123.893L116.045 123.487L117.116 123.763L117.586 122.761L118.186 122.153L119.066 121.86L119.666 121.218L120.405 120.627L120.372 119.619L120.809 118.847L121.151 117.997L121.409 117.09L120.764 116.234L120.775 115.35L120.983 114.337L120.114 113.729L119.559 113.059L119.621 112.355L120.125 111.617L121.257 111.758L121.879 111.009L122.675 110.682L123.174 109.956L124.194 109.742L124.541 108.897L124.956 108.12L124.766 107.169L125.685 106.437L125.276 105.53L125.04 104.697L124.609 103.948L124.743 102.968L124.278 102.219L123.544 101.527L124.788 101.634L125.573 100.676L126.408 100.457L127.243 100.164L127.938 99.6233L128.498 98.942L129.26 98.3901L129.064 97.3203L129.927 96.6896L130 95.783L129.468 94.9159L129.86 93.998L129.456 93.1928L128.885 92.5115L128.879 91.5092L128.038 91.0643L127.607 90.2985Z" fill="#C6F065"/>
<path d="M74.1779 72.6217L74.6267 73.0985L74.4304 73.5584L74.3799 74.0296L74.0153 74.4447L74.0321 74.9159L74.2565 75.4376L73.8975 75.8302L73.6619 76.2453L73.6899 76.7389L73.7741 77.2718L73.2188 77.5466L73.0112 77.9561L72.8037 78.3712L72.6017 78.7807L72.4615 79.2463L72.1137 79.566L71.9567 80.0428L71.4462 80.2055L71.1489 80.5532L70.9133 80.9851L70.5936 81.3385L70.2851 81.7312L69.7129 81.6975L69.253 81.8041L68.8603 82.0453L68.4396 82.2248L68.0638 82.6287L67.5982 82.7465L67.0822 82.3482L66.6391 82.7016L66.1623 82.6848L65.7079 82.5445L65.2704 82.3538L64.7768 82.3931L64.2944 82.3314L63.9634 81.9163L63.6381 81.5517L63.0884 81.5741L62.8023 81.1759L62.4433 80.8842L61.9721 80.7103L61.7478 80.2784L61.3775 79.9867L61.17 79.5548L60.8222 79.235L60.6147 78.8143L60.3062 78.461L60.2164 77.9786L59.7565 77.6813L59.5826 77.2437L59.8013 76.666L59.1955 76.3743L59.0834 75.9087L59.2292 75.3927L59.1338 74.9383L58.9656 74.4896L59.0385 74.0128L59.016 73.5528L59.0217 73.0873L58.9712 72.6217L58.7188 72.1505L58.7917 71.6849L58.9263 71.225L58.9095 70.7482L58.8646 70.2658L58.9375 69.7946L59.1787 69.3627L59.6499 69.0149L59.4704 68.4708L59.9472 68.1511L59.9584 67.6575L60.2108 67.2648L60.4184 66.8497L60.452 66.3281L60.8839 66.0532L61.1588 65.6774L61.3663 65.2511L61.6805 64.9033L61.9777 64.5387L62.376 64.2751L62.8191 64.0956L63.2062 63.8488L63.4137 63.2935L63.8737 63.1364L64.4458 63.2822L64.7543 62.7718L65.2087 62.626L65.6967 62.6484L66.1735 62.654L66.6391 62.7381L67.0934 62.8167L67.5814 62.6035L67.9965 62.9289L68.4396 63.0354L69.0006 62.8615L69.2586 63.4449L69.6625 63.6468L70.201 63.6524L70.4085 64.1629L70.9021 64.2807L71.3284 64.5051L71.6874 64.8192L71.895 65.2623L72.0296 65.7447L72.6129 65.9018L72.5961 66.4739L72.8373 66.861L73.1795 67.2087L73.5665 67.5453L73.5609 68.0613L73.6058 68.5381L73.6731 68.9981L73.8302 69.4356L74.105 69.8451L74.3518 70.2714L74.4528 70.737L74.1723 71.2418L74.3911 71.6906L74.5874 72.1505L74.1779 72.6217Z" fill="#FCFCFC"/>
<path d="M73.7644 74.7468L73.9719 75.2067L73.8654 75.6555L73.8598 76.1154L73.5737 76.5249L73.4054 76.94L73.3549 77.3887L73.1081 77.7702L73.0184 78.2189L72.8164 78.6172L72.7099 79.0771L72.3957 79.4137L71.9863 79.6605L71.8236 80.1148L71.5095 80.4458L71.0663 80.6085L70.6793 80.816L70.3652 81.1974L69.8884 81.2143L69.4621 81.3208L69.0302 81.4162L68.587 81.4947L68.1215 81.5789L67.6727 81.4835L67.2408 81.3264L66.9099 80.9618L66.3658 81.0348L66.0573 80.6702L65.7487 80.3392L65.429 80.0307L65.0756 79.7502L64.9242 79.3015L64.6269 78.9705L64.1894 78.7069L64.1333 78.2245L63.8584 77.8543L63.8304 77.3831L63.5611 76.9961L63.5555 76.5305L63.3367 76.1154L63.2526 75.6611L63.4994 75.1899L63.1797 74.7468L63.3031 74.2924L63.2021 73.8268L63.5836 73.423L63.6901 72.991L63.4602 72.4694L63.9145 72.1384L63.7574 71.5999L63.965 71.1905L64.1669 70.7754L64.4642 70.4164L64.7839 70.091L64.9691 69.6535L65.429 69.4628L65.7544 69.1599L66.0573 68.829L66.3882 68.4924L66.9043 68.5261L67.2969 68.3353L67.7064 68.1558L68.1383 68.0661L68.587 68.0605L69.0358 68.0324L69.5014 68.0044L69.8716 68.3466L70.3876 68.2624L70.8195 68.4363L71.0551 68.9075L71.5319 69.0309L71.846 69.3618L72.2387 69.6199L72.5191 69.9901L72.5528 70.5174L72.8837 70.8371L73.0352 71.269L73.2708 71.656L73.2988 72.1216L73.5569 72.5143L73.7027 72.9406L73.641 73.4117L73.9159 73.8324L73.9663 74.2868L73.7644 74.7468Z" fill="#121315"/>
<path d="M73.7502 82.4386C74.6124 81.7484 75.8714 81.888 76.5617 82.7502L77.2531 83.6144L77.9132 83.9006L78.9201 83.9923L79.964 83.8957L80.7121 83.5705L81.5041 82.6789C82.2373 81.8528 83.5022 81.7776 84.3283 82.5109C85.154 83.2442 85.2293 84.5082 84.4963 85.3341L83.1183 86.8859L80.9728 87.8185L80.6535 87.8488L79.1027 87.9914L78.9201 88.009L76.9113 87.8254L76.6173 87.6984L75.2082 87.0881L74.7521 86.8898L73.4386 85.2502C72.7484 84.3879 72.888 83.129 73.7502 82.4386Z" fill="#121315"/>
<path d="M57.3873 82.4931L57.1069 83.183L56.4169 83.4691L55.6989 83.2055L55.4297 82.4931L55.7045 81.7807L56.4169 81.5059L57.1125 81.7919L57.3873 82.4931Z" fill="#121315"/>
<path d="M53.3729 88.8256L53.0756 89.5268L52.3801 89.8072L51.6789 89.5268L51.3984 88.8256L51.6733 88.1244L52.3801 87.8384L53.0868 88.1188L53.3729 88.8256Z" fill="#121315"/>
<path d="M61.3517 88.8256L61.0712 89.5324L60.3644 89.8073L59.6577 89.5324L59.3828 88.8256L59.6801 88.1413L60.3644 87.8496L61.06 88.1301L61.3517 88.8256Z" fill="#121315"/>
<path d="M105 82.4931L104.708 83.1943L104.007 83.4747L103.312 83.1886L103.031 82.4931L103.306 81.7919L104.007 81.5059L104.714 81.7863L105 82.4931Z" fill="#121315"/>
<path d="M100.942 88.8254L100.662 89.5153L99.9716 89.8014L99.2592 89.5378L98.9844 88.8254L99.2648 88.1186L99.9716 87.8438L100.673 88.1298L100.942 88.8254Z" fill="#121315"/>
<path d="M108.964 88.8261L108.662 89.5216L107.966 89.8358L107.259 89.5328L106.984 88.8261L107.259 88.1193L107.966 87.8164L108.673 88.1249L108.964 88.8261Z" fill="#121315"/>
<path d="M97.9736 72.6221L98.0634 73.0877L98.3943 73.5757L98.2204 74.03L98.3102 74.518L97.7717 74.9051L98.0185 75.4267L97.5417 75.7857L97.4239 76.2289L97.738 76.8235L97.2612 77.1488L97.1547 77.6088L96.9078 78.007L96.6386 78.3884L96.3245 78.7362L96.1506 79.1681L95.8253 79.4991L95.6065 79.9142L95.2699 80.2283L95.1353 80.75L94.8212 81.1089L94.1986 81.0753L94.0303 81.6418L93.5367 81.7316L93.245 82.2028L92.6392 81.9728L92.2802 82.343L91.809 82.3766L91.3378 82.343L90.9284 82.8422L90.4403 82.8366L89.986 82.4496L89.4868 82.7132L89.0492 82.472L88.6173 82.2869L88.1461 82.2084L87.6918 82.0794L87.4113 81.6082L86.7831 81.7372L86.5587 81.238L86.2109 80.9295L85.7678 80.7219L85.42 80.4078L85.0218 80.1217L84.9601 79.572L84.7918 79.1233L84.2477 78.9213L83.9728 78.5343L84.0345 77.9734L83.928 77.519L83.7092 77.1151L83.2436 76.7954L83.3165 76.2737L83.3334 75.7913L83.0249 75.3931L83.1202 74.9051L82.9576 74.4676L82.6603 74.0356L82.6042 73.5645L82.5312 73.0989L82.7444 72.6221L82.6154 72.1565L82.8398 71.7022L82.9295 71.2478L82.9183 70.7823L82.9295 70.3111L82.9856 69.8455L83.2324 69.4304L83.1146 68.9144L83.5185 68.5554V68.0618L83.6082 67.585L84.1411 67.3269L84.2813 66.8838L84.4047 66.4238L84.7189 66.0761L84.8815 65.6161L85.2293 65.2964L85.5715 64.9879L85.9249 64.6906L86.3063 64.4269L86.3904 63.7875L86.7999 63.5295L87.2935 63.4229L87.8488 63.4958L88.1517 63.0358L88.5781 62.8395L89.0773 62.8956L89.4812 62.5254L89.9804 62.7105L90.4403 62.7385L90.8947 62.8451L91.3883 62.6095L91.8539 62.7049L92.2914 62.8788L92.8131 62.8451L93.1496 63.2602L93.5815 63.4453L94.0359 63.6024L94.4173 63.8884L94.5632 64.4494L95.0063 64.6401L95.4046 64.8981L95.657 65.2964L95.8757 65.7171L96.3245 65.9695L96.5208 66.3958L96.8349 66.7548L97.1266 67.1362L97.02 67.7028L97.4576 68.0225L97.5417 68.4937L97.5529 68.9761L97.6707 69.4248L97.8783 69.8511L97.738 70.3503L97.8895 70.7879L97.9512 71.2478L98.4223 71.6741L98.1699 72.1565L97.9736 72.6221Z" fill="#FCFCFC"/>
<path d="M97.5114 74.7474L97.6516 75.2017L97.517 75.6393L97.6516 76.116L97.287 76.5031L97.4721 77.0135L97.1692 77.395V77.8774L96.7373 78.1803L96.6307 78.6234L96.3727 78.9936L96.283 79.4816L95.9127 79.7621L95.6491 80.1435L95.3406 80.4857L94.8919 80.6427L94.4712 80.811L94.0729 80.9961L93.6634 81.1364L93.31 81.557L92.8164 81.3383L92.3845 81.3663L91.9526 81.3327L91.459 81.5402L91.0158 81.4L90.7073 80.9625L90.253 80.8783L89.8491 80.6764L89.535 80.3567L89.1311 80.1267L88.9067 79.7172L88.5029 79.4648L88.3514 79.0217L87.9868 78.7075L87.8017 78.2868L87.6615 77.8549L87.5942 77.395L87.5269 76.9518L87.1679 76.5704L87.095 76.1217L87.1342 75.6561L87.0781 75.2017L87.3081 74.7474V74.3042L87.1454 73.8443L87.1903 73.3899L87.1959 72.93L87.5605 72.5541L87.4371 72.0437L87.6839 71.6511L87.9363 71.2696L88.1719 70.8882L88.4243 70.5236L88.5534 70.0636L88.8394 69.7102L89.0694 69.3008L89.4284 69.0147L89.8603 68.8296L90.2474 68.5996L90.5671 68.2182L91.0944 68.3135L91.487 68.0835L91.9245 67.8984L92.3845 68.005L92.8164 68.1845L93.2596 68.1901L93.7139 68.2182L94.129 68.3808L94.4936 68.6557L94.9367 68.7959L95.3126 69.054L95.5762 69.4298L95.9745 69.6822L96.2213 70.0636L96.4625 70.4451L96.8271 70.7648L97.0122 71.1855L96.928 71.7184L97.2029 72.0886L97.1804 72.5598L97.517 72.9412L97.646 73.3787L97.4721 73.8611L97.6516 74.293L97.5114 74.7474Z" fill="#121315"/>
</svg>
