<svg width="995" height="500" viewBox="0 0 995 500" fill="none" xmlns="http://www.w3.org/2000/svg">
<path d="M465.363 495.516L455.943 500L447.29 496.33L438.326 494.666L428.833 493.335L424.205 484.786L412.305 484.882L405.904 478.524L399.274 472.419L400.114 462.574L388.712 458.273L389.179 449.462L392.53 440.958L388.235 433.548L392.312 426.006L388.878 417.694L393.423 411.73L386.139 416.529L382.311 424.535L373.129 428.336L362.723 431.165L359.091 439.328L349.909 443.13L346.641 451.573L342.232 459.141L331.421 461.672L325.777 467.68L319.687 473.759L311.636 477.718L304.446 484.077L293.801 481.852L284.609 481.887L275.676 480.284L266.089 485.592L257.768 480.626L247.57 481.799L241.48 474.319L230.565 474.425L222.099 470.317L215.999 463.888L211.153 456.846L208.86 448.84L203.652 442.306L201.505 434.678L196.639 427.382L198.807 419.28L197.209 411.292L197.884 403.207L199.035 394.948L204.908 388.186L210.137 387.564L202.003 392.119L191.046 394.869L185.527 400.606L178.223 404.609L171.023 408.971L163.988 414.97L153.8 411.738L145.355 413.937L136.401 417.011L127.852 413.122L118.597 413.508L111.335 408.384L103.024 405.94L96.2702 401.158L88.1569 397.768L79.4004 394.177L73.9431 387.81L73.1338 379.366L67.3653 373.253L66.6494 365.536L61.2855 358.573L58.4842 350.743L59.9783 342.781L59.916 334.592L64.564 327.374L71.4323 321.41L78.7156 314.543L65.062 311.915L55.9527 308.605L47.7772 304.094L38.5849 301.361L31.6025 295.677L19.8475 293.706L13.8715 287.26L14.2657 277.844L4.3264 272.965L4.01515 264.557L5.74779 256.368L0 248.765L4.73103 241.057L8.73581 233.954L10.6656 226.597L7.27292 216.594L16.0606 211.576L22.7836 206.066L31.3638 202.528L35.96 194.916L43.3574 189.968L46.7812 181.253L55.2265 177.311L62.24 172.004L71.837 169.148L75.1881 160.363L84.2559 157.009L92.888 153.234L96.4881 144.676L107.185 142.872L113.514 136.907L120.216 131.293L128.163 126.87L136.536 122.85L139.482 113.671L149.764 111.463L154.173 103.668L162.785 99.8756L168.616 93.4292L176.034 88.4981L182.757 82.9012L189.054 76.9103L199.627 74.9746L207.356 70.3412L211.267 62.073L216.31 54.8821L223.749 49.9772L230.617 44.5118L239.975 41.4112L248.037 37.0756L251.429 28.3344L260.269 25.4266L267.967 20.7144L278.456 23.0004L286.746 19.9086L295.71 19.7947L304.882 16.9919L314.012 18.3758L322.063 22.7464L332.417 21.6428L339.348 27.4235L343.705 35.2801L352.763 39.239L359.154 45.7818L365.192 52.5786L372.6 59.2002L372.662 66.321L381.948 63.3605L390.632 58.8936L397.51 52.8588L404.358 46.8066L410.853 40.4477L415.729 32.6613L426.208 29.7534L431.717 22.5099L439.021 18.2269L447.29 15.4679L453.702 9.87983L462.915 9.59955L470.738 5.64937L479.276 1.31381L488.676 0.27152L498.097 1.17367L506.179 6.31503L513.566 11.0185L522.177 12.9979L527.935 19.0064L537.812 21.0472L541.879 28.5009L551.518 32.3109L552.14 41.0871L562.422 46.2197L556.685 55.8368L560.316 59.9271L569.218 58.044L575.65 52.6924L583.961 48.8211L588.671 42.1207L593.402 35.4202L602.345 32.0306L607.688 25.8119L608.881 15.5993L619.703 14.592L625.554 7.49746L635.691 7.46243L643.13 0.823319L653.608 6.07855L662.375 2.74148L671.983 0L680.044 6.40262L687.587 10.8345L696.509 11.9819L704.851 14.8811L712.995 18.7261L720.081 23.9025L726.192 29.9285L732.106 36.2348L734.907 43.9425L739.576 51.0458L735.364 59.7169L737.48 67.118L742.294 75.1235L740.095 85.0647L743.405 76.9015L748.769 71.3135L755.128 66.4874L760.326 60.768L767.444 55.7405L777.269 54.1551L782.166 46.2285L792.863 47.8839L800.696 44.3892L808.861 39.7295L818.126 41.2798L827.246 40.5091L836.22 41.963L844.385 45.4928L853.432 47.0168L863.921 47.5686L868.237 56.7039L874.545 62.7299L885.47 65.9794L883.81 76.4899L887.826 83.5144L890.585 90.9768L899.363 97.975L898.574 106.532L897.018 114.844L893.003 123.445L903.44 123.331L912.321 120.283L921.586 121.44L930.934 121.615L938.881 126.415L948.592 126.686L956.467 130.908L961.499 138.046L970.836 140.744L978.587 145.631L985.154 151.736L982.373 161.677L994.263 166.477L992.23 175.236L995 183.066L989.802 190.861L988.111 198.324L993.122 207.678L981.315 212.197L984.314 222.568L977.196 228.366L971.002 234.62L961.208 237.536L954.382 243.046L950.252 250.92L945.189 257.979L932.117 258.023L925.933 264.093L919.864 270.259L915.828 278.212L904.851 280.077L904.747 291.481L897.08 296.246L887.379 299.233L884.246 307.983L876.672 312.844L869.607 318.134L857.779 319.281L851.056 324.878L849.811 335.275L838.907 337.211L831.624 342.334L826.696 349.508L821.311 356.287L816.009 363.136L806.838 366.605L799.99 372.096L794.056 378.394L786.202 383.001L778.41 387.669L775.163 396.314L764.373 398.364L758.718 404.907L750.47 409.19L742.305 413.525L735.862 419.385L732.397 427.863L724.615 432.558L718.805 439.74L707.061 439.521L701.946 449.541L690.834 448.219L681.289 449.55L671.661 449.567L662.023 449.848L651.295 452.747L644.032 444.391L632.578 445.74L624.641 440.379L616.964 435.308L612.119 427.995L610.085 419.569L602.138 414.585L597.531 407.858L593.765 415.382L586.783 420.523L578.171 424.395L575.017 432.497L563.646 434.257L556.778 439.486L552.348 446.598L544.359 450.977L540.894 458.825L535.353 465.088L531.639 472.769L521.347 475.379L517.405 483.122L506.708 483.963L499.487 488.272L490.917 490.208L484.453 498.809L474.421 496.33L465.363 495.516Z" fill="#FCFCFC"/>
</svg>
