<svg width="790" height="396" viewBox="0 0 790 396" fill="none" xmlns="http://www.w3.org/2000/svg">
<path d="M369.484 392.448L362.005 396L355.135 393.093L348.017 391.775L340.48 390.721L336.806 383.951L327.358 384.027L322.275 378.991L317.012 374.156L317.679 366.359L308.626 362.953L308.996 355.974L311.657 349.238L308.247 343.37L311.484 337.397L308.758 330.814L312.366 326.09L306.583 329.891L303.543 336.232L296.253 339.242L287.991 341.483L285.108 347.948L277.818 350.959L275.223 357.646L271.722 363.639L263.138 365.644L258.657 370.403L253.822 375.217L247.429 378.353L241.721 383.389L233.269 381.627L225.971 381.655L218.878 380.385L211.267 384.589L204.66 380.656L196.563 381.585L191.728 375.661L183.062 375.744L176.34 372.491L171.496 367.399L167.649 361.822L165.829 355.482L161.694 350.307L159.989 344.265L156.125 338.486L157.847 332.07L156.578 325.743L157.114 319.34L158.028 312.799L162.69 307.444L166.842 306.951L160.384 310.558L151.685 312.736L147.303 317.28L141.504 320.45L135.787 323.905L130.202 328.657L122.113 326.097L115.407 327.838L108.298 330.273L101.511 327.193L94.1627 327.498L88.3965 323.44L81.7983 321.505L76.4357 317.717L69.9939 315.033L63.0415 312.188L58.7086 307.145L58.0661 300.458L53.486 295.616L52.9176 289.505L48.6589 283.99L46.4347 277.788L47.6209 271.483L47.5715 264.997L51.2619 259.281L56.7151 254.557L62.4978 249.118L51.6573 247.037L44.4248 244.415L37.9336 240.842L30.6352 238.678L25.0914 234.176L15.7583 232.615L11.0135 227.51L11.3265 220.052L3.43503 216.189L3.18791 209.529L4.56357 203.043L0 197.022L3.7563 190.917L6.93597 185.292L8.46814 179.465L5.77448 171.543L12.7516 167.568L18.0895 163.205L24.9019 160.402L28.5511 154.374L34.4245 150.454L37.1428 143.552L43.8482 140.431L49.4167 136.227L57.0364 133.965L59.6971 127.008L66.8967 124.351L73.7502 121.361L76.6087 114.584L85.1015 113.155L90.1264 108.431L95.4478 103.984L101.758 100.481L108.405 97.297L110.745 90.0271L118.908 88.279L122.409 82.1052L129.246 79.1015L133.876 73.9959L139.765 70.0905L145.103 65.6578L150.104 60.9129L158.498 59.3799L164.634 55.7103L167.74 49.1618L171.743 43.4666L177.65 39.582L183.103 35.2533L190.533 32.7977L196.934 29.3639L199.627 22.4409L206.646 20.1378L212.758 16.4058L221.086 18.2163L227.668 15.7676L234.785 15.6774L242.067 13.4576L249.316 14.5536L255.708 18.0151L263.929 17.1411L269.432 21.7194L272.892 27.9418L280.083 31.0773L285.157 36.2592L289.951 41.6422L295.833 46.8865L295.882 52.5262L303.255 50.1816L310.15 46.6437L315.611 41.8642L321.048 37.0708L326.205 32.0346L330.076 25.8677L338.396 23.5647L342.77 17.8278L348.569 14.4357L355.135 12.2506L360.225 7.82483L367.54 7.60285L373.751 4.4743L380.531 1.04054L387.994 0.215044L395.474 0.929545L401.891 5.00151L407.756 8.72662L414.593 10.2944L419.165 15.0531L427.007 16.6694L430.236 22.5727L437.888 25.5902L438.383 32.541L446.546 36.606L441.991 44.2228L444.874 47.4623L451.942 45.9709L457.049 41.7324L463.647 38.6663L467.387 33.3596L471.143 28.0528L478.244 25.3683L482.486 20.4431L483.434 12.3546L492.025 11.5569L496.671 5.93799L504.719 5.91024L510.625 0.652069L518.945 4.81421L525.906 2.17125L533.534 0L539.935 5.07088L545.923 8.58095L553.007 9.48968L559.63 11.7858L566.097 14.8311L571.723 18.9308L576.575 23.7034L581.27 28.698L583.494 34.8024L587.201 40.4283L583.857 47.2958L585.537 53.1575L589.359 59.4978L587.613 67.3712L590.241 60.906L594.5 56.4803L599.549 52.658L603.676 48.1282L609.327 44.1465L617.128 42.8909L621.016 36.613L629.509 37.924L635.728 35.1562L642.211 31.4658L649.567 32.6936L656.808 32.0832L663.933 33.2347L670.416 36.0303L677.599 37.2373L685.927 37.6743L689.354 44.9095L694.363 49.6821L703.037 52.2557L701.719 60.58L704.907 66.1434L707.098 72.0536L714.067 77.5962L713.441 84.3735L712.205 90.9567L709.017 97.7687L717.304 97.6785L724.355 95.2645L731.711 96.1801L739.133 96.3189L745.443 100.12L753.154 100.335L759.406 103.679L763.401 109.333L770.815 111.469L776.968 115.34L782.183 120.175L779.975 128.048L789.415 131.85L787.801 138.787L790 144.988L785.873 151.162L784.53 157.072L788.509 164.481L779.135 168.06L781.515 176.274L775.864 180.866L770.947 185.819L763.17 188.129L757.75 192.492L754.472 198.728L750.452 204.32L740.073 204.354L735.163 209.161L730.344 214.045L727.14 220.344L718.424 221.821L718.342 230.853L712.255 234.627L704.552 236.992L702.065 243.922L696.051 247.772L690.442 251.962L681.051 252.871L675.713 257.304L674.725 265.538L666.067 267.071L660.284 271.129L656.371 276.81L652.096 282.179L647.887 287.604L640.605 290.351L635.168 294.7L630.456 299.688L624.221 303.337L618.034 307.034L615.456 313.881L606.889 315.504L602.399 320.686L595.851 324.078L589.368 327.512L584.252 332.153L581.501 338.868L575.323 342.586L570.71 348.274L561.385 348.101L557.324 356.037L548.501 354.989L540.923 356.043L533.279 356.057L525.626 356.279L517.108 358.575L511.342 351.958L502.248 353.026L495.946 348.781L489.851 344.764L486.004 338.972L484.389 332.298L478.079 328.351L474.422 323.024L471.432 328.983L465.888 333.055L459.051 336.121L456.546 342.537L447.518 343.932L442.065 348.073L438.547 353.706L432.205 357.174L429.453 363.39L425.054 368.35L422.105 374.433L413.934 376.5L410.804 382.633L402.311 383.299L396.577 386.711L389.773 388.245L384.641 395.057L376.676 393.093L369.484 392.448Z" fill="#C6F065"/>
</svg>
