<svg width="24" height="24" viewBox="0 0 24 24" fill="none" xmlns="http://www.w3.org/2000/svg">
<g filter="url(#filter0_g_3325_184689)">
<path d="M11.9922 6.73535C12.1386 6.75599 12.2372 6.84014 12.2783 6.87891C12.3338 6.93119 12.3783 6.99151 12.4043 7.02734C12.4395 7.07589 12.4518 7.094 12.4707 7.11816L12.4717 7.12012C12.6082 7.20987 12.7243 7.3276 12.8174 7.46289L12.8887 7.56543V7.60059L15.3281 12.71L17.791 9.20117L17.8193 9.16211L17.8555 9.12988C18.0517 8.95887 18.2992 8.8568 18.5664 8.86719C18.5678 8.86693 18.5721 8.86707 18.5791 8.86523C18.5902 8.86235 18.6021 8.85877 18.623 8.85254C18.6413 8.84713 18.6684 8.83907 18.6973 8.83203C18.7528 8.81846 18.8498 8.79953 18.9619 8.81738C19.0556 8.83234 19.1418 8.87018 19.2168 8.92773L19.2881 8.99121L19.3408 9.05371C19.3893 9.11827 19.4245 9.18677 19.4502 9.24219C19.4872 9.32189 19.5188 9.40817 19.5449 9.48828C19.5966 9.64701 19.6383 9.81654 19.6641 9.91602C19.7331 10.1825 19.7464 10.4691 19.7031 10.7432L19.7002 10.7568L18.0967 19.04L18.0947 19.0391C18.0442 19.3493 17.9228 19.6466 17.7266 19.874C17.6363 19.9786 17.5053 20.0525 17.415 20.0986C17.3101 20.1522 17.1909 20.2023 17.0762 20.2441C16.9608 20.2862 16.8422 20.3226 16.7373 20.3496C16.691 20.3615 16.638 20.3743 16.584 20.3838L16.4248 20.4004H7.42285C7.23834 20.4 7.0254 20.3185 6.875 20.2461C6.71896 20.1709 6.52499 20.0538 6.40039 19.9092C6.20696 19.6846 6.08484 19.3927 6.0332 19.0869V19.0879L4.15234 10.7686L4.14941 10.7559L4.14746 10.7432C4.10423 10.4691 4.11653 10.1825 4.18555 9.91602C4.19524 9.8786 4.20462 9.81981 4.22754 9.70215C4.24704 9.60201 4.2746 9.47332 4.31445 9.35352C4.34834 9.25165 4.4153 9.07786 4.55566 8.95801C4.63777 8.88791 4.75469 8.82861 4.89941 8.82812C4.91886 8.82807 4.93758 8.83106 4.95605 8.83301C4.96225 8.83102 4.9682 8.82793 4.97461 8.82617C5.13374 8.78255 5.26012 8.83577 5.31738 8.86523C5.31856 8.86584 5.32017 8.86661 5.32129 8.86719C5.53992 8.86738 5.74393 8.94154 5.91602 9.06738L5.99414 9.12988L6.02539 9.15723L6.05078 9.19141L8.69434 12.7139L10.9922 7.52734L11.0078 7.49316L11.0283 7.46289C11.122 7.32668 11.2392 7.20715 11.377 7.11719C11.3776 7.11637 11.3791 7.11616 11.3799 7.11523C11.3999 7.09021 11.4119 7.07107 11.4482 7.02246C11.4751 6.98643 11.5205 6.92732 11.5762 6.87598C11.6227 6.83303 11.7447 6.73064 11.9258 6.73047L11.9922 6.73535ZM4.46289 5.68652C4.98295 5.68665 5.32511 6.14598 5.3252 6.6084C5.3252 7.07088 4.98302 7.53015 4.46289 7.53027C3.94265 7.53027 3.59961 7.07094 3.59961 6.6084C3.5997 6.14592 3.94271 5.68652 4.46289 5.68652ZM19.5371 5.68652C20.0573 5.68652 20.4003 6.14592 20.4004 6.6084C20.4004 7.07094 20.0574 7.53027 19.5371 7.53027C19.017 7.53015 18.6748 7.07088 18.6748 6.6084C18.6749 6.14598 19.0171 5.68665 19.5371 5.68652ZM12 3.59961C12.5201 3.59967 12.8622 4.05905 12.8623 4.52148C12.8623 4.98399 12.5202 5.4433 12 5.44336C11.4798 5.44336 11.1377 4.98403 11.1377 4.52148C11.1378 4.05902 11.4798 3.59961 12 3.59961Z" fill="#FFC353" stroke="#CB8B14" stroke-width="0.8"/>
</g>
<defs>
<filter id="filter0_g_3325_184689" x="-0.3" y="-0.3" width="24.6" height="24.6" filterUnits="userSpaceOnUse" color-interpolation-filters="sRGB">
<feFlood flood-opacity="0" result="BackgroundImageFix"/>
<feBlend mode="normal" in="SourceGraphic" in2="BackgroundImageFix" result="shape"/>
<feTurbulence type="fractalNoise" baseFrequency="0.625 0.625" numOctaves="3" seed="4114" />
<feDisplacementMap in="shape" scale="0.60000002384185791" xChannelSelector="R" yChannelSelector="G" result="displacedImage" width="100%" height="100%" />
<feMerge result="effect1_texture_3325_184689">
<feMergeNode in="displacedImage"/>
</feMerge>
</filter>
</defs>
</svg>
