<svg width="24" height="24" viewBox="0 0 24 24" fill="none" xmlns="http://www.w3.org/2000/svg">
<g clip-path="url(#clip0_2987_173398)">
<path d="M22.3143 8.02208C22.3131 6.95153 21.7415 5.96276 20.8143 5.42748L13.488 1.19759C12.561 0.662416 11.4191 0.661645 10.4915 1.19557L3.18765 5.39931C2.25632 5.93534 1.68282 6.92855 1.68415 8.00312L1.69458 16.4323C1.6959 17.5028 2.26752 18.4914 3.19458 19.0267L10.5206 23.2563C11.4478 23.7917 12.5901 23.7923 13.5179 23.2579L20.8214 19.0514C21.7522 18.5153 22.3253 17.5225 22.3241 16.4483L22.3143 8.02208Z" fill="url(#paint0_linear_2987_173398)"/>
<g filter="url(#filter0_i_2987_173398)">
<path d="M10.7658 21.0534L10.5158 21.4865L4.72592 18.1437L4.97592 17.7107L10.7658 21.0534ZM13.4872 2.96879L19.277 6.31157C20.2041 6.84684 20.776 7.83585 20.7773 8.90641L20.7842 15.5623C20.7854 16.6363 20.2131 17.629 19.2826 18.1651L13.5131 21.4883L13.336 21.5822C12.4427 22.0202 11.3849 21.9882 10.5158 21.4865L10.7658 21.0534C11.5385 21.4995 12.4908 21.4999 13.2639 21.0546L19.0321 17.7318C19.8078 17.2851 20.2856 16.4577 20.2846 15.5625L20.2776 8.9066C20.2765 8.01455 19.7996 7.19061 19.027 6.74458L13.2372 3.4018C12.4647 2.95588 11.5134 2.95539 10.7403 3.40026L4.97095 6.72124C4.19506 7.16785 3.71675 7.99481 3.71767 8.89004L3.72617 15.5491C3.72733 16.441 4.20357 17.2646 4.97592 17.7107L4.72592 18.1437C3.85694 17.6419 3.30016 16.7418 3.23289 15.7492L3.22651 15.5493L3.21752 8.89108C3.21631 7.88364 3.72089 6.94798 4.55137 6.39329L4.72179 6.28758L10.4912 2.9666C11.4187 2.43292 12.5604 2.43374 13.4872 2.96879Z" fill="url(#paint1_linear_2987_173398)"/>
</g>
<path d="M16 9.88204L15.9834 9.69956L15.9409 9.5367V9.37081L15.7449 8.93197L15.4843 8.74497L15.3401 8.68616L15.2255 8.53686L14.9316 8.31066L14.6876 8.29558L14.3789 8.15382L14.1238 8.1493L14.0721 8.14176L13.8466 8.04072L13.6377 8.06786L13.2902 8L13.0055 8.01206L12.7375 8.07691L12.6303 8.12517L12.5139 8.12969L12.3013 8.17946L12.1017 8.24883L12.0684 8.25788L11.7745 8.22319L11.5157 8.40717L11.4344 8.44035L11.3586 8.46297L11.2588 8.46749L11.0277 8.45845L10.9519 8.44186L10.7412 8.36495H10.4806L10.183 8.38455L10.0259 8.46448L9.86876 8.49162L9.41035 8.46297L9.2366 8.8068L9.04251 8.98777L9.09982 9.37684L9.14787 9.44169L9.13309 9.54424L9.19409 9.68147L9.12569 9.90013L9.1756 10.1701L9.19778 10.2093L9.15157 10.3058L9.21072 10.5441L9.21996 10.5969L9.15712 10.7944L9.23105 10.9271L9.20148 11.0085L9.24769 11.3207L9.22921 11.4987L9.25693 11.568L9.17006 11.7203L9.29205 11.9858L9.29575 11.9978L9.20702 12.3386L9.29945 12.5151L9.30314 12.6252L9.33272 12.7202L9.30499 12.8272L9.31608 12.9539L9.26433 13.1108L9.2939 13.2601L9.26063 13.3837L9.27726 13.5783L9.31238 13.7396L9.32532 13.898L9.34196 13.9402L9.22921 14.1362L9.39926 14.3549L9.31423 14.6263L9.32163 14.9129L9.38078 14.9928L9.34196 15.1964V15.3653L9.35305 15.4527L9.23845 15.5236L9 15.9097L9.09427 16.0756L9.25508 16.3847L9.48983 16.5808L9.9353 16.813L10.1128 16.8341L10.3457 16.9623L10.634 16.9095L10.9353 17L11.159 16.9668L11.4732 16.9864L11.6728 16.8221L11.8909 16.7587L12.0758 16.534L12.2403 16.2354L12.1922 16.0997L12.2717 15.8388L12.1146 15.7287L12.1072 15.6036L12.0924 15.4904L12.1331 15.314L12.0111 14.9521L11.9963 14.8887L12.0055 14.8299L12.0924 14.5841L12.0314 14.4589L12.2791 14.4122L12.3993 14.3504L12.5619 14.3383L12.8928 14.195L12.9871 14.0895L13.0813 14.0563L13.3105 13.9236L13.4621 13.7833L13.573 13.6491L13.695 13.5451L13.793 13.4169L13.9279 13.2902L14.0222 13.1153L14.0684 13.0429L14.2939 12.8544L14.3734 12.7443L14.5139 12.6448L14.6673 12.4186L14.6858 12.3582L14.7893 12.2964L14.9834 11.9797L15.0961 11.8365L15.1497 11.6887L15.2625 11.5349L15.5028 11.3313L15.4861 11.1925L15.5656 11.1382L15.6266 10.9L15.6617 10.8246L15.7616 10.6813L15.8022 10.5411L15.8558 10.4581L15.9834 10.2168L15.9704 10.0253L15.9982 9.88505L16 9.88204ZM11.9205 11.2272L11.9168 11.1624L11.9871 10.719L11.9316 10.5682L11.9353 10.4837L12.2847 10.336L12.3845 10.2455L12.5305 10.1927L12.6118 10.1218L12.7616 10.0962L12.9094 10.0027L13.0647 9.97704L13.1146 9.95141L13.1238 9.98308L13.0259 10.1444L13.0148 10.2696L12.9834 10.3073L12.9076 10.4325L12.7874 10.5335L12.6784 10.713L12.6266 10.8427L12.536 10.9301L12.4492 11.087L12.3845 11.1714L12.2551 11.3117L12.1756 11.476L12.0277 11.5364L11.9649 11.6148L11.9482 11.5605L11.9871 11.4112L11.9168 11.2272H11.9205Z" fill="#C6F065"/>
</g>
<defs>
<filter id="filter0_i_2987_173398" x="3.21875" y="2.56689" width="17.5625" height="19.3213" filterUnits="userSpaceOnUse" color-interpolation-filters="sRGB">
<feFlood flood-opacity="0" result="BackgroundImageFix"/>
<feBlend mode="normal" in="SourceGraphic" in2="BackgroundImageFix" result="shape"/>
<feColorMatrix in="SourceAlpha" type="matrix" values="0 0 0 0 0 0 0 0 0 0 0 0 0 0 0 0 0 0 127 0" result="hardAlpha"/>
<feOffset dx="0.1" dy="0.1"/>
<feComposite in2="hardAlpha" operator="arithmetic" k2="-1" k3="1"/>
<feColorMatrix type="matrix" values="0 0 0 0 0.132394 0 0 0 0 0.2149 0 0 0 0 0.0245015 0 0 0 0.45 0"/>
<feBlend mode="normal" in2="shape" result="effect1_innerShadow_2987_173398"/>
</filter>
<linearGradient id="paint0_linear_2987_173398" x1="23.5021" y1="23.5" x2="6.00214" y2="3.5" gradientUnits="userSpaceOnUse">
<stop stop-color="#4F800F"/>
<stop offset="0.650906" stop-color="#121315"/>
</linearGradient>
<linearGradient id="paint1_linear_2987_173398" x1="22.8937" y1="24.4403" x2="3.50084" y2="1.00004" gradientUnits="userSpaceOnUse">
<stop offset="0.29793" stop-color="#23340D"/>
<stop offset="1" stop-color="#C6F065"/>
</linearGradient>
<clipPath id="clip0_2987_173398">
<rect width="24" height="24" fill="white"/>
</clipPath>
</defs>
</svg>
