<svg width="24" height="24" viewBox="0 0 24 24" fill="none" xmlns="http://www.w3.org/2000/svg">
<g clip-path="url(#clip0_2987_173399)">
<path d="M22.3143 8.02208C22.3131 6.95153 21.7415 5.96276 20.8143 5.42748L13.488 1.19759C12.561 0.662416 11.4191 0.661645 10.4915 1.19557L3.18765 5.39931C2.25632 5.93534 1.68282 6.92855 1.68415 8.00312L1.69458 16.4323C1.6959 17.5028 2.26752 18.4914 3.19458 19.0267L10.5206 23.2563C11.4478 23.7917 12.5901 23.7923 13.5179 23.2579L20.8214 19.0514C21.7522 18.5153 22.3253 17.5225 22.3241 16.4483L22.3143 8.02208Z" fill="url(#paint0_linear_2987_173399)"/>
<g filter="url(#filter0_i_2987_173399)">
<path d="M13.3601 3.18526L19.1499 6.52803C19.9997 7.01866 20.5237 7.92498 20.5249 8.90622L20.5327 15.5626C20.5338 16.5472 20.0084 17.457 19.1553 17.9484L13.3858 21.2716C12.5354 21.7613 11.4886 21.7605 10.6387 21.2699L4.84886 17.9271C3.99921 17.4365 3.47507 16.5301 3.47386 15.549L3.46571 8.89119C3.46449 7.90617 3.99041 6.99506 4.84413 6.5037L10.613 3.18356C11.4634 2.69414 12.5104 2.69472 13.3601 3.18526Z" stroke="url(#paint1_linear_2987_173399)" stroke-width="0.5"/>
</g>
<path d="M15.9434 14.7092L16 14.4943L15.9336 14.3953L15.9766 14.313L15.9082 14.0112L15.8223 13.8816L15.7911 13.7536L15.6681 13.5509L15.4474 13.3207L15.258 13.0555L15.1408 12.9626L15.0061 12.769L14.6956 12.6501L14.5277 12.6044L14.4906 12.5815L14.2602 12.3727L13.9243 12.3575L13.8247 12.2691L13.3249 12.0664L13.1726 12.0542L12.9832 11.9506L12.8738 11.9566L12.8484 11.9307L12.495 11.7829H12.4501L12.4188 11.7356L12.1767 11.6412L12.0654 11.5665L12.0537 11.4994L11.9092 11.3165L11.8467 11.251L11.8897 11.1793L11.8467 10.9766L11.9092 10.7023L11.8819 10.6154L11.9619 10.5483L12.0752 10.4005L12.1748 10.3883L12.2392 10.3197L12.0928 10.5133L12.1845 11.0787L12.3193 11.1839L12.3368 11.35L12.6063 11.5253L12.8777 11.7829L13.1706 11.8774L13.3503 11.9185L13.5377 12.0008L13.8072 12.0359L14.0747 12.0588L14.2036 12.0466L14.514 12.1152L14.7972 11.9704L15.1486 11.885L15.2502 11.6457L15.4123 11.5268L15.4591 11.286L15.5821 11.0666L15.5333 10.8486V10.6367L15.4103 10.4813L15.3947 10.4157L15.3615 10.3334L15.4201 10.1475L15.2541 9.94022L15.2385 9.87163L15.174 9.72989L15.1584 9.53175L15.0315 9.40068L15.0061 9.2818L14.8675 9.09738L14.7444 8.96478L14.5297 8.67671L14.2914 8.54564L14.1879 8.50144L14.022 8.28806L13.6627 8.28501L13.4537 8.12193L13.1394 8.11888L12.8094 8.03048L12.5985 8.03201L12.4286 8.00152L12.1338 8L11.9873 8.02896L11.7608 8.00305L11.4913 8.09907L11.4035 8.12041L11.1652 8.13412L10.9114 8.24996L10.8255 8.29721L10.6126 8.32007L10.3666 8.48925L10.2573 8.58679L10.0444 8.67367L9.96046 8.80627L9.81401 8.86876L9.66561 9.06537L9.5836 9.15224L9.50159 9.22845L9.29461 9.36715L9.15402 9.64149L9.1423 9.77257L8.94703 9.94174L8.89627 10.1704L8.82402 10.3548L8.83573 10.4782L8.79082 10.559L8.71076 10.8395L8.78301 11.0086L8.76544 11.1428L8.81425 11.2708L8.76544 11.4765L8.92946 11.6854L8.9568 11.7707L9.031 11.9094L9.05053 12.0953L9.20283 12.2676L9.29461 12.4444L9.44691 12.5556L9.53088 12.6943L9.74371 12.8406L9.81987 12.8848L9.9175 13.0693L10.3002 13.2049L10.431 13.3634L10.722 13.4305L10.8684 13.5021L11.0286 13.5463L11.1281 13.6012L11.4757 13.7292L11.6593 13.7216L11.794 13.7688L11.833 13.7704L11.9365 13.8801L12.2978 13.9182L12.3778 13.9304L12.5926 14.0996L12.5692 14.2246L12.6942 14.3206L12.6727 14.3754L12.7664 14.6056L12.7703 14.6285L12.7274 14.7199L12.7078 14.9211L12.7098 15.0247L12.6727 15.0522L12.4911 15.0125L12.331 15.0704L12.208 14.9729L12.0908 14.8982L11.917 14.6391L11.8096 14.3998L11.6827 14.2124L11.5031 14.0234L11.3566 13.9304L11.216 13.7963L10.8704 13.6362L10.64 13.6332L10.2944 13.5296L9.91945 13.5219L9.76129 13.5768L9.5465 13.5509L9.29265 13.653L9.06419 13.6865L8.97047 13.7414L8.61508 13.7079L8.4042 14.0127L8 14.3465L8.30266 14.883L8.52526 15.0628L8.84159 15.2305L8.93922 15.2732L9.10325 15.4774L9.35318 15.4881L9.44496 15.7319L9.72224 15.8523L9.78277 15.9072L9.92726 16.0063L10.0151 16.1114L10.1616 16.2242L10.2983 16.3538L10.5423 16.5077L10.8431 16.5946L11.0383 16.6159L11.0832 16.6281L11.507 16.8598L11.8428 16.8293L11.9912 16.8354L12.2333 16.9909L12.495 16.939L12.6688 17L12.9519 16.9497L13.1433 16.9528L13.3913 16.9025L13.5631 16.8567L13.9497 16.7942L14.268 16.6769L14.4965 16.651L14.8382 16.4666L14.9124 16.3599L15.0588 16.305L15.2404 16.0992L15.2931 16.0246L15.4943 15.9331L15.6231 15.6786L15.6954 15.5551L15.7559 15.4317L15.875 15.2838L15.957 15.0339L15.9551 14.8342L15.9434 14.7092Z" fill="#C6F065"/>
</g>
<defs>
<filter id="filter0_i_2987_173399" x="3.21875" y="2.56689" width="17.5625" height="19.3218" filterUnits="userSpaceOnUse" color-interpolation-filters="sRGB">
<feFlood flood-opacity="0" result="BackgroundImageFix"/>
<feBlend mode="normal" in="SourceGraphic" in2="BackgroundImageFix" result="shape"/>
<feColorMatrix in="SourceAlpha" type="matrix" values="0 0 0 0 0 0 0 0 0 0 0 0 0 0 0 0 0 0 127 0" result="hardAlpha"/>
<feOffset dx="0.1" dy="0.1"/>
<feComposite in2="hardAlpha" operator="arithmetic" k2="-1" k3="1"/>
<feColorMatrix type="matrix" values="0 0 0 0 0.132394 0 0 0 0 0.2149 0 0 0 0 0.0245015 0 0 0 0.45 0"/>
<feBlend mode="normal" in2="shape" result="effect1_innerShadow_2987_173399"/>
</filter>
<linearGradient id="paint0_linear_2987_173399" x1="23.5021" y1="23.5" x2="6.00214" y2="3.5" gradientUnits="userSpaceOnUse">
<stop stop-color="#4F800F"/>
<stop offset="0.650906" stop-color="#121315"/>
</linearGradient>
<linearGradient id="paint1_linear_2987_173399" x1="22.8916" y1="24.4403" x2="3.49878" y2="1" gradientUnits="userSpaceOnUse">
<stop offset="0.29793" stop-color="#23340D"/>
<stop offset="1" stop-color="#C6F065"/>
</linearGradient>
<clipPath id="clip0_2987_173399">
<rect width="24" height="24" fill="white"/>
</clipPath>
</defs>
</svg>
