<svg width="326" height="47" viewBox="0 0 326 47" fill="none" xmlns="http://www.w3.org/2000/svg">
<g clip-path="url(#clip0_3941_79410)">
<path d="M129.579 2.06055L134.206 1.11621L137.09 2.0918L139.853 1.32812L144.405 2.14062L145.009 2.24902L145.197 2.24414L146.724 1.33105L153.4 2.01074L159.212 1.05664L162.612 2.50781L163.143 2.39844L169.999 0.999023L173.65 2.80957L176.522 2.62109L177.016 2.72168L185.121 0.446289L188.929 2.34863L189.821 2.50488L194.621 1.10449L198.891 2.79688L202.328 3.15918L207.105 1.80078L207.107 1.80176L210.196 0.0507812L217.129 2.54492L219.911 1.83496L221.193 2.14746L223.632 1.18164L230.788 2.77344L230.921 2.72559L241.726 1.1543L243.26 1.88672L243.353 1.8623L248.03 2.85059L248.155 2.87793L255.047 1.47363L255.74 1.66113L261.106 -0.503906L264.495 1.39355L266.188 0.538086L272.98 2.94043L280.195 1L284.691 3.16309L287.304 2.47852L288.738 2.64648L293.377 -0.658203L303.128 2.66406C314.221 3.27562 322.806 12.6812 322.362 23.8213C321.922 34.8646 312.772 43.5028 301.794 43.3857L299.106 45.3008L290.057 43.8867L287.561 44.54L283.756 44.0977L283.685 44.0889L283.606 44.1006L277.519 44.9404L275.62 44.0264L273.768 44.3496L270.428 44.0586L268.11 45.2295L260.138 43.835L258.318 44.5693L254.632 43.5752L250.591 45.0439L244.28 43.7139L239.081 45.0557L236.617 43.8789L228.589 43.9961L227.049 43.665L224.15 44.8145L220.141 43.8379L219.324 44.0469L216.128 43.8486L215.636 43.8174L211.809 45.9873L206.535 44.334L206.072 44.4658L199.622 43.8545L199.516 43.8447L199.408 43.834L199.303 43.8223L199.2 43.8379L193.815 44.623L192.608 44.1445L192.133 44.2842L188.768 43.6953L183.016 44.9502L180.988 43.9375L178.542 44.625L173.915 43.6826L166.432 44.7207L164.594 43.8086L163.259 44.1162L155.81 43.3828L149.835 46.9551L141.725 43.0938L141.483 43.1611L133.688 43.5869L132.314 44.2236L122.544 44.4355L120.664 45.3135L118.492 44.5244L118.45 44.5254L118.406 44.4932L115.28 43.3564L109.479 45.3662L104.414 43.7969L103.946 43.958L95.2382 43.3857L90.0145 44.7959L87.7606 44.042L85.5028 44.7422L80.4442 43.248L79.1854 43.5596L76.0516 43.3311L70.951 44.335L69.8417 43.9795L68.8495 44.3311L62.7821 43.4023L61.5233 43.6875L53.9462 43.9082L53.3358 43.7451L49.5751 45.5693L44.5223 43.751L44.1786 43.832L39.4813 43.2324L38.1327 43.2725H34.0682L30.8329 44.3428L25.8856 43.1709C16.5504 44.9942 6.91825 40.0559 3.1571 30.9238C-1.12884 20.5173 3.83258 8.60639 14.2391 4.32031L22.4071 0.956055L28.2919 2.02832L28.7333 2.10938L31.4969 1.19531L37.4354 2.51562H37.5458L41.4813 2.40137L42.0604 2.47559L46.9921 1.3252L47.2313 1.41211L48.3592 0.865234L57.6864 2.76953L60.201 2.20117L64.6424 2.58984L69.1903 0.981445L73.3739 2.31934L73.5516 2.28418L75.6893 2.44043L78.8524 1.65918L84.5585 2.36621L88.2362 1.22656L91.6942 2.38281L97.3124 1.35938L99.9979 2.22852L102.91 1.23047L108.422 2.59277L111.828 1.4043L116.186 1.78516L117.346 1.8877L124.705 -1.5459L129.579 2.06055Z" fill="#121315"/>
</g>
<defs>
<clipPath id="clip0_3941_79410">
<rect width="326" height="46.3235" fill="currentColor"/>
</clipPath>
</defs>
</svg>
