<svg width="24" height="24" viewBox="0 0 24 24" fill="none" xmlns="http://www.w3.org/2000/svg">
<path d="M0 12C0 5.37258 5.37258 0 12 0C18.6274 0 24 5.37258 24 12C24 18.6274 18.6274 24 12 24C5.37258 24 0 18.6274 0 12Z" fill="#B7ED38"/>
<path d="M12.0059 5C12.8018 5 13.4473 5.64547 13.4473 6.44141V10.5615H17.5586C18.3545 10.5615 19 11.207 19 12.0029C18.9998 12.7987 18.3544 13.4434 17.5586 13.4434H13.4473V17.5586C13.4473 18.3545 12.8018 19 12.0059 19C11.21 19 10.5645 18.3545 10.5645 17.5586V13.4434H6.44141C5.64562 13.4434 5.00025 12.7987 5 12.0029C5 11.207 5.64547 10.5615 6.44141 10.5615H10.5645V6.44141C10.5645 5.6455 11.21 5.00005 12.0059 5Z" fill="#121315"/>
</svg>
