<svg width="20" height="20" viewBox="0 0 20 20" fill="none" xmlns="http://www.w3.org/2000/svg">
<path d="M0 10C0 4.47715 4.47715 0 10 0C15.5228 0 20 4.47715 20 10C20 15.5228 15.5228 20 10 20C4.47715 20 0 15.5228 0 10Z" fill="#C6F065"/>
<path fill-rule="evenodd" clip-rule="evenodd" d="M10.3564 16.6812L10.35 16.6824L10.3086 16.7028L10.2969 16.7052L10.2887 16.7028L10.2473 16.6824C10.2411 16.6804 10.2364 16.6814 10.2333 16.6853L10.231 16.6911L10.221 16.9409L10.2239 16.9526L10.2298 16.9602L10.2905 17.0034L10.2992 17.0057L10.3062 17.0034L10.3669 16.9602L10.3739 16.9509L10.3763 16.9409L10.3664 16.6917C10.3648 16.6855 10.3615 16.682 10.3564 16.6812ZM10.5111 16.6153L10.5035 16.6164L10.3955 16.6707L10.3897 16.6766L10.388 16.683L10.3985 16.9339L10.4014 16.9409L10.406 16.945L10.5234 16.9993C10.5308 17.0013 10.5364 16.9997 10.5403 16.9946L10.5426 16.9865L10.5228 16.6281C10.5208 16.6211 10.5169 16.6168 10.5111 16.6153ZM10.0938 16.6164C10.0912 16.6149 10.0881 16.6144 10.0852 16.615C10.0823 16.6157 10.0797 16.6174 10.078 16.6199L10.0745 16.6281L10.0547 16.9865C10.0551 16.9935 10.0584 16.9981 10.0646 17.0005L10.0734 16.9993L10.1907 16.945L10.1965 16.9404L10.1988 16.9339L10.2088 16.683L10.207 16.676L10.2012 16.6701L10.0938 16.6164Z" fill="#121315"/>
<path fill-rule="evenodd" clip-rule="evenodd" d="M15.5822 6.09012C15.7463 6.25429 15.8385 6.47693 15.8385 6.70908C15.8385 6.94122 15.7463 7.16386 15.5822 7.32804L9.02023 13.89C8.93351 13.9768 8.83055 14.0456 8.71724 14.0925C8.60393 14.1395 8.48248 14.1636 8.35982 14.1636C8.23717 14.1636 8.11572 14.1395 8.00241 14.0925C7.8891 14.0456 7.78614 13.9768 7.69942 13.89L4.43915 10.6303C4.35553 10.5496 4.28884 10.453 4.24295 10.3462C4.19707 10.2393 4.17292 10.1245 4.17191 10.0082C4.1709 9.89198 4.19305 9.7767 4.23707 9.6691C4.28109 9.56151 4.3461 9.46376 4.4283 9.38156C4.5105 9.29936 4.60825 9.23435 4.71584 9.19033C4.82343 9.14631 4.93871 9.12416 5.05496 9.12517C5.1712 9.12618 5.28608 9.15033 5.3929 9.19622C5.49971 9.2421 5.59631 9.3088 5.67707 9.39241L8.35953 12.0749L14.3437 6.09012C14.425 6.00876 14.5215 5.94422 14.6278 5.90019C14.7341 5.85616 14.8479 5.8335 14.963 5.8335C15.078 5.8335 15.1919 5.85616 15.2981 5.90019C15.4044 5.94422 15.5009 6.00876 15.5822 6.09012Z" fill="#121315"/>
</svg>
