<svg width="24" height="24" viewBox="0 0 24 24" fill="none" xmlns="http://www.w3.org/2000/svg">
<path d="M21 12C21 7.0293 16.9707 3 12 3C7.0293 3 3 7.0293 3 12C3 16.9707 7.0293 21 12 21C16.9707 21 21 16.9707 21 12ZM7.923 12.252C7.80868 12.1377 7.73918 11.9862 7.72712 11.825C7.71507 11.6638 7.76126 11.5036 7.8573 11.3736L7.9221 11.2971L11.523 7.6971C11.6373 7.58255 11.789 7.5129 11.9504 7.50084C12.1118 7.48878 12.2722 7.53511 12.4023 7.6314L12.4779 7.6971L16.0779 11.298C16.1987 11.4184 16.2694 11.5801 16.2758 11.7506C16.2822 11.921 16.2238 12.0876 16.1124 12.2168C16.0011 12.3459 15.8449 12.4281 15.6754 12.4469C15.5058 12.4656 15.3355 12.4194 15.1986 12.3177L15.123 12.2529L12.675 9.8031V15.8259C12.675 15.9891 12.6158 16.1469 12.5084 16.2698C12.401 16.3928 12.2527 16.4726 12.0909 16.4946L12 16.5C11.8369 16.5 11.6793 16.4409 11.5564 16.3337C11.4334 16.2265 11.3535 16.0784 11.3313 15.9168L11.325 15.825V9.804L8.877 12.252C8.76266 12.3666 8.61096 12.4362 8.44956 12.4483C8.28816 12.4603 8.1278 12.414 7.9977 12.3177L7.923 12.252Z" fill="#121315"/>
</svg>
