<svg width="24" height="24" viewBox="0 0 24 24" fill="none" xmlns="http://www.w3.org/2000/svg">
<path d="M14.2369 19C15.1019 19 15.5589 20.024 14.9819 20.668C14.6067 21.0871 14.1474 21.4223 13.634 21.6518C13.1205 21.8813 12.5643 22 12.0019 22C11.4395 22 10.8833 21.8813 10.3699 21.6518C9.85636 21.4223 9.39705 21.0871 9.0219 20.668C8.4699 20.052 8.8639 19.089 9.6559 19.007L9.7659 19.001L14.2369 19ZM12.0019 2C13.3599 2 14.5079 2.903 14.8769 4.141L14.9229 4.312L14.9309 4.355C16.0334 4.97671 16.973 5.85086 17.6724 6.9058C18.3719 7.96073 18.8114 9.16641 18.9549 10.424L18.9829 10.711L19.0019 11V13.931L19.0229 14.067C19.1598 14.8038 19.5676 15.4627 20.1659 15.914L20.3329 16.031L20.4949 16.13C21.3549 16.617 21.0549 17.896 20.1179 17.994L20.0019 18H4.0019C2.9739 18 2.6149 16.636 3.5089 16.13C3.88993 15.9144 4.21915 15.618 4.47344 15.2616C4.72773 14.9052 4.90094 14.4974 4.9809 14.067L5.0019 13.924L5.0029 10.954C5.06387 9.64788 5.44406 8.37661 6.11019 7.25147C6.77631 6.12632 7.70807 5.18161 8.8239 4.5L9.0719 4.354L9.0819 4.311C9.22296 3.71283 9.54433 3.17241 10.0025 2.76285C10.4608 2.35328 11.0337 2.09432 11.6439 2.021L11.8259 2.004L12.0019 2Z" fill="#121315"/>
</svg>
