<svg width="24" height="26" viewBox="0 0 24 26" fill="none" xmlns="http://www.w3.org/2000/svg">
<path d="M14.5143 21.9583C15.6316 21.9583 16.2219 23.281 15.4766 24.1128C14.9921 24.6541 14.3988 25.0871 13.7355 25.3836C13.0723 25.68 12.3539 25.8333 11.6275 25.8333C10.901 25.8333 10.1826 25.68 9.51939 25.3836C8.85614 25.0871 8.26286 24.6541 7.77829 24.1128C7.06529 23.3172 7.57421 22.0733 8.59721 21.9674L8.73929 21.9596L14.5143 21.9583ZM11.6275 0C13.3815 0 14.8644 1.16637 15.341 2.76546L15.4004 2.98633L15.4107 3.04188C16.8349 3.84492 18.0484 4.97403 18.9519 6.33665C19.8554 7.69928 20.423 9.25661 20.6084 10.881L20.6446 11.2517L20.6691 11.625V15.4109L20.6962 15.5865C20.8731 16.5383 21.3998 17.3893 22.1726 17.9722L22.3883 18.1234L22.5976 18.2512C23.7084 18.8803 23.3209 20.5323 22.1106 20.6589L21.9608 20.6667H1.29412C-0.0337119 20.6667 -0.49742 18.9048 0.65733 18.2512C1.14949 17.9727 1.57473 17.5899 1.90319 17.1295C2.23166 16.6692 2.45538 16.1425 2.55866 15.5865L2.58579 15.4018L2.58708 11.5656C2.66584 9.87851 3.15691 8.23646 4.01732 6.78315C4.87773 5.32984 6.08125 4.10957 7.52254 3.22917L7.84287 3.04058L7.85579 2.98504C8.03799 2.2124 8.4531 1.51437 9.04496 0.985342C9.63682 0.456317 10.3769 0.121831 11.165 0.0271249L11.4001 0.0051666L11.6275 0Z" fill="#FCFCFC"/>
</svg>
