<svg width="24" height="24" viewBox="0 0 24 24" fill="none" xmlns="http://www.w3.org/2000/svg">
<path fill-rule="evenodd" clip-rule="evenodd" d="M20.6045 6.39593C20.8577 6.64923 21 6.99273 21 7.3509C21 7.70906 20.8577 8.05257 20.6045 8.30587L10.4803 18.4301C10.3465 18.5639 10.1877 18.6701 10.0128 18.7425C9.83802 18.8149 9.65064 18.8522 9.46141 18.8522C9.27217 18.8522 9.08479 18.8149 8.90997 18.7425C8.73514 18.6701 8.5763 18.5639 8.4425 18.4301L3.41236 13.4008C3.28335 13.2762 3.18045 13.1272 3.10966 12.9624C3.03887 12.7976 3.00161 12.6204 3.00005 12.441C2.99849 12.2617 3.03267 12.0838 3.10058 11.9178C3.1685 11.7518 3.2688 11.601 3.39562 11.4742C3.52245 11.3473 3.67326 11.247 3.83926 11.1791C4.00526 11.1112 4.18312 11.077 4.36247 11.0786C4.54182 11.0801 4.71907 11.1174 4.88386 11.1882C5.04866 11.259 5.1977 11.3619 5.3223 11.4909L9.46096 15.6296L18.6937 6.39593C18.8191 6.27041 18.9681 6.17084 19.132 6.1029C19.2959 6.03497 19.4716 6 19.6491 6C19.8266 6 20.0023 6.03497 20.1662 6.1029C20.3301 6.17084 20.4791 6.27041 20.6045 6.39593Z" fill="#121315"/>
</svg>
