<svg width="24" height="24" viewBox="0 0 24 24" fill="none" xmlns="http://www.w3.org/2000/svg">
<path d="M10.9404 12L4.71995 5.78097C4.65022 5.71124 4.5949 5.62845 4.55716 5.53735C4.51942 5.44624 4.5 5.34859 4.5 5.24997C4.5 5.15135 4.51942 5.0537 4.55716 4.9626C4.5949 4.87149 4.65022 4.7887 4.71995 4.71897C4.78968 4.64924 4.87246 4.59392 4.96357 4.55619C5.05468 4.51845 5.15233 4.49902 5.25095 4.49902C5.34956 4.49902 5.44721 4.51845 5.53832 4.55619C5.62943 4.59392 5.71222 4.64924 5.78195 4.71897L12.0009 10.9395L18.2199 4.71897C18.3608 4.57814 18.5518 4.49902 18.7509 4.49902C18.9501 4.49902 19.1411 4.57814 19.2819 4.71897C19.4228 4.8598 19.5019 5.05081 19.5019 5.24997C19.5019 5.44913 19.4228 5.64014 19.2819 5.78097L13.0614 12L19.2819 18.219C19.4228 18.3598 19.5019 18.5508 19.5019 18.75C19.5019 18.9491 19.4228 19.1401 19.2819 19.281C19.1411 19.4218 18.9501 19.5009 18.7509 19.5009C18.5518 19.5009 18.3608 19.4218 18.2199 19.281L12.0009 13.0605L5.78195 19.281C5.64112 19.4218 5.45011 19.5009 5.25095 19.5009C5.05178 19.5009 4.86078 19.4218 4.71995 19.281C4.57912 19.1401 4.5 18.9491 4.5 18.75C4.5 18.5508 4.57912 18.3598 4.71995 18.219L10.9404 12Z" fill="#121315"/>
</svg>
