<svg width="24" height="24" viewBox="0 0 24 24" fill="none" xmlns="http://www.w3.org/2000/svg">
<path d="M12 13C12.5523 13 13 12.5523 13 12C13 11.4477 12.5523 11 12 11C11.4477 11 11 11.4477 11 12C11 12.5523 11.4477 13 12 13Z" fill="#121315"/>
<path d="M16 13C16.5523 13 17 12.5523 17 12C17 11.4477 16.5523 11 16 11C15.4477 11 15 11.4477 15 12C15 12.5523 15.4477 13 16 13Z" fill="#121315"/>
<path d="M8 13C8.55229 13 9 12.5523 9 12C9 11.4477 8.55229 11 8 11C7.44772 11 7 11.4477 7 12C7 12.5523 7.44772 13 8 13Z" fill="#121315"/>
<path d="M11.9965 21.932C10.0317 21.932 8.11094 21.3493 6.47726 20.2577C4.84358 19.166 3.57032 17.6144 2.81849 15.7991C2.06667 13.9838 1.87006 11.9863 2.25353 10.0592C2.637 8.13215 3.58332 6.36208 4.97281 4.97286C6.36231 3.58365 8.13256 2.63768 10.0597 2.2546C11.9868 1.87152 13.9843 2.06854 15.7995 2.82072C17.6146 3.57291 19.166 4.84649 20.2573 6.48039C21.3486 8.11429 21.9309 10.0351 21.9305 12C21.9273 14.6335 20.8796 17.1582 19.0173 19.0202C17.1549 20.8821 14.63 21.9293 11.9965 21.932ZM11.9965 3.06497C10.2296 3.06497 8.50231 3.58891 7.03314 4.57055C5.56398 5.55219 4.41888 6.94743 3.74266 8.57984C3.06644 10.2123 2.88946 12.0085 3.2341 13.7415C3.57873 15.4745 4.42952 17.0664 5.67886 18.3159C6.9282 19.5654 8.51999 20.4163 10.253 20.7612C11.9859 21.106 13.7822 20.9292 15.4147 20.2532C17.0472 19.5772 18.4426 18.4322 19.4244 16.9632C20.4062 15.4941 20.9303 13.7669 20.9305 12C20.9281 9.63116 19.9861 7.36005 18.3112 5.68495C16.6363 4.00986 14.3653 3.06762 11.9965 3.06497Z" fill="#121315"/>
</svg>
