<svg width="19" height="19" viewBox="0 0 19 19" fill="none" xmlns="http://www.w3.org/2000/svg">
 <path d="M17.6296 16.5926H16.5926V2.07407C16.5926 1.5037 16.1259 1.03704 15.5556 1.03704H11.4074C11.4074 0.466667 10.9407 0 10.3704 0H3.11111C2.54074 0 2.07407 0.466667 2.07407 1.03704V16.5926H1.03704C0.466667 16.5926 0 17.0593 0 17.6296C0 18.2 0.466667 18.6667 1.03704 18.6667H10.3704C10.9407 18.6667 11.4074 18.2 11.4074 17.6296V3.11111H14.5185V17.6296C14.5185 18.2 14.9852 18.6667 15.5556 18.6667H17.6296C18.2 18.6667 18.6667 18.2 18.6667 17.6296C18.6667 17.0593 18.2 16.5926 17.6296 16.5926ZM8.2963 10.3704C7.72593 10.3704 7.25926 9.9037 7.25926 9.33333C7.25926 8.76296 7.72593 8.2963 8.2963 8.2963C8.86667 8.2963 9.33333 8.76296 9.33333 9.33333C9.33333 9.9037 8.86667 10.3704 8.2963 10.3704Z" fill="#FCFCFC"/>
</svg>
