<svg width="21" height="21" viewBox="0 0 21 21" fill="none" xmlns="http://www.w3.org/2000/svg">
<path d="M14.7968 6.68134C14.7968 4.30919 12.8738 2.38619 10.5016 2.38619C8.12951 2.38619 6.2065 4.30919 6.2065 6.68134C6.2065 9.05348 8.12951 10.9765 10.5016 10.9765V13.3627C6.81165 13.3627 3.82031 10.3713 3.82031 6.68134C3.82031 2.99134 6.81165 0 10.5016 0C14.1917 0 17.183 2.99134 17.183 6.68134C17.183 10.3713 14.1917 13.3627 10.5016 13.3627V10.9765C12.8738 10.9765 14.7968 9.05348 14.7968 6.68134Z" fill="#FCFCFC"/>
<path d="M10.9765 13.361C10.9765 10.9889 9.05348 9.06588 6.68134 9.06588C4.30919 9.06588 2.38619 10.9889 2.38619 13.361C2.38619 15.7332 4.30919 17.6562 6.68134 17.6562V20.0424C2.99134 20.0424 0 17.051 0 13.361C0 9.67102 2.99134 6.67969 6.68134 6.67969C10.3713 6.67969 13.3627 9.67102 13.3627 13.361C13.3627 17.051 10.3713 20.0424 6.68134 20.0424V17.6562C9.05348 17.6562 10.9765 15.7332 10.9765 13.361Z" fill="#FCFCFC"/>
<path d="M18.6093 13.361C18.6093 10.9889 16.6863 9.06588 14.3141 9.06588C11.942 9.06588 10.019 10.9889 10.019 13.361C10.019 15.7332 11.942 17.6562 14.3141 17.6562V20.0424C10.6241 20.0424 7.63281 17.051 7.63281 13.361C7.63281 9.67102 10.6241 6.67969 14.3141 6.67969C18.0042 6.67969 20.9955 9.67102 20.9955 13.361C20.9955 17.051 18.0042 20.0424 14.3141 20.0424V17.6562C16.6863 17.6562 18.6093 15.7332 18.6093 13.361Z" fill="#FCFCFC"/>
</svg>
