<svg width="24" height="24" viewBox="0 0 24 24" fill="none" xmlns="http://www.w3.org/2000/svg">
<g clip-path="url(#clip0_1153_153165)">
<path fill-rule="evenodd" clip-rule="evenodd" d="M9.58531 0.808007L9.58781 0.750007H7.44631C6.46481 0.750007 5.56781 0.781007 4.98931 0.807007C4.39281 0.834007 3.79831 1.06351 3.34931 1.52001C2.81231 2.06651 1.94281 3.05351 1.23181 4.35101C1.03872 4.70319 0.9375 5.09836 0.9375 5.50001C0.9375 5.90165 1.03872 6.29682 1.23181 6.64901C1.94281 7.94651 2.81181 8.93351 3.34931 9.48001C3.79831 9.93651 4.39281 10.166 4.98931 10.193C5.56781 10.219 6.46431 10.25 7.44631 10.25H9.50031C9.50281 5.96851 9.52631 3.55651 9.55031 2.20451C9.56281 1.48251 9.57531 1.05751 9.58531 0.808007ZM3.74981 4.00001C3.74981 3.80109 3.82883 3.61033 3.96948 3.46968C4.11014 3.32902 4.3009 3.25001 4.49981 3.25001H7.24981C7.44873 3.25001 7.63949 3.32902 7.78014 3.46968C7.9208 3.61033 7.99981 3.80109 7.99981 4.00001C7.99981 4.19892 7.9208 4.38969 7.78014 4.53034C7.63949 4.67099 7.44873 4.75001 7.24981 4.75001H4.49981C4.3009 4.75001 4.11014 4.67099 3.96948 4.53034C3.82883 4.38969 3.74981 4.19892 3.74981 4.00001ZM5.99981 6.25001C5.8009 6.25001 5.61014 6.32902 5.46948 6.46968C5.32883 6.61033 5.24981 6.8011 5.24981 7.00001C5.24981 7.19892 5.32883 7.38969 5.46948 7.53034C5.61014 7.67099 5.8009 7.75001 5.99981 7.75001H7.49981C7.69873 7.75001 7.88949 7.67099 8.03014 7.53034C8.1708 7.38969 8.24981 7.19892 8.24981 7.00001C8.24981 6.8011 8.1708 6.61033 8.03014 6.46968C7.88949 6.32902 7.69873 6.25001 7.49981 6.25001H5.99981ZM14.4998 15.75H16.5533C17.5348 15.75 18.4318 15.719 19.0103 15.693C19.6068 15.666 20.2013 15.4365 20.6503 14.98C21.1873 14.4335 22.0568 13.4465 22.7678 12.149C22.9609 11.7968 23.0621 11.4017 23.0621 11C23.0621 10.5984 22.9609 10.2032 22.7678 9.85101C22.0568 8.55351 21.1878 7.56651 20.6503 7.02001C20.2013 6.56351 19.6068 6.33401 19.0103 6.30701C18.4318 6.28101 17.5353 6.25001 16.5533 6.25001H14.4888C14.4958 7.56251 14.4998 9.17251 14.4998 11.147V15.75ZM20.2498 9.50001C20.2498 9.30109 20.1708 9.11033 20.0301 8.96968C19.8895 8.82902 19.6987 8.75001 19.4998 8.75001H16.7498C16.5509 8.75001 16.3601 8.82902 16.2195 8.96968C16.0788 9.11033 15.9998 9.30109 15.9998 9.50001C15.9998 9.69892 16.0788 9.88968 16.2195 10.0303C16.3601 10.171 16.5509 10.25 16.7498 10.25H19.4998C19.6987 10.25 19.8895 10.171 20.0301 10.0303C20.1708 9.88968 20.2498 9.69892 20.2498 9.50001ZM17.9998 11.75C18.1987 11.75 18.3895 11.829 18.5301 11.9697C18.6708 12.1103 18.7498 12.3011 18.7498 12.5C18.7498 12.6989 18.6708 12.8897 18.5301 13.0303C18.3895 13.171 18.1987 13.25 17.9998 13.25H16.4998C16.4013 13.25 16.3038 13.2306 16.2128 13.1929C16.1218 13.1552 16.0391 13.1 15.9695 13.0303C15.8998 12.9607 15.8446 12.878 15.8069 12.787C15.7692 12.696 15.7498 12.5985 15.7498 12.5C15.7498 12.4015 15.7692 12.304 15.8069 12.213C15.8446 12.122 15.8998 12.0393 15.9695 11.9697C16.0391 11.9 16.1218 11.8448 16.2128 11.8071C16.3038 11.7694 16.4013 11.75 16.4998 11.75H17.9998ZM16.4998 20.75H13.2498V11.5C13.2498 5.42501 13.2078 2.92651 13.1783 1.91851C13.1708 1.67601 13.1168 1.41951 12.9883 1.20651C12.9219 1.09009 12.8295 0.990505 12.7185 0.915429C12.6074 0.840354 12.4806 0.791797 12.3478 0.773507C12.2325 0.757582 12.1162 0.749729 11.9998 0.750007C11.8711 0.75034 11.7551 0.758174 11.6518 0.773507C11.3548 0.816007 11.1433 0.987007 11.0108 1.20651C10.8828 1.41951 10.8288 1.67651 10.8213 1.91851C10.7918 2.92651 10.7498 5.42501 10.7498 11.5V20.75H7.49981C7.16829 20.75 6.85035 20.8817 6.61593 21.1161C6.38151 21.3505 6.24981 21.6685 6.24981 22C6.24981 22.3315 6.38151 22.6495 6.61593 22.8839C6.85035 23.1183 7.16829 23.25 7.49981 23.25H16.4998C16.8313 23.25 17.1493 23.1183 17.3837 22.8839C17.6181 22.6495 17.7498 22.3315 17.7498 22C17.7498 21.6685 17.6181 21.3505 17.3837 21.1161C17.1493 20.8817 16.8313 20.75 16.4998 20.75Z" fill="#121315"/>
</g>
<defs>
<clipPath id="clip0_1153_153165">
<rect width="24" height="24" fill="white"/>
</clipPath>
</defs>
</svg>
