<svg width="24" height="24" viewBox="0 0 24 24" fill="none" xmlns="http://www.w3.org/2000/svg">
<path d="M21.8872 8.32946H22.0932C22.1565 8.50058 21.9552 8.50919 21.9377 8.55678C21.8599 8.76689 22.1838 8.59425 22.0926 8.83322C21.7863 8.8074 21.8558 9.19977 22.0968 9.21698V10.1212L21.9356 10.1764L21.8914 11.3343L21.7385 11.3647L21.7338 11.5647H21.5274L21.5289 11.7135C21.9089 11.7479 21.7827 12.2416 21.3729 12.1201L21.374 12.4745H21.1675L21.1608 12.6719L21.0239 12.6866L21.009 12.8213L20.8077 12.8278L20.8118 13.3559L20.664 13.3939L20.6496 13.5286L20.4483 13.5351L20.4457 13.8865L20.0936 13.9442C20.1647 14.3128 19.9649 14.2277 19.8939 14.3067C19.845 14.3609 19.9685 14.4834 19.6823 14.4515C19.7101 14.6571 19.534 14.6069 19.3749 14.652L19.3698 15.0008H19.1633L19.1572 15.1988C18.9095 15.1406 19.014 15.4889 18.9466 15.5481C18.907 15.5831 18.7685 15.498 18.7994 15.701L18.5981 15.7076L18.5991 15.9106L18.3978 15.9167L18.3829 16.0514L18.2465 16.0666L18.232 16.259L18.0956 16.2742L18.0807 16.4088L17.8794 16.4149L17.8804 16.6179L17.674 16.6169L17.6678 16.8149L17.5309 16.8296L17.5159 16.9642L17.3146 16.9708L17.3079 17.1688C17.101 17.1384 17.1875 17.2746 17.1525 17.3136C17.119 17.3505 16.8662 17.3338 16.8127 17.387C16.7664 17.4331 16.7797 17.6351 16.7401 17.6695C16.7005 17.7039 16.4909 17.6887 16.423 17.7272C16.3694 17.7576 16.4065 17.8426 16.3782 17.869C16.3499 17.8953 16.2706 17.869 16.2479 17.8892C16.2155 17.9176 16.2129 18.1596 16.18 18.2295L15.8834 18.2421C15.8865 18.4851 15.661 18.3601 15.6425 18.592L15.311 18.5879V18.9423L14.9511 18.9418V19.2962L14.7508 19.2891L14.7457 19.1443H14.5933C14.6314 19.357 14.4481 19.3104 14.3987 19.3615C14.286 19.4785 14.1603 19.5904 14.0383 19.7149C14.0136 19.7397 14.0383 19.8187 14.0183 19.84C13.9426 19.9195 13.5771 19.8653 13.4623 19.8521L13.4659 20.1756C13.2476 20.1994 13.2913 20.3528 13.2424 20.3974C13.1935 20.4419 13.0478 20.3285 13.1024 20.6105L12.5855 20.5807C12.5474 20.8485 12.4151 20.7229 12.2638 20.81C12.2509 20.8176 12.0444 20.968 12.0342 20.9791C11.9852 21.0328 12.1021 21.1685 11.8164 21.1158V21.3188L11.4601 21.3244L11.4287 21.4738H10.9196L10.8882 21.3244L10.5602 21.3224C10.5402 20.9913 10.0933 21.2672 10.1103 20.9756L9.97386 20.9604C10.0058 20.6799 9.87913 20.8004 9.82662 20.7523C9.78028 20.7098 9.82404 20.5447 9.6176 20.5473C9.65776 20.286 9.32158 20.4723 9.25208 20.4014C9.23612 20.3852 9.26341 20.2992 9.23664 20.2713C9.20987 20.2435 9.13059 20.2571 9.09558 20.2303C9.058 20.202 8.88862 19.9362 8.7733 19.8865C8.6343 19.8263 8.49479 19.9291 8.52465 19.7078L8.32232 19.7023V19.4992L7.96761 19.4921C7.99593 19.3013 7.87649 19.3722 7.81111 19.3215C7.79875 19.3124 7.64174 19.1585 7.61599 19.1337C7.59025 19.1089 7.61291 19.0314 7.59231 19.0086C7.54083 18.9509 7.28857 18.9712 7.25202 18.9322C7.23194 18.9109 7.25665 18.8319 7.23194 18.8066C7.20054 18.7747 7.10839 18.7965 7.06411 18.7403C6.99873 18.6573 7.11456 18.5555 6.83759 18.5828L6.82215 18.4487L6.68521 18.434L6.67851 18.236L6.47722 18.2295C6.50811 18.0259 6.36962 18.111 6.32998 18.0766C6.2507 18.0072 6.3897 17.6386 5.96807 17.668C5.97888 17.385 5.69109 17.6882 5.74824 17.3298L5.59534 17.2999L5.59946 16.9733H5.39302L5.39353 16.6195L4.98734 16.6119C4.99558 16.5582 4.83186 16.2964 4.8123 16.2782C4.78502 16.2534 4.70728 16.2767 4.68617 16.2569C4.59299 16.1704 4.68823 15.7982 4.65271 15.7572C4.61564 15.7142 4.51371 15.7299 4.48024 15.6955C4.45399 15.6686 4.48951 15.5866 4.43546 15.5567C4.37059 15.5208 4.12554 15.5193 4.11164 15.5056L4.10185 15.1583C3.85526 15.2165 3.95976 14.8687 3.89181 14.809C3.86916 14.7892 3.78936 14.8145 3.76207 14.7882C3.73685 14.7644 3.76053 14.6874 3.73736 14.6637C3.70493 14.6287 3.603 14.6469 3.56696 14.6024C3.45936 14.4672 3.71677 14.2136 3.18394 14.2444V14.0936H3.33838V13.9422L3.18908 13.9392L3.17776 13.7437C2.86681 13.7741 3.14275 13.3103 2.82047 13.3083L2.81687 13.039L2.62484 12.9509L2.62227 12.5043L2.46988 12.4739C2.44054 12.4451 2.48687 12.2436 2.45598 12.1545C2.43436 12.0927 2.34272 12.0897 2.31081 12.0335C2.24182 11.911 2.26859 11.7064 2.25315 11.5697L2.10436 11.5672V11.4158L2.25212 11.4112L2.25057 11.2189L2.109 11.2108L2.10488 11.0108L1.89844 11.0118L1.90667 8.34009L2.10436 8.25706L2.07296 8.12998L1.89844 8.13099L1.9216 7.62166L2.10797 7.5442L2.10076 6.74376L2.25315 6.71338C2.28455 6.68199 2.23461 6.47745 2.26447 6.3934C2.30051 6.29316 2.58108 6.36151 2.46062 5.98584L2.60837 5.95141C2.64132 5.92104 2.62845 5.70333 2.66757 5.63701C2.69537 5.58942 3.06295 5.41627 3.04288 5.26134C3.27763 5.27704 3.16077 5.07806 3.18291 4.89681L3.38935 4.89782L3.38832 4.6948L3.94895 4.68771L3.96388 4.55355L4.10082 4.53937L4.10752 4.34141L4.64447 4.34546C4.67485 4.02751 5.04037 4.29129 5.06096 3.98448L5.92945 3.99157L5.96446 3.84626C6.23835 3.73336 6.5009 3.82348 6.75368 3.82601C6.93798 3.82803 7.46979 3.67868 7.45125 3.98093L7.77868 3.98448C7.75499 4.30901 8.48243 4.14041 8.52671 4.19003L8.5334 4.38799L8.67034 4.40217L8.70895 4.54747L9.24127 4.55152C9.20472 4.74594 9.36586 4.67151 9.42506 4.74746C9.49044 4.83049 9.37461 4.93225 9.65158 4.90491L9.66703 5.03908L9.80397 5.05376L9.81066 5.25172H10.171L10.1777 5.44917L10.3147 5.46386L10.3296 5.59853L10.5309 5.60511V5.95951L10.8902 5.95901L10.8964 6.15747C11.1152 6.12456 11.0673 6.35341 11.0982 6.51289L11.2959 6.52251C11.3618 6.73161 11.4998 6.78224 11.4843 7.07234H11.8148L11.8215 6.87387C12.046 6.90628 11.9168 6.64756 12.1665 6.66022L12.1737 6.16152L12.3801 6.16254L12.3791 5.95951L12.7106 5.96356C12.7225 5.757 12.8584 5.83193 12.9186 5.75649C12.9999 5.65473 12.8656 5.55043 13.2254 5.60967L13.2558 5.4593L13.4592 5.45474L13.4581 5.25172L13.6646 5.25273L13.6635 5.04971L13.9688 5.04414L14.0002 4.89479L14.3833 4.89884V4.69581L14.738 4.68822C14.7097 4.49735 14.8291 4.56823 14.8945 4.5176C14.9527 4.47254 14.9305 4.38445 14.9629 4.35407C15.0062 4.31407 15.1117 4.39609 15.1303 4.18699L15.6672 4.19104V3.98802L16.2042 3.98498L16.2603 4.14345H16.718L16.7741 3.98498H18.7185L18.7973 4.16826L19.1561 4.19864C19.1247 4.39508 19.2586 4.3166 19.3003 4.35407C19.3353 4.38596 19.3168 4.48672 19.3626 4.52165C19.4393 4.58089 19.6298 4.51608 19.6699 4.54899C19.6957 4.56975 19.6926 4.79201 19.7379 4.83606C19.7832 4.8801 19.9392 4.8634 19.9994 4.89631C20.0596 4.92921 20.0267 5.02845 20.0879 5.07452C20.2141 5.16869 20.2769 5.02288 20.2481 5.39703C20.3011 5.39146 20.6084 5.63903 20.6239 5.65878C20.663 5.70839 20.7917 5.91901 20.819 5.94686C20.8447 5.97318 20.9225 5.94989 20.9456 5.97015C21.0429 6.05419 20.9055 6.34784 21.1691 6.34075L21.1727 6.66022C21.4306 6.66984 21.3637 6.82223 21.3776 7.01665L21.5161 7.02627C21.4759 7.23385 21.6571 7.246 21.6973 7.3351C21.758 7.46978 21.6561 7.62369 21.8852 7.5761V8.33401L21.8872 8.32946ZM4.67382 7.21765V8.32946H4.82775V8.48084L4.67896 8.48388L4.6769 9.15775C4.3536 9.18863 4.40302 9.73948 4.6769 9.77239L4.6697 10.6265L4.8226 10.6569L4.82723 10.8569L5.03367 10.8558L5.03676 11.5363L4.87923 11.5641V11.7155L5.02852 11.7186L5.03831 11.915L5.1804 11.9216C5.22673 11.9656 5.13664 12.3302 5.21025 12.4269C5.24423 12.4719 5.34771 12.4537 5.38066 12.4886C5.40331 12.5129 5.38014 12.5894 5.40537 12.6132C5.43266 12.6395 5.51297 12.6142 5.5351 12.6339C5.60357 12.6937 5.49804 13.041 5.74618 12.9833L5.75236 13.1817L5.95365 13.1883L5.96807 13.3235L6.10449 13.3377C6.13178 13.3635 6.08647 13.7923 6.17502 13.8774C6.25585 13.9554 6.52407 13.8506 6.47568 14.085L6.67748 14.091C6.61159 14.3695 6.79332 14.2556 6.83347 14.3255C6.87363 14.3953 6.85818 14.6069 6.89422 14.6383C6.91687 14.6581 6.99667 14.6328 7.02395 14.6591C7.04918 14.6829 7.0255 14.7598 7.04867 14.7836C7.0811 14.8186 7.18355 14.8004 7.21907 14.8449C7.2793 14.9203 7.21135 15.1062 7.24945 15.1456C7.26746 15.1639 7.35704 15.1487 7.39514 15.1775C7.4528 15.2221 7.43015 15.3147 7.46207 15.3436C7.51458 15.3912 7.64122 15.2707 7.6093 15.5517L7.74573 15.5669L7.76066 15.7015L7.96195 15.7081V15.9112L8.31923 15.9132C8.24304 16.3147 8.61474 16.2114 8.67497 16.2706C8.70071 16.2964 8.67291 16.4868 8.74396 16.5562C8.815 16.6255 8.99004 16.5926 9.0302 16.6291C9.04719 16.6443 9.26186 16.9207 9.25105 16.9652L9.45235 16.9718V17.3262L9.96613 17.3257V17.5287C10.2519 17.4746 10.135 17.6163 10.1824 17.666C10.2096 17.6948 10.2894 17.6801 10.3234 17.7065C10.3826 17.752 10.36 17.8426 10.3909 17.871C10.4434 17.9191 10.57 17.7986 10.5381 18.0786C10.674 18.0917 10.8387 18.3074 10.9814 18.3859C11.1384 18.472 11.4323 18.4249 11.6099 18.438V18.235L12.1752 18.236C12.1088 17.9581 12.291 18.071 12.3312 18.0016C12.3672 17.9394 12.3683 17.6963 12.3827 17.6827L12.7353 17.6725C12.7122 17.4604 12.9433 17.5713 12.9763 17.3232L13.3052 17.3272L13.3099 17.1273L13.4628 17.0969L13.4587 16.821L13.991 16.7724L14.0522 16.6154L14.3838 16.6195L14.3905 16.4215L14.5274 16.4068L14.5423 16.2721L14.7436 16.2656V15.9112L15.0963 15.9041L15.1503 15.7314L15.4597 15.7036L15.4911 15.5537L16.0255 15.5041C16.0544 15.4752 15.9869 14.9836 16.0914 14.8621C16.1522 14.7917 16.3524 14.8201 16.3813 14.7928C16.407 14.768 16.3993 14.5432 16.4374 14.4784C16.4683 14.4257 16.5537 14.4616 16.581 14.4338C16.6212 14.3913 16.5398 14.2601 16.7406 14.2895L16.7473 14.0915L16.9537 14.0926L16.9527 13.8895L17.1592 13.8905L17.1653 13.5908L17.3079 13.5847L17.3126 13.3848L17.519 13.3858L17.5236 13.1858L17.6663 13.1792L17.6724 12.8289H17.8789C17.8253 12.5489 17.9628 12.6638 18.0179 12.6157C18.1059 12.5382 18.2763 12.2198 18.2475 12.077L18.3824 12.0613L18.3978 11.9272C18.6835 11.958 18.56 11.835 18.6089 11.7819C18.6815 11.7029 18.8797 11.7879 18.8091 11.4173L18.9615 11.3869L18.9574 10.8584H19.1639L19.1695 10.508L19.3214 10.4771V8.71323L19.1602 8.65804C19.152 8.49147 19.1978 8.15023 19.1144 8.0105C19.0794 7.95177 18.9837 7.99429 18.9646 7.97354C18.9322 7.9381 18.9837 7.81608 18.9507 7.78064C18.9342 7.76292 18.8462 7.79077 18.8179 7.76494C18.7695 7.7209 18.8127 7.56699 18.5945 7.54319L18.5903 7.02272L18.4539 7.00855L18.4158 6.86274L18.0884 6.8597C18.126 6.57061 17.7116 6.82375 17.6961 6.50935L16.0286 6.51238V6.71541L15.6724 6.72097L15.6662 6.86122L15.1092 6.87489L15.0942 7.00905L14.9568 7.02323L14.9506 7.22119L14.7442 7.22018L14.738 7.41814L14.601 7.43282L14.5861 7.56749L14.3848 7.57407L14.3776 7.92139C14.166 7.90164 14.2134 8.07631 14.1655 8.11985C14.1372 8.14568 14.0491 8.11783 14.0327 8.13555C13.9997 8.17048 14.0507 8.293 14.0188 8.32845C13.9997 8.3492 13.9029 8.30668 13.869 8.3649C13.8304 8.43122 13.8442 8.64488 13.8082 8.67829C13.7866 8.69804 13.7063 8.67374 13.6805 8.69804C13.6301 8.74563 13.6795 8.91473 13.4679 8.89549L13.455 9.18711L13.1034 9.24483L13.1014 9.5962H12.8949L12.8893 9.94655L12.7374 9.97743L12.7415 10.304H12.5351L12.5284 10.5014L12.3914 10.5161L12.3765 10.6508L12.1752 10.6574V11.0113H10.8907L10.8871 10.866L10.5304 10.8604L10.5314 10.6574L10.325 10.6584L10.3203 10.4584L10.1674 10.4285L10.1715 10.102L9.97025 10.0954L9.95584 9.96073L9.81014 9.9263L9.81787 9.75315L9.96613 9.74859C10.0228 9.47671 9.753 9.72783 9.81066 9.42001C9.81993 9.3709 9.94142 9.40988 9.95996 9.39064L9.96768 9.218L9.82198 9.18357L9.80757 9.0489L9.60628 9.04232L9.60061 8.69146L9.45801 8.68538C9.43793 8.48489 9.53317 8.28592 9.25414 8.27731L9.25054 7.95784C9.02247 7.93303 9.06829 7.7695 9.03895 7.57914L8.6863 7.56901L8.67137 7.43484L8.53391 7.42067L8.52722 7.22271L8.32593 7.21613L8.311 7.08145L8.17406 7.06677L8.16736 6.86881L7.76066 6.86122L7.74573 6.72705L7.60879 6.71287L7.6021 6.51491L7.06463 6.51846L7.00851 6.35999L6.19459 6.31898L6.10501 6.50783L5.62932 6.51137L5.55055 6.69465L5.26637 6.71338L5.23548 6.86375L5.03264 6.86831V7.22271H4.6733L4.67382 7.21765Z" fill="#121315"/>
</svg>
